<?xml version="1.0" standalone="no"?>
<!DOCTYPE svg PUBLIC "-//W3C//DTD SVG 1.1//EN" "http://www.w3.org/Graphics/SVG/1.1/DTD/svg11.dtd" >
<svg xmlns="http://www.w3.org/2000/svg">
<metadata>Generated by IcoMoon</metadata>
<defs>
<font id="clickcollect2" horiz-adv-x="1024">
<font-face units-per-em="1024" ascent="960" descent="-64" />
<missing-glyph horiz-adv-x="1024" />
<glyph unicode="&#x20;" horiz-adv-x="0" d="" />
<glyph unicode="&#xe603;" glyph-name="home4" d="M25.591 369.553c-6.125 0-12.269 2.184-17.166 6.618-10.485 9.485-11.294 25.674-1.808 36.158l452.048 499.632c14.053 15.531 32.995 24.086 53.334 24.086 0 0 0 0 0 0 20.339 0 39.28-8.554 53.333-24.086l151.802-167.781-0.334 60.432c-0.037 6.814 2.643 13.362 7.448 18.194 4.805 4.83 11.338 7.547 18.152 7.547h102.4c14.139 0 25.6-11.462 25.6-25.6v-229.97l146.982-162.456c9.486-10.485 8.677-26.674-1.808-36.158-10.485-9.488-26.674-8.677-36.158 1.808l-153.6 169.766c-4.259 4.707-6.618 10.829-6.618 17.176v214.234h-51.058l0.563-101.691c0.058-10.613-6.437-20.162-16.331-24.005-9.894-3.84-21.133-1.182-28.251 6.688l-196.755 217.467c-4.222 4.667-9.68 7.235-15.366 7.235s-11.146-2.57-15.368-7.237l-452.048-499.632c-5.053-5.587-12.010-8.426-18.992-8.426zM793.599-40.047h-204.8c-14.139 0-25.6 11.461-25.6 25.6v179.2h-102.4v-179.2c0-14.139-11.462-25.6-25.6-25.6h-204.8c-42.347 0-76.8 34.453-76.8 76.8v409.6c0 14.139 11.462 25.6 25.6 25.6s25.6-11.461 25.6-25.6v-409.6c0-14.115 11.485-25.6 25.6-25.6h179.2v179.2c0 14.139 11.462 25.6 25.6 25.6h153.6c14.139 0 25.6-11.461 25.6-25.6v-179.2h179.2c14.115 0 25.6 11.485 25.6 25.6v409.6c0 14.139 11.461 25.6 25.6 25.6s25.6-11.461 25.6-25.6v-409.6c0-42.347-34.453-76.8-76.8-76.8z" />
<glyph unicode="&#xe60e;" glyph-name="pencil2" d="M25.283-65.25c-6.675 0-13.219 2.611-18.106 7.499-7.034 7.034-9.355 17.502-5.957 26.85l102.4 281.6c1.278 3.515 3.312 6.707 5.957 9.354l691.2 691.2c9.997 9.997 26.206 9.997 36.203 0l179.2-179.2c9.998-9.998 9.998-26.206 0-36.205l-691.2-691.2c-2.645-2.645-5.838-4.678-9.354-5.958l-281.6-102.4c-2.851-1.037-5.811-1.539-8.744-1.539zM149.798 227.864l-81.712-224.707 224.709 81.71 669.080 669.083-142.995 142.997-669.082-669.083z" />
<glyph unicode="&#xe64c;" glyph-name="cloud-download" d="M658.098 274.099c-9.995 9.997-26.206 9.997-36.203 0l-58.696-58.694v219.795c0 14.139-11.461 25.6-25.6 25.6s-25.6-11.461-25.6-25.6v-219.795l-58.698 58.699c-9.998 9.995-26.206 9.995-36.205 0-9.997-9.997-9.997-26.208 0-36.205l102.4-102.4c5-4.998 11.552-7.499 18.102-7.499s13.102 2.499 18.099 7.501l102.4 102.4c10 9.995 10 26.203 0 36.198zM819.519 153.6h-128.32c-14.139 0-25.6 11.461-25.6 25.6s11.461 25.6 25.6 25.6h128.32c84.518 0 153.28 68.762 153.28 153.28s-68.762 153.28-153.28 153.28c-18.128 0-35.794-3.101-52.507-9.222-11.166-4.088-23.677 0.050-30.202 9.989s-5.349 23.064 2.842 31.685c18.28 19.235 28.347 44.307 28.347 70.589 0 56.464-45.936 102.4-102.4 102.4-32.858 0-62.912-15.187-82.456-41.667-11.798-15.986-18.669-34.706-19.867-54.138-0.67-10.85-8.117-20.093-18.574-23.054-10.462-2.966-21.648 1.006-27.906 9.891-5.632 7.998-11.73 15.702-18.126 22.904-48.587 54.694-118.374 86.064-191.47 86.064-141.158 0-256-114.84-256-256s114.842-256 256-256h76.8c14.138 0 25.6-11.461 25.6-25.6s-11.462-25.6-25.6-25.6h-76.8c-169.39 0-307.2 137.81-307.2 307.2s137.81 307.2 307.2 307.2c82.034 0 160.589-32.917 218.104-90.866 4.483 9.947 10.048 19.469 16.643 28.403 28.87 39.112 75.093 62.462 123.653 62.462 84.696 0 153.6-68.904 153.6-153.6 0-17.957-3.118-35.523-9.096-52.051 3.126 0.142 6.267 0.211 9.416 0.211 112.75 0 204.48-91.73 204.48-204.48s-91.73-204.48-204.48-204.48z" />
<glyph unicode="&#xe66b;" glyph-name="lock" d="M768 576h-25.6v76.8c0 127.043-103.357 230.4-230.4 230.4s-230.4-103.357-230.4-230.4v-76.8h-25.6c-42.347 0-76.8-34.453-76.8-76.8v-409.6c0-42.347 34.453-76.8 76.8-76.8h512c42.347 0 76.8 34.453 76.8 76.8v409.6c0 42.347-34.453 76.8-76.8 76.8zM332.8 652.8c0 98.811 80.389 179.2 179.2 179.2s179.2-80.389 179.2-179.2v-76.8h-358.4v76.8zM793.6 89.6c0-14.115-11.485-25.6-25.6-25.6h-512c-14.115 0-25.6 11.485-25.6 25.6v409.6c0 14.115 11.485 25.6 25.6 25.6h512c14.115 0 25.6-11.485 25.6-25.6v-409.6z" />
<glyph unicode="&#xe66d;" glyph-name="unlock" d="M742.4 908.8c-127.043 0-230.4-103.357-230.4-230.4v-128h-384c-42.347 0-76.8-34.453-76.8-76.8v-409.6c0-42.347 34.453-76.8 76.8-76.8h512c42.347 0 76.8 34.453 76.8 76.8v409.6c0 42.347-34.453 76.8-76.8 76.8h-76.8v128c0 98.811 80.389 179.2 179.2 179.2s179.2-80.389 179.2-179.2v-51.2c0-14.138 11.461-25.6 25.6-25.6s25.6 11.462 25.6 25.6v51.2c0 127.043-103.357 230.4-230.4 230.4zM640 499.2c14.115 0 25.6-11.485 25.6-25.6v-409.6c0-14.115-11.485-25.6-25.6-25.6h-512c-14.115 0-25.6 11.485-25.6 25.6v409.6c0 14.115 11.485 25.6 25.6 25.6h512z" />
<glyph unicode="&#xe68c;" glyph-name="heart" d="M30 359q-13 0-21.5-8.5t-8.5-21.5v-300q0-12 8.5-21t21.5-9h152v360h-152zM919 370l-141-162q-13-14-30-21.5t-36-7.5h-202q-13 0-21.5 8.5t-8.5 21.5q0 12 8.5 21t21.5 9h182q25 0 42.5 17.5t17.5 42.5q0 24-17.5 42t-42.5 18h-157q-11 0-18.5 6t-15.5 14q-34 29-77.5 42.5t-87.5 8.5q-26-4-49.5-13.5t-44.5-24.5v-393h450q50 0 94 22t74 62l146 192q43 56-2.5 96t-84.5-2v1zM692 656q-42 0-71 29.5t-29 71.5v0h40q0-25 17.5-43t42.5-18v0q25 0 42.5 18t17.5 43v0 0 0h40q0-42-29.5-71.5t-70.5-29.5v0 0zM692 857q25 0 42.5-17.5t17.5-42.5v0 0 0h-120q0 25 17.5 42.5t42.5 17.5v0 0zM832 797h-40q0 41-29.5 70.5t-70.5 29.5v0q-42 0-71-29.5t-29-70.5v0h-40q-17 0-28.5-12t-11.5-28v-241q0-16 11.5-28t28.5-12h280q17 0 28.5 12t11.5 28v0 241q0 16-11.5 28t-28.5 12v0z" />
<glyph unicode="&#xe68d;" glyph-name="star" d="M793.597 13.583c-4.205 0-8.422 1.034-12.258 3.126l-269.341 146.912-269.341-146.912c-8.598-4.691-19.118-4.061-27.098 1.613-7.981 5.677-12.022 15.41-10.413 25.069l49.034 294.206-195.483 195.485c-6.781 6.781-9.203 16.782-6.277 25.914s10.712 15.862 20.17 17.438l294.341 49.058 122.17 244.339c4.336 8.674 13.2 14.152 22.898 14.152s18.562-5.478 22.898-14.152l122.17-244.339 294.341-49.058c9.459-1.576 17.243-8.307 20.17-17.438s0.504-19.133-6.277-25.914l-195.483-195.485 49.034-294.206c1.61-9.659-2.434-19.392-10.413-25.069-4.419-3.144-9.621-4.739-14.84-4.739zM511.999 218.383c4.219 0 8.437-1.042 12.259-3.126l235.445-128.426-42.557 255.344c-1.36 8.155 1.302 16.464 7.15 22.309l169.626 169.626-258.131 43.022c-8.080 1.346-15.027 6.477-18.69 13.803l-105.102 210.205-105.102-210.205c-3.664-7.326-10.61-12.458-18.69-13.803l-258.131-43.022 169.624-169.626c5.846-5.845 8.509-14.155 7.15-22.309l-42.557-255.344 235.446 128.426c3.821 2.085 8.040 3.126 12.259 3.126z" />
<glyph unicode="&#xe68e;" glyph-name="star-half" d="M512 960q-106 0-199-40-93-41-162.5-110.5t-110.5-162.5q-40-93-40-199t40-199q41-94 110.5-163.5t162.5-109.5 199-40 199 40 162.5 109.5 110.5 163.5q40 93 40 199t-40 199q-41 93-110.5 162.5t-162.5 110.5q-93 40-199 40zM768 397h-205v-205h-102v205h-205v102h205v205h102v-205h205v-102z" />
<glyph unicode="&#xe68f;" glyph-name="star-empty" d="M281.569 558.931c-12.29 0-23.134 8.874-25.221 21.395-2.325 13.946 7.098 27.136 21.043 29.461l89.541 14.923 19.77 39.539c6.323 12.646 21.701 17.773 34.346 11.45 12.646-6.323 17.771-21.701 11.45-34.346l-25.6-51.2c-3.664-7.326-10.61-12.458-18.69-13.803l-102.4-17.067c-1.424-0.237-2.842-0.352-4.238-0.352zM127.999 473.601c-6.552 0-13.102 2.499-18.101 7.499l-51.2 51.2c-6.781 6.781-9.203 16.782-6.277 25.914s10.71 15.862 20.17 17.438l102.4 17.067c13.957 2.326 27.136-7.099 29.461-21.043 2.325-13.946-7.098-27.136-21.043-29.461l-53.331-8.89 16.024-16.026c9.998-9.997 9.998-26.206 0-36.203-5-4.997-11.55-7.496-18.102-7.496zM759.433 217.596c-12.29 0-23.134 8.875-25.221 21.397l-17.066 102.4c-1.36 8.155 1.302 16.464 7.15 22.309l51.2 51.2c9.997 9.997 26.206 9.997 36.203 0s9.998-26.206 0-36.203l-41.885-41.885 14.899-89.406c2.325-13.946-7.098-27.136-21.043-29.459-1.422-0.237-2.838-0.352-4.238-0.352zM793.597 12.801c-4.205 0-8.422 1.034-12.256 3.126l-153.606 83.784c-12.413 6.768-16.986 22.32-10.216 34.731 6.766 12.414 22.32 16.99 34.731 10.216l107.453-58.61-8.424 50.542c-2.325 13.947 7.098 27.136 21.042 29.461 13.955 2.322 27.136-7.096 29.461-21.042l17.067-102.4c1.61-9.661-2.434-19.394-10.413-25.070-4.418-3.144-9.619-4.739-14.838-4.739zM273.097 268.796c-1.398 0-2.814 0.115-4.238 0.354-13.946 2.325-23.366 15.514-21.043 29.461l6.368 38.205-41.885 41.885c-9.998 9.997-9.998 26.206 0 36.203s26.206 9.997 36.203 0l51.2-51.2c5.846-5.845 8.509-14.155 7.15-22.31l-8.533-51.2c-2.088-12.522-12.934-21.397-25.222-21.397zM230.401 12.801c-5.221 0-10.421 1.595-14.842 4.739-7.981 5.677-12.022 15.41-10.413 25.069l25.6 153.598c2.325 13.947 15.514 23.368 29.461 21.043 13.946-2.323 23.366-15.514 21.043-29.459l-16.957-101.742 56.246 30.68c12.41 6.771 27.963 2.197 34.733-10.214 6.77-12.413 2.197-27.963-10.216-34.733l-102.4-55.854c-3.834-2.093-8.051-3.126-12.256-3.126zM435.221 124.505c-9.067 0-17.85 4.827-22.498 13.347-6.77 12.411-2.197 27.963 10.216 34.731l76.8 41.891c7.64 4.168 16.875 4.168 24.517 0l25.595-13.962c12.413-6.768 16.986-22.32 10.216-34.731-6.766-12.414-22.32-16.99-34.731-10.216l-13.338 7.274-64.541-35.203c-3.893-2.123-8.094-3.131-12.237-3.131zM895.999 473.601c-6.552 0-13.102 2.499-18.101 7.499-9.998 9.997-9.998 26.206 0 36.203l16.024 16.026-104.53 17.422c-13.947 2.325-23.368 15.514-21.043 29.461s15.533 23.368 29.459 21.043l153.6-25.6c9.459-1.576 17.243-8.307 20.17-17.438s0.504-19.133-6.277-25.914l-51.2-51.2c-5-5.003-11.55-7.502-18.102-7.502zM691.233 567.463c-1.398 0-2.816 0.115-4.24 0.352l-51.202 8.533c-8.078 1.346-15.026 6.477-18.688 13.802l-51.2 102.395c-6.323 12.646-1.198 28.024 11.448 34.346 12.643 6.323 28.024 1.197 34.346-11.448l45.37-90.736 38.344-6.39c13.946-2.325 23.366-15.514 21.042-29.461-2.086-12.518-12.933-21.392-25.219-21.392zM460.778 729.596c-3.846 0-7.754 0.87-11.429 2.707-12.646 6.323-17.771 21.701-11.45 34.346l51.2 102.4c4.338 8.674 13.203 14.152 22.899 14.152 0 0 0 0 0 0 9.698 0 18.562-5.478 22.898-14.152l25.598-51.2c6.323-12.646 1.197-28.024-11.448-34.346-12.646-6.325-28.024-1.198-34.346 11.45l-2.702 5.403-28.301-56.603c-4.486-8.971-13.53-14.157-22.92-14.157z" />
<glyph unicode="&#xe690;" glyph-name="flag" d="M512-64q-46 0-91 9t-86.5 26.5-79.5 42.5-71 58q-68 67-102 153t-34 175 34 175q34 85 102 153 17 16 39.5 16t38.5-16 16-38.5-16-39.5q-52-52-79-117-26-66-26-134t26-134q27-65 79-116 51-51 114.5-78t135.5-27 136 27 115 78 78 115 27 136-27 135.5-78 114.5q-16 17-16 39.5t16 38.5 38.5 16 38.5-16q33-33 58-71t42.5-79.5 26.5-86.5 9-91q0-47-9-91-9-45-26.5-87t-42.5-80-58-70q-32-33-70-58t-79.5-42.5-86.5-26.5-92-9v0zM519 384q-24 0-35.5 16.5t-11.5 39.5v464q0 23 11.5 39.5t35.5 16.5q23 0 34.5-16.5t11.5-39.5v-464q0-23-13-39.5t-33-16.5z" />
<glyph unicode="&#xe699;" glyph-name="paper-plane" d="M1024 644l-119 120-393-393-393 393-119-120 512-512z" />
<glyph unicode="&#xe69f;" glyph-name="box" d="M0 252l119-120 393 393 393-393 119 120-512 512z" />
<glyph unicode="&#xe6a5;" glyph-name="eye" d="M896 754l-77 78-307-307-307 307-77-78 307-306-307-307 77-77 307 306 307-306 77 77-307 307z" />
<glyph unicode="&#xe6d4;" glyph-name="papers" d="M588.8 524.8h-153.6c-14.138 0-25.6 11.462-25.6 25.6v204.8c0 14.138 11.462 25.6 25.6 25.6h153.6c14.139 0 25.6-11.462 25.6-25.6v-204.8c0-14.138-11.461-25.6-25.6-25.6zM460.8 576h102.4v153.6h-102.4v-153.6zM332.8 729.6h-102.4c-14.138 0-25.6 11.462-25.6 25.6s11.462 25.6 25.6 25.6h102.4c14.138 0 25.6-11.462 25.6-25.6s-11.462-25.6-25.6-25.6zM332.8 627.2h-102.4c-14.138 0-25.6 11.462-25.6 25.6s11.462 25.6 25.6 25.6h102.4c14.138 0 25.6-11.462 25.6-25.6s-11.462-25.6-25.6-25.6zM332.8 524.8h-102.4c-14.138 0-25.6 11.462-25.6 25.6s11.462 25.6 25.6 25.6h102.4c14.138 0 25.6-11.462 25.6-25.6s-11.462-25.6-25.6-25.6zM588.8 422.4h-358.4c-14.138 0-25.6 11.461-25.6 25.6s11.462 25.6 25.6 25.6h358.4c14.139 0 25.6-11.461 25.6-25.6s-11.461-25.6-25.6-25.6zM588.8 320h-358.4c-14.138 0-25.6 11.461-25.6 25.6s11.462 25.6 25.6 25.6h358.4c14.139 0 25.6-11.461 25.6-25.6s-11.461-25.6-25.6-25.6zM896 729.6h-25.6v25.6c0 42.347-34.451 76.8-76.8 76.8h-25.6v25.6c0 42.347-34.451 76.8-76.8 76.8h-563.2c-42.347 0-76.8-34.453-76.8-76.8v-614.4c0-42.349 34.453-76.8 76.8-76.8h25.6v-25.6c0-42.349 34.453-76.8 76.8-76.8h25.6v-25.6c0-42.349 34.453-76.8 76.8-76.8h563.2c42.349 0 76.8 34.451 76.8 76.8v614.4c0 42.347-34.451 76.8-76.8 76.8zM102.4 243.2v614.4c0 14.115 11.485 25.6 25.6 25.6h563.2c14.115 0 25.6-11.485 25.6-25.6v-614.4c0-14.115-11.485-25.6-25.6-25.6h-563.2c-14.115 0-25.6 11.485-25.6 25.6zM204.8 140.8v25.6h486.4c42.349 0 76.8 34.451 76.8 76.8v537.6h25.6c14.115 0 25.6-11.485 25.6-25.6v-614.4c0-14.115-11.485-25.6-25.6-25.6h-563.2c-14.115 0-25.6 11.485-25.6 25.6zM921.6 38.4c0-14.115-11.485-25.6-25.6-25.6h-563.2c-14.115 0-25.6 11.485-25.6 25.6v25.6h486.4c42.349 0 76.8 34.451 76.8 76.8v537.6h25.6c14.115 0 25.6-11.485 25.6-25.6v-614.4z" />
<glyph unicode="&#xe6d8;" glyph-name="document" d="M844.8-38.4h-665.6c-42.347 0-76.8 34.451-76.8 76.8v819.2c0 42.347 34.453 76.8 76.8 76.8h665.6c42.349 0 76.8-34.453 76.8-76.8v-819.2c0-42.349-34.451-76.8-76.8-76.8zM179.2 883.2c-14.115 0-25.6-11.485-25.6-25.6v-819.2c0-14.115 11.485-25.6 25.6-25.6h665.6c14.115 0 25.6 11.485 25.6 25.6v819.2c0 14.115-11.485 25.6-25.6 25.6h-665.6zM640 729.6h-358.4c-14.138 0-25.6 11.462-25.6 25.6s11.462 25.6 25.6 25.6h358.4c14.138 0 25.6-11.462 25.6-25.6s-11.462-25.6-25.6-25.6zM742.4 627.2h-460.8c-14.138 0-25.6 11.462-25.6 25.6s11.462 25.6 25.6 25.6h460.8c14.138 0 25.6-11.462 25.6-25.6s-11.462-25.6-25.6-25.6zM742.4 524.8h-460.8c-14.138 0-25.6 11.462-25.6 25.6s11.462 25.6 25.6 25.6h460.8c14.138 0 25.6-11.462 25.6-25.6s-11.462-25.6-25.6-25.6zM537.6 422.4h-256c-14.138 0-25.6 11.461-25.6 25.6s11.462 25.6 25.6 25.6h256c14.139 0 25.6-11.461 25.6-25.6s-11.461-25.6-25.6-25.6zM742.4 217.6h-460.8c-14.138 0-25.6 11.461-25.6 25.6s11.462 25.6 25.6 25.6h460.8c14.139 0 25.6-11.461 25.6-25.6s-11.461-25.6-25.6-25.6zM640 115.2h-358.4c-14.138 0-25.6 11.461-25.6 25.6s11.462 25.6 25.6 25.6h358.4c14.139 0 25.6-11.461 25.6-25.6s-11.461-25.6-25.6-25.6z" />
<glyph unicode="&#xe6d9;" glyph-name="document2" d="M844.8-38.4h-665.6c-42.347 0-76.8 34.451-76.8 76.8v819.2c0 42.347 34.453 76.8 76.8 76.8h665.6c42.349 0 76.8-34.453 76.8-76.8v-819.2c0-42.349-34.451-76.8-76.8-76.8zM179.2 883.2c-14.115 0-25.6-11.485-25.6-25.6v-819.2c0-14.115 11.485-25.6 25.6-25.6h665.6c14.115 0 25.6 11.485 25.6 25.6v819.2c0 14.115-11.485 25.6-25.6 25.6h-665.6zM435.2 729.6h-153.6c-14.138 0-25.6 11.462-25.6 25.6s11.462 25.6 25.6 25.6h153.6c14.138 0 25.6-11.462 25.6-25.6s-11.462-25.6-25.6-25.6zM435.2 627.2h-153.6c-14.138 0-25.6 11.462-25.6 25.6s11.462 25.6 25.6 25.6h153.6c14.138 0 25.6-11.462 25.6-25.6s-11.462-25.6-25.6-25.6zM435.2 524.8h-153.6c-14.138 0-25.6 11.462-25.6 25.6s11.462 25.6 25.6 25.6h153.6c14.138 0 25.6-11.462 25.6-25.6s-11.462-25.6-25.6-25.6zM435.2 422.4h-153.6c-14.138 0-25.6 11.461-25.6 25.6s11.462 25.6 25.6 25.6h153.6c14.138 0 25.6-11.461 25.6-25.6s-11.462-25.6-25.6-25.6zM742.4 320h-460.8c-14.138 0-25.6 11.461-25.6 25.6s11.462 25.6 25.6 25.6h460.8c14.139 0 25.6-11.461 25.6-25.6s-11.461-25.6-25.6-25.6zM742.4 217.6h-460.8c-14.138 0-25.6 11.461-25.6 25.6s11.462 25.6 25.6 25.6h460.8c14.139 0 25.6-11.461 25.6-25.6s-11.461-25.6-25.6-25.6zM742.4 115.2h-460.8c-14.138 0-25.6 11.461-25.6 25.6s11.462 25.6 25.6 25.6h460.8c14.139 0 25.6-11.461 25.6-25.6s-11.461-25.6-25.6-25.6zM742.4 422.4h-204.8c-14.138 0-25.6 11.461-25.6 25.6v307.2c0 14.138 11.462 25.6 25.6 25.6h204.8c14.139 0 25.6-11.462 25.6-25.6v-307.2c0-14.139-11.461-25.6-25.6-25.6zM563.2 473.6h153.6v256h-153.6v-256z" />
<glyph unicode="&#xe6db;" glyph-name="license" d="M844.8-38.4h-665.6c-42.347 0-76.8 34.451-76.8 76.8v819.2c0 42.347 34.453 76.8 76.8 76.8h665.6c42.349 0 76.8-34.453 76.8-76.8v-819.2c0-42.349-34.451-76.8-76.8-76.8zM179.2 883.2c-14.115 0-25.6-11.485-25.6-25.6v-819.2c0-14.115 11.485-25.6 25.6-25.6h665.6c14.115 0 25.6 11.485 25.6 25.6v819.2c0 14.115-11.485 25.6-25.6 25.6h-665.6zM816.277 701.757l-41.646 30.258-15.909 48.957h-51.475l-41.646 30.258-41.645-30.258h-51.475l-15.909-48.957-41.646-30.258 15.909-48.957-15.909-48.957 41.646-30.258 6.752-20.776c-0.077-0.794-0.123-1.597-0.123-2.41v-409.6c0-10.355 6.237-19.69 15.803-23.651 9.568-3.965 20.578-1.77 27.899 5.55l58.698 58.698 58.699-58.699c4.898-4.899 11.443-7.501 18.107-7.499 3.298 0 6.624 0.637 9.79 1.949 9.566 3.963 15.803 13.298 15.803 23.653v409.6c0 0.813-0.046 1.616-0.122 2.41l6.752 20.776 41.646 30.258-15.91 48.957 15.91 48.957zM575.114 682.2l25.010 18.17 9.554 29.4h30.912l25.011 18.173 25.011-18.171h30.912l9.554-29.4 25.010-18.17-9.554-29.402 9.554-29.4-25.010-18.17-9.554-29.4h-30.912l-25.011-18.173-25.011 18.171h-30.912l-9.554 29.4-25.010 18.17 9.554 29.402-9.554 29.4zM683.701 235.701c-9.997 9.997-26.206 9.997-36.203 0l-33.098-33.098v322.026h9.555l41.645-30.258 41.645 30.258h9.555v-322.026l-33.099 33.098z" />
<glyph unicode="&#xe6dc;" glyph-name="license2" d="M947.2 38.4h-870.4c-42.347 0-76.8 34.451-76.8 76.8v665.6c0 42.347 34.453 76.8 76.8 76.8h870.4c42.349 0 76.8-34.453 76.8-76.8v-665.6c0-42.349-34.451-76.8-76.8-76.8zM76.8 806.4c-14.115 0-25.6-11.485-25.6-25.6v-665.6c0-14.115 11.485-25.6 25.6-25.6h870.4c14.115 0 25.6 11.485 25.6 25.6v665.6c0 14.115-11.485 25.6-25.6 25.6h-870.4zM486.4 652.8h-307.2c-14.138 0-25.6 11.462-25.6 25.6s11.462 25.6 25.6 25.6h307.2c14.138 0 25.6-11.462 25.6-25.6s-11.462-25.6-25.6-25.6zM486.4 499.2h-307.2c-14.138 0-25.6 11.461-25.6 25.6s11.462 25.6 25.6 25.6h307.2c14.138 0 25.6-11.461 25.6-25.6s-11.462-25.6-25.6-25.6zM486.4 396.8h-307.2c-14.138 0-25.6 11.461-25.6 25.6s11.462 25.6 25.6 25.6h307.2c14.138 0 25.6-11.461 25.6-25.6s-11.462-25.6-25.6-25.6zM486.4 294.4h-307.2c-14.138 0-25.6 11.461-25.6 25.6s11.462 25.6 25.6 25.6h307.2c14.138 0 25.6-11.461 25.6-25.6s-11.462-25.6-25.6-25.6zM435.2 192h-256c-14.138 0-25.6 11.461-25.6 25.6s11.462 25.6 25.6 25.6h256c14.138 0 25.6-11.461 25.6-25.6s-11.462-25.6-25.6-25.6zM918.677 624.957l-41.646 30.258-15.909 48.957h-51.475l-41.646 30.258-41.645-30.258h-51.475l-15.909-48.957-41.646-30.258 15.909-48.957-15.909-48.957 41.646-30.259 6.752-20.774c-0.077-0.794-0.123-1.597-0.123-2.41v-256c0-10.355 6.237-19.69 15.803-23.651 9.568-3.965 20.578-1.77 27.899 5.55l58.698 58.698 58.699-58.699c4.898-4.899 11.443-7.501 18.107-7.499 3.298 0 6.624 0.637 9.79 1.949 9.566 3.963 15.803 13.298 15.803 23.653v256c0 0.813-0.046 1.616-0.122 2.41l6.752 20.774 41.646 30.259-15.91 48.957 15.91 48.957zM677.514 605.4l25.010 18.17 9.554 29.4h30.912l25.011 18.173 25.011-18.171h30.912l9.554-29.4 25.010-18.17-9.554-29.402 9.554-29.4-25.010-18.171-9.554-29.4h-30.912l-25.011-18.173-25.011 18.171h-30.912l-9.554 29.4-25.010 18.171 9.554 29.402-9.554 29.4zM786.101 312.501c-9.997 9.997-26.206 9.997-36.203 0l-33.098-33.098v168.426h9.555l41.645-30.258 41.645 30.256h9.555v-168.426l-33.099 33.099z" />
<glyph unicode="&#xe6dd;" glyph-name="medal-empty" d="M783.116 739.869l-74.934 54.443-28.622 88.091h-92.626l-74.934 54.445-74.934-54.445h-92.626l-28.622-88.091-74.934-54.443 28.621-88.091-28.622-88.091 74.934-54.445 16.984-52.267v-470.797c0-9.44 5.197-18.115 13.52-22.57 8.325-4.456 18.426-3.966 26.28 1.27l139.4 92.933 139.4-92.933c4.285-2.856 9.234-4.301 14.202-4.301 4.141 0 8.294 1.003 12.078 3.030 8.323 4.454 13.52 13.13 13.52 22.57v470.795l16.982 52.269 74.934 54.445-28.621 88.091 28.621 88.091zM526.199 109.877c-8.598 5.734-19.802 5.734-28.4 0l-113.8-75.866v387.139h53.066l74.934-54.443 74.936 54.443h53.064v-387.139l-113.8 75.866zM722.927 583.244l-58.299-42.358-22.195-68.307h-2.434v-0.227h-69.699l-58.301-42.355-58.299 42.357h-72.062l-22.267 68.534-58.299 42.358 22.267 68.533-22.267 68.534 58.299 42.357 22.267 68.534h72.062l58.299 42.358 58.299-42.357h72.062l22.269-68.534 58.299-42.357-22.269-68.536 22.267-68.534z" />
<glyph unicode="&#xe6e3;" glyph-name="trophy2" d="M967.512 821.984c-4.843 6.315-12.349 10.016-20.309 10.016h-130.483c1.664 28.326 2.483 54.24 2.483 76.8 0 14.138-11.461 25.6-25.6 25.6h-563.232c-14.078 0-25.517-11.37-25.6-25.448-0.126-21.333 0.541-47.373 2.182-76.952h-130.15c-7.97 0-15.485-3.712-20.33-10.040-4.843-6.33-6.464-14.552-4.382-22.245 1.149-4.248 28.634-105.2 71.474-207.966 55.414-132.93 109.464-204.661 164.614-218.179 26.624-80.269 62.746-157.939 110.8-206.28 24.043-24.184 49.882-40.016 77.152-47.35-22.85-48.627-59.49-87.798-103.578-109.843-10.619-5.309-16.195-17.224-13.467-28.778 2.73-11.555 13.045-19.718 24.917-19.718h256c11.874 0 22.187 8.163 24.915 19.718 2.726 11.555-2.848 23.469-13.467 28.778-44.080 22.040-80.715 61.203-103.566 109.819 42.635 11.434 81.51 43.662 115.936 96.245 26.504 40.488 50.512 93.264 71.653 157.387 55.688 13.464 109.965 85.205 165.314 218.216 42.771 102.787 70.003 203.762 71.142 208.010 2.061 7.69 0.429 15.898-4.418 22.211zM241.859 475.467c-22.986 32.358-46.827 77.97-70.862 135.568-27.344 65.531-48.643 131.771-60.107 169.765h99.638c6.237-74.853 17.978-164.613 37.342-255.874 5.334-25.142 11.629-52.048 18.971-79.597-8.082 8.064-16.47 18.155-24.982 30.138zM462.566 12.8c19.090 18.902 35.779 40.848 49.437 65.080 13.656-24.232 30.347-46.176 49.437-65.080h-98.874zM512.003 166.4c-26.877 0-51.97 12.099-76.712 36.987-42.245 42.498-76.309 115.032-102.936 199.426-0.28 1.163-0.634 2.294-1.066 3.389-49.245 157.834-72.693 356.014-75.122 476.998h511.507c-2.731-111.691-22.634-285.68-62.774-433.328-4.28-15.739-8.701-30.854-13.25-45.366-0.021-0.059-0.038-0.12-0.058-0.181-48.286-153.893-111.355-237.925-179.59-237.925zM853.344 611.014c-23.982-57.576-47.84-103.168-70.909-135.509-8.829-12.378-17.544-22.733-25.942-30.926 29.23 110.158 47.667 233.638 56.499 336.221h100.202c-11.374-37.978-32.547-104.238-59.85-169.786z" />
<glyph unicode="&#xe6f9;" glyph-name="clapboard-play" d="M921.6 857.6h-51.285c-0.029 0-0.058 0-0.086 0h-204.714c-0.030 0-0.058 0-0.088 0h-204.714c-0.029 0-0.058 0-0.086 0h-204.714c-0.029 0-0.058 0-0.086 0h-153.427c-42.347 0-76.8-34.453-76.8-76.8v-665.6c0-42.349 34.453-76.8 76.8-76.8h819.2c42.349 0 76.8 34.451 76.8 76.8v665.6c0 42.347-34.451 76.8-76.8 76.8zM947.2 780.8v-76.8h-131.366l68.267 102.4h37.499c14.115 0 25.6-11.485 25.6-25.6zM611.034 704l68.267 102.4h143.267l-68.267-102.4h-143.267zM406.234 704l68.267 102.4h143.267l-68.267-102.4h-143.267zM201.434 704l68.267 102.4h143.266l-68.267-102.4h-143.266zM102.4 806.4h105.766l-68.267-102.4h-63.099v76.8c0 14.115 11.485 25.6 25.6 25.6zM921.6 89.6h-819.2c-14.115 0-25.6 11.485-25.6 25.6v537.6h76.71c0.022 0 0.043-0.002 0.066-0.002 0.026 0 0.051 0.002 0.077 0.002h204.658c0.022 0 0.043-0.002 0.066-0.002 0.026 0 0.051 0.002 0.077 0.002h204.658c0.022 0 0.043-0.002 0.066-0.002 0.027 0 0.051 0.002 0.078 0.002h204.656c0.022 0 0.043-0.002 0.066-0.002 0.027 0 0.051 0.002 0.078 0.002h179.146v-537.6c0-14.115-11.485-25.6-25.6-25.6zM409.6 192c-4.347 0-8.696 1.106-12.613 3.323-8.026 4.544-12.987 13.053-12.987 22.277v307.2c0 9.224 4.962 17.733 12.987 22.277 8.027 4.544 17.877 4.422 25.784-0.325l256-153.6c7.709-4.627 12.429-12.96 12.429-21.952s-4.718-17.325-12.429-21.952l-256-153.6c-4.050-2.429-8.61-3.648-13.171-3.648zM435.2 479.586v-216.771l180.642 108.386-180.642 108.386z" />
<glyph unicode="&#xe714;" glyph-name="book2" d="M512 960q-106 0-199-40-93-41-162.5-110.5t-110.5-162.5q-40-93-40-199t40-199q41-94 110.5-163.5t162.5-109.5 199-40 199 40 162.5 109.5 110.5 163.5q40 93 40 199t-40 199q-41 93-110.5 162.5t-162.5 110.5q-93 40-199 40zM768 397h-512v102h512v-102z" />
<glyph unicode="&#xe715;" glyph-name="bookmark" d="M768 64h-512c-14.138 0-25.6 11.461-25.6 25.6s11.462 25.6 25.6 25.6h512c14.139 0 25.6-11.461 25.6-25.6s-11.461-25.6-25.6-25.6zM870.4 832c-14.139 0-25.6-11.462-25.6-25.6v-768c0-14.115-11.485-25.6-25.6-25.6h-563.2c-42.347 0-76.8 34.451-76.8 76.8s34.453 76.8 76.8 76.8h460.8c42.349 0 76.8 34.451 76.8 76.8v614.4c0 42.347-34.451 76.8-76.8 76.8h-512c-42.347 0-76.8-34.453-76.8-76.8v-768c0-70.579 57.421-128 128-128h563.2c42.349 0 76.8 34.451 76.8 76.8v768c0 14.138-11.461 25.6-25.6 25.6zM332.8 883.2h102.4v-322.197l-33.099 33.098c-9.997 9.998-26.206 9.998-36.203 0l-33.098-33.098v322.197zM179.2 857.6c0 14.115 11.485 25.6 25.6 25.6h76.8v-384c0-10.354 6.237-19.69 15.803-23.651 9.565-3.96 20.576-1.771 27.899 5.55l58.698 58.698 58.699-58.698c4.898-4.899 11.445-7.499 18.107-7.499 3.298 0 6.624 0.637 9.792 1.949 9.565 3.962 15.802 13.298 15.802 23.651v384h230.4c14.115 0 25.6-11.485 25.6-25.6v-614.4c0-14.115-11.485-25.6-25.6-25.6h-460.8c-28.789 0-55.394-9.557-76.8-25.661v665.661z" />
<glyph unicode="&#xe718;" glyph-name="library" d="M537.6 960h-102.4c-42.347 0-76.8-34.453-76.8-76.8v-30.003c-8.013 2.842-16.626 4.403-25.6 4.403h-256c-42.347 0-76.8-34.453-76.8-76.8v-768c0-42.349 34.453-76.8 76.8-76.8h256c19.654 0 37.602 7.43 51.2 19.619 13.598-12.187 31.546-19.619 51.2-19.619h102.4c42.349 0 76.8 34.451 76.8 76.8v870.4c0 42.347-34.451 76.8-76.8 76.8zM332.8-12.8h-256c-14.115 0-25.6 11.485-25.6 25.6v768c0 14.115 11.485 25.6 25.6 25.6h256c14.115 0 25.6-11.485 25.6-25.6v-768c0-14.115-11.485-25.6-25.6-25.6zM563.2 12.8c0-14.115-11.485-25.6-25.6-25.6h-102.4c-14.115 0-25.6 11.485-25.6 25.6v870.4c0 14.115 11.485 25.6 25.6 25.6h102.4c14.115 0 25.6-11.485 25.6-25.6v-870.4zM281.6 652.8h-146.4c-14.138 0-25.6 11.462-25.6 25.6s11.462 25.6 25.6 25.6h146.4c14.138 0 25.6-11.462 25.6-25.6s-11.462-25.6-25.6-25.6zM952.856-44.702l-152.456-18.717c-42.034-5.165-80.426 24.834-85.586 66.869l-99.837 813.090c-5.163 42.032 24.834 80.426 66.867 85.587l152.454 18.72c42.034 5.162 80.427-24.835 85.586-66.867l99.835-813.094c5.165-42.034-24.83-80.427-66.864-85.587zM688.085 851.307c-14.010-1.72-24.008-14.518-22.288-28.528l99.834-813.094c1.72-14.011 14.518-24.011 28.528-22.29l152.456 18.718c14.010 1.718 24.010 14.517 22.291 28.528l-99.835 813.096c-1.72 14.010-14.52 24.010-28.53 22.29l-152.456-18.72zM808.442 711.333l-50.821-6.24c-14.034-1.723-26.806 8.258-28.53 22.29-1.722 14.032 8.256 26.805 22.291 28.528l50.819 6.24c14.034 1.723 26.806-8.256 28.53-22.29s-8.254-26.805-22.29-28.528z" />
<glyph unicode="&#xe71e;" glyph-name="user" d="M512 396.8c-155.275 0-281.6 126.325-281.6 281.6s126.325 281.6 281.6 281.6 281.6-126.325 281.6-281.6-126.325-281.6-281.6-281.6zM512 908.8c-127.043 0-230.4-103.357-230.4-230.4s103.357-230.4 230.4-230.4c127.042 0 230.4 103.357 230.4 230.4s-103.358 230.4-230.4 230.4zM921.6-64h-819.2c-42.347 0-76.8 34.451-76.8 76.8 0 3.485 0.712 86.285 62.72 168.96 36.094 48.126 85.514 86.36 146.883 113.634 74.957 33.314 168.085 50.206 276.797 50.206 108.71 0 201.838-16.893 276.797-50.206 61.37-27.275 110.789-65.507 146.883-113.634 62.008-82.675 62.72-165.475 62.72-168.96 0-42.349-34.451-76.8-76.8-76.8zM512 294.4c-178.52 0-310.267-48.789-381-141.093-53.011-69.174-54.195-139.904-54.2-140.61 0-14.013 11.485-25.498 25.6-25.498h819.2c14.115 0 25.6 11.485 25.6 25.6-0.006 0.603-1.189 71.333-54.198 140.507-70.734 92.304-202.483 141.093-381.002 141.093z" />
<glyph unicode="&#xe78e;" glyph-name="mouse-left" d="M614.4 755.2c-155.275 0-281.6-126.325-281.6-281.6v-256c0-155.275 126.325-281.6 281.6-281.6s281.6 126.325 281.6 281.6v256c0 155.275-126.325 281.6-281.6 281.6zM843.37 499.2h-203.37v203.37c106.632-11.842 191.528-96.739 203.37-203.37zM588.8 702.57v-203.37h-203.37c11.842 106.63 96.739 191.528 203.37 203.37zM614.4-12.8c-127.043 0-230.4 103.357-230.4 230.4v230.4h460.8v-230.4c0-127.043-103.357-230.4-230.4-230.4zM409.6 806.4c-14.138 0-25.6 11.462-25.6 25.6v102.4c0 14.138 11.462 25.6 25.6 25.6s25.6-11.462 25.6-25.6v-102.4c0-14.138-11.462-25.6-25.6-25.6zM256 652.8h-102.4c-14.138 0-25.6 11.462-25.6 25.6s11.462 25.6 25.6 25.6h102.4c14.138 0 25.6-11.462 25.6-25.6s-11.462-25.6-25.6-25.6zM307.2 755.2c-6.552 0-13.102 2.499-18.101 7.499l-102.4 102.4c-9.998 9.997-9.998 26.206 0 36.203s26.206 9.998 36.203 0l102.4-102.4c9.998-9.997 9.998-26.206 0-36.203-5-5-11.55-7.499-18.102-7.499z" />
<glyph unicode="&#xe791;" glyph-name="keyboard" d="M921.6 166.4h-819.2c-42.347 0-76.8 34.451-76.8 76.8v409.6c0 42.347 34.453 76.8 76.8 76.8h819.2c42.349 0 76.8-34.453 76.8-76.8v-409.6c0-42.349-34.451-76.8-76.8-76.8zM102.4 678.4c-14.115 0-25.6-11.485-25.6-25.6v-409.6c0-14.115 11.485-25.6 25.6-25.6h819.2c14.115 0 25.6 11.485 25.6 25.6v409.6c0 14.115-11.485 25.6-25.6 25.6h-819.2zM204.8 576h-51.2c-14.138 0-25.6 11.461-25.6 25.6s11.462 25.6 25.6 25.6h51.2c14.138 0 25.6-11.461 25.6-25.6s-11.462-25.6-25.6-25.6zM870.4 576h-51.2c-14.139 0-25.6 11.461-25.6 25.6s11.461 25.6 25.6 25.6h51.2c14.139 0 25.6-11.461 25.6-25.6s-11.461-25.6-25.6-25.6zM256 473.6h-102.4c-14.138 0-25.6 11.461-25.6 25.6s11.462 25.6 25.6 25.6h102.4c14.138 0 25.6-11.461 25.6-25.6s-11.462-25.6-25.6-25.6zM204.8 268.8h-51.2c-14.138 0-25.6 11.461-25.6 25.6s11.462 25.6 25.6 25.6h51.2c14.138 0 25.6-11.461 25.6-25.6s-11.462-25.6-25.6-25.6zM614.4 268.8h-307.2c-14.138 0-25.6 11.461-25.6 25.6s11.462 25.6 25.6 25.6h307.2c14.139 0 25.6-11.461 25.6-25.6s-11.461-25.6-25.6-25.6zM768 268.8h-51.2c-14.139 0-25.6 11.461-25.6 25.6s11.461 25.6 25.6 25.6h51.2c14.139 0 25.6-11.461 25.6-25.6s-11.461-25.6-25.6-25.6zM870.4 371.2h-153.6c-14.139 0-25.6 11.461-25.6 25.6s11.461 25.6 25.6 25.6h128v76.8c0 14.139 11.461 25.6 25.6 25.6s25.6-11.461 25.6-25.6v-102.4c0-14.139-11.461-25.6-25.6-25.6zM307.2 371.2h-153.6c-14.138 0-25.6 11.461-25.6 25.6s11.462 25.6 25.6 25.6h153.6c14.138 0 25.6-11.461 25.6-25.6s-11.462-25.6-25.6-25.6zM332.8 601.6c0-14.138-11.462-25.6-25.6-25.6s-25.6 11.462-25.6 25.6c0 14.138 11.462 25.6 25.6 25.6s25.6-11.462 25.6-25.6zM435.2 601.6c0-14.138-11.462-25.6-25.6-25.6s-25.6 11.462-25.6 25.6c0 14.138 11.462 25.6 25.6 25.6s25.6-11.462 25.6-25.6zM537.6 601.6c0-14.138-11.462-25.6-25.6-25.6s-25.6 11.462-25.6 25.6c0 14.138 11.462 25.6 25.6 25.6s25.6-11.462 25.6-25.6zM640 601.6c0-14.138-11.462-25.6-25.6-25.6s-25.6 11.462-25.6 25.6c0 14.138 11.462 25.6 25.6 25.6s25.6-11.462 25.6-25.6zM742.4 601.6c0-14.138-11.462-25.6-25.6-25.6s-25.6 11.462-25.6 25.6c0 14.138 11.462 25.6 25.6 25.6s25.6-11.462 25.6-25.6zM384 499.2c0-14.138-11.462-25.6-25.6-25.6s-25.6 11.462-25.6 25.6c0 14.138 11.462 25.6 25.6 25.6s25.6-11.462 25.6-25.6zM486.4 499.2c0-14.138-11.462-25.6-25.6-25.6s-25.6 11.462-25.6 25.6c0 14.138 11.462 25.6 25.6 25.6s25.6-11.462 25.6-25.6zM588.8 499.2c0-14.138-11.462-25.6-25.6-25.6s-25.6 11.462-25.6 25.6c0 14.138 11.462 25.6 25.6 25.6s25.6-11.462 25.6-25.6zM691.2 499.2c0-14.138-11.462-25.6-25.6-25.6s-25.6 11.462-25.6 25.6c0 14.138 11.462 25.6 25.6 25.6s25.6-11.462 25.6-25.6zM793.6 499.2c0-14.138-11.462-25.6-25.6-25.6s-25.6 11.462-25.6 25.6c0 14.138 11.462 25.6 25.6 25.6s25.6-11.462 25.6-25.6zM435.2 396.8c0-14.138-11.462-25.6-25.6-25.6s-25.6 11.462-25.6 25.6c0 14.138 11.462 25.6 25.6 25.6s25.6-11.462 25.6-25.6zM537.6 396.8c0-14.138-11.462-25.6-25.6-25.6s-25.6 11.462-25.6 25.6c0 14.138 11.462 25.6 25.6 25.6s25.6-11.462 25.6-25.6zM640 396.8c0-14.138-11.462-25.6-25.6-25.6s-25.6 11.462-25.6 25.6c0 14.138 11.462 25.6 25.6 25.6s25.6-11.462 25.6-25.6z" />
<glyph unicode="&#xe7bc;" glyph-name="lamp" d="M967 903h-910v-114h910v114zM1024 334v114l-57 284h-910l-57-284v-114h57v-341h569v341h227v-341h114v341h57zM512 106h-341v228h341v-228z" />
<glyph unicode="&#xe7d8;" glyph-name="bubble-dots" d="M52.27 12.801c-11.507 0-21.6 7.677-24.67 18.766s1.634 22.864 11.501 28.784c86.57 51.942 122.485 127.414 135.218 162.755-94.088 72.048-147.648 171.746-147.648 276.094 0 52.704 13.23 103.755 39.323 151.736 24.902 45.794 60.406 86.806 105.526 121.899 91.504 71.17 212.802 110.365 341.55 110.365s250.046-39.195 341.552-110.366c45.118-35.093 80.624-76.104 105.526-121.899 26.091-47.979 39.322-99.030 39.322-151.734 0-52.702-13.23-103.755-39.322-151.736-24.902-45.794-60.408-86.806-105.526-121.899-91.506-71.17-212.803-110.365-341.552-110.365-52.907 0-104.8 6.627-154.437 19.707-21.974-14.637-63.040-40.605-112.086-65.005-76.163-37.89-141.528-57.102-194.277-57.102zM513.070 832.001c-239.97 0-435.2-149.294-435.2-332.8 0-92.946 51.432-182.379 141.107-245.368 8.797-6.178 12.795-17.194 10.013-27.576-5.984-22.325-26.363-83.597-80.878-142.734 66.659 23.341 138.424 63.832 191.434 100.286 6.296 4.328 14.197 5.621 21.544 3.52 48.558-13.888 99.691-20.928 151.981-20.928 239.97 0 435.2 149.294 435.2 332.8s-195.23 332.8-435.2 332.8zM513.070 422.401c-42.347 0-76.8 34.451-76.8 76.8 0 42.347 34.453 76.8 76.8 76.8 42.349 0 76.8-34.453 76.8-76.8 0-42.349-34.451-76.8-76.8-76.8zM513.070 524.801c-14.115 0-25.6-11.485-25.6-25.6s11.485-25.6 25.6-25.6 25.6 11.485 25.6 25.6-11.485 25.6-25.6 25.6zM717.87 422.401c-42.349 0-76.8 34.451-76.8 76.8 0 42.347 34.451 76.8 76.8 76.8s76.8-34.453 76.8-76.8c0-42.349-34.451-76.8-76.8-76.8zM717.87 524.801c-14.115 0-25.6-11.485-25.6-25.6s11.485-25.6 25.6-25.6 25.6 11.485 25.6 25.6-11.485 25.6-25.6 25.6zM308.27 422.401c-42.347 0-76.8 34.451-76.8 76.8 0 42.347 34.453 76.8 76.8 76.8s76.8-34.453 76.8-76.8c0-42.349-34.453-76.8-76.8-76.8zM308.27 524.801c-14.115 0-25.6-11.485-25.6-25.6s11.485-25.6 25.6-25.6 25.6 11.485 25.6 25.6-11.485 25.6-25.6 25.6z" />
<glyph unicode="&#xe7db;" glyph-name="bubble-text" d="M52.27 12.801c-11.507 0-21.6 7.677-24.67 18.766s1.634 22.864 11.501 28.784c86.566 51.941 122.483 127.413 135.216 162.755-94.086 72.048-147.646 171.746-147.646 276.094 0 52.704 13.23 103.755 39.323 151.736 24.902 45.794 60.406 86.806 105.526 121.899 91.504 71.17 212.802 110.365 341.55 110.365s250.046-39.195 341.552-110.366c45.118-35.093 80.624-76.104 105.526-121.899 26.091-47.979 39.322-99.030 39.322-151.734 0-52.702-13.23-103.755-39.322-151.736-24.902-45.794-60.408-86.806-105.526-121.899-91.506-71.17-212.803-110.365-341.552-110.365-52.907 0-104.8 6.627-154.437 19.707-21.974-14.637-63.040-40.605-112.086-65.005-76.163-37.89-141.528-57.102-194.277-57.102zM513.070 832.001c-239.97 0-435.2-149.294-435.2-332.8 0-92.946 51.432-182.379 141.107-245.368 8.797-6.178 12.795-17.194 10.011-27.576-5.984-22.325-26.365-83.598-80.88-142.736 66.664 23.339 138.422 63.83 191.435 100.288 6.298 4.328 14.2 5.619 21.544 3.52 48.558-13.888 99.693-20.928 151.982-20.928 239.97 0 435.2 149.294 435.2 332.8s-195.23 332.8-435.2 332.8zM717.87 627.201h-409.6c-14.138 0-25.6 11.462-25.6 25.6s11.462 25.6 25.6 25.6h409.6c14.139 0 25.6-11.462 25.6-25.6s-11.461-25.6-25.6-25.6zM717.87 524.801h-409.6c-14.138 0-25.6 11.462-25.6 25.6s11.462 25.6 25.6 25.6h409.6c14.139 0 25.6-11.462 25.6-25.6s-11.461-25.6-25.6-25.6zM717.87 422.401h-409.6c-14.138 0-25.6 11.461-25.6 25.6s11.462 25.6 25.6 25.6h409.6c14.139 0 25.6-11.461 25.6-25.6s-11.461-25.6-25.6-25.6zM615.47 320.001h-307.2c-14.138 0-25.6 11.461-25.6 25.6s11.462 25.6 25.6 25.6h307.2c14.139 0 25.6-11.461 25.6-25.6s-11.461-25.6-25.6-25.6z" />
<glyph unicode="&#xe7f8;" glyph-name="pie-chart" d="M870 653h-716q-64 0-109-45t-45-109v-307h205v-205h614v205h205v307q0 64-45 109t-109 45v0zM717 89h-410v256h410v-256zM870 448q-21 0-36 15t-15 36 15 36 36 15q22 0 37-15t15-36-15-36-37-15zM819 909h-614v-205h614v205z" />
<glyph unicode="&#xe7fa;" glyph-name="graph" d="M874 809q-35 35-76 63t-87 47.5-96 29.5q-50 11-103 11-106 0-199-40-93-41-162.5-110.5t-109.5-162.5-40-199 40-200q40-93 109.5-162.5t162.5-109.5 199-40q90 0 170 29t145.5 80 111.5 122q46 70 68 153h-133q-20-56-56-103-35-47-82-81t-104-53-120-19q-79 0-149 30t-122.5 82.5-82.5 121.5q-30 70-30 150 0 79 30 149t82.5 122 122.5 83q70 30 149 30 80 0 149-31t121-83l-206-206h448v448l-150-151z" />
<glyph unicode="&#xe836;" glyph-name="speed-fast" d="M512 217.603c-20.514 0-39.8 7.987-54.306 22.494-29.944 29.946-29.944 78.667 0 108.613 20.6 20.598 217.693 156.88 256.994 183.99 10.171 7.014 23.901 5.765 32.637-2.971s9.987-22.467 2.971-32.637c-27.11-39.301-163.392-236.395-183.992-256.994-14.504-14.507-33.79-22.496-54.304-22.496zM626.635 409.038c-68.845-48.374-124.701-88.589-132.742-96.538-9.976-9.978-9.976-26.219 0.005-36.202 4.834-4.834 11.264-7.498 18.101-7.498s13.267 2.662 18.101 7.498c7.949 8.040 48.162 63.894 96.536 132.739zM855.936 689.539c-91.869 91.869-214.014 142.464-343.936 142.464s-252.067-50.595-343.936-142.464-142.464-214.014-142.464-343.936c0-96.728 28.33-190.176 81.925-270.246 4.752-7.099 12.731-11.36 21.274-11.36l766.402 0.002c8.542 0 16.522 4.261 21.274 11.36 53.597 80.067 81.926 173.515 81.926 270.245 0 129.922-50.594 252.067-142.464 343.936zM881.278 115.198l-738.558-0.002c-38.661 61.818-60.93 131.928-65.163 204.806h24.843c14.138 0 25.6 11.461 25.6 25.6s-11.462 25.6-25.6 25.6h-24.827c12.805 219.624 189.203 396.022 408.827 408.827v-24.827c0-14.138 11.462-25.6 25.6-25.6s25.6 11.462 25.6 25.6v24.827c219.626-12.805 396.022-189.203 408.827-408.827h-24.827c-14.139 0-25.6-11.461-25.6-25.6s11.461-25.6 25.6-25.6h24.843c-4.234-72.878-26.504-142.99-65.165-204.805z" />
<glyph unicode="&#xe8aa;" glyph-name="alarm" d="M885.77 186.85c-58.576 44-92.171 111.194-92.171 184.35v153.6c0 128.661-86.733 237.442-204.798 270.954l-0.002 36.246c0 42.347-34.451 76.8-76.8 76.8-42.347 0-76.8-34.453-76.8-76.8v-36.245c-118.067-33.512-204.8-142.294-204.8-270.955v-153.6c0-73.157-33.595-140.349-92.171-184.35-8.808-6.616-12.395-18.125-8.907-28.573 3.486-10.448 13.267-17.496 24.283-17.496h232.982c-1.709-8.384-2.587-16.955-2.587-25.581 0-70.579 57.421-128 128-128s128 57.421 128 128c0 8.626-0.878 17.197-2.584 25.581h232.981c11.016 0 20.795 7.046 24.283 17.496s-0.101 21.957-8.909 28.573zM486.399 832c0 14.115 11.485 25.6 25.6 25.6s25.6-11.485 25.6-25.6v-26.774c-8.435 0.763-16.97 1.176-25.6 1.176s-17.166-0.413-25.6-1.176v26.774zM588.799 115.2c0-42.347-34.453-76.8-76.8-76.8s-76.8 34.453-76.8 76.8c0 8.76 1.515 17.411 4.394 25.581h144.813c2.878-8.168 4.394-16.821 4.394-25.581zM217.17 191.981c13.075 15.826 24.437 33.051 33.744 51.27 20.362 39.858 30.685 82.906 30.685 127.949v153.6c0 127.043 103.357 230.4 230.4 230.4s230.4-103.357 230.4-230.4v-153.6c0-45.043 10.323-88.091 30.685-127.949 9.307-18.219 20.669-35.445 33.744-51.27h-589.658z" />
<glyph unicode="&#xe8ae;" glyph-name="bullhorn" d="M512 960q-106 0-199-40-93-41-162.5-110.5t-110.5-162.5q-40-93-40-199t40-199q41-94 110.5-163.5t162.5-109.5 199-40 199 40 162.5 109.5 110.5 163.5q40 93 40 199t-40 199q-41 93-110.5 162.5t-162.5 110.5q-93 40-199 40zM768 397h-205v-205h-102v205h-205v102h205v205h102v-205h205v-102z" />
<glyph unicode="&#xe900;" glyph-name="alarm2" d="M774.605 588.8c-7.066 12.237-22.733 16.435-34.97 9.37l-251.904-145.459-196.352 137.472c-11.571 8.090-27.546 5.274-35.635-6.298s-5.274-27.546 6.298-35.635l209.715-146.842c0.051-0.051 0.102-0.051 0.154-0.102 0.41-0.307 0.87-0.563 1.331-0.819 0.102-0.051 0.256-0.154 0.358-0.205 0.461-0.256 0.922-0.512 1.382-0.717 0.102-0.051 0.205-0.102 0.307-0.154 0.512-0.256 1.024-0.512 1.587-0.717 0.307-0.102 0.614-0.256 0.973-0.358 0.256-0.102 0.461-0.154 0.717-0.256 0.358-0.102 0.666-0.205 1.024-0.307 0.205-0.051 0.461-0.102 0.666-0.154 0.358-0.102 0.717-0.154 1.024-0.256 0.256-0.051 0.461-0.102 0.717-0.154 0.307-0.051 0.666-0.102 0.973-0.154s0.614-0.051 0.922-0.102c0.256-0.051 0.563-0.051 0.819-0.102 0.614-0.051 1.178-0.051 1.792-0.051 0.973 0 1.946 0.051 2.918 0.154 0 0 0.051 0 0.051 0 0.922 0.102 1.894 0.307 2.816 0.512 0.051 0 0.154 0.051 0.205 0.051 0.87 0.205 1.741 0.461 2.611 0.819 0.154 0.051 0.256 0.102 0.358 0.154 0.819 0.307 1.638 0.666 2.406 1.075 0.154 0.102 0.307 0.154 0.461 0.256 0.307 0.154 0.563 0.307 0.87 0.461l266.035 153.6c12.237 7.066 16.435 22.733 9.37 34.97zM837.325 82.125c-0.563 0.563-1.178 1.126-1.792 1.638 88.576 91.238 137.318 211.2 137.318 338.637 0 129.946-50.586 252.058-142.438 343.962s-214.016 142.438-343.962 142.438-252.058-50.586-343.91-142.438-142.438-214.016-142.438-343.962c0-127.437 48.742-247.398 137.318-338.637-0.614-0.512-1.229-1.075-1.792-1.638l-102.4-102.4c-9.984-9.984-9.984-26.214 0-36.198 5.018-5.018 11.571-7.526 18.125-7.526s13.107 2.509 18.125 7.526l102.4 102.4c1.024 1.024 1.946 2.15 2.765 3.277 87.347-73.267 196.557-113.203 311.962-113.203s224.614 39.936 311.962 113.203c0.819-1.178 1.741-2.253 2.765-3.277l102.4-102.4c5.018-5.018 11.571-7.475 18.074-7.475s13.107 2.509 18.125 7.526c9.984 9.984 9.984 26.214 0 36.198l-102.4 102.4zM51.2 422.4c0 239.974 195.226 435.2 435.2 435.2s435.2-195.226 435.2-435.2c0-239.974-195.226-435.2-435.2-435.2s-435.2 195.226-435.2 435.2zM28.672 724.224c-11.93 0-22.579 8.346-25.037 20.48-2.406 11.827-3.635 23.962-3.635 36.096 0 98.816 80.384 179.2 179.2 179.2 21.197 0 41.984-3.686 61.696-10.906 13.261-4.864 20.070-19.558 15.206-32.87s-19.558-20.070-32.87-15.206c-14.080 5.171-28.928 7.782-44.083 7.782-70.554 0-128-57.446-128-128 0-8.704 0.87-17.408 2.611-25.805 2.816-13.875-6.093-27.392-19.968-30.208-1.741-0.358-3.482-0.512-5.171-0.512zM944.128 724.224c-1.69 0-3.43 0.154-5.171 0.512-13.875 2.816-22.784 16.384-19.968 30.208 1.741 8.448 2.611 17.101 2.611 25.805 0 70.605-57.446 128-128 128-15.155 0-30.003-2.611-44.083-7.782-13.261-4.864-28.006 1.946-32.87 15.206s1.946 28.006 15.206 32.87c19.763 7.27 40.499 10.906 61.747 10.906 98.816 0 179.2-80.384 179.2-179.2 0-12.134-1.229-24.269-3.635-36.096-2.458-12.134-13.158-20.48-25.037-20.48z" />
<glyph unicode="&#xe901;" glyph-name="key" d="M768 960c-141.363 0-256-114.637-256-256 0-54.886 17.306-105.779 46.746-147.456l-551.219-551.219c-9.984-9.984-9.984-26.214 0-36.198 5.018-5.018 11.571-7.475 18.125-7.475s13.107 2.509 18.125 7.475l58.675 58.675 84.275-84.275c5.018-5.018 11.571-7.475 18.125-7.475s13.107 2.509 18.125 7.475c9.984 9.984 9.984 26.214 0 36.198l-84.275 84.275 40.602 40.602 84.275-84.275c5.018-5.018 11.571-7.475 18.125-7.475s13.107 2.509 18.125 7.475c9.984 9.984 9.984 26.214 0 36.198l-84.275 84.275 376.986 376.986c45.824-43.264 107.622-69.786 175.616-69.786 141.363 0 256 114.637 256 256s-114.637 256-256 256zM912.794 559.206c-38.707-38.707-90.112-60.006-144.794-60.006s-106.138 21.299-144.794 60.006c-38.707 38.707-60.006 90.112-60.006 144.794s21.299 106.138 60.006 144.794c38.707 38.707 90.112 60.006 144.794 60.006s106.138-21.299 144.794-60.006c38.707-38.707 60.006-90.112 60.006-144.794s-21.299-106.138-60.006-144.794z" />
<glyph unicode="&#xe902;" glyph-name="key-hole" d="M742.4-64h-460.8c-8.038 0-15.667 3.789-20.48 10.24s-6.349 14.797-4.096 22.528l147.098 502.989c-89.498 41.626-148.122 132.096-148.122 232.243 0 141.158 114.842 256 256 256s256-114.842 256-256c0-100.147-58.624-190.618-148.173-232.243l147.098-502.989c2.253-7.731 0.768-16.077-4.096-22.528s-12.442-10.24-20.48-10.24zM315.75-12.8h392.499l-144.026 492.339c-3.84 13.056 3.226 26.778 16.026 31.334 81.664 28.877 136.55 106.496 136.55 193.126 0 112.947-91.853 204.8-204.8 204.8s-204.8-91.853-204.8-204.8c0-86.63 54.886-164.25 136.55-193.126 12.8-4.506 19.866-18.278 16.026-31.334l-144.026-492.339z" />
<glyph unicode="&#xe903;" glyph-name="cross-circle" d="M759.398 262.349l-208.896 185.651 208.896 185.651c10.547 9.37 11.52 25.549 2.15 36.147s-25.549 11.52-36.147 2.15l-213.402-189.696-213.402 189.696c-10.547 9.37-26.726 8.448-36.147-2.15s-8.448-26.726 2.15-36.147l208.896-185.651-208.896-185.651c-10.547-9.37-11.52-25.549-2.15-36.147 5.069-5.683 12.083-8.602 19.149-8.602 6.042 0 12.134 2.15 16.998 6.451l213.402 189.696 213.402-189.696c4.864-4.352 10.957-6.451 16.998-6.451 7.066 0 14.080 2.918 19.149 8.602 9.37 10.547 8.448 26.726-2.15 36.147zM512-38.4c-129.946 0-252.058 50.586-343.962 142.438s-142.438 214.016-142.438 343.91c0 129.946 50.586 252.058 142.438 343.962s214.016 142.49 343.962 142.49c129.946 0 252.058-50.586 343.962-142.49s142.438-214.016 142.438-343.962-50.586-252.058-142.438-343.91c-91.853-91.853-214.016-142.438-343.962-142.438zM512 883.2c-239.974 0-435.2-195.226-435.2-435.2s195.226-435.2 435.2-435.2 435.2 195.226 435.2 435.2-195.226 435.2-435.2 435.2z" />
<glyph unicode="&#xe904;" glyph-name="chevron-up" d="M0 192c0-6.554 2.509-13.107 7.475-18.125 9.984-9.984 26.214-9.984 36.198 0l442.675 442.675 442.675-442.675c9.984-9.984 26.214-9.984 36.198 0s9.984 26.214 0 36.198l-460.8 460.8c-9.984 9.984-26.214 9.984-36.198 0l-460.8-460.8c-5.018-5.018-7.475-11.571-7.475-18.125z" />
<glyph unicode="&#xe905;" glyph-name="chevron-down" d="M0 652.8c0 6.554 2.509 13.107 7.475 18.125 9.984 9.984 26.214 9.984 36.198 0l442.675-442.675 442.675 442.675c9.984 9.984 26.214 9.984 36.198 0s9.984-26.214 0-36.198l-460.8-460.8c-9.984-9.984-26.214-9.984-36.198 0l-460.8 460.8c-5.018 5.018-7.475 11.571-7.475 18.125z" />
<glyph unicode="&#xe906;" glyph-name="chevron-right" d="M256-64c-6.554 0-13.107 2.509-18.125 7.475-9.984 9.984-9.984 26.214 0 36.198l442.675 442.675-442.675 442.675c-9.984 9.984-9.984 26.214 0 36.198s26.214 9.984 36.198 0l460.8-460.8c9.984-9.984 9.984-26.214 0-36.198l-460.8-460.8c-5.018-5.018-11.571-7.475-18.125-7.475z" />
<glyph unicode="&#xe907;" glyph-name="audio-book" d="M512 960q-106 0-199-40-93-41-162.5-110.5t-110.5-162.5q-40-93-40-199t40-199q41-94 110.5-163.5t162.5-109.5 199-40 199 40 162.5 109.5 110.5 163.5q40 93 40 199t-40 199q-41 93-110.5 162.5t-162.5 110.5q-93 40-199 40zM768 397h-512v102h512v-102z" />
<glyph unicode="&#xe908;" glyph-name="volume" d="M698.88 821.326c-12.646 0-25.293-5.325-37.683-15.821l-209.818-178.33h-92.979c-42.342 0-76.8-34.458-76.8-76.8v-204.8c0-42.342 34.458-76.8 76.8-76.8h92.979l209.818-178.33c12.339-10.496 25.037-15.821 37.683-15.821 0 0 0 0 0 0 13.926 0 26.419 6.758 34.304 18.534 6.093 9.165 9.216 20.89 9.216 34.816v640c0 36.864-21.862 53.402-43.52 53.402zM332.8 345.524v204.8c0 14.131 11.469 25.6 25.6 25.6h76.8v-256h-76.8c-14.131 0-25.6 11.469-25.6 25.6zM691.2 132.071l-204.8 174.080v283.546l204.8 174.080v-631.706z" />
<glyph unicode="&#xe909;" glyph-name="pause-circle" d="M488.646-19.088c-118.548 0-229.948 46.148-313.79 129.944s-129.944 195.242-129.944 313.742c0 118.548 46.148 229.948 129.944 313.79s195.242 129.99 313.79 129.99c118.548 0 229.948-46.148 313.79-129.99s129.944-195.242 129.944-313.79-46.148-229.948-129.944-313.742c-83.795-83.795-195.242-129.944-313.79-129.944zM488.646 821.67c-218.924 0-397.024-178.1-397.024-397.024s178.1-397.024 397.024-397.024c218.924 0 397.024 178.1 397.024 397.024s-178.1 397.024-397.024 397.024zM395.228 214.456h-46.708c-38.628 0-70.064 31.436-70.064 70.064v280.252c0 38.628 31.436 70.064 70.064 70.064h46.708c38.628 0 70.064-31.436 70.064-70.064v-280.252c0-38.628-31.436-70.064-70.064-70.064zM348.52 588.126c-12.891 0-23.354-10.463-23.354-23.354v-280.252c0-12.891 10.463-23.354 23.354-23.354h46.708c12.891 0 23.354 10.463 23.354 23.354v280.252c0 12.891-10.463 23.354-23.354 23.354h-46.708zM628.772 214.456h-46.708c-38.628 0-70.064 31.436-70.064 70.064v280.252c0 38.628 31.436 70.064 70.064 70.064h46.708c38.628 0 70.064-31.436 70.064-70.064v-280.252c0-38.628-31.436-70.064-70.064-70.064zM582.064 588.126c-12.891 0-23.354-10.463-23.354-23.354v-280.252c0-12.891 10.463-23.354 23.354-23.354h46.708c12.891 0 23.354 10.463 23.354 23.354v280.252c0 12.891-10.463 23.354-23.354 23.354h-46.708z" />
<glyph unicode="&#xe90a;" glyph-name="mute" d="M783.643 722.995c-10.496 9.472-26.675 8.602-36.147-1.894l-57.754-64.205v111.053c0 36.864-21.862 53.402-43.52 53.402-12.646 0-25.293-5.325-37.683-15.821l-209.818-178.33h-92.979c-42.342 0-76.8-34.458-76.8-76.8v-204.8c0-42.342 34.458-76.8 76.8-76.8h34.662l-53.709-59.699c-9.472-10.496-8.602-26.675 1.894-36.147 4.915-4.403 11.008-6.554 17.101-6.554 7.014 0 13.978 2.867 19.046 8.499l79.974 88.832 203.827-173.261c12.339-10.496 25.037-15.821 37.683-15.821 0 0 0 0 0 0 13.926 0 26.419 6.758 34.304 18.534 6.093 9.165 9.216 20.89 9.216 34.816v452.403l95.846 106.496c9.472 10.496 8.602 26.675-1.894 36.147zM638.542 763.802v-163.789l-204.8-227.533v217.293l204.8 174.080zM280.142 345.549v204.8c0 14.131 11.469 25.6 25.6 25.6h76.8v-256h-76.8c-14.131 0-25.6 11.469-25.6 25.6zM638.542 132.096l-199.578 169.626 199.578 221.747v-391.373z" />
<glyph unicode="&#xe90b;" glyph-name="graduation-hat" d="M1024 243l-512 512-512-512h1024z" />
<glyph unicode="&#xe90c;" glyph-name="replay" d="M815.458 776.149c-87.651 87.651-204.16 135.907-328.099 135.907-143.563 0-277.244-66.12-364.382-176.648v60.646c0 12.805-10.395 23.2-23.2 23.2s-23.2-10.395-23.2-23.2v-137.904c0-10.627 7.192-19.862 17.49-22.504 4.498-1.16 9.048-0.883 13.179 0.509v0l62.782 21.389c0 0 0 0 0 0l69.6 23.709c12.109 4.131 18.605 17.31 14.474 29.419s-17.31 18.605-29.419 14.474l-69.136-23.574c78.326 102.454 200.448 163.979 331.811 163.979 230.286 0 417.606-187.32 417.606-417.606s-187.32-417.606-417.606-417.606c-153.863 0-294.827 84.216-367.862 219.8-6.077 11.278-20.139 15.499-31.411 9.422s-15.499-20.139-9.422-31.411c81.155-150.615 237.8-244.206 408.745-244.206 123.933 0 240.448 48.256 328.099 135.907s135.907 204.16 135.907 328.099c0 123.933-48.256 240.448-135.907 328.099z" />
<glyph unicode="&#xe90d;" glyph-name="chevron-left" d="M716.8-64c6.554 0 13.107 2.509 18.125 7.475 9.984 9.984 9.984 26.214 0 36.198l-442.675 442.675 442.675 442.675c9.984 9.984 9.984 26.214 0 36.198s-26.214 9.984-36.198 0l-460.8-460.8c-9.984-9.984-9.984-26.214 0-36.198l460.8-460.8c5.018-5.018 11.571-7.475 18.125-7.475z" />
<glyph unicode="&#xe914;" glyph-name="highlight" d="M0 653l512-512 512 512h-1024z" />
<glyph unicode="&#xe919;" glyph-name="thumbs-up" d="M978.476 386.149c22.662 26.155 35.565 69.381 35.565 110.541 0 27.17-5.899 50.974-17.056 68.842-14.526 23.259-37.762 36.069-65.426 36.069h-134.053c72.966 132.683 91.408 232.587 54.766 297.302-25.534 45.096-72.366 61.098-104.714 61.098-12.811 0-23.65-9.469-25.368-22.165-9.147-67.554-60.811-148.131-141.742-221.074-77.518-69.869-172.765-125.768-270.642-159.208-12.317 26.010-38.811 44.046-69.448 44.046h-153.6c-42.347 0-76.8-34.453-76.8-76.8v-460.8c0-42.347 34.453-76.8 76.8-76.8h153.6c32.437 0 60.222 20.226 71.459 48.718 100.421-12.57 138.195-32.754 174.794-52.314 45.802-24.482 89.062-47.605 230.547-47.605 36.854 0 71.587 9.624 97.8 27.101 25.61 17.074 41.968 41.006 47.4 68.755 20.414 8.283 38.544 27.426 52.454 55.893 13.53 27.688 22.272 63.077 22.272 90.166 0 5.069-0.296 9.726-0.89 14.014 12.944 9.528 24.56 24.243 34.152 43.592 13.837 27.912 22.099 62.866 22.099 93.494 0 21.694-4.027 39.802-11.968 53.822-0.645 1.128-1.312 2.234-2.003 3.31zM240.359 38.4h-153.6c-14.115 0-25.6 11.485-25.6 25.6v460.8c0 14.115 11.485 25.6 25.6 25.6h153.6c14.115 0 25.6-11.485 25.6-25.6v-460.738c0-0.022 0-0.043 0-0.066-0.002-14.114-11.486-25.597-25.6-25.597zM948.903 433.986c-7.739-15.546-15.57-21.186-18.944-21.186-14.139 0-25.6-11.461-25.6-25.6s11.461-25.6 25.6-25.6c2.149 0 3.699 0 5.971-4.008 3.378-5.965 5.315-16.382 5.315-28.582 0-22.77-6.427-49.883-16.771-70.754-10.131-20.437-20.451-27.856-24.915-27.856-14.139 0-25.6-11.461-25.6-25.6 0-9.067 4.715-17.034 11.827-21.582 1.581-16.206-5.976-59.629-25.627-87.947-7.438-10.722-15.238-16.87-21.4-16.87-14.139 0-25.6-11.461-25.6-25.6 0-45.072-49.765-65.6-96-65.6-128.659 0-164.691 19.259-206.413 41.56-38.992 20.84-82.864 44.29-193.587 58.085v419.179c107.558 35.258 212.589 96.114 297.566 172.704 81.554 73.502 135.12 152.979 153.286 226.603 13.933-4.477 29.651-13.896 39.706-31.656 17.096-30.192 29.896-107.299-76.43-284.506-4.746-7.909-4.87-17.758-0.325-25.784s13.053-12.987 22.277-12.987h178.32c10.17 0 16.749-3.586 21.998-11.99 5.986-9.586 9.283-24.402 9.283-41.72 0-21.733-5.211-45.174-13.938-62.702z" />
<glyph unicode="&#xe922;" glyph-name="magnifier" d="M990.258-21.101l-304.302 331.965c68.573 71.754 106.232 165.549 106.232 265.136 0 102.57-39.942 199-112.47 271.53s-168.96 112.47-271.53 112.47-199-39.942-271.53-112.47-112.47-168.96-112.47-271.53 39.942-199.002 112.47-271.53 168.96-112.47 271.53-112.47c88.362 0 172.152 29.667 240.043 84.248l304.285-331.947c5.050-5.507 11.954-8.301 18.878-8.301 6.179 0 12.378 2.226 17.293 6.728 10.421 9.555 11.126 25.749 1.571 36.171zM75.388 576c0 183.506 149.294 332.8 332.8 332.8s332.8-149.294 332.8-332.8-149.294-332.8-332.8-332.8-332.8 149.294-332.8 332.8z" />
<glyph unicode="&#xe92a;" glyph-name="cross" d="M548.203 446.75l289.099 289.098c9.998 9.998 9.998 26.206 0 36.205-9.997 9.997-26.206 9.997-36.203 0l-289.099-289.099-289.098 289.099c-9.998 9.997-26.206 9.997-36.205 0-9.997-9.998-9.997-26.206 0-36.205l289.099-289.098-289.099-289.099c-9.997-9.997-9.997-26.206 0-36.203 5-4.998 11.55-7.498 18.102-7.498s13.102 2.499 18.102 7.499l289.098 289.098 289.099-289.099c4.998-4.998 11.549-7.498 18.101-7.498s13.102 2.499 18.101 7.499c9.998 9.997 9.998 26.206 0 36.203l-289.098 289.098z" />
<glyph unicode="&#xe92b;" glyph-name="menu" d="M896 678.4h-768c-14.138 0-25.6 11.462-25.6 25.6s11.462 25.6 25.6 25.6h768c14.139 0 25.6-11.462 25.6-25.6s-11.461-25.6-25.6-25.6zM896 422.4h-768c-14.138 0-25.6 11.461-25.6 25.6s11.462 25.6 25.6 25.6h768c14.139 0 25.6-11.461 25.6-25.6s-11.461-25.6-25.6-25.6zM896 166.4h-768c-14.138 0-25.6 11.461-25.6 25.6s11.462 25.6 25.6 25.6h768c14.139 0 25.6-11.461 25.6-25.6s-11.461-25.6-25.6-25.6z" />
<glyph unicode="&#xe92e;" glyph-name="list3" d="M103.649 664.351c-6.552 0-13.102 2.499-18.101 7.499l-76.8 76.8c-9.998 9.997-9.998 26.206 0 36.203s26.206 9.998 36.203 0l58.698-58.699 212.299 212.298c9.997 9.998 26.206 9.998 36.203 0s9.998-26.206 0-36.203l-230.4-230.4c-5-4.998-11.55-7.498-18.102-7.498zM999.649 715.551h-614.4c-14.138 0-25.6 11.462-25.6 25.6s11.462 25.6 25.6 25.6h614.4c14.139 0 25.6-11.462 25.6-25.6s-11.461-25.6-25.6-25.6zM103.649 305.951c-6.552 0-13.102 2.499-18.101 7.499l-76.8 76.8c-9.998 9.997-9.998 26.206 0 36.203s26.206 9.997 36.203 0l58.698-58.699 212.299 212.299c9.997 9.998 26.206 9.998 36.203 0s9.998-26.206 0-36.203l-230.4-230.4c-5-5-11.55-7.499-18.102-7.499zM999.649 357.151h-614.4c-14.138 0-25.6 11.461-25.6 25.6s11.462 25.6 25.6 25.6h614.4c14.139 0 25.6-11.461 25.6-25.6s-11.461-25.6-25.6-25.6zM103.649-52.449c-6.552 0-13.102 2.499-18.101 7.499l-76.8 76.8c-9.998 9.997-9.998 26.206 0 36.203s26.206 9.997 36.203 0l58.698-58.699 212.299 212.299c9.997 9.997 26.206 9.997 36.203 0s9.998-26.206 0-36.203l-230.4-230.4c-5-5-11.55-7.499-18.102-7.499zM999.649-1.249h-614.4c-14.138 0-25.6 11.461-25.6 25.6s11.462 25.6 25.6 25.6h614.4c14.139 0 25.6-11.461 25.6-25.6s-11.461-25.6-25.6-25.6z" />
<glyph unicode="&#xe932;" glyph-name="exclamation" d="M512 115.2c-14.138 0-25.6 11.461-25.6 25.6v768c0 14.138 11.462 25.6 25.6 25.6s25.6-11.462 25.6-25.6v-768c0-14.139-11.462-25.6-25.6-25.6zM512-38.4c-14.138 0-25.6 11.461-25.6 25.6v51.2c0 14.139 11.462 25.6 25.6 25.6s25.6-11.461 25.6-25.6v-51.2c0-14.139-11.462-25.6-25.6-25.6z" />
<glyph unicode="&#xe933;" glyph-name="question" d="M512 115.2c-14.138 0-25.6 11.461-25.6 25.6v153.6c0 14.139 11.462 25.6 25.6 25.6 155.275 0 281.6 126.325 281.6 281.6s-126.325 281.6-281.6 281.6-281.6-126.325-281.6-281.6c0-14.138-11.462-25.6-25.6-25.6s-25.6 11.462-25.6 25.6c0 183.506 149.294 332.8 332.8 332.8s332.8-149.294 332.8-332.8c0-174.894-135.61-318.71-307.2-331.826v-128.974c0-14.139-11.462-25.6-25.6-25.6zM512-38.4c-14.138 0-25.6 11.461-25.6 25.6v51.2c0 14.139 11.462 25.6 25.6 25.6s25.6-11.461 25.6-25.6v-51.2c0-14.139-11.462-25.6-25.6-25.6z" />
<glyph unicode="&#xe934;" glyph-name="check" d="M281.599 62.751c-6.552 0-13.102 2.499-18.102 7.499l-256 256c-9.997 9.997-9.997 26.206 0 36.203s26.206 9.997 36.205 0l237.898-237.898 698.699 698.698c9.997 9.997 26.206 9.997 36.203 0s9.998-26.206 0-36.205l-716.8-716.8c-5-4.998-11.55-7.498-18.102-7.498z" />
<glyph unicode="&#xe936;" glyph-name="plus" d="M972.8 473.6h-435.2v435.2c0 14.138-11.462 25.6-25.6 25.6s-25.6-11.462-25.6-25.6v-435.2h-435.2c-14.138 0-25.6-11.461-25.6-25.6s11.462-25.6 25.6-25.6h435.2v-435.2c0-14.139 11.462-25.6 25.6-25.6s25.6 11.461 25.6 25.6v435.2h435.2c14.139 0 25.6 11.461 25.6 25.6s-11.461 25.6-25.6 25.6z" />
<glyph unicode="&#xe937;" glyph-name="minus" d="M972.8 422.4h-921.6c-14.138 0-25.6 11.461-25.6 25.6s11.462 25.6 25.6 25.6h921.6c14.139 0 25.6-11.461 25.6-25.6s-11.461-25.6-25.6-25.6z" />
<glyph unicode="&#xe941;" glyph-name="arrow-up" d="M495.148 912.85l-307.2-307.2c-9.997-9.997-9.997-26.206 0-36.203s26.206-9.998 36.205 0l263.496 263.498v-834.195c0-14.138 11.461-25.6 25.6-25.6s25.6 11.462 25.6 25.6v834.195l263.499-263.496c9.997-9.998 26.206-9.998 36.203 0 4.998 4.998 7.498 11.549 7.498 18.101s-2.499 13.102-7.499 18.101l-307.2 307.2c-9.997 9.998-26.205 9.998-36.202 0z" />
<glyph unicode="&#xe942;" glyph-name="arrow-down" d="M528.852-16.851l307.2 307.2c9.997 9.997 9.997 26.206 0 36.203-9.998 9.998-26.206 9.998-36.205 0l-263.496-263.498v834.195c0 14.138-11.461 25.6-25.6 25.6s-25.6-11.462-25.6-25.6v-834.195l-263.499 263.496c-9.997 9.998-26.206 9.998-36.203 0-4.998-4.998-7.498-11.549-7.498-18.101s2.499-13.102 7.499-18.101l307.2-307.2c9.997-9.998 26.205-9.998 36.202 0z" />
<glyph unicode="&#xe943;" glyph-name="arrow-left" d="M47.149 464.852l307.2 307.2c9.997 9.997 26.206 9.997 36.203 0s9.998-26.206 0-36.205l-263.498-263.496h834.195c14.138 0 25.6-11.461 25.6-25.6s-11.462-25.6-25.6-25.6h-834.195l263.496-263.499c9.998-9.997 9.998-26.206 0-36.203-4.998-4.998-11.549-7.498-18.101-7.498s-13.102 2.499-18.101 7.499l-307.2 307.2c-9.998 9.997-9.998 26.205 0 36.202z" />
<glyph unicode="&#xe944;" glyph-name="arrow-right" d="M976.85 464.852l-307.2 307.2c-9.997 9.997-26.206 9.997-36.203 0-9.998-9.998-9.998-26.206 0-36.205l263.498-263.496h-834.195c-14.138 0-25.6-11.461-25.6-25.6s11.462-25.6 25.6-25.6h834.195l-263.496-263.499c-9.998-9.997-9.998-26.206 0-36.203 4.998-4.998 11.549-7.498 18.101-7.498s13.102 2.499 18.101 7.499l307.2 307.2c9.998 9.997 9.998 26.205 0 36.202z" />
<glyph unicode="&#xe94e;" glyph-name="move" d="M965.301 464.851l-153.6 153.6c-9.997 9.998-26.206 9.998-36.203 0-9.998-9.997-9.998-26.206 0-36.203l109.899-109.898h-347.797v347.797l109.899-109.898c4.998-5 11.549-7.499 18.101-7.499s13.102 2.499 18.101 7.499c9.998 9.997 9.998 26.206 0 36.203l-153.6 153.6c-9.997 9.998-26.206 9.998-36.203 0l-153.6-153.6c-9.998-9.997-9.998-26.206 0-36.203s26.206-9.998 36.203 0l109.899 109.898v-347.797h-347.797l109.898 109.899c9.998 9.997 9.998 26.206 0 36.203s-26.206 9.998-36.203 0l-153.6-153.6c-9.998-9.997-9.998-26.206 0-36.203l153.6-153.6c5-5 11.55-7.499 18.102-7.499s13.102 2.499 18.101 7.499c9.998 9.997 9.998 26.206 0 36.203l-109.898 109.898h347.797v-347.797l-109.899 109.899c-9.997 9.997-26.206 9.997-36.203 0-9.998-9.997-9.998-26.206 0-36.203l153.6-153.6c5-5 11.55-7.499 18.102-7.499s13.102 2.499 18.101 7.499l153.6 153.6c9.998 9.997 9.998 26.206 0 36.203-9.997 9.997-26.206 9.997-36.203 0l-109.898-109.899v347.797h347.797l-109.899-109.899c-9.998-9.997-9.998-26.206 0-36.203 5-4.998 11.55-7.498 18.102-7.498s13.102 2.499 18.101 7.499l153.6 153.6c9.998 9.997 9.998 26.205 0 36.202z" />
<glyph unicode="&#xe952;" glyph-name="expand4" d="M921.6 64h-819.2c-42.347 0-76.8 34.451-76.8 76.8v614.4c0 42.347 34.453 76.8 76.8 76.8h819.2c42.349 0 76.8-34.453 76.8-76.8v-614.4c0-42.349-34.451-76.8-76.8-76.8zM102.4 780.8c-14.115 0-25.6-11.485-25.6-25.6v-614.4c0-14.115 11.485-25.6 25.6-25.6h819.2c14.115 0 25.6 11.485 25.6 25.6v614.4c0 14.115-11.485 25.6-25.6 25.6h-819.2zM870.4 729.6h-153.6c-14.139 0-25.6-11.462-25.6-25.6s11.461-25.6 25.6-25.6h91.797l-109.899-109.899c-9.998-9.997-9.998-26.206 0-36.203 5-4.998 11.55-7.498 18.102-7.498s13.102 2.499 18.101 7.499l109.899 109.898v-91.797c0-14.139 11.461-25.6 25.6-25.6s25.6 11.461 25.6 25.6v153.6c0 14.138-11.461 25.6-25.6 25.6zM307.2 217.6h-91.797l109.899 109.899c9.998 9.997 9.998 26.206 0 36.203s-26.206 9.997-36.203 0l-109.899-109.899v91.797c0 14.139-11.462 25.6-25.6 25.6s-25.6-11.461-25.6-25.6v-153.6c0-14.139 11.462-25.6 25.6-25.6h153.6c14.138 0 25.6 11.461 25.6 25.6s-11.462 25.6-25.6 25.6z" />
<glyph unicode="&#xe953;" glyph-name="contract3" d="M921.6 64h-819.2c-42.347 0-76.8 34.451-76.8 76.8v614.4c0 42.347 34.453 76.8 76.8 76.8h819.2c42.349 0 76.8-34.453 76.8-76.8v-614.4c0-42.349-34.451-76.8-76.8-76.8zM102.4 780.8c-14.115 0-25.6-11.485-25.6-25.6v-614.4c0-14.115 11.485-25.6 25.6-25.6h819.2c14.115 0 25.6 11.485 25.6 25.6v614.4c0 14.115-11.485 25.6-25.6 25.6h-819.2zM307.2 371.2h-153.6c-14.138 0-25.6-11.461-25.6-25.6s11.462-25.6 25.6-25.6h91.797l-109.899-109.899c-9.998-9.997-9.998-26.206 0-36.203 5-4.998 11.55-7.498 18.102-7.498s13.102 2.499 18.101 7.499l109.899 109.898v-91.797c0-14.139 11.462-25.6 25.6-25.6s25.6 11.461 25.6 25.6v153.6c0 14.139-11.462 25.6-25.6 25.6zM870.4 576h-91.797l109.899 109.899c9.998 9.997 9.998 26.206 0 36.203-9.997 9.998-26.206 9.998-36.203 0l-109.899-109.899v91.797c0 14.138-11.461 25.6-25.6 25.6s-25.6-11.462-25.6-25.6v-153.6c0-14.139 11.461-25.6 25.6-25.6h153.6c14.139 0 25.6 11.461 25.6 25.6s-11.461 25.6-25.6 25.6z" />
<glyph unicode="&#xe955;" glyph-name="warning" d="M972.799 12.8h-921.6c-9.094 0-17.507 4.826-22.099 12.677s-4.672 17.547-0.214 25.474l460.8 819.2c4.536 8.061 13.066 13.050 22.314 13.050s17.778-4.989 22.312-13.050l460.8-819.2c4.459-7.926 4.376-17.624-0.214-25.474-4.592-7.851-13.002-12.677-22.098-12.677zM94.97 64h834.056l-417.027 741.382-417.029-741.382zM511.999 268.8c-14.138 0-25.6 11.461-25.6 25.6v256c0 14.138 11.462 25.6 25.6 25.6s25.6-11.462 25.6-25.6v-256c0-14.139-11.462-25.6-25.6-25.6zM511.999 115.2c-14.138 0-25.6 11.461-25.6 25.6v51.2c0 14.139 11.462 25.6 25.6 25.6s25.6-11.461 25.6-25.6v-51.2c0-14.139-11.462-25.6-25.6-25.6z" />
<glyph unicode="&#xe957;" glyph-name="question-circle" d="M855.938 791.936c-91.869 91.869-214.016 142.464-343.938 142.464s-252.067-50.595-343.936-142.464-142.464-214.014-142.464-343.936 50.595-252.069 142.464-343.938 214.014-142.462 343.936-142.462 252.069 50.594 343.938 142.462 142.462 214.016 142.462 343.938-50.594 252.067-142.462 343.936zM512 12.8c-239.97 0-435.2 195.23-435.2 435.2s195.23 435.2 435.2 435.2c239.97 0 435.2-195.23 435.2-435.2s-195.23-435.2-435.2-435.2zM512 217.6c-14.138 0-25.6 11.461-25.6 25.6v102.4c0 14.139 11.462 25.6 25.6 25.6 98.811 0 179.2 80.389 179.2 179.2s-80.389 179.2-179.2 179.2-179.2-80.389-179.2-179.2c0-14.138-11.462-25.6-25.6-25.6s-25.6 11.462-25.6 25.6c0 127.043 103.357 230.4 230.4 230.4s230.4-103.357 230.4-230.4c0-118.389-89.763-216.211-204.8-228.987v-78.213c0-14.139-11.462-25.6-25.6-25.6zM512 64c-0.002 0 0 0 0 0-14.139 0-25.6 11.462-25.6 25.6v51.2c0 14.138 11.462 25.6 25.6 25.6 0 0 0 0 0 0 14.139 0 25.6-11.462 25.6-25.6v-51.2c0-14.138-11.464-25.6-25.6-25.6z" />
<glyph unicode="&#xe959;" glyph-name="checkmark-circle" d="M512-38.4c-129.922 0-252.067 50.594-343.936 142.464s-142.464 214.014-142.464 343.936c0 129.923 50.595 252.067 142.464 343.936s214.013 142.464 343.936 142.464c129.922 0 252.067-50.595 343.936-142.464s142.464-214.014 142.464-343.936-50.594-252.067-142.464-343.936c-91.869-91.87-214.014-142.464-343.936-142.464zM512 883.2c-239.97 0-435.2-195.23-435.2-435.2s195.23-435.2 435.2-435.2 435.2 195.23 435.2 435.2-195.23 435.2-435.2 435.2zM409.6 243.2c-6.552 0-13.102 2.499-18.102 7.499l-153.6 153.6c-9.997 9.997-9.997 26.206 0 36.203 9.998 9.997 26.206 9.997 36.205 0l135.498-135.498 340.299 340.298c9.997 9.997 26.206 9.997 36.203 0 9.998-9.998 9.998-26.206 0-36.205l-358.4-358.4c-5-4.998-11.55-7.498-18.102-7.498z" />
<glyph unicode="&#xe95b;" glyph-name="plus-circle" d="M855.938 791.936c-91.869 91.869-214.016 142.464-343.938 142.464s-252.067-50.595-343.936-142.464-142.464-214.014-142.464-343.936 50.595-252.069 142.464-343.938 214.014-142.462 343.936-142.462 252.069 50.594 343.938 142.462 142.462 214.016 142.462 343.938-50.594 252.067-142.462 343.936zM512 12.8c-239.97 0-435.2 195.23-435.2 435.2s195.23 435.2 435.2 435.2c239.97 0 435.2-195.23 435.2-435.2s-195.23-435.2-435.2-435.2zM819.2 473.6h-281.6v281.6c0 14.138-11.462 25.6-25.6 25.6s-25.6-11.462-25.6-25.6v-281.6h-281.6c-14.138 0-25.6-11.461-25.6-25.6s11.462-25.6 25.6-25.6h281.6v-281.6c0-14.139 11.462-25.6 25.6-25.6s25.6 11.461 25.6 25.6v281.6h281.6c14.139 0 25.6 11.461 25.6 25.6s-11.461 25.6-25.6 25.6z" />
<glyph unicode="&#xe95e;" glyph-name="arrow-up-circle" d="M168.064 791.938c-91.869-91.869-142.464-214.016-142.464-343.938s50.595-252.067 142.464-343.936 214.014-142.464 343.936-142.464 252.069 50.595 343.938 142.464 142.462 214.014 142.462 343.936-50.594 252.069-142.462 343.938-214.016 142.462-343.938 142.462-252.067-50.594-343.936-142.462zM947.2 448c0-239.97-195.23-435.2-435.2-435.2s-435.2 195.23-435.2 435.2c0 239.97 195.23 435.2 435.2 435.2s435.2-195.23 435.2-435.2zM493.901 747.699l-204.8-204.8c-9.998-9.995-9.998-26.206 0-36.203 9.997-9.998 26.206-9.998 36.203 0l161.096 161.101v-526.997c0-14.138 11.461-25.6 25.6-25.6s25.6 11.462 25.6 25.6v526.997l161.101-161.096c9.995-9.998 26.206-9.998 36.203 0 4.997 4.997 7.496 11.547 7.496 18.099s-2.499 13.102-7.501 18.099l-204.8 204.8c-9.997 10-26.202 10-36.198 0z" />
<glyph unicode="&#xe95f;" glyph-name="arrow-down-circle" d="M855.936 104.062c91.869 91.869 142.464 214.016 142.464 343.938s-50.595 252.067-142.464 343.936-214.014 142.464-343.936 142.464-252.069-50.595-343.938-142.464-142.462-214.014-142.462-343.936 50.594-252.069 142.462-343.938 214.016-142.462 343.938-142.462 252.067 50.594 343.936 142.462zM76.8 448c0 239.97 195.23 435.2 435.2 435.2s435.2-195.23 435.2-435.2c0-239.97-195.23-435.2-435.2-435.2s-435.2 195.23-435.2 435.2zM530.099 148.301l204.8 204.8c9.998 9.995 9.998 26.206 0 36.203-9.997 9.998-26.206 9.998-36.203 0l-161.096-161.101v526.997c0 14.138-11.461 25.6-25.6 25.6s-25.6-11.462-25.6-25.6v-526.997l-161.101 161.096c-9.995 9.998-26.206 9.998-36.203 0-4.997-4.997-7.496-11.547-7.496-18.099s2.499-13.102 7.501-18.099l204.8-204.8c9.997-10 26.202-10 36.198 0z" />
<glyph unicode="&#xe960;" glyph-name="arrow-left-circle" d="M168.062 791.936c91.869 91.869 214.016 142.464 343.938 142.464s252.067-50.595 343.936-142.464 142.464-214.014 142.464-343.936-50.595-252.069-142.464-343.938-214.014-142.462-343.936-142.462-252.069 50.594-343.938 142.462-142.462 214.016-142.462 343.938 50.594 252.067 142.462 343.936zM512 12.8c239.97 0 435.2 195.23 435.2 435.2s-195.23 435.2-435.2 435.2c-239.97 0-435.2-195.23-435.2-435.2s195.23-435.2 435.2-435.2zM212.301 466.099l204.8 204.8c9.995 9.998 26.206 9.998 36.203 0 9.998-9.997 9.998-26.206 0-36.203l-161.101-161.096h526.997c14.138 0 25.6-11.461 25.6-25.6s-11.462-25.6-25.6-25.6h-526.997l161.096-161.101c9.998-9.995 9.998-26.206 0-36.203-4.997-4.997-11.547-7.496-18.099-7.496s-13.102 2.499-18.099 7.501l-204.8 204.8c-10 9.997-10 26.202 0 36.198z" />
<glyph unicode="&#xe961;" glyph-name="arrow-right-circle" d="M855.938 791.936c-91.869 91.869-214.016 142.464-343.938 142.464s-252.067-50.595-343.936-142.464-142.464-214.014-142.464-343.936 50.595-252.069 142.464-343.938 214.014-142.462 343.936-142.462 252.069 50.594 343.938 142.462 142.462 214.016 142.462 343.938-50.594 252.067-142.462 343.936zM512 12.8c-239.97 0-435.2 195.23-435.2 435.2s195.23 435.2 435.2 435.2c239.97 0 435.2-195.23 435.2-435.2s-195.23-435.2-435.2-435.2zM811.699 466.099l-204.8 204.8c-9.995 9.998-26.206 9.998-36.203 0-9.998-9.997-9.998-26.206 0-36.203l161.101-161.096h-526.997c-14.138 0-25.6-11.461-25.6-25.6s11.462-25.6 25.6-25.6h526.997l-161.096-161.101c-9.998-9.995-9.998-26.206 0-36.203 4.997-4.997 11.547-7.496 18.099-7.496s13.102 2.499 18.099 7.501l204.8 204.8c10 9.997 10 26.202 0 36.198z" />
<glyph unicode="&#xe96a;" glyph-name="play-circle" d="M512-21.334c-125.364 0-243.222 48.819-331.868 137.466s-137.466 206.504-137.466 331.868c0 125.365 48.82 243.222 137.466 331.868s206.503 137.466 331.868 137.466c125.364 0 243.222-48.82 331.868-137.466s137.466-206.504 137.466-331.868-48.819-243.222-137.466-331.868c-88.646-88.647-206.504-137.466-331.868-137.466zM512 867.93c-231.55 0-419.93-188.38-419.93-419.93s188.38-419.93 419.93-419.93c231.55 0 419.93 188.38 419.93 419.93s-188.38 419.93-419.93 419.93zM363.79 176.281c-4.119 0-8.242 1.028-11.975 3.097-7.855 4.352-12.727 12.626-12.727 21.604v494.036c0 8.98 4.873 17.253 12.727 21.604s17.452 4.102 25.067-0.658l395.228-247.018c7.223-4.514 11.61-12.433 11.61-20.947s-4.388-16.434-11.61-20.947l-395.228-247.018c-3.996-2.501-8.543-3.754-13.092-3.754zM388.491 650.45v-404.899l323.92 202.45-323.92 202.45z" />
<glyph unicode="&#xe98d;" glyph-name="square" d="M921.6-38.4h-819.2c-42.347 0-76.8 34.451-76.8 76.8v819.2c0 42.347 34.453 76.8 76.8 76.8h819.2c42.349 0 76.8-34.453 76.8-76.8v-819.2c0-42.349-34.451-76.8-76.8-76.8zM102.4 883.2c-14.115 0-25.6-11.485-25.6-25.6v-819.2c0-14.115 11.485-25.6 25.6-25.6h819.2c14.115 0 25.6 11.485 25.6 25.6v819.2c0 14.115-11.485 25.6-25.6 25.6h-819.2z" />
<glyph unicode="&#xe999;" glyph-name="check-square" d="M921.6-38.4h-819.2c-42.347 0-76.8 34.451-76.8 76.8v819.2c0 42.347 34.453 76.8 76.8 76.8h819.2c42.349 0 76.8-34.453 76.8-76.8v-819.2c0-42.349-34.451-76.8-76.8-76.8zM102.4 883.2c-14.115 0-25.6-11.485-25.6-25.6v-819.2c0-14.115 11.485-25.6 25.6-25.6h819.2c14.115 0 25.6 11.485 25.6 25.6v819.2c0 14.115-11.485 25.6-25.6 25.6h-819.2zM409.6 243.2c-6.552 0-13.102 2.499-18.102 7.499l-153.6 153.6c-9.997 9.997-9.997 26.206 0 36.203 9.998 9.997 26.206 9.997 36.205 0l135.498-135.498 340.299 340.298c9.997 9.997 26.206 9.997 36.203 0s9.998-26.206 0-36.205l-358.4-358.4c-5-4.998-11.55-7.498-18.102-7.498z" />
<glyph unicode="&#xe99d;" glyph-name="circle" d="M512-42.666c-131.061 0-254.277 51.041-346.951 143.716s-143.716 215.891-143.716 346.951c0 131.061 51.041 254.277 143.716 346.951s215.891 143.716 346.951 143.716c131.061 0 254.277-51.041 346.951-143.716s143.716-215.891 143.716-346.951c0-131.061-51.041-254.277-143.716-346.951s-215.891-143.716-346.951-143.716zM512 889.603c-243.5 0-441.601-198.101-441.601-441.601s198.101-441.601 441.601-441.601c243.5 0 441.601 198.101 441.601 441.601s-198.101 441.601-441.601 441.601z" />
<glyph unicode="&#xe99e;" glyph-name="radio-button" d="M512-42.667c-131.061 0-254.276 51.040-346.952 143.715s-143.715 215.891-143.715 346.952c0 131.061 51.040 254.276 143.715 346.952s215.891 143.715 346.952 143.715c131.061 0 254.276-51.040 346.952-143.715s143.715-215.891 143.715-346.952c0-131.061-51.040-254.276-143.715-346.952s-215.891-143.715-346.952-143.715zM512 889.6c-243.499 0-441.6-198.101-441.6-441.6s198.101-441.6 441.6-441.6 441.6 198.101 441.6 441.6-198.101 441.6-441.6 441.6zM512 153.6c-162.331 0-294.4 132.069-294.4 294.4s132.069 294.4 294.4 294.4 294.4-132.069 294.4-294.4-132.069-294.4-294.4-294.4zM512 693.333c-135.274 0-245.333-110.059-245.333-245.333 0-135.276 110.059-245.333 245.333-245.333 135.276 0 245.333 110.057 245.333 245.333s-110.057 245.333-245.333 245.333z" />
<glyph unicode="&#xe9c4;" glyph-name="finger-tap" d="M877.056 548.592c-21.072 0-40.674-6.403-56.973-17.358-14.008 39.88-52.021 68.558-96.627 68.558-21.072 0-40.674-6.403-56.973-17.358-14.008 39.88-52.021 68.558-96.627 68.558-18.645 0-36.126-5.034-51.2-13.776v167.376c0 56.464-45.936 102.4-102.4 102.4s-102.4-45.936-102.4-102.4v-377.52l-68.909 119.446c-13.366 24.326-35.163 41.645-61.405 48.782-25.558 6.949-52.144 3.272-74.858-10.357-46.461-27.877-64.138-90.819-39.442-140.37 1.514-3.101 34.213-70.024 136.17-273.938 48.010-96.021 100.704-164.653 156.619-203.994 43.896-30.886 74.195-32.451 79.824-32.451h256c43.41 0 83.571 12.566 119.371 37.352 34.603 23.957 64.469 58.984 88.768 104.11 48.059 89.251 73.461 217.381 73.461 370.538 0 56.464-45.936 102.4-102.4 102.4zM860.915 99.93c-28.134-52.251-79.262-114.538-163.059-114.538h-255.49c-2.016 0.173-23.546 2.565-56.067 26.894-32.41 24.246-82.155 75.373-135.091 181.246-103.789 207.579-135.685 272.947-135.995 273.584-0.037 0.077-0.075 0.154-0.114 0.23-12.87 25.742-3.744 59.49 19.928 73.694 10.645 6.387 23.102 8.11 35.080 4.853 12.766-3.47 23.438-12.059 30.051-24.182 0.098-0.179 0.198-0.357 0.301-0.534l79.899-138.498c16.35-29.842 34.725-42.405 54.622-37.328 19.955 5.088 30.075 25.019 30.075 59.24v400c0 28.232 22.968 51.2 51.2 51.2s51.2-22.968 51.2-51.2v-332.8c0-14.138 11.461-25.6 25.6-25.6s25.6 11.462 25.6 25.6v76.8c0 28.232 22.968 51.2 51.2 51.2s51.2-22.968 51.2-51.2v-76.8c0-14.138 11.461-25.6 25.6-25.6s25.6 11.462 25.6 25.6v25.6c0 28.232 22.968 51.2 51.2 51.2s51.2-22.968 51.2-51.2v-76.8c0-14.139 11.461-25.6 25.6-25.6s25.6 11.461 25.6 25.6v25.6c0 28.232 22.968 51.2 51.2 51.2s51.2-22.968 51.2-51.2c0-144.712-23.286-264.448-67.341-346.262zM237.037 855.787c-3.848 0-7.754 0.87-11.429 2.707l-102.4 51.2c-12.646 6.323-17.771 21.701-11.45 34.346 6.323 12.646 21.701 17.771 34.346 11.45l102.4-51.2c12.646-6.323 17.771-21.701 11.45-34.346-4.485-8.971-13.528-14.157-22.917-14.157zM134.675 702.187c-9.39 0-18.432 5.186-22.917 14.157-6.323 12.645-1.197 28.022 11.45 34.346l102.4 51.2c12.643 6.322 28.022 1.197 34.346-11.45 6.323-12.645 1.197-28.022-11.45-34.346l-102.4-51.2c-3.674-1.837-7.581-2.707-11.429-2.707zM595.477 855.787c-9.392 0-18.434 5.186-22.917 14.157-6.323 12.645-1.197 28.022 11.448 34.346l102.4 51.2c12.648 6.318 28.026 1.197 34.346-11.45 6.323-12.645 1.197-28.022-11.448-34.346l-102.4-51.2c-3.677-1.837-7.582-2.707-11.429-2.707zM697.835 702.187c-3.846 0-7.754 0.87-11.429 2.707l-102.4 51.2c-12.645 6.323-17.771 21.701-11.448 34.346s21.699 17.773 34.346 11.45l102.4-51.2c12.645-6.323 17.771-21.701 11.448-34.346-4.483-8.971-13.526-14.157-22.917-14.157z" />
<glyph unicode="&#xe9c5;" glyph-name="fingers-tap" d="M856 556q0 8-3 16t-9 14l-61 60q-6 6-13.5 9.5t-16.5 3.5q-8 0-16-3.5t-14-9.5l-272-271-150 151q-6 6-14 9t-16 3q-9 0-16.5-3t-13.5-9l-61-60q-6-6-9-14t-3-17q0-8 3-16t9-14l241-241q6-6 14-9.5t16-3.5q9 0 17 3.5t14 9.5l362 362q6 6 9 13.5t3 16.5v0zM1024 448q0-106-40-199-40-94-109.5-163.5t-163.5-109.5q-93-40-199-40t-199 40q-94 40-163.5 109.5t-109.5 163.5q-40 93-40 199t40 199 109.5 162.5 163.5 110.5q93 40 199 40t199-40q94-41 163.5-110.5t109.5-162.5 40-199z" />
<glyph unicode="&#x1f568;" glyph-name="typewriter" d="M512 375q-50 0-95 19-44 19-77 52t-53 78q-19 44-19 94v0h98q0-60 42.5-103t103.5-43v0q61 0 103.5 43t42.5 103v0h98q0-50-19-94-20-45-53-78t-77-52q-45-19-95-19v0 0zM512 862q61 0 103.5-42.5t42.5-103.5v0h-292q0 61 42.5 103.5t103.5 42.5v0 0zM853 716h-97q0 50-19 95-20 44-53 77t-77 53q-45 19-95 19v0q-50 0-95-19-44-20-77-53t-53-77q-19-45-19-95v0h-97q-41 0-69.5-28.5t-28.5-69.5v-585q0-40 28.5-68.5t69.5-28.5v0h682q41 0 69.5 28.5t28.5 68.5v0 585q0 41-28.5 69.5t-69.5 28.5v0z" />
</font>
</defs>
</svg>
