<?xml version="1.0" standalone="no"?>
<!DOCTYPE svg PUBLIC "-//W3C//DTD SVG 1.1//EN" "http://www.w3.org/Graphics/SVG/1.1/DTD/svg11.dtd" >
<svg xmlns="http://www.w3.org/2000/svg" xmlns:xlink="http://www.w3.org/1999/xlink" version="1.1">
<metadata>
Created by FontForge 20190801 at Thu Aug  2 17:26:45 2018
 By Jimmy Wärting
(c) 2018 Pets at Home Ltd
</metadata>
<defs>
<font id="PaHArchie-Regular" horiz-adv-x="510" >
  <font-face 
    font-family="PaH Archie"
    font-weight="400"
    font-stretch="normal"
    units-per-em="1000"
    panose-1="2 0 5 3 2 0 0 2 0 3"
    ascent="800"
    descent="-200"
    x-height="701"
    cap-height="729"
    bbox="-38 -271 830 913"
    underline-thickness="50"
    underline-position="-100"
    unicode-range="U+0020-25CA"
  />
<missing-glyph horiz-adv-x="476" 
d="M33 -267v1154h366v-1154h-366zM120 772h75v-43h-77v-38h192v38h-76v43h76v38h-190v-38zM118 542h192v39h-76v81h-116v-120zM157 581v41h38v-41h-38zM118 472h77v-43h-77v-37h116v80h76v38h-192v-38zM272 365h-154v-40h192v115h-38v-75zM195 236h39v26h38v-54h-115v92h-39
v-130h192v130h-115v-64zM118 -30h192v130h-192v-130zM157 8v54h115v-54h-115zM118 -95h81l-81 -54v-38h192v38h-117l80 54h37v39h-192v-39z" />
    <glyph glyph-name=".notdef" horiz-adv-x="476" 
d="M33 -267v1154h366v-1154h-366zM120 772h75v-43h-77v-38h192v38h-76v43h76v38h-190v-38zM118 542h192v39h-76v81h-116v-120zM157 581v41h38v-41h-38zM118 472h77v-43h-77v-37h116v80h76v38h-192v-38zM272 365h-154v-40h192v115h-38v-75zM195 236h39v26h38v-54h-115v92h-39
v-130h192v130h-115v-64zM118 -30h192v130h-192v-130zM157 8v54h115v-54h-115zM118 -95h81l-81 -54v-38h192v38h-117l80 54h37v39h-192v-39z" />
    <glyph glyph-name="NULL" horiz-adv-x="0" 
 />
    <glyph glyph-name="nonmarkingreturn" horiz-adv-x="175" 
 />
    <glyph glyph-name="space" unicode=" " horiz-adv-x="285" 
 />
    <glyph glyph-name="ring" unicode="&#x2da;" horiz-adv-x="254" 
d="M45 870q10 15 26 24t35 9t38 -11q34 -23 34 -60q0 -22 -12 -39q-16 -24 -45 -30l-16 -2q-21 0 -37 10q-16 9 -25 25t-9 35q0 22 11 39zM89.5 817q5.5 -4 14.5 -4q11 0 18 6t6 16q-2 8 -10 13q-4 4 -14 4q-13 0 -16 -10q-4 -4 -4 -13q0 -8 5.5 -12z" />
    <glyph glyph-name="exclam" unicode="!" horiz-adv-x="171" 
d="M82.5 207.5q-8.5 -8.5 -20.5 -8.5q-12 1 -20.5 9t-8.5 20q0 42 1 50v16q1 5 1 -18q0 45 1 55l1 49q0 16 -2 48q0 6 -0.5 18t-0.5 34q0 17 2 51q0 6 0.5 17t0.5 31v100q0 11 8.5 19.5t19.5 8.5q13 0 21 -8t8 -20v-100q0 -22 -0.5 -33.5t-0.5 -17.5q-2 -34 -2 -48l1 -49
q2 -34 2 -52l-1 -50q-1 -8 -1 -49l-1 -3v-49q0 -12 -8.5 -20.5zM65 46q-11 0 -18 6q0 1 -1 1.5t-2 1.5q-11 9 -11 22l2 7q2 11 12 20q12 4 16 4q7 0 13.5 -4t10.5 -9l4 -7q3 -6 3 -14q0 -12 -10 -21q-7 -7 -19 -7z" />
    <glyph glyph-name="quotedbl" unicode="&#x22;" horiz-adv-x="206" 
d="M20.5 603q-8.5 8 -9.5 20v44q0 33 1 40q1 12 11 19.5t21 5.5q11 -1 18 -9t7 -18q0 -6 -1 -15t-1 -22l2 -42q0 -13 -8.5 -21.5t-19.5 -9.5q-12 0 -20.5 8zM102 603q-8 8 -9 20q-1 11 -1 44q0 26 2 40q1 12 10.5 19.5t21.5 5.5q11 -2 18.5 -11t5.5 -20q-2 -16 -2 -33l2 -42
q0 -13 -8 -21.5t-20 -9.5q-12 0 -20 8z" />
    <glyph glyph-name="numbersign" unicode="#" horiz-adv-x="584" 
d="M521 452.5q-8 -8.5 -20 -8.5h-6l-84 2l-9 -32l-14 -46l-13 -47l-5 -17h45q9 -1 53 -1q12 0 20.5 -8t8.5 -19q0 -13 -8.5 -21.5t-20.5 -8.5q-45 0 -54 1h-58l-6 -18q-6 -22 -15 -47l-14 -45l-13 -46l-14 -45q-3 -10 -10 -15.5t-17 -5.5q-7 0 -8 1q-10 2 -15.5 10t-5.5 18
q0 6 1 7l14 47l14 45q3 11 14 47q2 4 14 45l1 1h-95q-24 0 -33 -1l-5 -16l-13 -45l-13 -47l-27 -92q-2 -9 -10 -15t-18 -6q-5 0 -7 1q-10 3 -15.5 10.5t-5.5 17.5l1 8l27 92l13 46l14 47h-70q-11 0 -19.5 8.5t-8.5 19.5q0 12 8.5 20.5t19.5 8.5h55q6 -1 32 -1l10 35
q12 36 12 46l14 46l4 16h-93q-12 0 -20.5 8.5t-8.5 19.5q0 12 8 20.5t21 8.5h112l6 19q7 26 11 44q7 30 13 49q1 6 8 25l7 22q10 30 14 44q3 10 10.5 15.5t17.5 5.5l8 -2q9 -2 14.5 -9.5t5.5 -17.5l-1 -8q-11 -36 -16 -47l-14 -44q-9 -29 -11 -45q-5 -23 -12 -48l-1 -3h95
q6 1 28 1q1 6 2.5 10.5t2.5 8.5l15 47l15 44l12 45l13 48q3 9 11 14.5t18 5.5q6 0 7 -1q9 -3 15 -10.5t6 -16.5l-2 -9l-12 -45l-13 -47l-8 -24l-8 -23l-15 -44v-4h22q9 -1 52 -1q11 0 19.5 -8.5t8.5 -20.5q0 -11 -8 -19.5zM321 338l13 45l13 47l5 16q-2 -1 -11 -1h-115
l-10 -31l-12 -46l-13 -47l-6 -18h126z" />
    <glyph glyph-name="dollar" unicode="$" horiz-adv-x="427" 
d="M352 166q-15 -61 -65 -89q-24 -13 -53 -17v-2l1 -52q0 -12 -8.5 -20.5t-20.5 -8.5q-11 0 -19.5 8.5t-8.5 20.5l-1 49v4q-49 6 -87 33q-51 34 -61 88q-2 20 -2 30q0 38 13 71q3 8 10 13t16 5q8 0 11 -1q8 -3 13 -10.5t5 -16.5q0 -8 -1 -10q-10 -24 -10 -51q0 -11 2 -19
q4 -31 36 -52q24 -16 53 -22q0 11 2 41q2 34 2 49q0 16 -2 48q-1 9 -1 53q0 42 1 50v8q-49 33 -75 70q-35 48 -35 102q0 63 50 113q25 25 62 37v22q0 11 8.5 19.5t19.5 8.5h1q12 0 20 -8.5t8 -20.5v-15q31 -2 55 -15q27 -13 42 -41q11 -22 15 -36t4 -29q0 -17 -5 -42l-1 -7
q-2 -12 -12 -18.5t-22 -4.5q-11 2 -18 11.5t-4 20.5v8q5 20 5 33q0 8 -3 16t-10 21q-6 12 -18 18q-10 5 -28 7v-28q0 -40 1 -48v-52q0 -42 -1 -51q-1 -8 -1 -49v-12q30 -20 52 -44q39 -40 56 -82q13 -29 13 -64q0 -23 -4 -40zM179 459v167q-14 -6 -22 -16q-33 -33 -33 -74
q0 -31 25 -68q14 -18 29 -32q0 19 1 23zM290 248q-14 34 -44 64l-13 13v-17q0 -41 1 -49q2 -36 2 -53t-2 -51q-2 -26 -2 -38q19 5 27 10q28 15 37 52q3 9 3 27q0 20 -9 42z" />
    <glyph glyph-name="percent" unicode="%" horiz-adv-x="412" 
d="M90 -9.5q-7 -5.5 -17 -5.5q-7 0 -9 1q-9 3 -14.5 11t-5.5 17l2 9l15 46l9 31l6 17q8 27 18 49l17 45l15 47q2 5 5 15.5t10 32.5l30 94q8 25 17 49l16 46l16 47q3 12 16 48l14 46l15 49q3 8 10.5 14t16.5 6q12 0 20.5 -9t8.5 -20l-2 -9l-14 -46l-15 -49l-16 -48l-15 -47
l-18 -48l-15 -46q-5 -14 -9 -27t-7 -20q-1 -5 -3 -10.5t-4 -11.5l-8 -26l-15 -47q-2 -5 -5 -15.5t-10 -32.5l-18 -49q-9 -22 -16 -44q-10 -26 -15 -47l-16 -48q-3 -9 -10 -14.5zM86 483q-24 0 -47 18q-24 23 -24 55q0 28 17 46q22 24 54 24q26 0 45 -15q26 -21 26 -55
q0 -26 -16 -46q-18 -25 -49 -26q-1 -1 -6 -1zM86 569h-1q-7 0 -11 -5q-2 -2 -2 -7v-2q0 -9 6 -11q4 -4 9 -4q7 2 10 6q4 5 4 11q-2 7 -5 9q-2 3 -10 3zM280 65q-18 0 -37 11q-15 9 -24 24.5t-9 34.5q0 20 11 39q9 15 25 24t35 9q20 0 39 -11q15 -9 24 -25.5t9 -34.5
q0 -22 -12 -39q-17 -23 -45 -29q-9 -3 -16 -3zM281 150q-2 0 -3 -1q-7 -2 -9 -5q-2 -4 -2 -9v-3q2 -10 13 -10l4 1q12 6 12 13v3q-3 6 -6 9q-6 2 -9 2z" />
    <glyph glyph-name="ampersand" unicode="&#x26;" horiz-adv-x="521" 
d="M232 -16h-4q-67 2 -114 31q-57 35 -78 93q-9 24 -9 58t8 62q17 63 56 102q23 25 49 42l-4 8q-14 28 -36 84q-14 48 -14 96q0 71 42 108q20 19 47.5 29t58.5 10q84 0 121 -46q32 -41 32 -114q0 -50 -34 -98q-12 -16 -27.5 -30t-40.5 -32l-34 -22q-7 -5 -27 -13
q-2 0 -4.5 -1t-4.5 -2l12 -21l6 -12q14 -27 41 -70l2 -2q19 -32 54 -79q17 -22 35 -42l6 16q11 30 11 64q0 16 -3 34q-2 11 5.5 20.5t19.5 10.5q11 2 21 -5t11 -18q3 -19 3 -42q0 -43 -13 -82q-4 -15 -19 -40q30 -27 51 -30q10 0 17.5 -8.5t7.5 -19.5q0 -12 -8.5 -20.5
t-20.5 -8.5q-2 0 -3 1q-38 5 -81 42l-21 -17q-49 -36 -117 -36zM167 626q-24 -21 -24 -66q0 -40 12 -78q12 -37 33 -77l2 -5l11 5q16 6 26.5 12.5t24.5 16.5q38 26 55 48q23 32 23 68q0 50 -20 75q-18 24 -73 26q-43 0 -70 -25zM133 292q-30 -33 -42 -79q-7 -21 -7 -47
q0 -22 6 -39q13 -41 54 -63q33 -23 88 -23q47 0 85 25l13 11q-33 37 -46 54l-12 16q-30 40 -45 67l-1 1q-23 36 -43 74l-6 11l-11 21q-18 -13 -33 -29z" />
    <glyph glyph-name="quotesingle" unicode="'" horiz-adv-x="124" 
d="M20.5 603q-8.5 8 -9.5 20v44q0 33 1 40q1 12 11 19.5t21 5.5q11 -1 18 -9t7 -18q0 -6 -1 -15t-1 -22l2 -42q0 -13 -8.5 -21.5t-19.5 -9.5q-12 0 -20.5 8z" />
    <glyph glyph-name="parenleft" unicode="(" horiz-adv-x="268" 
d="M215 20q-6 -20 -27 -20l-9 2q-57 19 -93 93q-28 60 -39 113q-8 34 -10 53q-3 34 -4 47v17q0 6 1 8l-1 10v65q1 2 1 14q0 40 5 77q6 44 21 92q19 56 43 87q35 44 85 60q2 1 8 1q10 0 17.5 -5t10.5 -15l1 -9q0 -9 -5 -16t-14 -10q-36 -12 -58 -40q-21 -31 -34 -71
q-11 -36 -19 -82q-4 -40 -4 -71v-14v-38v-44v-1q1 -1 1 -5l-1 -9l2 -41l9 -49q11 -50 36 -99q25 -51 60 -65q19 -7 19 -26q0 -5 -2 -9z" />
    <glyph glyph-name="parenright" unicode=")" horiz-adv-x="303" 
d="M218 250q-6 -43 -21 -91q-17 -53 -42 -87q-35 -47 -84 -62l-9 -2q-9 0 -16.5 5.5t-10.5 14.5l-2 9q0 9 6 16.5t15 10.5q31 10 55 42q20 28 34 70q10 28 19 82q7 63 7 103q0 49 -3 64v6q0 5 1 7q-2 28 -3 30l-6 36l-2 19q-4 41 -12 63q-14 52 -29 72q-19 31 -47 34
q-12 1 -19 9t-7 18q0 14 9 22.5t22 7.5q27 -2 50.5 -17.5t39.5 -42.5q20 -33 37 -88q8 -29 12 -71l3 -18l5 -34q3 -15 5 -55q0 -5 -1 -7l1 -10q1 -9 1 -64q-2 -48 -8 -92z" />
    <glyph glyph-name="asterisk" unicode="*" horiz-adv-x="265" 
d="M212 622q-9 -12 -23 -12q-8 0 -17 6l-19 14l-20 15l-7 5v-4l-2 -22q0 -6 -2 -28q-1 -11 -9 -18.5t-19 -7.5h-3q-12 1 -20 10.5t-6 20.5l3 30l-20 -15q-6 -6 -17 -6q-14 0 -23 12q-6 6 -6 16q0 14 12 24l41 29l9 6l-10 7l-40 29q-12 10 -12 23q0 10 6 17q9 12 24 12
q9 0 16 -5l30 -21l3 40q2 11 10 18t19 7q12 0 20.5 -9t7.5 -22l-4 -45l39 30q9 6 17 6q14 0 23 -12q6 -7 6 -18q0 -14 -12 -22l-39 -30l-8 -5l7 -6l39 -29q12 -9 12 -23q0 -11 -6 -17z" />
    <glyph glyph-name="plus" unicode="+" horiz-adv-x="443" 
d="M356.5 356.5q-8.5 -8.5 -19.5 -8.5h-1l-44 -1l-44 -1h-20v-38q0 -20 -1 -25q0 -6 -0.5 -16.5t-0.5 -28.5q0 -11 -8.5 -19.5t-20.5 -8.5t-20 8.5t-8 19.5l1 47l1 45v18h-18q-37 0 -44 -1h-47q-11 0 -20 8.5t-9 20.5t9 20.5t20 8.5h108v108q0 12 8.5 20.5t20.5 8.5
t20.5 -8.5t8.5 -20.5q0 -39 -1 -46v-64h18q13 0 45 2h47q11 0 19.5 -8.5t8.5 -19.5q0 -12 -8.5 -20.5z" />
    <glyph glyph-name="comma" unicode="," horiz-adv-x="218" 
d="M62 -58q-8 0 -18 7q-11 8 -11 22q0 7 7 18q4 4 26 34q18 26 26 32q10 8 20 8q12 0 21 -10q7 -7 7 -19t-9 -21l-19 -24l-27 -35q-9 -12 -23 -12z" />
    <glyph glyph-name="hyphen" unicode="-" horiz-adv-x="323" 
d="M177 350q-7 1 -37 1h-78q-12 0 -20.5 8t-8.5 20t9 20.5t20 8.5h78q33 0 39 -1h38q11 0 20 -8.5t9 -20.5t-8.5 -20t-20.5 -8h-40z" />
    <glyph glyph-name="period" unicode="." horiz-adv-x="172" 
d="M84 7q-7 -7 -19 -7q-8 0 -17 6l-5 4q-10 8 -10 20q0 8 5 15q1 7 10 13q12 4 15 4q17 0 24 -13q4 -4 4 -7q4 -5 4 -13q0 -16 -11 -22z" />
    <glyph glyph-name="slash" unicode="/" horiz-adv-x="354" 
d="M60 20q-8 -5 -17 -5q-6 0 -9 1q-8 3 -13.5 10.5t-5.5 16.5l1 9q13 34 19 49l16 44l16 47l15 49l14 45q8 30 15 50l16 47l17 47l15 47l16 47q6 23 16 49q1 4 4.5 14.5l10.5 31.5l7 19q9 26 11 29l16 46q3 9 10 14t16 5q7 0 10 -1q9 -3 14 -10.5t5 -16.5l-1 -9l-17 -48
l-17 -46l-15 -47l-17 -47l-15 -47l-16 -48l-16 -47l-15 -47l-15 -46q-7 -27 -15 -49l-14 -48q-6 -14 -16 -48q-3 -11 -19 -48q-5 -12 -16 -45q-3 -9 -11 -14z" />
    <glyph glyph-name="zero" unicode="0" horiz-adv-x="529" 
d="M235 -24q-55 0 -100 41q-37 35 -57 83q-15 39 -27 92q0 3 -6 31q-4 17 -6 29.5t-2 32.5v2l-3 49l1 32q1 2 1 15q3 62 11 100q7 46 29 98q21 54 61 89q46 38 104 38q65 0 109 -34q42 -33 64 -87q17 -35 27 -97q7 -36 9 -97l1 -44q0 -15 -2 -37v-15q-3 -62 -11 -100
q-11 -70 -25 -101q-25 -59 -69 -89q-43 -31 -109 -31zM174 626q-27 -23 -46 -67q-17 -42 -25 -86q-7 -40 -10 -92q0 -13 -1 -16l-1 -31q0 -14 1 -20l1 -23l1 -3q1 -27 6 -51l8 -34q6 -39 23 -80q18 -41 43 -63q29 -27 61 -27q46 0 77 21q28 21 49 65q11 27 21 87q5 30 10 93
v17q2 20 2 35l-1 41q-2 51 -8 88q-8 50 -23 84q-17 41 -47 64q-29 23 -71 23q-41 0 -70 -25z" />
    <glyph glyph-name="one" unicode="1" horiz-adv-x="290" 
d="M210 7q-8 -8 -21 -9h-125q-12 0 -20.5 8.5t-8.5 19.5v1q0 11 8.5 19.5t20.5 8.5h33q0 21 1 25v46l1 48q0 3 -0.5 17.5t0.5 29.5q0 41 1 49l1 45v1l-1 46v143q0 19 -0.5 29.5t-0.5 16.5l-1 49q0 39 1 47l-26 -16q-5 -5 -15 -5q-14 0 -21 9l-4 4q-4 7 -4 16q0 15 12 24
q16 11 31 19l28 20q8 6 21 4q1 1 6 1h2q11 0 19.5 -8.5t8.5 -20.5v-48l-1 -46l1 -47v-95q1 -8 1 -48v-95l-2 -94v-46q1 -8 1 -49q0 -40 -1 -48v-22q7 1 32 1q12 0 20.5 -8t9.5 -21q0 -13 -8 -21z" />
    <glyph glyph-name="two" unicode="2" horiz-adv-x="483" 
d="M91 60v-10q11 0 15 -1h165q59 0 89 2h5q11 0 19.5 -8.5t8.5 -19.5q0 -12 -7 -20t-18 -9h-3q-4 0 -6 -1h-21l-67 -1h-165q-6 1 -22 1q-1 0 -3.5 -0.5t-3.5 0.5q-16 0 -27 12q-16 16 -17 52q0 28 10 66q13 50 43 104q21 36 33.5 55.5t28.5 37.5q39 44 80 76q43 32 67 61
q34 39 47 71q6 18 6 34q0 19 -8 39q-13 36 -50 54q-32 16 -80 16q-33 0 -54 -9q-18 -9 -26 -23q-13 -19 -17 -29t-4 -19q0 -11 7 -46h1q2 -14 -7 -24.5t-22 -10.5q-10 0 -17.5 6.5t-10.5 16.5v1q-8 42 -8 56q0 11 1 14q1 15 7.5 29t21.5 37q18 27 50 43q32 15 78 15
q63 0 106 -22q54 -27 77 -83q12 -30 12 -60q0 -27 -9 -54q-12 -36 -58 -90q-30 -33 -75 -68q-40 -33 -72 -69q-24 -27 -56 -83q-25 -45 -36 -90q-8 -28 -8 -49z" />
    <glyph glyph-name="three" unicode="3" horiz-adv-x="515" 
d="M435 157q-9 -56 -45 -100q-36 -45 -87 -64q-38 -16 -86 -16q-16 0 -21 1q-35 2 -67 18t-56 46q-20 25 -30 59t-9 70q1 12 9 19.5t20 7.5t20.5 -8.5t7.5 -20.5q0 -54 27 -92q30 -37 83 -42q4 -1 18 -1q33 0 63 12q35 14 65 48q33 41 33 91q0 29 -12 56q-18 37 -51 62
q-35 26 -77 41q-7 1 -13.5 5.5t-9.5 9.5q-3 6 -3 14q0 16 14 25q46 26 71 50q32 31 41 66q5 18 5 32q0 21 -9 40q-17 34 -54 53q-39 21 -76 21q-46 0 -69 -22q-24 -22 -28 -65q0 -12 -9 -19.5t-22 -6.5q-11 1 -19 10t-7 21q7 67 48 102q39 37 106 37q54 0 104 -28
q55 -30 77 -78q15 -30 15 -66q0 -26 -6 -47q-15 -51 -57 -91q-15 -15 -35 -29q30 -14 47 -30q45 -34 68 -83q18 -33 18 -78q0 -10 -2 -30z" />
    <glyph glyph-name="four" unicode="4" horiz-adv-x="503" 
d="M372 121q0 -25 0.5 -36t0.5 -15t0.5 -13.5t0.5 -27.5q0 -12 -8.5 -20.5t-20.5 -8.5t-20 8.5t-8 20.5q0 17 -0.5 26t-0.5 14t-0.5 16t-0.5 36v108h-29l-54 -3q-20 -3 -57 -3l-56 -2q-6 -1 -29 -1l-27 -1h-1q-11 0 -19.5 8.5t-9.5 19.5q0 12 9 21l24 38q18 30 28 44l12 20
q6 8 14 22l12 19l43 67l28 42l28 43l28 42q18 30 28 43l28 41q9 13 24 13q2 1 7 1q4 0 12 -2q8 -4 12.5 -12t3.5 -17v-130l-1 -53l1 -44v-160l22 1q12 0 20.5 -8t8.5 -19q1 -13 -7 -21.5t-21 -8.5l-25 -1v-107zM317 445l-1 44l1 54v48l-10 -17l-28 -42l-28 -43l-27 -42
l-28 -42l-27 -43l-28 -43l-25 -41h1l56 2q48 2 54 3l58 3h32v159z" />
    <glyph glyph-name="five" unicode="5" horiz-adv-x="503" 
d="M401 100q-28 -53 -78 -87q-44 -28 -97 -28h-18q-56 6 -91 25q-43 25 -69 68q-4 8 -4 14q0 8 4 14.5t11 10.5q5 4 14 4q16 0 25 -14q15 -28 47 -47q26 -14 69 -18h14q35 0 63 19q40 26 58 64q20 42 20 93q0 40 -17 80q-19 43 -52 70q-32 23 -83 37q-14 2 -24 2
q-18 0 -43 -3l-38 -6q-32 -6 -40 -6q-13 0 -22 9t-8 22v4v36l-1 43l-3 40q-4 36 -4 45l-1 44v48q2 11 10 18t20 7l50 -2l70 -1h28q4 0 18.5 0.5t32.5 -0.5h99q13 0 21 -8.5t8 -20.5q0 -11 -8.5 -19.5t-20.5 -8.5h-149l-32 -1q-14 0 -18 1q-35 0 -52 1q-4 1 -19 1v-57
q2 -30 4 -40l3 -46q1 -14 1 -43v-10h3l41 7q28 3 46 3q20 0 42 -4q63 -17 103 -46q41 -32 70 -93q22 -52 22 -105q0 -65 -25 -116z" />
    <glyph glyph-name="six" unicode="6" horiz-adv-x="524" 
d="M139 12q-56 33 -80 102q-9 27 -19 83l-5 31l-1 3q-1 7 -1 26q0 10 5 37l6 35q11 60 20 93q16 55 29 90q22 54 47 87q26 36 73 69q46 32 95 41q11 2 21 -5t12 -18q2 -12 -5 -21.5t-19 -11.5q-38 -8 -71 -31q-41 -28 -60 -57q-21 -28 -41 -75q-14 -35 -26 -83l-6 -26
q43 39 86 49q31 7 62 7t55 -7q59 -17 95 -76q35 -55 35 -122q0 -44 -17 -100q-17 -58 -57 -99q-46 -49 -111 -49q-78 0 -122 28zM94 225l2 -18q8 -48 17 -75q16 -48 55 -71q31 -20 92 -20q41 0 71 31q28 28 43 77q15 45 15 85q0 49 -27 91q-23 39 -61 50q-20 5 -41 5
q-24 0 -48 -6q-16 -3 -38.5 -17.5t-40.5 -36.5q-34 -41 -38 -89q0 -5 -1 -6z" />
    <glyph glyph-name="seven" unicode="7" horiz-adv-x="516" 
d="M438 674l-15 -48l-14 -47q-5 -20 -16 -49l-15 -45l-13 -46l-13 -49l-13 -47l-14 -48l-17 -48q-10 -30 -14 -46l-28 -94l-7 -23l-8 -24l-14 -48q-3 -9 -10.5 -14.5t-16.5 -5.5q-6 0 -9 1q-9 3 -14.5 10.5t-5.5 16.5q0 1 2 9l6 22l8 25l28 94q4 16 14 48q13 40 16 48l15 46
l13 47l14 47q5 15 13 47l14 49l15 48q11 27 16 45l14 48l3 12h-7q-7 -1 -43 -1l-42 -1l-44 -1h-88q-13 -1 -43 -1h-43q-11 0 -20 8.5t-9 19.5q0 12 8.5 20.5t20.5 8.5h43l43 1h87l42 1l44 1q36 0 44 1h44q14 0 22 -11q8 -6 8 -20q0 -6 -1 -7z" />
    <glyph glyph-name="eight" unicode="8" horiz-adv-x="511" 
d="M236 -15h-6q-63 0 -114 31q-25 16 -44 41t-29 56q-10 35 -10 62q0 22 9 58q17 51 62 98q26 29 63 52q-22 14 -32 27q-54 54 -54 132q0 67 41 116q23 26 54 42q33 14 65 14q89 0 124 -58q25 -40 25 -124q-1 -69 -62 -123q-23 -20 -33 -26q38 -21 67 -49q46 -45 62 -101
q9 -30 9 -58q0 -31 -10 -62q-23 -65 -76 -97q-50 -31 -111 -31zM166 622q-28 -33 -28 -80q0 -53 37 -93q22 -20 56 -38q14 6 25 13q6 3 34 28q42 37 43 81q0 64 -16 93q-17 30 -74 31q-48 0 -77 -35zM144 292q-37 -40 -47 -76q-6 -22 -6 -41q0 -21 6 -44q15 -45 49 -67
q35 -22 90 -22q43 0 81 22q35 23 51 67q7 20 7 44q0 26 -5 42q-14 43 -48 76q-36 34 -79 50l-15 6l-2 -1l-7 -2q-44 -23 -75 -54z" />
    <glyph glyph-name="nine" unicode="9" horiz-adv-x="514" 
d="M137 -7h-15q-11 1 -19 9.5t-8 20.5q0 11 8.5 19.5t18.5 8.5q60 0 87 10q38 16 69 49q20 21 47 74q19 40 30 86q5 17 13 55q-48 -17 -70 -19q-19 -4 -49 -4q-39 0 -59 6q-62 10 -101 49q-44 45 -53 101q-3 15 -3 31q0 40 14 80q20 61 59 96q50 42 114 42q69 0 119 -29
q59 -36 81 -103q16 -47 16 -120v-12q0 -46 -4 -81l-2 -8q-4 -45 -20 -99q-15 -58 -33 -96q-30 -59 -58 -88q-42 -46 -89 -63q-39 -15 -93 -15zM222 650h-6q-39 -1 -72 -28q-27 -25 -43 -71q-10 -29 -10 -62q0 -52 39 -91q27 -26 70 -34q32 -5 50 -5q20 0 38 3q26 4 89 26v1
q2 30 2 52l-1 13q0 67 -12 103q-17 48 -56 71q-35 22 -88 22z" />
    <glyph glyph-name="colon" unicode=":" horiz-adv-x="173" 
d="M33 538q0 10 6 18t16 10l7 1q12 1 20.5 -4t11.5 -14q1 -3 1 -11q0 -15 -13 -24l-4 -2v-1q-6 -3 -14 -3q-6 0 -14 4q-13 6 -16 20q-1 1 -1 6zM95 213q0 -14 -10 -21q-6 -8 -19 -8q-9 0 -18 7l-4 3q-10 10 -10 21q0 6 4 13q3 8 11 13q6 5 15 5q7 0 14 -3.5t10 -9.5l4 -6
q3 -4 3 -14z" />
    <glyph glyph-name="semicolon" unicode=";" horiz-adv-x="218" 
d="M75 564q6 8 16 10l9 1q11 1 19 -4t12 -14l1 -10q0 -15 -13 -25l-5 -2q-5 -4 -14 -4t-18 6q-13 9 -13 24q0 10 6 18zM131 246q-5 -3 -19 -23l-28 -36q-7 -11 -22 -11q-7 0 -18 7q-11 8 -11 22q0 8 7 18l26 34q15 22 26 32q8 7 20 7t21 -9q7 -8 7 -19q0 -13 -9 -22z" />
    <glyph glyph-name="less" unicode="&#x3c;" horiz-adv-x="291" 
d="M211 249q0 -15 -10 -22q-8 -8 -18 -8q-12 0 -21 9l-61 67q-6 8 -21 23l-39 45q-8 10 -8 20q0 2 2 10q4 8 9 13l7 5l53 53l61 59q8 9 21 9q9 0 20 -8q8 -10 8 -21q0 -10 -8 -20l-31 -30l-31 -29l-29 -30l-14 -14l21 -23l22 -23l30 -34l30 -33q7 -7 7 -18z" />
    <glyph glyph-name="equal" unicode="=" horiz-adv-x="442" 
d="M153 410l-46 1q-7 1 -45 1q-12 0 -20.5 8.5t-8.5 19.5q0 12 9 20.5t20 8.5l47 -1l44 -1q18 0 28.5 0.5t16.5 0.5l47 1h91q12 0 20.5 -8.5t8.5 -20.5q0 -11 -8.5 -19.5t-20.5 -8.5h-91l-87 -2h-5zM356.5 293.5q-8.5 -8.5 -20.5 -8.5h-183q-31 0 -47 1q-30 2 -44 2
q-12 0 -20.5 8.5t-8.5 19.5q0 12 9 20.5t20 8.5q17 0 47 -2l44 -1l46 1h92q8 -1 45 -1q12 0 20.5 -8.5t8.5 -20.5q0 -11 -8.5 -19.5z" />
    <glyph glyph-name="greater" unicode="&#x3e;" horiz-adv-x="289" 
d="M210 357q-4 -8 -8 -11q-18 -19 -31 -30l-15 -16l-14 -14q-11 -10 -30 -30l-30 -30q-7 -9 -20 -9t-20 9q-9 9 -9 20q0 10 9 20l30 30l29 30q28 28 31 30l12 13l-5 8q-16 21 -35 41l-30 32l-31 34q-7 7 -7 18q0 13 10 22q7 7 18 7q13 0 22 -9l60 -66q9 -9 37 -43l22 -27
q6 -9 6 -19z" />
    <glyph glyph-name="question" unicode="?" horiz-adv-x="427" 
d="M164.5 170.5q-8.5 -8.5 -20.5 -8.5t-20 8.5t-8 20.5v48q0 22 -3 34l-1 23q0 22 7 46q4 13 16 19q47 20 73 38q38 26 60 55q29 34 35 66q4 12 4 26q0 20 -10 43q-16 34 -47 48q-26 13 -66 13q-62 0 -89 -33q-24 -27 -26 -37q-1 -2 -1 -7q0 -17 5 -40q2 -13 -6.5 -22.5
t-22.5 -9.5q-11 0 -19 7t-9 17q-5 29 -5 48q0 14 2 21q4 14 12.5 27t25.5 33q47 53 130 53q55 0 93 -18q51 -24 75 -76q15 -33 15 -68q0 -18 -4 -38q-12 -46 -48 -90q-26 -33 -71 -65q-34 -23 -70 -38q-2 -14 -2 -18q0 -1 0.5 -4t0.5 -11q3 -30 3 -42v-48q0 -12 -8.5 -20.5z
M149 7q-8 0 -17 6l-5 3q-10 9 -10 22q0 11 5 17t9 9q7 5 16 5q15 0 23 -13l4 -5q3 -7 3 -14q0 -14 -8 -22q-10 -8 -20 -8z" />
    <glyph glyph-name="at" unicode="@" horiz-adv-x="594" 
d="M516 369q-6 -57 -19 -90q-17 -42 -47 -52q-7 -3 -18 -3q-20 0 -40 13l-19 13q-2 -6 -5 -11t-4 -7q-12 -18 -33.5 -27t-57.5 -13h-9q-33 0 -60 19q-28 21 -40 56q-10 26 -10 58q0 34 11 64q12 38 38 62t58 27q35 3 47 3q34 0 50 -15q16 -16 16 -45q0 -9 -3 -30v-2
q-1 -11 -9.5 -18.5t-18.5 -7.5q-13 0 -21.5 9.5t-7.5 21.5v2q3 26 2 28q-10 1 -48 -2q-16 -2 -29 -15.5t-20 -35.5q-7 -21 -7 -45q0 -23 6 -41q9 -20 19 -27q9 -8 26 -8q22 0 36 4t17 9t4 20t1 38v2q0 12 8.5 20.5t20.5 8.5q5 0 6 -1q12 -4 18 -13q14 -22 23 -33
q4 -4 26 -20q8 -4 9 -4q4 4 12 18q15 44 15 98q0 34 -6 73q-11 58 -30 90q-23 39 -62 64q-37 20 -86 20q-51 0 -83 -20q-36 -21 -60 -64q-17 -31 -29 -89q-10 -43 -11 -97q-1 -10 -1 -43q0 -35 1 -41q1 -1 1 -7q1 -4 1 -17q1 -14 1 -29l10 -36q12 -39 33 -75q22 -38 51 -55
q26 -14 66 -14q41 0 77 15q31 11 58 38q28 29 39 59q3 8 10.5 13t16.5 5q5 0 11 -3q8 -3 13 -10.5t5 -16.5q0 -5 -3 -10q-17 -42 -51 -77q-35 -35 -78 -52q-36 -15 -90 -18h-10q-53 0 -91 21q-22 12 -38.5 29.5t-33.5 44.5q-28 48 -39 90l-12 44l-2 35v2q-2 8 -2 12l-1 23
l-1 26l2 50q2 65 12 106q11 57 35 104q29 56 80 86q44 28 113 28q67 0 114 -28q52 -30 83 -85q13 -23 21.5 -47.5t15.5 -60.5q7 -38 7 -84v-27z" />
    <glyph glyph-name="A" unicode="A" 
d="M461.5 -14.5q-5.5 -7.5 -15.5 -9.5q-1 -1 -7 -1q-9 0 -17 5.5t-11 15.5q-11 40 -14 47q-8 24 -14 50q-6 19 -13 51l-14 48l-12 51l-1 9h-18q-3 0 -16 0.5t-28 -0.5q-22 0 -44 -2l-49 -3h-55l-15 -46l-15 -48l-16 -49l-17 -49l-16 -47q-3 -9 -10.5 -14t-16.5 -5h-9
q-9 3 -14.5 11t-5.5 17l2 9l16 48q9 22 17 48l15 48l16 49l12 36q-8 8 -8 20q-1 10 6 18t18 10l3 12l17 48l32 96q9 22 17 48l17 48l16 48q9 25 13 46q7 29 15 52q10 19 28 19l9 -1q12 -5 17 -17q1 -1 1 -4l14 -48q9 -23 15 -50l28 -98l12 -50l13 -48l14 -48q11 -38 14 -50
l1 -2q13 -8 13 -23q0 -8 -4 -13l3 -13l12 -48l13 -50l12 -49q8 -28 15 -47l15 -50v-8q0 -10 -5.5 -17.5zM318 339q-3 7 -15 49l-13 51q-2 14 -12 48l-14 49l-13 49l-1 5l-2 -5q-7 -24 -11 -34.5t-5 -14.5l-17 -47q-8 -25 -17 -49l-16 -47q-6 -20 -10 -31.5t-6 -17.5l-13 -40
h35l44 3q54 2 68 2h28z" />
    <glyph glyph-name="B" unicode="B" horiz-adv-x="520" 
d="M458 167q-11 -48 -48 -103q-28 -43 -71 -71q-51 -29 -95 -33q-5 -1 -23 -1q-34 0 -75 9l-13 3q-31 8 -40 12q-8 2 -38 19q-12 8 -13 19q-1 2 -1 8l1 46v46q0 39 1 46l1 46v91q0 15 2 47l1 45q0 31 1 47l1 45l2 92l-1 44q-1 5 -1 26q-12 -1 -21 7.5t-9 21.5q0 11 7.5 19
t17.5 9q59 6 93 6l25 -1q77 -3 121 -19q38 -15 60 -37q33 -33 33 -83q0 -46 -29 -89q-14 -23 -35 -42l9 -2q45 -14 80 -52q43 -46 58 -103q7 -31 7 -54q0 -30 -8 -64zM107 626l1 -47q-1 -15 -1 -46l-1 -46q0 -15 -2 -47v-33q27 3 62 14q37 13 76 39q39 25 58 55q19 29 19 56
q0 10 -1 12q-1 20 -16 33q-11 12 -39 23q-42 16 -120 16q-30 0 -37 -1q0 -22 1 -28zM404 271q-13 44 -45 78q-24 26 -55 36q-19 6 -38 6l-29 -3l-5 -1q-37 -17 -48 -20q-39 -14 -82 -17v-1l-1 -46v-91l-1 -46v-46l-1 -46v-30l16 -8q5 -2 31 -9q5 -1 8.5 -2t5.5 -1
q32 -8 59 -8q16 0 20 1q35 3 70 25q33 22 53 53q33 50 40 86q7 33 7 51q0 19 -5 39z" />
    <glyph glyph-name="C" unicode="C" horiz-adv-x="525" 
d="M294 0q-42 0 -84 14q-37 13 -71 46q-28 24 -51 65q-26 47 -34 72q-9 27 -15 72l-1 6l-3 19q-5 29 -5 59l2 29q0 8 2 32l1 10l2 17q2 29 7 55q11 43 22 71q14 34 38 64q23 31 57 53q30 22 70 33q41 12 75 12q46 0 76 -10q28 -9 67 -42q9 -9 9 -21t-7 -20q-11 -9 -21 -9
q-9 0 -19 8q-26 22 -46 30q-22 7 -59 7q-26 0 -60 -10q-25 -7 -53 -24q-25 -18 -43 -41q-21 -28 -32 -53q-14 -37 -18 -61q-3 -9 -6 -47l-2 -17q-1 -2 -1 -10q-4 -42 -4 -56q0 -26 4 -50l4 -19v-6q8 -49 14 -63q7 -23 29 -62q18 -31 40 -52q23 -23 52 -33q25 -11 64 -11
q35 0 59 7q25 7 51 26q23 17 39 41q10 13 24 13q8 0 16 -5q12 -9 12 -24q0 -10 -5 -16q-24 -35 -53 -56q-32 -23 -68 -35q-27 -8 -75 -8z" />
    <glyph glyph-name="D" unicode="D" horiz-adv-x="589" 
d="M511 299q-6 -48 -24 -102q-21 -52 -53 -92q-32 -37 -84 -64q-46 -25 -98 -36q-41 -9 -100 -12h-34h-44h-21q-12 1 -20.5 9.5t-7.5 20.5q0 10 6.5 17.5t15.5 9.5v70l1 47q1 8 1 47q0 20 0.5 31t0.5 17l1 46q0 39 -1 47v96q1 7 1 47v46q-1 7 -1 48q0 39 -1 47v19h-2
q-11 0 -19.5 8.5t-8.5 20.5q0 10 7 18t18 10h2q45 9 102 9q61 0 107 -9q62 -14 103 -37q43 -24 84 -74q33 -43 51 -98q16 -46 21 -106q1 -8 1 -32q0 -17 -4 -69zM457 396q-1 36 -18 93q-16 47 -42 79q-34 42 -67 59q-41 23 -87 31q-42 9 -95 9l-42 -1v-27q1 -7 1 -47
q0 -39 1 -46v-48q0 -40 -1 -49v-93l1 -48l-2 -94q0 -40 -1 -48q0 -6 -0.5 -17t-0.5 -30v-69q35 0 45 1q40 0 92 10q40 9 82 30q42 22 68 52q25 30 42 75q18 47 21 86q4 27 4 63q0 23 -1 29z" />
    <glyph glyph-name="E" unicode="E" horiz-adv-x="493" 
d="M446 13.5q-8 -8.5 -19 -8.5h-47q-7 1 -44 1l-44 -2l-46 -1q-15 -1 -45 -1h-45l-46 -1q-6 0 -16 -0.5t-29 -0.5q-12 0 -20 8t-8 21v2q0 10 9 19v12q0 18 1 22l1 45l-1 45l-3 49l1 49q1 7 1 45v94q0 14 -2 46q0 19 -1 26l-1 22q0 20 0.5 31t0.5 17q0 3 0.5 17t-0.5 30v46
q-1 4 -1 23q-10 1 -16.5 9.5t-5.5 18.5q0 12 8.5 20.5t19.5 7.5q17 0 47 -2l45 -1h45l47 -1q16 0 46 -2h23l22 -1h45q4 1 19 1q20 0 27 -1q13 0 21 -8.5t8 -20.5q-1 -12 -9.5 -20t-19.5 -8q-8 1 -27 1q-14 0 -18 -1h-47l-46 1q-34 2 -46 2q-15 1 -45 1h-46q-13 1 -39 1v-66
q1 -17 0.5 -31t-0.5 -17v-46l1 -46q2 -32 2 -48v-3l94 1q45 0 54 -1h55q12 0 20 -8.5t8 -19.5q0 -12 -8 -20.5t-20 -8.5h-55q-9 1 -54 1l-62 -1h-32v-35q0 -40 -1 -48l-1 -46l3 -45l1 -49l-1 -49q-1 -4 -1 -22h6l46 1q38 0 45 1h45q37 0 45 1q4 1 23 1l22 1q39 0 47 -1h44
q12 0 20 -8t8 -21q0 -11 -8 -19.5z" />
    <glyph glyph-name="F" unicode="F" horiz-adv-x="476" 
d="M436.5 683.5q-8.5 -8.5 -19.5 -8.5q-39 0 -46 -1l-46 -1q-39 0 -46 -1t-47 -1h-6q-34 0 -42 1l-44 1l-40 -1q0 -33 -1 -40q0 -3 -0.5 -16t0.5 -30q0 -39 -1 -47v-46l1 -45v-23l32 2q16 0 44 -2q26 -2 38 -2q34 0 41 1h40q12 0 20.5 -8t8.5 -20t-8 -20.5t-21 -8.5h-39
q-8 -1 -42 -1q-15 0 -43 2q-13 1 -39 1q-19 0 -24.5 -0.5t-6.5 -0.5l1 -12l3 -48q0 -17 -2 -49q-1 -7 -1 -44q0 -15 2 -45l1 -48v-49q-2 -30 -1 -44q0 -12 -8.5 -20.5t-20.5 -8.5q-11 0 -19.5 8.5t-8.5 20.5q-1 15 1 48v45l-1 44q-2 32 -2 49q0 16 2 48q0 6 0.5 16t0.5 29
q0 26 -3 44l-1 13q-9 3 -15.5 11t-6.5 17q0 10 5.5 18t15.5 10v25l-1 47v48q1 10 1 66v66q-10 2 -16.5 9.5t-6.5 17.5q0 12 8 20.5t20 8.5h46q6 0 17 0.5t30 0.5l47 -1q7 -1 45 -1q37 0 45 1t47 1l46 1q7 1 46 1q12 0 20.5 -8.5t8.5 -20.5q0 -11 -8.5 -19.5z" />
    <glyph glyph-name="G" unicode="G" horiz-adv-x="627" 
d="M559 277q-5 -40 -15 -78q-10 -39 -28 -76q-24 -40 -53 -66q-32 -27 -76 -42q-30 -8 -47 -11.5t-35 -3.5q-39 0 -84 15q-43 13 -77 41q-25 22 -53 66q-15 23 -33 75q-20 61 -22 78q-6 42 -6 59q1 5 1 22q0 42 2 72q6 43 14 73q7 34 22 72q21 46 40 66q23 30 59 53
q28 16 73 28q40 10 76 10q47 0 76 -10q41 -12 70 -38q9 -9 9 -22q0 -11 -7 -19q-9 -9 -21 -9q-10 0 -20 7q-20 18 -49 27q-25 7 -58 7q-25 0 -62 -8q-43 -13 -57 -21q-27 -17 -45 -41q-16 -21 -31 -54q-12 -24 -20 -61q-11 -41 -11 -65q-3 -21 -3 -67q0 -19 -1 -23
q0 -19 5 -48q6 -26 11 -42l9 -28q14 -42 28 -63q20 -34 42 -52q19 -18 57 -31q36 -12 66 -12t65 13q29 9 55 30q25 24 41 51q12 24 23 64q6 21 13 69q2 14 5 51h-18q-4 -1 -24 -1h-90h-27h-1q-11 0 -19.5 8t-8.5 19q0 13 8 21.5t20 8.5q17 1 31 0.5t18 -0.5h26l66 1l47 1
q12 1 20.5 -7t8.5 -21v-9q0 -39 -5 -79z" />
    <glyph glyph-name="H" unicode="H" horiz-adv-x="564" 
d="M478 227v-47l-1 -47l-1 -49q-2 -32 -2 -46q0 -11 -8.5 -19.5t-20.5 -8.5t-20 8.5t-8 20.5l1 48q2 34 2 46l1 47v48q0 38 -1 45v45h-61l-50 1h-49q-17 1 -31.5 0.5t-17.5 -0.5h-50q-14 0 -48 -2l1 -43l1 -50l2 -98q0 -41 -1 -49l-1 -48q1 -12 -7.5 -20.5t-20.5 -8.5h-1
q-11 0 -19 8t-9 21l1 49q1 8 1 48l-1 49l-1 48q0 41 -1 49l-1 45q-10 2 -16.5 10t-6.5 18t6 17.5t16 10.5q-2 30 -2 46q0 43 1 51q1 6 1 29q0 40 -1 47v19q-1 5 -1 26l-1 24v49l-1 49q0 11 8.5 19.5t20.5 8.5t20.5 -8t8.5 -20v-97l2 -48l1 -50q1 -17 -1 -51q-1 -8 -1 -47
q0 -14 2 -46q30 2 50 2h48q4 0 18.5 0.5t31.5 -0.5h50l49 -1h62l1 41q0 40 1 47v190q1 8 1 46q1 12 9.5 20.5t20.5 8.5q11 0 19.5 -8.5t7.5 -20.5q0 -41 -1 -48v-189q-1 -7 -1 -46q0 -20 -0.5 -31t-0.5 -17v-2q9 -7 9 -20q-2 -14 -10 -21v-49q1 -8 1 -49z" />
    <glyph glyph-name="I" unicode="I" horiz-adv-x="290" 
d="M206.5 674q-8.5 -8 -19.5 -8h-2l-45 2l-1 -24q-1 -9 -1 -65v-26q1 -8 1 -48q0 -41 -1 -49q-1 -7 -1 -46q0 -38 1 -46t1 -48q0 -41 -1 -49t-1 -46t1 -46t1 -49v-48q-1 -4 -1 -20q7 -1 33 -1q13 0 21 -8.5t8 -20.5q-1 -12 -9 -20t-20 -8h-1l-107 2q-12 0 -20.5 8.5
t-8.5 19.5q0 12 8.5 20.5t20.5 8.5h18q0 16 1 20v47q0 39 -1 46q-1 8 -1 49t1 48q1 8 1 47q0 38 -1 45q-1 8 -1 49l1 48q1 9 1 47t-1 46v27l1 70q1 5 1 22l-25 2q-12 1 -20 9t-8 20t9 20.5t21 7.5l65 -3q7 0 25.5 -1.5t37.5 -1.5q11 -1 19 -9t8 -20t-8.5 -20z" />
    <glyph glyph-name="J" unicode="J" horiz-adv-x="506" 
d="M211 -24q-73 0 -120 26q-58 33 -71 109q-4 24 -4 85v28q-1 13 7.5 21.5t19.5 8.5q12 0 20.5 -8.5t9.5 -19.5v-30q0 -56 4 -75q7 -50 42 -70q33 -18 92 -18q39 0 73 26q33 27 50 67q14 32 24 89l7 42v51q0 17 2 49l1 45v94l1 48l1 47v94q1 12 9 20.5t20 8.5h1q12 -1 20 -9
t7 -21v-94l-2 -94v-95l-1 -45q-1 -17 -1 -49v-17q0 -23 -2 -39l-7 -46q-11 -64 -28 -101q-24 -56 -66 -89q-48 -39 -109 -39z" />
    <glyph glyph-name="K" unicode="K" horiz-adv-x="540" 
d="M479 11q-8 -11 -22 -11q-11 0 -19 7l-32 26l-41 32l-34 30l-23 20l-14 12l-35 29l-38 31l-38 30l-36 28l-52 45v-67q0 -16 -2 -48q-1 -8 -1 -46q-1 -16 -1 -48v-47q0 -12 -8.5 -20t-20.5 -8q-11 0 -20 8.5t-9 19.5l1 48l1 47q0 41 1 49q2 32 2 46v190q0 38 -1 46v28
q0 43 1 50v19l1 47l-1 45l-1 49q0 12 8.5 20.5t19.5 8.5q12 0 20.5 -8.5t8.5 -20.5q0 -38 1 -46l1 -49l-1 -24v-24q-1 -9 -1 -47q-1 -15 -0.5 -29t0.5 -17q1 -8 1 -48v-27q4 5 15 16l12 12l230 218q21 21 40 36l38 35q7 8 19 8t21 -9q8 -8 8 -19q0 -12 -9 -21l-40 -37
l-37 -35l-39 -36l-76 -72l-13 -12l-26 -25l-38 -37l-38 -35l-21 -20q-8 -9 -15 -15l15 -14q33 -28 43 -36l33 -27l41 -32l36 -30l23 -18l53 -45l31 -28l39 -32q4 -2 35 -26q10 -9 10 -22q0 -10 -6 -18z" />
    <glyph glyph-name="L" unicode="L" horiz-adv-x="441" 
d="M318 12l-51 -4l-24 -1h-28q-18 0 -25 -1l-24 -1q-36 -2 -52 -2q-1 0 -8.5 -0.5t-32.5 -0.5l-10 -2h-1q-11 0 -20 9t-8 20q0 16 2 48l2 47v47l1 48l1 47l2 96l3 47l2 94v74q0 28 2 70q2 30 2 46q0 12 8.5 20t20.5 8q11 0 19.5 -8t8.5 -20q0 -17 -2 -49q-2 -38 -2 -67v-75
l-1 -48l-1 -47l-2 -48l-2 -47l-2 -94l-1 -48v-48l-2 -47l-1 -15h21q16 0 50 2l24 1q7 1 28 1l48 1l102 8q12 0 21 -8.5t9 -20.5q0 -11 -8 -19.5t-19 -9.5z" />
    <glyph glyph-name="M" unicode="M" horiz-adv-x="731" 
d="M639.5 8.5q-8.5 -8.5 -20.5 -8.5q-11 0 -19.5 8.5t-8.5 20.5l-1 46l-1 47v48l-1 46l-1 47l-1 48v94l-3 141l-1 39l-1 -2l-26 -45l-27 -46l-52 -92l-29 -46q-11 -16 -27 -44l-27 -46l-22 -37q-1 -10 -13 -17q-6 -5 -16 -5q-7 0 -15 4q-12 7 -13 19q-13 22 -23 36l-28 47
l-26 45l-28 45l-56 92l-27 45l-27 46l-1 2l-1 -38q-1 -8 -1 -46v-48q1 -7 1 -47l1 -46q2 -32 2 -49q0 -20 -0.5 -31t-0.5 -17l-1 -46q0 -40 -1 -48v-47q0 -38 1 -46q2 -32 2 -48q0 -12 -9 -20.5t-20 -8.5q-12 0 -20.5 8.5t-8.5 20.5q0 30 -1 45q-1 8 -1 49v48q1 8 1 47l1 48
v46q0 31 -1 46l-1 49q0 39 -1 47v48q0 40 1 48l1 46q0 40 1 48v40v6q0 16 13 25l5 3q3 1 11 1q17 0 24 -13q14 -23 27 -48l26 -45l27 -45l27 -46l10 -16q8 -14 18 -29l28 -46l10 -17q12 -20 18 -28l26 -47l28 -45l3 -4l1 4l27 45l28 46l27 44l16 27l10 18q11 22 27 46l26 46
l27 46l27 45l26 46q9 14 24 14q3 0 15 -4l6 -4q9 -9 9 -21v-94l1 -22v-25l2 -94l1 -48l1 -47v-94l1 -47q0 -19 0.5 -30t0.5 -17v-47l2 -94q0 -12 -8.5 -20.5z" />
    <glyph glyph-name="N" unicode="N" horiz-adv-x="537" 
d="M457 368l-3 -44q0 -39 1 -46v-47q-1 -16 -0.5 -29.5t0.5 -16.5q1 -7 1 -47l-1 -23q0 -20 -1 -24v-46q0 -8 -5 -15q0 -16 -15 -24q-9 -4 -14 -4q-8 0 -15 4.5t-10 11.5l-22 40l-24 42q-11 18 -22 43l-20 41l-22 39q-4 8 -10 18t-14 24l-22 43l-21 40q-14 27 -23 40l-12 21
l-11 21l-22 42l-21 42q-16 28 -22 41l-12 22v-26l-1 -48v-47q1 -8 1 -48l-1 -47l-1 -48q0 -41 -1 -49q-1 -15 -1 -45q0 -31 1 -47l1 -49q0 -16 -2 -48v-46q0 -12 -8.5 -20.5t-20.5 -8.5t-20.5 8.5t-8.5 20.5l1 48q2 32 2 46q0 19 -0.5 30t-0.5 17q-2 32 -2 49q0 15 2 49
q1 7 1 45q1 16 1 48q0 31 1 47q0 40 -1 47v48l1 48v94q-1 7 -1 40q-1 2 -1 7q0 8 5 16q9 13 24 13q11 0 19 -6t9 -16l8 -15l11 -19l23 -42l44 -82l43 -84q12 -22 23 -39l45 -84q2 -4 6.5 -13.5t15.5 -28.5l22 -40q8 -12 23 -42q12 -20 22 -43q6 -14 20 -38v10q0 37 -1 45
q0 3 -0.5 16.5t0.5 31.5v45q-1 8 -1 47l3 49q2 22 2 44q1 16 -1 44l-1 49l1 46v93l1 47q0 11 8.5 19.5t20.5 8.5q12 -1 20 -9t8 -20q-1 -16 -1 -47v-93q0 -6 -0.5 -16.5t-0.5 -29.5l1 -44q1 -6 1 -30q0 -11 -2 -67z" />
    <glyph glyph-name="O" unicode="O" horiz-adv-x="624" 
d="M292 -24q-42 0 -78 14q-42 17 -70 40q-12 12 -22 26t-24 37q-19 32 -33 68q-15 42 -21 71q-5 31 -8 60l-2 11q-4 37 -3 57v36q-2 38 2 58q7 37 21 70q1 2 1 5q17 41 39 70q30 38 58 57q43 30 72 37q16 5 32 6.5t46 1.5h2q51 0 88 -17t71 -54q26 -29 47 -72q15 -35 27 -79
q5 -21 6.5 -33.5t1.5 -27.5q0 -14 1 -21q3 -31 3 -59q0 -46 -7 -93q-6 -47 -15 -76q-14 -42 -30 -74q-27 -44 -51 -64q-28 -27 -72 -43q-36 -12 -82 -12zM241 639q-22 -6 -57 -30q-25 -17 -44 -45q-17 -21 -31 -56l-2 -5q-14 -37 -17 -58q-3 -13 -3 -49q1 -4 1 -19v-18
q-2 -20 3 -49l1 -12q7 -49 8 -54q5 -22 19 -64q9 -27 28 -58q18 -33 37 -49q19 -17 50 -30q27 -10 58 -10q35 0 63 9q30 10 52 31q24 19 39 50q17 30 26 62q8 26 14 68q2 11 6 69q1 33 -3 68v3q-1 7 -1 25q0 20 -7 48q-5 25 -23 68q-12 28 -39 59q-20 24 -51 39
q-27 12 -64 12h-2q-45 0 -61 -5z" />
    <glyph glyph-name="P" unicode="P" horiz-adv-x="494" 
d="M404 380q-31 -60 -87 -86q-54 -26 -115 -26h-16q-35 0 -44 1t-33 8v-60l1 -22q0 -20 1 -25l2 -47q0 -30 1 -46l2 -48q0 -12 -8 -20.5t-20 -8.5h-1q-11 0 -19.5 8t-8.5 20l-1 23q-1 6 -1 23q-2 32 -2 48l-1 46l-2 47l-1 30l1 18l-1 47v47l-1 47q0 13 -2 45q-2 24 -2 49
q-1 8 -1 29q0 15 1 19l1 18l-1 27q0 15 -2 47q-1 4 -1 22q-9 2 -15.5 7.5t-7.5 14.5q-1 2 -1 6q0 10 6 18t16 9q30 8 40 8l61 5h42q40 0 61 -5q51 -7 100 -37q53 -32 74 -85q17 -42 17 -88q0 -72 -32 -133zM315 638q-38 23 -80 29q-21 4 -56 4l-35 -1l-44 -2q0 -22 1 -28
q2 -30 2 -47q1 -17 0.5 -31.5t-0.5 -17.5q-1 -7 -1 -45l2 -45l3 -49l1 -48v-18q26 -10 38 -12q14 -2 40 -2h15q49 0 91 20q41 21 60 60q26 49 26 110q0 37 -12 65q-14 34 -51 58z" />
    <glyph glyph-name="Q" unicode="Q" horiz-adv-x="634" 
d="M553 256l-2 -10q-5 -42 -18 -76q-16 -46 -36 -72q-17 -22 -38 -38l10 -16q5 -7 23 -38l20 -35q4 -8 4 -15q0 -16 -13 -25q-7 -4 -15 -4q-7 0 -14 3.5t-10 9.5q-2 3 -4.5 7.5t-6.5 9.5l-12 22q-6 12 -20 34l-11 16q-29 -15 -48 -20q-30 -7 -72 -7h-9q-59 0 -106 28l-6 3
q-35 23 -60 58q-22 28 -40 68q-20 47 -26 73q-4 16 -11 77l-2 28l2 43v6q1 41 8 76q11 55 18 75q9 27 34 71q22 35 52 62q35 31 70 43q39 15 80 15q43 0 80 -13q38 -13 69 -42q35 -31 53 -60q19 -33 30 -71q14 -41 19 -73q5 -23 7 -61l2 -12l3 -31q3 -22 2 -44q0 -20 -6 -65
zM500 356l-3 35l-2 13q-1 28 -6 54q-6 33 -17 66q-12 36 -25 60q-9 16 -42 47q-25 22 -50 31q-29 9 -61 9q-27 0 -60 -11q-27 -10 -52 -33q-29 -27 -41 -49q-18 -29 -29 -60q-7 -18 -17 -66q-4 -29 -6 -69v-5l-2 -39l2 -25q2 -36 10 -68q5 -27 23 -64q14 -35 32 -57
q19 -24 40 -40l6 -3q35 -22 82 -22h8q41 0 57 4q17 5 31 13l-4 7l-23 34l-25 37q-5 8 -5 15q0 8 3.5 14.5t10.5 9.5q5 4 16 4q16 0 23 -13q12 -21 23 -33l25 -37l5 -7q14 10 25 24q14 21 28 58q10 28 14 64l2 11q6 32 6 56v14z" />
    <glyph glyph-name="R" unicode="R" horiz-adv-x="513" 
d="M449 8q-7 -8 -19 -8q-13 0 -21 9l-34 34l-33 35q-25 27 -34 39q-20 24 -31 35q-21 23 -33 33l-14 14q-3 4 -20 21l-34 34l-35 36l-33 37v-57q0 -31 1 -47l2 -44l3 -49q0 -41 -1 -49v-45q0 -12 -8 -20.5t-20 -8.5h-1q-11 0 -19.5 8t-9.5 19q0 41 1 49t1 45l-3 45l-3 49v94
l-1 48l-1 46l-1 48q0 6 -0.5 16.5t-0.5 29.5l-1 47q-1 4 -1 24l-3 69v15q-18 5 -22 20l-1 8q0 9 6 16.5t15 10.5l18 5l6 2q18 5 34.5 7t39.5 4q26 3 51 3q27 0 49 -3q62 -6 101 -27q50 -25 76 -83q20 -42 20 -89q0 -74 -41 -123q-36 -42 -96 -58q-39 -12 -95 -12h-10
q-18 0 -22 1l12 -12q7 -8 33 -34l34 -35l20 -20l14 -14l19 -19l16 -16q23 -26 33 -38q13 -17 31 -35l33 -35l34 -35q8 -8 8 -19q0 -12 -9 -21zM101 600q0 -15 2 -47l1 -47l1 -48l1 -47v-2q3 0 6 -3q45 -9 92 -9q45 0 78 9q43 12 68 41q27 32 27 86q0 34 -14 67
q-19 39 -51 54q-29 17 -80 22q-18 2 -44 2q-25 0 -45 -2q-17 -1 -45 -6l2 -23z" />
    <glyph glyph-name="S" unicode="S" horiz-adv-x="480" 
d="M227 0q-17 0 -22 1q-41 3 -91 23q-55 24 -80 60q-27 42 -27 99q1 11 9.5 19t20.5 8q11 0 19 -8t8 -19q0 -40 18 -67q14 -23 54 -39q25 -10 46.5 -15t45.5 -5q37 0 62 11q38 14 57 46q18 26 18 58q0 45 -29 89q-20 32 -56 63q-28 25 -73 49q-54 30 -82 58q-47 46 -60 90
q-5 16 -5 43q0 39 16 71q23 47 77 77q49 28 104 28q60 0 103 -36q20 -18 33 -43.5t16 -54.5q2 -12 -7 -21.5t-22 -9.5q-11 0 -19 7.5t-9 17.5q-4 38 -30 61q-27 22 -65 22t-76 -21q-39 -21 -54 -53q-11 -24 -11 -45q0 -14 4 -26q9 -31 45 -65q23 -23 69 -50q48 -26 83 -55
q44 -37 67 -77q38 -58 38 -117q0 -50 -26 -91q-32 -48 -86 -69q-40 -14 -83 -14z" />
    <glyph glyph-name="T" unicode="T" horiz-adv-x="462" 
d="M410 665.5q-8 -8.5 -19 -8.5h-1l-136 3q-4 1 -21 1q0 -17 1 -22l1 -47v-47q1 -7 1 -47l1 -46v-25l1 -22q0 -21 -0.5 -32t-0.5 -17v-45q0 -30 1 -46l2 -49l-1 -48q-1 -7 -1 -46v-46q1 -7 1 -47q0 -12 -8 -20.5t-21 -8.5q-11 0 -19.5 8.5t-8.5 20.5q0 39 -1 46v47
q0 40 1 48l1 46l-2 46q-2 30 -2 48q0 40 1 48l1 46l-2 46v94q-1 7 -1 47l-1 47q-1 4 -1 24h-103l-46 1q-12 0 -20.5 8.5t-7.5 20.5q0 11 8.5 19.5t20.5 8.5l45 -1h45q16 -1 29 -0.5t16 0.5h47l45 -2l136 -3q12 0 20 -8.5t8 -20.5q-1 -11 -9 -19.5z" />
    <glyph glyph-name="U" unicode="U" horiz-adv-x="583" 
d="M269 -24q-64 0 -107 26q-48 28 -77 80q-23 41 -37 99q-8 40 -13 101l-2 41l2 30l3 30l4 67l1 33q3 36 3 50l2 50l2 34l1 16l2 51q1 11 9 18.5t20 7.5t20.5 -8.5t7.5 -21.5l-2 -49l-3 -51l-2 -50l-3 -50l-1 -32l-4 -70l-3 -30l-1 -27l1 -36q3 -49 12 -91q10 -48 31 -83
q22 -40 55 -60q30 -18 79 -18q41 0 71 22q35 28 53 63q22 48 30 83q10 33 17 89q5 40 5 66v25q0 35 1 52q0 6 0.5 17t0.5 31l1 51q0 6 0.5 17.5t0.5 32.5q0 40 -1 48q-2 34 -1 51q0 12 8.5 20.5t20.5 8.5q11 0 19.5 -8.5t8.5 -20.5q-1 -15 1 -49q0 -6 0.5 -17.5t0.5 -33.5
l-1 -51q0 -6 -0.5 -17.5t-0.5 -32.5l-1 -49q-1 -17 -1 -50v-25q0 -29 -5 -73q-9 -59 -18 -97q-17 -59 -35 -95q-27 -50 -70 -81q-46 -34 -105 -34z" />
    <glyph glyph-name="V" unicode="V" horiz-adv-x="537" 
d="M485 669l-16 -47l-15 -49l-17 -48l-16 -48l-17 -48l-17 -46l-15 -48q-6 -22 -15 -49l-32 -96l-17 -48l-16 -47l-15 -48l-17 -48l-5 -9q-9 -9 -14 -10h-9q-9 0 -16.5 5.5t-9.5 14.5l-14 49l-13 47l-14 48l-15 48l-14 48l-14 47l-13 48q-15 51 -14 48l-14 48l-13 48l-16 45
q-11 29 -16 49l-14 49q0 1 -1.5 6t-3.5 9l-9 33q-1 3 -1 8q0 11 8.5 19.5t19.5 8.5q10 0 18 -5.5t10 -15.5q8 -24 14 -48l14 -47q6 -24 15 -46q15 -45 16 -49l28 -96l14 -47q4 -17 14 -49l14 -48l13 -47l14 -48l14 -47l2 -7l2 7l18 49l32 94l16 48q3 9 14 47q9 29 16 49
l17 49l17 46l16 48l6 19q2 5 10 29l15 48l6 17l10 31q3 9 10.5 14t16.5 5q12 0 20.5 -8.5t8.5 -19.5z" />
    <glyph glyph-name="W" unicode="W" horiz-adv-x="697" 
d="M619 628l1 -16l-2 -34l-2 -47l-3 -47q0 -17 -4 -49q0 -6 -1.5 -17t-2.5 -29q-1 -15 -1 -46q0 -15 -2 -49l-4 -94l-3 -49l-4 -47l-1 -46l-3 -39q1 -2 1 -8q0 -7 -4 -14t-11 -11l-3 -1q-6 -2 -11 -2h-2q-10 1 -17.5 7.5t-8.5 16.5l-19 38l-21 45q-5 10 -23 43l-23 46
l-22 45l-13 28l-8 17l-22 46q-6 15 -11.5 26l-9.5 19l-10 18l-10 21l-19 -38l-21 -44q-2 -3 -8.5 -17.5t-13.5 -27.5l-23 -44l-44 -86l-22 -46l-23 -44l-19 -36q-2 -9 -8.5 -15.5t-16.5 -7.5h-7l-8 3l-2 1q-8 4 -12.5 12t-3.5 17q-1 30 -3 40q-3 15 -5 48l-4 49q0 13 -3 46
l-6 45q0 1 -5 29q0 6 -2 20l-4 49l-4 47l-2 23l-3 24l-4 47l-4 49l-4 46l-6 47q-4 24 -5 48q-2 12 6.5 21.5t21.5 9.5q10 0 18.5 -7.5t10.5 -18.5q2 -31 5 -46q5 -37 5 -48l3 -21l2 -27l4 -47l4 -48l5 -47l4 -48l4 -47q3 -28 6 -45l7 -49q3 -34 3 -49l3 -46v-1l2 3
q8 15 20 44q2 4 8 16.5t14 27.5l23 44l22 45q16 29 22 43l22 45l21 43l22 45q8 15 26 15q5 0 13 -2q11 -6 14 -17q6 -14 22 -40l45 -92l21 -45l22 -45l21 -45q10 -22 23 -43l7 -15q6 -10 10 -18l2 28l3 46l4 96q2 30 2 45q0 33 1 49q2 32 4 49l4 46l3 47l3 48q1 7 1 26
q0 15 -1 19q0 42 1 50q1 11 9 19t19 8q12 0 20.5 -8.5t8.5 -20.5z" />
    <glyph glyph-name="X" unicode="X" horiz-adv-x="551" 
d="M289 375l7 -13l23 -42l24 -43q2 -4 7 -14.5t15 -30.5l22 -41l22 -43l24 -42l24 -41q11 -19 24 -43q4 -5 4 -14q0 -16 -14 -25q-4 -3 -14 -3q-17 0 -25 14q-12 24 -24 41l-11 19l-14 24l-23 43l-24 42q-13 25 -22 45l-21 42l-24 42l-15 27l-6 -9l-20 -33l-54 -92l-29 -46
l-28 -44l-53 -92q-9 -14 -25 -14q-3 0 -15 4q-13 10 -13 25q0 7 4 15l27 45l27 47l56 90l27 45l27 46l20 33q22 36 23 38l-24 42l-23 43l-22 42l-24 41q-12 19 -25 43l-23 43l-24 42q-3 6 -3 14q0 16 15 25q4 3 13 3q17 0 26 -14l23 -43l23 -42q12 -24 24 -41q4 -6 25 -43
l23 -43l22 -43l9 -15l29 45l27 38l26 37l15 21l12 17l26 37l26 39q10 17 27 38q6 12 22 12q11 0 17 -5q12 -7 12 -23q0 -9 -5 -17q-11 -15 -25 -38l-26 -38l-27 -38l-26 -37q-18 -26 -28 -39l-26 -37l-33 -49z" />
    <glyph glyph-name="Y" unicode="Y" horiz-adv-x="512" 
d="M455 671q-5 -8 -23 -47q-6 -18 -23 -51l-25 -48l-13 -24l-11 -23l-26 -49q-15 -25 -26 -46q-16 -32 -23 -49l-21 -40q0 -33 1 -40l1 -48q0 -16 -2 -48q-1 -15 -1 -45v-92q0 -11 -8.5 -19.5t-20.5 -8.5q-11 0 -19.5 8.5t-8.5 19.5v92q0 33 1 49q2 30 2 44l-1 45
q-1 7 -1 40l-14 30l-7 15q-17 37 -23 48l-23 49l-25 49l-24 48q-2 4 -8 15t-17 34q-2 4 -8 17.5t-16 30.5q-15 28 -24 49q-3 6 -3 13q0 19 16 26q6 3 13 3t14 -4.5t11 -12.5l24 -48l24 -49l9 -18l16 -30l48 -98l25 -49l21 -44l11 23l11 21l26 49q14 23 24 45q21 40 26 48
l24 49l10 20q12 25 12 27l24 50q3 7 10 11.5t15 4.5q7 0 13 -3q7 -3 11.5 -10.5t4.5 -15.5q0 -7 -3 -13z" />
    <glyph glyph-name="Z" unicode="Z" horiz-adv-x="542" 
d="M98 57q2 -1 8 -1l48 -1h100l51 -2q12 -2 47 -2q17 -1 50 -1l49 -1q12 0 20.5 -8.5t8.5 -20.5t-8.5 -20t-20.5 -8h-1l-49 1h-49q-14 0 -52 3l-47 2h-123q-21 0 -26 1l-48 2l-9 -2q-3 0 -15 4q-13 10 -13 25q0 8 4 15l24 41l78 126q17 29 28 41l26 39q21 33 24 42l25 42
l26 41q10 19 25 43l54 81l26 42l25 41l24 39h-10q-33 0 -48 -1q-21 0 -32.5 0.5t-17.5 0.5q-16 1 -47 1h-47q-9 -1 -49 -1l-47 -1q-32 -2 -49 -2h-1q-11 0 -19.5 8.5t-8.5 20.5q0 11 8.5 19.5t19.5 8.5l48 1q32 2 49 2q40 0 48 1h48q33 0 50 -1q6 0 16.5 -0.5t29.5 -0.5
q16 1 48 1q6 0 17 0.5t31 0.5q6 0 7 -1q2 1 7 1q4 0 16 -4q13 -9 13 -25q0 -3 -4 -15l-26 -41l-25 -42l-26 -41l-25 -42l-28 -42l-26 -40l-25 -40l-26 -43q-13 -21 -24 -41l-26 -43q-20 -31 -28 -41l-26 -40l-26 -41q-19 -29 -25 -42z" />
    <glyph glyph-name="bracketleft" unicode="[" horiz-adv-x="225" 
d="M112 10q-16 0 -21 -1l-20 -1h-2q-7 0 -13 3q-10 2 -16.5 10t-6.5 18v144q1 7 1 47v74q0 30 2 70l1 46q1 14 -1 47q-2 30 -1 49v48l1 47v48q1 7 1 47q0 16 14 25q9 6 18 6l41 1l43 2q12 0 20.5 -8t8.5 -21q1 -11 -7.5 -19.5t-20.5 -8.5l-41 -2q-4 -1 -19 -1q0 -18 -1 -23
v-47l-1 -47v-47q-1 -15 1 -47q1 -6 1 -30q0 -29 -2 -69q-1 -9 -1 -66v-238q5 1 20 1q13 0 41 2q13 0 21.5 -8.5t8.5 -20.5t-8 -20t-19 -9z" />
    <glyph glyph-name="backslash" unicode="\" horiz-adv-x="350" 
d="M262 15q-9 0 -16.5 5t-10.5 14q-9 27 -15 49l-9 29l-5 18l-16 47q-8 29 -15 47q-7 21 -17 45l-18 49q-7 22 -10 32.5t-5 15.5l-15 47l-15 48l-15 47l-16 46l-17 48l-15 47l-16 48l-1 9q0 11 8.5 19.5t20.5 8.5q9 0 16.5 -5t10.5 -14l15 -48l16 -47l15 -47l18 -47l14 -48
l16 -47q7 -22 10 -32.5t5 -15.5l15 -47l16 -46q12 -27 18 -48l9 -29l7 -19l14 -46l16 -49l15 -47l1 -9q0 -9 -5.5 -16.5t-13.5 -10.5q-4 -1 -10 -1z" />
    <glyph glyph-name="bracketright" unicode="]" horiz-adv-x="259" 
d="M181 277v-47l-1 -48l-1 -47v-95q0 -18 -16 -25q-7 -6 -15 -6h-44l-41 -1h-1q-11 0 -19.5 8t-9.5 20q0 12 8.5 20.5t19.5 8.5l43 1h18v69l1 49q0 6 0.5 16.5t0.5 29.5v48q1 7 1 47q0 16 -2 46q-1 16 -1 50v23q0 20 1 25l1 47q0 39 -1 47v48q0 39 -1 46v24q-3 0 -15 -2
l-43 -3h-2q-11 0 -20 8.5t-9 20.5q0 11 8.5 19t18.5 9q16 1 26 2.5t16 1.5q5 0 18 1.5t27 1.5q15 0 25 -15q7 -10 7 -19v-47q0 -6 0.5 -17t0.5 -31v-47q1 -8 1 -48q0 -21 -0.5 -32t-0.5 -17l-1 -46q0 -30 1 -47q2 -32 2 -49q0 -40 -1 -48z" />
    <glyph glyph-name="asciicircum" unicode="^" horiz-adv-x="353" 
d="M263 293q-7 -6 -16 -6q-15 0 -23 12l-44 60l-21 30l-2 3l-25 -31l-24 -30l-24 -30q-9 -11 -22 -11q-11 0 -18 7q-11 9 -11 23q0 11 6 17l14 17l11 13l23 29q11 14 30 36l22 24q8 10 22 10q6 0 12 -3q10 -4 15 -16l18 -24l21 -31l21 -29l22 -30q6 -9 6 -17q0 -14 -13 -23z
" />
    <glyph glyph-name="underscore" unicode="_" horiz-adv-x="291" 
d="M-29.5 -51.5q-8.5 8.5 -8.5 19.5q0 13 8 21.5t20 8.5h89h45h44q31 0 42 2q30 2 47 2q11 0 20 -8.5t9 -19.5q0 -12 -8.5 -20.5t-20.5 -8.5q-14 0 -42 -2q-33 -3 -47 -3h-45q-7 1 -44 1t-44 -1h-45q-11 0 -19.5 8.5z" />
    <glyph glyph-name="grave" unicode="`" horiz-adv-x="302" 
d="M37 872q8 14 25 14q6 0 14 -4q26 -15 34 -21l66 -38l34 -20q7 -3 10.5 -9.5t3.5 -14.5q0 -9 -4 -14q-3 -7 -9.5 -11t-14.5 -4q-3 0 -15 4q-12 8 -20.5 12t-12.5 7l-68 40l-33 20q-14 8 -14 25q0 9 4 14z" />
    <glyph glyph-name="braceleft" unicode="{" horiz-adv-x="381" 
d="M289.5 53.5q5.5 -7.5 5.5 -16.5q0 -12 -8 -20.5t-20 -8.5q-3 0 -9 2q-61 19 -100 88q-21 39 -37 116q-14 68 -17 117q-1 3 -11 10q-28 14 -42 20q-8 3 -13 10.5t-5 15.5t3 12q3 10 15 15q23 10 38.5 19.5t18.5 15.5q0 67 9 113q15 67 47 111q36 54 102 74l9 2
q11 0 19.5 -8.5t8.5 -20.5q0 -9 -5.5 -16.5t-14.5 -10.5q-45 -13 -73 -53q-24 -33 -37 -90q-8 -35 -8 -104q0 -29 -41 -58l6 -3q15 -12 22.5 -23t8.5 -28q2 -42 15 -109q16 -67 33 -100q24 -48 67 -61q8 -3 13.5 -10.5zM78 363l-3 -1z" />
    <glyph glyph-name="bar" unicode="|" horiz-adv-x="170" 
d="M84.5 0q-8.5 -8 -20.5 -8t-20 8t-8 20q0 16 -2 50l-1 52v52l1 51q0 43 -1 51v52q0 42 1 51l1 51l-1 51v52q0 22 0.5 33.5t0.5 17.5l1 51v102q0 12 8 20.5t20 8.5t20.5 -8.5t8.5 -20.5v-102q0 -22 -0.5 -34t-0.5 -18l-1 -50v-52q0 -6 0.5 -17.5t0.5 -33.5l-1 -52v-153v-51
v-101q2 -36 2 -53q0 -12 -8.5 -20z" />
    <glyph glyph-name="braceright" unicode="}" horiz-adv-x="343" 
d="M275 373q-3 -5 -12 -8q-20 -9 -34.5 -18t-17.5 -14q-1 -36 -8 -89l-2 -16q-6 -47 -15 -76q-16 -46 -48 -86q-33 -41 -86 -56l-9 -2q-11 0 -19.5 8.5t-8.5 20.5q0 9 5.5 16.5t14.5 10.5q38 14 59 39q23 28 37 68q8 21 13 65l3 16q7 56 7 83q0 30 39 57l-6 4q-15 12 -23 23
t-9 29q-3 54 -12 101q-14 52 -36 90q-29 45 -65 57q-9 3 -14 10.5t-5 16.5q0 13 8.5 21t19.5 8l9 -2q56 -18 95 -81q29 -45 43 -108q11 -46 13 -111q6 -5 13 -10q6 -4 21.5 -11t21.5 -10q13 -6 15 -20h1l1 -7q0 -11 -9 -19z" />
    <glyph glyph-name="asciitilde" unicode="~" horiz-adv-x="447" 
d="M267 303h-12q-21 0 -37 12.5t-37 40.5q-13 15 -22 24t-15 9q-31 -2 -35 -6q-9 -9 -21 -36l-1 -1q-6 -16 -25 -16q-8 0 -12 2q-17 9 -17 26q0 6 3 12l1 1q10 22 18 34.5t18 21.5q26 19 71 19q23 0 40.5 -12.5t41.5 -42.5q21 -29 31 -31h9q18 0 25 5q10 6 22 40l2 3
q3 7 10.5 12t15.5 5q4 0 12 -2q8 -4 12.5 -11.5t4.5 -15.5q0 -6 -3 -12l-2 -3q-12 -27 -19 -39t-18 -21q-21 -18 -61 -18z" />
    <glyph glyph-name="quotesinglbase" unicode="&#x201a;" horiz-adv-x="218" 
d="M40 -58q-7 0 -18 7q-11 8 -11 22q0 7 7 18q4 4 26 34q18 26 26 32q10 8 20 8q12 0 21 -10q7 -7 7 -19t-9 -21l-19 -24l-27 -35q-9 -12 -23 -12z" />
    <glyph glyph-name="quotedblbase" unicode="&#x201e;" horiz-adv-x="218" 
d="M131 13l-19 -24l-27 -35q-9 -12 -23 -12q-8 0 -18 7q-11 8 -11 22q0 7 7 18q4 4 26 34q18 26 26 32q10 8 20 8q12 0 21 -10q7 -8 7 -19q0 -12 -9 -21z" />
    <glyph glyph-name="ellipsis" unicode="&#x2026;" horiz-adv-x="451" 
d="M94 29q0 -13 -10 -22q-7 -7 -19 -7q-9 0 -18 6l-4 4q-10 8 -10 21q0 9 4 14q2 7 10 13q12 4 16 4q7 0 13.5 -4t10.5 -9l4 -7q3 -6 3 -13zM234 29q0 -15 -10 -22q-7 -7 -19 -7q-9 0 -17 6l-5 4q-9 8 -9 21q0 8 3 14q3 8 11 13q10 4 14 4q16 0 25 -13l4 -7q3 -6 3 -13z
M364 7q-7 -7 -19 -7q-9 0 -18 6l-4 4q-10 8 -10 21q0 9 4 14q4 9 10 13q12 4 16 4q13 0 24 -13l4 -7q3 -6 3 -13q0 -12 -10 -22z" />
    <glyph glyph-name="dagger" unicode="&#x2020;" horiz-adv-x="436" 
d="M287 511q-22 -2 -46 -2h-17v-414q1 -7 1 -48q0 -12 -8 -20t-20 -8t-20.5 8.5t-8.5 19.5q0 39 -1 46q-1 8 -1 48v237q1 8 1 46v86h-15l-89 -2h-1q-11 0 -20 8.5t-9 20.5q0 11 9 19.5t20 8.5l44 1q30 0 45 1h17v140q0 12 8.5 20t20.5 8t20 -8t8 -21v-140h15q12 0 42 2
q24 2 47 2q12 0 20 -8t8 -20q1 -12 -7.5 -20.5t-19.5 -8.5q-15 0 -43 -2z" />
    <glyph glyph-name="daggerdbl" unicode="&#x2021;" horiz-adv-x="435" 
d="M349 267.5q-8 -8.5 -20 -8.5l-42 -2q-34 -3 -47 -3h-16v-115q-1 -15 -0.5 -26t0.5 -19l1 -48q0 -12 -8 -20.5t-20 -8.5t-20.5 8.5t-8.5 20.5l-1 45q-1 17 -1 48v116h-59q-7 -1 -45 -1q-11 0 -20 9t-9 20q0 12 8.5 20.5t20.5 8.5h104v64q1 8 1 47v46l-1 39h-15l-44 -1h-45
q-11 0 -20 8.5t-9 19.5q0 12 8.5 20.5t20.5 8.5h44l45 1h16q1 8 1 46v95q0 11 8.5 19t20.5 8q11 0 19.5 -8t8.5 -20v-94q0 -39 -1 -47h16q15 0 41 2q20 3 48 3q11 0 19.5 -8.5t8.5 -20.5t-8 -20.5t-20 -8.5q-28 0 -42 -1q-16 -3 -47 -3h-16v-133q0 -6 -0.5 -16.5t-0.5 -29.5
v-16h17q15 0 26.5 1t14.5 1l48 2q11 0 19.5 -8.5t8.5 -19.5q0 -12 -8 -20.5z" />
    <glyph glyph-name="circumflex" unicode="&#x2c6;" horiz-adv-x="411" 
d="M33 732q0 11 9 20l31 30l13 12l18 18q16 18 40 37l25 23q8 8 19 8q6 0 10 -2q10 -2 17 -13l24 -25q6 -8 29 -29l28 -30l29 -29q9 -9 9 -20q0 -10 -9 -21q-11 -8 -20 -8q-12 0 -20 9l-30 29l-28 30q-23 21 -29 29l-11 12l-6 -6q-18 -15 -37 -34l-31 -31l-31 -30
q-8 -8 -20 -8t-20 8q-9 9 -9 21z" />
    <glyph glyph-name="perthousand" unicode="&#x2030;" horiz-adv-x="586" 
d="M90 -13.5q-7 -5.5 -17 -5.5l-9 2q-8 3 -13.5 10.5t-5.5 16.5l2 9l14 47l16 48q9 29 18 48l16 46l15 46q2 5 5 16t10 33l16 47q1 6 8 25l7 22l16 48q8 21 16 47l32 94l14 47l15 49q3 8 10.5 13.5t16.5 5.5q13 0 21 -8t8 -20q0 -4 -2 -10l-14 -46l-15 -48l-16 -48l-15 -47
l-17 -48l-16 -47l-15 -46l-15 -48l-16 -48q-1 -6 -8 -25l-7 -22l-18 -49q-9 -22 -16 -45l-8 -23q-5 -13 -7 -24l-16 -48q-3 -9 -10 -14.5zM40 498q-25 22 -25 55q0 28 17 46q22 24 54 24q25 0 46 -15q12 -10 19 -24.5t7 -30.5q0 -28 -17 -46q-20 -26 -49 -27h-6
q-27 0 -46 18zM86 566h-1q-5 0 -10 -5q-3 -3 -3 -8v-2q0 -8 6 -10q3 -4 9 -4q7 2 10 5q4 4 4 12q0 5 -5 9q-3 3 -10 3zM280 62q-20 0 -37 10q-15 9 -24 25t-9 35t11 38q9 16 25 25t35 9q21 0 39 -12q24 -14 32 -44l1 -16q0 -21 -12 -38q-16 -24 -45 -30zM454 62
q-22 0 -36 10q-16 9 -25.5 25t-9.5 34q0 30 21 51.5t51 21.5q20 0 39 -12q34 -20 34 -59q0 -22 -13 -39q-16 -24 -45 -30zM281 147q-2 0 -3 -1q-8 -2 -9 -7q-2 -2 -2 -8v-2q1 -10 13 -10l4 1q12 4 12 13v2q-1 6 -6 9q-4 3 -9 3zM455 147q-2 0 -3 -1q-7 -2 -9 -7q-3 -4 -3 -7
l1 -3q3 -10 13 -10l4 1q13 3 13 12l-1 3q-2 6 -7 9q-3 3 -8 3z" />
    <glyph glyph-name="guilsinglleft" unicode="&#x2039;" horiz-adv-x="291" 
d="M210 244q0 -13 -9 -21q-8 -8 -19 -8q-13 0 -21 10l-30 34l-51 56q-16 17 -39 45q-8 8 -8 19q0 2 2 10q4 8 9 13l7 5l53 53l31 30l30 30q8 8 20 8t20 -8q9 -11 9 -21q0 -9 -9 -20l-31 -30l-30 -29q-25 -25 -29 -30l-14 -14l21 -23l22 -23l18 -20q8 -8 12 -14l29 -33
q7 -7 7 -19z" />
    <glyph glyph-name="OE" unicode="&#x152;" horiz-adv-x="861" 
d="M821.5 23.5q-8.5 -8.5 -19.5 -8.5h-87l-41 -1q-4 -1 -23 -1l-21 -1q-35 0 -43 -1h-86q-7 -1 -43 -1q-13 0 -22 10q-15 8 -15 23q-17 -12 -36 -20q-46 -19 -94 -19h-4q-43 1 -79 15q-34 13 -67 45q-26 25 -47 62q-16 30 -30 69q-8 23 -18 71q-5 22 -10 73l-3 29
q-3 15 -3 32q0 32 8 85l1 2q10 51 20 76q14 37 38 71q26 31 60 54q38 24 75 33q50 14 79 14q29 -1 73 -17q23 -10 34 -17v2q0 10 5.5 17.5t14.5 10.5q12 4 16 4l27 -1q24 0 30 -1l54 -2h75q6 -1 38 -1l27 -1q8 -1 30 -1l55 -2q12 0 20 -8.5t8 -20.5q-1 -11 -9 -19.5
t-19 -8.5h-1l-57 2q-22 0 -30 1l-25 1q-32 0 -38 1h-75l-57 2q-6 1 -32 1q0 -16 1 -20v-95q0 -3 -0.5 -17t0.5 -29v-46q2 -32 2 -48v-4q54 2 94 2q46 0 55 -1h54q12 0 20.5 -8.5t8.5 -19.5q0 -12 -8.5 -20.5t-20.5 -8.5h-55q-9 1 -54 1l-61 -1q-9 -1 -33 -1v-34
q0 -41 -1 -48q0 -3 -0.5 -15t0.5 -31q0 -15 2 -45q1 -17 1 -49q0 -33 -1 -49q-1 -4 -1 -23q18 0 22 1h43l43 1h43l86 4q36 0 44 -1h42q12 0 20.5 -8t8.5 -21q0 -11 -8.5 -19.5zM422 123.5q1 0.5 1 1.5v14q0 29 -1 45q-2 40 -2 70v27q1 8 1 46v73q0 27 -2 67v19q-1 7 -1 50
v27q0 3 0.5 16.5t-0.5 29.5v22q-6 3 -9 6q-20 17 -45 28q-31 11 -54 13q-22 0 -63 -12q-35 -11 -57 -25q-34 -24 -47 -42q-17 -24 -31 -57q-9 -20 -17 -64v-2q-8 -40 -8 -66v-13l2 -21l4 -33q3 -37 9 -66q11 -48 16 -64q10 -31 26 -59q16 -30 36 -50q30 -24 49 -32
q26 -11 59 -11q43 0 74 14q30 13 58 47q1 1 2 1.5z" />
    <glyph glyph-name="quoteleft" unicode="&#x2018;" horiz-adv-x="221" 
d="M62 628q-6 0 -17 7q-12 9 -12 22q0 8 7 18q45 53 56 63q7 7 19 7t21 -9q8 -10 8 -20q0 -11 -10 -21q-13 -11 -49 -56q-8 -11 -23 -11z" />
    <glyph glyph-name="quoteright" unicode="&#x2019;" horiz-adv-x="218" 
d="M112 626q-14 0 -23 11q-13 15 -27 35q-4 5 -9.5 13t-9.5 12q-10 8 -10 21q0 9 8 19q9 9 22 9q11 0 18 -7q8 -7 17 -18.5t11 -14.5q4 -7 25 -34q6 -9 6 -18q0 -13 -10 -22q-9 -6 -18 -6z" />
    <glyph glyph-name="quotedblleft" unicode="&#x201c;" horiz-adv-x="304" 
d="M148 625q-11 0 -17 6q-11 7 -11 22q0 11 6 18l27 34q18 26 26 32q8 8 19 8q12 0 21 -9q8 -10 8 -19q0 -13 -10 -22q-4 -4 -9.5 -11t-9.5 -13l-27 -36q-7 -10 -23 -10zM61 626q-6 0 -17 7q-11 9 -11 23q0 11 6 17q34 40 57 62q8 7 20 7t21 -9q7 -7 7 -19q0 -13 -9 -21
q-23 -20 -51 -56q-9 -11 -23 -11z" />
    <glyph glyph-name="quotedblright" unicode="&#x201d;" horiz-adv-x="303" 
d="M197 626q-13 0 -22 11l-27 35l-19 25q-9 8 -9 21q0 11 7 19q9 9 21 9t19 -7q16 -16 28 -33q7 -10 13.5 -18.5t11.5 -14.5q6 -6 6 -17q0 -14 -11 -24q-6 -6 -18 -6zM116 628q-14 0 -22 11q-25 33 -52 55q-9 11 -9 21q0 9 8 19q7 10 21 10q9 0 19 -7q25 -24 57 -62
q6 -7 6 -18q0 -15 -10 -22t-18 -7z" />
    <glyph glyph-name="bullet" unicode="&#x2022;" horiz-adv-x="278" 
d="M118 290h-8q-13 2 -24 7q-6 2 -16 9q-2 1 -4.5 3.5t-4.5 2.5q-28 28 -28 62q0 15 9 37q10 21 31 34q19 13 44 13q20 0 38.5 -10t29.5 -28q7 -11 8 -13q3 -6 6 -20q2 -12 2 -15q0 -39 -29 -63q-22 -19 -54 -19z" />
    <glyph glyph-name="endash" unicode="&#x2013;" horiz-adv-x="435" 
d="M90.5 346.5q-10.5 -0.5 -28.5 -0.5q-11 0 -20 8.5t-9 19.5q0 12 8.5 20.5t20.5 8.5l44 1h45q15 1 28.5 0.5t16.5 -0.5t15.5 -0.5t28.5 0.5l41 1q34 3 48 3q11 0 19.5 -8.5t8.5 -20.5q0 -11 -8 -19.5t-20 -8.5q-25 0 -42 -3q-15 -1 -47 -1q-17 -1 -29.5 -0.5t-15.5 0.5
h-88q-6 0 -16.5 -0.5z" />
    <glyph glyph-name="emdash" unicode="&#x2014;" horiz-adv-x="594" 
d="M220 348q-9 1 -51 1h-107q-11 0 -20 8.5t-9 20.5q0 11 9 19.5t20 8.5h107l55 -1l51 -1l52 1q9 1 55 1l53 1h53q12 0 20 -8.5t8 -20.5q0 -11 -8 -19.5t-20 -8.5h-70q-6 -1 -36 -1q-43 0 -52 -1q-18 -1 -55 -1q-38 0 -55 1z" />
    <glyph glyph-name="tilde" unicode="&#x2dc;" horiz-adv-x="447" 
d="M36 811l1 1q12 24 19 35t17 20q13 10 30 14.5t41 4.5t41.5 -13.5t40.5 -42.5q22 -30 31 -30h10q20 0 25 5q5 3 11.5 18t9.5 21l3 4q4 8 11 12.5t15 4.5q12 0 20 -8.5t8 -20.5q0 -6 -3 -11l-2 -4q-10 -24 -18 -37t-19 -23q-21 -18 -61 -18h-12q-21 1 -36.5 13t-37.5 39
q-15 19 -22.5 26.5t-14.5 7.5q-29 -2 -35 -6q-5 -2 -13 -19l-8 -18l-1 -1q-9 -16 -25 -16q-6 0 -12 3q-17 8 -17 27q0 6 3 12z" />
    <glyph glyph-name="trademark" unicode="&#x2122;" horiz-adv-x="604" 
d="M522.5 511.5q-4.5 -4.5 -11.5 -4.5t-12 4t-5 11v84q-1 7 -1 20v42l-1 21v21l-1 21v25l-18 -30l-11 -20l-12 -21l-13 -20l-11 -20l-12 -20l-10 -17q-2 -5 -7 -8t-9 -3q-3 0 -9 3q-5 3 -7 9q-5 11 -10 16q-2 7 -12 20l-12 21l-13 20l-11 20l-13 20l-11 20q-1 2 -7 11v-67
q0 -16 1 -20v-64q0 -18 -1 -21v-21q0 -16 1 -20v-21q0 -7 -4.5 -11.5t-11.5 -4.5t-12 4.5t-5 11.5v19q-1 4 -1 22v22q1 4 1 20v62q-1 4 -1 22v83l1 22v21q0 6 4.5 10.5t10.5 5.5h2q7 0 12 -6l2 -4l12 -19l11 -20l12 -20l13 -20l12 -20l12 -21l12 -19l12 -21l9 -17l10 17
l13 20l12 19q4 8 7 13t4 8l36 60l11 21l13 20q3 8 14 8l8 -2q9 -8 8 -16v-41l1 -20v-63l1 -20v-42l1 -21v-42q0 -17 1 -20v-21q0 -7 -4.5 -11.5zM222 800.5q-5 -4.5 -12 -4.5l-20 1l-20 1h-26l1 -6v-42q1 -3 1 -20v-20q1 -4 1 -22v-22q-1 -3 -1 -19l2 -42q0 -18 -1 -22v-63
q0 -5 -4.5 -9.5t-11.5 -4.5t-11.5 4.5t-5.5 11.5v63q1 3 1 20l-1 20l-1 21q0 18 1 22v20q0 17 -1 20v91h-3q-1 0 -7 -0.5t-13 0.5h-40q-7 0 -12 5t-5 12t5 11t12 4h41q7 -1 12.5 -0.5t6.5 0.5h21q6 -1 20 -1h40l19 -1q7 0 12 -5t5 -12t-5 -11.5z" />
    <glyph glyph-name="guilsinglright" unicode="&#x203a;" horiz-adv-x="289" 
d="M206 358l-4 -6q-25 -25 -31 -30l-59 -59l-30 -31q-8 -8 -20 -8t-20 8q-9 9 -9 20q0 13 9 20l29 31l30 30q11 10 18.5 17.5l12.5 12.5l12 12l-5 8q-11 14 -35 41l-31 33l-30 33q-7 8 -7 19q0 12 9 21q10 8 19 8q11 0 22 -9l30 -33l30 -34q9 -9 37 -43l22 -27q6 -7 6 -18
q0 -10 -5 -16z" />
    <glyph glyph-name="Ydieresis" unicode="&#x178;" horiz-adv-x="512" 
d="M146 819q5 9 11 13q8 4 15 4q16 0 25 -13q3 -6 4 -7q2 -4 2 -13q0 -13 -9 -22q-10 -7 -19 -7q-8 0 -18 7l-4 3q-10 9 -10 21q0 8 3 14zM287 819q1 7 10 13q8 4 16 4q17 0 23 -13l4 -7q4 -5 4 -13q0 -13 -11 -22q-9 -7 -19 -7q-6 0 -17 7q-2 0 -5 3q-9 11 -9 21q0 9 4 14z
M455 671q-5 -8 -23 -47q-6 -18 -23 -51l-25 -48l-13 -24l-11 -23l-26 -49q-15 -25 -26 -46q-16 -32 -23 -49l-21 -40q0 -33 1 -40l1 -48q0 -16 -2 -48q-1 -15 -1 -45v-92q0 -11 -8.5 -19.5t-20.5 -8.5q-11 0 -19.5 8.5t-8.5 19.5v92q0 33 1 49q2 30 2 44l-1 45q-1 7 -1 40
l-14 30l-7 15q-17 37 -23 48l-23 49l-25 49l-24 48q-2 4 -8 15t-17 34q-2 4 -8 17.5t-16 30.5q-15 28 -24 49q-3 6 -3 13q0 19 16 26q6 3 13 3t14 -4.5t11 -12.5l24 -48l24 -49l9 -18l16 -30l48 -98l25 -49l21 -44l11 23l11 21l26 49q14 23 24 45q21 40 26 48l24 49l10 20
q12 25 12 27l24 50q3 7 10 11.5t15 4.5q7 0 13 -3q7 -3 11.5 -10.5t4.5 -15.5q0 -7 -3 -13z" />
    <glyph glyph-name="exclamdown" unicode="&#xa1;" horiz-adv-x="171" 
d="M64 639q-7 0 -13.5 4t-9.5 10l-4 5q-4 5 -4 14q0 12 10 22q8 7 19 7q7 0 19 -6l3 -3q10 -9 10 -22q0 -5 -1 -7q-3 -12 -13 -19q-7 -5 -16 -5zM82.5 48.5q-8.5 -8.5 -20.5 -8.5q-11 0 -20 8.5t-9 20.5v99q0 19 2 51q2 34 2 49q0 14 -2 48q-1 5 -1 31q0 61 1 71l1 49
q0 42 1 50v9q0 12 8.5 20.5t19.5 8.5q13 0 21 -8.5t8 -20.5v-10q-1 -9 -1 -49l-1 -51q-1 -10 -1 -67q0 -24 1 -30q2 -32 2 -51q0 -18 -2 -52q-1 -16 -1 -48v-99q0 -12 -8.5 -20.5z" />
    <glyph glyph-name="cent" unicode="&#xa2;" horiz-adv-x="408" 
d="M352 208q-20 -26 -38 -38q-21 -12 -50 -17q-20 -6 -40 -8l1 -39q2 -30 2 -47q0 -12 -8.5 -20.5t-20.5 -8.5h-1q-11 1 -19 9t-8 21q0 12 -2 44q0 6 -0.5 16.5t-0.5 29.5l-5 2q-22 6 -50 27q-20 13 -37 39q-20 27 -27 45q-7 23 -13 50q-5 25 -5 43v8q0 35 3 54q7 35 13 53
q8 23 27 49q22 32 40 44q21 14 54 23l3 1v108q0 11 8 19.5t20 8.5t20.5 -8.5t8.5 -19.5v-101q29 0 48 -6q30 -10 50 -25q10 -7 10 -22q0 -12 -5 -18q-9 -10 -23 -10q-10 0 -18 6q-15 9 -30 14q-11 4 -34 4v-70l1 -45l-1 -46q-1 -8 -1 -45v-45q1 -7 1 -46l-1 -38q9 1 27 5
q29 7 33 11q10 7 23 24q8 11 23 11q11 0 17 -6q11 -9 11 -22q0 -9 -6 -18zM168 241q0 38 -1 45v46q0 38 1 46q0 30 1 45l-1 45v60q-11 -4 -22 -11q-14 -11 -26 -29q-18 -26 -20 -36q-9 -23 -10 -43q-3 -13 -3 -45v-8q0 -15 4 -32q8 -32 11 -40q2 -8 20 -34q13 -18 24 -26
l21 -14q1 5 1 31z" />
    <glyph glyph-name="sterling" unicode="&#xa3;" horiz-adv-x="506" 
d="M419.5 11.5q-8.5 -8.5 -19.5 -8.5q-40 0 -48 -1h-49q-40 0 -48 -1l-49 -1h-6l-43 1q-9 1 -48 1q-11 0 -19.5 8.5t-8.5 19.5q0 12 8.5 20.5t19.5 8.5h5l-10 75q0 8 -3 26q-7 48 -8 80v4q-6 1 -31 1q-11 0 -20 8.5t-9 19.5q0 12 9 20.5t20 8.5q24 0 29 -1v45q0 84 3 108
q6 57 20 108q18 62 55 103q44 50 113 50q66 0 96 -27q20 -15 28.5 -35t15.5 -55q2 -14 -6.5 -23.5t-22.5 -9.5q-10 0 -18 6.5t-10 16.5q-5 26 -9.5 38t-12.5 18q-16 13 -61 13q-44 0 -71 -30q-28 -32 -41 -81q-15 -49 -19 -98q-3 -22 -3 -102v-47h57q7 1 48 1q14 0 46 2
l48 1q13 0 21.5 -8.5t8.5 -19.5q0 -12 -8.5 -20.5t-20.5 -8.5l-46 -1q-32 -2 -49 -2q-40 0 -47 -1h-56q1 -14 8 -75l4 -27l10 -83h34l144 3h50q11 0 19.5 -8t8.5 -20t-8.5 -20.5z" />
    <glyph glyph-name="currency" unicode="&#xa4;" horiz-adv-x="537" 
d="M477 122q-8 -7 -18 -7q-11 0 -20 9q-23 25 -51 53q-24 24 -33 35q-22 -17 -53 -26q-22 -6 -56 -6t-55 6q-23 7 -50 28l-3 3l-34 -36l-51 -56q-7 -9 -20 -9q-11 0 -18 7q-8 7 -8 20q0 12 6 19l52 56l36 38q-12 21 -22 47q-3 9 -9 46q0 5 -1 6v11q-3 18 -3 25q0 11 1 16
q2 30 11 54q6 21 21 43l-35 37l-50 54q-7 9 -7 18q0 14 9 21q8 7 19 7q13 0 20 -9q27 -32 49 -54l33 -36l11 7q24 16 51 22q20 5 54 5q39 0 63 -10q23 -10 44 -28l27 35q27 36 49 61q11 9 21 9q11 0 18 -7q9 -9 9 -20t-7 -18q-25 -29 -46 -56q-12 -17 -38 -47q5 -8 9 -19
q8 -16 10.5 -23.5t4.5 -23.5l1 -11q0 -6 0.5 -8.5t0.5 -3.5q3 -15 2 -41v-3q0 -29 -6 -52q-4 -23 -21 -52q-1 -3 -3 -5l23 -25l13 -13q20 -18 53 -55q6 -6 6 -18t-9 -20zM338 271q2 2 9 14q9 15 16 38q4 19 4 41v2l1 17l-2 15l-2 13l-1 12q-2 14 -10 32q-9 20 -24 37
q-16 16 -34 24q-17 6 -42 6q-24 0 -42 -3q-16 -5 -36 -17q-16 -9 -28 -25q-13 -15 -18 -33q-6 -19 -8 -39l-1 -15l2 -16l1 -12q1 -1 1 -6q2 -19 7 -35q7 -24 17 -38q0 -1 3 -4l4 -3q5 -7 5 -8q4 -2 7.5 -5.5t7.5 -5.5q16 -13 31 -19q12 -3 40 -3q29 0 41 3q21 6 35 17l10 9
q3 5 6 7z" />
    <glyph glyph-name="yen" unicode="&#xa5;" horiz-adv-x="513" 
d="M454 665l-22 -36q-7 -13 -24 -40l-25 -38l-25 -36q-13 -23 -26 -39q-20 -28 -24 -35l-24 -36l-8 -14h7q17 0 47 -2q32 -2 44 -2q13 0 21 -8t8 -20t-8.5 -20.5t-20.5 -8.5q-15 0 -47 2q-30 2 -44 2h-18q1 -8 1 -44v-27h17q29 0 44 1l47 1q13 0 21 -8t8 -20q0 -13 -8.5 -21
t-20.5 -8l-44 -1q-15 -1 -44 -1h-23v-98q0 -36 1 -44l1 -47q0 -11 -8.5 -19.5t-19.5 -8.5q-12 0 -20.5 8.5t-8.5 19.5q0 38 -1 45t-1 46v101q-2 1 -14 1l-46 -1h-46q-12 0 -20 8t-8 20t8 20.5t20 8.5h45q6 0 17 0.5t30 0.5l17 -1v24q0 35 -1 43h-108q-12 0 -20 8.5t-8 20.5
t8 20t20 8h97l-9 15l-23 38q-18 28 -24 38l-24 38l-24 37q-12 15 -25 39l-24 37q-7 8 -13 20l-11 18q-5 6 -5 15q0 16 14 25q10 4 14 4q16 0 25 -13l11 -18q6 -12 13 -20l11 -16l14 -22q16 -27 23 -37l26 -38l23 -39l24 -37l23 -38l23 36q20 30 27 39l25 35l24 37l25 37
l22 37l24 40q8 12 24 12q7 0 15 -4q13 -9 13 -25q0 -8 -4 -15z" />
    <glyph glyph-name="brokenbar" unicode="&#xa6;" horiz-adv-x="170" 
d="M82.5 422.5q-8.5 -8.5 -19.5 -8.5q-12 0 -20.5 8.5t-8.5 20.5q0 37 -1 45v46l1 47q0 6 0.5 16.5t0.5 28.5v90q0 12 8 20.5t21 8.5q11 0 19.5 -8.5t8.5 -20.5v-91l-1 -46v-136q0 -12 -8.5 -20.5zM82.5 19q-8.5 -8 -19.5 -8q-12 0 -20.5 8.5t-8.5 19.5q0 38 -1 45v47l1 45
l1 46v90q0 13 8 21t21 8q12 0 20 -8t8 -21v-91l-1 -46v-136q0 -12 -8.5 -20z" />
    <glyph glyph-name="section" unicode="&#xa7;" horiz-adv-x="479" 
d="M419 105q0 -28 -10 -51q-19 -55 -91 -84q-39 -16 -93 -16h-22q-81 6 -127 35q-34 21 -51.5 53t-17.5 71q0 12 9 20t21 8q11 -1 19 -9.5t8 -19.5q0 -49 42 -74q35 -23 101 -27q4 -1 19 -1q42 0 71 13q47 19 59 52q6 11 6 31q0 23 -11 48q-16 32 -62 69q-37 30 -83 53
q-46 22 -80 49q-49 40 -62 80q-7 23 -7 39q0 29 13 54q-13 26 -13 54q0 42 27 76q22 29 51 45q54 35 120 35q53 0 97 -29q47 -33 53 -92q2 -12 -5 -21t-19 -11q-12 -1 -21 6t-11 19q-3 32 -30 51q-29 20 -64 20q-46 0 -90 -26q-24 -15 -37.5 -34.5t-13.5 -39.5q0 -17 12 -35
l2 -5q12 -18 20 -26q31 -30 83 -54q55 -28 94 -60q54 -44 76 -87q19 -37 19 -76q0 -25 -10 -51q9 -27 9 -52zM350 258q-16 33 -61 68q-40 32 -83 53q-55 26 -92 60q1 -5 2 -8.5t1 -6.5q10 -24 45 -55q32 -24 69 -42q45 -21 94 -59q26 -24 33 -31q-1 5 -8 21z" />
    <glyph glyph-name="dieresis" unicode="&#xa8;" horiz-adv-x="312" 
d="M37 819q3 9 10 13q8 4 16 4q17 0 24 -13l4 -7q3 -6 3 -13q0 -13 -10 -22q-10 -7 -19 -7q-7 0 -18 7l-4 3q-10 10 -10 21q0 9 4 14zM177 819q3 8 11 13q8 4 15 4q18 0 24 -13l4 -7q3 -6 3 -13q0 -13 -10 -22q-9 -7 -19 -7q-8 0 -17 7q-2 0 -5 3q-9 9 -9 21q0 8 3 14z" />
    <glyph glyph-name="copyright" unicode="&#xa9;" horiz-adv-x="728" 
d="M344 61q-30 0 -76 8q-24 6 -42.5 11.5t-32.5 12.5q-31 18 -62 49q-30 30 -49 62q-17 30 -30 70q-8 30 -14 71v3q-3 19 -4 33t0 30q1 3 1 13l1 4q2 50 10 74q11 34 38 70q25 33 57 56q34 25 68 38q53 19 73 22q25 4 61 3h15q46 0 82 -9q42 -10 77 -34q38 -23 64 -54
q25 -31 42 -72q9 -22 12 -32.5t5 -26.5q1 -2 1 -8.5t2 -12.5l4 -21q3 -28 3 -42q0 -58 -8 -94q-11 -46 -25 -76q-20 -38 -48 -69q-31 -30 -68 -48q-38 -17 -78 -24q-42 -7 -79 -7zM292 632q-18 -3 -38 -10.5t-24 -8.5q-28 -12 -56 -31q-22 -15 -43 -44q-23 -29 -31 -53
q-5 -16 -7 -59l-1 -4q0 -12 -1 -14q0 -26 4 -52v-4q1 -7 2 -12t2 -9q6 -34 8 -40q9 -28 25 -59q20 -31 39 -50q25 -25 49 -38q18 -10 61 -18q35 -8 63 -8q36 0 69 6q38 8 63 20q27 12 52 37q23 23 37 52t21 64q5 27 7 68q0 35 -2 45l-5 24l-3 24q-1 11 -2.5 18t-9.5 24
q-13 29 -35 58q-17 21 -50 42q-28 19 -60 26q-30 8 -68 8h-16l-17 1q-16 0 -33 -3zM357 191q-50 0 -85 27q-32 22 -51 72q-10 27 -13 39q-2 15 -1 34v9q0 49 13 85q17 51 53 77q41 29 91 29q44 0 82 -30q11 -7 11 -22q0 -10 -6 -18q-8 -11 -22 -11q-7 0 -18 7q-23 17 -47 17
q-31 0 -57 -18q-23 -17 -33 -49q-10 -35 -10 -67v-9l-1 -13q0 -3 2 -11q2 -10 9 -28q14 -35 32 -48q21 -15 51 -15q45 0 68 32q9 10 23 10q12 0 17 -5q11 -9 11 -23q0 -11 -6 -17q-40 -54 -113 -54z" />
    <glyph glyph-name="guillemotleft" unicode="&#xab;" horiz-adv-x="413" 
d="M210 244q0 -13 -9 -21q-8 -8 -19 -8q-12 0 -21 9l-18 21q-8 8 -12 14l-30 32l-21 24q-17 17 -39 45q-8 8 -8 19q0 6 2 10q4 8 9 13q3 3 7 5l22 23l92 89q9 9 20 9q9 0 20 -8q9 -11 9 -21q0 -9 -9 -20q-11 -12 -31 -30l-30 -29l-30 -30l-13 -14l21 -23l22 -23l13 -16
l17 -18l29 -33q7 -8 7 -19zM332 244q0 -13 -9 -21q-10 -8 -20 -8t-21 9l-18 21q-8 8 -12 14l-29 32l-22 24q-16 17 -39 45q-7 7 -7 19q0 6 2 10q3 10 9 13q2 3 7 5l22 23l30 30l61 59q9 9 21 9q9 0 19 -8q9 -9 9 -21q0 -11 -9 -20q-18 -19 -31 -30l-59 -59l-13 -14l20 -23
l21 -23l30 -34q31 -34 31 -33q7 -8 7 -19z" />
    <glyph glyph-name="logicalnot" unicode="&#xac;" horiz-adv-x="438" 
d="M361 298q0 -12 -9 -20.5t-20 -8.5t-20 8.5t-9 20.5v90l-16 -1q-4 0 -18 -1t-29 -1q-39 0 -46 1h-87q-7 -1 -45 -1q-12 0 -20.5 8t-8.5 21q0 11 8.5 19.5t19.5 8.5q38 0 45 1h90q7 -1 44 -1l41 3l48 2q10 0 18 -7t10 -18q3 -6 3 -13l1 -55v-56z" />
    <glyph glyph-name="minus" unicode="&#x2212;" horiz-adv-x="435" 
d="M41.5 353q-8.5 8 -8.5 20t8.5 20.5t19.5 8.5h45q7 1 44 1q38 0 46 -1h44q15 0 41 2q24 2 48 2q11 0 19.5 -8t8.5 -20t-8.5 -20.5t-19.5 -8.5q-14 0 -42 -2q-24 -2 -47 -2h-46q-7 1 -43 1q-37 0 -44 -1h-45q-12 0 -20.5 8z" />
    <glyph glyph-name="registered" unicode="&#xae;" horiz-adv-x="720" 
d="M645 339l-1 -14v-4q0 -43 -9 -73q-6 -17 -14.5 -32t-25.5 -38q-23 -32 -56 -56q-27 -19 -68 -38q-48 -19 -74 -22q-15 -3 -43 -3h-33q-43 0 -81 9q-40 10 -77 33q-42 27 -64 55q-27 35 -43 72q-9 20 -12 30t-5 28q0 4 -2 22l-4 21q-3 17 -3 37q0 54 8 99q9 44 26 77
q18 40 47 67q28 30 68 48q32 15 77 25q38 6 79 6q43 0 76 -8q48 -10 75 -23q32 -17 63 -49t48 -62q20 -36 31 -70q6 -23 13 -71l1 -4q4 -36 4 -42q0 -15 -1 -20zM585 394v3q-5 40 -12 62q-12 36 -26 60q-15 25 -39 49q-33 31 -48 38q-13 8 -60 18q-32 7 -65 7q-44 0 -68 -5
q-35 -6 -63 -20q-33 -18 -52 -37q-24 -25 -37 -53q-13 -26 -21 -63q-7 -38 -7 -85q0 -14 3 -29l3 -23l3 -24q1 -3 2.5 -12.5t10.5 -29.5q10 -25 35 -58q18 -22 50 -43q27 -18 61 -26q24 -7 66 -7h17q38 0 49 2q26 5 63 20q29 11 56 30q25 20 44 43q23 32 30 54q5 18 7 59v5
q1 3 1 13q1 5 1 16q0 2 -4 36zM471 193q0 -10 -9 -21q-7 -8 -20 -8q-12 0 -20 9l-30 30q-25 25 -31 32l-30 30l-32 32l-17 19l2 -32q1 -15 -1 -47q0 -3 -0.5 -15t0.5 -27q0 -12 -8 -20.5t-20 -8.5t-20.5 8.5t-8.5 19.5q-1 16 -0.5 29.5t0.5 16.5q1 6 1 26q0 23 -1.5 39
t-1.5 20l-3 45v46l-1 43v62q-9 6 -12 17q-1 1 -1 7q0 9 5.5 17t15.5 11l9 2l6 2q15 4 27.5 6t29.5 2q39 0 67.5 -6t50.5 -25q17 -14 31 -42q9 -29 9 -53q0 -40 -22 -67.5t-63 -39.5l-39 -9l7 -7q20 -21 30 -30l31 -32q15 -15 17 -18l13 -12l31 -32q8 -10 8 -19zM277 526v-66
q1 -15 1 -45v-10l4 -3q22 -4 30 -4t22.5 3.5t22.5 5.5q25 7 34.5 20t9.5 33q0 33 -19 50q-23 17 -64 18l-19 1q-12 0 -22 -3z" />
    <glyph glyph-name="degree" unicode="&#xb0;" horiz-adv-x="277" 
d="M117 471q-15 0 -27 4q-18 3 -28 9q-16 9 -24 18q-11 11 -18 23q-7 13 -11 26q-1 4 -5 25v1l-2 17v11q0 16 5 28q3 9 14 27q8 9 22 21q14 11 26 14q10 4 26 8l14 2l8 -1h5q18 0 30 -3q17 -5 29 -13q9 -5 25 -21q11 -15 15 -27q5 -9 7 -23v-6q1 -2 1 -6q2 -10 2 -21
q0 -16 -3 -28q-3 -14 -9 -28q-7 -14 -19 -26q-9 -11 -26 -19q-9 -4 -29 -9q-12 -3 -28 -3zM104 647q-3 -1 -6.5 -2.5t-8.5 -2.5q-8 -4 -12 -7q-2 -2 -5 -4.5t-4 -4.5q-5 -5 -7 -11l-1 -13v-19q1 -10 4 -15q0 -3 5 -15l9 -11q6 -6 10 -8l14 -4q7 -1 15 -1q11 0 18 1q8 2 14 4
l11 8q4 5 7 11l5 15q2 12 2 17q0 8 -1 10l-1 8q-1 2 -1 8l-1 2l-1 5q-2 4 -8 13q-5 5 -11 9q-2 2 -13 6q-2 1 -15 1q-5 0 -6 1h-4z" />
    <glyph glyph-name="plusminus" unicode="&#xb1;" horiz-adv-x="385" 
d="M298.5 404.5q-8.5 -8.5 -20.5 -8.5h-80v-27q1 -8 1 -54q0 -12 -8.5 -20t-20.5 -8t-20 8t-8 21q0 44 -1 53v27h-24l-49 -1q-5 0 -6 1q-12 0 -20.5 8t-8.5 20t9 20.5t20 8.5q18 -1 33.5 -0.5t19.5 0.5q6 1 26 1q0 18 -1 23v55q0 11 8.5 19.5t20.5 8.5t20 -8.5t8 -19.5v-54
q1 -5 1 -24h81q12 0 20.5 -8.5t7.5 -20.5q0 -12 -8.5 -20.5zM268 201q-9 -9 -20 -9h-78q-33 0 -39 1h-38q-12 0 -20.5 8.5t-8.5 20.5t8.5 20t20.5 8h155q11 0 20 -8.5t9 -20.5q0 -11 -9 -20z" />
    <glyph glyph-name="acute" unicode="&#xb4;" horiz-adv-x="303" 
d="M33 778q0 17 14 25l34 20l33 20q30 16 35 18l34 19q4 3 14 3q7 0 14 -3.5t10 -9.5q4 -8 4 -15q0 -16 -15 -25l-34 -18l-33 -19l-33 -20l-34 -19q-5 -4 -14 -4q-17 0 -25 14q-4 5 -4 14z" />
    <glyph glyph-name="paragraph" unicode="&#xb6;" horiz-adv-x="382" 
d="M304 547q0 -44 -1 -52v-462q0 -12 -8.5 -20t-20.5 -8t-20 8t-8 20v463q1 9 1 51v78q-10 1 -24 1q0 -22 1 -27v-52l-1 -52q-1 -9 -1 -50v-52q0 -3 0.5 -18.5t-0.5 -32.5v-52q-1 -9 -1 -51v-51l1 -52l-1 -52v-51q0 -12 -8.5 -20t-19.5 -8q-12 0 -20.5 8t-8.5 20v52
q0 6 0.5 17.5t0.5 33.5l-1 51v52q0 43 1 51v80q-49 2 -81 27q-51 42 -51 128q0 37 14 70q13 29 37 49q51 40 135 40q25 0 58 -5q11 0 19 -8.5t8 -21.5v-102z" />
    <glyph glyph-name="cedilla" unicode="&#xb8;" horiz-adv-x="354" 
d="M57 -55l26 89q2 10 11 17q11 8 22 5q8 -1 19 -10q3 -4 3 -9q0 -4 -2 -14q-3 -17 -18 -68q21 3 34 3q8 0 24 -2q48 -4 73 -36t25 -73q0 -53 -36 -85.5t-91 -32.5h-10q-65 6 -98 46q-6 6 -6 17q0 15 11 23q7 6 17 6q14 0 22 -11q16 -19 58 -24q19 -1 35.5 5t24.5 16
q8 11 10 19t2 13.5v7.5q0 44 -48 52q-2 1 -14 1q-15 0 -43 -5q-15 -3 -28 -3q-11 1 -19 10t-7 20l1 7z" />
    <glyph glyph-name="guillemotright" unicode="&#xbb;" horiz-adv-x="412" 
d="M113 258l-30 -34q-9 -9 -21 -9q-9 0 -19 8q-9 9 -9 21q0 9 8 19q9 9 30 33l30 34l28 28l14 16l-14 15l-30 29l-58 62q-9 8 -9 20q0 13 9 20q7 9 19 9t21 -9l30 -31l28 -30l57 -57q6 -2 9.5 -6.5t3.5 -8.5q3 -4 3 -10q0 -10 -7 -19q-9 -12 -36 -40l-26 -27zM327 358
q-15 -19 -36 -40l-26 -27l-30 -33l-30 -34q-11 -9 -21 -9q-11 0 -19 8q-10 7 -10 21q0 12 7 19l31 33l31 34q5 6 27 28l15 16l-15 15l-30 29q-26 28 -29 32l-30 30q-8 10 -8 20t8 20q9 9 21 9q11 0 20 -9l59 -61l56 -56q11 -6 14 -16q2 -3 2 -10q0 -12 -7 -19z" />
    <glyph glyph-name="questiondown" unicode="&#xbf;" horiz-adv-x="427" 
d="M206 674q0 13 8 21q7 8 20 8q9 0 17 -6q1 0 2 -1l2 -2q11 -8 11 -23q0 -7 -5 -15q-3 -6 -9 -10q-8 -5 -16 -5q-16 0 -23 12q-3 5 -4 7q-3 4 -3 14zM370 108q-4 -15 -12.5 -28t-26.5 -33q-42 -49 -122 -52l-11 -1q-48 0 -89 19q-49 23 -75 76q-15 36 -15 68q0 23 5 38
q10 45 46 90q32 38 73 65q33 23 69 38l2 16l-2 17q-2 21 -2 41v55q0 12 8.5 20.5t19.5 8.5q13 0 21 -8.5t8 -20.5v-55l2 -34l2 -23q0 -18 -8 -45q-3 -13 -16 -19q-50 -23 -72 -38q-39 -28 -61 -54q-27 -32 -35 -67q-3 -12 -3 -25q0 -24 10 -44q15 -32 47 -49q26 -12 63 -12
q62 0 92 33q23 28 26 37q1 1 1 9q0 9 -5 37q-2 13 7 23t22 10q10 0 18.5 -7t9.5 -17q5 -43 5 -48q0 -7 -2 -21z" />
    <glyph glyph-name="Agrave" unicode="&#xc0;" 
d="M172 872q9 14 26 14q5 0 13 -4q31 -18 35 -21l32 -19l34 -19l33 -20q7 -3 11 -9.5t4 -14.5q0 -6 -4 -14q-3 -7 -10 -11t-15 -4q-4 0 -14 4l-34 19l-33 20l-34 20l-33 20q-14 8 -14 25q0 8 3 14zM461.5 -14.5q-5.5 -7.5 -15.5 -9.5q-1 -1 -7 -1q-9 0 -17 5.5t-11 15.5
q-11 40 -14 47q-8 24 -14 50q-6 19 -13 51l-14 48l-12 51l-1 9h-18q-3 0 -16 0.5t-28 -0.5q-22 0 -44 -2l-49 -3h-55l-15 -46l-15 -48l-16 -49l-17 -49l-16 -47q-3 -9 -10.5 -14t-16.5 -5h-9q-9 3 -14.5 11t-5.5 17l2 9l16 48q9 22 17 48l15 48l16 49l12 36q-8 8 -8 20
q-1 10 6 18t18 10l3 12l17 48l32 96q9 22 17 48l17 48l16 48q9 25 13 46q7 29 15 52q10 19 28 19l9 -1q12 -5 17 -17q1 -1 1 -4l14 -48q9 -23 15 -50l28 -98l12 -50l13 -48l14 -48q11 -38 14 -50l1 -2q13 -8 13 -23q0 -8 -4 -13l3 -13l12 -48l13 -50l12 -49q8 -28 15 -47
l15 -50v-8q0 -10 -5.5 -17.5zM318 339q-3 7 -15 49l-13 51q-2 14 -12 48l-14 49l-13 49l-1 5l-2 -5q-7 -24 -11 -34.5t-5 -14.5l-17 -47q-8 -25 -17 -49l-16 -47q-6 -20 -10 -31.5t-6 -17.5l-13 -40h35l44 3q54 2 68 2h28z" />
    <glyph glyph-name="Aacute" unicode="&#xc1;" 
d="M149 778q0 17 14 25l33 20l34 20q22 13 35 18l33 19q4 3 14 3q8 0 15 -3.5t10 -9.5q4 -12 4 -15q0 -16 -15 -25l-34 -18l-34 -19l-32 -20l-34 -19q-7 -4 -14 -4q-17 0 -26 14q-3 6 -3 14zM461.5 -14.5q-5.5 -7.5 -15.5 -9.5q-1 -1 -7 -1q-9 0 -17 5.5t-11 15.5
q-11 40 -14 47q-8 24 -14 50q-6 19 -13 51l-14 48l-12 51l-1 9h-18q-3 0 -16 0.5t-28 -0.5q-22 0 -44 -2l-49 -3h-55l-15 -46l-15 -48l-16 -49l-17 -49l-16 -47q-3 -9 -10.5 -14t-16.5 -5h-9q-9 3 -14.5 11t-5.5 17l2 9l16 48q9 22 17 48l15 48l16 49l12 36q-8 8 -8 20
q-1 10 6 18t18 10l3 12l17 48l32 96q9 22 17 48l17 48l16 48q9 25 13 46q7 29 15 52q10 19 28 19l9 -1q12 -5 17 -17q1 -1 1 -4l14 -48q9 -23 15 -50l28 -98l12 -50l13 -48l14 -48q11 -38 14 -50l1 -2q13 -8 13 -23q0 -8 -4 -13l3 -13l12 -48l13 -50l12 -49q8 -28 15 -47
l15 -50v-8q0 -10 -5.5 -17.5zM318 339q-3 7 -15 49l-13 51q-2 14 -12 48l-14 49l-13 49l-1 5l-2 -5q-7 -24 -11 -34.5t-5 -14.5l-17 -47q-8 -25 -17 -49l-16 -47q-6 -20 -10 -31.5t-6 -17.5l-13 -40h35l44 3q54 2 68 2h28z" />
    <glyph glyph-name="Acircumflex" unicode="&#xc2;" 
d="M97 732q0 12 8 20l31 30l13 12l18 18q16 18 40 37l25 23q8 8 20 8q5 0 9 -2q10 -2 17 -13l24 -25q6 -8 29 -29l28 -30l30 -29q8 -10 8 -20q0 -12 -9 -21q-11 -8 -20 -8q-11 0 -20 9l-30 29q-12 15 -28 30q-23 21 -29 29l-11 12l-6 -6q-18 -15 -36 -34l-32 -31l-31 -30
q-8 -8 -20 -8t-20 8t-8 21zM461.5 -14.5q-5.5 -7.5 -15.5 -9.5q-1 -1 -7 -1q-9 0 -17 5.5t-11 15.5q-11 40 -14 47q-8 24 -14 50q-6 19 -13 51l-14 48l-12 51l-1 9h-18q-3 0 -16 0.5t-28 -0.5q-22 0 -44 -2l-49 -3h-55l-15 -46l-15 -48l-16 -49l-17 -49l-16 -47
q-3 -9 -10.5 -14t-16.5 -5h-9q-9 3 -14.5 11t-5.5 17l2 9l16 48q9 22 17 48l15 48l16 49l12 36q-8 8 -8 20q-1 10 6 18t18 10l3 12l17 48l32 96q9 22 17 48l17 48l16 48q9 25 13 46q7 29 15 52q10 19 28 19l9 -1q12 -5 17 -17q1 -1 1 -4l14 -48q9 -23 15 -50l28 -98l12 -50
l13 -48l14 -48q11 -38 14 -50l1 -2q13 -8 13 -23q0 -8 -4 -13l3 -13l12 -48l13 -50l12 -49q8 -28 15 -47l15 -50v-8q0 -10 -5.5 -17.5zM318 339q-3 7 -15 49l-13 51q-2 14 -12 48l-14 49l-13 49l-1 5l-2 -5q-7 -24 -11 -34.5t-5 -14.5l-17 -47q-8 -25 -17 -49l-16 -47
q-6 -20 -10 -31.5t-6 -17.5l-13 -40h35l44 3q54 2 68 2h28z" />
    <glyph glyph-name="Atilde" unicode="&#xc3;" horiz-adv-x="580" 
d="M131 811v1q14 26 20.5 36.5t16.5 18.5q23 19 71 19q24 0 41.5 -13.5t40.5 -42.5q23 -30 31 -30h9q21 0 26 5q4 3 11.5 19t9.5 20l2 4q10 17 27 17q12 0 19.5 -8.5t7.5 -20.5q0 -5 -2 -11l-2 -4q-11 -25 -18.5 -37.5t-18.5 -22.5q-21 -18 -62 -18h-12q-20 0 -36 12.5
t-37 39.5q-15 19 -22.5 26.5t-14.5 7.5h-1q-29 -2 -35 -6q-4 -2 -12 -19l-8 -18l-1 -1q-11 -16 -25 -16q-6 0 -12 3q-17 8 -17 27q0 6 3 12zM496.5 -14.5q-5.5 -7.5 -15.5 -9.5q-1 -1 -7 -1q-9 0 -17 5.5t-11 15.5q-11 40 -14 47q-3 9 -14 50q-6 19 -13 51l-13 48
q-9 31 -13 51l-1 9h-17q-3 0 -16.5 0.5t-28.5 -0.5q-22 0 -44 -2l-48 -3h-56l-15 -46l-15 -48l-16 -49l-17 -49l-16 -47q-3 -9 -10.5 -14t-16.5 -5h-9q-9 3 -14.5 11t-5.5 17l2 9l16 48q9 22 17 48l15 48l17 49l11 36q-8 8 -8 20q-1 10 6 18t18 10l52 156q9 22 17 48l17 48
l16 48q9 25 13 46q7 28 15 52q10 19 28 19l9 -1q12 -5 17 -17q1 -1 1 -4l14 -48q9 -23 15 -50l28 -98l12 -50l13 -48l14 -48q2 -5 15 -50v-2q13 -7 13 -23q0 -8 -4 -13l3 -13l12 -48l13 -50l12 -49q8 -28 15 -47l15 -50v-8q0 -10 -5.5 -17.5zM353 339q-7 18 -14 49l-14 51
q-1 13 -12 48l-14 49l-13 49l-1 5l-2 -5q-7 -24 -11 -34.5t-5 -14.5l-17 -47q-13 -42 -17 -49l-16 -47q-6 -20 -10 -31.5t-6 -17.5l-13 -40h35l44 3q54 2 68 2h28z" />
    <glyph glyph-name="Adieresis" unicode="&#xc4;" 
d="M156 831q2 6 10 13q8 4 16 4q17 0 24 -13l4 -7q3 -6 3 -14q0 -12 -10 -21q-9 -6 -19 -6q-11 0 -18 5l-4 3q-9 9 -9 22q0 9 3 14zM295 831q5 8 11 13q8 4 15 4q16 0 25 -13q2 -4 4 -7q2 -4 2 -13q0 -13 -9 -22q-9 -6 -19 -6t-18 5l-4 3q-10 9 -10 22q0 7 3 14z
M461.5 -14.5q-5.5 -7.5 -15.5 -9.5q-1 -1 -7 -1q-9 0 -17 5.5t-11 15.5q-11 40 -14 47q-8 24 -14 50q-6 19 -13 51l-14 48l-12 51l-1 9h-18q-3 0 -16 0.5t-28 -0.5q-22 0 -44 -2l-49 -3h-55l-15 -46l-15 -48l-16 -49l-17 -49l-16 -47q-3 -9 -10.5 -14t-16.5 -5h-9
q-9 3 -14.5 11t-5.5 17l2 9l16 48q9 22 17 48l15 48l16 49l12 36q-8 8 -8 20q-1 10 6 18t18 10l3 12l17 48l32 96q9 22 17 48l17 48l16 48q9 25 13 46q7 29 15 52q10 19 28 19l9 -1q12 -5 17 -17q1 -1 1 -4l14 -48q9 -23 15 -50l28 -98l12 -50l13 -48l14 -48q11 -38 14 -50
l1 -2q13 -8 13 -23q0 -8 -4 -13l3 -13l12 -48l13 -50l12 -49q8 -28 15 -47l15 -50v-8q0 -10 -5.5 -17.5zM318 339q-3 7 -15 49l-13 51q-2 14 -12 48l-14 49l-13 49l-1 5l-2 -5q-7 -24 -11 -34.5t-5 -14.5l-17 -47q-8 -25 -17 -49l-16 -47q-6 -20 -10 -31.5t-6 -17.5l-13 -40
h35l44 3q54 2 68 2h28z" />
    <glyph glyph-name="Aring" unicode="&#xc5;" 
d="M195 870q10 15 26 24t35 9t38 -11q34 -23 34 -60q0 -22 -12 -39q-17 -24 -45 -30l-16 -2q-21 0 -37 10q-16 9 -25 25t-9 35q0 22 11 39zM239.5 817q5.5 -4 14.5 -4q11 0 18 6t6 16q-2 8 -10 13q-4 4 -14 4q-13 0 -16 -10q-4 -4 -4 -13q0 -8 5.5 -12zM461.5 -14.5
q-5.5 -7.5 -15.5 -9.5q-1 -1 -7 -1q-9 0 -17 5.5t-11 15.5q-11 40 -14 47q-8 24 -14 50q-6 19 -13 51l-14 48l-12 51l-1 9h-18q-3 0 -16 0.5t-28 -0.5q-22 0 -44 -2l-49 -3h-55l-15 -46l-15 -48l-16 -49l-17 -49l-16 -47q-3 -9 -10.5 -14t-16.5 -5h-9q-9 3 -14.5 11t-5.5 17
l2 9l16 48q9 22 17 48l15 48l16 49l12 36q-8 8 -8 20q-1 10 6 18t18 10l3 12l17 48l32 96q9 22 17 48l17 48l16 48q9 25 13 46q7 29 15 52q10 19 28 19l9 -1q12 -5 17 -17q1 -1 1 -4l14 -48q9 -23 15 -50l28 -98l12 -50l13 -48l14 -48q11 -38 14 -50l1 -2q13 -8 13 -23
q0 -8 -4 -13l3 -13l12 -48l13 -50l12 -49q8 -28 15 -47l15 -50v-8q0 -10 -5.5 -17.5zM318 339q-3 7 -15 49l-13 51q-2 14 -12 48l-14 49l-13 49l-1 5l-2 -5q-7 -24 -11 -34.5t-5 -14.5l-17 -47q-8 -25 -17 -49l-16 -47q-6 -20 -10 -31.5t-6 -17.5l-13 -40h35l44 3q54 2 68 2
h28z" />
    <glyph glyph-name="AE" unicode="&#xc6;" horiz-adv-x="826" 
d="M721 1h-43q-17 0 -43 -2l-45 -1h-44q-6 0 -16 -0.5t-29 -0.5q-18 0 -28 -0.5t-15 -0.5q-31 0 -45 -1q-12 0 -20.5 8.5t-8.5 20.5q0 5 1 6q0 17 2 49v45q0 30 -1 46q-2 32 -2 49v21q-16 1 -30 0.5t-17 -0.5q-6 -1 -27 -1q-20 0 -27 1l-52 1l-49 3q-15 -27 -17 -33l-23 -42
l-22 -42l-11 -21l-11 -21l-13 -24l-11 -19l-23 -41q-3 -7 -9.5 -11.5t-14.5 -4.5q-6 0 -14 4q-7 3 -11 10t-4 15q0 9 4 14l22 42q10 16 15 27l8 15q16 28 22 41l22 43l23 42l9 19q4 6 13 24l69 126q-1 -1 23 41l23 43l23 41l20 41q11 27 21 45l24 43q15 27 22 41v1
q3 8 10.5 13t16.5 5l47 -2q17 0 23 -1l22 -1h91l46 -2l45 -1l27 -1l18 1h48q11 -1 19 -9.5t8 -20.5q0 -11 -8.5 -19.5t-20.5 -7.5h-45l-20 -1l-26 1q-31 0 -47 1q-18 0 -24 1l-21 1h-92l-39 2q1 -5 1 -19v-142q0 -30 1 -46l2 -48v-3q27 1 93 1h109q13 0 21 -8.5t8 -20.5
t-8.5 -20.5t-20.5 -8.5l-54 1h-55l-94 -1v-34q1 -17 0.5 -31t-0.5 -18q-1 -7 -1 -45q0 -15 2 -45q2 -34 2 -49l-1 -49l-2 -23h14q6 0 16.5 0.5t28.5 0.5l43 1h45l43 1q28 2 45 2h45q7 -1 43 -1q12 0 20.5 -8t8.5 -20t-8 -20t-20 -9q-38 0 -45 1zM386 406l-2 46q-1 16 -1 49
v94v27q-18 -30 -18 -31q-13 -26 -19 -41q-14 -34 -22 -45l-23 -43q-10 -16 -23 -40q-9 -18 -23 -44l-23 -40l-20 -38l103 -4l19 1q4 0 19 0.5t32 -0.5v63q1 7 1 46z" />
    <glyph glyph-name="Ccedilla" unicode="&#xc7;" horiz-adv-x="525" 
d="M495 115q0 -10 -5 -16q-24 -35 -53 -56q-32 -23 -68 -35q-27 -8 -75 -8q-11 0 -31 2q-7 -28 -13 -47q21 3 34 3q8 0 24 -2q48 -4 73 -36t25 -73q0 -53 -36 -85.5t-91 -32.5h-10q-65 6 -98 46q-6 6 -6 17q0 15 11 23q8 6 17 6q14 0 22 -11q16 -19 58 -24q19 -1 35.5 5
t24.5 16q8 11 10 19t2 13.5v7.5q0 44 -48 52q-2 1 -14 1q-15 0 -43 -5q-15 -3 -28 -3q-11 1 -19 10t-7 20l1 7l2 16l20 69q-36 14 -70 46q-28 24 -51 65q-26 47 -34 72q-9 27 -15 72l-1 6l-3 19q-5 29 -5 59l2 29q0 8 2 32l1 10l2 17q2 29 7 55q11 43 22 71q14 34 38 64
q23 31 57 53q30 22 70 33q41 12 75 12q46 0 76 -10q28 -9 67 -42q9 -9 9 -21t-7 -20q-11 -9 -21 -9q-9 0 -19 8q-26 22 -46 30q-22 7 -59 7q-26 0 -60 -10q-25 -7 -53 -24q-25 -18 -43 -41q-21 -28 -32 -53q-14 -37 -18 -61q-3 -9 -6 -47l-2 -17q-1 -2 -1 -10q-4 -42 -4 -56
q0 -26 4 -50l4 -19v-6q8 -49 14 -63q7 -23 29 -62q18 -31 40 -52q23 -23 52 -33q25 -11 64 -11q35 0 59 7q25 7 51 26q23 17 39 41q10 13 24 13q8 0 16 -5q12 -9 12 -24z" />
    <glyph glyph-name="Egrave" unicode="&#xc8;" horiz-adv-x="486" 
d="M155 880q9 14 25 14q8 0 14 -3l35 -20q16 -13 31 -20l34 -20l34 -18q14 -9 14 -26q0 -6 -3 -14q-9 -14 -26 -14q-8 0 -13 4l-68 38l-34 21q-18 12 -32 19q-15 9 -15 25q0 4 4 14zM446 13.5q-8 -8.5 -19 -8.5h-47q-7 1 -44 1l-44 -2l-46 -1q-15 -1 -45 -1h-45l-46 -1
q-6 0 -16 -0.5t-29 -0.5q-12 0 -20 8t-8 21v2q0 10 9 19v12q0 18 1 22l1 45l-1 45l-3 49l1 49q1 7 1 45v94q0 14 -2 46q0 19 -1 26l-1 22q0 20 0.5 31t0.5 17q0 3 0.5 17t-0.5 30v46q-1 4 -1 23q-10 1 -16.5 9.5t-5.5 18.5q0 12 8.5 20.5t19.5 7.5q17 0 47 -2l45 -1h45
l47 -1q16 0 46 -2h23l22 -1h45q4 1 19 1q20 0 27 -1q13 0 21 -8.5t8 -20.5q-1 -12 -9.5 -20t-19.5 -8q-8 1 -27 1q-14 0 -18 -1h-47l-46 1q-34 2 -46 2q-15 1 -45 1h-46q-13 1 -39 1v-66q1 -17 0.5 -31t-0.5 -17v-46l1 -46q2 -32 2 -48v-3l94 1q45 0 54 -1h55q12 0 20 -8.5
t8 -19.5q0 -12 -8 -20.5t-20 -8.5h-55q-9 1 -54 1l-62 -1h-32v-35q0 -40 -1 -48l-1 -46l3 -45l1 -49l-1 -49q-1 -4 -1 -22h6l46 1q38 0 45 1h45q37 0 45 1q4 1 23 1l22 1q39 0 47 -1h44q12 0 20 -8t8 -21q0 -11 -8 -19.5z" />
    <glyph glyph-name="Eacute" unicode="&#xc9;" horiz-adv-x="486" 
d="M151 787q0 8 4 15t10 10l33 19l33 20l36 20l32 17q10 5 15 5q8 0 14.5 -4t9.5 -11q4 -8 4 -15q0 -16 -14 -24l-35 -19l-33 -19q-27 -14 -33 -19l-34 -19q-4 -4 -14 -4q-16 0 -25 14q-3 6 -3 14zM446 13.5q-8 -8.5 -19 -8.5h-47q-7 1 -44 1l-44 -2l-46 -1q-15 -1 -45 -1
h-45l-46 -1q-6 0 -16 -0.5t-29 -0.5q-12 0 -20 8t-8 21v2q0 10 9 19v12q0 18 1 22l1 45l-1 45l-3 49l1 49q1 7 1 45v94q0 14 -2 46q0 19 -1 26l-1 22q0 20 0.5 31t0.5 17q0 3 0.5 17t-0.5 30v46q-1 4 -1 23q-10 1 -16.5 9.5t-5.5 18.5q0 12 8.5 20.5t19.5 7.5q17 0 47 -2
l45 -1h45l47 -1q16 0 46 -2h23l22 -1h45q4 1 19 1q20 0 27 -1q13 0 21 -8.5t8 -20.5q-1 -12 -9.5 -20t-19.5 -8q-8 1 -27 1q-14 0 -18 -1h-47l-46 1q-34 2 -46 2q-15 1 -45 1h-46q-13 1 -39 1v-66q1 -17 0.5 -31t-0.5 -17v-46l1 -46q2 -32 2 -48v-3l94 1q45 0 54 -1h55
q12 0 20 -8.5t8 -19.5q0 -12 -8 -20.5t-20 -8.5h-55q-9 1 -54 1l-62 -1h-32v-35q0 -40 -1 -48l-1 -46l3 -45l1 -49l-1 -49q-1 -4 -1 -22h6l46 1q38 0 45 1h45q37 0 45 1q4 1 23 1l22 1q39 0 47 -1h44q12 0 20 -8t8 -21q0 -11 -8 -19.5z" />
    <glyph glyph-name="Ecircumflex" unicode="&#xca;" horiz-adv-x="486" 
d="M93 787q0 13 10 22l31 24q4 2 8 6t9 7l14 11q12 11 40 31q19 12 25 18q7 5 18 5l9 -1q9 -4 15 -11q16 -14 24 -19l28 -24l30 -24q6 -6 28 -23q11 -8 11 -23q0 -8 -7 -17q-7 -11 -22 -11q-12 0 -18 6l-29 24q-11 7 -29 24l-29 23q-4 5 -13 11l-8 -6q-19 -12 -37 -27
q-9 -8 -17 -13.5t-14 -11.5l-31 -24q-11 -7 -18 -7q-14 0 -22 11q-6 8 -6 19zM446 13.5q-8 -8.5 -19 -8.5h-47q-7 1 -44 1l-44 -2l-46 -1q-15 -1 -45 -1h-45l-46 -1q-6 0 -16 -0.5t-29 -0.5q-12 0 -20 8t-8 21v2q0 10 9 19v12q0 18 1 22l1 45l-1 45l-3 49l1 49q1 7 1 45v94
q0 14 -2 46q0 19 -1 26l-1 22q0 20 0.5 31t0.5 17q0 3 0.5 17t-0.5 30v46q-1 4 -1 23q-10 1 -16.5 9.5t-5.5 18.5q0 12 8.5 20.5t19.5 7.5q17 0 47 -2l45 -1h45l47 -1q16 0 46 -2h23l22 -1h45q4 1 19 1q20 0 27 -1q13 0 21 -8.5t8 -20.5q-1 -12 -9.5 -20t-19.5 -8
q-8 1 -27 1q-14 0 -18 -1h-47l-46 1q-34 2 -46 2q-15 1 -45 1h-46q-13 1 -39 1v-66q1 -17 0.5 -31t-0.5 -17v-46l1 -46q2 -32 2 -48v-3l94 1q45 0 54 -1h55q12 0 20 -8.5t8 -19.5q0 -12 -8 -20.5t-20 -8.5h-55q-9 1 -54 1l-62 -1h-32v-35q0 -40 -1 -48l-1 -46l3 -45l1 -49
l-1 -49q-1 -4 -1 -22h6l46 1q38 0 45 1h45q37 0 45 1q4 1 23 1l22 1q39 0 47 -1h44q12 0 20 -8t8 -21q0 -11 -8 -19.5z" />
    <glyph glyph-name="Edieresis" unicode="&#xcb;" horiz-adv-x="546" 
d="M160 841q4 8 10 13q10 4 16 4q18 0 24 -13l4 -7q3 -6 3 -14q0 -12 -10 -21q-9 -6 -19 -6t-18 5l-4 3q-9 9 -9 22q0 9 3 14zM299 841q5 8 11 13q8 4 15 4q16 0 25 -13q1 -2 4 -7q2 -4 2 -13q0 -13 -9 -22q-9 -6 -19 -6q-11 0 -18 5l-4 3q-10 9 -10 22q0 7 3 14zM461 13.5
q-8 -8.5 -20 -8.5h-46q-8 1 -44 1l-44 -2q-6 0 -17 -0.5t-30 -0.5q-14 -1 -45 -1h-45l-45 -1q-6 0 -16 -0.5t-29 -0.5q-12 0 -20.5 8t-8.5 21v2q0 8 9 19v12q0 18 1 22q2 32 2 45t-2 45l-2 49l1 49v139q0 30 -1 46q0 19 -1 26l-1 22q0 20 0.5 31t0.5 17q0 3 0.5 17t-0.5 30
v46q-1 4 -1 23q-10 2 -17 10t-6 18q0 12 8.5 20.5t20.5 7.5q17 0 47 -2l44 -1h46l46 -1q15 0 47 -2h23l22 -1h45q4 1 18 1q21 0 28 -1q12 0 20.5 -8.5t8.5 -20.5q-1 -12 -9.5 -20t-20.5 -8q-7 1 -26 1q-15 0 -19 -1h-46l-47 1q-32 2 -45 2q-15 1 -45 1h-47q-12 1 -39 1
l1 -19v-47q1 -17 0.5 -31t-0.5 -17l-1 -46l2 -46q1 -16 1 -48v-3l94 1q46 0 55 -1h55q12 0 20 -8.5t8 -19.5q0 -12 -8 -20.5t-20 -8.5h-55q-9 1 -55 1l-61 -1h-33v-83l-1 -46l2 -45q2 -32 2 -49t-2 -49q-1 -4 -1 -22h7l46 1q37 0 45 1h44q38 0 45 1q4 1 24 1l22 1
q39 0 46 -1h44q12 0 20.5 -8t8.5 -21q0 -11 -8 -19.5z" />
    <glyph glyph-name="Igrave" unicode="&#xcc;" horiz-adv-x="290" 
d="M85 812q-9 6 -12 7l-33 20q-14 8 -14 25q0 9 4 14q8 14 25 14q6 0 14 -4q26 -15 34 -21l66 -38l34 -20q7 -3 10.5 -9.5t3.5 -14.5q0 -9 -4 -14q-3 -7 -9.5 -11t-14.5 -4q-3 0 -15 4l-33 19l-34 20q-13 7 -22 13zM206.5 674q-8.5 -8 -19.5 -8h-2l-45 2l-1 -24
q-1 -9 -1 -65v-26q1 -8 1 -48q0 -41 -1 -49q-1 -7 -1 -46q0 -38 1 -46t1 -48q0 -41 -1 -49t-1 -46t1 -46t1 -49v-48q-1 -4 -1 -20q7 -1 33 -1q13 0 21 -8.5t8 -20.5q-1 -12 -9 -20t-20 -8h-1l-107 2q-12 0 -20.5 8.5t-8.5 19.5q0 12 8.5 20.5t20.5 8.5h18q0 16 1 20v47
q0 39 -1 46q-1 8 -1 49t1 48q1 8 1 47q0 38 -1 45q-1 8 -1 49l1 48q1 9 1 47t-1 46v27l1 70q1 5 1 22l-25 2q-12 1 -20 9t-8 20t9 20.5t21 7.5l65 -3q7 0 25.5 -1.5t37.5 -1.5q11 -1 19 -9t8 -20t-8.5 -20z" />
    <glyph glyph-name="Iacute" unicode="&#xcd;" horiz-adv-x="290" 
d="M224.5 848q-3.5 -7 -9.5 -10l-102 -57l-33 -20q-12 -4 -15 -4q-8 0 -14.5 4t-9.5 11q-4 8 -4 15q0 15 14 24l33 19q20 13 34 19l35 20l33 18q12 4 15 4q15 0 24 -14q3 -4 3 -15q0 -7 -3.5 -14zM206.5 674q-8.5 -8 -19.5 -8h-2l-45 2l-1 -24q-1 -9 -1 -65v-26q1 -8 1 -48
q0 -41 -1 -49q-1 -7 -1 -46q0 -38 1 -46t1 -48q0 -41 -1 -49t-1 -46t1 -46t1 -49v-48q-1 -4 -1 -20q7 -1 33 -1q13 0 21 -8.5t8 -20.5q-1 -12 -9 -20t-20 -8h-1l-107 2q-12 0 -20.5 8.5t-8.5 19.5q0 12 8.5 20.5t20.5 8.5h18q0 16 1 20v47q0 39 -1 46q-1 8 -1 49t1 48
q1 8 1 47q0 38 -1 45q-1 8 -1 49l1 48q1 9 1 47t-1 46v27l1 70q1 5 1 22l-25 2q-12 1 -20 9t-8 20t9 20.5t21 7.5l65 -3q7 0 25.5 -1.5t37.5 -1.5q11 -1 19 -9t8 -20t-8.5 -20z" />
    <glyph glyph-name="Icircumflex" unicode="&#xce;" horiz-adv-x="290" 
d="M258 756q-8 -11 -22 -11q-8 0 -18 7l-29 23q-12 11 -29 24l-29 24l-13 11l-8 -6q-19 -12 -37 -27l-31 -25l-12.5 -10t-18.5 -15q-6 -6 -18 -6q-14 0 -22 11q-6 9 -6 18q0 13 10 22l32 24l30 26l65 47q8 6 18 6l9 -1q9 -3 14 -11l25 -20l28 -24l30 -24l28 -23
q11 -9 11 -22q0 -7 -7 -18zM206.5 674q-8.5 -8 -19.5 -8h-2l-45 2l-1 -24q-1 -9 -1 -65v-26q1 -8 1 -48q0 -41 -1 -49q-1 -7 -1 -46q0 -38 1 -46t1 -48q0 -41 -1 -49t-1 -46t1 -46t1 -49v-48q-1 -4 -1 -20q7 -1 33 -1q13 0 21 -8.5t8 -20.5q-1 -12 -9 -20t-20 -8h-1l-107 2
q-12 0 -20.5 8.5t-8.5 19.5q0 12 8.5 20.5t20.5 8.5h18q0 16 1 20v47q0 39 -1 46q-1 8 -1 49t1 48q1 8 1 47q0 38 -1 45q-1 8 -1 49l1 48q1 9 1 47t-1 46v27l1 70q1 5 1 22l-25 2q-12 1 -20 9t-8 20t9 20.5t21 7.5l65 -3q7 0 25.5 -1.5t37.5 -1.5q11 -1 19 -9t8 -20
t-8.5 -20z" />
    <glyph glyph-name="Idieresis" unicode="&#xcf;" horiz-adv-x="290" 
d="M24 817q0 9 3 15q3 7 11 12t16 5q7 0 13.5 -4t9.5 -10l4 -7q4 -5 4 -14q0 -11 -10 -21q-9 -6 -20 -6q-9 0 -17 5l-5 4q-9 8 -9 21zM167 832q3 7 11 12t16 5q15 0 24 -14q0 -3 4 -7q2 -8 2 -13q0 -13 -10 -22q-7 -6 -18 -6q-12 0 -18 5l-5 4q-9 8 -9 22q0 8 3 14z
M206.5 674q-8.5 -8 -19.5 -8h-2l-45 2l-1 -24q-1 -9 -1 -65v-26q1 -8 1 -48q0 -41 -1 -49q-1 -7 -1 -46q0 -38 1 -46t1 -48q0 -41 -1 -49t-1 -46t1 -46t1 -49v-48q-1 -4 -1 -20q7 -1 33 -1q13 0 21 -8.5t8 -20.5q-1 -12 -9 -20t-20 -8h-1l-107 2q-12 0 -20.5 8.5t-8.5 19.5
q0 12 8.5 20.5t20.5 8.5h18q0 16 1 20v47q0 39 -1 46q-1 8 -1 49t1 48q1 8 1 47q0 38 -1 45q-1 8 -1 49l1 48q1 9 1 47t-1 46v27l1 70q1 5 1 22l-25 2q-12 1 -20 9t-8 20t9 20.5t21 7.5l65 -3q7 0 25.5 -1.5t37.5 -1.5q11 -1 19 -9t8 -20t-8.5 -20z" />
    <glyph glyph-name="Eth" unicode="&#xd0;" horiz-adv-x="685" 
d="M607 299q-4 -42 -24 -102q-21 -52 -53 -92q-32 -37 -84 -64q-47 -26 -98 -36q-41 -9 -100 -12h-33h-45h-21q-12 1 -20 9.5t-7 20.5q0 10 6 17.5t16 9.5v117q1 8 1 47q0 20 0.5 31t0.5 17l1 46q0 39 -1 47v4h-39q-7 -1 -45 -1q-12 0 -20.5 8.5t-8.5 20.5q0 11 8.5 19.5
t19.5 8.5q38 0 45 1h40v35q1 7 1 47v46q-1 7 -1 48q0 39 -1 47v19h-1q-12 0 -20.5 8.5t-8.5 20.5q0 10 7 18t18 10h2q45 9 103 9q59 0 107 -9q60 -14 102 -37q42 -22 84 -74q35 -46 51 -98q18 -52 21 -106q1 -8 1 -32q0 -17 -4 -69zM553 396q-1 42 -18 93q-15 46 -41 79
q-36 42 -67 59q-43 23 -88 31q-40 9 -94 9l-43 -1v-27q1 -7 1 -47q0 -39 1 -46v-48q0 -40 -1 -49v-34h37l41 3l48 2q11 0 19.5 -8.5t8.5 -19.5q0 -12 -8.5 -20.5t-19.5 -8.5q-14 0 -26 -1t-16 -1l-47 -3h-37v-2l1 -48l-2 -94q0 -40 -1 -48v-116q34 0 45 1q39 0 91 10
q42 9 82 30q45 23 68 52q25 30 42 75t22 86q3 30 3 63q0 23 -1 29z" />
    <glyph glyph-name="Ntilde" unicode="&#xd1;" horiz-adv-x="537" 
d="M78 810v1q11 23 19 35t17 21q24 19 71 19q24 0 42.5 -13.5t40.5 -42.5q21 -30 31 -30l12 -1q14 0 22 5q6 5 22 40l2 4q3 7 10.5 12t15.5 5q12 0 20 -8.5t8 -20.5q0 -5 -2 -11l-2 -4q-12 -28 -19 -40t-18 -20q-24 -19 -61 -19q-10 0 -13 1q-21 1 -37 13t-36 39
q-26 34 -37 34h-1q-30 -2 -35 -7q-5 -2 -20 -36l-1 -1q-11 -16 -25 -16q-6 0 -12 3q-17 8 -17 26q0 6 3 12zM457 368l-3 -44q0 -39 1 -46v-47q-1 -16 -0.5 -29.5t0.5 -16.5q1 -7 1 -47l-1 -23q0 -20 -1 -24v-46q0 -8 -5 -15q0 -16 -15 -24q-9 -4 -14 -4q-8 0 -15 4.5
t-10 11.5l-22 40l-24 42q-11 18 -22 43l-20 41l-22 39q-4 8 -10 18t-14 24l-22 43l-21 40q-14 27 -23 40l-12 21l-11 21l-22 42l-21 42q-16 28 -22 41l-12 22v-26l-1 -48v-47q1 -8 1 -48l-1 -47l-1 -48q0 -41 -1 -49q-1 -15 -1 -45q0 -31 1 -47l1 -49q0 -16 -2 -48v-46
q0 -12 -8.5 -20.5t-20.5 -8.5t-20.5 8.5t-8.5 20.5l1 48q2 32 2 46q0 19 -0.5 30t-0.5 17q-2 32 -2 49q0 15 2 49q1 7 1 45q1 16 1 48q0 31 1 47q0 40 -1 47v48l1 48v94q-1 7 -1 40q-1 2 -1 7q0 8 5 16q9 13 24 13q11 0 19 -6t9 -16l8 -15l11 -19l23 -42l44 -82l43 -84
q12 -22 23 -39l45 -84q2 -4 6.5 -13.5t15.5 -28.5l22 -40q8 -12 23 -42q12 -20 22 -43q6 -14 20 -38v10q0 37 -1 45q0 3 -0.5 16.5t0.5 31.5v45q-1 8 -1 47l3 49q2 22 2 44q1 16 -1 44l-1 49l1 46v93l1 47q0 11 8.5 19.5t20.5 8.5q12 -1 20 -9t8 -20q-1 -16 -1 -47v-93
q0 -6 -0.5 -16.5t-0.5 -29.5l1 -44q1 -6 1 -30q0 -11 -2 -67z" />
    <glyph glyph-name="Ograve" unicode="&#xd2;" horiz-adv-x="624" 
d="M381 750.5q-7 -3.5 -15 -3.5q-9 0 -14 4l-34 18l-33 20q-34 19 -35 20l-32 20q-6 3 -10 10t-4 14q0 6 4 14q3 7 10 11t15 4q5 0 13 -4l67 -40l34 -19l33 -19q7 -4 11 -10.5t4 -14.5q0 -3 -4 -15q-3 -6 -10 -9.5zM292 -24q-42 0 -78 14q-42 17 -70 40q-12 12 -22 26
t-24 37q-19 32 -33 68q-15 42 -21 71q-5 31 -8 60l-2 11q-4 37 -3 57v36q-2 38 2 58q7 37 21 70q1 2 1 5q17 41 39 70q30 38 58 57q43 30 72 37q16 5 32 6.5t46 1.5h2q51 0 88 -17t71 -54q26 -29 47 -72q15 -35 27 -79q5 -21 6.5 -33.5t1.5 -27.5q0 -14 1 -21q3 -31 3 -59
q0 -46 -7 -93q-6 -47 -15 -76q-14 -42 -30 -74q-27 -44 -51 -64q-28 -27 -72 -43q-36 -12 -82 -12zM241 639q-22 -6 -57 -30q-25 -17 -44 -45q-17 -21 -31 -56l-2 -5q-14 -37 -17 -58q-3 -13 -3 -49q1 -4 1 -19v-18q-2 -20 3 -49l1 -12q7 -49 8 -54q5 -22 19 -64
q9 -27 28 -58q18 -33 37 -49q19 -17 50 -30q27 -10 58 -10q35 0 63 9q30 10 52 31q24 19 39 50q17 30 26 62q8 26 14 68q2 11 6 69q1 33 -3 68v3q-1 7 -1 25q0 20 -7 48q-5 25 -23 68q-12 28 -39 59q-20 24 -51 39q-27 12 -64 12h-2q-45 0 -61 -5z" />
    <glyph glyph-name="Oacute" unicode="&#xd3;" horiz-adv-x="631" 
d="M235 743q-7 0 -14 4t-10 11q-4 5 -4 14q0 7 4 14t10 10l33 20l34 19l35 20q5 2 33 18q8 4 14 4q8 0 14.5 -4t9.5 -11q4 -5 4 -14q0 -7 -3.5 -14t-9.5 -10l-36 -20l-33 -18l-33 -19l-34 -20q-8 -4 -14 -4zM295 -24q-42 0 -78 14q-45 18 -69 40q-13 12 -23 25.5t-24 37.5
q-21 35 -32 68q-17 47 -22 71q-4 23 -5 39l-3 21l-1 11q-5 36 -4 57v36q-2 38 2 58q6 31 21 70l2 5q16 39 38 70q28 36 58 57q43 30 73 37q16 5 31.5 6.5t45.5 1.5h3q52 0 87 -17q37 -16 71 -54q30 -33 47 -72q17 -35 27 -79q5 -21 6.5 -33.5t1.5 -27.5q0 -14 1 -21
q3 -31 3 -59q0 -33 -6 -93q-5 -41 -16 -76q-14 -42 -30 -74q-24 -41 -51 -64q-29 -28 -72 -43q-36 -12 -82 -12zM244 639q-23 -6 -56 -30q-23 -15 -45 -45q-15 -18 -30 -56l-3 -5q-14 -37 -17 -58q-2 -9 -2 -49v-37q0 -24 3 -49l1 -12q6 -44 9 -54q7 -31 18 -64
q9 -27 28 -58q16 -30 37 -49q19 -17 50 -30q27 -10 58 -10q35 0 63 9q30 10 52 31q24 19 39 50q16 28 27 62q8 32 13 68q6 34 6 83q0 21 -1 35.5t-2 18.5v3q-1 7 -1 25q0 19 -6 48q-9 36 -24 68q-9 23 -38 59q-23 26 -52 39q-27 12 -63 12h-3q-45 0 -61 -5z" />
    <glyph glyph-name="Ocircumflex" unicode="&#xd4;" horiz-adv-x="624" 
d="M136 764q0 15 11 23l31 24l31 25l40 30q16 10 25 18h1q6 5 16 5l10 -1q8 -3 14 -10l24 -21l58 -47l29 -23q10 -9 10 -23q0 -9 -6 -17q-8 -11 -22 -11q-10 0 -18 6l-30 24l-28 24q-25 20 -29 23l-13 11l-9 -6q-21 -13 -36 -27l-31 -25l-31 -24q-8 -6 -18 -6q-15 0 -22 11
q-7 7 -7 17zM542 245q-6 -47 -15 -76q-14 -42 -30 -74q-27 -44 -51 -64q-28 -27 -72 -43q-36 -12 -82 -12q-42 0 -78 14q-42 17 -70 40q-12 12 -22 26t-24 37q-19 32 -33 68q-15 42 -21 71q-5 31 -8 60l-2 11q-4 37 -3 57v36q-2 38 2 58q7 37 21 70q1 2 1 5q17 41 39 70
q30 38 58 57q43 30 72 37q16 5 32 6.5t46 1.5h2q51 0 88 -17t71 -54q26 -29 47 -72q15 -35 27 -79q5 -21 6.5 -33.5t1.5 -27.5q0 -14 1 -21q3 -31 3 -59q0 -46 -7 -93zM488 418q0 20 -7 48q-5 25 -23 68q-12 28 -39 59q-20 24 -51 39q-27 12 -64 12h-5q-42 0 -58 -5
q-22 -6 -57 -30q-25 -17 -44 -45q-17 -21 -31 -56l-2 -5q-14 -37 -17 -58q-3 -13 -3 -49q1 -4 1 -19v-18q-2 -20 3 -49l1 -12q7 -49 8 -54q5 -22 19 -64q9 -27 28 -58q18 -33 37 -49q19 -17 50 -30q27 -10 58 -10q35 0 63 9q30 10 52 31q24 19 39 50q17 30 26 62q8 26 14 68
q2 11 6 69q1 33 -3 68v3q-1 7 -1 25z" />
    <glyph glyph-name="Otilde" unicode="&#xd5;" horiz-adv-x="624" 
d="M373 732q-9 0 -12 1q-21 1 -37.5 13.5t-35.5 38.5q-14 18 -22 26t-15 8q-31 -2 -35 -7q-4 -2 -11 -15.5t-10 -19.5v-1q-9 -17 -26 -17q-6 0 -13 3t-11.5 10.5t-4.5 15.5q0 6 3 12v1q10 20 18.5 34t18.5 22q13 10 29.5 14.5t41.5 4.5q24 0 42 -13t40 -42q24 -31 31 -31
q12 0 21.5 0.5t13.5 3.5q7 7 22 40l1 4q3 7 10.5 12t15.5 5q7 0 12 -3q8 -3 12.5 -10t4.5 -16q0 -4 -2 -12l-2 -3q-14 -30 -20.5 -41t-17.5 -20q-21 -18 -62 -18zM292 -24q-42 0 -78 14q-42 17 -70 40q-12 12 -22 26t-24 37q-19 32 -33 68q-15 42 -21 71q-5 31 -8 60l-2 11
q-4 37 -3 57v36q-2 38 2 58q7 37 21 70q1 2 1 5q17 41 39 70q30 38 58 57q43 30 72 37q16 5 32 6.5t46 1.5h2q51 0 88 -17t71 -54q26 -29 47 -72q15 -35 27 -79q5 -21 6.5 -33.5t1.5 -27.5q0 -14 1 -21q3 -31 3 -59q0 -46 -7 -93q-6 -47 -15 -76q-14 -42 -30 -74
q-27 -44 -51 -64q-28 -27 -72 -43q-36 -12 -82 -12zM241 639q-22 -6 -57 -30q-25 -17 -44 -45q-17 -21 -31 -56l-2 -5q-14 -37 -17 -58q-3 -13 -3 -49q1 -4 1 -19v-18q-2 -20 3 -49l1 -12q7 -49 8 -54q5 -22 19 -64q9 -27 28 -58q18 -33 37 -49q19 -17 50 -30q27 -10 58 -10
q35 0 63 9q30 10 52 31q24 19 39 50q17 30 26 62q8 26 14 68q2 11 6 69q1 33 -3 68v3q-1 7 -1 25q0 20 -7 48q-5 25 -23 68q-12 28 -39 59q-20 24 -51 39q-27 12 -64 12h-2q-45 0 -61 -5z" />
    <glyph glyph-name="Odieresis" unicode="&#xd6;" horiz-adv-x="631" 
d="M208 822q4 8 11 13q12 4 15 4q14 0 25 -13l4 -7q2 -8 2 -13q0 -13 -10 -22q-7 -7 -18 -7q-10 0 -18 6q-2 1 -4 4q-10 7 -10 21q0 8 3 14zM348 822q3 8 11 13q12 4 15 4q15 0 24 -13l4 -7q3 -4 3 -14q0 -13 -9 -21q-8 -7 -19 -7q-9 0 -18 6l-5 4q-9 8 -9 21q0 8 3 14z
M546 245q-5 -41 -16 -76q-14 -42 -30 -74q-24 -41 -51 -64q-29 -28 -72 -43q-36 -12 -82 -12q-42 0 -78 14q-45 18 -69 40q-13 12 -23 25.5t-24 37.5q-21 35 -32 68q-17 47 -22 71q-4 23 -5 39l-3 21l-1 11q-5 36 -4 57v36q-2 38 2 58q6 31 21 70l2 5q16 39 38 70
q28 36 58 57q43 30 73 37q16 5 31.5 6.5t45.5 1.5h3q52 0 87 -17q37 -16 71 -54q30 -33 47 -72q17 -35 27 -79q5 -21 6.5 -33.5t1.5 -27.5q0 -14 1 -21q3 -31 3 -59q0 -33 -6 -93zM491 418q0 19 -6 48q-9 36 -24 68q-9 23 -38 59q-23 26 -52 39q-27 12 -63 12h-5
q-43 0 -59 -5q-23 -6 -56 -30q-23 -15 -45 -45q-15 -18 -30 -56l-3 -5q-14 -37 -17 -58q-2 -9 -2 -49v-37q0 -24 3 -49l1 -12q6 -44 9 -54q7 -31 18 -64q9 -27 28 -58q16 -30 37 -49q19 -17 50 -30q27 -10 58 -10q35 0 63 9q30 10 52 31q24 19 39 50q16 28 27 62q8 32 13 68
q6 34 6 83q0 21 -1 35.5t-2 18.5v3q-1 7 -1 25z" />
    <glyph glyph-name="multiply" unicode="&#xd7;" horiz-adv-x="363" 
d="M277 258q-8 -8 -20 -8q-13 0 -20 8l-33 32q-5 6 -32 33l-12 11l-12 -12q-12 -11 -32 -32l-33 -33q-7 -8 -19 -8q-13 0 -21 8q-8 10 -8 20q0 11 8 21q12 11 32 32q5 5 14.5 15.5t18.5 17.5l11 11l-12 13l-33 31l-32 33q-9 9 -9 20q0 13 9 20q7 9 20 9q12 0 20 -9l32 -32
l34 -32l10 -11l12 13l66 64q8 9 20 9q13 0 20 -9q9 -9 9 -20t-9 -20q-23 -21 -32 -32l-45 -45l78 -78q9 -11 9 -21t-9 -19z" />
    <glyph glyph-name="Oslash" unicode="&#xd8;" horiz-adv-x="631" 
d="M547 247q-8 -48 -16 -76q-9 -33 -31 -73q-20 -37 -51 -65q-34 -31 -71 -43t-82 -12q-39 0 -78 15q-6 -16 -8 -20l-15 -43q-3 -9 -10.5 -14.5t-16.5 -5.5l-9 2q-9 3 -14 10t-5 16q0 7 1 10q5 16 9 27t7 18l9 26q-9 5 -18 14q-22 21 -46 62q-22 35 -33 68q-10 26 -21 71
q-5 26 -9 60l-1 12q-4 46 -4 56v36q0 43 3 58q2 23 21 70l2 5q14 40 38 70q27 37 58 57q42 29 72 38q16 5 33 6.5t45 1.5h2q44 0 80 -14l6 14q9 22 15 43q4 9 11 14.5t16 5.5q13 0 21 -8.5t8 -20.5l-2 -9q-8 -23 -11.5 -32.5t-4.5 -12.5l-9 -24q14 -10 29 -28q29 -34 47 -72
q16 -37 26 -79q10 -39 10 -83l1 -19q3 -15 3 -28l-1 -28q-1 -43 -6 -76zM184 78q1 0 1 2l14 46q7 20 11 30t6 16q10 23 16 42l14 44q2 4 4 10.5t4 10.5l7 24l13 43l14 46l15 45l16 44l14 44l14 45l16 45l7 20q-27 12 -62 12h-5q-40 0 -58 -6q-21 -6 -57 -29q-27 -20 -44 -45
q-18 -24 -31 -56l-2 -5q-15 -40 -18 -59q-2 -18 -2 -48v-38q0 -21 4 -49l1 -12q6 -44 8 -54q5 -24 18 -63q8 -22 29 -58q15 -27 33 -47zM495 374l-2 20v4q0 35 -8 70q-12 45 -23 69q-12 26 -39 58l-5 6l-1 -5q-11 -29 -15 -44l-15 -44l-9 -28l-5 -17l-16 -45l-14 -44
q-9 -23 -13 -43l-14 -46l-15 -44l-9 -29l-6 -16q-9 -28 -17 -47q-4 -8 -15 -41q-11 -31 -14 -44l-5 -17l3 -1q25 -11 58 -11q35 0 62 9q32 11 53 31q26 26 39 51q12 21 26 62q8 28 14 67q5 34 6 70l1 27z" />
    <glyph glyph-name="Ugrave" unicode="&#xd9;" horiz-adv-x="583" 
d="M333 752q-9 0 -15 3l-33 20q-14 6 -34 19q-4 1 -12 6.5t-22 13.5q-6 4 -14.5 9t-17.5 11q-14 8 -14 24q0 11 3 15q9 14 24 14q10 0 15 -4l34 -20l33 -20q21 -13 33 -18l34 -20q15 -9 15 -24q0 -5 -5 -15q-8 -14 -24 -14zM269 -24q-64 0 -107 26q-48 28 -77 80
q-23 41 -37 99q-8 40 -13 101l-2 41l2 30l3 30l4 67l1 33q3 36 3 50l2 50l2 34l1 16l2 51q1 11 9 18.5t20 7.5t20.5 -8.5t7.5 -21.5l-2 -49l-3 -51l-2 -50l-3 -50l-1 -32l-4 -70l-3 -30l-1 -27l1 -36q3 -49 12 -91q10 -48 31 -83q22 -40 55 -60q30 -18 79 -18q41 0 71 22
q35 28 53 63q22 48 30 83q10 33 17 89q5 40 5 66v25q0 35 1 52q0 6 0.5 17t0.5 31l1 51q0 6 0.5 17.5t0.5 32.5q0 40 -1 48q-2 34 -1 51q0 12 8.5 20.5t20.5 8.5q11 0 19.5 -8.5t8.5 -20.5q-1 -15 1 -49q0 -6 0.5 -17.5t0.5 -33.5l-1 -51q0 -6 -0.5 -17.5t-0.5 -32.5l-1 -49
q-1 -17 -1 -50v-25q0 -29 -5 -73q-9 -59 -18 -97q-17 -59 -35 -95q-27 -50 -70 -81q-46 -34 -105 -34z" />
    <glyph glyph-name="Uacute" unicode="&#xda;" horiz-adv-x="583" 
d="M218 750q-16 0 -25 14q-3 6 -3 15q0 16 14 24l33 20l34 20q26 15 35 18l32 19q4 3 15 3q16 0 24 -13q5 -10 5 -15q0 -16 -15 -25l-34 -18l-34 -19l-33 -20l-34 -19q-5 -4 -14 -4zM269 -24q-64 0 -107 26q-48 28 -77 80q-23 41 -37 99q-8 40 -13 101l-2 41l2 30l3 30l4 67
l1 33q3 36 3 50l2 50l2 34l1 16l2 51q1 11 9 18.5t20 7.5t20.5 -8.5t7.5 -21.5l-2 -49l-3 -51l-2 -50l-3 -50l-1 -32l-4 -70l-3 -30l-1 -27l1 -36q3 -49 12 -91q10 -48 31 -83q22 -40 55 -60q30 -18 79 -18q41 0 71 22q35 28 53 63q22 48 30 83q10 33 17 89q5 40 5 66v25
q0 35 1 52q0 6 0.5 17t0.5 31l1 51q0 6 0.5 17.5t0.5 32.5q0 40 -1 48q-2 34 -1 51q0 12 8.5 20.5t20.5 8.5q11 0 19.5 -8.5t8.5 -20.5q-1 -15 1 -49q0 -6 0.5 -17.5t0.5 -33.5l-1 -51q0 -6 -0.5 -17.5t-0.5 -32.5l-1 -49q-1 -17 -1 -50v-25q0 -29 -5 -73q-9 -59 -18 -97
q-17 -59 -35 -95q-27 -50 -70 -81q-46 -34 -105 -34z" />
    <glyph glyph-name="Ucircumflex" unicode="&#xdb;" horiz-adv-x="583" 
d="M132 764q0 13 9 20l62 62q27 27 39 36l26 23q8 8 20 8q6 0 9 -1q11 -5 15 -12l25 -27l58 -58l29 -30q8 -7 8 -20t-8 -20q-9 -9 -21 -9q-9 0 -20 9l-29 30l-29 29l-28 29l-11 12l-7 -6q-30 -27 -36 -33l-31 -31l-31 -30q-9 -9 -21 -9q-11 0 -20 9q-8 8 -8 19zM504.5 512.5
q-0.5 -11.5 -0.5 -32.5l-1 -49q-1 -17 -1 -50v-25q0 -29 -5 -73q-9 -59 -18 -97q-17 -59 -35 -95q-27 -50 -70 -81q-46 -34 -105 -34q-64 0 -107 26q-48 28 -77 80q-23 41 -37 99q-8 40 -13 101l-2 41l2 30l3 30l4 67l1 33q3 36 3 50l2 50l2 34l1 16l2 51q1 11 9 18.5
t20 7.5t20.5 -8.5t7.5 -21.5l-2 -49l-3 -51l-2 -50l-3 -50l-1 -32l-4 -70l-3 -30l-1 -27l1 -36q3 -49 12 -91q10 -48 31 -83q22 -40 55 -60q30 -18 79 -18q41 0 71 22q35 28 53 63q22 48 30 83q10 33 17 89q5 40 5 66v25q0 35 1 52q0 6 0.5 17t0.5 31l1 51q0 6 0.5 17.5
t0.5 32.5q0 40 -1 48q-2 34 -1 51q0 12 8.5 20.5t20.5 8.5q11 0 19.5 -8.5t8.5 -20.5q-1 -15 1 -49q0 -6 0.5 -17.5t0.5 -33.5l-1 -51q0 -6 -0.5 -17.5z" />
    <glyph glyph-name="Udieresis" unicode="&#xdc;" horiz-adv-x="583" 
d="M186 828q3 7 11 13q5 4 15 4q7 0 14 -3.5t10 -9.5q1 -1 2 -2.5t2 -4.5q3 -6 3 -13q0 -14 -11 -22q-7 -7 -18 -7q-9 0 -17 6l-5 3q-9 9 -9 22q0 8 3 14zM325 828q4 8 11 13q7 4 16 4q15 0 24 -13l4 -7q3 -6 3 -12q0 -13 -10 -23q-11 -7 -19 -7q-9 0 -18 6l-4 3
q-10 9 -10 22q0 8 3 14zM504.5 512.5q-0.5 -11.5 -0.5 -32.5l-1 -49q-1 -17 -1 -50v-25q0 -29 -5 -73q-9 -59 -18 -97q-17 -59 -35 -95q-27 -50 -70 -81q-46 -34 -105 -34q-64 0 -107 26q-48 28 -77 80q-23 41 -37 99q-8 40 -13 101l-2 41l2 30l3 30l4 67l1 33q3 36 3 50
l2 50l2 34l1 16l2 51q1 11 9 18.5t20 7.5t20.5 -8.5t7.5 -21.5l-2 -49l-3 -51l-2 -50l-3 -50l-1 -32l-4 -70l-3 -30l-1 -27l1 -36q3 -49 12 -91q10 -48 31 -83q22 -40 55 -60q30 -18 79 -18q41 0 71 22q35 28 53 63q22 48 30 83q10 33 17 89q5 40 5 66v25q0 35 1 52
q0 6 0.5 17t0.5 31l1 51q0 6 0.5 17.5t0.5 32.5q0 40 -1 48q-2 34 -1 51q0 12 8.5 20.5t20.5 8.5q11 0 19.5 -8.5t8.5 -20.5q-1 -15 1 -49q0 -6 0.5 -17.5t0.5 -33.5l-1 -51q0 -6 -0.5 -17.5z" />
    <glyph glyph-name="Yacute" unicode="&#xdd;" horiz-adv-x="554" 
d="M164 782q0 16 15 25l33 18q20 13 34 21l35 19l32 18q12 4 15 4q16 0 24 -14q4 -8 4 -15q0 -17 -14 -24l-35 -20l-33 -18l-33 -19l-34 -20q-8 -4 -14 -4q-16 0 -25 15q-4 10 -4 14zM474 671q-5 -8 -23 -47q-14 -33 -24 -51l-24 -48l-13 -24l-12 -23l-26 -49l-25 -46
l-24 -49l-20 -40q0 -33 1 -40l1 -48q0 -16 -2 -48q-2 -30 -2 -45v-92q0 -11 -8 -19.5t-20 -8.5t-20.5 8.5t-8.5 19.5v92q0 17 2 49q2 30 2 44l-1 45q-1 7 -1 40l-14 30l-7 15q-10 23 -15.5 33.5t-7.5 14.5l-48 98l-24 48q-2 4 -8 15t-17 34l-24 48q-15 28 -24 49q-4 5 -4 13
q0 18 17 26q6 3 13 3q8 0 14.5 -5t9.5 -12l25 -48l24 -49l9 -18l16 -30l72 -147l22 -44l11 23l11 21l26 49q14 23 24 45l25 48l25 49l22 47l24 50q3 7 10 11.5t15 4.5q7 0 13 -3q7 -3 11 -10t4 -16t-2 -13z" />
    <glyph glyph-name="Thorn" unicode="&#xde;" horiz-adv-x="409" 
d="M350 287q-4 -29 -11 -50q-7 -27 -22 -50q-13 -23 -40 -42q-24 -17 -51 -24h-1q-30 -9 -53 -9q-25 0 -61 12q-12 3 -21 10q1 -6 1 -34l-1 -48v-48q0 -11 -8.5 -19.5t-20.5 -8.5t-20 8.5t-8 19.5v97q0 30 -1 47q-2 32 -2 49l1 49l1 48q0 41 1 49v48q0 31 -1 46l-1 50
q0 17 2 51v142q0 12 8.5 20.5t20.5 8.5t20.5 -8t8.5 -21v-96q0 -27 -1 -33q20 12 41 16q28 6 48 6q27 0 57 -10q29 -12 49 -31q18 -16 34 -43q12 -26 20 -49q9 -23 10 -43l1 -9l2 -14q3 -15 3 -36q0 -8 -5 -51zM296 364l-2 18l-2 10q0 9 -7 31q-7 24 -16 37q-14 24 -23 30
q-12 11 -30 19q-21 7 -37 7q-15 0 -35 -5q-17 -4 -33 -13q-9 -3 -23 -17l1 -41q2 -32 2 -49l-1 -50q-1 -8 -1 -47l-1 -49l-1 -40q4 -1 10 -6q15 -15 34 -21q23 -9 41 -9q12 0 38 6v1q21 5 33 15q16 12 26 27q10 17 17 36q-1 -2 8 41q4 38 4 44q0 7 -2 25z" />
    <glyph glyph-name="germandbls" unicode="&#xdf;" horiz-adv-x="566" 
d="M488 104q-18 -38 -54 -79q-19 -20 -44 -33t-53 -16h-20q-46 0 -85 18q-30 15 -49 38t-24 50q-2 14 6 24t22 10q11 0 18.5 -6.5t9.5 -16.5q6 -28 42 -47q25 -13 60 -13q46 0 75 31q31 32 44 65q18 33 18 72q0 43 -17 71q-17 33 -49 53q-34 20 -66 28q-23 5 -41 5
q-10 0 -26 -2q-12 -3 -22 3.5t-12 18.5l-1 6q0 9 6 16l73 174q-31 17 -65 25q-24 4 -32 4q-22 0 -43 -9q-31 -14 -46 -54q-12 -27 -14 -40q-2 -12 -2 -40v-2q0 -20 -2 -60l-1 -49l-1 -53q0 -37 -1 -55l-1 -53l-3 -162q-1 -12 -9 -20t-19 -8h-1q-12 0 -20.5 8.5t-7.5 20.5
l2 108v26q0 22 1 27l3 162l1 51q2 40 2 57v3q0 32 2 50q9 27 18 50q24 62 75 85q34 14 66 14q23 0 47 -6q44 -10 95 -38q10 -7 11 -10q9 -9 9 -20q0 -6 -2 -12l-67 -159q27 -2 42 -6q44 -13 81 -35q45 -27 71 -75q23 -43 23 -98q0 -48 -23 -97z" />
    <glyph glyph-name="divide" unicode="&#xf7;" horiz-adv-x="436" 
d="M170 529q6 10 18 13h6q12 2 21 -3t12 -15q1 -4 1 -9q0 -17 -13 -26l-4 -1l-1 -1q-6 -3 -13 -3q-10 0 -15 4q-13 7 -16 19q-2 12 4 22zM349.5 358.5q-8.5 -8.5 -19.5 -8.5t-43 -2q-22 -2 -46 -2h-46q-7 1 -43 1l-44 -1q-30 0 -45 -1q-12 0 -20.5 8.5t-8.5 20.5
q-1 12 7.5 20t20.5 8q15 1 45 1l44 1q38 0 46 -1h43q14 0 42 2q24 2 48 2q12 0 20 -8t8 -21q0 -11 -8.5 -19.5zM228 229q0 -11 -10 -21q-8 -7 -19 -7q-10 0 -19 6l-4 3q-9 9 -9 22q0 7 3 14t11 13q12 4 15 4q17 0 24 -13l4 -7q4 -5 4 -14z" />
    <glyph glyph-name="middot" unicode="&#xb7;" horiz-adv-x="171" 
d="M84 352q-8 -7 -19 -7q-9 0 -18 6l-5 3q-9 11 -9 21t4 15q3 6 10 12q8 5 16 5q7 0 13.5 -4t9.5 -9q2 -2 5 -7q3 -6 3 -14q0 -14 -10 -21z" />
    <glyph glyph-name="Wcircumflex" unicode="&#x174;" horiz-adv-x="708" 
d="M193 753q0 12 9 21l15 14l16 17l31 30q14 16 39 37l26 22q9 9 20 9q3 0 9 -2q11 -5 15 -12l26 -26l57 -59l29 -30q8 -7 8 -20t-8 -20q-8 -8 -20 -8t-21 9l-28 29l-30 29l-28 30l-12 11l-5 -6q-22 -18 -37 -33l-31 -31l-31 -30q-8 -8 -20 -8q-13 0 -21 8t-8 19zM631 612
l-2 -34l-3 -47l-2 -47q-2 -33 -5 -49l-3 -46q-2 -30 -2 -46l-1 -49l-4 -94q-1 -19 -2.5 -31t-1.5 -18l-3 -47l-2 -46l-2 -39q1 -2 1 -8q0 -7 -4.5 -14t-11.5 -11l-2 -1q-6 -2 -12 -2h-1q-10 1 -18 7.5t-8 16.5l-19 38l-21 45q-5 10 -23 43l-24 46l-21 45l-13 28l-8 17
l-22 46l-21 45l-10 18l-11 21l-19 -38l-21 -44q-3 -5 -8.5 -17.5t-13.5 -27.5l-23 -44l-22 -43l-21 -43l-22 -46q-19 -37 -24 -44l-18 -36q-2 -9 -9 -15.5t-17 -7.5h-6l-8 3l-3 1q-7 4 -11.5 12.5t-3.5 16.5q-1 22 -4 40q-4 32 -4 48l-5 49q0 24 -3 46l-5 45q-4 14 -7 49
l-4 49l-4 47l-3 23l-2 24l-4 47q-2 17 -4 49l-4 46q-1 8 -2.5 19t-3.5 28l-6 48q-2 12 6.5 21.5t21.5 9.5q11 0 19 -7.5t10 -18.5l5 -46q3 -15 6 -48l2 -21l3 -27q2 -32 4 -47l4 -48l4 -47q2 -16 4 -48l4 -47q2 -10 3.5 -24t3.5 -21l6 -49q4 -31 4 -49l3 -46v-1l1 3
q13 24 21 44q2 4 8 16.5t14 27.5l23 44l22 45q16 29 22 43q9 20 22 45l21 43q9 20 22 45q8 15 25 15q5 0 13 -2q12 -6 14 -17q9 -20 22 -40l24 -47l22 -45l20 -45q19 -38 22 -45l22 -45q8 -17 13.5 -27t8.5 -16l8 -15q6 -10 10 -18l1 28q3 15 3 46l3 48l1 48q2 30 2 45
q0 17 2 49q0 6 1 21.5t3 27.5l4 46l2 47l4 48v26v19v50q1 11 9 19t20 8q11 0 20 -8.5t9 -20.5l-1 -47z" />
    <glyph glyph-name="Ycircumflex" unicode="&#x176;" horiz-adv-x="512" 
d="M88 772q0 14 11 23l31 25l31 24q21 18 39 30l26 18q6 5 18 5h9q8 -4 15 -11l23 -20l58 -48l29 -23q11 -9 11 -22q0 -10 -8 -18q-8 -11 -22 -11q-8 0 -18 7l-28 23l-30 24l-28 24l-13 11q-7 -5 -9 -7q-11 -6 -36 -26l-32 -25l-30 -24q-9 -7 -18 -7q-15 0 -23 11
q-6 6 -6 17zM455 671q-5 -8 -23 -47q-6 -18 -23 -51l-25 -48l-13 -24l-11 -23l-26 -49q-15 -25 -26 -46q-16 -32 -23 -49l-21 -40q0 -33 1 -40l1 -48q0 -16 -2 -48q-1 -15 -1 -45v-92q0 -11 -8.5 -19.5t-20.5 -8.5q-11 0 -19.5 8.5t-8.5 19.5v92q0 33 1 49q2 30 2 44l-1 45
q-1 7 -1 40l-14 30l-7 15q-17 37 -23 48l-23 49l-25 49l-24 48q-2 4 -8 15t-17 34q-2 4 -8 17.5t-16 30.5q-15 28 -24 49q-3 6 -3 13q0 19 16 26q6 3 13 3t14 -4.5t11 -12.5l24 -48l24 -49l9 -18l16 -30l48 -98l25 -49l21 -44l11 23l11 21l26 49q14 23 24 45q21 40 26 48
l24 49l10 20q12 25 12 27l24 50q3 7 10 11.5t15 4.5q7 0 13 -3q7 -3 11.5 -10.5t4.5 -15.5q0 -7 -3 -13z" />
    <glyph glyph-name="Wgrave" unicode="&#x1e80;" horiz-adv-x="708" 
d="M232 873q8 14 24 14q10 0 15 -4l34 -20q2 -1 33 -20q31 -17 33 -18l34 -20q14 -9 14 -24q0 -7 -4 -15q-9 -14 -24 -14q-9 0 -15 3l-33 20q-14 6 -34 19q-1 0 -34 20q-2 1 -33 20q-14 8 -14 24q0 10 4 15zM631 612l-2 -34l-3 -47l-2 -47q-2 -33 -5 -49l-3 -46
q-2 -30 -2 -46l-1 -49l-4 -94q-1 -19 -2.5 -31t-1.5 -18l-3 -47l-2 -46l-2 -39q1 -2 1 -8q0 -7 -4.5 -14t-11.5 -11l-2 -1q-6 -2 -12 -2h-1q-10 1 -18 7.5t-8 16.5l-19 38l-21 45q-5 10 -23 43l-24 46l-21 45l-13 28l-8 17l-22 46l-21 45l-10 18l-11 21l-19 -38l-21 -44
q-3 -5 -8.5 -17.5t-13.5 -27.5l-23 -44l-22 -43l-21 -43l-22 -46q-19 -37 -24 -44l-18 -36q-2 -9 -9 -15.5t-17 -7.5h-6l-8 3l-3 1q-7 4 -11.5 12.5t-3.5 16.5q-1 22 -4 40q-4 32 -4 48l-5 49q0 24 -3 46l-5 45q-4 14 -7 49l-4 49l-4 47l-3 23l-2 24l-4 47q-2 17 -4 49
l-4 46q-1 8 -2.5 19t-3.5 28l-6 48q-2 12 6.5 21.5t21.5 9.5q11 0 19 -7.5t10 -18.5l5 -46q3 -15 6 -48l2 -21l3 -27q2 -32 4 -47l4 -48l4 -47q2 -16 4 -48l4 -47q2 -10 3.5 -24t3.5 -21l6 -49q4 -31 4 -49l3 -46v-1l1 3q13 24 21 44q2 4 8 16.5t14 27.5l23 44l22 45
q16 29 22 43q9 20 22 45l21 43q9 20 22 45q8 15 25 15q5 0 13 -2q12 -6 14 -17q9 -20 22 -40l24 -47l22 -45l20 -45q19 -38 22 -45l22 -45q8 -17 13.5 -27t8.5 -16l8 -15q6 -10 10 -18l1 28q3 15 3 46l3 48l1 48q2 30 2 45q0 17 2 49q0 6 1 21.5t3 27.5l4 46l2 47l4 48v26
v19v50q1 11 9 19t20 8q11 0 20 -8.5t9 -20.5l-1 -47z" />
    <glyph glyph-name="Wacute" unicode="&#x1e82;" horiz-adv-x="708" 
d="M255 781q0 16 14 24l33 20l102 57q6 3 14 3q16 0 25 -14q3 -6 3 -15q0 -15 -14 -24q-31 -18 -35 -19l-32 -19l-34 -19l-33 -20q-6 -3 -15 -3q-8 0 -14.5 3.5t-9.5 10.5q-4 8 -4 15zM631 612l-2 -34l-3 -47l-2 -47q-2 -33 -5 -49l-3 -46q-2 -30 -2 -46l-1 -49l-4 -94
q-1 -19 -2.5 -31t-1.5 -18l-3 -47l-2 -46l-2 -39q1 -2 1 -8q0 -7 -4.5 -14t-11.5 -11l-2 -1q-6 -2 -12 -2h-1q-10 1 -18 7.5t-8 16.5l-19 38l-21 45q-5 10 -23 43l-24 46l-21 45l-13 28l-8 17l-22 46l-21 45l-10 18l-11 21l-19 -38l-21 -44q-3 -5 -8.5 -17.5t-13.5 -27.5
l-23 -44l-22 -43l-21 -43l-22 -46q-19 -37 -24 -44l-18 -36q-2 -9 -9 -15.5t-17 -7.5h-6l-8 3l-3 1q-7 4 -11.5 12.5t-3.5 16.5q-1 22 -4 40q-4 32 -4 48l-5 49q0 24 -3 46l-5 45q-4 14 -7 49l-4 49l-4 47l-3 23l-2 24l-4 47q-2 17 -4 49l-4 46q-1 8 -2.5 19t-3.5 28l-6 48
q-2 12 6.5 21.5t21.5 9.5q11 0 19 -7.5t10 -18.5l5 -46q3 -15 6 -48l2 -21l3 -27q2 -32 4 -47l4 -48l4 -47q2 -16 4 -48l4 -47q2 -10 3.5 -24t3.5 -21l6 -49q4 -31 4 -49l3 -46v-1l1 3q13 24 21 44q2 4 8 16.5t14 27.5l23 44l22 45q16 29 22 43q9 20 22 45l21 43q9 20 22 45
q8 15 25 15q5 0 13 -2q12 -6 14 -17q9 -20 22 -40l24 -47l22 -45l20 -45q19 -38 22 -45l22 -45q8 -17 13.5 -27t8.5 -16l8 -15q6 -10 10 -18l1 28q3 15 3 46l3 48l1 48q2 30 2 45q0 17 2 49q0 6 1 21.5t3 27.5l4 46l2 47l4 48v26v19v50q1 11 9 19t20 8q11 0 20 -8.5t9 -20.5
l-1 -47z" />
    <glyph glyph-name="Wdieresis" unicode="&#x1e84;" horiz-adv-x="708" 
d="M254 820q4 9 11 12q7 5 16 5q15 0 24 -13l3 -8q3 -6 3 -13q0 -13 -10 -22q-8 -6 -18 -6t-18 6l-5 3q-9 9 -9 22q0 8 3 14zM394 820q3 7 11 12t15 5t14 -4t10 -9l4 -8q3 -6 3 -12q0 -13 -10 -23q-9 -6 -19 -6q-8 0 -17 6l-5 3q-10 9 -10 21q0 7 4 15zM631 612l-2 -34
l-3 -47l-2 -47q-2 -33 -5 -49l-3 -46q-2 -30 -2 -46l-1 -49l-4 -94q-1 -19 -2.5 -31t-1.5 -18l-3 -47l-2 -46l-2 -39q1 -2 1 -8q0 -7 -4.5 -14t-11.5 -11l-2 -1q-6 -2 -12 -2h-1q-10 1 -18 7.5t-8 16.5l-19 38l-21 45q-5 10 -23 43l-24 46l-21 45l-13 28l-8 17l-22 46
l-21 45l-10 18l-11 21l-19 -38l-21 -44q-3 -5 -8.5 -17.5t-13.5 -27.5l-23 -44l-22 -43l-21 -43l-22 -46q-19 -37 -24 -44l-18 -36q-2 -9 -9 -15.5t-17 -7.5h-6l-8 3l-3 1q-7 4 -11.5 12.5t-3.5 16.5q-1 22 -4 40q-4 32 -4 48l-5 49q0 24 -3 46l-5 45q-4 14 -7 49l-4 49
l-4 47l-3 23l-2 24l-4 47q-2 17 -4 49l-4 46q-1 8 -2.5 19t-3.5 28l-6 48q-2 12 6.5 21.5t21.5 9.5q11 0 19 -7.5t10 -18.5l5 -46q3 -15 6 -48l2 -21l3 -27q2 -32 4 -47l4 -48l4 -47q2 -16 4 -48l4 -47q2 -10 3.5 -24t3.5 -21l6 -49q4 -31 4 -49l3 -46v-1l1 3q13 24 21 44
q2 4 8 16.5t14 27.5l23 44l22 45q16 29 22 43q9 20 22 45l21 43q9 20 22 45q8 15 25 15q5 0 13 -2q12 -6 14 -17q9 -20 22 -40l24 -47l22 -45l20 -45q19 -38 22 -45l22 -45q8 -17 13.5 -27t8.5 -16l8 -15q6 -10 10 -18l1 28q3 15 3 46l3 48l1 48q2 30 2 45q0 17 2 49
q0 6 1 21.5t3 27.5l4 46l2 47l4 48v26v19v50q1 11 9 19t20 8q11 0 20 -8.5t9 -20.5l-1 -47z" />
    <glyph glyph-name="Ygrave" unicode="&#x1ef2;" horiz-adv-x="512" 
d="M144 869q8 14 25 14q8 0 13 -4l17 -9l18 -12l32 -19l34 -19l33 -20q7 -3 11 -10t4 -14q0 -6 -4 -14q-3 -7 -10 -11t-15 -4q-3 0 -15 4q-25 16 -33 19l-33 20l-35 20l-32 20q-14 8 -14 24q0 7 4 15zM455 671q-5 -8 -23 -47q-6 -18 -23 -51l-25 -48l-13 -24l-11 -23
l-26 -49q-15 -25 -26 -46q-16 -32 -23 -49l-21 -40q0 -33 1 -40l1 -48q0 -16 -2 -48q-1 -15 -1 -45v-92q0 -11 -8.5 -19.5t-20.5 -8.5q-11 0 -19.5 8.5t-8.5 19.5v92q0 33 1 49q2 30 2 44l-1 45q-1 7 -1 40l-14 30l-7 15q-17 37 -23 48l-23 49l-25 49l-24 48q-2 4 -8 15
t-17 34q-2 4 -8 17.5t-16 30.5q-15 28 -24 49q-3 6 -3 13q0 19 16 26q6 3 13 3t14 -4.5t11 -12.5l24 -48l24 -49l9 -18l16 -30l48 -98l25 -49l21 -44l11 23l11 21l26 49q14 23 24 45q21 40 26 48l24 49l10 20q12 25 12 27l24 50q3 7 10 11.5t15 4.5q7 0 13 -3
q7 -3 11.5 -10.5t4.5 -15.5q0 -7 -3 -13z" />
    <glyph glyph-name="approxequal" unicode="&#x2248;" horiz-adv-x="409" 
d="M248 372h-12q-21 1 -36.5 13t-37.5 39q-14 19 -22 26.5t-14 7.5h-1q-29 -2 -35 -6q-6 -5 -12 -19l-9 -18v-1q-11 -16 -26 -16q-6 0 -12 3q-16 7 -16 26q0 5 2 13h1q12 25 19.5 36t17.5 20q13 10 29.5 14.5t41.5 4.5q23 0 40.5 -13.5t40.5 -42.5l14 -17q10 -13 17 -13h10
q20 0 25 5q5 2 13 19l9 20l2 4q10 16 26 16q7 0 11 -2q7 -3 12 -10.5t5 -15.5q0 -5 -3 -11l-1 -5q-15 -30 -21 -40.5t-17 -18.5q-21 -18 -61 -18zM248 233q-10 0 -12 1q-21 1 -36.5 13t-37.5 39q-14 18 -22 26t-15 8q-30 -2 -35 -7q-6 -3 -13 -18t-8 -18q-10 -17 -26 -17
q-6 0 -12 3q-16 7 -16 26q0 4 2 12l1 1q13 25 20 36t17 20q13 10 29.5 14.5t41.5 4.5q23 0 40.5 -13.5t40.5 -42.5q25 -30 31 -30h12q18 0 23 4q8 8 22 40l2 4q10 17 26 17q5 0 11 -3q7 -3 12 -10.5t5 -15.5q0 -5 -3 -11l-1 -4q-14 -30 -20.5 -41t-17.5 -19q-22 -19 -61 -19
z" />
    <glyph glyph-name="notequal" unicode="&#x2260;" horiz-adv-x="405" 
d="M337.5 297q-8.5 -8 -20.5 -8t-44 -2l-44 -1h-3q-16 0 -48 2q-22 2 -30 2l-9 -12l-32 -39l-32 -38q-8 -11 -22 -11q-10 0 -18 7q-11 8 -11 22q0 8 7 18l32 39l11 14q-5 -1 -31 -1q-12 1 -20 9t-8 20t8 20t20 8l45 1h34l5 6l17 21q6 6 15 18l17 22h-133q-12 0 -20 8.5
t-8 19.5q0 12 8 20.5t20 8.5h178q23 29 33 39l32 37q7 11 22 11q8 0 17 -7q11 -7 11 -22q0 -9 -6 -18q-22 -26 -34 -39l-3 -4h24q13 0 21 -8.5t8 -20.5t-8.5 -20t-20.5 -8q-15 0 -47 2q-4 1 -22 1q-5 -5 -8.5 -10.5t-4.5 -7.5q-27 -35 -32 -40l-10 -12q6 -1 33 -1l45 1
q30 2 46 2q13 0 21 -8.5t8 -20.5t-8.5 -20z" />
    <glyph glyph-name="lessequal" unicode="&#x2264;" horiz-adv-x="285" 
d="M33 450l9 4l21 17l30 22q14 12 31 23l29 22q5 5 17 5q16 0 23 -10q6 -9 6 -18q0 -16 -11 -22q-16 -14 -31 -23l-30 -22l-33 -25l11 -11l21 -17l31 -26l29 -24q11 -9 11 -23q0 -7 -7 -18q-10 -10 -22 -10q-11 0 -18 7q-20 16 -30 25q-5 4 -13 10.5t-17 15.5l-21 16l-40 35
q-11 9 -9 24q0 14 13 23zM218.5 208.5q-8.5 -8.5 -20.5 -8.5h-77q-34 0 -40 1h-38q-12 0 -20 8.5t-8 20.5t8 20.5t20 8.5l39 -1q7 -1 39 -1h77q12 0 20.5 -8t8.5 -21q0 -11 -8.5 -19.5z" />
    <glyph glyph-name="greaterequal" unicode="&#x2265;" horiz-adv-x="285" 
d="M38 533q8 12 22 12q9 0 18 -6l30 -24l28 -22l59 -45q9 -5 15 -16l1 -9q0 -14 -10 -23q-6 -6 -35 -29l-26 -20l-31 -26l-29 -25q-9 -6 -19 -6q-13 0 -22 10q-6 9 -6 18q0 15 10 22l30 25l31 25q11 10 27 23l6 4l-5 3l-30 23l-30 24l-29 22q-11 9 -11 23q0 11 6 17z
M219 205.5q-8 -8.5 -21 -8.5h-40q-5 1 -37 1h-39l-39 -1q-11 0 -19.5 8.5t-8.5 20.5t8.5 20t19.5 8q17 0 25.5 0.5t13.5 0.5h39q33 0 40 -1h37q13 0 21 -8.5t8 -20.5q0 -11 -8 -19.5z" />
    <glyph glyph-name="lozenge" unicode="&#x25ca;" horiz-adv-x="334" 
d="M272 373l-9 -30l-14 -40q-3 -5 -4.5 -10.5t-3.5 -9.5l-17 -45l-9 -21q-1 -3 -8 -22l-17 -44l-17 -43q-3 -8 -10 -13.5t-16 -5.5h-2q-9 0 -16 5.5t-10 13.5l-17 44l-16 43l-17 45l-16 43l-16 38q-10 21 -21 50l-1 10q0 12 8 21l23 51l9 19l16 35l25 56l21 43q1 17 18 25
q6 3 11 3q6 0 11 -3h3q15 -8 16 -23l21 -46q7 -19 23 -55l26 -54l23 -51l2 -4h1q3 -6 3 -13q0 -6 -3 -12zM211.5 367.5q1.5 4.5 3.5 13.5l-12 28l-9 19l-25 56l-23 50q-7 -17 -24 -50l-8 -17q-11 -24 -16 -38l-22 -50l-1 -2q8 -22 13 -31q6 -12 18 -43l16 -44l17 -44l7 -19
l7 19l18 44l17 44l21 58q1 2 2.5 6.5z" />
    <glyph glyph-name="Lslash" unicode="&#x141;" horiz-adv-x="564" 
d="M509 64.5q9 -8.5 9 -20.5q0 -11 -8 -19.5t-19 -9.5l-50 -3l-51 -4l-24 -1h-28q-18 0 -25 -1l-24 -1q-36 -2 -52 -2q-1 0 -8.5 -0.5t-32.5 -0.5l-10 -2h-1q-11 0 -20 9t-8 20q0 16 2 48l2 47v77l1 48l1 37l-90 -52q-6 -3 -14 -3q-17 0 -25 14q-4 8 -4 13q0 16 15 26l92 53
l27 15l1 40l3 47l2 64v74q0 28 2 70q2 30 2 46q0 12 8.5 20t20.5 8q11 0 19.5 -8t8.5 -20q0 -17 -2 -49q-2 -38 -2 -67v-75l-1 -48l-1 -17l-2 -48v-5l7 4q8 5 19 12t26 15q6 5 47 29l45 27l46 26q7 4 14 4q8 0 14.5 -4t10.5 -11q3 -6 3 -14q0 -17 -13 -24l-61 -35
q-7 -5 -31 -19q-40 -24 -44 -27l-47 -28l-39 -22l-1 -69l-1 -48v-78l-2 -47l-1 -15h21q16 0 50 2l24 1q7 1 28 1l48 1l102 8q12 0 21 -8.5z" />
    <glyph glyph-name="uni1E9E" unicode="&#x1e9e;" horiz-adv-x="566" 
d="M488 104q-18 -38 -54 -79q-19 -20 -44 -33t-53 -16h-20q-46 0 -85 18q-30 15 -49 38t-24 50q-2 14 6 24t22 10q11 0 18.5 -6.5t9.5 -16.5q6 -28 42 -47q25 -13 60 -13q46 0 75 31q31 32 44 65q18 33 18 72q0 43 -17 71q-17 33 -49 53q-34 20 -66 28q-23 5 -41 5
q-10 0 -26 -2q-12 -3 -22 3.5t-12 18.5l-1 6q0 9 6 16l73 174q-31 17 -65 25q-24 4 -32 4q-22 0 -43 -9q-31 -14 -46 -54q-12 -27 -14 -40q-2 -12 -2 -40v-2q0 -20 -2 -60l-1 -49l-1 -53q0 -37 -1 -55l-1 -53l-3 -162q-1 -12 -9 -20t-19 -8h-1q-12 0 -20.5 8.5t-7.5 20.5
l2 108v26q0 22 1 27l3 162l1 51q2 40 2 57v3q0 32 2 50q9 27 18 50q24 62 75 85q34 14 66 14q23 0 47 -6q44 -10 95 -38q10 -7 11 -10q9 -9 9 -20q0 -6 -2 -12l-67 -159q27 -2 42 -6q44 -13 81 -35q45 -27 71 -75q23 -43 23 -98q0 -48 -23 -97z" />
    <glyph glyph-name="P.ss01" horiz-adv-x="324" 
d="M243 205q-19 -31 -48 -43q-23 -11 -37 -15.5t-28 -4.5h-1q-11 0 -37 6q0 -20 1 -28v-91q0 -11 -8 -19t-20 -8h-1q-11 0 -19 8t-9 19q-1 17 -0.5 30t0.5 16v43l-2 45l-1 44v45q-1 7 -1 44l-3 43q-2 18 -2 24q-9 6 -11 16q-1 2 -1 8q0 10 6 17.5t16 9.5l14 3q31 7 49 7
q2 0 8.5 -0.5t23.5 -0.5q63 -6 97 -40q36 -33 36 -89q0 -52 -22 -89zM127 365l-27 2q-2 0 -16 -2l2 -21l3 -46q0 -38 1 -45l1 -44v-1q27 -9 38 -9q13 0 41 14q37 15 37 81q0 33 -17 48q-20 20 -63 23z" />
    <glyph glyph-name="a" unicode="a" 
d="M461.5 -14.5q-5.5 -7.5 -15.5 -9.5q-1 -1 -7 -1q-9 0 -17 5.5t-11 15.5q-11 40 -14 47q-8 24 -14 50q-6 19 -13 51l-14 48l-12 51l-1 9h-18q-3 0 -16 0.5t-28 -0.5q-22 0 -44 -2l-49 -3h-55l-15 -46l-15 -48l-16 -49l-17 -49l-16 -47q-3 -9 -10.5 -14t-16.5 -5h-9
q-9 3 -14.5 11t-5.5 17l2 9l16 48q9 22 17 48l15 48l16 49l12 36q-8 8 -8 20q-1 10 6 18t18 10l3 12l17 48l32 96q9 22 17 48l17 48l16 48q9 25 13 46q7 29 15 52q10 19 28 19l9 -1q12 -5 17 -17q1 -1 1 -4l14 -48q9 -23 15 -50l28 -98l12 -50l13 -48l14 -48q11 -38 14 -50
l1 -2q13 -8 13 -23q0 -8 -4 -13l3 -13l12 -48l13 -50l12 -49q8 -28 15 -47l15 -50v-8q0 -10 -5.5 -17.5zM318 339q-3 7 -15 49l-13 51q-2 14 -12 48l-14 49l-13 49l-1 5l-2 -5q-7 -24 -11 -34.5t-5 -14.5l-17 -47q-8 -25 -17 -49l-16 -47q-6 -20 -10 -31.5t-6 -17.5l-13 -40
h35l44 3q54 2 68 2h28z" />
    <glyph glyph-name="aacute" unicode="&#xe1;" 
d="M149 778q0 17 14 25l33 20l34 20q22 13 35 18l33 19q4 3 14 3q8 0 15 -3.5t10 -9.5q4 -12 4 -15q0 -16 -15 -25l-34 -18l-34 -19l-32 -20l-34 -19q-7 -4 -14 -4q-17 0 -26 14q-3 6 -3 14zM461.5 -14.5q-5.5 -7.5 -15.5 -9.5q-1 -1 -7 -1q-9 0 -17 5.5t-11 15.5
q-11 40 -14 47q-8 24 -14 50q-6 19 -13 51l-14 48l-12 51l-1 9h-18q-3 0 -16 0.5t-28 -0.5q-22 0 -44 -2l-49 -3h-55l-15 -46l-15 -48l-16 -49l-17 -49l-16 -47q-3 -9 -10.5 -14t-16.5 -5h-9q-9 3 -14.5 11t-5.5 17l2 9l16 48q9 22 17 48l15 48l16 49l12 36q-8 8 -8 20
q-1 10 6 18t18 10l3 12l17 48l32 96q9 22 17 48l17 48l16 48q9 25 13 46q7 29 15 52q10 19 28 19l9 -1q12 -5 17 -17q1 -1 1 -4l14 -48q9 -23 15 -50l28 -98l12 -50l13 -48l14 -48q11 -38 14 -50l1 -2q13 -8 13 -23q0 -8 -4 -13l3 -13l12 -48l13 -50l12 -49q8 -28 15 -47
l15 -50v-8q0 -10 -5.5 -17.5zM318 339q-3 7 -15 49l-13 51q-2 14 -12 48l-14 49l-13 49l-1 5l-2 -5q-7 -24 -11 -34.5t-5 -14.5l-17 -47q-8 -25 -17 -49l-16 -47q-6 -20 -10 -31.5t-6 -17.5l-13 -40h35l44 3q54 2 68 2h28z" />
    <glyph glyph-name="acircumflex" unicode="&#xe2;" 
d="M97 732q0 12 8 20l31 30l13 12l18 18q16 18 40 37l25 23q8 8 20 8q5 0 9 -2q10 -2 17 -13l24 -25q6 -8 29 -29l28 -30l30 -29q8 -10 8 -20q0 -12 -9 -21q-11 -8 -20 -8q-11 0 -20 9l-30 29q-12 15 -28 30q-23 21 -29 29l-11 12l-6 -6q-18 -15 -36 -34l-32 -31l-31 -30
q-8 -8 -20 -8t-20 8t-8 21zM461.5 -14.5q-5.5 -7.5 -15.5 -9.5q-1 -1 -7 -1q-9 0 -17 5.5t-11 15.5q-11 40 -14 47q-8 24 -14 50q-6 19 -13 51l-14 48l-12 51l-1 9h-18q-3 0 -16 0.5t-28 -0.5q-22 0 -44 -2l-49 -3h-55l-15 -46l-15 -48l-16 -49l-17 -49l-16 -47
q-3 -9 -10.5 -14t-16.5 -5h-9q-9 3 -14.5 11t-5.5 17l2 9l16 48q9 22 17 48l15 48l16 49l12 36q-8 8 -8 20q-1 10 6 18t18 10l3 12l17 48l32 96q9 22 17 48l17 48l16 48q9 25 13 46q7 29 15 52q10 19 28 19l9 -1q12 -5 17 -17q1 -1 1 -4l14 -48q9 -23 15 -50l28 -98l12 -50
l13 -48l14 -48q11 -38 14 -50l1 -2q13 -8 13 -23q0 -8 -4 -13l3 -13l12 -48l13 -50l12 -49q8 -28 15 -47l15 -50v-8q0 -10 -5.5 -17.5zM318 339q-3 7 -15 49l-13 51q-2 14 -12 48l-14 49l-13 49l-1 5l-2 -5q-7 -24 -11 -34.5t-5 -14.5l-17 -47q-8 -25 -17 -49l-16 -47
q-6 -20 -10 -31.5t-6 -17.5l-13 -40h35l44 3q54 2 68 2h28z" />
    <glyph glyph-name="adieresis" unicode="&#xe4;" 
d="M156 831q2 6 10 13q8 4 16 4q17 0 24 -13l4 -7q3 -6 3 -14q0 -12 -10 -21q-9 -6 -19 -6q-11 0 -18 5l-4 3q-9 9 -9 22q0 9 3 14zM295 831q5 8 11 13q8 4 15 4q16 0 25 -13q2 -4 4 -7q2 -4 2 -13q0 -13 -9 -22q-9 -6 -19 -6t-18 5l-4 3q-10 9 -10 22q0 7 3 14z
M461.5 -14.5q-5.5 -7.5 -15.5 -9.5q-1 -1 -7 -1q-9 0 -17 5.5t-11 15.5q-11 40 -14 47q-8 24 -14 50q-6 19 -13 51l-14 48l-12 51l-1 9h-18q-3 0 -16 0.5t-28 -0.5q-22 0 -44 -2l-49 -3h-55l-15 -46l-15 -48l-16 -49l-17 -49l-16 -47q-3 -9 -10.5 -14t-16.5 -5h-9
q-9 3 -14.5 11t-5.5 17l2 9l16 48q9 22 17 48l15 48l16 49l12 36q-8 8 -8 20q-1 10 6 18t18 10l3 12l17 48l32 96q9 22 17 48l17 48l16 48q9 25 13 46q7 29 15 52q10 19 28 19l9 -1q12 -5 17 -17q1 -1 1 -4l14 -48q9 -23 15 -50l28 -98l12 -50l13 -48l14 -48q11 -38 14 -50
l1 -2q13 -8 13 -23q0 -8 -4 -13l3 -13l12 -48l13 -50l12 -49q8 -28 15 -47l15 -50v-8q0 -10 -5.5 -17.5zM318 339q-3 7 -15 49l-13 51q-2 14 -12 48l-14 49l-13 49l-1 5l-2 -5q-7 -24 -11 -34.5t-5 -14.5l-17 -47q-8 -25 -17 -49l-16 -47q-6 -20 -10 -31.5t-6 -17.5l-13 -40
h35l44 3q54 2 68 2h28z" />
    <glyph glyph-name="agrave" unicode="&#xe0;" 
d="M172 872q9 14 26 14q5 0 13 -4q31 -18 35 -21l32 -19l34 -19l33 -20q7 -3 11 -9.5t4 -14.5q0 -6 -4 -14q-3 -7 -10 -11t-15 -4q-4 0 -14 4l-34 19l-33 20l-34 20l-33 20q-14 8 -14 25q0 8 3 14zM461.5 -14.5q-5.5 -7.5 -15.5 -9.5q-1 -1 -7 -1q-9 0 -17 5.5t-11 15.5
q-11 40 -14 47q-8 24 -14 50q-6 19 -13 51l-14 48l-12 51l-1 9h-18q-3 0 -16 0.5t-28 -0.5q-22 0 -44 -2l-49 -3h-55l-15 -46l-15 -48l-16 -49l-17 -49l-16 -47q-3 -9 -10.5 -14t-16.5 -5h-9q-9 3 -14.5 11t-5.5 17l2 9l16 48q9 22 17 48l15 48l16 49l12 36q-8 8 -8 20
q-1 10 6 18t18 10l3 12l17 48l32 96q9 22 17 48l17 48l16 48q9 25 13 46q7 29 15 52q10 19 28 19l9 -1q12 -5 17 -17q1 -1 1 -4l14 -48q9 -23 15 -50l28 -98l12 -50l13 -48l14 -48q11 -38 14 -50l1 -2q13 -8 13 -23q0 -8 -4 -13l3 -13l12 -48l13 -50l12 -49q8 -28 15 -47
l15 -50v-8q0 -10 -5.5 -17.5zM318 339q-3 7 -15 49l-13 51q-2 14 -12 48l-14 49l-13 49l-1 5l-2 -5q-7 -24 -11 -34.5t-5 -14.5l-17 -47q-8 -25 -17 -49l-16 -47q-6 -20 -10 -31.5t-6 -17.5l-13 -40h35l44 3q54 2 68 2h28z" />
    <glyph glyph-name="aring" unicode="&#xe5;" 
d="M195 870q10 15 26 24t35 9t38 -11q34 -23 34 -60q0 -22 -12 -39q-17 -24 -45 -30l-16 -2q-21 0 -37 10q-16 9 -25 25t-9 35q0 22 11 39zM239.5 817q5.5 -4 14.5 -4q11 0 18 6t6 16q-2 8 -10 13q-4 4 -14 4q-13 0 -16 -10q-4 -4 -4 -13q0 -8 5.5 -12zM461.5 -14.5
q-5.5 -7.5 -15.5 -9.5q-1 -1 -7 -1q-9 0 -17 5.5t-11 15.5q-11 40 -14 47q-8 24 -14 50q-6 19 -13 51l-14 48l-12 51l-1 9h-18q-3 0 -16 0.5t-28 -0.5q-22 0 -44 -2l-49 -3h-55l-15 -46l-15 -48l-16 -49l-17 -49l-16 -47q-3 -9 -10.5 -14t-16.5 -5h-9q-9 3 -14.5 11t-5.5 17
l2 9l16 48q9 22 17 48l15 48l16 49l12 36q-8 8 -8 20q-1 10 6 18t18 10l3 12l17 48l32 96q9 22 17 48l17 48l16 48q9 25 13 46q7 29 15 52q10 19 28 19l9 -1q12 -5 17 -17q1 -1 1 -4l14 -48q9 -23 15 -50l28 -98l12 -50l13 -48l14 -48q11 -38 14 -50l1 -2q13 -8 13 -23
q0 -8 -4 -13l3 -13l12 -48l13 -50l12 -49q8 -28 15 -47l15 -50v-8q0 -10 -5.5 -17.5zM318 339q-3 7 -15 49l-13 51q-2 14 -12 48l-14 49l-13 49l-1 5l-2 -5q-7 -24 -11 -34.5t-5 -14.5l-17 -47q-8 -25 -17 -49l-16 -47q-6 -20 -10 -31.5t-6 -17.5l-13 -40h35l44 3q54 2 68 2
h28z" />
    <glyph glyph-name="atilde" unicode="&#xe3;" horiz-adv-x="580" 
d="M131 811v1q14 26 20.5 36.5t16.5 18.5q23 19 71 19q24 0 41.5 -13.5t40.5 -42.5q23 -30 31 -30h9q21 0 26 5q4 3 11.5 19t9.5 20l2 4q10 17 27 17q12 0 19.5 -8.5t7.5 -20.5q0 -5 -2 -11l-2 -4q-11 -25 -18.5 -37.5t-18.5 -22.5q-21 -18 -62 -18h-12q-20 0 -36 12.5
t-37 39.5q-15 19 -22.5 26.5t-14.5 7.5h-1q-29 -2 -35 -6q-4 -2 -12 -19l-8 -18l-1 -1q-11 -16 -25 -16q-6 0 -12 3q-17 8 -17 27q0 6 3 12zM496.5 -14.5q-5.5 -7.5 -15.5 -9.5q-1 -1 -7 -1q-9 0 -17 5.5t-11 15.5q-11 40 -14 47q-3 9 -14 50q-6 19 -13 51l-13 48
q-9 31 -13 51l-1 9h-17q-3 0 -16.5 0.5t-28.5 -0.5q-22 0 -44 -2l-48 -3h-56l-15 -46l-15 -48l-16 -49l-17 -49l-16 -47q-3 -9 -10.5 -14t-16.5 -5h-9q-9 3 -14.5 11t-5.5 17l2 9l16 48q9 22 17 48l15 48l17 49l11 36q-8 8 -8 20q-1 10 6 18t18 10l52 156q9 22 17 48l17 48
l16 48q9 25 13 46q7 28 15 52q10 19 28 19l9 -1q12 -5 17 -17q1 -1 1 -4l14 -48q9 -23 15 -50l28 -98l12 -50l13 -48l14 -48q2 -5 15 -50v-2q13 -7 13 -23q0 -8 -4 -13l3 -13l12 -48l13 -50l12 -49q8 -28 15 -47l15 -50v-8q0 -10 -5.5 -17.5zM353 339q-7 18 -14 49l-14 51
q-1 13 -12 48l-14 49l-13 49l-1 5l-2 -5q-7 -24 -11 -34.5t-5 -14.5l-17 -47q-13 -42 -17 -49l-16 -47q-6 -20 -10 -31.5t-6 -17.5l-13 -40h35l44 3q54 2 68 2h28z" />
    <glyph glyph-name="ae" unicode="&#xe6;" horiz-adv-x="826" 
d="M721 1h-43q-17 0 -43 -2l-45 -1h-44q-6 0 -16 -0.5t-29 -0.5q-18 0 -28 -0.5t-15 -0.5q-31 0 -45 -1q-12 0 -20.5 8.5t-8.5 20.5q0 5 1 6q0 17 2 49v45q0 30 -1 46q-2 32 -2 49v21q-16 1 -30 0.5t-17 -0.5q-6 -1 -27 -1q-20 0 -27 1l-52 1l-49 3q-15 -27 -17 -33l-23 -42
l-22 -42l-11 -21l-11 -21l-13 -24l-11 -19l-23 -41q-3 -7 -9.5 -11.5t-14.5 -4.5q-6 0 -14 4q-7 3 -11 10t-4 15q0 9 4 14l22 42q10 16 15 27l8 15q16 28 22 41l22 43l23 42l9 19q4 6 13 24l69 126q-1 -1 23 41l23 43l23 41l20 41q11 27 21 45l24 43q15 27 22 41v1
q3 8 10.5 13t16.5 5l47 -2q17 0 23 -1l22 -1h91l46 -2l45 -1l27 -1l18 1h48q11 -1 19 -9.5t8 -20.5q0 -11 -8.5 -19.5t-20.5 -7.5h-45l-20 -1l-26 1q-31 0 -47 1q-18 0 -24 1l-21 1h-92l-39 2q1 -5 1 -19v-142q0 -30 1 -46l2 -48v-3q27 1 93 1h109q13 0 21 -8.5t8 -20.5
t-8.5 -20.5t-20.5 -8.5l-54 1h-55l-94 -1v-34q1 -17 0.5 -31t-0.5 -18q-1 -7 -1 -45q0 -15 2 -45q2 -34 2 -49l-1 -49l-2 -23h14q6 0 16.5 0.5t28.5 0.5l43 1h45l43 1q28 2 45 2h45q7 -1 43 -1q12 0 20.5 -8t8.5 -20t-8 -20t-20 -9q-38 0 -45 1zM386 406l-2 46q-1 16 -1 49
v94v27q-18 -30 -18 -31q-13 -26 -19 -41q-14 -34 -22 -45l-23 -43q-10 -16 -23 -40q-9 -18 -23 -44l-23 -40l-20 -38l103 -4l19 1q4 0 19 0.5t32 -0.5v63q1 7 1 46z" />
    <glyph glyph-name="b" unicode="b" horiz-adv-x="520" 
d="M458 167q-11 -48 -48 -103q-28 -43 -71 -71q-51 -29 -95 -33q-5 -1 -23 -1q-34 0 -75 9l-13 3q-31 8 -40 12q-8 2 -38 19q-12 8 -13 19q-1 2 -1 8l1 46v46q0 39 1 46l1 46v91q0 15 2 47l1 45q0 31 1 47l1 45l2 92l-1 44q-1 5 -1 26q-12 -1 -21 7.5t-9 21.5q0 11 7.5 19
t17.5 9q59 6 93 6l25 -1q77 -3 121 -19q38 -15 60 -37q33 -33 33 -83q0 -46 -29 -89q-14 -23 -35 -42l9 -2q45 -14 80 -52q43 -46 58 -103q7 -31 7 -54q0 -30 -8 -64zM107 626l1 -47q-1 -15 -1 -46l-1 -46q0 -15 -2 -47v-33q27 3 62 14q37 13 76 39q39 25 58 55q19 29 19 56
q0 10 -1 12q-1 20 -16 33q-11 12 -39 23q-42 16 -120 16q-30 0 -37 -1q0 -22 1 -28zM404 271q-13 44 -45 78q-24 26 -55 36q-19 6 -38 6l-29 -3l-5 -1q-37 -17 -48 -20q-39 -14 -82 -17v-1l-1 -46v-91l-1 -46v-46l-1 -46v-30l16 -8q5 -2 31 -9q5 -1 8.5 -2t5.5 -1
q32 -8 59 -8q16 0 20 1q35 3 70 25q33 22 53 53q33 50 40 86q7 33 7 51q0 19 -5 39z" />
    <glyph glyph-name="c" unicode="c" horiz-adv-x="525" 
d="M294 0q-42 0 -84 14q-37 13 -71 46q-28 24 -51 65q-26 47 -34 72q-9 27 -15 72l-1 6l-3 19q-5 29 -5 59l2 29q0 8 2 32l1 10l2 17q2 29 7 55q11 43 22 71q14 34 38 64q23 31 57 53q30 22 70 33q41 12 75 12q46 0 76 -10q28 -9 67 -42q9 -9 9 -21t-7 -20q-11 -9 -21 -9
q-9 0 -19 8q-26 22 -46 30q-22 7 -59 7q-26 0 -60 -10q-25 -7 -53 -24q-25 -18 -43 -41q-21 -28 -32 -53q-14 -37 -18 -61q-3 -9 -6 -47l-2 -17q-1 -2 -1 -10q-4 -42 -4 -56q0 -26 4 -50l4 -19v-6q8 -49 14 -63q7 -23 29 -62q18 -31 40 -52q23 -23 52 -33q25 -11 64 -11
q35 0 59 7q25 7 51 26q23 17 39 41q10 13 24 13q8 0 16 -5q12 -9 12 -24q0 -10 -5 -16q-24 -35 -53 -56q-32 -23 -68 -35q-27 -8 -75 -8z" />
    <glyph glyph-name="ccedilla" unicode="&#xe7;" horiz-adv-x="525" 
d="M495 115q0 -10 -5 -16q-24 -35 -53 -56q-32 -23 -68 -35q-27 -8 -75 -8q-11 0 -31 2q-7 -28 -13 -47q21 3 34 3q8 0 24 -2q48 -4 73 -36t25 -73q0 -53 -36 -85.5t-91 -32.5h-10q-65 6 -98 46q-6 6 -6 17q0 15 11 23q8 6 17 6q14 0 22 -11q16 -19 58 -24q19 -1 35.5 5
t24.5 16q8 11 10 19t2 13.5v7.5q0 44 -48 52q-2 1 -14 1q-15 0 -43 -5q-15 -3 -28 -3q-11 1 -19 10t-7 20l1 7l2 16l20 69q-36 14 -70 46q-28 24 -51 65q-26 47 -34 72q-9 27 -15 72l-1 6l-3 19q-5 29 -5 59l2 29q0 8 2 32l1 10l2 17q2 29 7 55q11 43 22 71q14 34 38 64
q23 31 57 53q30 22 70 33q41 12 75 12q46 0 76 -10q28 -9 67 -42q9 -9 9 -21t-7 -20q-11 -9 -21 -9q-9 0 -19 8q-26 22 -46 30q-22 7 -59 7q-26 0 -60 -10q-25 -7 -53 -24q-25 -18 -43 -41q-21 -28 -32 -53q-14 -37 -18 -61q-3 -9 -6 -47l-2 -17q-1 -2 -1 -10q-4 -42 -4 -56
q0 -26 4 -50l4 -19v-6q8 -49 14 -63q7 -23 29 -62q18 -31 40 -52q23 -23 52 -33q25 -11 64 -11q35 0 59 7q25 7 51 26q23 17 39 41q10 13 24 13q8 0 16 -5q12 -9 12 -24z" />
    <glyph glyph-name="d" unicode="d" horiz-adv-x="589" 
d="M511 299q-6 -48 -24 -102q-21 -52 -53 -92q-32 -37 -84 -64q-46 -25 -98 -36q-41 -9 -100 -12h-34h-44h-21q-12 1 -20.5 9.5t-7.5 20.5q0 10 6.5 17.5t15.5 9.5v70l1 47q1 8 1 47q0 20 0.5 31t0.5 17l1 46q0 39 -1 47v96q1 7 1 47v46q-1 7 -1 48q0 39 -1 47v19h-2
q-11 0 -19.5 8.5t-8.5 20.5q0 10 7 18t18 10h2q45 9 102 9q61 0 107 -9q62 -14 103 -37q43 -24 84 -74q33 -43 51 -98q16 -46 21 -106q1 -8 1 -32q0 -17 -4 -69zM457 396q-1 36 -18 93q-16 47 -42 79q-34 42 -67 59q-41 23 -87 31q-42 9 -95 9l-42 -1v-27q1 -7 1 -47
q0 -39 1 -46v-48q0 -40 -1 -49v-93l1 -48l-2 -94q0 -40 -1 -48q0 -6 -0.5 -17t-0.5 -30v-69q35 0 45 1q40 0 92 10q40 9 82 30q42 22 68 52q25 30 42 75q18 47 21 86q4 27 4 63q0 23 -1 29z" />
    <glyph glyph-name="eth" unicode="&#xf0;" horiz-adv-x="685" 
d="M607 299q-4 -42 -24 -102q-21 -52 -53 -92q-32 -37 -84 -64q-47 -26 -98 -36q-41 -9 -100 -12h-33h-45h-21q-12 1 -20 9.5t-7 20.5q0 10 6 17.5t16 9.5v117q1 8 1 47q0 20 0.5 31t0.5 17l1 46q0 39 -1 47v4h-39q-7 -1 -45 -1q-12 0 -20.5 8.5t-8.5 20.5q0 11 8.5 19.5
t19.5 8.5q38 0 45 1h40v35q1 7 1 47v46q-1 7 -1 48q0 39 -1 47v19h-1q-12 0 -20.5 8.5t-8.5 20.5q0 10 7 18t18 10h2q45 9 103 9q59 0 107 -9q60 -14 102 -37q42 -22 84 -74q35 -46 51 -98q18 -52 21 -106q1 -8 1 -32q0 -17 -4 -69zM553 396q-1 42 -18 93q-15 46 -41 79
q-36 42 -67 59q-43 23 -88 31q-40 9 -94 9l-43 -1v-27q1 -7 1 -47q0 -39 1 -46v-48q0 -40 -1 -49v-34h37l41 3l48 2q11 0 19.5 -8.5t8.5 -19.5q0 -12 -8.5 -20.5t-19.5 -8.5q-14 0 -26 -1t-16 -1l-47 -3h-37v-2l1 -48l-2 -94q0 -40 -1 -48v-116q34 0 45 1q39 0 91 10
q42 9 82 30q45 23 68 52q25 30 42 75t22 86q3 30 3 63q0 23 -1 29z" />
    <glyph glyph-name="e" unicode="e" horiz-adv-x="493" 
d="M446 13.5q-8 -8.5 -19 -8.5h-47q-7 1 -44 1l-44 -2l-46 -1q-15 -1 -45 -1h-45l-46 -1q-6 0 -16 -0.5t-29 -0.5q-12 0 -20 8t-8 21v2q0 10 9 19v12q0 18 1 22l1 45l-1 45l-3 49l1 49q1 7 1 45v94q0 14 -2 46q0 19 -1 26l-1 22q0 20 0.5 31t0.5 17q0 3 0.5 17t-0.5 30v46
q-1 4 -1 23q-10 1 -16.5 9.5t-5.5 18.5q0 12 8.5 20.5t19.5 7.5q17 0 47 -2l45 -1h45l47 -1q16 0 46 -2h23l22 -1h45q4 1 19 1q20 0 27 -1q13 0 21 -8.5t8 -20.5q-1 -12 -9.5 -20t-19.5 -8q-8 1 -27 1q-14 0 -18 -1h-47l-46 1q-34 2 -46 2q-15 1 -45 1h-46q-13 1 -39 1v-66
q1 -17 0.5 -31t-0.5 -17v-46l1 -46q2 -32 2 -48v-3l94 1q45 0 54 -1h55q12 0 20 -8.5t8 -19.5q0 -12 -8 -20.5t-20 -8.5h-55q-9 1 -54 1l-62 -1h-32v-35q0 -40 -1 -48l-1 -46l3 -45l1 -49l-1 -49q-1 -4 -1 -22h6l46 1q38 0 45 1h45q37 0 45 1q4 1 23 1l22 1q39 0 47 -1h44
q12 0 20 -8t8 -21q0 -11 -8 -19.5z" />
    <glyph glyph-name="eacute" unicode="&#xe9;" horiz-adv-x="486" 
d="M151 787q0 8 4 15t10 10l33 19l33 20l36 20l32 17q10 5 15 5q8 0 14.5 -4t9.5 -11q4 -8 4 -15q0 -16 -14 -24l-35 -19l-33 -19q-27 -14 -33 -19l-34 -19q-4 -4 -14 -4q-16 0 -25 14q-3 6 -3 14zM446 13.5q-8 -8.5 -19 -8.5h-47q-7 1 -44 1l-44 -2l-46 -1q-15 -1 -45 -1
h-45l-46 -1q-6 0 -16 -0.5t-29 -0.5q-12 0 -20 8t-8 21v2q0 10 9 19v12q0 18 1 22l1 45l-1 45l-3 49l1 49q1 7 1 45v94q0 14 -2 46q0 19 -1 26l-1 22q0 20 0.5 31t0.5 17q0 3 0.5 17t-0.5 30v46q-1 4 -1 23q-10 1 -16.5 9.5t-5.5 18.5q0 12 8.5 20.5t19.5 7.5q17 0 47 -2
l45 -1h45l47 -1q16 0 46 -2h23l22 -1h45q4 1 19 1q20 0 27 -1q13 0 21 -8.5t8 -20.5q-1 -12 -9.5 -20t-19.5 -8q-8 1 -27 1q-14 0 -18 -1h-47l-46 1q-34 2 -46 2q-15 1 -45 1h-46q-13 1 -39 1v-66q1 -17 0.5 -31t-0.5 -17v-46l1 -46q2 -32 2 -48v-3l94 1q45 0 54 -1h55
q12 0 20 -8.5t8 -19.5q0 -12 -8 -20.5t-20 -8.5h-55q-9 1 -54 1l-62 -1h-32v-35q0 -40 -1 -48l-1 -46l3 -45l1 -49l-1 -49q-1 -4 -1 -22h6l46 1q38 0 45 1h45q37 0 45 1q4 1 23 1l22 1q39 0 47 -1h44q12 0 20 -8t8 -21q0 -11 -8 -19.5z" />
    <glyph glyph-name="ecircumflex" unicode="&#xea;" horiz-adv-x="486" 
d="M93 787q0 13 10 22l31 24q4 2 8 6t9 7l14 11q12 11 40 31q19 12 25 18q7 5 18 5l9 -1q9 -4 15 -11q16 -14 24 -19l28 -24l30 -24q6 -6 28 -23q11 -8 11 -23q0 -8 -7 -17q-7 -11 -22 -11q-12 0 -18 6l-29 24q-11 7 -29 24l-29 23q-4 5 -13 11l-8 -6q-19 -12 -37 -27
q-9 -8 -17 -13.5t-14 -11.5l-31 -24q-11 -7 -18 -7q-14 0 -22 11q-6 8 -6 19zM446 13.5q-8 -8.5 -19 -8.5h-47q-7 1 -44 1l-44 -2l-46 -1q-15 -1 -45 -1h-45l-46 -1q-6 0 -16 -0.5t-29 -0.5q-12 0 -20 8t-8 21v2q0 10 9 19v12q0 18 1 22l1 45l-1 45l-3 49l1 49q1 7 1 45v94
q0 14 -2 46q0 19 -1 26l-1 22q0 20 0.5 31t0.5 17q0 3 0.5 17t-0.5 30v46q-1 4 -1 23q-10 1 -16.5 9.5t-5.5 18.5q0 12 8.5 20.5t19.5 7.5q17 0 47 -2l45 -1h45l47 -1q16 0 46 -2h23l22 -1h45q4 1 19 1q20 0 27 -1q13 0 21 -8.5t8 -20.5q-1 -12 -9.5 -20t-19.5 -8
q-8 1 -27 1q-14 0 -18 -1h-47l-46 1q-34 2 -46 2q-15 1 -45 1h-46q-13 1 -39 1v-66q1 -17 0.5 -31t-0.5 -17v-46l1 -46q2 -32 2 -48v-3l94 1q45 0 54 -1h55q12 0 20 -8.5t8 -19.5q0 -12 -8 -20.5t-20 -8.5h-55q-9 1 -54 1l-62 -1h-32v-35q0 -40 -1 -48l-1 -46l3 -45l1 -49
l-1 -49q-1 -4 -1 -22h6l46 1q38 0 45 1h45q37 0 45 1q4 1 23 1l22 1q39 0 47 -1h44q12 0 20 -8t8 -21q0 -11 -8 -19.5z" />
    <glyph glyph-name="edieresis" unicode="&#xeb;" horiz-adv-x="546" 
d="M160 841q4 8 10 13q10 4 16 4q18 0 24 -13l4 -7q3 -6 3 -14q0 -12 -10 -21q-9 -6 -19 -6t-18 5l-4 3q-9 9 -9 22q0 9 3 14zM299 841q5 8 11 13q8 4 15 4q16 0 25 -13q1 -2 4 -7q2 -4 2 -13q0 -13 -9 -22q-9 -6 -19 -6q-11 0 -18 5l-4 3q-10 9 -10 22q0 7 3 14zM461 13.5
q-8 -8.5 -20 -8.5h-46q-8 1 -44 1l-44 -2q-6 0 -17 -0.5t-30 -0.5q-14 -1 -45 -1h-45l-45 -1q-6 0 -16 -0.5t-29 -0.5q-12 0 -20.5 8t-8.5 21v2q0 8 9 19v12q0 18 1 22q2 32 2 45t-2 45l-2 49l1 49v139q0 30 -1 46q0 19 -1 26l-1 22q0 20 0.5 31t0.5 17q0 3 0.5 17t-0.5 30
v46q-1 4 -1 23q-10 2 -17 10t-6 18q0 12 8.5 20.5t20.5 7.5q17 0 47 -2l44 -1h46l46 -1q15 0 47 -2h23l22 -1h45q4 1 18 1q21 0 28 -1q12 0 20.5 -8.5t8.5 -20.5q-1 -12 -9.5 -20t-20.5 -8q-7 1 -26 1q-15 0 -19 -1h-46l-47 1q-32 2 -45 2q-15 1 -45 1h-47q-12 1 -39 1
l1 -19v-47q1 -17 0.5 -31t-0.5 -17l-1 -46l2 -46q1 -16 1 -48v-3l94 1q46 0 55 -1h55q12 0 20 -8.5t8 -19.5q0 -12 -8 -20.5t-20 -8.5h-55q-9 1 -55 1l-61 -1h-33v-83l-1 -46l2 -45q2 -32 2 -49t-2 -49q-1 -4 -1 -22h7l46 1q37 0 45 1h44q38 0 45 1q4 1 24 1l22 1
q39 0 46 -1h44q12 0 20.5 -8t8.5 -21q0 -11 -8 -19.5z" />
    <glyph glyph-name="egrave" unicode="&#xe8;" horiz-adv-x="486" 
d="M155 880q9 14 25 14q8 0 14 -3l35 -20q16 -13 31 -20l34 -20l34 -18q14 -9 14 -26q0 -6 -3 -14q-9 -14 -26 -14q-8 0 -13 4l-68 38l-34 21q-18 12 -32 19q-15 9 -15 25q0 4 4 14zM446 13.5q-8 -8.5 -19 -8.5h-47q-7 1 -44 1l-44 -2l-46 -1q-15 -1 -45 -1h-45l-46 -1
q-6 0 -16 -0.5t-29 -0.5q-12 0 -20 8t-8 21v2q0 10 9 19v12q0 18 1 22l1 45l-1 45l-3 49l1 49q1 7 1 45v94q0 14 -2 46q0 19 -1 26l-1 22q0 20 0.5 31t0.5 17q0 3 0.5 17t-0.5 30v46q-1 4 -1 23q-10 1 -16.5 9.5t-5.5 18.5q0 12 8.5 20.5t19.5 7.5q17 0 47 -2l45 -1h45
l47 -1q16 0 46 -2h23l22 -1h45q4 1 19 1q20 0 27 -1q13 0 21 -8.5t8 -20.5q-1 -12 -9.5 -20t-19.5 -8q-8 1 -27 1q-14 0 -18 -1h-47l-46 1q-34 2 -46 2q-15 1 -45 1h-46q-13 1 -39 1v-66q1 -17 0.5 -31t-0.5 -17v-46l1 -46q2 -32 2 -48v-3l94 1q45 0 54 -1h55q12 0 20 -8.5
t8 -19.5q0 -12 -8 -20.5t-20 -8.5h-55q-9 1 -54 1l-62 -1h-32v-35q0 -40 -1 -48l-1 -46l3 -45l1 -49l-1 -49q-1 -4 -1 -22h6l46 1q38 0 45 1h45q37 0 45 1q4 1 23 1l22 1q39 0 47 -1h44q12 0 20 -8t8 -21q0 -11 -8 -19.5z" />
    <glyph glyph-name="f" unicode="f" horiz-adv-x="476" 
d="M436.5 683.5q-8.5 -8.5 -19.5 -8.5q-39 0 -46 -1l-46 -1q-39 0 -46 -1t-47 -1h-6q-34 0 -42 1l-44 1l-40 -1q0 -33 -1 -40q0 -3 -0.5 -16t0.5 -30q0 -39 -1 -47v-46l1 -45v-23l32 2q16 0 44 -2q26 -2 38 -2q34 0 41 1h40q12 0 20.5 -8t8.5 -20t-8 -20.5t-21 -8.5h-39
q-8 -1 -42 -1q-15 0 -43 2q-13 1 -39 1q-19 0 -24.5 -0.5t-6.5 -0.5l1 -12l3 -48q0 -17 -2 -49q-1 -7 -1 -44q0 -15 2 -45l1 -48v-49q-2 -30 -1 -44q0 -12 -8.5 -20.5t-20.5 -8.5q-11 0 -19.5 8.5t-8.5 20.5q-1 15 1 48v45l-1 44q-2 32 -2 49q0 16 2 48q0 6 0.5 16t0.5 29
q0 26 -3 44l-1 13q-9 3 -15.5 11t-6.5 17q0 10 5.5 18t15.5 10v25l-1 47v48q1 10 1 66v66q-10 2 -16.5 9.5t-6.5 17.5q0 12 8 20.5t20 8.5h46q6 0 17 0.5t30 0.5l47 -1q7 -1 45 -1q37 0 45 1t47 1l46 1q7 1 46 1q12 0 20.5 -8.5t8.5 -20.5q0 -11 -8.5 -19.5z" />
    <glyph glyph-name="g" unicode="g" horiz-adv-x="627" 
d="M559 277q-5 -40 -15 -78q-10 -39 -28 -76q-24 -40 -53 -66q-32 -27 -76 -42q-30 -8 -47 -11.5t-35 -3.5q-39 0 -84 15q-43 13 -77 41q-25 22 -53 66q-15 23 -33 75q-20 61 -22 78q-6 42 -6 59q1 5 1 22q0 42 2 72q6 43 14 73q7 34 22 72q21 46 40 66q23 30 59 53
q28 16 73 28q40 10 76 10q47 0 76 -10q41 -12 70 -38q9 -9 9 -22q0 -11 -7 -19q-9 -9 -21 -9q-10 0 -20 7q-20 18 -49 27q-25 7 -58 7q-25 0 -62 -8q-43 -13 -57 -21q-27 -17 -45 -41q-16 -21 -31 -54q-12 -24 -20 -61q-11 -41 -11 -65q-3 -21 -3 -67q0 -19 -1 -23
q0 -19 5 -48q6 -26 11 -42l9 -28q14 -42 28 -63q20 -34 42 -52q19 -18 57 -31q36 -12 66 -12t65 13q29 9 55 30q25 24 41 51q12 24 23 64q6 21 13 69q2 14 5 51h-18q-4 -1 -24 -1h-90h-27h-1q-11 0 -19.5 8t-8.5 19q0 13 8 21.5t20 8.5q17 1 31 0.5t18 -0.5h26l66 1l47 1
q12 1 20.5 -7t8.5 -21v-9q0 -39 -5 -79z" />
    <glyph glyph-name="h" unicode="h" horiz-adv-x="564" 
d="M478 227v-47l-1 -47l-1 -49q-2 -32 -2 -46q0 -11 -8.5 -19.5t-20.5 -8.5t-20 8.5t-8 20.5l1 48q2 34 2 46l1 47v48q0 38 -1 45v45h-61l-50 1h-49q-17 1 -31.5 0.5t-17.5 -0.5h-50q-14 0 -48 -2l1 -43l1 -50l2 -98q0 -41 -1 -49l-1 -48q1 -12 -7.5 -20.5t-20.5 -8.5h-1
q-11 0 -19 8t-9 21l1 49q1 8 1 48l-1 49l-1 48q0 41 -1 49l-1 45q-10 2 -16.5 10t-6.5 18t6 17.5t16 10.5q-2 30 -2 46q0 43 1 51q1 6 1 29q0 40 -1 47v19q-1 5 -1 26l-1 24v49l-1 49q0 11 8.5 19.5t20.5 8.5t20.5 -8t8.5 -20v-97l2 -48l1 -50q1 -17 -1 -51q-1 -8 -1 -47
q0 -14 2 -46q30 2 50 2h48q4 0 18.5 0.5t31.5 -0.5h50l49 -1h62l1 41q0 40 1 47v190q1 8 1 46q1 12 9.5 20.5t20.5 8.5q11 0 19.5 -8.5t7.5 -20.5q0 -41 -1 -48v-189q-1 -7 -1 -46q0 -20 -0.5 -31t-0.5 -17v-2q9 -7 9 -20q-2 -14 -10 -21v-49q1 -8 1 -49z" />
    <glyph glyph-name="i" unicode="i" horiz-adv-x="290" 
d="M206.5 674q-8.5 -8 -19.5 -8h-2l-45 2l-1 -24q-1 -9 -1 -65v-26q1 -8 1 -48q0 -41 -1 -49q-1 -7 -1 -46q0 -38 1 -46t1 -48q0 -41 -1 -49t-1 -46t1 -46t1 -49v-48q-1 -4 -1 -20q7 -1 33 -1q13 0 21 -8.5t8 -20.5q-1 -12 -9 -20t-20 -8h-1l-107 2q-12 0 -20.5 8.5
t-8.5 19.5q0 12 8.5 20.5t20.5 8.5h18q0 16 1 20v47q0 39 -1 46q-1 8 -1 49t1 48q1 8 1 47q0 38 -1 45q-1 8 -1 49l1 48q1 9 1 47t-1 46v27l1 70q1 5 1 22l-25 2q-12 1 -20 9t-8 20t9 20.5t21 7.5l65 -3q7 0 25.5 -1.5t37.5 -1.5q11 -1 19 -9t8 -20t-8.5 -20z" />
    <glyph glyph-name="iacute" unicode="&#xed;" horiz-adv-x="290" 
d="M224.5 848q-3.5 -7 -9.5 -10l-102 -57l-33 -20q-12 -4 -15 -4q-8 0 -14.5 4t-9.5 11q-4 8 -4 15q0 15 14 24l33 19q20 13 34 19l35 20l33 18q12 4 15 4q15 0 24 -14q3 -4 3 -15q0 -7 -3.5 -14zM206.5 674q-8.5 -8 -19.5 -8h-2l-45 2l-1 -24q-1 -9 -1 -65v-26q1 -8 1 -48
q0 -41 -1 -49q-1 -7 -1 -46q0 -38 1 -46t1 -48q0 -41 -1 -49t-1 -46t1 -46t1 -49v-48q-1 -4 -1 -20q7 -1 33 -1q13 0 21 -8.5t8 -20.5q-1 -12 -9 -20t-20 -8h-1l-107 2q-12 0 -20.5 8.5t-8.5 19.5q0 12 8.5 20.5t20.5 8.5h18q0 16 1 20v47q0 39 -1 46q-1 8 -1 49t1 48
q1 8 1 47q0 38 -1 45q-1 8 -1 49l1 48q1 9 1 47t-1 46v27l1 70q1 5 1 22l-25 2q-12 1 -20 9t-8 20t9 20.5t21 7.5l65 -3q7 0 25.5 -1.5t37.5 -1.5q11 -1 19 -9t8 -20t-8.5 -20z" />
    <glyph glyph-name="icircumflex" unicode="&#xee;" horiz-adv-x="290" 
d="M258 756q-8 -11 -22 -11q-8 0 -18 7l-29 23q-12 11 -29 24l-29 24l-13 11l-8 -6q-19 -12 -37 -27l-31 -25l-12.5 -10t-18.5 -15q-6 -6 -18 -6q-14 0 -22 11q-6 9 -6 18q0 13 10 22l32 24l30 26l65 47q8 6 18 6l9 -1q9 -3 14 -11l25 -20l28 -24l30 -24l28 -23
q11 -9 11 -22q0 -7 -7 -18zM206.5 674q-8.5 -8 -19.5 -8h-2l-45 2l-1 -24q-1 -9 -1 -65v-26q1 -8 1 -48q0 -41 -1 -49q-1 -7 -1 -46q0 -38 1 -46t1 -48q0 -41 -1 -49t-1 -46t1 -46t1 -49v-48q-1 -4 -1 -20q7 -1 33 -1q13 0 21 -8.5t8 -20.5q-1 -12 -9 -20t-20 -8h-1l-107 2
q-12 0 -20.5 8.5t-8.5 19.5q0 12 8.5 20.5t20.5 8.5h18q0 16 1 20v47q0 39 -1 46q-1 8 -1 49t1 48q1 8 1 47q0 38 -1 45q-1 8 -1 49l1 48q1 9 1 47t-1 46v27l1 70q1 5 1 22l-25 2q-12 1 -20 9t-8 20t9 20.5t21 7.5l65 -3q7 0 25.5 -1.5t37.5 -1.5q11 -1 19 -9t8 -20
t-8.5 -20z" />
    <glyph glyph-name="idieresis" unicode="&#xef;" horiz-adv-x="290" 
d="M24 817q0 9 3 15q3 7 11 12t16 5q7 0 13.5 -4t9.5 -10l4 -7q4 -5 4 -14q0 -11 -10 -21q-9 -6 -20 -6q-9 0 -17 5l-5 4q-9 8 -9 21zM167 832q3 7 11 12t16 5q15 0 24 -14q0 -3 4 -7q2 -8 2 -13q0 -13 -10 -22q-7 -6 -18 -6q-12 0 -18 5l-5 4q-9 8 -9 22q0 8 3 14z
M206.5 674q-8.5 -8 -19.5 -8h-2l-45 2l-1 -24q-1 -9 -1 -65v-26q1 -8 1 -48q0 -41 -1 -49q-1 -7 -1 -46q0 -38 1 -46t1 -48q0 -41 -1 -49t-1 -46t1 -46t1 -49v-48q-1 -4 -1 -20q7 -1 33 -1q13 0 21 -8.5t8 -20.5q-1 -12 -9 -20t-20 -8h-1l-107 2q-12 0 -20.5 8.5t-8.5 19.5
q0 12 8.5 20.5t20.5 8.5h18q0 16 1 20v47q0 39 -1 46q-1 8 -1 49t1 48q1 8 1 47q0 38 -1 45q-1 8 -1 49l1 48q1 9 1 47t-1 46v27l1 70q1 5 1 22l-25 2q-12 1 -20 9t-8 20t9 20.5t21 7.5l65 -3q7 0 25.5 -1.5t37.5 -1.5q11 -1 19 -9t8 -20t-8.5 -20z" />
    <glyph glyph-name="igrave" unicode="&#xec;" horiz-adv-x="290" 
d="M85 812q-9 6 -12 7l-33 20q-14 8 -14 25q0 9 4 14q8 14 25 14q6 0 14 -4q26 -15 34 -21l66 -38l34 -20q7 -3 10.5 -9.5t3.5 -14.5q0 -9 -4 -14q-3 -7 -9.5 -11t-14.5 -4q-3 0 -15 4l-33 19l-34 20q-13 7 -22 13zM206.5 674q-8.5 -8 -19.5 -8h-2l-45 2l-1 -24
q-1 -9 -1 -65v-26q1 -8 1 -48q0 -41 -1 -49q-1 -7 -1 -46q0 -38 1 -46t1 -48q0 -41 -1 -49t-1 -46t1 -46t1 -49v-48q-1 -4 -1 -20q7 -1 33 -1q13 0 21 -8.5t8 -20.5q-1 -12 -9 -20t-20 -8h-1l-107 2q-12 0 -20.5 8.5t-8.5 19.5q0 12 8.5 20.5t20.5 8.5h18q0 16 1 20v47
q0 39 -1 46q-1 8 -1 49t1 48q1 8 1 47q0 38 -1 45q-1 8 -1 49l1 48q1 9 1 47t-1 46v27l1 70q1 5 1 22l-25 2q-12 1 -20 9t-8 20t9 20.5t21 7.5l65 -3q7 0 25.5 -1.5t37.5 -1.5q11 -1 19 -9t8 -20t-8.5 -20z" />
    <glyph glyph-name="j" unicode="j" horiz-adv-x="506" 
d="M211 -24q-73 0 -120 26q-58 33 -71 109q-4 24 -4 85v28q-1 13 7.5 21.5t19.5 8.5q12 0 20.5 -8.5t9.5 -19.5v-30q0 -56 4 -75q7 -50 42 -70q33 -18 92 -18q39 0 73 26q33 27 50 67q14 32 24 89l7 42v51q0 17 2 49l1 45v94l1 48l1 47v94q1 12 9 20.5t20 8.5h1q12 -1 20 -9
t7 -21v-94l-2 -94v-95l-1 -45q-1 -17 -1 -49v-17q0 -23 -2 -39l-7 -46q-11 -64 -28 -101q-24 -56 -66 -89q-48 -39 -109 -39z" />
    <glyph glyph-name="k" unicode="k" horiz-adv-x="540" 
d="M479 11q-8 -11 -22 -11q-11 0 -19 7l-32 26l-41 32l-34 30l-23 20l-14 12l-35 29l-38 31l-38 30l-36 28l-52 45v-67q0 -16 -2 -48q-1 -8 -1 -46q-1 -16 -1 -48v-47q0 -12 -8.5 -20t-20.5 -8q-11 0 -20 8.5t-9 19.5l1 48l1 47q0 41 1 49q2 32 2 46v190q0 38 -1 46v28
q0 43 1 50v19l1 47l-1 45l-1 49q0 12 8.5 20.5t19.5 8.5q12 0 20.5 -8.5t8.5 -20.5q0 -38 1 -46l1 -49l-1 -24v-24q-1 -9 -1 -47q-1 -15 -0.5 -29t0.5 -17q1 -8 1 -48v-27q4 5 15 16l12 12l230 218q21 21 40 36l38 35q7 8 19 8t21 -9q8 -8 8 -19q0 -12 -9 -21l-40 -37
l-37 -35l-39 -36l-76 -72l-13 -12l-26 -25l-38 -37l-38 -35l-21 -20q-8 -9 -15 -15l15 -14q33 -28 43 -36l33 -27l41 -32l36 -30l23 -18l53 -45l31 -28l39 -32q4 -2 35 -26q10 -9 10 -22q0 -10 -6 -18z" />
    <glyph glyph-name="l" unicode="l" horiz-adv-x="441" 
d="M318 12l-51 -4l-24 -1h-28q-18 0 -25 -1l-24 -1q-36 -2 -52 -2q-1 0 -8.5 -0.5t-32.5 -0.5l-10 -2h-1q-11 0 -20 9t-8 20q0 16 2 48l2 47v47l1 48l1 47l2 96l3 47l2 94v74q0 28 2 70q2 30 2 46q0 12 8.5 20t20.5 8q11 0 19.5 -8t8.5 -20q0 -17 -2 -49q-2 -38 -2 -67v-75
l-1 -48l-1 -47l-2 -48l-2 -47l-2 -94l-1 -48v-48l-2 -47l-1 -15h21q16 0 50 2l24 1q7 1 28 1l48 1l102 8q12 0 21 -8.5t9 -20.5q0 -11 -8 -19.5t-19 -9.5z" />
    <glyph glyph-name="lslash" unicode="&#x142;" horiz-adv-x="564" 
d="M509 64.5q9 -8.5 9 -20.5q0 -11 -8 -19.5t-19 -9.5l-50 -3l-51 -4l-24 -1h-28q-18 0 -25 -1l-24 -1q-36 -2 -52 -2q-1 0 -8.5 -0.5t-32.5 -0.5l-10 -2h-1q-11 0 -20 9t-8 20q0 16 2 48l2 47v77l1 48l1 37l-90 -52q-6 -3 -14 -3q-17 0 -25 14q-4 8 -4 13q0 16 15 26l92 53
l27 15l1 40l3 47l2 64v74q0 28 2 70q2 30 2 46q0 12 8.5 20t20.5 8q11 0 19.5 -8t8.5 -20q0 -17 -2 -49q-2 -38 -2 -67v-75l-1 -48l-1 -17l-2 -48v-5l7 4q8 5 19 12t26 15q6 5 47 29l45 27l46 26q7 4 14 4q8 0 14.5 -4t10.5 -11q3 -6 3 -14q0 -17 -13 -24l-61 -35
q-7 -5 -31 -19q-40 -24 -44 -27l-47 -28l-39 -22l-1 -69l-1 -48v-78l-2 -47l-1 -15h21q16 0 50 2l24 1q7 1 28 1l48 1l102 8q12 0 21 -8.5z" />
    <glyph glyph-name="m" unicode="m" horiz-adv-x="731" 
d="M639.5 8.5q-8.5 -8.5 -20.5 -8.5q-11 0 -19.5 8.5t-8.5 20.5l-1 46l-1 47v48l-1 46l-1 47l-1 48v94l-3 141l-1 39l-1 -2l-26 -45l-27 -46l-52 -92l-29 -46q-11 -16 -27 -44l-27 -46l-22 -37q-1 -10 -13 -17q-6 -5 -16 -5q-7 0 -15 4q-12 7 -13 19q-13 22 -23 36l-28 47
l-26 45l-28 45l-56 92l-27 45l-27 46l-1 2l-1 -38q-1 -8 -1 -46v-48q1 -7 1 -47l1 -46q2 -32 2 -49q0 -20 -0.5 -31t-0.5 -17l-1 -46q0 -40 -1 -48v-47q0 -38 1 -46q2 -32 2 -48q0 -12 -9 -20.5t-20 -8.5q-12 0 -20.5 8.5t-8.5 20.5q0 30 -1 45q-1 8 -1 49v48q1 8 1 47l1 48
v46q0 31 -1 46l-1 49q0 39 -1 47v48q0 40 1 48l1 46q0 40 1 48v40v6q0 16 13 25l5 3q3 1 11 1q17 0 24 -13q14 -23 27 -48l26 -45l27 -45l27 -46l10 -16q8 -14 18 -29l28 -46l10 -17q12 -20 18 -28l26 -47l28 -45l3 -4l1 4l27 45l28 46l27 44l16 27l10 18q11 22 27 46l26 46
l27 46l27 45l26 46q9 14 24 14q3 0 15 -4l6 -4q9 -9 9 -21v-94l1 -22v-25l2 -94l1 -48l1 -47v-94l1 -47q0 -19 0.5 -30t0.5 -17v-47l2 -94q0 -12 -8.5 -20.5z" />
    <glyph glyph-name="n" unicode="n" horiz-adv-x="537" 
d="M457 368l-3 -44q0 -39 1 -46v-47q-1 -16 -0.5 -29.5t0.5 -16.5q1 -7 1 -47l-1 -23q0 -20 -1 -24v-46q0 -8 -5 -15q0 -16 -15 -24q-9 -4 -14 -4q-8 0 -15 4.5t-10 11.5l-22 40l-24 42q-11 18 -22 43l-20 41l-22 39q-4 8 -10 18t-14 24l-22 43l-21 40q-14 27 -23 40l-12 21
l-11 21l-22 42l-21 42q-16 28 -22 41l-12 22v-26l-1 -48v-47q1 -8 1 -48l-1 -47l-1 -48q0 -41 -1 -49q-1 -15 -1 -45q0 -31 1 -47l1 -49q0 -16 -2 -48v-46q0 -12 -8.5 -20.5t-20.5 -8.5t-20.5 8.5t-8.5 20.5l1 48q2 32 2 46q0 19 -0.5 30t-0.5 17q-2 32 -2 49q0 15 2 49
q1 7 1 45q1 16 1 48q0 31 1 47q0 40 -1 47v48l1 48v94q-1 7 -1 40q-1 2 -1 7q0 8 5 16q9 13 24 13q11 0 19 -6t9 -16l8 -15l11 -19l23 -42l44 -82l43 -84q12 -22 23 -39l45 -84q2 -4 6.5 -13.5t15.5 -28.5l22 -40q8 -12 23 -42q12 -20 22 -43q6 -14 20 -38v10q0 37 -1 45
q0 3 -0.5 16.5t0.5 31.5v45q-1 8 -1 47l3 49q2 22 2 44q1 16 -1 44l-1 49l1 46v93l1 47q0 11 8.5 19.5t20.5 8.5q12 -1 20 -9t8 -20q-1 -16 -1 -47v-93q0 -6 -0.5 -16.5t-0.5 -29.5l1 -44q1 -6 1 -30q0 -11 -2 -67z" />
    <glyph glyph-name="ntilde" unicode="&#xf1;" horiz-adv-x="537" 
d="M78 810v1q11 23 19 35t17 21q24 19 71 19q24 0 42.5 -13.5t40.5 -42.5q21 -30 31 -30l12 -1q14 0 22 5q6 5 22 40l2 4q3 7 10.5 12t15.5 5q12 0 20 -8.5t8 -20.5q0 -5 -2 -11l-2 -4q-12 -28 -19 -40t-18 -20q-24 -19 -61 -19q-10 0 -13 1q-21 1 -37 13t-36 39
q-26 34 -37 34h-1q-30 -2 -35 -7q-5 -2 -20 -36l-1 -1q-11 -16 -25 -16q-6 0 -12 3q-17 8 -17 26q0 6 3 12zM457 368l-3 -44q0 -39 1 -46v-47q-1 -16 -0.5 -29.5t0.5 -16.5q1 -7 1 -47l-1 -23q0 -20 -1 -24v-46q0 -8 -5 -15q0 -16 -15 -24q-9 -4 -14 -4q-8 0 -15 4.5
t-10 11.5l-22 40l-24 42q-11 18 -22 43l-20 41l-22 39q-4 8 -10 18t-14 24l-22 43l-21 40q-14 27 -23 40l-12 21l-11 21l-22 42l-21 42q-16 28 -22 41l-12 22v-26l-1 -48v-47q1 -8 1 -48l-1 -47l-1 -48q0 -41 -1 -49q-1 -15 -1 -45q0 -31 1 -47l1 -49q0 -16 -2 -48v-46
q0 -12 -8.5 -20.5t-20.5 -8.5t-20.5 8.5t-8.5 20.5l1 48q2 32 2 46q0 19 -0.5 30t-0.5 17q-2 32 -2 49q0 15 2 49q1 7 1 45q1 16 1 48q0 31 1 47q0 40 -1 47v48l1 48v94q-1 7 -1 40q-1 2 -1 7q0 8 5 16q9 13 24 13q11 0 19 -6t9 -16l8 -15l11 -19l23 -42l44 -82l43 -84
q12 -22 23 -39l45 -84q2 -4 6.5 -13.5t15.5 -28.5l22 -40q8 -12 23 -42q12 -20 22 -43q6 -14 20 -38v10q0 37 -1 45q0 3 -0.5 16.5t0.5 31.5v45q-1 8 -1 47l3 49q2 22 2 44q1 16 -1 44l-1 49l1 46v93l1 47q0 11 8.5 19.5t20.5 8.5q12 -1 20 -9t8 -20q-1 -16 -1 -47v-93
q0 -6 -0.5 -16.5t-0.5 -29.5l1 -44q1 -6 1 -30q0 -11 -2 -67z" />
    <glyph glyph-name="o" unicode="o" horiz-adv-x="624" 
d="M292 -24q-42 0 -78 14q-42 17 -70 40q-12 12 -22 26t-24 37q-19 32 -33 68q-15 42 -21 71q-5 31 -8 60l-2 11q-4 37 -3 57v36q-2 38 2 58q7 37 21 70q1 2 1 5q17 41 39 70q30 38 58 57q43 30 72 37q16 5 32 6.5t46 1.5h2q51 0 88 -17t71 -54q26 -29 47 -72q15 -35 27 -79
q5 -21 6.5 -33.5t1.5 -27.5q0 -14 1 -21q3 -31 3 -59q0 -46 -7 -93q-6 -47 -15 -76q-14 -42 -30 -74q-27 -44 -51 -64q-28 -27 -72 -43q-36 -12 -82 -12zM241 639q-22 -6 -57 -30q-25 -17 -44 -45q-17 -21 -31 -56l-2 -5q-14 -37 -17 -58q-3 -13 -3 -49q1 -4 1 -19v-18
q-2 -20 3 -49l1 -12q7 -49 8 -54q5 -22 19 -64q9 -27 28 -58q18 -33 37 -49q19 -17 50 -30q27 -10 58 -10q35 0 63 9q30 10 52 31q24 19 39 50q17 30 26 62q8 26 14 68q2 11 6 69q1 33 -3 68v3q-1 7 -1 25q0 20 -7 48q-5 25 -23 68q-12 28 -39 59q-20 24 -51 39
q-27 12 -64 12h-2q-45 0 -61 -5z" />
    <glyph glyph-name="oacute" unicode="&#xf3;" horiz-adv-x="631" 
d="M235 743q-7 0 -14 4t-10 11q-4 5 -4 14q0 7 4 14t10 10l33 20l34 19l35 20q5 2 33 18q8 4 14 4q8 0 14.5 -4t9.5 -11q4 -5 4 -14q0 -7 -3.5 -14t-9.5 -10l-36 -20l-33 -18l-33 -19l-34 -20q-8 -4 -14 -4zM295 -24q-42 0 -78 14q-45 18 -69 40q-13 12 -23 25.5t-24 37.5
q-21 35 -32 68q-17 47 -22 71q-4 23 -5 39l-3 21l-1 11q-5 36 -4 57v36q-2 38 2 58q6 31 21 70l2 5q16 39 38 70q28 36 58 57q43 30 73 37q16 5 31.5 6.5t45.5 1.5h3q52 0 87 -17q37 -16 71 -54q30 -33 47 -72q17 -35 27 -79q5 -21 6.5 -33.5t1.5 -27.5q0 -14 1 -21
q3 -31 3 -59q0 -33 -6 -93q-5 -41 -16 -76q-14 -42 -30 -74q-24 -41 -51 -64q-29 -28 -72 -43q-36 -12 -82 -12zM244 639q-23 -6 -56 -30q-23 -15 -45 -45q-15 -18 -30 -56l-3 -5q-14 -37 -17 -58q-2 -9 -2 -49v-37q0 -24 3 -49l1 -12q6 -44 9 -54q7 -31 18 -64
q9 -27 28 -58q16 -30 37 -49q19 -17 50 -30q27 -10 58 -10q35 0 63 9q30 10 52 31q24 19 39 50q16 28 27 62q8 32 13 68q6 34 6 83q0 21 -1 35.5t-2 18.5v3q-1 7 -1 25q0 19 -6 48q-9 36 -24 68q-9 23 -38 59q-23 26 -52 39q-27 12 -63 12h-3q-45 0 -61 -5z" />
    <glyph glyph-name="ocircumflex" unicode="&#xf4;" horiz-adv-x="624" 
d="M136 764q0 15 11 23l31 24l31 25l40 30q16 10 25 18h1q6 5 16 5l10 -1q8 -3 14 -10l24 -21l58 -47l29 -23q10 -9 10 -23q0 -9 -6 -17q-8 -11 -22 -11q-10 0 -18 6l-30 24l-28 24q-25 20 -29 23l-13 11l-9 -6q-21 -13 -36 -27l-31 -25l-31 -24q-8 -6 -18 -6q-15 0 -22 11
q-7 7 -7 17zM542 245q-6 -47 -15 -76q-14 -42 -30 -74q-27 -44 -51 -64q-28 -27 -72 -43q-36 -12 -82 -12q-42 0 -78 14q-42 17 -70 40q-12 12 -22 26t-24 37q-19 32 -33 68q-15 42 -21 71q-5 31 -8 60l-2 11q-4 37 -3 57v36q-2 38 2 58q7 37 21 70q1 2 1 5q17 41 39 70
q30 38 58 57q43 30 72 37q16 5 32 6.5t46 1.5h2q51 0 88 -17t71 -54q26 -29 47 -72q15 -35 27 -79q5 -21 6.5 -33.5t1.5 -27.5q0 -14 1 -21q3 -31 3 -59q0 -46 -7 -93zM488 418q0 20 -7 48q-5 25 -23 68q-12 28 -39 59q-20 24 -51 39q-27 12 -64 12h-5q-42 0 -58 -5
q-22 -6 -57 -30q-25 -17 -44 -45q-17 -21 -31 -56l-2 -5q-14 -37 -17 -58q-3 -13 -3 -49q1 -4 1 -19v-18q-2 -20 3 -49l1 -12q7 -49 8 -54q5 -22 19 -64q9 -27 28 -58q18 -33 37 -49q19 -17 50 -30q27 -10 58 -10q35 0 63 9q30 10 52 31q24 19 39 50q17 30 26 62q8 26 14 68
q2 11 6 69q1 33 -3 68v3q-1 7 -1 25z" />
    <glyph glyph-name="odieresis" unicode="&#xf6;" horiz-adv-x="631" 
d="M208 822q4 8 11 13q12 4 15 4q14 0 25 -13l4 -7q2 -8 2 -13q0 -13 -10 -22q-7 -7 -18 -7q-10 0 -18 6q-2 1 -4 4q-10 7 -10 21q0 8 3 14zM348 822q3 8 11 13q12 4 15 4q15 0 24 -13l4 -7q3 -4 3 -14q0 -13 -9 -21q-8 -7 -19 -7q-9 0 -18 6l-5 4q-9 8 -9 21q0 8 3 14z
M546 245q-5 -41 -16 -76q-14 -42 -30 -74q-24 -41 -51 -64q-29 -28 -72 -43q-36 -12 -82 -12q-42 0 -78 14q-45 18 -69 40q-13 12 -23 25.5t-24 37.5q-21 35 -32 68q-17 47 -22 71q-4 23 -5 39l-3 21l-1 11q-5 36 -4 57v36q-2 38 2 58q6 31 21 70l2 5q16 39 38 70
q28 36 58 57q43 30 73 37q16 5 31.5 6.5t45.5 1.5h3q52 0 87 -17q37 -16 71 -54q30 -33 47 -72q17 -35 27 -79q5 -21 6.5 -33.5t1.5 -27.5q0 -14 1 -21q3 -31 3 -59q0 -33 -6 -93zM491 418q0 19 -6 48q-9 36 -24 68q-9 23 -38 59q-23 26 -52 39q-27 12 -63 12h-5
q-43 0 -59 -5q-23 -6 -56 -30q-23 -15 -45 -45q-15 -18 -30 -56l-3 -5q-14 -37 -17 -58q-2 -9 -2 -49v-37q0 -24 3 -49l1 -12q6 -44 9 -54q7 -31 18 -64q9 -27 28 -58q16 -30 37 -49q19 -17 50 -30q27 -10 58 -10q35 0 63 9q30 10 52 31q24 19 39 50q16 28 27 62q8 32 13 68
q6 34 6 83q0 21 -1 35.5t-2 18.5v3q-1 7 -1 25z" />
    <glyph glyph-name="ograve" unicode="&#xf2;" horiz-adv-x="624" 
d="M381 750.5q-7 -3.5 -15 -3.5q-9 0 -14 4l-34 18l-33 20q-34 19 -35 20l-32 20q-6 3 -10 10t-4 14q0 6 4 14q3 7 10 11t15 4q5 0 13 -4l67 -40l34 -19l33 -19q7 -4 11 -10.5t4 -14.5q0 -3 -4 -15q-3 -6 -10 -9.5zM292 -24q-42 0 -78 14q-42 17 -70 40q-12 12 -22 26
t-24 37q-19 32 -33 68q-15 42 -21 71q-5 31 -8 60l-2 11q-4 37 -3 57v36q-2 38 2 58q7 37 21 70q1 2 1 5q17 41 39 70q30 38 58 57q43 30 72 37q16 5 32 6.5t46 1.5h2q51 0 88 -17t71 -54q26 -29 47 -72q15 -35 27 -79q5 -21 6.5 -33.5t1.5 -27.5q0 -14 1 -21q3 -31 3 -59
q0 -46 -7 -93q-6 -47 -15 -76q-14 -42 -30 -74q-27 -44 -51 -64q-28 -27 -72 -43q-36 -12 -82 -12zM241 639q-22 -6 -57 -30q-25 -17 -44 -45q-17 -21 -31 -56l-2 -5q-14 -37 -17 -58q-3 -13 -3 -49q1 -4 1 -19v-18q-2 -20 3 -49l1 -12q7 -49 8 -54q5 -22 19 -64
q9 -27 28 -58q18 -33 37 -49q19 -17 50 -30q27 -10 58 -10q35 0 63 9q30 10 52 31q24 19 39 50q17 30 26 62q8 26 14 68q2 11 6 69q1 33 -3 68v3q-1 7 -1 25q0 20 -7 48q-5 25 -23 68q-12 28 -39 59q-20 24 -51 39q-27 12 -64 12h-2q-45 0 -61 -5z" />
    <glyph glyph-name="oslash" unicode="&#xf8;" horiz-adv-x="631" 
d="M547 247q-8 -48 -16 -76q-9 -33 -31 -73q-20 -37 -51 -65q-34 -31 -71 -43t-82 -12q-39 0 -78 15q-6 -16 -8 -20l-15 -43q-3 -9 -10.5 -14.5t-16.5 -5.5l-9 2q-9 3 -14 10t-5 16q0 7 1 10q5 16 9 27t7 18l9 26q-9 5 -18 14q-22 21 -46 62q-22 35 -33 68q-10 26 -21 71
q-5 26 -9 60l-1 12q-4 46 -4 56v36q0 43 3 58q2 23 21 70l2 5q14 40 38 70q27 37 58 57q42 29 72 38q16 5 33 6.5t45 1.5h2q44 0 80 -14l6 14q9 22 15 43q4 9 11 14.5t16 5.5q13 0 21 -8.5t8 -20.5l-2 -9q-8 -23 -11.5 -32.5t-4.5 -12.5l-9 -24q14 -10 29 -28q29 -34 47 -72
q16 -37 26 -79q10 -39 10 -83l1 -19q3 -15 3 -28l-1 -28q-1 -43 -6 -76zM184 78q1 0 1 2l14 46q7 20 11 30t6 16q10 23 16 42l14 44q2 4 4 10.5t4 10.5l7 24l13 43l14 46l15 45l16 44l14 44l14 45l16 45l7 20q-27 12 -62 12h-5q-40 0 -58 -6q-21 -6 -57 -29q-27 -20 -44 -45
q-18 -24 -31 -56l-2 -5q-15 -40 -18 -59q-2 -18 -2 -48v-38q0 -21 4 -49l1 -12q6 -44 8 -54q5 -24 18 -63q8 -22 29 -58q15 -27 33 -47zM495 374l-2 20v4q0 35 -8 70q-12 45 -23 69q-12 26 -39 58l-5 6l-1 -5q-11 -29 -15 -44l-15 -44l-9 -28l-5 -17l-16 -45l-14 -44
q-9 -23 -13 -43l-14 -46l-15 -44l-9 -29l-6 -16q-9 -28 -17 -47q-4 -8 -15 -41q-11 -31 -14 -44l-5 -17l3 -1q25 -11 58 -11q35 0 62 9q32 11 53 31q26 26 39 51q12 21 26 62q8 28 14 67q5 34 6 70l1 27z" />
    <glyph glyph-name="otilde" unicode="&#xf5;" horiz-adv-x="624" 
d="M373 732q-9 0 -12 1q-21 1 -37.5 13.5t-35.5 38.5q-14 18 -22 26t-15 8q-31 -2 -35 -7q-4 -2 -11 -15.5t-10 -19.5v-1q-9 -17 -26 -17q-6 0 -13 3t-11.5 10.5t-4.5 15.5q0 6 3 12v1q10 20 18.5 34t18.5 22q13 10 29.5 14.5t41.5 4.5q24 0 42 -13t40 -42q24 -31 31 -31
q12 0 21.5 0.5t13.5 3.5q7 7 22 40l1 4q3 7 10.5 12t15.5 5q7 0 12 -3q8 -3 12.5 -10t4.5 -16q0 -4 -2 -12l-2 -3q-14 -30 -20.5 -41t-17.5 -20q-21 -18 -62 -18zM292 -24q-42 0 -78 14q-42 17 -70 40q-12 12 -22 26t-24 37q-19 32 -33 68q-15 42 -21 71q-5 31 -8 60l-2 11
q-4 37 -3 57v36q-2 38 2 58q7 37 21 70q1 2 1 5q17 41 39 70q30 38 58 57q43 30 72 37q16 5 32 6.5t46 1.5h2q51 0 88 -17t71 -54q26 -29 47 -72q15 -35 27 -79q5 -21 6.5 -33.5t1.5 -27.5q0 -14 1 -21q3 -31 3 -59q0 -46 -7 -93q-6 -47 -15 -76q-14 -42 -30 -74
q-27 -44 -51 -64q-28 -27 -72 -43q-36 -12 -82 -12zM241 639q-22 -6 -57 -30q-25 -17 -44 -45q-17 -21 -31 -56l-2 -5q-14 -37 -17 -58q-3 -13 -3 -49q1 -4 1 -19v-18q-2 -20 3 -49l1 -12q7 -49 8 -54q5 -22 19 -64q9 -27 28 -58q18 -33 37 -49q19 -17 50 -30q27 -10 58 -10
q35 0 63 9q30 10 52 31q24 19 39 50q17 30 26 62q8 26 14 68q2 11 6 69q1 33 -3 68v3q-1 7 -1 25q0 20 -7 48q-5 25 -23 68q-12 28 -39 59q-20 24 -51 39q-27 12 -64 12h-2q-45 0 -61 -5z" />
    <glyph glyph-name="oe" unicode="&#x153;" horiz-adv-x="861" 
d="M821.5 23.5q-8.5 -8.5 -19.5 -8.5h-87l-41 -1q-4 -1 -23 -1l-21 -1q-35 0 -43 -1h-86q-7 -1 -43 -1q-13 0 -22 10q-15 8 -15 23q-17 -12 -36 -20q-46 -19 -94 -19h-4q-43 1 -79 15q-34 13 -67 45q-26 25 -47 62q-16 30 -30 69q-8 23 -18 71q-5 22 -10 73l-3 29
q-3 15 -3 32q0 32 8 85l1 2q10 51 20 76q14 37 38 71q26 31 60 54q38 24 75 33q50 14 79 14q29 -1 73 -17q23 -10 34 -17v2q0 10 5.5 17.5t14.5 10.5q12 4 16 4l27 -1q24 0 30 -1l54 -2h75q6 -1 38 -1l27 -1q8 -1 30 -1l55 -2q12 0 20 -8.5t8 -20.5q-1 -11 -9 -19.5
t-19 -8.5h-1l-57 2q-22 0 -30 1l-25 1q-32 0 -38 1h-75l-57 2q-6 1 -32 1q0 -16 1 -20v-95q0 -3 -0.5 -17t0.5 -29v-46q2 -32 2 -48v-4q54 2 94 2q46 0 55 -1h54q12 0 20.5 -8.5t8.5 -19.5q0 -12 -8.5 -20.5t-20.5 -8.5h-55q-9 1 -54 1l-61 -1q-9 -1 -33 -1v-34
q0 -41 -1 -48q0 -3 -0.5 -15t0.5 -31q0 -15 2 -45q1 -17 1 -49q0 -33 -1 -49q-1 -4 -1 -23q18 0 22 1h43l43 1h43l86 4q36 0 44 -1h42q12 0 20.5 -8t8.5 -21q0 -11 -8.5 -19.5zM422 123.5q1 0.5 1 1.5v14q0 29 -1 45q-2 40 -2 70v27q1 8 1 46v73q0 27 -2 67v19q-1 7 -1 50
v27q0 3 0.5 16.5t-0.5 29.5v22q-6 3 -9 6q-20 17 -45 28q-31 11 -54 13q-22 0 -63 -12q-35 -11 -57 -25q-34 -24 -47 -42q-17 -24 -31 -57q-9 -20 -17 -64v-2q-8 -40 -8 -66v-13l2 -21l4 -33q3 -37 9 -66q11 -48 16 -64q10 -31 26 -59q16 -30 36 -50q30 -24 49 -32
q26 -11 59 -11q43 0 74 14q30 13 58 47q1 1 2 1.5z" />
    <glyph glyph-name="p" unicode="p" horiz-adv-x="494" 
d="M404 380q-31 -60 -87 -86q-54 -26 -115 -26h-16q-35 0 -44 1t-33 8v-60l1 -22q0 -20 1 -25l2 -47q0 -30 1 -46l2 -48q0 -12 -8 -20.5t-20 -8.5h-1q-11 0 -19.5 8t-8.5 20l-1 23q-1 6 -1 23q-2 32 -2 48l-1 46l-2 47l-1 30l1 18l-1 47v47l-1 47q0 13 -2 45q-2 24 -2 49
q-1 8 -1 29q0 15 1 19l1 18l-1 27q0 15 -2 47q-1 4 -1 22q-9 2 -15.5 7.5t-7.5 14.5q-1 2 -1 6q0 10 6 18t16 9q30 8 40 8l61 5h42q40 0 61 -5q51 -7 100 -37q53 -32 74 -85q17 -42 17 -88q0 -72 -32 -133zM315 638q-38 23 -80 29q-21 4 -56 4l-35 -1l-44 -2q0 -22 1 -28
q2 -30 2 -47q1 -17 0.5 -31.5t-0.5 -17.5q-1 -7 -1 -45l2 -45l3 -49l1 -48v-18q26 -10 38 -12q14 -2 40 -2h15q49 0 91 20q41 21 60 60q26 49 26 110q0 37 -12 65q-14 34 -51 58z" />
    <glyph glyph-name="thorn" unicode="&#xfe;" horiz-adv-x="409" 
d="M350 287q-4 -29 -11 -50q-7 -27 -22 -50q-13 -23 -40 -42q-24 -17 -51 -24h-1q-30 -9 -53 -9q-25 0 -61 12q-12 3 -21 10q1 -6 1 -34l-1 -48v-48q0 -11 -8.5 -19.5t-20.5 -8.5t-20 8.5t-8 19.5v97q0 30 -1 47q-2 32 -2 49l1 49l1 48q0 41 1 49v48q0 31 -1 46l-1 50
q0 17 2 51v142q0 12 8.5 20.5t20.5 8.5t20.5 -8t8.5 -21v-96q0 -27 -1 -33q20 12 41 16q28 6 48 6q27 0 57 -10q29 -12 49 -31q18 -16 34 -43q12 -26 20 -49q9 -23 10 -43l1 -9l2 -14q3 -15 3 -36q0 -8 -5 -51zM296 364l-2 18l-2 10q0 9 -7 31q-7 24 -16 37q-14 24 -23 30
q-12 11 -30 19q-21 7 -37 7q-15 0 -35 -5q-17 -4 -33 -13q-9 -3 -23 -17l1 -41q2 -32 2 -49l-1 -50q-1 -8 -1 -47l-1 -49l-1 -40q4 -1 10 -6q15 -15 34 -21q23 -9 41 -9q12 0 38 6v1q21 5 33 15q16 12 26 27q10 17 17 36q-1 -2 8 41q4 38 4 44q0 7 -2 25z" />
    <glyph glyph-name="q" unicode="q" horiz-adv-x="634" 
d="M553 256l-2 -10q-5 -42 -18 -76q-16 -46 -36 -72q-17 -22 -38 -38l10 -16q5 -7 23 -38l20 -35q4 -8 4 -15q0 -16 -13 -25q-7 -4 -15 -4q-7 0 -14 3.5t-10 9.5q-2 3 -4.5 7.5t-6.5 9.5l-12 22q-6 12 -20 34l-11 16q-29 -15 -48 -20q-30 -7 -72 -7h-9q-59 0 -106 28l-6 3
q-35 23 -60 58q-22 28 -40 68q-20 47 -26 73q-4 16 -11 77l-2 28l2 43v6q1 41 8 76q11 55 18 75q9 27 34 71q22 35 52 62q35 31 70 43q39 15 80 15q43 0 80 -13q38 -13 69 -42q35 -31 53 -60q19 -33 30 -71q14 -41 19 -73q5 -23 7 -61l2 -12l3 -31q3 -22 2 -44q0 -20 -6 -65
zM500 356l-3 35l-2 13q-1 28 -6 54q-6 33 -17 66q-12 36 -25 60q-9 16 -42 47q-25 22 -50 31q-29 9 -61 9q-27 0 -60 -11q-27 -10 -52 -33q-29 -27 -41 -49q-18 -29 -29 -60q-7 -18 -17 -66q-4 -29 -6 -69v-5l-2 -39l2 -25q2 -36 10 -68q5 -27 23 -64q14 -35 32 -57
q19 -24 40 -40l6 -3q35 -22 82 -22h8q41 0 57 4q17 5 31 13l-4 7l-23 34l-25 37q-5 8 -5 15q0 8 3.5 14.5t10.5 9.5q5 4 16 4q16 0 23 -13q12 -21 23 -33l25 -37l5 -7q14 10 25 24q14 21 28 58q10 28 14 64l2 11q6 32 6 56v14z" />
    <glyph glyph-name="r" unicode="r" horiz-adv-x="513" 
d="M449 8q-7 -8 -19 -8q-13 0 -21 9l-34 34l-33 35q-25 27 -34 39q-20 24 -31 35q-21 23 -33 33l-14 14q-3 4 -20 21l-34 34l-35 36l-33 37v-57q0 -31 1 -47l2 -44l3 -49q0 -41 -1 -49v-45q0 -12 -8 -20.5t-20 -8.5h-1q-11 0 -19.5 8t-9.5 19q0 41 1 49t1 45l-3 45l-3 49v94
l-1 48l-1 46l-1 48q0 6 -0.5 16.5t-0.5 29.5l-1 47q-1 4 -1 24l-3 69v15q-18 5 -22 20l-1 8q0 9 6 16.5t15 10.5l18 5l6 2q18 5 34.5 7t39.5 4q26 3 51 3q27 0 49 -3q62 -6 101 -27q50 -25 76 -83q20 -42 20 -89q0 -74 -41 -123q-36 -42 -96 -58q-39 -12 -95 -12h-10
q-18 0 -22 1l12 -12q7 -8 33 -34l34 -35l20 -20l14 -14l19 -19l16 -16q23 -26 33 -38q13 -17 31 -35l33 -35l34 -35q8 -8 8 -19q0 -12 -9 -21zM101 600q0 -15 2 -47l1 -47l1 -48l1 -47v-2q3 0 6 -3q45 -9 92 -9q45 0 78 9q43 12 68 41q27 32 27 86q0 34 -14 67
q-19 39 -51 54q-29 17 -80 22q-18 2 -44 2q-25 0 -45 -2q-17 -1 -45 -6l2 -23z" />
    <glyph glyph-name="s" unicode="s" horiz-adv-x="480" 
d="M227 0q-17 0 -22 1q-41 3 -91 23q-55 24 -80 60q-27 42 -27 99q1 11 9.5 19t20.5 8q11 0 19 -8t8 -19q0 -40 18 -67q14 -23 54 -39q25 -10 46.5 -15t45.5 -5q37 0 62 11q38 14 57 46q18 26 18 58q0 45 -29 89q-20 32 -56 63q-28 25 -73 49q-54 30 -82 58q-47 46 -60 90
q-5 16 -5 43q0 39 16 71q23 47 77 77q49 28 104 28q60 0 103 -36q20 -18 33 -43.5t16 -54.5q2 -12 -7 -21.5t-22 -9.5q-11 0 -19 7.5t-9 17.5q-4 38 -30 61q-27 22 -65 22t-76 -21q-39 -21 -54 -53q-11 -24 -11 -45q0 -14 4 -26q9 -31 45 -65q23 -23 69 -50q48 -26 83 -55
q44 -37 67 -77q38 -58 38 -117q0 -50 -26 -91q-32 -48 -86 -69q-40 -14 -83 -14z" />
    <glyph glyph-name="t" unicode="t" horiz-adv-x="462" 
d="M410 665.5q-8 -8.5 -19 -8.5h-1l-136 3q-4 1 -21 1q0 -17 1 -22l1 -47v-47q1 -7 1 -47l1 -46v-25l1 -22q0 -21 -0.5 -32t-0.5 -17v-45q0 -30 1 -46l2 -49l-1 -48q-1 -7 -1 -46v-46q1 -7 1 -47q0 -12 -8 -20.5t-21 -8.5q-11 0 -19.5 8.5t-8.5 20.5q0 39 -1 46v47
q0 40 1 48l1 46l-2 46q-2 30 -2 48q0 40 1 48l1 46l-2 46v94q-1 7 -1 47l-1 47q-1 4 -1 24h-103l-46 1q-12 0 -20.5 8.5t-7.5 20.5q0 11 8.5 19.5t20.5 8.5l45 -1h45q16 -1 29 -0.5t16 0.5h47l45 -2l136 -3q12 0 20 -8.5t8 -20.5q-1 -11 -9 -19.5z" />
    <glyph glyph-name="u" unicode="u" horiz-adv-x="583" 
d="M269 -24q-64 0 -107 26q-48 28 -77 80q-23 41 -37 99q-8 40 -13 101l-2 41l2 30l3 30l4 67l1 33q3 36 3 50l2 50l2 34l1 16l2 51q1 11 9 18.5t20 7.5t20.5 -8.5t7.5 -21.5l-2 -49l-3 -51l-2 -50l-3 -50l-1 -32l-4 -70l-3 -30l-1 -27l1 -36q3 -49 12 -91q10 -48 31 -83
q22 -40 55 -60q30 -18 79 -18q41 0 71 22q35 28 53 63q22 48 30 83q10 33 17 89q5 40 5 66v25q0 35 1 52q0 6 0.5 17t0.5 31l1 51q0 6 0.5 17.5t0.5 32.5q0 40 -1 48q-2 34 -1 51q0 12 8.5 20.5t20.5 8.5q11 0 19.5 -8.5t8.5 -20.5q-1 -15 1 -49q0 -6 0.5 -17.5t0.5 -33.5
l-1 -51q0 -6 -0.5 -17.5t-0.5 -32.5l-1 -49q-1 -17 -1 -50v-25q0 -29 -5 -73q-9 -59 -18 -97q-17 -59 -35 -95q-27 -50 -70 -81q-46 -34 -105 -34z" />
    <glyph glyph-name="uacute" unicode="&#xfa;" horiz-adv-x="583" 
d="M218 750q-16 0 -25 14q-3 6 -3 15q0 16 14 24l33 20l34 20q26 15 35 18l32 19q4 3 15 3q16 0 24 -13q5 -10 5 -15q0 -16 -15 -25l-34 -18l-34 -19l-33 -20l-34 -19q-5 -4 -14 -4zM269 -24q-64 0 -107 26q-48 28 -77 80q-23 41 -37 99q-8 40 -13 101l-2 41l2 30l3 30l4 67
l1 33q3 36 3 50l2 50l2 34l1 16l2 51q1 11 9 18.5t20 7.5t20.5 -8.5t7.5 -21.5l-2 -49l-3 -51l-2 -50l-3 -50l-1 -32l-4 -70l-3 -30l-1 -27l1 -36q3 -49 12 -91q10 -48 31 -83q22 -40 55 -60q30 -18 79 -18q41 0 71 22q35 28 53 63q22 48 30 83q10 33 17 89q5 40 5 66v25
q0 35 1 52q0 6 0.5 17t0.5 31l1 51q0 6 0.5 17.5t0.5 32.5q0 40 -1 48q-2 34 -1 51q0 12 8.5 20.5t20.5 8.5q11 0 19.5 -8.5t8.5 -20.5q-1 -15 1 -49q0 -6 0.5 -17.5t0.5 -33.5l-1 -51q0 -6 -0.5 -17.5t-0.5 -32.5l-1 -49q-1 -17 -1 -50v-25q0 -29 -5 -73q-9 -59 -18 -97
q-17 -59 -35 -95q-27 -50 -70 -81q-46 -34 -105 -34z" />
    <glyph glyph-name="ucircumflex" unicode="&#xfb;" horiz-adv-x="583" 
d="M132 764q0 13 9 20l62 62q27 27 39 36l26 23q8 8 20 8q6 0 9 -1q11 -5 15 -12l25 -27l58 -58l29 -30q8 -7 8 -20t-8 -20q-9 -9 -21 -9q-9 0 -20 9l-29 30l-29 29l-28 29l-11 12l-7 -6q-30 -27 -36 -33l-31 -31l-31 -30q-9 -9 -21 -9q-11 0 -20 9q-8 8 -8 19zM504.5 512.5
q-0.5 -11.5 -0.5 -32.5l-1 -49q-1 -17 -1 -50v-25q0 -29 -5 -73q-9 -59 -18 -97q-17 -59 -35 -95q-27 -50 -70 -81q-46 -34 -105 -34q-64 0 -107 26q-48 28 -77 80q-23 41 -37 99q-8 40 -13 101l-2 41l2 30l3 30l4 67l1 33q3 36 3 50l2 50l2 34l1 16l2 51q1 11 9 18.5
t20 7.5t20.5 -8.5t7.5 -21.5l-2 -49l-3 -51l-2 -50l-3 -50l-1 -32l-4 -70l-3 -30l-1 -27l1 -36q3 -49 12 -91q10 -48 31 -83q22 -40 55 -60q30 -18 79 -18q41 0 71 22q35 28 53 63q22 48 30 83q10 33 17 89q5 40 5 66v25q0 35 1 52q0 6 0.5 17t0.5 31l1 51q0 6 0.5 17.5
t0.5 32.5q0 40 -1 48q-2 34 -1 51q0 12 8.5 20.5t20.5 8.5q11 0 19.5 -8.5t8.5 -20.5q-1 -15 1 -49q0 -6 0.5 -17.5t0.5 -33.5l-1 -51q0 -6 -0.5 -17.5z" />
    <glyph glyph-name="udieresis" unicode="&#xfc;" horiz-adv-x="583" 
d="M186 828q3 7 11 13q5 4 15 4q7 0 14 -3.5t10 -9.5q1 -1 2 -2.5t2 -4.5q3 -6 3 -13q0 -14 -11 -22q-7 -7 -18 -7q-9 0 -17 6l-5 3q-9 9 -9 22q0 8 3 14zM325 828q4 8 11 13q7 4 16 4q15 0 24 -13l4 -7q3 -6 3 -12q0 -13 -10 -23q-11 -7 -19 -7q-9 0 -18 6l-4 3
q-10 9 -10 22q0 8 3 14zM504.5 512.5q-0.5 -11.5 -0.5 -32.5l-1 -49q-1 -17 -1 -50v-25q0 -29 -5 -73q-9 -59 -18 -97q-17 -59 -35 -95q-27 -50 -70 -81q-46 -34 -105 -34q-64 0 -107 26q-48 28 -77 80q-23 41 -37 99q-8 40 -13 101l-2 41l2 30l3 30l4 67l1 33q3 36 3 50
l2 50l2 34l1 16l2 51q1 11 9 18.5t20 7.5t20.5 -8.5t7.5 -21.5l-2 -49l-3 -51l-2 -50l-3 -50l-1 -32l-4 -70l-3 -30l-1 -27l1 -36q3 -49 12 -91q10 -48 31 -83q22 -40 55 -60q30 -18 79 -18q41 0 71 22q35 28 53 63q22 48 30 83q10 33 17 89q5 40 5 66v25q0 35 1 52
q0 6 0.5 17t0.5 31l1 51q0 6 0.5 17.5t0.5 32.5q0 40 -1 48q-2 34 -1 51q0 12 8.5 20.5t20.5 8.5q11 0 19.5 -8.5t8.5 -20.5q-1 -15 1 -49q0 -6 0.5 -17.5t0.5 -33.5l-1 -51q0 -6 -0.5 -17.5z" />
    <glyph glyph-name="ugrave" unicode="&#xf9;" horiz-adv-x="583" 
d="M333 752q-9 0 -15 3l-33 20q-14 6 -34 19q-4 1 -12 6.5t-22 13.5q-6 4 -14.5 9t-17.5 11q-14 8 -14 24q0 11 3 15q9 14 24 14q10 0 15 -4l34 -20l33 -20q21 -13 33 -18l34 -20q15 -9 15 -24q0 -5 -5 -15q-8 -14 -24 -14zM269 -24q-64 0 -107 26q-48 28 -77 80
q-23 41 -37 99q-8 40 -13 101l-2 41l2 30l3 30l4 67l1 33q3 36 3 50l2 50l2 34l1 16l2 51q1 11 9 18.5t20 7.5t20.5 -8.5t7.5 -21.5l-2 -49l-3 -51l-2 -50l-3 -50l-1 -32l-4 -70l-3 -30l-1 -27l1 -36q3 -49 12 -91q10 -48 31 -83q22 -40 55 -60q30 -18 79 -18q41 0 71 22
q35 28 53 63q22 48 30 83q10 33 17 89q5 40 5 66v25q0 35 1 52q0 6 0.5 17t0.5 31l1 51q0 6 0.5 17.5t0.5 32.5q0 40 -1 48q-2 34 -1 51q0 12 8.5 20.5t20.5 8.5q11 0 19.5 -8.5t8.5 -20.5q-1 -15 1 -49q0 -6 0.5 -17.5t0.5 -33.5l-1 -51q0 -6 -0.5 -17.5t-0.5 -32.5l-1 -49
q-1 -17 -1 -50v-25q0 -29 -5 -73q-9 -59 -18 -97q-17 -59 -35 -95q-27 -50 -70 -81q-46 -34 -105 -34z" />
    <glyph glyph-name="v" unicode="v" horiz-adv-x="537" 
d="M485 669l-16 -47l-15 -49l-17 -48l-16 -48l-17 -48l-17 -46l-15 -48q-6 -22 -15 -49l-32 -96l-17 -48l-16 -47l-15 -48l-17 -48l-5 -9q-9 -9 -14 -10h-9q-9 0 -16.5 5.5t-9.5 14.5l-14 49l-13 47l-14 48l-15 48l-14 48l-14 47l-13 48q-15 51 -14 48l-14 48l-13 48l-16 45
q-11 29 -16 49l-14 49q0 1 -1.5 6t-3.5 9l-9 33q-1 3 -1 8q0 11 8.5 19.5t19.5 8.5q10 0 18 -5.5t10 -15.5q8 -24 14 -48l14 -47q6 -24 15 -46q15 -45 16 -49l28 -96l14 -47q4 -17 14 -49l14 -48l13 -47l14 -48l14 -47l2 -7l2 7l18 49l32 94l16 48q3 9 14 47q9 29 16 49
l17 49l17 46l16 48l6 19q2 5 10 29l15 48l6 17l10 31q3 9 10.5 14t16.5 5q12 0 20.5 -8.5t8.5 -19.5z" />
    <glyph glyph-name="w" unicode="w" horiz-adv-x="697" 
d="M619 628l1 -16l-2 -34l-2 -47l-3 -47q0 -17 -4 -49q0 -6 -1.5 -17t-2.5 -29q-1 -15 -1 -46q0 -15 -2 -49l-4 -94l-3 -49l-4 -47l-1 -46l-3 -39q1 -2 1 -8q0 -7 -4 -14t-11 -11l-3 -1q-6 -2 -11 -2h-2q-10 1 -17.5 7.5t-8.5 16.5l-19 38l-21 45q-5 10 -23 43l-23 46
l-22 45l-13 28l-8 17l-22 46q-6 15 -11.5 26l-9.5 19l-10 18l-10 21l-19 -38l-21 -44q-2 -3 -8.5 -17.5t-13.5 -27.5l-23 -44l-44 -86l-22 -46l-23 -44l-19 -36q-2 -9 -8.5 -15.5t-16.5 -7.5h-7l-8 3l-2 1q-8 4 -12.5 12t-3.5 17q-1 30 -3 40q-3 15 -5 48l-4 49q0 13 -3 46
l-6 45q0 1 -5 29q0 6 -2 20l-4 49l-4 47l-2 23l-3 24l-4 47l-4 49l-4 46l-6 47q-4 24 -5 48q-2 12 6.5 21.5t21.5 9.5q10 0 18.5 -7.5t10.5 -18.5q2 -31 5 -46q5 -37 5 -48l3 -21l2 -27l4 -47l4 -48l5 -47l4 -48l4 -47q3 -28 6 -45l7 -49q3 -34 3 -49l3 -46v-1l2 3
q8 15 20 44q2 4 8 16.5t14 27.5l23 44l22 45q16 29 22 43l22 45l21 43l22 45q8 15 26 15q5 0 13 -2q11 -6 14 -17q6 -14 22 -40l45 -92l21 -45l22 -45l21 -45q10 -22 23 -43l7 -15q6 -10 10 -18l2 28l3 46l4 96q2 30 2 45q0 33 1 49q2 32 4 49l4 46l3 47l3 48q1 7 1 26
q0 15 -1 19q0 42 1 50q1 11 9 19t19 8q12 0 20.5 -8.5t8.5 -20.5z" />
    <glyph glyph-name="wacute" unicode="&#x1e83;" horiz-adv-x="708" 
d="M255 781q0 16 14 24l33 20l102 57q6 3 14 3q16 0 25 -14q3 -6 3 -15q0 -15 -14 -24q-31 -18 -35 -19l-32 -19l-34 -19l-33 -20q-6 -3 -15 -3q-8 0 -14.5 3.5t-9.5 10.5q-4 8 -4 15zM631 612l-2 -34l-3 -47l-2 -47q-2 -33 -5 -49l-3 -46q-2 -30 -2 -46l-1 -49l-4 -94
q-1 -19 -2.5 -31t-1.5 -18l-3 -47l-2 -46l-2 -39q1 -2 1 -8q0 -7 -4.5 -14t-11.5 -11l-2 -1q-6 -2 -12 -2h-1q-10 1 -18 7.5t-8 16.5l-19 38l-21 45q-5 10 -23 43l-24 46l-21 45l-13 28l-8 17l-22 46l-21 45l-10 18l-11 21l-19 -38l-21 -44q-3 -5 -8.5 -17.5t-13.5 -27.5
l-23 -44l-22 -43l-21 -43l-22 -46q-19 -37 -24 -44l-18 -36q-2 -9 -9 -15.5t-17 -7.5h-6l-8 3l-3 1q-7 4 -11.5 12.5t-3.5 16.5q-1 22 -4 40q-4 32 -4 48l-5 49q0 24 -3 46l-5 45q-4 14 -7 49l-4 49l-4 47l-3 23l-2 24l-4 47q-2 17 -4 49l-4 46q-1 8 -2.5 19t-3.5 28l-6 48
q-2 12 6.5 21.5t21.5 9.5q11 0 19 -7.5t10 -18.5l5 -46q3 -15 6 -48l2 -21l3 -27q2 -32 4 -47l4 -48l4 -47q2 -16 4 -48l4 -47q2 -10 3.5 -24t3.5 -21l6 -49q4 -31 4 -49l3 -46v-1l1 3q13 24 21 44q2 4 8 16.5t14 27.5l23 44l22 45q16 29 22 43q9 20 22 45l21 43q9 20 22 45
q8 15 25 15q5 0 13 -2q12 -6 14 -17q9 -20 22 -40l24 -47l22 -45l20 -45q19 -38 22 -45l22 -45q8 -17 13.5 -27t8.5 -16l8 -15q6 -10 10 -18l1 28q3 15 3 46l3 48l1 48q2 30 2 45q0 17 2 49q0 6 1 21.5t3 27.5l4 46l2 47l4 48v26v19v50q1 11 9 19t20 8q11 0 20 -8.5t9 -20.5
l-1 -47z" />
    <glyph glyph-name="wcircumflex" unicode="&#x175;" horiz-adv-x="708" 
d="M193 753q0 12 9 21l15 14l16 17l31 30q14 16 39 37l26 22q9 9 20 9q3 0 9 -2q11 -5 15 -12l26 -26l57 -59l29 -30q8 -7 8 -20t-8 -20q-8 -8 -20 -8t-21 9l-28 29l-30 29l-28 30l-12 11l-5 -6q-22 -18 -37 -33l-31 -31l-31 -30q-8 -8 -20 -8q-13 0 -21 8t-8 19zM631 612
l-2 -34l-3 -47l-2 -47q-2 -33 -5 -49l-3 -46q-2 -30 -2 -46l-1 -49l-4 -94q-1 -19 -2.5 -31t-1.5 -18l-3 -47l-2 -46l-2 -39q1 -2 1 -8q0 -7 -4.5 -14t-11.5 -11l-2 -1q-6 -2 -12 -2h-1q-10 1 -18 7.5t-8 16.5l-19 38l-21 45q-5 10 -23 43l-24 46l-21 45l-13 28l-8 17
l-22 46l-21 45l-10 18l-11 21l-19 -38l-21 -44q-3 -5 -8.5 -17.5t-13.5 -27.5l-23 -44l-22 -43l-21 -43l-22 -46q-19 -37 -24 -44l-18 -36q-2 -9 -9 -15.5t-17 -7.5h-6l-8 3l-3 1q-7 4 -11.5 12.5t-3.5 16.5q-1 22 -4 40q-4 32 -4 48l-5 49q0 24 -3 46l-5 45q-4 14 -7 49
l-4 49l-4 47l-3 23l-2 24l-4 47q-2 17 -4 49l-4 46q-1 8 -2.5 19t-3.5 28l-6 48q-2 12 6.5 21.5t21.5 9.5q11 0 19 -7.5t10 -18.5l5 -46q3 -15 6 -48l2 -21l3 -27q2 -32 4 -47l4 -48l4 -47q2 -16 4 -48l4 -47q2 -10 3.5 -24t3.5 -21l6 -49q4 -31 4 -49l3 -46v-1l1 3
q13 24 21 44q2 4 8 16.5t14 27.5l23 44l22 45q16 29 22 43q9 20 22 45l21 43q9 20 22 45q8 15 25 15q5 0 13 -2q12 -6 14 -17q9 -20 22 -40l24 -47l22 -45l20 -45q19 -38 22 -45l22 -45q8 -17 13.5 -27t8.5 -16l8 -15q6 -10 10 -18l1 28q3 15 3 46l3 48l1 48q2 30 2 45
q0 17 2 49q0 6 1 21.5t3 27.5l4 46l2 47l4 48v26v19v50q1 11 9 19t20 8q11 0 20 -8.5t9 -20.5l-1 -47z" />
    <glyph glyph-name="wdieresis" unicode="&#x1e85;" horiz-adv-x="708" 
d="M254 820q4 9 11 12q7 5 16 5q15 0 24 -13l3 -8q3 -6 3 -13q0 -13 -10 -22q-8 -6 -18 -6t-18 6l-5 3q-9 9 -9 22q0 8 3 14zM394 820q3 7 11 12t15 5t14 -4t10 -9l4 -8q3 -6 3 -12q0 -13 -10 -23q-9 -6 -19 -6q-8 0 -17 6l-5 3q-10 9 -10 21q0 7 4 15zM631 612l-2 -34
l-3 -47l-2 -47q-2 -33 -5 -49l-3 -46q-2 -30 -2 -46l-1 -49l-4 -94q-1 -19 -2.5 -31t-1.5 -18l-3 -47l-2 -46l-2 -39q1 -2 1 -8q0 -7 -4.5 -14t-11.5 -11l-2 -1q-6 -2 -12 -2h-1q-10 1 -18 7.5t-8 16.5l-19 38l-21 45q-5 10 -23 43l-24 46l-21 45l-13 28l-8 17l-22 46
l-21 45l-10 18l-11 21l-19 -38l-21 -44q-3 -5 -8.5 -17.5t-13.5 -27.5l-23 -44l-22 -43l-21 -43l-22 -46q-19 -37 -24 -44l-18 -36q-2 -9 -9 -15.5t-17 -7.5h-6l-8 3l-3 1q-7 4 -11.5 12.5t-3.5 16.5q-1 22 -4 40q-4 32 -4 48l-5 49q0 24 -3 46l-5 45q-4 14 -7 49l-4 49
l-4 47l-3 23l-2 24l-4 47q-2 17 -4 49l-4 46q-1 8 -2.5 19t-3.5 28l-6 48q-2 12 6.5 21.5t21.5 9.5q11 0 19 -7.5t10 -18.5l5 -46q3 -15 6 -48l2 -21l3 -27q2 -32 4 -47l4 -48l4 -47q2 -16 4 -48l4 -47q2 -10 3.5 -24t3.5 -21l6 -49q4 -31 4 -49l3 -46v-1l1 3q13 24 21 44
q2 4 8 16.5t14 27.5l23 44l22 45q16 29 22 43q9 20 22 45l21 43q9 20 22 45q8 15 25 15q5 0 13 -2q12 -6 14 -17q9 -20 22 -40l24 -47l22 -45l20 -45q19 -38 22 -45l22 -45q8 -17 13.5 -27t8.5 -16l8 -15q6 -10 10 -18l1 28q3 15 3 46l3 48l1 48q2 30 2 45q0 17 2 49
q0 6 1 21.5t3 27.5l4 46l2 47l4 48v26v19v50q1 11 9 19t20 8q11 0 20 -8.5t9 -20.5l-1 -47z" />
    <glyph glyph-name="wgrave" unicode="&#x1e81;" horiz-adv-x="708" 
d="M232 873q8 14 24 14q10 0 15 -4l34 -20q2 -1 33 -20q31 -17 33 -18l34 -20q14 -9 14 -24q0 -7 -4 -15q-9 -14 -24 -14q-9 0 -15 3l-33 20q-14 6 -34 19q-1 0 -34 20q-2 1 -33 20q-14 8 -14 24q0 10 4 15zM631 612l-2 -34l-3 -47l-2 -47q-2 -33 -5 -49l-3 -46
q-2 -30 -2 -46l-1 -49l-4 -94q-1 -19 -2.5 -31t-1.5 -18l-3 -47l-2 -46l-2 -39q1 -2 1 -8q0 -7 -4.5 -14t-11.5 -11l-2 -1q-6 -2 -12 -2h-1q-10 1 -18 7.5t-8 16.5l-19 38l-21 45q-5 10 -23 43l-24 46l-21 45l-13 28l-8 17l-22 46l-21 45l-10 18l-11 21l-19 -38l-21 -44
q-3 -5 -8.5 -17.5t-13.5 -27.5l-23 -44l-22 -43l-21 -43l-22 -46q-19 -37 -24 -44l-18 -36q-2 -9 -9 -15.5t-17 -7.5h-6l-8 3l-3 1q-7 4 -11.5 12.5t-3.5 16.5q-1 22 -4 40q-4 32 -4 48l-5 49q0 24 -3 46l-5 45q-4 14 -7 49l-4 49l-4 47l-3 23l-2 24l-4 47q-2 17 -4 49
l-4 46q-1 8 -2.5 19t-3.5 28l-6 48q-2 12 6.5 21.5t21.5 9.5q11 0 19 -7.5t10 -18.5l5 -46q3 -15 6 -48l2 -21l3 -27q2 -32 4 -47l4 -48l4 -47q2 -16 4 -48l4 -47q2 -10 3.5 -24t3.5 -21l6 -49q4 -31 4 -49l3 -46v-1l1 3q13 24 21 44q2 4 8 16.5t14 27.5l23 44l22 45
q16 29 22 43q9 20 22 45l21 43q9 20 22 45q8 15 25 15q5 0 13 -2q12 -6 14 -17q9 -20 22 -40l24 -47l22 -45l20 -45q19 -38 22 -45l22 -45q8 -17 13.5 -27t8.5 -16l8 -15q6 -10 10 -18l1 28q3 15 3 46l3 48l1 48q2 30 2 45q0 17 2 49q0 6 1 21.5t3 27.5l4 46l2 47l4 48v26
v19v50q1 11 9 19t20 8q11 0 20 -8.5t9 -20.5l-1 -47z" />
    <glyph glyph-name="x" unicode="x" horiz-adv-x="551" 
d="M289 375l7 -13l23 -42l24 -43q2 -4 7 -14.5t15 -30.5l22 -41l22 -43l24 -42l24 -41q11 -19 24 -43q4 -5 4 -14q0 -16 -14 -25q-4 -3 -14 -3q-17 0 -25 14q-12 24 -24 41l-11 19l-14 24l-23 43l-24 42q-13 25 -22 45l-21 42l-24 42l-15 27l-6 -9l-20 -33l-54 -92l-29 -46
l-28 -44l-53 -92q-9 -14 -25 -14q-3 0 -15 4q-13 10 -13 25q0 7 4 15l27 45l27 47l56 90l27 45l27 46l20 33q22 36 23 38l-24 42l-23 43l-22 42l-24 41q-12 19 -25 43l-23 43l-24 42q-3 6 -3 14q0 16 15 25q4 3 13 3q17 0 26 -14l23 -43l23 -42q12 -24 24 -41q4 -6 25 -43
l23 -43l22 -43l9 -15l29 45l27 38l26 37l15 21l12 17l26 37l26 39q10 17 27 38q6 12 22 12q11 0 17 -5q12 -7 12 -23q0 -9 -5 -17q-11 -15 -25 -38l-26 -38l-27 -38l-26 -37q-18 -26 -28 -39l-26 -37l-33 -49z" />
    <glyph glyph-name="y" unicode="y" horiz-adv-x="512" 
d="M455 671q-5 -8 -23 -47q-6 -18 -23 -51l-25 -48l-13 -24l-11 -23l-26 -49q-15 -25 -26 -46q-16 -32 -23 -49l-21 -40q0 -33 1 -40l1 -48q0 -16 -2 -48q-1 -15 -1 -45v-92q0 -11 -8.5 -19.5t-20.5 -8.5q-11 0 -19.5 8.5t-8.5 19.5v92q0 33 1 49q2 30 2 44l-1 45
q-1 7 -1 40l-14 30l-7 15q-17 37 -23 48l-23 49l-25 49l-24 48q-2 4 -8 15t-17 34q-2 4 -8 17.5t-16 30.5q-15 28 -24 49q-3 6 -3 13q0 19 16 26q6 3 13 3t14 -4.5t11 -12.5l24 -48l24 -49l9 -18l16 -30l48 -98l25 -49l21 -44l11 23l11 21l26 49q14 23 24 45q21 40 26 48
l24 49l10 20q12 25 12 27l24 50q3 7 10 11.5t15 4.5q7 0 13 -3q7 -3 11.5 -10.5t4.5 -15.5q0 -7 -3 -13z" />
    <glyph glyph-name="yacute" unicode="&#xfd;" horiz-adv-x="554" 
d="M164 782q0 16 15 25l33 18q20 13 34 21l35 19l32 18q12 4 15 4q16 0 24 -14q4 -8 4 -15q0 -17 -14 -24l-35 -20l-33 -18l-33 -19l-34 -20q-8 -4 -14 -4q-16 0 -25 15q-4 10 -4 14zM474 671q-5 -8 -23 -47q-14 -33 -24 -51l-24 -48l-13 -24l-12 -23l-26 -49l-25 -46
l-24 -49l-20 -40q0 -33 1 -40l1 -48q0 -16 -2 -48q-2 -30 -2 -45v-92q0 -11 -8 -19.5t-20 -8.5t-20.5 8.5t-8.5 19.5v92q0 17 2 49q2 30 2 44l-1 45q-1 7 -1 40l-14 30l-7 15q-10 23 -15.5 33.5t-7.5 14.5l-48 98l-24 48q-2 4 -8 15t-17 34l-24 48q-15 28 -24 49q-4 5 -4 13
q0 18 17 26q6 3 13 3q8 0 14.5 -5t9.5 -12l25 -48l24 -49l9 -18l16 -30l72 -147l22 -44l11 23l11 21l26 49q14 23 24 45l25 48l25 49l22 47l24 50q3 7 10 11.5t15 4.5q7 0 13 -3q7 -3 11 -10t4 -16t-2 -13z" />
    <glyph glyph-name="ycircumflex" unicode="&#x177;" horiz-adv-x="512" 
d="M88 772q0 14 11 23l31 25l31 24q21 18 39 30l26 18q6 5 18 5h9q8 -4 15 -11l23 -20l58 -48l29 -23q11 -9 11 -22q0 -10 -8 -18q-8 -11 -22 -11q-8 0 -18 7l-28 23l-30 24l-28 24l-13 11q-7 -5 -9 -7q-11 -6 -36 -26l-32 -25l-30 -24q-9 -7 -18 -7q-15 0 -23 11
q-6 6 -6 17zM455 671q-5 -8 -23 -47q-6 -18 -23 -51l-25 -48l-13 -24l-11 -23l-26 -49q-15 -25 -26 -46q-16 -32 -23 -49l-21 -40q0 -33 1 -40l1 -48q0 -16 -2 -48q-1 -15 -1 -45v-92q0 -11 -8.5 -19.5t-20.5 -8.5q-11 0 -19.5 8.5t-8.5 19.5v92q0 33 1 49q2 30 2 44l-1 45
q-1 7 -1 40l-14 30l-7 15q-17 37 -23 48l-23 49l-25 49l-24 48q-2 4 -8 15t-17 34q-2 4 -8 17.5t-16 30.5q-15 28 -24 49q-3 6 -3 13q0 19 16 26q6 3 13 3t14 -4.5t11 -12.5l24 -48l24 -49l9 -18l16 -30l48 -98l25 -49l21 -44l11 23l11 21l26 49q14 23 24 45q21 40 26 48
l24 49l10 20q12 25 12 27l24 50q3 7 10 11.5t15 4.5q7 0 13 -3q7 -3 11.5 -10.5t4.5 -15.5q0 -7 -3 -13z" />
    <glyph glyph-name="ydieresis" unicode="&#xff;" horiz-adv-x="512" 
d="M146 819q5 9 11 13q8 4 15 4q16 0 25 -13q3 -6 4 -7q2 -4 2 -13q0 -13 -9 -22q-10 -7 -19 -7q-8 0 -18 7l-4 3q-10 9 -10 21q0 8 3 14zM287 819q1 7 10 13q8 4 16 4q17 0 23 -13l4 -7q4 -5 4 -13q0 -13 -11 -22q-9 -7 -19 -7q-6 0 -17 7q-2 0 -5 3q-9 11 -9 21q0 9 4 14z
M455 671q-5 -8 -23 -47q-6 -18 -23 -51l-25 -48l-13 -24l-11 -23l-26 -49q-15 -25 -26 -46q-16 -32 -23 -49l-21 -40q0 -33 1 -40l1 -48q0 -16 -2 -48q-1 -15 -1 -45v-92q0 -11 -8.5 -19.5t-20.5 -8.5q-11 0 -19.5 8.5t-8.5 19.5v92q0 33 1 49q2 30 2 44l-1 45q-1 7 -1 40
l-14 30l-7 15q-17 37 -23 48l-23 49l-25 49l-24 48q-2 4 -8 15t-17 34q-2 4 -8 17.5t-16 30.5q-15 28 -24 49q-3 6 -3 13q0 19 16 26q6 3 13 3t14 -4.5t11 -12.5l24 -48l24 -49l9 -18l16 -30l48 -98l25 -49l21 -44l11 23l11 21l26 49q14 23 24 45q21 40 26 48l24 49l10 20
q12 25 12 27l24 50q3 7 10 11.5t15 4.5q7 0 13 -3q7 -3 11.5 -10.5t4.5 -15.5q0 -7 -3 -13z" />
    <glyph glyph-name="ygrave" unicode="&#x1ef3;" horiz-adv-x="512" 
d="M144 869q8 14 25 14q8 0 13 -4l17 -9l18 -12l32 -19l34 -19l33 -20q7 -3 11 -10t4 -14q0 -6 -4 -14q-3 -7 -10 -11t-15 -4q-3 0 -15 4q-25 16 -33 19l-33 20l-35 20l-32 20q-14 8 -14 24q0 7 4 15zM455 671q-5 -8 -23 -47q-6 -18 -23 -51l-25 -48l-13 -24l-11 -23
l-26 -49q-15 -25 -26 -46q-16 -32 -23 -49l-21 -40q0 -33 1 -40l1 -48q0 -16 -2 -48q-1 -15 -1 -45v-92q0 -11 -8.5 -19.5t-20.5 -8.5q-11 0 -19.5 8.5t-8.5 19.5v92q0 33 1 49q2 30 2 44l-1 45q-1 7 -1 40l-14 30l-7 15q-17 37 -23 48l-23 49l-25 49l-24 48q-2 4 -8 15
t-17 34q-2 4 -8 17.5t-16 30.5q-15 28 -24 49q-3 6 -3 13q0 19 16 26q6 3 13 3t14 -4.5t11 -12.5l24 -48l24 -49l9 -18l16 -30l48 -98l25 -49l21 -44l11 23l11 21l26 49q14 23 24 45q21 40 26 48l24 49l10 20q12 25 12 27l24 50q3 7 10 11.5t15 4.5q7 0 13 -3
q7 -3 11.5 -10.5t4.5 -15.5q0 -7 -3 -13z" />
    <glyph glyph-name="z" unicode="z" horiz-adv-x="542" 
d="M98 57q2 -1 8 -1l48 -1h100l51 -2q12 -2 47 -2q17 -1 50 -1l49 -1q12 0 20.5 -8.5t8.5 -20.5t-8.5 -20t-20.5 -8h-1l-49 1h-49q-14 0 -52 3l-47 2h-123q-21 0 -26 1l-48 2l-9 -2q-3 0 -15 4q-13 10 -13 25q0 8 4 15l24 41l78 126q17 29 28 41l26 39q21 33 24 42l25 42
l26 41q10 19 25 43l54 81l26 42l25 41l24 39h-10q-33 0 -48 -1q-21 0 -32.5 0.5t-17.5 0.5q-16 1 -47 1h-47q-9 -1 -49 -1l-47 -1q-32 -2 -49 -2h-1q-11 0 -19.5 8.5t-8.5 20.5q0 11 8.5 19.5t19.5 8.5l48 1q32 2 49 2q40 0 48 1h48q33 0 50 -1q6 0 16.5 -0.5t29.5 -0.5
q16 1 48 1q6 0 17 0.5t31 0.5q6 0 7 -1q2 1 7 1q4 0 16 -4q13 -9 13 -25q0 -3 -4 -15l-26 -41l-25 -42l-26 -41l-25 -42l-28 -42l-26 -40l-25 -40l-26 -43q-13 -21 -24 -41l-26 -43q-20 -31 -28 -41l-26 -40l-26 -41q-19 -29 -25 -42z" />
    <glyph glyph-name="zero.ss01" horiz-adv-x="328" 
d="M138 2h-1q-36 0 -62 24q-20 19 -33 50l-1 1q-17 38 -19 50q-4 18 -5 52l-1 18q-1 6 -1 24q0 22 4 50q8 57 28 93q16 28 41 43t55 15q30 -1 54.5 -15t39.5 -40q22 -37 29 -92q3 -25 3 -40q0 -2 -0.5 -7.5t-0.5 -18.5l-3 -23q-3 -72 -21 -112q-16 -35 -42 -54
q-27 -18 -64 -18zM142 365q-28 0 -46 -29q-15 -27 -21 -73q-3 -27 -3 -40q0 -16 1 -22l1 -18q1 -19 4 -44q4 -13 16 -39v-1q16 -40 44 -40q19 0 31.5 9t22.5 29q14 33 16 91l1 1l1 25l2 21q0 12 -3 33q-5 45 -21 70q-15 27 -46 27z" />
    <glyph glyph-name="one.ss01" horiz-adv-x="197" 
d="M166.5 10.5q-8.5 -8.5 -19.5 -8.5h-126q-11 0 -19.5 8.5t-8.5 19.5v1q0 11 8.5 20t19.5 9h35v113q-1 8 -1 47v141q-9 -7 -25 -18q-7 -4 -15 -4q-12 0 -22 8l-3 5q-4 8 -4 15q0 16 12 25l31 19l3 2l25 18q8 5 17 5q6 0 8 -1h4q11 0 19.5 -8.5t8.5 -20.5q0 -40 -1 -47v-91
q2 -30 2 -48l-1 -47l-1 -11q1 -6 1 -34v-46q0 -15 -1 -21h33q12 0 20.5 -8.5t8.5 -21.5q0 -12 -8.5 -20.5z" />
    <glyph glyph-name="two.ss01" horiz-adv-x="312" 
d="M259 29q-10 -8 -25 -7h-11q-48 2 -78 2h-1q-59 0 -88 -4h-5q-22 0 -33 18q-7 13 -7 31q0 22 10 48t28 49q26 36 92 83q38 27 60 63q12 20 12 34t-10 23q-11 12 -30.5 19.5t-39.5 7.5q-32 0 -44 -17q-12 -18 -13 -20v-2q0 -1 4 -25q2 -13 -6 -24t-22 -11q-10 0 -18 6.5
t-10 16.5q-5 21 -5 37q0 10 1 12q3 19 24 45q30 39 89 39q32 0 62.5 -12t49.5 -33q25 -28 25 -62q0 -31 -20 -63q-30 -49 -75 -81q-60 -42 -80 -70q-23 -30 -26 -54l77 3l49 -1q7 -1 29 -1l13 -1l2 1q12 0 20.5 -8.5t8.5 -19.5t-9 -22z" />
    <glyph glyph-name="three.ss01" horiz-adv-x="305" 
d="M220 57q-19 -22 -46 -34.5t-58 -12.5l-13 1q-50 3 -79 42q-22 31 -22 71q0 13 8.5 22t20.5 9t20.5 -8.5t8.5 -20.5q0 -19 9 -40q12 -18 48 -18q37 0 60 26q16 17 16 43q0 14 -5 24q-15 30 -57 48h-1q-8 0 -15 4t-10 10q-4 10 -4 14q0 8 4.5 15.5t11.5 10.5q39 21 50 46
q7 16 7 25q0 13 -10 26q-8 11 -23.5 17.5t-31.5 6.5q-19 0 -29 -7.5t-11 -28.5q-1 -12 -10.5 -20t-20.5 -6q-12 1 -19.5 9.5t-7.5 20.5q5 35 22 57q26 32 76 32q29 0 56 -12t44 -33q22 -26 22 -62q0 -29 -13 -52q-14 -24 -31 -39q36 -23 53 -58q10 -21 10 -48q0 -46 -30 -80
z" />
    <glyph glyph-name="four.ss01" horiz-adv-x="308" 
d="M261 152.5q-8 -8.5 -20 -9.5l-31 -1v-64q0 -4 0.5 -13.5t0.5 -29.5q0 -11 -8.5 -19.5t-19.5 -8.5q-12 0 -20.5 8.5t-8.5 19.5q0 18 -0.5 27.5t-0.5 14.5v61l-80 -3h-29l-27 -1h-1q-9 0 -16.5 5t-10.5 13t-3 13q0 7 5 15l27 42q3 4 10.5 14.5t16.5 26.5l27 41l27 42
q17 27 28 41l10 15l17 25q6 9 16 13l11 1q5 0 13 -2q16 -9 16 -29v-92v-43l-1 -52v-24l31 1h1q11 0 19 -8t9 -20q0 -11 -8 -19.5zM152 223l1 53v55l-6 -10l-31 -48l-53 -81h5l85 3q-1 6 -1 28z" />
    <glyph glyph-name="five.ss01" horiz-adv-x="308" 
d="M243 82q-19 -34 -47 -52t-61 -18l-10 1q-68 6 -101 56q-4 12 -4 16q0 7 4 13.5t9 10.5q8 4 16 4q7 0 13.5 -3.5t10.5 -9.5q8 -14 24.5 -22t37.5 -8q37 0 58 38q12 21 12 45q0 20 -8 36q-21 40 -68 50q-3 1 -12 1q-13 0 -43 -7q-25 -4 -29 -3q-12 1 -19.5 10t-6.5 20
q0 3 1 4l-1 27q-1 10 -1 37l-2 59l-1 11q0 12 8.5 20.5t19.5 7.5q16 0 44 -2q16 0 22 -1h61l44 1q12 -1 20 -9t7 -20q0 -12 -8.5 -20t-19.5 -8q-34 0 -42 -1l-30 -1h-13l-44 3h-10q1 -11 1 -39q0 -26 1 -37q28 5 42 5q12 0 24 -3q72 -15 106 -79q14 -31 14 -61
q0 -36 -19 -72z" />
    <glyph glyph-name="six.ss01" horiz-adv-x="324" 
d="M50 52q-12 17 -18.5 36.5t-12.5 50.5l-3 14v4q-1 8 -1 27q0 17 1.5 27.5t8.5 29.5l8 25q14 52 49 98q42 53 99 64q12 2 21.5 -4.5t12.5 -18.5q2 -11 -5 -21t-18 -12q-35 -6 -64 -42q-25 -34 -34 -60q14 6 26 9q23 5 40 5q37 0 66 -21q23 -17 35 -44.5t12 -61.5
q0 -51 -23 -91q-15 -29 -39.5 -45t-53.5 -16q-73 0 -107 47zM85 109.5q4 -12.5 11 -23.5q17 -24 61 -24q24 0 44 32q15 29 15 64q0 41 -24 60q-16 9 -32 9q-15 0 -27 -4q-16 -3 -32 -17q-21 -21 -23 -49l-3 -9q6 -26 10 -38.5z" />
    <glyph glyph-name="seven.ss01" horiz-adv-x="283" 
d="M243 370l-12 -42l-12 -44q-8 -27 -15 -44q-3 -5 -14 -41l-12 -42l-12 -44l-13 -43l-13 -42q-4 -10 -11.5 -15.5t-16.5 -5.5q-6 0 -8 1q-10 3 -15.5 10.5t-5.5 16.5l2 9l26 86l12 42l12 43q11 36 15 44l14 41l12 43l3 8h-53q-14 0 -44 -2q-8 -1 -46 -1h-1q-11 0 -19.5 8.5
t-8.5 19.5q0 12 8 20.5t20 8.5q37 0 44 1l46 2h45l45 1q14 0 23 -13q7 -10 7 -18z" />
    <glyph glyph-name="eight.ss01" horiz-adv-x="307" 
d="M134 1h-4q-35 1 -61.5 15t-41.5 39q-16 26 -16 60q0 30 13 56q18 35 49 57q-40 36 -40 83q0 20 8.5 40t22.5 36q32 30 71 30q48 0 72 -29q23 -24 23 -82q0 -49 -25 -74l-10 -9q27 -19 43 -52q14 -28 14 -56q0 -32 -17 -61q-17 -25 -42 -39q-28 -14 -59 -14zM105 347
q-14 -15 -14 -36q0 -31 39 -54q29 9 36 16q5 5 7 34q0 32 -9 45l-4 3.5t-23 4.5q-18 0 -32 -13zM75 146q-7 -14 -7 -31q0 -19 8 -31q17 -26 59 -26q36 0 51 26q9 14 9 30t-8 32q-17 34 -54 47l-7 3q-33 -17 -51 -50z" />
    <glyph glyph-name="nine.ss01" horiz-adv-x="311" 
d="M70 6h-5q-12 1 -20 9.5t-7 19.5q0 12 8 20t19 8q46 0 75 30q28 31 41 81l3 9q-37 -10 -58 -10q-37 0 -65 17t-43 49q-11 24 -11 53q0 34 13 60q15 34 41.5 52.5t58.5 18.5q35 0 60.5 -12.5t40.5 -33.5q30 -40 30 -105l1 -26q0 -15 -2 -31q-2 -13 -9 -40q-4 -8 -4 -16
q-20 -68 -56 -105q-45 -48 -111 -48zM119 366h-2q-27 -2 -46 -37q-8 -17 -8 -36q0 -15 6 -30q16 -32 57 -32q24 0 69 15v25q-2 49 -20 72q-17 23 -56 23z" />
    <glyph glyph-name="Euro" unicode="&#x20ac;" horiz-adv-x="442" 
d="M399 69q7 -8 7 -20q0 -13 -9 -21q-55 -49 -124 -52h-5q-53 0 -97 39q-32 30 -56 85q-15 34 -26 88h-58q-11 0 -20 8.5t-9 19.5q0 12 9 20.5t20 8.5h47q-2 9 -4 40q0 7 1 9v19q-30 2 -44 2q-11 0 -20 8.5t-9 20.5t8.5 20t20.5 8q14 0 44 -2v16q2 58 7 92q11 50 30 99
q24 61 62 90q48 42 107 42q73 0 122 -52q9 -7 9 -20q0 -11 -9 -20q-10 -8 -20 -8q-11 0 -21 8q-35 35 -81 35q-39 0 -70 -28q-29 -26 -46 -69q-19 -48 -26 -87q-5 -31 -7 -85v-14h82q28 0 44 1q30 2 48 2q11 0 19.5 -8.5t8.5 -20.5q0 -11 -8.5 -19.5t-20.5 -8.5
q-13 0 -43 -2q-16 -1 -46 -1h-84q0 -15 0.5 -20t0.5 -7v-1q1 -1 1 -5l-2 -10l3 -24h33q7 1 46 1h92q11 0 19.5 -8.5t8.5 -20.5t-8.5 -20.5t-20.5 -8.5q-15 1 -28.5 0.5t-16.5 -0.5h-112q8 -36 19 -66q17 -41 43 -64q26 -25 58 -25q50 0 91 37q8 7 19 7t21 -8z" />
    <glyph glyph-name="cent.ss01" horiz-adv-x="279" 
d="M215 94q-15 -20 -40 -30q-4 -2 -29 -8v-40q0 -12 -8.5 -20t-20.5 -8t-20 8t-8 20v46q-19 7 -25 13q-26 20 -40 54q-6 17 -7.5 25.5t-1.5 24.5v15q0 28 3 41q4 19 22 46q17 24 42 35l9 5v48q0 13 8.5 21t19.5 8q12 0 20.5 -8t8.5 -21v-42q28 -3 49 -19q10 -7 10 -22
q0 -4 -2.5 -8t-3.5 -5q-9 -10 -23 -10q-12 0 -17 5q-4 4 -13 6q0 -27 -1 -32l-1 -50l1 -43v-38l6 2q12 5 20 13q10 10 20 10q12 0 17 -5q6 -5 8 -9t2 -11q0 -12 -5 -17zM90 117v20l-1 55l1 51l1 22l-5 -5q-9 -9 -14 -28.5t-5 -37.5v-16q0 -11 5 -24t6 -16q5 -14 12 -21z" />
    <glyph glyph-name="currency.ss01" horiz-adv-x="398" 
d="M338 28q0 -14 -9 -21q-6 -6 -18 -6t-21 9q-13 16 -31 30l-17 16l-9 -5q-24 -12 -57 -12q-30 0 -55 13l-10 6l-15 -16l-32 -33q-7 -9 -20 -9q-11 0 -18 7q-9 6 -9 21q0 11 7 18q26 28 34 35l17 17q-13 25 -15 44q-4 14 -5 23t0 23v4q1 38 16 61l-15 13l-35 35q-6 6 -6 18
q0 13 9 20q7 7 18 7q14 0 20 -9q9 -11 30 -30q8 -6 19 -17q4 4 11 5q26 13 59 13q30 0 56 -14l9 -5l14 15l32 33q6 9 20 9q11 0 18 -7q9 -7 9 -20q0 -11 -7 -18l-33 -35l-19 -19q6 -12 8 -19t4 -20l2 -7q0 -8 1 -12l2 -18q0 -8 -3 -23q-3 -28 -15 -53l16 -14q8 -7 36 -35
q7 -7 7 -18zM220 108l6 6l2 2l3 5q7 13 10 33l2 16l-2 11l-1 12l-2 8l-1 10l-7 14q-9 15 -20 23q-14 6 -29 6q-16 0 -37 -8l-17 -10l-1 -2l-4 -2l-5 -7q-7 -11 -8 -35v-19q0 -6 4 -18q6 -23 12 -32q1 -3 3 -5q1 -1 6 -7q1 -2 12 -9q14 -6 30 -6q21 0 34 6q6 3 10 8z" />
    <glyph glyph-name="dollar.ss01" horiz-adv-x="292" 
d="M218.5 138.5q7.5 -16.5 7.5 -33.5t-9 -34q-18 -35 -73 -43v-3q2 -32 1 -49q0 -8 -5.5 -13t-13.5 -5q-7 0 -12.5 5.5t-5.5 12.5q1 15 -1 47v3q-27 2 -46 13t-29 27q-17 24 -17 57q0 27 8 43q3 8 10.5 13.5t16.5 5.5q12 0 17.5 -7.5t5.5 -20.5q0 -6 -2 -10q-3 -6 -3 -22
q0 -19 6 -28q5 -7 14 -13.5t17 -7.5l1 44q1 8 1 47v20l-12 8q-67 39 -67 105q0 43 29 74q22 24 52 28v51q0 8 5.5 13t12.5 5q8 0 13.5 -5t5.5 -13v-50q40 -5 60 -26q9 -11 14 -25t12 -48v-1q2 -14 -4.5 -24.5t-20.5 -10.5q-8 0 -15.5 6.5t-9.5 16.5v2l-6 23q-2 11 -14 23
q-6 10 -17 12l1 -41l1 -54q0 -28 -1 -34q30 -20 49 -45q16 -22 23.5 -38.5zM108 347q-29 -14 -29 -48q0 -12 8.5 -26t21.5 -25v61zM167.5 127.5q-7.5 12.5 -23.5 25.5v-34l-1 -41q19 2 30 21q2 4 2 6q0 10 -7.5 22.5z" />
    <glyph glyph-name="Euro.ss01" horiz-adv-x="329" 
d="M260 65q8 -8 8 -19q0 -12 -10 -22q-34 -28 -76 -31h-4q-32 0 -61 24q-20 18 -33 52l-3 8l-12 27h-26q-11 0 -19.5 8.5t-8.5 19.5q0 9 8.5 16.5t19.5 7.5h17v24h-17q-11 0 -19.5 7.5t-8.5 16.5q0 12 8.5 20t19.5 8h18q0 15 3 31q6 55 27 95q16 29 35 42q26 20 60 20
q45 0 76 -33q8 -7 8 -20t-8 -20q-9 -8 -20 -8t-21 8q-16 16 -35 16q-27 0 -45 -33q-16 -26 -20 -74l-3 -24q11 0 35 2q26 2 40 2q12 0 20.5 -8.5t8.5 -20.5q0 -11 -8 -17t-21 -6h-1q-10 0 -34 -2t-38 -2h-2v-23h75q11 0 20 -7.5t9 -15.5q0 -12 -8.5 -20.5t-20.5 -8.5h-36
q-6 -1 -28 -1l4 -9q1 -2 1.5 -2t1.5 -2q11 -24 21 -32t22 -8q25 0 40 16q8 7 20 7q14 0 21 -9z" />
    <glyph glyph-name="sterling.ss01" horiz-adv-x="316" 
d="M248.5 10.5q-8.5 -8.5 -20.5 -8.5h-39l-40 -1h-5l-36 1h-39q-11 0 -19.5 8.5t-8.5 20.5q0 17 15 25q-3 27 -7 74q0 5 -1 6h-5q-11 0 -19.5 8.5t-8.5 20.5q0 11 8.5 19.5t19.5 8.5h4q0 22 1 40q3 63 19 107q14 37 33 56q28 25 64 25q44 0 68 -28q16 -19 20 -50
q2 -11 -4.5 -21t-18.5 -11q-11 -2 -21.5 4.5t-11.5 18.5q-5 20 -8 22q-1 3 -7 5.5t-17 2.5q-15 0 -25 -10.5t-18 -32.5q-14 -39 -17 -90v-41h18l38 1l40 1q11 0 19.5 -8.5t8.5 -20.5t-8 -20t-20 -8l-38 -1l-40 -1h-17l8 -74q6 -1 35 -1q33 0 40 1l40 1q12 0 20.5 -9t8.5 -20
q0 -12 -8.5 -20.5z" />
    <glyph glyph-name="yen.ss01" horiz-adv-x="345" 
d="M281 369l-25 -40q-8 -17 -27 -44l-28 -43l-6 -9q11 -1 32 -1q12 0 20 -8.5t8 -20.5q0 -8 -8.5 -15.5t-19.5 -7.5q-14 0 -25.5 1t-15.5 1h-7v-27h8q26 2 40 2q11 0 19.5 -7.5t8.5 -16.5q0 -12 -8 -20t-20 -8l-37 -1l-11 -1l-1 -28q0 -6 -0.5 -16.5t-0.5 -28.5
q0 -11 -8.5 -19.5t-20.5 -8.5t-20 8.5t-8 19.5q0 17 2 49v24l-13 1q-12 1 -36 1q-12 0 -20 8.5t-8 20.5q0 9 8.5 16.5t19.5 7.5q13 0 41 -2l8 -1v28h-49q-12 0 -20 6t-8 17q0 12 8 20.5t20 8.5h32l-6 11l-26 42l-27 42l-27 43q-4 5 -4 15q0 16 13 25q10 4 14 4q16 0 25 -13
l27 -43l27 -43q15 -23 27 -43l3 -6l3 5l28 42q15 21 24 40q16 28 28 44q3 7 9.5 10.5t14.5 3.5t15 -5q13 -7 13 -24q0 -10 -5 -16z" />
    <glyph glyph-name="percent.ss01" horiz-adv-x="307" 
d="M92.5 -2.5q-6.5 -5.5 -12.5 -5.5l-9 1q-20 8 -20 27q0 5 2 9l13 44q4 17 14 49l32 90l5 16l9 29l15 46q9 23 15 45l14 46q10 20 28 20q11 0 17.5 -8.5t6.5 -20.5l-2 -9l-15 -45l-14 -46l-6 -17l-9 -28l-15 -46q-12 -36 -16 -46l-15 -44q-2 -6 -7 -20t-7 -25
q-3 -14 -14 -48q-3 -8 -9.5 -13.5zM25 292.5q-10 10.5 -10 27.5q0 15 10 25.5t26 10.5q14 0 24 -9q12 -12 12 -28t-8 -24q-10 -11 -25 -13h-3q-16 0 -26 10.5zM51 330h-1q-9 -2 -9 -9v-3q0 -9 10 -9q2 0 8 2q2 4 2 9t-4 8zM210 51q-15 0 -26 10.5t-11 25.5q0 14 8 25t21 14
h8q10 0 22 -6q12 -9 16 -25l1 -7q0 -8 -7 -20q-8 -14 -23 -17h-9zM210 99l-1 -1q-4 -1 -6.5 -4.5t-2.5 -6.5v-1q2 -8 10 -8h3q4 1 7 4l1 8q-3 6 -5 7q-4 2 -6 2z" />
    </font>
</defs>
</svg>
