<?xml version="1.0" standalone="no"?>
<!DOCTYPE svg PUBLIC "-//W3C//DTD SVG 1.1//EN" "http://www.w3.org/Graphics/SVG/1.1/DTD/svg11.dtd" >
<svg xmlns="http://www.w3.org/2000/svg" xmlns:xlink="http://www.w3.org/1999/xlink" version="1.1">
<metadata>
Created by FontForge 20190801 at Wed Aug  8 12:38:37 2018
 By Jimmy Wärting
\(c\) 2018 Pets at Home Ltd
</metadata>
<defs>
<font id="PaHOscar-Regular" horiz-adv-x="350" >
  <font-face 
    font-family="PaH Oscar"
    font-weight="400"
    font-stretch="normal"
    units-per-em="1000"
    panose-1="2 1 4 3 2 2 0 2 0 3"
    ascent="800"
    descent="-200"
    x-height="509"
    cap-height="684"
    bbox="-39.9621 -240 1144 884"
    underline-thickness="50"
    underline-position="-100"
    unicode-range="U+000D-25CA"
  />
<missing-glyph horiz-adv-x="555" 
 />
    <glyph glyph-name=".notdef" horiz-adv-x="555" 
 />
    <glyph glyph-name="A" unicode="A" horiz-adv-x="580" 
d="M369 642c125 -375 204 -608 217 -618c-62 -35 -144 -62 -175 32l-36 112h-205c-28 -86 -43 -145 -44 -163c-73 -28 -147 -9 -107 102l194 535c12 33 30 42 77 42c49 0 68 -9 79 -42zM275 473c-27 -72 -51 -140 -71 -200h136z" />
    <glyph glyph-name="Aacute" unicode="&#xc1;" horiz-adv-x="580" 
d="M231 723c-40 -9 -50 -5 -58 23s-3 35 39 52l112 45c25 10 50 20 64 29c37 -47 27 -109 -36 -123zM369 642c125 -375 204 -608 217 -618c-62 -35 -144 -62 -175 32l-36 112h-205c-28 -86 -43 -145 -44 -163c-73 -28 -147 -9 -107 102l194 535c12 33 30 42 77 42
c49 0 68 -9 79 -42zM275 473c-27 -72 -51 -140 -71 -200h136z" />
    <glyph glyph-name="Acircumflex" unicode="&#xc2;" horiz-adv-x="580" 
d="M209 726c-35 -18 -51 -21 -67 2c-15 22 -13 31 17 56l77 64c23 19 27 23 55 23s32 -4 55 -23l77 -64c30 -25 32 -34 17 -56c-16 -23 -32 -20 -67 -2l-82 42zM369 642c125 -375 204 -608 217 -618c-62 -35 -144 -62 -175 32l-36 112h-205c-28 -86 -43 -145 -44 -163
c-73 -28 -147 -9 -107 102l194 535c12 33 30 42 77 42c49 0 68 -9 79 -42zM275 473c-27 -72 -51 -140 -71 -200h136z" />
    <glyph glyph-name="Adieresis" unicode="&#xc4;" horiz-adv-x="580" 
d="M195 720c-46 0 -66 18 -66 50v30c0 32 20 50 66 50s68 -18 68 -50v-30c0 -32 -22 -50 -68 -50zM393 720c-46 0 -66 18 -66 50v30c0 32 20 50 66 50s68 -18 68 -50v-30c0 -32 -22 -50 -68 -50zM369 642c125 -375 204 -608 217 -618c-62 -35 -144 -62 -175 32l-36 112h-205
c-28 -86 -43 -145 -44 -163c-73 -28 -147 -9 -107 102l194 535c12 33 30 42 77 42c49 0 68 -9 79 -42zM275 473c-27 -72 -51 -140 -71 -200h136z" />
    <glyph glyph-name="Agrave" unicode="&#xc0;" horiz-adv-x="580" 
d="M242 749c-63 14 -73 76 -36 123c14 -9 39 -19 64 -29l112 -45c42 -17 47 -24 39 -52s-18 -32 -58 -23zM369 642c125 -375 204 -608 217 -618c-62 -35 -144 -62 -175 32l-36 112h-205c-28 -86 -43 -145 -44 -163c-73 -28 -147 -9 -107 102l194 535c12 33 30 42 77 42
c49 0 68 -9 79 -42zM275 473c-27 -72 -51 -140 -71 -200h136z" />
    <glyph glyph-name="Aring" unicode="&#xc5;" horiz-adv-x="580" 
d="M293 704c-68 0 -112 37 -112 89c0 58 44 91 113 91c72 0 112 -33 112 -86c0 -57 -40 -94 -113 -94zM292 839c-24 0 -34 -20 -34 -38c0 -21 11 -46 36 -46s34 23 34 46s-14 38 -36 38zM369 642c125 -375 204 -608 217 -618c-62 -35 -144 -62 -175 32l-36 112h-205
c-28 -86 -43 -145 -44 -163c-73 -28 -147 -9 -107 102l194 535c12 33 30 42 77 42c49 0 68 -9 79 -42zM275 473c-27 -72 -51 -140 -71 -200h136z" />
    <glyph glyph-name="Atilde" unicode="&#xc3;" horiz-adv-x="580" 
d="M128 716c-15 9 -15 17 -7 42c20 63 46 100 105 100c47 0 126 -43 167 -43c17 0 29 7 43 24c13 15 18 22 36 16s20 -17 13 -41c-18 -61 -44 -101 -92 -101c-40 0 -137 43 -167 43c-23 0 -34 -2 -56 -24c-20 -20 -26 -26 -42 -16zM369 642c125 -375 204 -608 217 -618
c-62 -35 -144 -62 -175 32l-36 112h-205c-28 -86 -43 -145 -44 -163c-73 -28 -147 -9 -107 102l194 535c12 33 30 42 77 42c49 0 68 -9 79 -42zM275 473c-27 -72 -51 -140 -71 -200h136z" />
    <glyph glyph-name="AE" unicode="&#xc6;" horiz-adv-x="837" 
d="M766 113c34 0 41 -21 41 -55s-7 -58 -41 -58h-283c-46 0 -61 18 -61 56v142h-183c-77 -103 -107 -176 -112 -196c-58 -25 -127 -5 -127 50c0 26 7 56 41 101l365 486c26 35 44 43 90 43h268c34 0 41 -21 41 -56s-7 -59 -41 -59h-191v-176h158c34 0 41 -21 41 -54
s-7 -57 -41 -57h-158v-167h193zM422 464c-40 -58 -81 -114 -115 -161h115v161z" />
    <glyph glyph-name="B" unicode="B" horiz-adv-x="568" 
d="M433 351c77 -25 109 -82 109 -158c0 -96 -67 -200 -265 -200c-180 0 -227 12 -227 84v551c0 51 108 59 210 59c174 0 252 -94 252 -186c0 -59 -16 -116 -79 -150zM201 574v-184h57c90 0 112 47 112 98c0 36 -15 90 -131 90c-12 0 -25 -2 -38 -4zM258 105
c113 0 135 54 135 93c0 61 -36 87 -116 88h-76v-178c15 -2 36 -3 57 -3z" />
    <glyph glyph-name="C" unicode="C" horiz-adv-x="581" 
d="M527 158c14 -6 49 -46 6 -92c-55 -58 -133 -75 -215 -75c-171 0 -298 119 -298 337c0 251 148 359 319 359c138 0 216 -75 216 -126c0 -36 -44 -72 -78 -72c-36 0 -68 30 -97 107c-133 -3 -211 -86 -210 -262c1 -161 84 -231 197 -231c62 0 114 19 160 55z" />
    <glyph glyph-name="Ccedilla" unicode="&#xc7;" horiz-adv-x="581" 
d="M527 158c14 -6 49 -46 6 -92c-55 -58 -133 -75 -215 -75c-9 0 -18 0 -26 1l-9 -45c67 6 131 -22 131 -91c0 -70 -80 -96 -141 -96c-60 0 -95 26 -95 44c0 11 3 16 10 25c14 -9 28 -21 61 -21c42 0 56 25 56 51c0 31 -21 40 -38 40c-11 0 -26 -4 -35 -4
c-12 0 -19 10 -19 19c0 8 2 15 5 23l21 63c-130 32 -219 145 -219 328c0 251 148 359 319 359c138 0 216 -75 216 -126c0 -36 -44 -72 -78 -72c-36 0 -68 30 -97 107c-133 -3 -211 -86 -210 -262c1 -161 84 -231 197 -231c62 0 114 19 160 55z" />
    <glyph glyph-name="D" unicode="D" horiz-adv-x="644" 
d="M265 687c192 0 347 -108 347 -336c0 -251 -133 -360 -355 -360c-162 0 -207 12 -207 84v543c0 56 108 69 215 69zM462 344c1 170 -74 232 -193 232c-29 0 -55 -3 -77 -8v-461c15 -3 40 -5 86 -5c103 0 183 55 184 242z" />
    <glyph glyph-name="Eth" unicode="&#xd0;" horiz-adv-x="720" 
d="M341 687c192 0 347 -108 347 -336c0 -251 -133 -360 -355 -360c-162 0 -207 12 -207 84v224h-104c-9 28 -22 93 49 93h55v226c0 56 108 69 215 69zM538 344c1 170 -74 232 -193 232c-29 0 -55 -3 -77 -8v-176c79 0 149 0 168 2c12 -48 -4 -95 -51 -95h-117v-192
c15 -3 40 -5 86 -5c103 0 183 55 184 242z" />
    <glyph glyph-name="E" unicode="E" horiz-adv-x="465" 
d="M394 113c34 0 41 -21 41 -55s-7 -58 -41 -58h-283c-46 0 -61 18 -61 56v565c0 54 21 61 74 61h268c34 0 41 -21 41 -56s-7 -59 -41 -59h-191v-166h158c34 0 41 -21 41 -54s-7 -57 -41 -57h-158v-177h193z" />
    <glyph glyph-name="Eacute" unicode="&#xc9;" horiz-adv-x="465" 
d="M350 872c37 -47 27 -109 -36 -123l-121 -26c-40 -9 -50 -5 -58 23s-3 35 39 52l112 45c25 10 50 20 64 29zM394 113c34 0 41 -21 41 -55s-7 -58 -41 -58h-283c-46 0 -61 18 -61 56v565c0 54 21 61 74 61h268c34 0 41 -21 41 -56s-7 -59 -41 -59h-191v-166h158
c34 0 41 -21 41 -54s-7 -57 -41 -57h-158v-177h193z" />
    <glyph glyph-name="Ecircumflex" unicode="&#xca;" horiz-adv-x="465" 
d="M160 726c-35 -18 -51 -21 -67 2c-15 22 -13 31 17 56l77 64c23 19 27 23 55 23s32 -4 55 -23l77 -64c30 -25 32 -34 17 -56c-16 -23 -32 -20 -67 -2l-82 42zM394 113c34 0 41 -21 41 -55s-7 -58 -41 -58h-283c-46 0 -61 18 -61 56v565c0 54 21 61 74 61h268
c34 0 41 -21 41 -56s-7 -59 -41 -59h-191v-166h158c34 0 41 -21 41 -54s-7 -57 -41 -57h-158v-177h193z" />
    <glyph glyph-name="Edieresis" unicode="&#xcb;" horiz-adv-x="465" 
d="M135 850c46 0 68 -18 68 -50v-30c0 -32 -22 -50 -68 -50s-66 18 -66 50v30c0 32 20 50 66 50zM333 850c46 0 68 -18 68 -50v-30c0 -32 -22 -50 -68 -50s-66 18 -66 50v30c0 32 20 50 66 50zM394 113c34 0 41 -21 41 -55s-7 -58 -41 -58h-283c-46 0 -61 18 -61 56v565
c0 54 21 61 74 61h268c34 0 41 -21 41 -56s-7 -59 -41 -59h-191v-166h158c34 0 41 -21 41 -54s-7 -57 -41 -57h-158v-177h193z" />
    <glyph glyph-name="Egrave" unicode="&#xc8;" horiz-adv-x="465" 
d="M142 872c14 -9 39 -19 64 -29l112 -45c42 -17 47 -24 39 -52s-18 -32 -58 -23l-121 26c-63 14 -73 76 -36 123zM394 113c34 0 41 -21 41 -55s-7 -58 -41 -58h-283c-46 0 -61 18 -61 56v565c0 54 21 61 74 61h268c34 0 41 -21 41 -56s-7 -59 -41 -59h-191v-166h158
c34 0 41 -21 41 -54s-7 -57 -41 -57h-158v-177h193z" />
    <glyph glyph-name="F" unicode="F" horiz-adv-x="472" 
d="M407 569h-206v-181h167c34 0 41 -21 41 -53s-7 -56 -41 -56h-167v-226c0 -21 0 -36 3 -48c-29 -15 -103 -24 -136 5c-18 16 -18 42 -18 67v564c0 34 21 41 74 41h283c34 0 41 -21 41 -55s-7 -58 -41 -58z" />
    <glyph glyph-name="G" unicode="G" horiz-adv-x="598" 
d="M494 339c47 0 71 -7 71 -41v-203c0 -72 -85 -104 -217 -104c-201 0 -328 109 -328 337c0 251 145 359 315 359c148 0 226 -75 226 -126c0 -36 -44 -72 -78 -72c-36 0 -68 30 -97 107c-142 -3 -217 -86 -216 -262c1 -171 84 -239 187 -239c36 0 51 2 66 7v196
c0 34 21 41 71 41z" />
    <glyph glyph-name="H" unicode="H" horiz-adv-x="630" 
d="M575 53c0 -21 0 -36 3 -48c-29 -15 -103 -24 -136 5c-18 16 -18 42 -18 67v212h-223v-236c0 -21 0 -36 3 -48c-29 -15 -103 -24 -136 5c-18 16 -18 42 -18 67v566c0 34 21 41 74 41s77 -7 77 -41v-239h223v239c0 34 21 41 74 41s77 -7 77 -41v-590z" />
    <glyph glyph-name="I" unicode="I" horiz-adv-x="256" 
d="M204 5c-29 -15 -103 -24 -136 5c-18 16 -18 42 -18 67v566c0 34 21 41 74 41s77 -7 77 -41v-590c0 -21 0 -36 3 -48z" />
    <glyph glyph-name="Iacute" unicode="&#xcd;" horiz-adv-x="252" 
d="M220 872c37 -47 27 -109 -36 -123l-121 -26c-40 -9 -50 -5 -58 23s-3 35 39 52l112 45c25 10 50 20 64 29zM204 5c-29 -15 -103 -24 -136 5c-18 16 -18 42 -18 67v566c0 34 21 41 74 41s77 -7 77 -41v-590c0 -21 0 -36 3 -48z" />
    <glyph glyph-name="Icircumflex" unicode="&#xce;" horiz-adv-x="252" 
d="M262 784c30 -25 32 -34 17 -56c-16 -23 -32 -20 -67 -2l-82 42l-82 -42c-35 -18 -51 -21 -67 2c-15 22 -13 31 17 56l77 64c23 19 27 23 55 23s32 -4 55 -23zM201 643v-590c0 -21 0 -36 3 -48c-29 -15 -103 -24 -136 5c-18 16 -18 42 -18 67v566c0 34 21 41 74 41
s77 -7 77 -41z" />
    <glyph glyph-name="Idieresis" unicode="&#xcf;" horiz-adv-x="252" 
d="M32 850c46 0 68 -18 68 -50v-30c0 -32 -22 -50 -68 -50s-66 18 -66 50v30c0 32 20 50 66 50zM230 850c46 0 68 -18 68 -50v-30c0 -32 -22 -50 -68 -50s-66 18 -66 50v30c0 32 20 50 66 50zM204 5c-29 -15 -103 -24 -136 5c-18 16 -18 42 -18 67v566c0 34 21 41 74 41
s77 -7 77 -41v-590c0 -21 0 -36 3 -48z" />
    <glyph glyph-name="Igrave" unicode="&#xcc;" horiz-adv-x="252" 
d="M32 872c14 -9 39 -19 64 -29l112 -45c42 -17 47 -24 39 -52s-18 -32 -58 -23l-121 26c-63 14 -73 76 -36 123zM204 5c-29 -15 -103 -24 -136 5c-18 16 -18 42 -18 67v566c0 34 21 41 74 41s77 -7 77 -41v-590c0 -21 0 -36 3 -48z" />
    <glyph glyph-name="J" unicode="J" horiz-adv-x="250" 
d="M124 684c53 0 77 -7 77 -41v-508c0 -94 -19 -173 -55 -219c-33 -43 -62 -62 -106 -62c-33 0 -54 15 -58 38c8 5 30 23 43 52c20 45 25 93 25 189v510c0 34 21 41 74 41z" />
    <glyph glyph-name="K" unicode="K" horiz-adv-x="579" 
d="M349 358c187 -271 218 -291 230 -302c-57 -60 -123 -100 -178 -22l-151 212l-49 -61v-132c0 -21 0 -36 3 -48c-29 -15 -103 -24 -136 5c-18 16 -18 42 -18 67v566c0 34 21 41 74 41s77 -7 77 -41v-298c114 163 208 310 219 336c54 9 133 -42 67 -133z" />
    <glyph glyph-name="L" unicode="L" horiz-adv-x="451" 
d="M394 113c34 0 41 -21 41 -55s-7 -58 -41 -58h-288c-37 0 -56 17 -56 55v588c0 34 21 41 74 41s77 -7 77 -41v-530h193z" />
    <glyph glyph-name="M" unicode="M" horiz-adv-x="768" 
d="M719 53c0 -21 0 -36 3 -48c-29 -15 -99 -24 -132 5c-18 16 -18 42 -18 67l-3 304l-150 -357c-10 -25 -22 -30 -38 -30c-18 0 -31 5 -43 30l-166 342l-3 -313c0 -21 0 -36 3 -48c-37 -12 -82 -18 -108 5c-18 16 -18 42 -18 67l4 566c0 34 21 41 81 41c49 0 68 -4 81 -32
l188 -403l164 394c14 34 24 41 62 41c65 0 89 -7 89 -41z" />
    <glyph glyph-name="N" unicode="N" horiz-adv-x="629" 
d="M518 684c38 0 59 -7 59 -41v-608c0 -34 -21 -41 -61 -41c-41 0 -55 6 -72 30l-273 390v-361c0 -21 0 -36 3 -48c-37 -12 -80 -18 -106 5c-18 16 -18 42 -18 67v566c0 34 21 41 61 41c41 0 54 -4 73 -32l272 -390v381c0 34 24 41 62 41z" />
    <glyph glyph-name="Ntilde" unicode="&#xd1;" horiz-adv-x="627" 
d="M142 716c-15 9 -15 17 -7 42c20 63 46 100 105 100c47 0 126 -43 167 -43c17 0 29 7 43 24c13 15 18 22 36 16s20 -17 13 -41c-18 -61 -44 -101 -92 -101c-40 0 -137 43 -167 43c-23 0 -34 -2 -56 -24c-20 -20 -26 -26 -42 -16zM518 684c38 0 59 -7 59 -41v-608
c0 -34 -21 -41 -61 -41c-41 0 -55 6 -72 30l-273 390v-361c0 -21 0 -36 3 -48c-37 -12 -80 -18 -106 5c-18 16 -18 42 -18 67v566c0 34 21 41 61 41c41 0 54 -4 73 -32l272 -390v381c0 34 24 41 62 41z" />
    <glyph glyph-name="O" unicode="O" horiz-adv-x="661" 
d="M631 350c0 -240 -108 -359 -302 -359c-183 0 -299 119 -299 347c0 241 116 349 301 349c192 0 300 -108 300 -337zM473 356c-2 142 -33 229 -145 229c-122 0 -142 -110 -142 -229c0 -135 25 -260 146 -260s143 120 141 260z" />
    <glyph glyph-name="Oacute" unicode="&#xd3;" horiz-adv-x="661" 
d="M434 872c37 -47 27 -109 -36 -123l-121 -26c-40 -9 -50 -5 -58 23s-3 35 39 52l112 45c25 10 50 20 64 29zM631 350c0 -240 -108 -359 -302 -359c-183 0 -299 119 -299 347c0 241 116 349 301 349c192 0 300 -108 300 -337zM473 356c-2 142 -33 229 -145 229
c-122 0 -142 -110 -142 -229c0 -135 25 -260 146 -260s143 120 141 260z" />
    <glyph glyph-name="Ocircumflex" unicode="&#xd4;" horiz-adv-x="661" 
d="M258 726c-35 -18 -51 -21 -67 2c-15 22 -13 31 17 56l77 64c23 19 27 23 55 23s32 -4 55 -23l77 -64c30 -25 32 -34 17 -56c-16 -23 -32 -20 -67 -2l-82 42zM331 687c192 0 300 -108 300 -337c0 -240 -108 -359 -302 -359c-183 0 -299 119 -299 347
c0 241 116 349 301 349zM332 96c121 0 143 120 141 260c-2 142 -33 229 -145 229c-122 0 -142 -110 -142 -229c0 -135 25 -260 146 -260z" />
    <glyph glyph-name="Odieresis" unicode="&#xd6;" horiz-adv-x="661" 
d="M222 850c46 0 68 -18 68 -50v-30c0 -32 -22 -50 -68 -50s-66 18 -66 50v30c0 32 20 50 66 50zM420 850c46 0 68 -18 68 -50v-30c0 -32 -22 -50 -68 -50s-66 18 -66 50v30c0 32 20 50 66 50zM631 350c0 -240 -108 -359 -302 -359c-183 0 -299 119 -299 347
c0 241 116 349 301 349c192 0 300 -108 300 -337zM473 356c-2 142 -33 229 -145 229c-122 0 -142 -110 -142 -229c0 -135 25 -260 146 -260s143 120 141 260z" />
    <glyph glyph-name="Ograve" unicode="&#xd2;" horiz-adv-x="661" 
d="M249 872c14 -9 39 -19 64 -29l112 -45c42 -17 47 -24 39 -52s-18 -32 -58 -23l-121 26c-63 14 -73 76 -36 123zM631 350c0 -240 -108 -359 -302 -359c-183 0 -299 119 -299 347c0 241 116 349 301 349c192 0 300 -108 300 -337zM473 356c-2 142 -33 229 -145 229
c-122 0 -142 -110 -142 -229c0 -135 25 -260 146 -260s143 120 141 260z" />
    <glyph glyph-name="Oslash" unicode="&#xd8;" horiz-adv-x="661" 
d="M562 594c45 -55 69 -136 69 -244c0 -240 -108 -359 -302 -359c-57 0 -108 12 -150 34l-53 -78c-17 -25 -32 -22 -62 -2c-28 19 -38 28 -20 55l59 88c-47 58 -73 142 -73 250c0 241 116 349 301 349c60 0 112 -10 154 -32l46 68c17 25 33 27 64 5c27 -19 36 -31 18 -58z
M178 356c0 -50 2 -99 11 -140l232 344c-22 17 -53 25 -93 25c-132 0 -150 -110 -150 -229zM332 96c131 0 151 120 149 260c-1 40 -2 76 -8 107l-230 -342c22 -16 51 -25 89 -25z" />
    <glyph glyph-name="Otilde" unicode="&#xd5;" horiz-adv-x="661" 
d="M510 855c18 -6 20 -17 13 -41c-18 -61 -44 -101 -92 -101c-40 0 -137 43 -167 43c-23 0 -34 -2 -56 -24c-20 -20 -26 -26 -42 -16c-15 9 -15 17 -7 42c20 63 46 100 105 100c47 0 126 -43 167 -43c17 0 29 7 43 24c13 15 18 22 36 16zM631 350
c0 -240 -108 -359 -302 -359c-183 0 -299 119 -299 347c0 241 116 349 301 349c192 0 300 -108 300 -337zM473 356c-2 142 -33 229 -145 229c-122 0 -142 -110 -142 -229c0 -135 25 -260 146 -260s143 120 141 260z" />
    <glyph glyph-name="OE" unicode="&#x152;" horiz-adv-x="889" 
d="M818 113c34 0 41 -21 41 -55s-7 -58 -41 -58h-283c-41 0 -57 14 -60 44c-37 -38 -92 -53 -158 -53c-171 0 -287 119 -287 347c0 241 116 349 291 349c69 0 120 -18 153 -53c4 42 25 48 74 48h268c34 0 41 -21 41 -56s-7 -59 -41 -59h-191v-166h158c34 0 41 -21 41 -54
s-7 -57 -41 -57h-158v-177h193zM332 96c121 0 143 120 141 260c-2 142 -33 229 -145 229c-122 0 -142 -110 -142 -229c0 -135 25 -260 146 -260z" />
    <glyph glyph-name="P" unicode="P" horiz-adv-x="562" 
d="M260 687c197 0 282 -99 282 -221c0 -116 -67 -225 -265 -225c-29 0 -54 0 -76 1v-189c0 -21 0 -36 3 -48c-29 -15 -103 -24 -136 5c-18 16 -18 42 -18 67v547c0 55 108 63 210 63zM258 349c113 0 135 52 135 113c0 56 -20 117 -144 117c-16 0 -33 -2 -48 -5v-222
c15 -2 36 -3 57 -3z" />
    <glyph glyph-name="Thorn" unicode="&#xde;" horiz-adv-x="552" 
d="M260 560c187 0 272 -99 272 -211c0 -106 -67 -215 -255 -215c-29 0 -54 0 -76 1v-82c0 -21 0 -36 3 -48c-29 -15 -103 -24 -136 5c-18 16 -18 42 -18 67v566c0 34 21 41 74 41s77 -7 77 -41v-84c19 1 39 1 59 1zM258 242c103 0 125 52 125 103c0 46 -20 107 -134 107
c-17 0 -33 -2 -48 -5v-202c15 -2 36 -3 57 -3z" />
    <glyph glyph-name="Q" unicode="Q" horiz-adv-x="661" 
d="M566 -75c41 -24 56 -40 56 -57c0 -25 -25 -76 -61 -76s-152 34 -266 200c-163 14 -265 132 -265 346c0 241 116 349 301 349c192 0 300 -108 300 -337c0 -210 -83 -327 -233 -353c58 -20 125 -47 168 -72zM186 356c0 -135 25 -260 146 -260s143 120 141 260
c-2 142 -33 229 -145 229c-122 0 -142 -110 -142 -229z" />
    <glyph glyph-name="R" unicode="R" horiz-adv-x="562" 
d="M408 287c115 -214 139 -236 148 -247c-65 -51 -134 -81 -177 4l-109 216c-26 0 -49 0 -69 1v-208c0 -21 0 -36 3 -48c-29 -15 -103 -24 -136 5c-18 16 -18 42 -18 67v547c0 55 108 63 210 63c174 0 259 -99 259 -211c0 -74 -32 -150 -111 -189zM258 369
c90 0 112 47 112 103c0 46 -15 104 -121 104c-16 0 -33 -2 -48 -5v-199c15 -2 36 -3 57 -3z" />
    <glyph glyph-name="S" unicode="S" horiz-adv-x="519" 
d="M300 396c114 -52 188 -102 186 -207c-2 -98 -57 -201 -234 -202c-98 0 -242 43 -240 132c1 41 45 83 96 83c42 -1 70 -42 94 -125c93 -13 134 31 135 90c1 66 -47 87 -118 119c-106 46 -172 101 -170 209c2 136 107 191 221 191c97 0 209 -45 207 -123
c-1 -39 -42 -72 -81 -71c-39 0 -65 37 -83 107c-78 17 -121 -23 -122 -86c-1 -60 39 -85 109 -117z" />
    <glyph glyph-name="uni1E9E" unicode="&#x1e9e;" horiz-adv-x="661" 
d="M474 393c82 -37 157 -95 157 -209c0 -122 -78 -198 -201 -198c-98 0 -180 31 -180 115c0 39 35 75 79 74c34 -1 61 -35 78 -111c42 -12 81 37 82 99c0 95 -74 136 -172 162l104 223c-26 29 -64 37 -108 37c-79 0 -112 -47 -112 -155v-377c0 -21 0 -36 3 -48
c-29 -15 -103 -24 -136 5c-18 16 -18 42 -18 67v350c0 222 108 260 250 260c129 0 232 -55 259 -119z" />
    <glyph glyph-name="T" unicode="T" horiz-adv-x="508" 
d="M460 682c34 0 41 -21 41 -55s-7 -58 -41 -58h-130v-516c0 -21 0 -36 3 -48c-29 -15 -103 -24 -136 5c-18 16 -18 42 -18 67v492h-130c-34 0 -41 21 -41 55s7 58 41 58h411z" />
    <glyph glyph-name="U" unicode="U" horiz-adv-x="573" 
d="M463 684c38 0 64 -7 64 -41v-394c0 -177 -75 -257 -241 -257s-241 80 -241 257v394c0 34 21 41 74 41s77 -7 77 -41l2 -396c0 -92 13 -150 101 -150s101 58 101 150l2 396c0 34 21 41 61 41z" />
    <glyph glyph-name="Uacute" unicode="&#xda;" horiz-adv-x="570" 
d="M398 872c37 -47 27 -109 -36 -123l-121 -26c-40 -9 -50 -5 -58 23s-3 35 39 52l112 45c25 10 50 20 64 29zM463 684c38 0 64 -7 64 -41v-394c0 -177 -75 -257 -241 -257s-241 80 -241 257v394c0 34 21 41 74 41s77 -7 77 -41l2 -396c0 -92 13 -150 101 -150
s101 58 101 150l2 396c0 34 21 41 61 41z" />
    <glyph glyph-name="Ucircumflex" unicode="&#xdb;" horiz-adv-x="570" 
d="M209 726c-35 -18 -51 -21 -67 2c-15 22 -13 31 17 56l77 64c23 19 27 23 55 23s32 -4 55 -23l77 -64c30 -25 32 -34 17 -56c-16 -23 -32 -20 -67 -2l-82 42zM463 684c38 0 64 -7 64 -41v-394c0 -177 -75 -257 -241 -257s-241 80 -241 257v394c0 34 21 41 74 41
s77 -7 77 -41l2 -396c0 -92 13 -150 101 -150s101 58 101 150l2 396c0 34 21 41 61 41z" />
    <glyph glyph-name="Udieresis" unicode="&#xdc;" horiz-adv-x="570" 
d="M191 850c46 0 68 -18 68 -50v-30c0 -32 -22 -50 -68 -50s-66 18 -66 50v30c0 32 20 50 66 50zM389 850c46 0 68 -18 68 -50v-30c0 -32 -22 -50 -68 -50s-66 18 -66 50v30c0 32 20 50 66 50zM463 684c38 0 64 -7 64 -41v-394c0 -177 -75 -257 -241 -257s-241 80 -241 257
v394c0 34 21 41 74 41s77 -7 77 -41l2 -396c0 -92 13 -150 101 -150s101 58 101 150l2 396c0 34 21 41 61 41z" />
    <glyph glyph-name="Ugrave" unicode="&#xd9;" horiz-adv-x="570" 
d="M183 872c14 -9 39 -19 64 -29l112 -45c42 -17 47 -24 39 -52s-18 -32 -58 -23l-121 26c-63 14 -73 76 -36 123zM463 684c38 0 64 -7 64 -41v-394c0 -177 -75 -257 -241 -257s-241 80 -241 257v394c0 34 21 41 74 41s77 -7 77 -41l2 -396c0 -92 13 -150 101 -150
s101 58 101 150l2 396c0 34 21 41 61 41z" />
    <glyph glyph-name="V" unicode="V" horiz-adv-x="571" 
d="M440 673c73 28 145 10 107 -102l-181 -535c-11 -33 -30 -42 -77 -42c-49 0 -69 9 -79 42c-113 373 -187 608 -200 618c62 35 153 63 181 -32l116 -398c76 235 131 416 133 449z" />
    <glyph glyph-name="W" unicode="W" horiz-adv-x="810" 
d="M684 661c74 28 143 15 112 -111l-126 -505c-10 -41 -31 -51 -85 -51c-56 0 -74 10 -86 51l-84 290l-86 -290c-12 -41 -33 -51 -80 -51c-48 0 -73 10 -85 51c-28 94 -140 585 -152 603c74 41 163 76 185 -38l76 -393l106 403c8 30 25 40 54 40s45 -7 54 -40l107 -405
c35 144 87 413 90 446z" />
    <glyph glyph-name="Wacute" unicode="&#x1e82;" horiz-adv-x="810" 
d="M376 723c-40 -9 -50 -5 -58 23s-3 35 39 52l112 45c25 10 50 20 64 29c37 -47 27 -109 -36 -123zM684 661c74 28 143 15 112 -111l-126 -505c-10 -41 -31 -51 -85 -51c-56 0 -74 10 -86 51l-84 290l-86 -290c-12 -41 -33 -51 -80 -51c-48 0 -73 10 -85 51
c-28 94 -140 585 -152 603c74 41 163 76 185 -38l76 -393l106 403c8 30 25 40 54 40s45 -7 54 -40l107 -405c35 144 87 413 90 446z" />
    <glyph glyph-name="Wcircumflex" unicode="&#x174;" horiz-adv-x="810" 
d="M353 726c-35 -18 -51 -21 -67 2c-15 22 -13 31 17 56l77 64c23 19 27 23 55 23s32 -4 55 -23l77 -64c30 -25 32 -34 17 -56c-16 -23 -32 -20 -67 -2l-82 42zM684 661c74 28 143 15 112 -111l-126 -505c-10 -41 -31 -51 -85 -51c-56 0 -74 10 -86 51l-84 290l-86 -290
c-12 -41 -33 -51 -80 -51c-48 0 -73 10 -85 51c-28 94 -140 585 -152 603c74 41 163 76 185 -38l76 -393l106 403c8 30 25 40 54 40s45 -7 54 -40l107 -405c35 144 87 413 90 446z" />
    <glyph glyph-name="Wdieresis" unicode="&#x1e84;" horiz-adv-x="810" 
d="M336 720c-46 0 -66 18 -66 50v30c0 32 20 50 66 50s68 -18 68 -50v-30c0 -32 -22 -50 -68 -50zM534 720c-46 0 -66 18 -66 50v30c0 32 20 50 66 50s68 -18 68 -50v-30c0 -32 -22 -50 -68 -50zM684 661c74 28 143 15 112 -111l-126 -505c-10 -41 -31 -51 -85 -51
c-56 0 -74 10 -86 51l-84 290l-86 -290c-12 -41 -33 -51 -80 -51c-48 0 -73 10 -85 51c-28 94 -140 585 -152 603c74 41 163 76 185 -38l76 -393l106 403c8 30 25 40 54 40s45 -7 54 -40l107 -405c35 144 87 413 90 446z" />
    <glyph glyph-name="Wgrave" unicode="&#x1e80;" horiz-adv-x="810" 
d="M379 749c-63 14 -73 76 -36 123c14 -9 39 -19 64 -29l112 -45c42 -17 47 -24 39 -52s-18 -32 -58 -23zM684 661c74 28 143 15 112 -111l-126 -505c-10 -41 -31 -51 -85 -51c-56 0 -74 10 -86 51l-84 290l-86 -290c-12 -41 -33 -51 -80 -51c-48 0 -73 10 -85 51
c-28 94 -140 585 -152 603c74 41 163 76 185 -38l76 -393l106 403c8 30 25 40 54 40s45 -7 54 -40l107 -405c35 144 87 413 90 446z" />
    <glyph glyph-name="X" unicode="X" horiz-adv-x="558" 
d="M361 361c136 -237 175 -299 193 -314c-60 -59 -144 -86 -197 11l-95 174c-62 -109 -116 -203 -135 -226c-20 -25 -56 -23 -78 -9c-29 19 -51 49 -24 88c40 58 121 184 169 261c-116 218 -164 277 -184 289c57 64 142 81 191 10c25 -35 64 -113 97 -175
c48 85 102 187 113 202c17 23 44 25 70 8c34 -21 49 -48 23 -88c-25 -39 -95 -154 -143 -231z" />
    <glyph glyph-name="Y" unicode="Y" horiz-adv-x="542" 
d="M505 553l-151 -267v-233c0 -21 0 -36 3 -48c-29 -15 -103 -24 -136 5c-18 16 -18 42 -18 67v206c-134 254 -187 362 -201 371c62 39 131 79 176 -10l122 -242c100 183 129 239 131 276c66 26 139 -10 74 -125z" />
    <glyph glyph-name="Yacute" unicode="&#xdd;" horiz-adv-x="542" 
d="M249 723c-40 -9 -50 -5 -58 23s-3 35 39 52l112 45c25 10 50 20 64 29c37 -47 27 -109 -36 -123zM505 553l-151 -267v-233c0 -21 0 -36 3 -48c-29 -15 -103 -24 -136 5c-18 16 -18 42 -18 67v206c-134 254 -187 362 -201 371c62 39 131 79 176 -10l122 -242
c100 183 129 239 131 276c66 26 139 -10 74 -125z" />
    <glyph glyph-name="Ycircumflex" unicode="&#x176;" horiz-adv-x="542" 
d="M202 726c-35 -18 -51 -21 -67 2c-15 22 -13 31 17 56l77 64c23 19 27 23 55 23s32 -4 55 -23l77 -64c30 -25 32 -34 17 -56c-16 -23 -32 -20 -67 -2l-82 42zM505 553l-151 -267v-233c0 -21 0 -36 3 -48c-29 -15 -103 -24 -136 5c-18 16 -18 42 -18 67v206
c-134 254 -187 362 -201 371c62 39 131 79 176 -10l122 -242c100 183 129 239 131 276c66 26 139 -10 74 -125z" />
    <glyph glyph-name="Ydieresis" unicode="&#x178;" horiz-adv-x="542" 
d="M183 720c-46 0 -66 18 -66 50v30c0 32 20 50 66 50s68 -18 68 -50v-30c0 -32 -22 -50 -68 -50zM381 720c-46 0 -66 18 -66 50v30c0 32 20 50 66 50s68 -18 68 -50v-30c0 -32 -22 -50 -68 -50zM505 553l-151 -267v-233c0 -21 0 -36 3 -48c-29 -15 -103 -24 -136 5
c-18 16 -18 42 -18 67v206c-134 254 -187 362 -201 371c62 39 131 79 176 -10l122 -242c100 183 129 239 131 276c66 26 139 -10 74 -125z" />
    <glyph glyph-name="Ygrave" unicode="&#x1ef2;" horiz-adv-x="542" 
d="M208 749c-63 14 -73 76 -36 123c14 -9 39 -19 64 -29l112 -45c42 -17 47 -24 39 -52s-18 -32 -58 -23zM505 553l-151 -267v-233c0 -21 0 -36 3 -48c-29 -15 -103 -24 -136 5c-18 16 -18 42 -18 67v206c-134 254 -187 362 -201 371c62 39 131 79 176 -10l122 -242
c100 183 129 239 131 276c66 26 139 -10 74 -125z" />
    <glyph glyph-name="Z" unicode="Z" horiz-adv-x="466" 
d="M453 117c25 -68 -2 -117 -73 -117h-323c-35 0 -70 22 -32 97l242 472h-184c-44 0 -56 9 -56 56c0 41 6 57 56 57h315c35 0 79 -25 37 -107l-237 -462h179c25 0 51 0 76 4z" />
    <glyph glyph-name="P.ss01" horiz-adv-x="460" 
d="M217 513c159 0 223 -75 223 -172c0 -94 -50 -176 -207 -176c-22 0 -43 0 -50 1v-125c0 -16 1 -27 3 -36c-23 -14 -99 -22 -123 1c-13 12 -13 32 -13 51v408c0 42 81 48 167 48zM218 259c76 0 92 35 92 79c0 41 -15 87 -99 87c-9 0 -19 -1 -29 -3l1 -162
c10 -1 23 -1 35 -1z" />
    <glyph glyph-name="a" unicode="a" horiz-adv-x="495" 
d="M448 53c0 -21 0 -36 3 -48c-42 -22 -118 -19 -130 32c-25 -37 -74 -51 -124 -51c-63 0 -159 33 -159 166c0 101 81 171 269 145v37c0 71 -10 120 -102 120c-19 -63 -49 -96 -80 -96c-38 0 -72 38 -72 76c0 42 75 98 191 98c152 0 204 -72 204 -211v-268zM246 77
c26 0 46 5 61 21v125c-62 23 -124 6 -124 -67c0 -58 36 -79 63 -79z" />
    <glyph glyph-name="aacute" unicode="&#xe1;" horiz-adv-x="495" 
d="M219 600c-35 -19 -46 -19 -63 8c-14 22 -11 29 24 58l95 78c17 14 38 27 54 42c50 -36 56 -99 0 -128zM448 53c0 -21 0 -36 3 -48c-42 -22 -118 -19 -130 32c-25 -37 -74 -51 -124 -51c-63 0 -159 33 -159 166c0 101 81 171 269 145v37c0 71 -10 120 -102 120
c-19 -63 -49 -96 -80 -96c-38 0 -72 38 -72 76c0 42 75 98 191 98c152 0 204 -72 204 -211v-268zM246 77c26 0 46 5 61 21v125c-62 23 -124 6 -124 -67c0 -58 36 -79 63 -79z" />
    <glyph glyph-name="acircumflex" unicode="&#xe2;" horiz-adv-x="495" 
d="M180 606c-32 -25 -43 -24 -63 -4c-19 19 -15 27 13 62l72 89c17 21 27 28 54 28c28 0 37 -6 55 -28l72 -89c28 -35 32 -43 13 -62c-21 -21 -31 -21 -63 4l-77 60zM448 53c0 -21 0 -36 3 -48c-42 -22 -118 -19 -130 32c-25 -37 -74 -51 -124 -51c-63 0 -159 33 -159 166
c0 101 81 171 269 145v37c0 71 -10 120 -102 120c-19 -63 -49 -96 -80 -96c-38 0 -72 38 -72 76c0 42 75 98 191 98c152 0 204 -72 204 -211v-268zM246 77c26 0 46 5 61 21v125c-62 23 -124 6 -124 -67c0 -58 36 -79 63 -79z" />
    <glyph glyph-name="adieresis" unicode="&#xe4;" horiz-adv-x="495" 
d="M160 607c-48 0 -69 19 -69 52v32c0 33 21 52 69 52s71 -19 71 -52v-32c0 -33 -23 -52 -71 -52zM358 607c-48 0 -69 19 -69 52v32c0 33 21 52 69 52s71 -19 71 -52v-32c0 -33 -23 -52 -71 -52zM448 53c0 -21 0 -36 3 -48c-42 -22 -118 -19 -130 32
c-25 -37 -74 -51 -124 -51c-63 0 -159 33 -159 166c0 101 81 171 269 145v37c0 71 -10 120 -102 120c-19 -63 -49 -96 -80 -96c-38 0 -72 38 -72 76c0 42 75 98 191 98c152 0 204 -72 204 -211v-268zM246 77c26 0 46 5 61 21v125c-62 23 -124 6 -124 -67
c0 -58 36 -79 63 -79z" />
    <glyph glyph-name="agrave" unicode="&#xe0;" horiz-adv-x="495" 
d="M196 658c-56 30 -50 92 0 128c16 -15 37 -28 54 -42l95 -78c35 -29 38 -36 24 -58c-17 -27 -28 -26 -63 -8zM448 53c0 -21 0 -36 3 -48c-42 -22 -118 -19 -130 32c-25 -37 -74 -51 -124 -51c-63 0 -159 33 -159 166c0 101 81 171 269 145v37c0 71 -10 120 -102 120
c-19 -63 -49 -96 -80 -96c-38 0 -72 38 -72 76c0 42 75 98 191 98c152 0 204 -72 204 -211v-268zM246 77c26 0 46 5 61 21v125c-62 23 -124 6 -124 -67c0 -58 36 -79 63 -79z" />
    <glyph glyph-name="aring" unicode="&#xe5;" horiz-adv-x="495" 
d="M260 574c-75 0 -122 47 -122 103c0 62 47 105 123 105c79 0 122 -43 122 -100c0 -61 -43 -108 -123 -108zM259 735c-34 0 -42 -34 -42 -50c0 -23 9 -58 44 -58s44 33 42 58s-12 50 -44 50zM448 53c0 -21 0 -36 3 -48c-42 -22 -118 -19 -130 32c-25 -37 -74 -51 -124 -51
c-63 0 -159 33 -159 166c0 101 81 171 269 145v37c0 71 -10 120 -102 120c-19 -63 -49 -96 -80 -96c-38 0 -72 38 -72 76c0 42 75 98 191 98c152 0 204 -72 204 -211v-268zM246 77c26 0 46 5 61 21v125c-62 23 -124 6 -124 -67c0 -58 36 -79 63 -79z" />
    <glyph glyph-name="atilde" unicode="&#xe3;" horiz-adv-x="495" 
d="M82 606c-16 9 -16 20 -8 46c19 62 48 101 110 101c45 0 117 -50 155 -50c18 0 29 8 45 32c12 18 19 24 38 17s21 -18 14 -44c-17 -63 -46 -105 -97 -105c-37 0 -128 50 -155 50c-24 0 -33 -4 -58 -31c-20 -22 -27 -25 -44 -16zM448 53c0 -21 0 -36 3 -48
c-42 -22 -118 -19 -130 32c-25 -37 -74 -51 -124 -51c-63 0 -159 33 -159 166c0 101 81 171 269 145v37c0 71 -10 120 -102 120c-19 -63 -49 -96 -80 -96c-38 0 -72 38 -72 76c0 42 75 98 191 98c152 0 204 -72 204 -211v-268zM246 77c26 0 46 5 61 21v125
c-62 23 -124 6 -124 -67c0 -58 36 -79 63 -79z" />
    <glyph glyph-name="ae" unicode="&#xe6;" horiz-adv-x="783" 
d="M758 302c-1 -34 -17 -57 -67 -62l-225 -20c10 -85 55 -130 122 -130c57 0 102 16 140 46c11 -5 42 -47 4 -85c-46 -48 -111 -62 -183 -62c-80 0 -145 30 -187 83c-41 -73 -105 -86 -165 -86c-63 0 -159 33 -159 166c0 102 82 173 273 145v37c0 71 -10 120 -106 120
c-19 -63 -49 -96 -80 -96c-38 0 -72 38 -72 76c0 42 75 98 191 98c73 0 123 -21 155 -60c37 40 89 63 148 63c156 0 215 -105 211 -233zM599 314c1 52 6 130 -61 130c-56 0 -73 -70 -75 -142zM246 77c38 0 63 11 87 43c-12 28 -22 63 -25 103c-62 23 -125 6 -125 -67
c0 -58 36 -79 63 -79z" />
    <glyph glyph-name="b" unicode="b" horiz-adv-x="525" 
d="M272 530c129 0 229 -82 229 -261c0 -129 -51 -283 -248 -283c-141 0 -213 25 -213 127v613c0 34 24 41 73 41c50 0 70 -6 70 -41l1 -212c25 10 53 16 88 16zM249 86c96 0 95 91 95 182c0 106 -22 158 -98 158c-24 0 -44 -5 -62 -13l1 -314c19 -9 40 -13 64 -13z" />
    <glyph glyph-name="c" unicode="c" horiz-adv-x="467" 
d="M430 133c12 -5 42 -47 5 -85c-46 -48 -111 -62 -179 -62c-143 0 -240 99 -240 272c0 184 98 274 241 274c131 0 197 -76 197 -120c0 -39 -37 -70 -75 -70c-34 0 -61 34 -83 106c-86 -2 -125 -63 -124 -185c1 -117 47 -176 125 -176c51 0 95 16 133 46z" />
    <glyph glyph-name="ccedilla" unicode="&#xe7;" horiz-adv-x="464" 
d="M430 133c12 -5 42 -47 5 -85c-46 -48 -111 -62 -179 -62c-7 0 -15 0 -22 1l-6 -33c64 6 124 -21 124 -90c0 -70 -76 -94 -134 -94c-57 0 -90 24 -90 41c0 11 2 16 9 24c13 -8 27 -20 58 -20c40 0 54 24 54 52c0 33 -20 42 -37 42c-10 0 -24 -4 -33 -4c-11 0 -18 9 -18 18
c0 8 2 14 5 22l17 51c-102 28 -167 120 -167 262c0 184 98 274 241 274c131 0 197 -76 197 -120c0 -39 -37 -70 -75 -70c-34 0 -61 34 -83 106c-86 -2 -125 -63 -124 -185c1 -117 47 -176 125 -176c51 0 95 16 133 46z" />
    <glyph glyph-name="d" unicode="d" horiz-adv-x="521" 
d="M408 767c49 0 73 -7 73 -41v-613c0 -102 -76 -127 -217 -127c-162 0 -245 78 -245 261c0 112 41 283 224 283c27 0 59 -5 94 -14l1 210c0 35 20 41 70 41zM272 86c24 0 45 4 64 13l1 317c-20 6 -38 9 -52 9c-94 0 -109 -86 -109 -177c0 -106 22 -162 96 -162z" />
    <glyph glyph-name="eth" unicode="&#xf0;" horiz-adv-x="545" 
d="M433 619c50 -64 84 -162 84 -312c0 -261 -140 -319 -248 -319c-124 0 -243 77 -243 257c0 221 145 247 212 247c38 0 76 -8 113 -26c-8 44 -21 79 -41 108l-167 -60c-12 20 -44 72 16 93c26 9 58 21 92 33c-41 21 -85 35 -145 50c-21 5 -32 14 -25 45c6 28 21 30 43 28
c85 -8 175 -29 246 -80c61 23 113 42 127 49c25 -35 24 -82 -16 -96zM271 90c59 0 91 51 91 211c0 25 0 49 -1 71c-25 16 -55 26 -88 26c-52 0 -89 -48 -89 -152c0 -105 31 -156 87 -156z" />
    <glyph glyph-name="e" unicode="e" horiz-adv-x="501" 
d="M476 299c-1 -34 -17 -57 -67 -62l-225 -20c12 -86 56 -130 122 -130c57 0 102 16 140 46c11 -5 42 -47 4 -85c-46 -48 -111 -62 -183 -62c-146 0 -243 99 -243 272c0 184 97 274 241 274c156 0 215 -105 211 -233zM317 311c1 52 6 130 -61 130c-54 0 -72 -66 -75 -142z
" />
    <glyph glyph-name="eacute" unicode="&#xe9;" horiz-adv-x="501" 
d="M217 600c-35 -19 -46 -19 -63 8c-14 22 -11 29 24 58l95 78c17 14 38 27 54 42c50 -36 56 -99 0 -128zM476 299c-1 -34 -17 -57 -67 -62l-225 -20c12 -86 56 -130 122 -130c57 0 102 16 140 46c11 -5 42 -47 4 -85c-46 -48 -111 -62 -183 -62c-146 0 -243 99 -243 272
c0 184 97 274 241 274c156 0 215 -105 211 -233zM317 311c1 52 6 130 -61 130c-54 0 -72 -66 -75 -142z" />
    <glyph glyph-name="ecircumflex" unicode="&#xea;" horiz-adv-x="501" 
d="M181 606c-32 -25 -43 -24 -63 -4c-19 19 -15 27 13 62l72 89c17 21 27 28 54 28c28 0 37 -6 55 -28l72 -89c28 -35 32 -43 13 -62c-21 -21 -31 -21 -63 4l-77 60zM476 299c-1 -34 -17 -57 -67 -62l-225 -20c12 -86 56 -130 122 -130c57 0 102 16 140 46
c11 -5 42 -47 4 -85c-46 -48 -111 -62 -183 -62c-146 0 -243 99 -243 272c0 184 97 274 241 274c156 0 215 -105 211 -233zM317 311c1 52 6 130 -61 130c-54 0 -72 -66 -75 -142z" />
    <glyph glyph-name="edieresis" unicode="&#xeb;" horiz-adv-x="501" 
d="M153 607c-48 0 -69 19 -69 52v32c0 33 21 52 69 52s71 -19 71 -52v-32c0 -33 -23 -52 -71 -52zM351 607c-48 0 -69 19 -69 52v32c0 33 21 52 69 52s71 -19 71 -52v-32c0 -33 -23 -52 -71 -52zM476 299c-1 -34 -17 -57 -67 -62l-225 -20c12 -86 56 -130 122 -130
c57 0 102 16 140 46c11 -5 42 -47 4 -85c-46 -48 -111 -62 -183 -62c-146 0 -243 99 -243 272c0 184 97 274 241 274c156 0 215 -105 211 -233zM317 311c1 52 6 130 -61 130c-54 0 -72 -66 -75 -142z" />
    <glyph glyph-name="egrave" unicode="&#xe8;" horiz-adv-x="501" 
d="M196 658c-56 30 -50 92 0 128c16 -15 37 -28 54 -42l95 -78c35 -29 38 -36 24 -58c-17 -27 -28 -26 -63 -8zM476 299c-1 -34 -17 -57 -67 -62l-225 -20c12 -86 56 -130 122 -130c57 0 102 16 140 46c11 -5 42 -47 4 -85c-46 -48 -111 -62 -183 -62
c-146 0 -243 99 -243 272c0 184 97 274 241 274c156 0 215 -105 211 -233zM317 311c1 52 6 130 -61 130c-54 0 -72 -66 -75 -142z" />
    <glyph glyph-name="f" unicode="f" horiz-adv-x="400" 
d="M300 768c114 0 156 -59 156 -94c0 -34 -35 -63 -69 -63c-33 0 -56 30 -71 80c-47 7 -63 -24 -63 -114v-59c59 0 109 1 124 2c11 -38 -3 -79 -44 -79h-80v-388c0 -21 0 -36 3 -48c-28 -15 -99 -22 -129 5c-18 16 -18 42 -18 67v79c0 139 -1 226 -2 285h-89
c-6 21 -17 77 44 77h43v40c0 160 87 210 195 210z" />
    <glyph glyph-name="g" unicode="g" horiz-adv-x="525" 
d="M484 588c33 -5 57 -42 53 -74c-4 -26 -40 -51 -109 -55c24 -29 36 -67 36 -104c0 -116 -73 -184 -207 -184c-22 0 -44 2 -63 7c-11 -9 -17 -20 -17 -32c0 -20 32 -22 147 -35c121 -14 175 -61 175 -156c0 -103 -85 -172 -229 -172c-151 0 -248 54 -248 154
c0 61 34 99 83 103c-21 16 -34 39 -34 72c0 39 28 77 63 88c-51 30 -81 80 -81 145c0 101 80 186 206 186c55 0 100 -15 134 -39c33 78 65 100 91 96zM260 255c54 0 67 37 67 99c0 52 -24 93 -71 93c-54 0 -68 -54 -68 -93c0 -58 18 -99 72 -99zM383 -71c0 43 -35 58 -83 63
c-49 5 -95 10 -133 20c-57 -94 38 -145 116 -145c48 0 100 8 100 62z" />
    <glyph glyph-name="h" unicode="h" horiz-adv-x="525" 
d="M488 53c0 -21 0 -35 3 -47c-28 -15 -96 -22 -126 5c-18 16 -18 42 -18 67l-2 236c-1 68 -13 117 -81 117c-31 0 -61 -7 -80 -26v-352c0 -21 0 -35 2 -47c-30 -15 -97 -22 -128 5c-18 16 -18 42 -18 67v648c0 34 21 41 69 41c47 0 71 -7 71 -41v-209c30 10 65 16 104 16
c129 0 204 -70 204 -217v-263z" />
    <glyph glyph-name="i" unicode="i" horiz-adv-x="235" 
d="M117 742c49 0 72 -19 72 -53v-32c0 -34 -23 -53 -72 -53s-70 19 -70 53v32c0 34 21 53 70 53zM192 5c-30 -15 -97 -22 -127 5c-18 16 -18 42 -18 67v410c0 34 21 41 71 41c47 0 71 -7 71 -41v-434c0 -21 0 -36 3 -48z" />
    <glyph glyph-name="dotlessi" unicode="&#x131;" horiz-adv-x="235" 
d="M192 5c-30 -15 -97 -22 -127 5c-18 16 -18 42 -18 67v410c0 34 21 41 71 41c47 0 71 -7 71 -41v-434c0 -21 0 -36 3 -48z" />
    <glyph glyph-name="iacute" unicode="&#xed;" horiz-adv-x="235" 
d="M190 786c50 -36 56 -99 0 -128l-110 -58c-35 -19 -46 -19 -63 8c-14 22 -11 29 24 58l95 78c17 14 38 27 54 42zM192 5c-30 -15 -97 -22 -127 5c-18 16 -18 42 -18 67v410c0 34 21 41 71 41c47 0 71 -7 71 -41v-434c0 -21 0 -36 3 -48z" />
    <glyph glyph-name="icircumflex" unicode="&#xee;" horiz-adv-x="235" 
d="M233 664c26 -37 32 -43 13 -62c-21 -21 -32 -22 -63 4l-67 57l-66 -57c-31 -27 -43 -24 -63 -4c-19 19 -13 25 13 62l62 89c15 22 27 28 54 28c28 0 39 -5 55 -28zM189 487v-434c0 -21 0 -36 3 -48c-30 -15 -97 -22 -127 5c-18 16 -18 42 -18 67v410c0 34 21 41 71 41
c47 0 71 -7 71 -41z" />
    <glyph glyph-name="idieresis" unicode="&#xef;" horiz-adv-x="235" 
d="M39 739c45 0 66 -18 66 -49v-30c0 -31 -21 -49 -66 -49s-65 18 -65 49v30c0 31 20 49 65 49zM199 739c45 0 67 -18 67 -49v-30c0 -31 -22 -49 -67 -49s-64 18 -64 49v30c0 31 19 49 64 49zM192 5c-30 -15 -97 -22 -127 5c-18 16 -18 42 -18 67v410c0 34 21 41 71 41
c47 0 71 -7 71 -41v-434c0 -21 0 -36 3 -48z" />
    <glyph glyph-name="igrave" unicode="&#xec;" horiz-adv-x="235" 
d="M52 786c16 -15 37 -28 54 -42l95 -78c35 -29 38 -36 24 -58c-17 -27 -28 -26 -63 -8l-110 58c-56 30 -50 92 0 128zM192 5c-30 -15 -97 -22 -127 5c-18 16 -18 42 -18 67v410c0 34 21 41 71 41c47 0 71 -7 71 -41v-434c0 -21 0 -36 3 -48z" />
    <glyph glyph-name="j" unicode="j" horiz-adv-x="248" 
d="M130 742c49 0 72 -19 72 -53v-32c0 -34 -23 -53 -72 -53s-70 19 -70 53v32c0 34 21 53 70 53zM50 -218c-22 0 -43 12 -47 35c8 7 27 25 37 52c18 47 20 96 20 192v426c0 34 21 41 71 41c47 0 71 -7 71 -41v-424c0 -94 -19 -173 -55 -219c-33 -43 -62 -62 -97 -62z" />
    <glyph glyph-name="k" unicode="k" horiz-adv-x="495" 
d="M316 281c140 -200 168 -223 185 -232c-46 -50 -114 -94 -170 -14l-112 161l-35 -38v-105c0 -21 0 -36 3 -48c-31 -15 -99 -22 -129 5c-18 16 -18 42 -18 67v649c0 34 21 41 71 41c49 0 73 -7 73 -41v-434c106 117 186 203 197 229c40 7 127 -42 48 -123z" />
    <glyph glyph-name="l" unicode="l" horiz-adv-x="218" 
d="M187 5c-29 -15 -99 -22 -129 5c-18 16 -18 42 -18 67v649c0 34 21 41 71 41c49 0 73 -7 73 -41v-673c0 -21 0 -36 3 -48z" />
    <glyph glyph-name="m" unicode="m" horiz-adv-x="788" 
d="M751 53c0 -21 0 -35 3 -47c-28 -15 -96 -22 -126 5c-18 16 -18 42 -18 67l-2 240c-1 68 -13 117 -69 117c-21 0 -50 -3 -87 -26c10 -30 13 -62 13 -93v-263c0 -21 0 -35 3 -47c-28 -15 -96 -22 -126 5c-18 16 -18 42 -18 67l-2 240c-1 68 -13 117 -69 117
c-23 0 -53 -7 -72 -17l-2 -365c0 -21 0 -35 2 -47c-28 -15 -95 -22 -126 5c-18 16 -18 42 -18 67v348c0 47 36 107 216 107c59 0 106 -13 141 -38c37 22 85 38 155 38c127 0 202 -70 202 -217v-263z" />
    <glyph glyph-name="n" unicode="n" horiz-adv-x="526" 
d="M489 53c0 -21 0 -35 3 -47c-28 -15 -96 -22 -126 5c-18 16 -18 42 -18 67l-2 240c-1 68 -13 117 -83 117c-33 0 -63 -7 -82 -16l-2 -366c0 -21 0 -35 2 -47c-28 -15 -95 -22 -126 5c-18 16 -18 42 -18 67v348c0 47 36 107 226 107c151 0 226 -70 226 -217v-263z" />
    <glyph glyph-name="ntilde" unicode="&#xf1;" horiz-adv-x="526" 
d="M92 606c-16 9 -16 20 -8 46c19 62 48 101 110 101c45 0 117 -50 155 -50c18 0 29 8 45 32c12 18 19 24 38 17s21 -18 14 -44c-17 -63 -46 -105 -97 -105c-37 0 -128 50 -155 50c-24 0 -33 -4 -58 -31c-20 -22 -27 -25 -44 -16zM489 53c0 -21 0 -35 3 -47
c-28 -15 -96 -22 -126 5c-18 16 -18 42 -18 67l-2 240c-1 68 -13 117 -83 117c-33 0 -63 -7 -82 -16l-2 -366c0 -21 0 -35 2 -47c-28 -15 -95 -22 -126 5c-18 16 -18 42 -18 67v348c0 47 36 107 226 107c151 0 226 -70 226 -217v-263z" />
    <glyph glyph-name="o" unicode="o" horiz-adv-x="541" 
d="M521 268c0 -183 -90 -282 -252 -282c-152 0 -249 99 -249 272c0 184 97 274 251 274c160 0 250 -90 250 -264zM366 273c-2 95 -28 168 -98 168c-77 0 -94 -92 -94 -168c0 -79 21 -183 98 -183s96 100 94 183z" />
    <glyph glyph-name="oacute" unicode="&#xf3;" horiz-adv-x="541" 
d="M348 786c50 -36 56 -99 0 -128l-110 -58c-35 -19 -46 -19 -63 8c-14 22 -11 29 24 58l95 78c17 14 38 27 54 42zM521 268c0 -183 -90 -282 -252 -282c-152 0 -249 99 -249 272c0 184 97 274 251 274c160 0 250 -90 250 -264zM366 273c-2 95 -28 168 -98 168
c-77 0 -94 -92 -94 -168c0 -79 21 -183 98 -183s96 100 94 183z" />
    <glyph glyph-name="ocircumflex" unicode="&#xf4;" horiz-adv-x="541" 
d="M204 606c-32 -25 -43 -24 -63 -4c-19 19 -15 27 13 62l72 89c17 21 27 28 54 28c28 0 37 -6 55 -28l72 -89c28 -35 32 -43 13 -62c-21 -21 -31 -21 -63 4l-77 60zM271 532c160 0 250 -90 250 -264c0 -183 -90 -282 -252 -282c-152 0 -249 99 -249 272
c0 184 97 274 251 274zM272 90c77 0 96 100 94 183c-2 95 -28 168 -98 168c-77 0 -94 -92 -94 -168c0 -79 21 -183 98 -183z" />
    <glyph glyph-name="odieresis" unicode="&#xf6;" horiz-adv-x="541" 
d="M176 743c48 0 71 -19 71 -52v-32c0 -33 -23 -52 -71 -52s-69 19 -69 52v32c0 33 21 52 69 52zM374 743c48 0 71 -19 71 -52v-32c0 -33 -23 -52 -71 -52s-69 19 -69 52v32c0 33 21 52 69 52zM521 268c0 -183 -90 -282 -252 -282c-152 0 -249 99 -249 272
c0 184 97 274 251 274c160 0 250 -90 250 -264zM366 273c-2 95 -28 168 -98 168c-77 0 -94 -92 -94 -168c0 -79 21 -183 98 -183s96 100 94 183z" />
    <glyph glyph-name="ograve" unicode="&#xf2;" horiz-adv-x="541" 
d="M212 786c16 -15 37 -28 54 -42l95 -78c35 -29 38 -36 24 -58c-17 -27 -28 -26 -63 -8l-110 58c-56 30 -50 92 0 128zM521 268c0 -183 -90 -282 -252 -282c-152 0 -249 99 -249 272c0 184 97 274 251 274c160 0 250 -90 250 -264zM366 273c-2 95 -28 168 -98 168
c-77 0 -94 -92 -94 -168c0 -79 21 -183 98 -183s96 100 94 183z" />
    <glyph glyph-name="oslash" unicode="&#xf8;" horiz-adv-x="541" 
d="M454 467c44 -44 67 -111 67 -199c0 -183 -90 -282 -252 -282c-46 0 -87 9 -122 27l-42 -63c-17 -25 -29 -25 -56 -5c-22 16 -30 28 -12 55l44 65c-39 46 -61 111 -61 193c0 184 97 274 251 274c42 0 80 -6 112 -19l50 74c17 25 31 22 56 5c21 -14 30 -28 12 -55zM162 273
c0 -26 2 -54 5 -80l159 235c-15 9 -35 13 -58 13c-87 0 -106 -92 -106 -168zM272 90c87 0 108 100 106 183c-1 27 -2 51 -6 73l-160 -237c16 -12 37 -19 60 -19z" />
    <glyph glyph-name="otilde" unicode="&#xf5;" horiz-adv-x="541" 
d="M452 752c19 -7 21 -18 14 -44c-17 -63 -46 -105 -97 -105c-37 0 -128 50 -155 50c-24 0 -33 -4 -58 -31c-20 -22 -27 -25 -44 -16c-16 9 -16 20 -8 46c19 62 48 101 110 101c45 0 117 -50 155 -50c18 0 29 8 45 32c12 18 19 24 38 17zM521 268c0 -183 -90 -282 -252 -282
c-152 0 -249 99 -249 272c0 184 97 274 251 274c160 0 250 -90 250 -264zM366 273c-2 95 -28 168 -98 168c-77 0 -94 -92 -94 -168c0 -79 21 -183 98 -183s96 100 94 183z" />
    <glyph glyph-name="oe" unicode="&#x153;" horiz-adv-x="846" 
d="M821 299c-1 -34 -17 -57 -67 -62l-225 -20c12 -86 56 -130 122 -130c57 0 102 16 140 46c11 -5 42 -47 4 -85c-47 -47 -111 -62 -180 -62c-68 0 -127 21 -170 83c-43 -62 -103 -83 -179 -83c-149 0 -246 99 -246 272c0 184 97 274 248 274c73 0 137 -27 178 -79
c42 59 101 79 167 79c153 0 212 -105 208 -233zM272 90c76 0 93 100 91 183c-2 95 -26 168 -95 168c-76 0 -91 -92 -91 -168c0 -79 19 -183 95 -183zM662 311c1 52 6 130 -61 130c-54 0 -72 -66 -75 -142z" />
    <glyph glyph-name="p" unicode="p" horiz-adv-x="517" 
d="M253 532c145 0 245 -82 245 -261c0 -112 -41 -283 -226 -283c-29 0 -61 5 -96 14l-1 -159c0 -21 0 -36 3 -48c-29 -15 -97 -22 -128 5c-18 16 -18 42 -18 67v534c0 105 70 131 221 131zM230 93c96 0 111 86 111 177c0 106 -22 167 -98 167c-26 0 -47 -6 -66 -15l-1 -320
c20 -6 38 -9 54 -9z" />
    <glyph glyph-name="thorn" unicode="&#xfe;" horiz-adv-x="517" 
d="M253 532c145 0 245 -82 245 -261c0 -112 -41 -283 -226 -283c-29 0 -61 4 -96 13l-1 -158c0 -21 0 -36 3 -48c-29 -15 -97 -22 -128 5c-18 16 -18 42 -18 67v859c0 34 21 41 70 41c48 0 72 -7 72 -41v-203c23 7 50 9 79 9zM230 93c96 0 111 86 111 177
c0 106 -22 167 -98 167c-26 0 -47 -6 -66 -15l-1 -320c20 -6 38 -9 54 -9z" />
    <glyph glyph-name="q" unicode="q" horiz-adv-x="519" 
d="M484 -157c0 -21 0 -36 3 -48c-29 -15 -97 -22 -128 5c-18 16 -18 42 -18 67v135c-36 -9 -68 -14 -95 -14c-183 0 -224 147 -224 263c0 179 83 281 245 281c141 0 217 -29 217 -131v-558zM179 250c0 -95 15 -157 109 -157c14 0 32 3 52 9l-1 322c-19 9 -40 13 -64 13
c-74 0 -96 -80 -96 -187z" />
    <glyph glyph-name="r" unicode="r" horiz-adv-x="398" 
d="M244 530c72 0 151 -26 151 -81c0 -41 -35 -86 -71 -86c-26 0 -51 13 -86 87c-50 -22 -56 -75 -57 -156l-2 -241c0 -21 0 -36 2 -48c-28 -15 -95 -22 -126 5c-18 16 -18 42 -18 67v240c0 150 75 213 207 213z" />
    <glyph glyph-name="s" unicode="s" horiz-adv-x="458" 
d="M277 314c106 -44 159 -79 159 -164c0 -69 -38 -166 -209 -166c-138 0 -202 71 -202 117c0 37 39 78 85 78c38 0 65 -36 88 -110c85 -10 103 26 103 60c0 40 -37 54 -101 81c-98 39 -148 87 -148 168c0 106 85 156 192 156c127 0 178 -67 178 -109c0 -37 -37 -68 -73 -68
c-35 0 -59 33 -77 95c-71 14 -91 -19 -91 -55s32 -57 96 -83z" />
    <glyph glyph-name="germandbls" unicode="&#xdf;" horiz-adv-x="652" 
d="M521 339c58 -50 99 -97 99 -183c0 -75 -38 -170 -175 -170c-79 0 -156 29 -156 82c0 39 35 78 69 78c28 0 54 -24 79 -80c25 -4 48 29 48 69c0 49 -21 78 -63 112c-29 23 -94 74 -94 143c0 73 73 116 75 204c2 68 -32 92 -73 92c-52 0 -77 -25 -77 -109v-524
c0 -21 0 -36 3 -48c-28 -15 -99 -22 -129 5c-18 16 -18 42 -18 67v79c0 139 -1 226 -2 285h-89c-6 21 -17 77 44 77h43v40c0 160 87 210 226 210c97 0 209 -39 207 -162c-2 -91 -92 -130 -92 -178c0 -29 35 -54 75 -89z" />
    <glyph glyph-name="t" unicode="t" horiz-adv-x="393" 
d="M251 165c0 -60 2 -103 116 -89c22 -53 -24 -90 -110 -90c-107 0 -152 54 -152 153v302h-92c-6 21 -17 77 44 77h48v57c0 75 89 96 146 58v-115c58 0 106 1 121 2c11 -38 -3 -79 -44 -79h-77v-276z" />
    <glyph glyph-name="u" unicode="u" horiz-adv-x="504" 
d="M452 508c18 -16 18 -42 18 -71v-228c0 -147 -75 -217 -216 -217c-142 0 -217 70 -217 217v247c0 27 0 41 -2 53c29 15 95 26 126 -1c18 -16 18 -42 18 -71l2 -230c0 -71 13 -120 73 -120s72 49 73 120l2 249c0 27 0 41 -2 53c28 15 95 26 125 -1z" />
    <glyph glyph-name="uacute" unicode="&#xfa;" horiz-adv-x="504" 
d="M331 786c50 -36 56 -99 0 -128l-110 -58c-35 -19 -46 -19 -63 8c-14 22 -11 29 24 58l95 78c17 14 38 27 54 42zM452 508c18 -16 18 -42 18 -71v-228c0 -147 -75 -217 -216 -217c-142 0 -217 70 -217 217v247c0 27 0 41 -2 53c29 15 95 26 126 -1c18 -16 18 -42 18 -71
l2 -230c0 -71 13 -120 73 -120s72 49 73 120l2 249c0 27 0 41 -2 53c28 15 95 26 125 -1z" />
    <glyph glyph-name="ucircumflex" unicode="&#xfb;" horiz-adv-x="504" 
d="M176 606c-32 -25 -43 -24 -63 -4c-19 19 -15 27 13 62l72 89c17 21 27 28 54 28c28 0 37 -6 55 -28l72 -89c28 -35 32 -43 13 -62c-21 -21 -31 -21 -63 4l-77 60zM452 508c18 -16 18 -42 18 -71v-228c0 -147 -75 -217 -216 -217c-142 0 -217 70 -217 217v247
c0 27 0 41 -2 53c29 15 95 26 126 -1c18 -16 18 -42 18 -71l2 -230c0 -71 13 -120 73 -120s72 49 73 120l2 249c0 27 0 41 -2 53c28 15 95 26 125 -1z" />
    <glyph glyph-name="udieresis" unicode="&#xfc;" horiz-adv-x="504" 
d="M146 743c48 0 71 -19 71 -52v-32c0 -33 -23 -52 -71 -52s-69 19 -69 52v32c0 33 21 52 69 52zM344 743c48 0 71 -19 71 -52v-32c0 -33 -23 -52 -71 -52s-69 19 -69 52v32c0 33 21 52 69 52zM452 508c18 -16 18 -42 18 -71v-228c0 -147 -75 -217 -216 -217
c-142 0 -217 70 -217 217v247c0 27 0 41 -2 53c29 15 95 26 126 -1c18 -16 18 -42 18 -71l2 -230c0 -71 13 -120 73 -120s72 49 73 120l2 249c0 27 0 41 -2 53c28 15 95 26 125 -1z" />
    <glyph glyph-name="ugrave" unicode="&#xf9;" horiz-adv-x="504" 
d="M185 786c16 -15 37 -28 54 -42l95 -78c35 -29 38 -36 24 -58c-17 -27 -28 -26 -63 -8l-110 58c-56 30 -50 92 0 128zM452 508c18 -16 18 -42 18 -71v-228c0 -147 -75 -217 -216 -217c-142 0 -217 70 -217 217v247c0 27 0 41 -2 53c29 15 95 26 126 -1
c18 -16 18 -42 18 -71l2 -230c0 -71 13 -120 73 -120s72 49 73 120l2 249c0 27 0 41 -2 53c28 15 95 26 125 -1z" />
    <glyph glyph-name="v" unicode="v" horiz-adv-x="476" 
d="M367 516c61 23 131 9 91 -96l-146 -385c-13 -33 -30 -42 -77 -42c-49 0 -68 9 -79 42c-130 373 -160 453 -169 468c61 34 137 60 167 -32l99 -306c92 246 112 315 114 351z" />
    <glyph glyph-name="w" unicode="w" horiz-adv-x="676" 
d="M566 516c62 23 124 12 95 -93l-105 -387c-9 -34 -26 -43 -72 -43c-49 0 -63 9 -74 43l-66 203l-68 -203c-11 -34 -28 -43 -74 -43s-67 9 -77 43c-23 78 -117 454 -127 469c62 34 145 63 166 -32l63 -290l87 299c7 25 21 33 45 33s37 -6 45 -33l88 -301
c29 121 72 307 74 335z" />
    <glyph glyph-name="wacute" unicode="&#x1e83;" horiz-adv-x="676" 
d="M331 600c-35 -19 -46 -19 -63 8c-14 22 -11 29 24 58l95 78c17 14 38 27 54 42c50 -36 56 -99 0 -128zM566 516c62 23 124 12 95 -93l-105 -387c-9 -34 -26 -43 -72 -43c-49 0 -63 9 -74 43l-66 203l-68 -203c-11 -34 -28 -43 -74 -43s-67 9 -77 43
c-23 78 -117 454 -127 469c62 34 145 63 166 -32l63 -290l87 299c7 25 21 33 45 33s37 -6 45 -33l88 -301c29 121 72 307 74 335z" />
    <glyph glyph-name="wcircumflex" unicode="&#x175;" horiz-adv-x="676" 
d="M284 606c-32 -25 -43 -24 -63 -4c-19 19 -15 27 13 62l72 89c17 21 27 28 54 28c28 0 37 -6 55 -28l72 -89c28 -35 32 -43 13 -62c-21 -21 -31 -21 -63 4l-77 60zM566 516c62 23 124 12 95 -93l-105 -387c-9 -34 -26 -43 -72 -43c-49 0 -63 9 -74 43l-66 203l-68 -203
c-11 -34 -28 -43 -74 -43s-67 9 -77 43c-23 78 -117 454 -127 469c62 34 145 63 166 -32l63 -290l87 299c7 25 21 33 45 33s37 -6 45 -33l88 -301c29 121 72 307 74 335z" />
    <glyph glyph-name="wdieresis" unicode="&#x1e85;" horiz-adv-x="676" 
d="M261 607c-48 0 -69 19 -69 52v32c0 33 21 52 69 52s71 -19 71 -52v-32c0 -33 -23 -52 -71 -52zM459 607c-48 0 -69 19 -69 52v32c0 33 21 52 69 52s71 -19 71 -52v-32c0 -33 -23 -52 -71 -52zM566 516c62 23 124 12 95 -93l-105 -387c-9 -34 -26 -43 -72 -43
c-49 0 -63 9 -74 43l-66 203l-68 -203c-11 -34 -28 -43 -74 -43s-67 9 -77 43c-23 78 -117 454 -127 469c62 34 145 63 166 -32l63 -290l87 299c7 25 21 33 45 33s37 -6 45 -33l88 -301c29 121 72 307 74 335z" />
    <glyph glyph-name="wgrave" unicode="&#x1e81;" horiz-adv-x="676" 
d="M287 658c-56 30 -50 92 0 128c16 -15 37 -28 54 -42l95 -78c35 -29 38 -36 24 -58c-17 -27 -28 -26 -63 -8zM566 516c62 23 124 12 95 -93l-105 -387c-9 -34 -26 -43 -72 -43c-49 0 -63 9 -74 43l-66 203l-68 -203c-11 -34 -28 -43 -74 -43s-67 9 -77 43
c-23 78 -117 454 -127 469c62 34 145 63 166 -32l63 -290l87 299c7 25 21 33 45 33s37 -6 45 -33l88 -301c29 121 72 307 74 335z" />
    <glyph glyph-name="x" unicode="x" horiz-adv-x="455" 
d="M311 278c127 -206 151 -238 168 -252c-56 -51 -133 -67 -187 17c-30 47 -55 90 -78 128c-45 -68 -102 -150 -120 -170c-20 -22 -46 -22 -72 -1c-21 16 -38 44 -12 79c29 39 99 130 145 189c-93 154 -135 215 -152 225c54 56 132 69 184 -12c26 -39 47 -76 67 -109
c41 61 90 135 101 146c18 20 47 20 71 1c27 -21 35 -42 9 -77c-25 -34 -80 -106 -124 -164z" />
    <glyph glyph-name="y" unicode="y" horiz-adv-x="477" 
d="M365 516c62 23 139 8 95 -96l-249 -580c-39 -89 -108 -51 -144 -29c18 18 48 80 108 216c-140 421 -167 458 -185 476c62 34 136 61 168 -32l93 -274c97 241 112 283 114 319z" />
    <glyph glyph-name="yacute" unicode="&#xfd;" horiz-adv-x="473" 
d="M229 600c-35 -19 -46 -19 -63 8c-14 22 -11 29 24 58l95 78c17 14 38 27 54 42c50 -36 56 -99 0 -128zM365 516c62 23 139 8 95 -96l-249 -580c-39 -89 -108 -51 -144 -29c18 18 48 80 108 216c-140 421 -167 458 -185 476c62 34 136 61 168 -32l93 -274
c97 241 112 283 114 319z" />
    <glyph glyph-name="ycircumflex" unicode="&#x177;" horiz-adv-x="473" 
d="M164 606c-32 -25 -43 -24 -63 -4c-19 19 -15 27 13 62l72 89c17 21 27 28 54 28c28 0 37 -6 55 -28l72 -89c28 -35 32 -43 13 -62c-21 -21 -31 -21 -63 4l-77 60zM365 516c62 23 139 8 95 -96l-249 -580c-39 -89 -108 -51 -144 -29c18 18 48 80 108 216
c-140 421 -167 458 -185 476c62 34 136 61 168 -32l93 -274c97 241 112 283 114 319z" />
    <glyph glyph-name="ydieresis" unicode="&#xff;" horiz-adv-x="473" 
d="M133 607c-48 0 -69 19 -69 52v32c0 33 21 52 69 52s71 -19 71 -52v-32c0 -33 -23 -52 -71 -52zM331 607c-48 0 -69 19 -69 52v32c0 33 21 52 69 52s71 -19 71 -52v-32c0 -33 -23 -52 -71 -52zM365 516c62 23 139 8 95 -96l-249 -580c-39 -89 -108 -51 -144 -29
c18 18 48 80 108 216c-140 421 -167 458 -185 476c62 34 136 61 168 -32l93 -274c97 241 112 283 114 319z" />
    <glyph glyph-name="ygrave" unicode="&#x1ef3;" horiz-adv-x="473" 
d="M176 658c-56 30 -50 92 0 128c16 -15 37 -28 54 -42l95 -78c35 -29 38 -36 24 -58c-17 -27 -28 -26 -63 -8zM365 516c62 23 139 8 95 -96l-249 -580c-39 -89 -108 -51 -144 -29c18 18 48 80 108 216c-140 421 -167 458 -185 476c62 34 136 61 168 -32l93 -274
c97 241 112 283 114 319z" />
    <glyph glyph-name="z" unicode="z" horiz-adv-x="414" 
d="M391 95c23 -53 -2 -95 -66 -95h-269c-32 0 -68 20 -29 88l194 339h-143c-40 0 -51 8 -51 45c0 32 5 46 51 46h267c32 0 71 -22 34 -86l-198 -341h141c23 0 46 0 69 4z" />
    <glyph glyph-name="zero" unicode="0" horiz-adv-x="539" 
d="M510 347c0 -262 -90 -361 -242 -361c-142 0 -239 99 -239 351c0 263 97 353 241 353c150 0 240 -90 240 -343zM352 352c-2 172 -26 245 -85 245c-66 0 -81 -92 -81 -245c0 -156 19 -260 85 -260s83 100 81 260z" />
    <glyph glyph-name="one" unicode="1" horiz-adv-x="404" 
d="M344 611l-3 -558c0 -21 0 -36 3 -48c-29 -15 -96 -22 -127 5c-18 16 -18 42 -18 67v469l-57 -33c-89 -51 -108 7 -101 53l123 78c57 36 75 38 100 38h30c32 0 50 -23 50 -71z" />
    <glyph glyph-name="two" unicode="2" horiz-adv-x="487" 
d="M452 117c25 -68 -2 -117 -73 -117h-311c-35 0 -83 33 -29 95c200 230 265 319 263 420c-1 65 -38 105 -116 85c-24 -75 -45 -109 -79 -110c-35 -1 -81 30 -82 65c-2 83 107 135 194 135c124 0 219 -57 221 -193c2 -117 -87 -229 -226 -384h162c25 0 51 0 76 4z" />
    <glyph glyph-name="three" unicode="3" horiz-adv-x="534" 
d="M338 353c113 -21 165 -84 163 -176c-2 -127 -97 -184 -254 -184c-116 0 -225 52 -223 135c1 35 47 66 82 65c34 -1 55 -35 79 -110c118 -20 168 20 169 91c1 48 -14 81 -64 102c-62 26 -111 23 -141 25c-18 1 -26 12 -26 35c0 30 9 34 42 40c139 25 164 89 164 146
c0 54 -38 101 -120 78c-24 -79 -45 -113 -79 -114c-35 -1 -81 30 -82 65c-2 83 107 135 204 135c128 0 225 -62 225 -169c0 -73 -32 -130 -139 -164z" />
    <glyph glyph-name="four" unicode="4" horiz-adv-x="576" 
d="M552 256c11 -55 -3 -97 -46 -97h-51l-1 -106c0 -21 0 -36 3 -48c-29 -15 -94 -22 -125 5c-18 16 -18 42 -18 67v82h-255c-25 0 -33 15 -33 36v21c0 30 9 43 39 86l236 334c26 37 61 46 85 46c52 0 71 -26 71 -71l-2 -357c50 1 87 1 97 2zM144 254h170v239z" />
    <glyph glyph-name="five" unicode="5" horiz-adv-x="514" 
d="M152 414c217 64 328 -70 327 -197c-1 -157 -97 -224 -239 -224c-111 0 -220 52 -218 135c1 35 47 66 82 65c34 -1 55 -35 79 -112c97 -14 146 22 147 122c1 73 -32 130 -113 130c-38 0 -70 -7 -104 -16c-44 -12 -65 11 -62 39l4 45l17 206c4 50 18 71 50 71h319
c34 -76 -2 -131 -66 -131h-210z" />
    <glyph glyph-name="six" unicode="6" horiz-adv-x="547" 
d="M320 431c57 0 192 -26 192 -216c0 -150 -119 -227 -236 -227c-105 0 -245 58 -245 289c0 356 260 412 376 417c22 1 33 0 40 -24c9 -31 -3 -41 -28 -48c-145 -40 -203 -116 -223 -223c48 24 93 32 124 32zM277 90c56 0 77 51 77 126c0 73 -27 121 -79 121
c-27 0 -60 -10 -88 -24c-1 -14 -1 -28 -1 -42c0 -130 32 -181 91 -181z" />
    <glyph glyph-name="seven" unicode="7" horiz-adv-x="501" 
d="M431 678c32 0 67 -23 50 -71l-201 -554c-8 -21 -10 -36 -13 -48c-16 -8 -40 -13 -64 -13c-78 0 -105 44 -57 137l212 415h-246c-64 0 -100 58 -66 134h385z" />
    <glyph glyph-name="eight" unicode="8" horiz-adv-x="504" 
d="M366 370c84 -51 129 -93 126 -187c-4 -115 -86 -197 -243 -197c-158 0 -227 94 -227 180c0 90 41 145 121 187c-51 41 -79 84 -79 161c0 78 69 176 198 176c111 0 190 -68 190 -167c0 -75 -36 -118 -86 -153zM257 597c-39 0 -72 -22 -72 -68c0 -48 48 -81 103 -113
c22 22 46 53 46 95c0 63 -41 86 -77 86zM260 89c64 0 93 37 93 84c0 51 -53 77 -110 113l-29 18c-43 -40 -55 -74 -55 -117c0 -47 33 -98 101 -98z" />
    <glyph glyph-name="nine" unicode="9" horiz-adv-x="538" 
d="M262 694c104 0 244 -58 244 -289c0 -376 -266 -420 -391 -414c-22 1 -34 3 -37 29c-4 31 7 39 33 43c163 25 217 100 234 223c-46 -20 -87 -25 -117 -25c-58 0 -195 26 -195 211c0 145 121 222 229 222zM273 355c28 0 54 5 77 14c1 13 1 27 1 42c0 130 -32 181 -84 181
c-53 0 -76 -51 -76 -120s29 -117 82 -117z" />
    <glyph glyph-name="zero.ss01" horiz-adv-x="451" 
d="M422 257c0 -193 -66 -268 -197 -268c-123 0 -196 75 -196 261c0 194 73 262 197 262c130 0 196 -68 196 -255zM282 261c-2 125 -19 171 -58 171c-43 0 -54 -60 -54 -171c0 -113 14 -183 57 -183s57 67 55 183z" />
    <glyph glyph-name="one.ss01" horiz-adv-x="383" 
d="M320 53c0 -21 0 -36 3 -48c-29 -15 -89 -22 -120 5c-18 16 -18 42 -18 67v295l-38 -21c-90 -50 -113 6 -106 52l107 68c56 36 75 38 100 38h25c32 0 47 -23 47 -71v-385z" />
    <glyph glyph-name="two.ss01" horiz-adv-x="408" 
d="M375 104c20 -65 -2 -104 -59 -104h-259c-28 0 -66 26 -23 76c159 155 207 223 205 304c-1 42 -31 73 -87 63c-13 -69 -36 -92 -63 -93c-28 -1 -65 24 -66 62c-2 66 86 108 161 108c103 0 179 -46 181 -154c2 -89 -62 -172 -157 -266h106c20 0 41 0 61 4z" />
    <glyph glyph-name="three.ss01" horiz-adv-x="455" 
d="M301 263c77 -19 122 -70 121 -131c-2 -102 -74 -148 -205 -148c-96 0 -195 42 -193 108c1 34 35 63 73 63c27 0 56 -39 66 -96c98 -17 127 13 129 70c1 32 -20 59 -53 72c-39 15 -74 17 -108 19c-14 1 -21 10 -21 29c0 24 8 28 34 33c109 20 128 72 128 108
c0 43 -40 76 -101 58c-13 -59 -30 -92 -57 -93c-38 -1 -74 28 -74 62c0 66 101 104 181 104c108 0 182 -50 182 -137c0 -45 -31 -92 -102 -121z" />
    <glyph glyph-name="four.ss01" horiz-adv-x="498" 
d="M475 192c9 -52 -3 -86 -37 -86h-41l-1 -63c0 -16 0 -28 2 -38c-27 -15 -91 -22 -114 5c-13 15 -18 31 -18 51v45h-213c-21 0 -27 12 -27 29v17c0 24 5 34 31 69l193 253c22 29 53 37 82 37c52 0 67 -21 67 -57l-2 -264c40 1 70 1 78 2zM137 190h129v166z" />
    <glyph glyph-name="five.ss01" horiz-adv-x="436" 
d="M127 310c177 53 274 -54 274 -151c0 -121 -77 -175 -201 -175c-89 0 -178 42 -178 108c0 34 36 62 69 62c27 0 50 -28 63 -94c83 -17 118 12 118 87c0 53 -24 98 -90 98c-31 0 -56 -4 -84 -12c-35 -10 -55 8 -53 31l17 189c4 40 14 56 40 56h269c27 -60 -2 -109 -53 -109
h-182z" />
    <glyph glyph-name="six.ss01" horiz-adv-x="460" 
d="M266 317c54 0 159 -21 159 -163c0 -110 -96 -172 -194 -172c-88 0 -200 47 -200 222c0 264 208 308 310 313c17 1 27 0 32 -19c7 -25 -3 -32 -23 -38c-112 -34 -159 -92 -176 -167c34 18 66 24 92 24zM232 64c39 0 56 41 56 91c0 48 -21 85 -58 85c-17 0 -42 -7 -65 -18
v-23c0 -94 25 -135 67 -135z" />
    <glyph glyph-name="seven.ss01" horiz-adv-x="412" 
d="M352 509c25 0 55 -18 40 -56l-161 -413c-6 -16 -8 -28 -10 -40c-13 -6 -32 -10 -52 -10c-62 0 -93 41 -51 115l165 293h-186c-52 0 -82 47 -53 111h308z" />
    <glyph glyph-name="eight.ss01" horiz-adv-x="422" 
d="M303 275c65 -42 107 -77 107 -142c0 -88 -69 -149 -201 -149s-187 75 -187 136c0 64 30 108 102 142c-43 31 -69 62 -69 119c0 65 55 135 165 135c94 0 158 -56 158 -128c0 -53 -34 -86 -75 -113zM216 441c-30 0 -51 -14 -51 -45s32 -56 74 -82c14 17 29 38 29 65
c0 39 -28 62 -52 62zM220 67c40 0 65 25 65 56c0 32 -42 57 -84 86l-18 13c-30 -32 -37 -59 -37 -85c0 -32 27 -70 74 -70z" />
    <glyph glyph-name="nine.ss01" horiz-adv-x="449" 
d="M217 517c94 0 200 -43 200 -218c0 -285 -202 -317 -321 -317c-18 0 -26 1 -28 21c-3 28 5 34 24 37c131 21 174 76 187 168c-34 -14 -65 -18 -88 -18c-53 0 -158 19 -158 159c0 110 92 168 184 168zM225 266c22 0 41 4 59 10v28c0 98 -24 131 -64 131
c-34 0 -51 -33 -51 -86c0 -52 22 -83 56 -83z" />
    <glyph glyph-name="fraction" unicode="&#x2044;" horiz-adv-x="455" 
d="M49 -12c-31 -6 -74 13 -86 38c-9 19 4 42 19 63l410 568c22 31 40 29 74 5c30 -21 39 -37 17 -68l-408 -564c-13 -18 -22 -31 -26 -42z" />
    <glyph glyph-name="period" unicode="." horiz-adv-x="174" 
d="M88 -16c-50 0 -68 27 -68 71s18 71 68 71c49 0 66 -27 66 -71s-17 -71 -66 -71z" />
    <glyph glyph-name="comma" unicode="," horiz-adv-x="181" 
d="M20 -101c3 72 14 199 37 216c29 21 88 8 104 -23c13 -25 -23 -140 -67 -211c-13 -21 -22 -24 -45 -19c-22 5 -30 13 -29 37z" />
    <glyph glyph-name="colon" unicode=":" horiz-adv-x="200" 
d="M98 281c-50 0 -68 27 -68 71s18 71 68 71c49 0 66 -27 66 -71s-17 -71 -66 -71zM104 -16c-50 0 -68 27 -68 71s18 71 68 71c49 0 66 -27 66 -71s-17 -71 -66 -71z" />
    <glyph glyph-name="semicolon" unicode=";" horiz-adv-x="196" 
d="M100 281c-50 0 -68 27 -68 71s18 71 68 71c49 0 66 -27 66 -71s-17 -71 -66 -71zM20 -101c3 72 14 199 37 216c29 21 88 8 104 -23c13 -25 -23 -140 -67 -211c-13 -21 -22 -24 -45 -19c-22 5 -30 13 -29 37z" />
    <glyph glyph-name="ellipsis" unicode="&#x2026;" horiz-adv-x="542" 
d="M88 -16c-50 0 -68 27 -68 71s18 71 68 71c49 0 66 -27 66 -71s-17 -71 -66 -71zM272 -16c-50 0 -68 27 -68 71s18 71 68 71c49 0 66 -27 66 -71s-17 -71 -66 -71zM456 -16c-50 0 -68 27 -68 71s18 71 68 71c49 0 66 -27 66 -71s-17 -71 -66 -71z" />
    <glyph glyph-name="exclam" unicode="!" horiz-adv-x="281" 
d="M187 236c-23 -17 -60 -18 -79 2c-16 17 -15 45 -17 70l-26 366c-2 34 21 41 74 41s80 -7 77 -41l-29 -373c-2 -32 -3 -52 0 -65zM141 -16c-50 0 -68 27 -68 71s18 71 68 71c49 0 66 -27 66 -71s-17 -71 -66 -71z" />
    <glyph glyph-name="exclamdown" unicode="&#xa1;" horiz-adv-x="282" 
d="M141 538c49 0 66 -27 66 -71s-17 -71 -66 -71c-50 0 -68 27 -68 71s18 71 68 71zM187 286c-3 -13 -2 -33 0 -65l29 -373c3 -34 -24 -41 -77 -41s-76 7 -74 41l26 366c2 25 1 53 17 70c19 20 56 19 79 2z" />
    <glyph glyph-name="question" unicode="?" horiz-adv-x="457" 
d="M219 224c-41 0 -88 56 -88 104c0 117 163 117 161 222c-1 55 -40 95 -106 75c-24 -75 -45 -109 -79 -110c-35 -1 -81 30 -82 65c-2 83 107 135 194 135c124 0 208 -57 208 -179c0 -172 -175 -156 -175 -252c0 -21 2 -32 8 -42c-8 -11 -23 -18 -41 -18zM221 -16
c-50 0 -68 27 -68 71s18 71 68 71c49 0 66 -27 66 -71s-17 -71 -66 -71z" />
    <glyph glyph-name="questiondown" unicode="&#xbf;" horiz-adv-x="457" 
d="M236 538c50 0 68 -27 68 -71s-18 -71 -68 -71c-49 0 -66 27 -66 71s17 71 66 71zM238 298c41 0 88 -56 88 -104c0 -117 -163 -117 -161 -222c1 -55 40 -95 106 -75c24 75 45 109 79 110c35 1 81 -30 82 -65c2 -83 -107 -135 -194 -135c-124 0 -208 57 -208 179
c0 172 175 156 175 252c0 21 -2 32 -8 42c8 11 23 18 41 18z" />
    <glyph glyph-name="periodcentered" unicode="&#xb7;" horiz-adv-x="174" 
d="M88 314c-50 0 -68 27 -68 71s18 71 68 71c49 0 66 -27 66 -71s-17 -71 -66 -71z" />
    <glyph glyph-name="bullet" unicode="&#x2022;" horiz-adv-x="332" 
d="M168 242c-87 0 -118 47 -118 123s31 123 118 123c84 0 114 -47 114 -123s-30 -123 -114 -123z" />
    <glyph glyph-name="asterisk" unicode="*" horiz-adv-x="412" 
d="M243 749c27 -19 26 -71 -37 -180c-63 109 -64 161 -37 180c12 9 24 11 37 11s25 -2 37 -11zM47 661c27 17 76 1 159 -92c-123 -26 -173 -12 -184 21c-3 14 -2 25 3 37c4 12 10 26 22 34zM365 661c12 -8 19 -22 22 -34c4 -12 7 -23 3 -37c-11 -33 -61 -47 -184 -21
c83 93 132 109 159 92zM128 404c-15 0 -26 2 -38 13c-10 9 -18 18 -22 31c-11 32 21 72 138 121c-15 -122 -45 -165 -78 -165zM284 404c-33 0 -63 43 -78 165c117 -49 149 -89 138 -121c-3 -13 -9 -23 -22 -31c-12 -8 -23 -13 -38 -13z" />
    <glyph glyph-name="numbersign" unicode="#" horiz-adv-x="674" 
d="M628 523c23 -22 34 -67 20 -92c-10 -18 -36 -22 -62 -22h-68l-37 -131h59c22 0 37 0 49 3c23 -22 34 -67 20 -92c-10 -18 -36 -22 -62 -22h-98l-35 -119c-6 -21 -10 -36 -10 -48c-28 -16 -74 -14 -94 6c-15 15 -11 41 -4 66l28 96h-94l-35 -120c-6 -21 -10 -36 -10 -48
c-28 -16 -74 -14 -94 6c-15 15 -11 41 -4 66l28 97h-57c-39 0 -47 14 -48 57c-1 36 6 53 45 53h92l38 132h-88c-39 0 -47 14 -48 57c-1 36 6 53 45 53h123l39 136c11 37 27 41 68 30c35 -9 50 -21 39 -58l-31 -109h94l39 137c11 37 27 41 68 30c35 -9 50 -21 39 -58
l-32 -109h29c22 0 37 0 49 3zM366 278l38 132h-94l-38 -131z" />
    <glyph glyph-name="slash" unicode="/" horiz-adv-x="357" 
d="M104 -125c-28 -16 -76 -15 -94 6c-15 15 -11 41 -4 66l241 845c10 37 27 41 68 30c35 -9 49 -21 39 -58l-240 -841c-6 -21 -10 -36 -10 -48z" />
    <glyph glyph-name="backslash" unicode="\" horiz-adv-x="368" 
d="M349 -46c6 -21 12 -36 18 -46c-15 -35 -48 -51 -83 -43c-21 5 -32 25 -39 50l-242 849c-10 37 4 49 39 58c41 11 58 7 68 -30z" />
    <glyph glyph-name="exclamdown.case" horiz-adv-x="281" 
d="M141 688c49 0 66 -27 66 -71s-17 -71 -66 -71c-50 0 -68 27 -68 71s18 71 68 71zM187 436c-3 -13 -2 -33 0 -65l29 -373c3 -34 -24 -41 -77 -41s-76 7 -74 41l26 366c2 25 1 53 17 70c19 20 56 19 79 2z" />
    <glyph glyph-name="questiondown.case" horiz-adv-x="457" 
d="M236 688c50 0 68 -27 68 -71s-18 -71 -68 -71c-49 0 -66 27 -66 71s17 71 66 71zM238 448c41 0 88 -56 88 -104c0 -117 -163 -117 -161 -222c1 -55 40 -95 106 -75c24 75 45 109 79 110c35 1 81 -30 82 -65c2 -83 -107 -135 -194 -135c-124 0 -208 57 -208 179
c0 172 175 156 175 252c0 21 -2 32 -8 42c8 11 23 18 41 18z" />
    <glyph glyph-name="parenleft" unicode="(" horiz-adv-x="344" 
d="M216 341c0 -183 24 -313 100 -409c15 -19 12 -27 0 -42c-9 -11 -18 -21 -45 -4c-110 70 -218 197 -218 455s109 384 217 454c28 18 37 8 46 -3c12 -15 16 -24 0 -42c-79 -88 -100 -226 -100 -409z" />
    <glyph glyph-name="parenright" unicode=")" horiz-adv-x="344" 
d="M128 341c0 183 -21 321 -100 409c-16 18 -12 27 0 42c9 11 18 21 46 3c108 -70 217 -196 217 -454s-108 -385 -218 -455c-27 -17 -36 -7 -45 4c-12 15 -15 23 0 42c76 96 100 226 100 409z" />
    <glyph glyph-name="braceleft" unicode="{" horiz-adv-x="372" 
d="M328 -51c35 -5 35 -15 34 -35s-5 -28 -44 -28c-107 0 -208 36 -208 132c0 46 8 130 8 196c0 53 0 95 -51 95c-27 0 -37 3 -37 33s10 33 37 33c51 0 51 42 51 95c0 66 -8 150 -8 196c0 96 101 132 208 132c39 0 43 -8 44 -28s1 -30 -34 -35c-63 -10 -63 -43 -63 -84
c0 -37 12 -140 12 -186c0 -36 -2 -107 -84 -123c82 -16 84 -87 84 -123c0 -46 -12 -149 -12 -186c0 -41 0 -74 63 -84z" />
    <glyph glyph-name="braceright" unicode="}" horiz-adv-x="372" 
d="M305 375c27 0 37 -3 37 -33s-10 -33 -37 -33c-51 0 -51 -42 -51 -95c0 -66 8 -150 8 -196c0 -96 -101 -132 -208 -132c-39 0 -43 8 -44 28s-1 30 34 35c63 10 63 43 63 84c0 37 -12 140 -12 186c0 36 2 107 84 123c-82 16 -84 87 -84 123c0 46 12 149 12 186
c0 41 0 74 -63 84c-35 5 -35 15 -34 35s5 28 44 28c107 0 208 -36 208 -132c0 -46 -8 -130 -8 -196c0 -53 0 -95 51 -95z" />
    <glyph glyph-name="bracketleft" unicode="[" horiz-adv-x="338" 
d="M257 -36c34 0 41 -14 41 -41s-7 -38 -41 -38h-113c-53 0 -74 7 -74 41v830c0 34 21 41 74 41h113c34 0 41 -11 41 -38s-7 -41 -41 -41h-42v-754h42z" />
    <glyph glyph-name="bracketright" unicode="]" horiz-adv-x="338" 
d="M81 -36h42v754h-42c-34 0 -41 14 -41 41s7 38 41 38h113c53 0 74 -7 74 -41v-830c0 -34 -21 -41 -74 -41h-113c-34 0 -41 11 -41 38s7 41 41 41z" />
    <glyph glyph-name="hyphen" unicode="-" horiz-adv-x="378" 
d="M335 338c34 -52 -2 -107 -66 -107h-226c-34 52 2 107 66 107h226z" />
    <glyph glyph-name="endash" unicode="&#x2013;" horiz-adv-x="478" 
d="M435 340c34 -54 -2 -111 -66 -111h-326c-34 56 2 111 66 111h326z" />
    <glyph glyph-name="emdash" unicode="&#x2014;" horiz-adv-x="678" 
d="M635 342c34 -58 -2 -115 -66 -115h-526c-34 60 2 115 66 115h526z" />
    <glyph glyph-name="underscore" unicode="_" horiz-adv-x="468" 
d="M455 -60c34 -54 -2 -111 -66 -111h-376c-34 56 2 111 66 111h376z" />
    <glyph glyph-name="hyphen.case" horiz-adv-x="378" 
d="M335 388c34 -52 -2 -107 -66 -107h-226c-34 52 2 107 66 107h226z" />
    <glyph glyph-name="endash.case" horiz-adv-x="478" 
d="M435 390c34 -54 -2 -111 -66 -111h-326c-34 56 2 111 66 111h326z" />
    <glyph glyph-name="emdash.case" horiz-adv-x="678" 
d="M635 402c34 -58 -2 -115 -66 -115h-526c-34 60 2 115 66 115h526z" />
    <glyph glyph-name="quotesinglbase" unicode="&#x201a;" horiz-adv-x="179" 
d="M92 125c52 0 77 -28 77 -95c0 -65 -29 -148 -100 -146c-29 1 -37 20 -35 35c27 12 37 28 41 62c-40 6 -55 33 -55 72c0 44 19 72 72 72z" />
    <glyph glyph-name="quotedblbase" unicode="&#x201e;" horiz-adv-x="362" 
d="M92 125c52 0 77 -28 77 -95c0 -65 -29 -148 -100 -146c-29 1 -37 20 -35 35c27 12 37 28 41 62c-40 6 -55 33 -55 72c0 44 19 72 72 72zM275 125c52 0 77 -28 77 -95c0 -65 -29 -148 -100 -146c-29 1 -37 20 -35 35c27 12 37 28 41 62c-40 6 -55 33 -55 72
c0 44 19 72 72 72z" />
    <glyph glyph-name="quotedblleft" unicode="&#x201c;" horiz-adv-x="362" 
d="M104 675c40 -6 55 -33 55 -72c0 -44 -19 -72 -72 -72c-52 0 -77 28 -77 95c0 65 29 148 100 146c29 -1 37 -20 35 -35c-27 -12 -37 -28 -41 -62zM287 675c40 -6 55 -33 55 -72c0 -44 -19 -72 -72 -72c-52 0 -77 28 -77 95c0 65 29 148 100 146c29 -1 37 -20 35 -35
c-27 -12 -37 -28 -41 -62z" />
    <glyph glyph-name="quotedblright" unicode="&#x201d;" horiz-adv-x="362" 
d="M92 772c52 0 77 -28 77 -95c0 -65 -29 -148 -100 -146c-29 1 -37 20 -35 35c27 12 37 29 41 62c-40 6 -55 33 -55 72c0 44 19 72 72 72zM275 772c52 0 77 -28 77 -95c0 -65 -29 -148 -100 -146c-29 1 -37 20 -35 35c27 12 37 29 41 62c-40 6 -55 33 -55 72
c0 44 19 72 72 72z" />
    <glyph glyph-name="quoteleft" unicode="&#x2018;" horiz-adv-x="179" 
d="M104 675c40 -6 55 -33 55 -72c0 -44 -19 -72 -72 -72c-52 0 -77 28 -77 95c0 65 29 148 100 146c29 -1 37 -20 35 -35c-27 -12 -37 -28 -41 -62z" />
    <glyph glyph-name="quoteright" unicode="&#x2019;" horiz-adv-x="179" 
d="M92 772c52 0 77 -28 77 -95c0 -65 -29 -148 -100 -146c-29 1 -37 20 -35 35c27 12 37 29 41 62c-40 6 -55 33 -55 72c0 44 19 72 72 72z" />
    <glyph glyph-name="guillemotleft" unicode="&#xab;" horiz-adv-x="532" 
d="M177 273l89 -114c27 -35 28 -48 5 -70c-22 -21 -31 -16 -69 15l-133 109c-23 19 -30 31 -30 60c0 30 7 42 30 61l133 109c38 31 47 36 68 15c24 -24 25 -33 -4 -70zM394 273l81 -104c27 -34 26 -46 4 -68c-21 -21 -29 -15 -67 14l-126 98c-24 18 -30 31 -30 60
c0 30 6 43 30 61l126 98c38 29 46 35 67 14c23 -23 24 -32 -4 -68z" />
    <glyph glyph-name="guillemotright" unicode="&#xbb;" horiz-adv-x="532" 
d="M463 334c23 -19 30 -31 30 -61c0 -29 -7 -41 -30 -60l-133 -109c-38 -31 -47 -36 -69 -15c-23 22 -22 35 5 70l89 114l-89 115c-29 37 -28 46 -4 70c21 21 30 16 68 -15zM276 273c0 -29 -6 -42 -30 -60l-126 -98c-38 -29 -46 -35 -67 -14c-22 22 -23 34 4 68l81 104
l-81 105c-28 36 -27 45 -4 68c21 21 29 15 67 -14l126 -98c24 -18 30 -31 30 -61z" />
    <glyph glyph-name="guilsinglleft" unicode="&#x2039;" horiz-adv-x="326" 
d="M179 273l89 -104c28 -33 26 -46 4 -68c-21 -21 -29 -14 -67 14l-136 98c-24 18 -30 31 -30 60c0 30 6 43 30 61l136 98c38 28 46 35 67 14c23 -23 25 -33 -4 -68z" />
    <glyph glyph-name="guilsinglright" unicode="&#x203a;" horiz-adv-x="326" 
d="M257 334c24 -18 30 -31 30 -61c0 -29 -6 -42 -30 -60l-136 -98c-38 -28 -46 -35 -67 -14c-22 22 -24 35 4 68l89 104l-89 105c-29 35 -27 45 -4 68c21 21 29 14 67 -14z" />
    <glyph glyph-name="quotedbl" unicode="&#x22;" horiz-adv-x="310" 
d="M132 713c14 -18 -3 -149 -19 -223c-4 -19 -14 -27 -35 -27c-20 0 -30 8 -34 27c-16 74 -32 208 -20 223s31 20 54 20s42 -5 54 -20zM285 713c14 -18 -3 -149 -19 -223c-4 -19 -14 -27 -35 -27c-20 0 -30 8 -34 27c-16 74 -32 208 -20 223s31 20 54 20s42 -5 54 -20z" />
    <glyph glyph-name="quotesingle" unicode="'" horiz-adv-x="157" 
d="M132 713c14 -18 -3 -149 -19 -223c-4 -19 -14 -27 -35 -27c-20 0 -30 8 -34 27c-16 74 -32 208 -20 223s31 20 54 20s42 -5 54 -20z" />
    <glyph glyph-name="guillemotleft.case" horiz-adv-x="532" 
d="M177 330l89 -114c27 -35 28 -48 5 -70c-22 -21 -31 -16 -69 15l-133 109c-23 19 -30 31 -30 60c0 30 7 42 30 61l133 109c38 31 47 36 68 15c24 -24 25 -33 -4 -70zM394 330l81 -104c27 -34 26 -46 4 -68c-21 -21 -29 -15 -67 14l-126 98c-24 18 -30 31 -30 60
c0 30 6 43 30 61l126 98c38 29 46 35 67 14c23 -23 24 -32 -4 -68z" />
    <glyph glyph-name="guillemotright.case" horiz-adv-x="532" 
d="M463 391c23 -19 30 -31 30 -61c0 -29 -7 -41 -30 -60l-133 -109c-38 -31 -47 -36 -69 -15c-23 22 -22 35 5 70l89 114l-89 115c-29 37 -28 46 -4 70c21 21 30 16 68 -15zM276 330c0 -29 -6 -42 -30 -60l-126 -98c-38 -29 -46 -35 -67 -14c-22 22 -23 34 4 68l81 104
l-81 105c-28 36 -27 45 -4 68c21 21 29 15 67 -14l126 -98c24 -18 30 -31 30 -61z" />
    <glyph glyph-name="guilsinglleft.case" horiz-adv-x="326" 
d="M179 318l89 -104c28 -33 26 -46 4 -68c-21 -21 -29 -14 -67 14l-136 98c-24 18 -30 31 -30 60c0 30 6 43 30 61l136 98c38 28 46 35 67 14c23 -23 25 -33 -4 -68z" />
    <glyph glyph-name="guilsinglright.case" horiz-adv-x="326" 
d="M257 379c24 -18 30 -31 30 -61c0 -29 -6 -42 -30 -60l-136 -98c-38 -28 -46 -35 -67 -14c-22 22 -24 35 4 68l89 104l-89 105c-29 35 -27 45 -4 68c21 21 29 14 67 -14z" />
    <glyph glyph-name="space" unicode=" " horiz-adv-x="175" 
 />
    <glyph glyph-name="CR" unicode="&#xd;" horiz-adv-x="555" 
 />
    <glyph glyph-name=".null" horiz-adv-x="555" 
 />
    <glyph glyph-name="cent" unicode="&#xa2;" horiz-adv-x="508" 
d="M454 213c12 -5 42 -47 5 -85c-38 -40 -90 -57 -146 -61v-164c0 -17 0 -30 2 -40c-24 -12 -63 -13 -83 5c-15 13 -15 34 -15 55v150c-108 25 -177 119 -177 265c0 157 71 245 181 268v170c0 28 17 34 47 34c29 0 49 -6 49 -34v-166c107 -12 161 -78 161 -118
c0 -39 -37 -70 -75 -70c-34 0 -61 34 -83 106c-86 -2 -125 -63 -124 -185c1 -117 47 -176 125 -176c51 0 95 16 133 46z" />
    <glyph glyph-name="currency" unicode="&#xa4;" horiz-adv-x="613" 
d="M490 169l84 -107c18 -23 7 -38 -16 -56s-42 -26 -59 -4l-88 113c-30 -12 -65 -19 -104 -19c-38 0 -73 7 -104 20l-89 -114c-17 -22 -36 -14 -59 4s-34 33 -16 56l86 109c-36 41 -57 95 -57 157c0 63 19 116 52 155l-81 103c-18 23 -7 38 16 56s42 26 59 4l83 -106
c32 14 70 22 112 22c41 0 78 -7 109 -19l81 103c17 22 36 14 59 -4s34 -33 16 -56l-77 -98c34 -38 52 -90 52 -150c0 -69 -21 -127 -59 -169zM310 200c76 0 93 70 91 143c-2 75 -26 128 -95 128c-76 0 -91 -72 -91 -128c0 -69 19 -143 95 -143z" />
    <glyph glyph-name="dollar" unicode="$" horiz-adv-x="526" 
d="M306 396c114 -52 188 -102 186 -207c-2 -89 -47 -182 -187 -199v-87c0 -17 0 -30 2 -40c-24 -12 -63 -13 -83 5c-15 13 -15 34 -15 55v67c-91 12 -193 54 -191 129c1 41 45 83 96 83c42 -1 70 -42 94 -125c93 -13 134 31 135 90c1 66 -47 87 -118 119
c-106 46 -172 101 -170 209c2 113 74 170 164 186v95c0 28 17 34 47 34c29 0 49 -6 49 -34v-92c86 -10 170 -53 168 -121c-1 -39 -42 -72 -81 -71c-39 0 -65 37 -83 107c-78 17 -121 -23 -122 -86c-1 -60 39 -85 109 -117z" />
    <glyph glyph-name="Euro" unicode="&#x20ac;" horiz-adv-x="637" 
d="M585 156c14 -6 49 -46 6 -92c-55 -58 -133 -75 -215 -75c-120 0 -205 76 -236 216h-99c-6 29 -18 85 46 85h42c-1 12 -1 25 -1 38v16h-80c-6 29 -18 85 46 85h41c28 180 133 261 262 261c138 0 216 -75 216 -126c0 -36 -44 -72 -78 -72c-36 0 -68 30 -97 110
c-90 -5 -139 -61 -155 -173c102 0 203 0 222 2c11 -46 -3 -87 -46 -87h-181v-10c0 -16 1 -30 2 -44c100 0 199 0 218 2c11 -46 -3 -87 -46 -87h-157c23 -71 67 -104 130 -104c62 0 114 19 160 55z" />
    <glyph glyph-name="sterling" unicode="&#xa3;" horiz-adv-x="509" 
d="M484 117c22 -55 7 -117 -73 -117h-295c-31 0 -42 9 -42 29v47c0 30 38 36 38 130c0 28 -2 53 -3 82h-80c-6 29 -18 85 46 85h29c-1 29 -2 63 -2 105c0 162 89 212 207 212c136 0 180 -65 180 -103c0 -40 -37 -75 -73 -75c-35 0 -59 36 -75 89c-69 14 -94 -16 -94 -104
c0 -51 1 -91 3 -124c82 0 158 0 177 2c11 -46 -3 -87 -46 -87h-127c1 -24 2 -46 2 -70c0 -49 -10 -81 -22 -105h171c51 0 69 2 79 4z" />
    <glyph glyph-name="yen" unicode="&#xa5;" horiz-adv-x="553" 
d="M475 260h-113v-56c75 0 137 1 152 2c11 -44 -3 -85 -46 -85h-106v-68c0 -21 0 -36 3 -48c-29 -15 -103 -24 -136 5c-18 16 -18 42 -18 67v44h-164c-6 29 -18 83 46 83h118v56h-157c-6 29 -18 83 46 83h87c-114 208 -170 302 -183 311c62 39 131 79 177 -10l128 -246
c105 186 137 243 139 280c63 26 136 -10 67 -123l-129 -212c67 0 122 1 135 2c11 -44 -3 -85 -46 -85z" />
    <glyph glyph-name="cent.ss01" horiz-adv-x="421" 
d="M369 160c16 -7 36 -41 6 -72s-69 -44 -112 -48v-116c0 -13 0 -24 2 -32c-20 -9 -59 -10 -75 4c-12 11 -12 28 -12 44v105c-84 22 -138 96 -138 211c0 123 54 193 138 214v111c0 22 14 27 42 27c27 0 43 -5 43 -27v-107c84 -10 127 -63 127 -94c0 -36 -35 -64 -70 -64
c-27 0 -49 25 -64 82c-51 -1 -81 -40 -81 -138c0 -88 37 -135 90 -135c40 0 76 12 104 35z" />
    <glyph glyph-name="dollar.ss01" horiz-adv-x="431" 
d="M249 307c91 -42 149 -82 148 -166c-1 -59 -37 -133 -145 -147v-70c0 -13 0 -24 2 -32c-20 -9 -59 -10 -75 4c-12 11 -12 28 -12 44v54c-69 10 -150 43 -149 103c1 43 36 76 77 76c34 0 56 -23 75 -99c75 -11 97 14 98 50c1 32 -27 49 -84 74c-85 37 -138 84 -136 168
c2 80 59 126 127 139v76c0 22 14 27 42 27c27 0 43 -5 43 -27v-74c65 -8 135 -45 133 -100c-1 -31 -36 -65 -71 -64c-28 1 -61 30 -73 86c-52 14 -78 -18 -78 -49c0 -26 22 -47 78 -73z" />
    <glyph glyph-name="Euro.ss01" horiz-adv-x="536" 
d="M485 122c11 -5 40 -38 5 -74c-44 -46 -107 -60 -172 -60c-98 0 -164 54 -191 146h-87c-5 33 -15 78 37 78h37c-1 9 -1 19 -1 29v8h-68c-4 33 -14 78 37 78h39c24 125 105 186 214 186c122 0 177 -60 177 -101c0 -37 -40 -65 -67 -65c-29 0 -64 24 -78 86
c-68 4 -101 -34 -113 -106c79 0 153 0 167 2c9 -47 -4 -80 -47 -80h-125v-3c0 -12 1 -23 1 -34c77 0 150 0 165 2c9 -47 -4 -80 -46 -80h-101c17 -37 46 -56 89 -56c50 0 91 15 128 44z" />
    <glyph glyph-name="sterling.ss01" horiz-adv-x="483" 
d="M460 92c19 -48 1 -92 -52 -92h-302c-31 0 -42 9 -42 29v27c0 30 32 36 32 100c0 13 0 27 -1 42h-66c-6 29 -18 85 46 85h18c-1 23 -1 46 -1 70c0 111 79 161 187 161c136 0 180 -62 180 -100c0 -36 -37 -66 -73 -66c-35 0 -59 31 -75 84c-69 14 -84 -19 -84 -75
c0 -22 0 -48 1 -74c78 0 149 0 169 2c11 -46 -3 -87 -46 -87h-121v-30c0 -33 -9 -58 -19 -78h203c23 0 36 0 46 2z" />
    <glyph glyph-name="yen.ss01" horiz-adv-x="433" 
d="M382 188h-90v-37c60 0 111 0 122 2c9 -35 -3 -78 -37 -78h-85v-36c0 -16 0 -28 2 -38c-23 -12 -97 -20 -123 4c-14 13 -14 34 -14 54v16h-134c-5 23 -14 76 37 76h97v37h-129c-5 23 -14 76 37 76h70c-77 139 -121 203 -131 210c60 31 113 66 152 -7l86 -162
c70 123 96 159 97 188c59 21 118 -4 60 -96l-84 -133c52 0 94 0 104 2c9 -35 -3 -78 -37 -78z" />
    <glyph glyph-name="plus" unicode="+" horiz-adv-x="468" 
d="M425 385c34 -51 -2 -101 -66 -101h-71v-140c-52 -34 -107 2 -107 66v74h-138c-34 51 2 102 66 102h72v144c52 34 107 -2 107 -66v-79h137z" />
    <glyph glyph-name="minus" unicode="&#x2212;" horiz-adv-x="428" 
d="M385 388c34 -52 -2 -107 -66 -107h-276c-34 52 2 107 66 107h276z" />
    <glyph glyph-name="multiply" unicode="&#xd7;" horiz-adv-x="387" 
d="M267 332l87 -112c-20 -58 -86 -66 -126 -15l-40 51l-96 -93c-61 14 -73 79 -27 123l57 55l-88 113c19 58 86 66 126 15l41 -52l94 91c61 -14 73 -78 27 -123z" />
    <glyph glyph-name="divide" unicode="&#xf7;" horiz-adv-x="448" 
d="M227 454c-48 0 -65 26 -65 68s17 68 65 68c47 0 63 -26 63 -68s-16 -68 -63 -68zM405 388c34 -52 -2 -107 -66 -107h-296c-34 52 2 107 66 107h296zM227 79c-48 0 -65 26 -65 68s17 68 65 68c47 0 63 -26 63 -68s-16 -68 -63 -68z" />
    <glyph glyph-name="equal" unicode="=" horiz-adv-x="428" 
d="M385 488c34 -52 -2 -107 -66 -107h-276c-34 52 2 107 66 107h276zM385 288c34 -52 -2 -107 -66 -107h-276c-34 52 2 107 66 107h276z" />
    <glyph glyph-name="notequal" unicode="&#x2260;" horiz-adv-x="480" 
d="M282 287h149c34 -49 -2 -104 -66 -104h-125l-55 -135c-60 -12 -97 41 -74 99l15 36h-77c-34 52 2 104 66 104h54l39 95h-159c-34 49 2 104 66 104h135l56 135c59 12 96 -42 72 -99l-15 -36h68c34 -52 -2 -104 -66 -104h-44z" />
    <glyph glyph-name="greater" unicode="&#x3e;" horiz-adv-x="426" 
d="M362 358c27 -18 34 -33 34 -64c0 -32 -7 -47 -34 -65l-235 -156c-44 -29 -57 -30 -76 -11s-25 36 9 67l177 164l-175 165c-36 34 -31 45 -8 70c17 18 26 17 73 -14z" />
    <glyph glyph-name="less" unicode="&#x3c;" horiz-adv-x="426" 
d="M366 129c34 -31 28 -48 9 -67s-32 -18 -76 11l-235 156c-27 18 -34 33 -34 65c0 31 7 46 34 64l235 156c47 31 56 32 73 14c23 -25 28 -36 -8 -70l-175 -165z" />
    <glyph glyph-name="greaterequal" unicode="&#x2265;" horiz-adv-x="438" 
d="M123 167c-49 -21 -61 -22 -77 -1c-16 22 -19 41 19 65l170 110l-158 142c-37 34 -31 45 -8 70c17 18 26 16 73 -14l219 -141c28 -18 34 -33 34 -64c0 -32 -5 -52 -34 -65zM395 100c34 -45 -2 -100 -66 -100h-296c-34 45 2 100 66 100h296z" />
    <glyph glyph-name="lessequal" unicode="&#x2264;" horiz-adv-x="438" 
d="M77 269c-29 13 -34 33 -34 65c0 31 6 46 34 64l219 141c47 30 56 32 73 14c23 -25 29 -36 -8 -70l-158 -142l170 -110c38 -24 35 -43 19 -65c-16 -21 -28 -20 -77 1zM405 100c34 -45 -2 -100 -66 -100h-296c-34 45 2 100 66 100h296z" />
    <glyph glyph-name="plusminus" unicode="&#xb1;" horiz-adv-x="468" 
d="M181 324h-138c-34 51 2 102 66 102h72v144c52 34 107 -2 107 -66v-79h137c34 -51 -2 -101 -66 -101h-71v-140c-52 -34 -107 2 -107 66v74zM121 107h296c34 -52 -2 -107 -66 -107h-296c-34 52 2 107 66 107z" />
    <glyph glyph-name="approxequal" unicode="&#x2248;" horiz-adv-x="462" 
d="M413 517c21 -7 22 -18 16 -44c-17 -75 -47 -118 -101 -118c-48 0 -141 51 -179 51c-22 0 -32 -3 -57 -31c-20 -22 -28 -26 -47 -16c-18 9 -18 20 -11 46c20 74 50 113 115 113c56 0 130 -51 179 -51c16 0 28 9 44 33c12 18 19 24 41 17zM413 322c21 -7 22 -18 16 -44
c-17 -75 -47 -118 -101 -118c-48 0 -141 51 -179 51c-22 0 -32 -3 -57 -31c-20 -22 -28 -26 -47 -16c-18 9 -18 20 -11 46c20 74 50 113 115 113c56 0 130 -51 179 -51c16 0 28 9 44 33c12 18 19 24 41 17z" />
    <glyph glyph-name="asciitilde" unicode="~" horiz-adv-x="462" 
d="M413 414c21 -7 22 -18 16 -44c-17 -75 -47 -118 -101 -118c-48 0 -141 51 -179 51c-22 0 -32 -3 -57 -31c-20 -22 -28 -26 -47 -16c-18 9 -18 20 -11 46c20 74 50 113 115 113c56 0 130 -51 179 -51c16 0 28 9 44 33c12 18 19 24 41 17z" />
    <glyph glyph-name="logicalnot" unicode="&#xac;" horiz-adv-x="495" 
d="M450 333v-220c-52 -34 -113 2 -113 66v97h-294c-34 57 2 112 66 112h286c43 0 55 -21 55 -55z" />
    <glyph glyph-name="asciicircum" unicode="^" horiz-adv-x="507" 
d="M454 415c28 -49 31 -61 7 -80c-21 -17 -38 -17 -65 15l-142 169l-144 -171c-29 -35 -46 -28 -67 -9c-20 18 -16 30 11 76l136 235c16 28 33 34 65 34c31 0 48 -6 64 -34z" />
    <glyph glyph-name="percent" unicode="%" horiz-adv-x="809" 
d="M230 -12c-31 -6 -74 13 -86 38c-9 19 4 42 19 63l410 568c22 31 40 29 74 5c30 -21 39 -37 17 -68l-408 -564c-13 -18 -22 -31 -26 -42zM355 499c0 -123 -60 -192 -163 -192c-95 0 -162 69 -162 185c0 124 67 186 163 186c102 0 162 -62 162 -179zM234 502
c-2 79 -16 103 -43 103c-30 0 -39 -35 -39 -103c0 -71 12 -116 42 -116s42 43 40 116zM779 178c0 -123 -60 -192 -163 -192c-95 0 -162 69 -162 185c0 124 67 186 163 186c102 0 162 -62 162 -179zM658 181c-2 79 -16 103 -43 103c-30 0 -39 -35 -39 -103
c0 -71 12 -116 42 -116s42 43 40 116z" />
    <glyph glyph-name="perthousand" unicode="&#x2030;" horiz-adv-x="1174" 
d="M230 -12c-31 -6 -74 13 -86 38c-9 19 4 42 19 63l410 568c22 31 40 29 74 5c30 -21 39 -37 17 -68l-408 -564c-13 -18 -22 -31 -26 -42zM355 499c0 -123 -60 -192 -163 -192c-95 0 -162 69 -162 185c0 124 67 186 163 186c102 0 162 -62 162 -179zM234 502
c-2 79 -16 103 -43 103c-30 0 -39 -35 -39 -103c0 -71 12 -116 42 -116s42 43 40 116zM779 178c0 -123 -60 -192 -163 -192c-95 0 -162 69 -162 185c0 124 67 186 163 186c102 0 162 -62 162 -179zM1144 178c0 -123 -60 -192 -163 -192c-95 0 -162 69 -162 185
c0 124 67 186 163 186c102 0 162 -62 162 -179zM658 181c-2 79 -16 103 -43 103c-30 0 -39 -35 -39 -103c0 -71 12 -116 42 -116s42 43 40 116zM1023 181c-2 79 -16 103 -43 103c-30 0 -39 -35 -39 -103c0 -71 12 -116 42 -116s42 43 40 116z" />
    <glyph glyph-name="percent.ss01" horiz-adv-x="691" 
d="M525 499c30 -22 38 -37 20 -61l-304 -422c-10 -13 -16 -23 -19 -32c-23 -4 -57 11 -72 33c-17 25 -7 42 4 58l307 426c16 23 31 22 64 -2zM295 377c-1 -92 -46 -144 -133 -144c-82 0 -132 52 -132 138c0 94 50 139 133 139c86 0 133 -45 132 -133zM189 379
c0 54 -10 70 -28 70c-21 0 -23 -24 -24 -70c-1 -47 6 -78 27 -78c20 0 25 29 25 78zM661 137c-1 -92 -46 -144 -133 -144c-82 0 -132 52 -132 138c0 94 50 139 133 139c86 0 133 -45 132 -133zM555 139c0 54 -10 70 -28 70c-21 0 -23 -24 -24 -70c-1 -47 6 -78 27 -78
c20 0 25 29 25 78z" />
    <glyph glyph-name="lozenge" unicode="&#x25ca;" horiz-adv-x="507" 
d="M454 415c12 -27 17 -38 17 -54s-5 -27 -17 -54l-139 -315c-12 -28 -29 -34 -60 -34c-32 0 -50 6 -62 34l-139 315c-12 28 -17 38 -17 54s5 26 17 54l139 315c13 28 30 34 62 34c31 0 48 -6 60 -34zM254 71l122 290l-122 290l-120 -290z" />
    <glyph glyph-name="at" unicode="@" horiz-adv-x="993" 
d="M860 38c25 -19 36 -63 -2 -101c-32 -32 -155 -96 -327 -96c-393 0 -489 226 -489 430c0 250 173 496 525 496c309 0 383 -217 383 -369c0 -180 -95 -339 -232 -339c-65 0 -100 38 -118 77c-39 -50 -104 -74 -157 -74c-142 0 -185 110 -185 205c0 177 105 305 291 305
c91 0 186 -34 186 -106c0 -24 -29 -209 -31 -223c-6 -42 2 -74 37 -74c68 0 91 126 92 221c2 156 -76 275 -268 275c-273 0 -402 -194 -402 -394c0 -180 99 -326 373 -326c176 0 299 69 324 93zM410 266c0 -56 21 -99 71 -99c38 0 67 19 92 42c-3 47 9 117 27 255
c-18 9 -43 13 -67 13c-82 0 -123 -97 -123 -211z" />
    <glyph glyph-name="ampersand" unicode="&#x26;" horiz-adv-x="641" 
d="M544 139c36 -40 61 -68 73 -74c-16 -36 -61 -76 -94 -76c-23 0 -36 11 -64 42l-6 7c-50 -37 -106 -52 -184 -52c-168 0 -237 94 -237 185c0 95 50 151 131 193c-50 65 -71 110 -71 162c0 72 51 164 190 164c121 0 177 -68 177 -157c0 -86 -56 -137 -123 -167
c34 -37 76 -83 129 -140c6 47 6 103 6 133c0 34 20 41 60 41c29 0 54 -7 54 -41c0 -81 -17 -164 -41 -220zM279 597c-41 0 -64 -22 -64 -58c0 -27 15 -53 72 -118c28 22 54 57 54 104c0 38 -18 72 -62 72zM280 89c37 0 71 9 99 31c-67 73 -120 131 -161 178
c-33 -33 -49 -65 -49 -106c0 -52 33 -103 111 -103z" />
    <glyph glyph-name="paragraph" unicode="&#xb6;" horiz-adv-x="555" 
d="M482 -75c0 -19 0 -33 3 -44c-26 -13 -68 -13 -91 6c-16 13 -16 37 -16 59v650c-10 2 -36 4 -52 3v-674c0 -19 0 -33 3 -44c-26 -13 -68 -13 -91 6c-16 13 -16 37 -16 59v348c-124 0 -172 100 -172 193c0 104 57 207 266 207c102 0 166 -26 166 -86v-683z" />
    <glyph glyph-name="section" unicode="&#xa7;" horiz-adv-x="523" 
d="M483 268c-1 -59 -21 -106 -79 -143c31 -32 48 -72 47 -126c-3 -128 -100 -180 -208 -180c-91 0 -197 43 -195 116c1 37 40 67 76 67c37 0 62 -35 79 -101c73 -16 114 22 115 81c1 57 -37 80 -103 110c-108 49 -176 97 -175 195c1 59 21 106 79 143c-31 32 -48 72 -47 126
c3 128 100 180 208 180c91 0 197 -43 195 -116c-1 -37 -40 -67 -76 -67c-37 0 -62 35 -79 101c-73 16 -114 -22 -115 -81c-1 -57 37 -80 103 -110c108 -49 176 -97 175 -195zM171 308c-2 -62 53 -83 120 -112c14 -6 27 -12 40 -19c15 21 20 45 21 70c1 62 -53 83 -120 112
c-14 6 -27 12 -39 18c-16 -21 -21 -45 -22 -69z" />
    <glyph glyph-name="copyright" unicode="&#xa9;" horiz-adv-x="789" 
d="M395 -9c-209 0 -355 140 -355 355s146 354 355 354c215 0 354 -159 354 -354c0 -196 -139 -355 -354 -355zM395 79c167 0 259 113 259 267c0 146 -92 266 -259 266c-168 0 -260 -113 -260 -266c0 -148 92 -267 260 -267zM535 267c12 -9 28 -35 2 -66
c-31 -37 -78 -53 -137 -53c-113 0 -184 71 -184 196c0 133 71 198 185 198c101 0 149 -57 149 -92c0 -27 -31 -53 -61 -53c-25 0 -44 22 -60 74c-61 0 -91 -44 -90 -123c1 -75 34 -117 90 -117c47 0 79 14 106 36z" />
    <glyph glyph-name="registered" unicode="&#xae;" horiz-adv-x="789" 
d="M395 700c215 0 354 -159 354 -354c0 -196 -139 -355 -354 -355c-209 0 -355 140 -355 355s146 354 355 354zM395 79c167 0 259 113 259 267c0 146 -92 266 -259 266c-168 0 -260 -113 -260 -266c0 -148 92 -267 260 -267zM545 422c0 -43 -22 -88 -65 -111
c65 -112 78 -125 83 -131c-39 -31 -88 -68 -122 0l-57 113h-21l-1 -115c0 -12 1 -21 2 -28c-27 -9 -76 -14 -96 3c-11 9 -11 25 -11 40v318c0 33 65 38 131 38c104 0 157 -60 157 -127zM387 368c44 0 57 18 57 52c0 27 -9 52 -63 52c-6 0 -12 0 -18 -1v-102
c7 -1 16 -1 24 -1z" />
    <glyph glyph-name="trademark" unicode="&#x2122;" horiz-adv-x="788" 
d="M292 682c23 0 28 -15 28 -42c0 -28 -5 -45 -28 -45h-76v-230c0 -15 0 -25 3 -33c-21 -11 -73 -18 -95 3c-12 11 -12 29 -12 47v213h-76c-23 0 -28 15 -28 42c0 28 5 45 28 45h256zM740 355c0 -12 0 -20 2 -27c-17 -9 -71 -14 -89 3c-10 9 -10 24 -10 39v114l-64 -145
c-7 -15 -13 -17 -31 -17c-21 0 -27 2 -35 17l-78 151v-135c0 -12 0 -20 3 -27c-22 -7 -58 -10 -73 3c-11 9 -11 24 -11 39v288c0 20 12 24 47 24c30 0 40 -2 49 -19l110 -207l89 202c9 20 14 24 38 24c38 0 52 -4 52 -24z" />
    <glyph glyph-name="degree" unicode="&#xb0;" horiz-adv-x="321" 
d="M301 578c0 -78 -49 -134 -141 -134c-86 0 -140 56 -140 128c0 76 54 130 141 130c91 0 140 -54 140 -124zM219 581c0 24 -13 52 -60 52c-49 0 -58 -36 -58 -52c0 -21 10 -62 60 -62s58 38 58 62z" />
    <glyph glyph-name="bar" unicode="|" horiz-adv-x="318" 
d="M218 -125c-29 -15 -75 -15 -100 6c-18 15 -18 41 -18 66v836c0 34 21 41 56 41s59 -7 59 -41v-860c0 -21 0 -36 3 -48z" />
    <glyph glyph-name="brokenbar" unicode="&#xa6;" horiz-adv-x="314" 
d="M214 401c-29 -15 -74 -14 -96 5c-18 16 -18 42 -18 67v310c0 34 21 41 54 41s57 -7 57 -41v-334c0 -21 0 -36 3 -48zM214 -125c-29 -15 -74 -14 -96 5c-18 16 -18 42 -18 67v310c0 34 21 41 54 41s57 -7 57 -41v-334c0 -21 0 -36 3 -48z" />
    <glyph glyph-name="dagger" unicode="&#x2020;" horiz-adv-x="538" 
d="M483 470c14 -67 -3 -109 -44 -109h-98v-518c0 -21 0 -36 3 -48c-29 -15 -99 -22 -129 5c-18 16 -18 42 -18 67v494h-142c-8 41 -17 107 44 107h98v173c0 34 21 41 71 41c49 0 73 -7 73 -41v-173c70 0 127 1 142 2z" />
    <glyph glyph-name="daggerdbl" unicode="&#x2021;" horiz-adv-x="541" 
d="M486 139c14 -67 -3 -109 -44 -109h-101v-187c0 -21 0 -36 3 -48c-29 -15 -99 -22 -129 5c-18 16 -18 42 -18 67v163h-139c-8 41 -17 107 44 107h95v224h-142c-8 41 -17 107 44 107h98v173c0 34 21 41 71 41c49 0 73 -7 73 -41v-173c70 0 127 1 142 2
c14 -67 -3 -109 -44 -109h-98v-224c71 0 130 1 145 2z" />
    <glyph glyph-name="acute" unicode="&#xb4;" 
d="M241 786c50 -36 56 -99 0 -128l-110 -58c-35 -19 -46 -19 -63 8c-14 22 -11 29 24 58l95 78c17 14 38 27 54 42z" />
    <glyph glyph-name="cedilla" unicode="&#xb8;" 
d="M162 -46c64 6 124 -21 124 -90c0 -70 -76 -94 -134 -94c-57 0 -90 24 -90 41c0 11 2 16 9 24c13 -8 27 -20 58 -20c40 0 54 24 54 52c0 33 -20 42 -37 42c-10 0 -24 -4 -33 -4c-11 0 -18 9 -18 18c0 8 2 14 5 22l22 66c5 15 8 21 28 21c10 0 26 -2 22 -23z" />
    <glyph glyph-name="circumflex" unicode="&#x2c6;" 
d="M302 664c28 -35 32 -43 13 -62c-21 -21 -31 -21 -63 4l-77 60l-76 -60c-32 -25 -43 -24 -63 -4c-19 19 -15 27 13 62l72 89c17 21 27 28 54 28c28 0 37 -6 55 -28z" />
    <glyph glyph-name="dieresis" unicode="&#xa8;" 
d="M75 743c48 0 71 -19 71 -52v-32c0 -33 -23 -52 -71 -52s-69 19 -69 52v32c0 33 21 52 69 52zM273 743c48 0 71 -19 71 -52v-32c0 -33 -23 -52 -71 -52s-69 19 -69 52v32c0 33 21 52 69 52z" />
    <glyph glyph-name="dotaccent" unicode="&#x2d9;" 
d="M174 742c49 0 72 -19 72 -53v-32c0 -34 -23 -53 -72 -53s-70 19 -70 53v32c0 34 21 53 70 53z" />
    <glyph glyph-name="grave" unicode="`" 
d="M109 786c16 -15 37 -28 54 -42l95 -78c35 -29 38 -36 24 -58c-17 -27 -28 -26 -63 -8l-110 58c-56 30 -50 92 0 128z" />
    <glyph glyph-name="ring" unicode="&#x2da;" 
d="M298 682c0 -61 -43 -108 -123 -108c-75 0 -122 47 -122 103c0 62 47 105 123 105c79 0 122 -43 122 -100zM218 685c-2 25 -12 50 -44 50c-34 0 -42 -34 -42 -50c0 -23 9 -58 44 -58s44 33 42 58z" />
    <glyph glyph-name="tilde" unicode="&#x2dc;" 
d="M340 752c19 -7 21 -18 14 -44c-17 -63 -46 -105 -97 -105c-37 0 -128 50 -155 50c-24 0 -33 -4 -58 -31c-20 -22 -27 -25 -44 -16c-16 9 -16 20 -8 46c19 62 48 101 110 101c45 0 117 -50 155 -50c18 0 29 8 45 32c12 18 19 24 38 17z" />
    <glyph glyph-name="acute.case" 
d="M276 872c37 -47 27 -109 -36 -123l-121 -26c-40 -9 -50 -5 -58 23s-3 35 39 52l112 45c25 10 50 20 64 29z" />
    <glyph glyph-name="cedilla.case" 
d="M161 -53c67 6 131 -22 131 -91c0 -70 -80 -96 -141 -96c-60 0 -95 26 -95 44c0 11 3 16 10 25c14 -9 28 -21 61 -21c42 0 56 25 56 51c0 31 -21 40 -38 40c-11 0 -26 -4 -35 -4c-12 0 -19 10 -19 19c0 8 2 15 5 23l23 69c5 16 9 23 30 23c10 0 27 -3 23 -25z" />
    <glyph glyph-name="circumflex.case" 
d="M307 784c30 -25 32 -34 17 -56c-16 -23 -32 -20 -67 -2l-82 42l-82 -42c-35 -18 -51 -21 -67 2c-15 22 -13 31 17 56l77 64c23 19 27 23 55 23s32 -4 55 -23z" />
    <glyph glyph-name="dieresis.case" 
d="M75 850c46 0 68 -18 68 -50v-30c0 -32 -22 -50 -68 -50s-66 18 -66 50v30c0 32 20 50 66 50zM273 850c46 0 68 -18 68 -50v-30c0 -32 -22 -50 -68 -50s-66 18 -66 50v30c0 32 20 50 66 50z" />
    <glyph glyph-name="dotaccent.case" 
d="M174 854c49 0 72 -19 72 -53v-32c0 -34 -23 -53 -72 -53s-70 19 -70 53v32c0 34 21 53 70 53z" />
    <glyph glyph-name="grave.case" 
d="M74 872c14 -9 39 -19 64 -29l112 -45c42 -17 47 -24 39 -52s-18 -32 -58 -23l-121 26c-63 14 -73 76 -36 123z" />
    <glyph glyph-name="ring.case" 
d="M288 798c0 -57 -40 -94 -113 -94c-68 0 -112 37 -112 89c0 58 44 91 113 91c72 0 112 -33 112 -86zM210 801c0 23 -14 38 -36 38c-24 0 -34 -20 -34 -38c0 -21 11 -46 36 -46s34 23 34 46z" />
    <glyph glyph-name="tilde.case" 
d="M343 855c18 -6 20 -17 13 -41c-18 -61 -44 -101 -92 -101c-40 0 -137 43 -167 43c-23 0 -34 -2 -56 -24c-20 -20 -26 -26 -42 -16c-15 9 -15 17 -7 42c20 63 46 100 105 100c47 0 126 -43 167 -43c17 0 29 7 43 24c13 15 18 22 36 16z" />
    </font>
</defs>
</svg>
