<?xml version="1.0" encoding="UTF-8"?>
<svg id="Layer_2" data-name="Layer 2" xmlns="http://www.w3.org/2000/svg" viewBox="0 0 2248.64 1412.85">
  <defs>
    <style>
      .cls-1 {
        fill: #ea2f2f;
      }

      .cls-2, .cls-3 {
        fill: #cb9a60;
      }

      .cls-4 {
        fill: #31acdd;
      }

      .cls-5 {
        fill: #2eaf31;
      }

      .cls-6 {
        fill: #fff;
      }

      .cls-7 {
        fill: #a01515;
      }

      .cls-8, .cls-9, .cls-10, .cls-11, .cls-3 {
        opacity: .7;
      }

      .cls-8, .cls-12 {
        fill: #dbdcdd;
      }

      .cls-9 {
        fill: #f0f1f2;
      }

      .cls-13 {
        fill: #33c43a;
      }

      .cls-10 {
        fill: #e8e9ea;
      }

      .cls-14 {
        fill: #cc2929;
      }

      .cls-11 {
        fill: #cccdce;
      }

      .cls-15 {
        fill: #209923;
      }

      .cls-16 {
        fill: #61ccf7;
      }

      .cls-17 {
        fill: #4bb5ea;
      }
    </style>
  </defs>
  <g id="_Ñëîé_1" data-name="Ñëîé 1">
    <path class="cls-12" d="M808.47,215.16c-.4,0-.8.01-1.2.03.51-.03,1.03-.03,1.54-.02-.11,0-.23,0-.34,0Z"/>
    <path class="cls-12" d="M791.53,221.95c.77-.73,1.58-1.41,2.43-2.04-.85.62-1.66,1.3-2.43,2.04Z"/>
    <path class="cls-2" d="M743.77,19.65v-.86c0,.15-.01.29-.02.43,0,.14.02.28.02.43Z"/>
    <path class="cls-2" d="M520.98,18.78v.86c0-.15.01-.29.02-.43,0-.14-.02-.28-.02-.43Z"/>
    <path id="_1" data-name="1" class="cls-6" d="M1545.71,1064.19v244.82c0,50.25,40.74,90.98,90.98,90.98h172.34c28.28,0,54.95-13.15,72.17-35.58l.46-.59c6.14-6.86,14.92-10.79,24.13-10.79,9.78,0,19.03,4.42,25.18,12.03.91,1.13,1.88,2.33,2.9,3.63,14.83,19,37.52,30.2,61.62,30.2h162.18c50.25,0,90.98-40.73,90.98-90.98v-243.72h-702.93Z"/>
    <path id="_2" data-name="2" class="cls-6" d="M2248.64,789.35c0-12.99-1.59-25.8-4.6-38.19h-698.33v313.03h702.93v-274.84Z"/>
    <path id="_3" data-name="3" class="cls-6" d="M2223.58,700.89c-14.59-22.32-22.07-48.54-22.07-75.2v-186.18h-82.25v150.72c-3.89-5.4-7.63-10.91-11.19-16.51-4.75-7.48-9.21-15.13-13.36-22.93-10.38-19.52-18.84-40.02-25.27-61.21-1.29-4.24-2.49-8.5-3.61-12.79-1.12-4.29-2.16-8.61-3.11-12.95-1.77-8.03-3.24-16.14-4.42-24.32h-508.98c-1.52,13.74-2.31,27.7-2.31,41.84v269.82h698.33c-4.35-17.89-11.7-34.89-21.76-50.28Z"/>
    <path id="_5" data-name="5" class="cls-6" d="M772.21,1068.19v244.82c0,50.25,40.74,90.98,90.98,90.98h172.34c28.28,0,54.95-13.15,72.17-35.58l.46-.59c6.14-6.86,14.92-10.79,24.13-10.79,9.78,0,19.03,4.42,25.18,12.03.91,1.13,1.88,2.33,2.9,3.63,14.83,19,37.52,30.2,61.62,30.2h162.18c50.25,0,90.98-40.73,90.98-90.98v-243.72h-702.93Z"/>
    <path id="_4" data-name="4" class="cls-6" d="M2053.46,390.53v-151.46c0-.63.03-1.24.07-1.85.01-.14.02-.28.03-.42.05-.59.12-1.18.21-1.76.01-.06.02-.12.03-.18.09-.53.2-1.05.32-1.56.03-.12.06-.25.09-.37.14-.55.29-1.08.47-1.61.03-.09.06-.17.09-.26.16-.47.34-.92.52-1.37.04-.1.08-.2.13-.3.22-.5.45-.98.7-1.46.05-.1.1-.19.15-.28.23-.42.47-.84.72-1.24.04-.07.09-.14.13-.21.29-.45.59-.88.91-1.31.07-.09.14-.18.21-.27.3-.39.61-.78.94-1.15.03-.03.06-.07.09-.11.35-.4.72-.78,1.09-1.15.08-.08.17-.16.25-.24.77-.73,1.58-1.41,2.43-2.04.09-.07.19-.14.28-.2.43-.3.86-.59,1.3-.87.04-.03.09-.05.13-.08.41-.25.83-.49,1.26-.71.1-.05.2-.1.29-.16.46-.24.93-.46,1.4-.67.08-.03.16-.06.23-.1.43-.18.86-.35,1.29-.5.09-.03.19-.07.28-.1.49-.17.98-.32,1.47-.46.1-.03.2-.05.3-.08.45-.12.89-.22,1.35-.32.08-.02.16-.04.24-.05.51-.1,1.01-.18,1.52-.25.12-.02.23-.03.35-.04.48-.06.96-.1,1.44-.13.05,0,.1,0,.15-.01.4-.02.8-.03,1.2-.03.11,0,.23,0,.34,0,.14,0,.29,0,.43.01.44.01.87.04,1.31.08.1,0,.2.01.3.02.52.05,1.04.12,1.56.21.13.02.25.05.38.07.41.08.83.17,1.24.27.14.03.27.07.41.1.51.14,1.02.29,1.53.46.07.02.14.05.22.08.44.16.88.33,1.31.51.14.06.28.12.42.18.44.2.87.4,1.3.63.06.03.13.06.2.1.48.26.96.54,1.43.84.13.08.25.17.38.25.37.25.74.51,1.11.78.11.08.22.16.33.25.45.35.89.72,1.33,1.11.09.08.17.16.26.24.36.33.71.67,1.05,1.03.12.12.23.24.35.36.41.45.82.91,1.21,1.4,13.95,17.5,22.02,39.54,22.02,62.93v152.41h82.25v-216.22c0-44.9-29.67-84.4-72.8-96.91h0c-34.75-10.08-70.39-16.64-106.38-19.61h0s-15.14-1.6-14.23-15.03c-.65.35-1.31.67-1.96.95-2.15.92-4.25,1.5-5.56,1.86-3.42.94-7.67,1.81-12.7,2.61-3.28.52-6.89,1.02-10.83,1.47-19.9,2.31-46.28,3.59-74.29,3.59-3.62,0-7.22-.02-10.78-.06-23.95-.28-46.19-1.51-63.51-3.52-3.94-.46-7.55-.95-10.83-1.47-5.03-.8-9.28-1.67-12.7-2.61-1.36-.37-3.55-.98-5.77-1.95,0,0,0,0,0,0,1.97,24.31-15.58,39.17-15.58,39.17h0c-10.92,4.38-21.59,9.25-31.98,14.59-109.72,56.39-188.12,165.08-202.29,293.15h508.98c-2.34-16.11-3.54-32.48-3.54-48.98Z"/>
    <g>
      <g>
        <path class="cls-6" d="M531.85,228.01c-.4,0-.8.01-1.2.03.51-.03,1.03-.03,1.54-.02-.11,0-.23,0-.34,0Z"/>
        <path class="cls-8" d="M514.91,234.8c.77-.73,1.58-1.41,2.43-2.04-.85.62-1.66,1.3-2.43,2.04Z"/>
        <path class="cls-8" d="M676.57,713.74c-14.59-22.32-22.07-48.54-22.07-75.2V236.14c0-44.9-29.67-84.4-72.8-96.91h0c-34.75-10.08-70.39-16.64-106.38-19.61h0s-15.14-1.6-14.23-15.03c-.65.35-1.31.67-1.96.95-2.15.92-4.25,1.5-5.56,1.86-3.42.94-7.67,1.81-12.7,2.61-3.28.52-6.89,1.02-10.83,1.47-19.9,2.31-46.28,3.59-74.29,3.59-3.62,0-7.22-.02-10.78-.06-23.95-.28-46.19-1.51-63.51-3.52-3.94-.46-7.55-.95-10.83-1.47-5.03-.8-9.28-1.67-12.7-2.61-1.36-.37-3.55-.98-5.77-1.95,0,0,0,0,0,0,1.97,24.31-15.58,39.17-15.58,39.17h0c-10.92,4.38-21.59,9.25-31.98,14.59,25.88-.47,51.76-.96,77.64-1.49,19.32-.39,38.64-.79,57.96-1.18,9.09-.19,18.18-.39,27.28-.56,8.93-.16,18.31-.72,26.87,2.32,29.52,10.47,30.77,49.76,27.69,75.3-4.07,33.83-10.91,67.23-14.35,101.19-3.26,32.15-4.91,64.5-4.2,96.81,1.44,65.02,12.55,129.91,38.96,189.62,26.88,60.78,75.35,106.6,112.04,160.99,18.64,27.64,32.33,57.4,40.86,89.65,8.82,33.34,12.63,67.53,14.7,101.88,2.13,35.28,4.5,71.07,2.32,106.38-2.01,32.58-8.66,65.41-27.05,92.93-18.09,27.08-44.84,40.28-76.45,45.09-14.2,2.16-250.04,1.04-394.17.14-61.21-.38-110.79-49.8-111.38-111L0,764.02v491.81c0,50.25,40.74,90.98,90.98,90.98h172.34c28.28,0,54.95-13.15,72.17-35.58l.46-.59c6.14-6.86,14.92-10.79,24.13-10.79,9.78,0,19.03,4.42,25.18,12.03.91,1.13,1.88,2.33,2.89,3.63,14.83,19,37.52,30.2,61.62,30.2h162.18c50.25,0,90.98-40.73,90.98-90.98v-452.52c0-31.75-9.34-62.43-26.36-88.46ZM605.27,603.07v102.23l-59.8-82.92c-22.78-31.59-40.43-66.39-52.46-103.44-12.13-37.38-18.28-76.26-18.28-115.57v-151.46c0-16.1,6.42-30.91,18.09-41.68,10.65-9.83,24.51-15.25,39.03-15.25,17.22,0,33.33,7.81,44.2,21.44,18.85,23.63,29.23,53.29,29.23,83.51v303.13Z"/>
        <path class="cls-11" d="M611.95,1345.71h-162.18c-24.1,0-46.79-11.2-61.62-30.2-1.02-1.3-1.98-2.5-2.89-3.63-6.15-7.61-15.4-12.03-25.18-12.03-9.21,0-17.98,3.92-24.13,10.79l-.46.59c-17.22,22.43-43.89,35.58-72.17,35.58H90.98c-50.25,0-90.98-40.73-90.98-90.98v66.04c0,50.25,40.74,90.98,90.98,90.98h172.34c28.28,0,54.95-13.15,72.17-35.58l.46-.59c6.14-6.86,14.92-10.79,24.13-10.79,9.78,0,19.03,4.42,25.18,12.03.91,1.13,1.88,2.33,2.89,3.63,14.83,19,37.52,30.2,61.62,30.2h162.18c50.25,0,90.98-40.73,90.98-90.98v-66.04c0,50.25-40.73,90.98-90.98,90.98Z"/>
        <path class="cls-11" d="M531.85,194.99c-14.52,0-28.38,5.42-39.03,15.25-11.66,10.77-18.09,25.57-18.09,41.68v151.46c0,39.31,6.15,78.19,18.28,115.57,12.03,37.05,29.67,71.85,52.46,103.44l59.8,82.92v-405.36c0-30.22-10.38-59.88-29.23-83.51-10.86-13.62-26.98-21.44-44.2-21.44ZM572.26,603.07c-3.89-5.4-7.63-10.91-11.19-16.51-4.75-7.48-9.21-15.13-13.36-22.93-10.38-19.52-18.84-40.02-25.27-61.21-1.29-4.24-2.49-8.5-3.61-12.79s-2.16-8.61-3.11-12.95c-5.25-23.87-7.96-48.43-7.96-73.29v-151.46c0-.63.03-1.24.07-1.85.01-.14.02-.28.03-.42.05-.59.12-1.18.21-1.76.01-.06.02-.12.03-.18.09-.53.2-1.05.32-1.56.03-.12.06-.25.09-.37.14-.55.29-1.08.47-1.61.03-.09.06-.17.09-.26.16-.47.34-.92.52-1.37.04-.1.08-.2.13-.3.22-.5.45-.98.7-1.46.05-.1.1-.19.15-.28.23-.42.47-.84.72-1.24.04-.07.09-.14.13-.21.29-.45.59-.88.91-1.31.07-.09.14-.18.21-.27.3-.39.61-.78.94-1.15.03-.03.06-.07.09-.11.35-.4.72-.78,1.09-1.15.08-.08.17-.16.25-.24.77-.73,1.58-1.41,2.43-2.04.09-.07.19-.14.28-.2.43-.3.86-.59,1.3-.87.04-.03.09-.05.13-.08.41-.25.83-.49,1.26-.71.1-.05.2-.1.29-.15.46-.24.93-.46,1.4-.67.08-.03.16-.06.23-.1.43-.18.86-.35,1.29-.5.09-.03.19-.07.28-.1.49-.17.98-.32,1.47-.46.1-.03.2-.05.3-.08.45-.12.89-.22,1.35-.32.08-.02.16-.04.24-.05.51-.1,1.01-.18,1.52-.25.12-.02.23-.03.35-.04.48-.06.96-.1,1.44-.13.05,0,.1,0,.15-.01.4-.02.8-.03,1.2-.03.11,0,.23,0,.34,0,.14,0,.29,0,.43.01.44.01.87.04,1.31.08.1,0,.2.01.3.02.52.05,1.04.12,1.56.21.13.02.25.05.38.07.41.08.83.17,1.24.27.14.03.27.07.41.1.51.14,1.02.28,1.53.46.07.02.14.05.22.08.44.15.88.33,1.31.51.14.06.28.12.42.18.44.2.87.4,1.3.63.06.03.13.06.2.1.48.26.96.54,1.43.84.13.08.25.16.38.25.37.25.74.51,1.11.78.11.08.22.16.33.25.45.35.89.72,1.33,1.11.09.08.17.16.26.24.36.33.71.67,1.05,1.03.12.12.23.24.35.36.41.45.82.91,1.21,1.4,13.95,17.5,22.02,39.54,22.02,62.93v303.13Z"/>
        <path class="cls-10" d="M114.7,1218.27c144.13.9,379.97,2.02,394.17-.14,31.62-4.81,58.36-18,76.45-45.09,18.39-27.52,25.03-60.35,27.05-92.93,2.18-35.31-.19-71.1-2.32-106.38-2.07-34.34-5.88-68.54-14.7-101.88-8.53-32.25-22.21-62.01-40.86-89.65-36.69-54.39-85.16-100.21-112.04-160.99-26.41-59.71-37.52-124.6-38.96-189.62-.72-32.32.94-64.66,4.2-96.81,3.44-33.96,10.28-67.35,14.35-101.19,3.07-25.54,1.83-64.83-27.69-75.3-8.56-3.04-17.95-2.48-26.87-2.32-9.09.17-18.18.37-27.28.56-19.32.39-38.64.79-57.96,1.18-25.88.53-51.76,1.02-77.64,1.49C83.11,221.64,0,348.21,0,494.2v269.82l3.32,343.25c.59,61.21,50.17,110.62,111.38,111ZM41.02,504.44c0-97.73,18.4-178.51,91.92-250.31,39.67-38.74,86.5-65.11,138.53-66.29,1.79-.04,3.57-.08,5.36-.12,16.14-.37,32.29-.74,48.43-1.11.86-.02,1.71-.04,2.57-.06,8.32,1.72,16.54,4.11,24.38,7.6,9.52,4.23,19.12,10.68,24.47,20.84,7.43,14.11,4.46,31.76-5.63,42.98-9.9,11.03-23.36,16.01-36.32,20.64-6.82,2.44-15.47.91-22.63,3.5-54.18,3.74-105.29,20.54-144.18,63.95-62.27,69.5-80.92,134.69-80.92,255.79v253.98l2.71,315.48c-27.24-18.22-45.59-51.55-45.92-89.77l-2.78-323.1v-253.98Z"/>
        <path class="cls-9" d="M89.72,1171.29l-2.71-315.48v-253.98c0-121.09,18.65-186.29,80.92-255.79,38.9-43.41,90.01-60.21,144.18-63.95,7.16-2.58,15.81-1.06,22.63-3.5,12.96-4.63,26.42-9.61,36.32-20.64,10.08-11.23,13.06-28.87,5.63-42.98-5.35-10.16-14.95-16.61-24.47-20.84-7.84-3.49-16.07-5.87-24.38-7.6-.86.02-1.71.04-2.57.06-16.14.37-32.29.74-48.43,1.11-1.79.04-3.57.08-5.36.12-52.04,1.18-98.87,27.55-138.53,66.29-73.52,71.8-91.92,152.58-91.92,250.31v253.98l2.78,323.1c.33,38.22,18.68,71.55,45.92,89.77Z"/>
        <path class="cls-3" d="M467.15,32.5v-.86c0,.15-.01.29-.02.43,0,.14.02.28.02.43Z"/>
        <path class="cls-3" d="M244.36,31.63v.86c0-.15.01-.29.02-.43,0-.14-.02-.28-.02-.43Z"/>
        <path class="cls-16" d="M257.93,43.6c.4.11.81.22,1.22.32.12.03.25.06.38.1.31.08.61.15.93.23.14.03.28.07.42.1.33.08.67.15,1.01.23.12.03.24.05.37.08.44.1.88.19,1.33.28.03,0,.06.01.1.02,1.05.22,2.15.43,3.3.63.01,0,.03,0,.04,0,.55.1,1.12.2,1.69.3.04,0,.08.01.11.02.58.1,1.17.2,1.78.29,0,0,.01,0,.02,0,.82.13,1.65.26,2.51.38.01,0,.03,0,.04,0,.84.12,1.7.24,2.57.36.02,0,.05,0,.07.01.83.11,1.68.22,2.55.33.15.02.31.04.46.06.86.11,1.73.21,2.63.32,1.17.14,2.36.27,3.58.4.4.04.82.08,1.23.13.82.08,1.64.17,2.48.25.5.05,1,.09,1.5.14.77.07,1.55.14,2.33.21.54.05,1.09.09,1.63.14.77.06,1.55.13,2.33.19.57.05,1.14.09,1.71.13.79.06,1.58.12,2.38.18.58.04,1.16.08,1.75.13.84.06,1.7.11,2.55.17.55.04,1.1.07,1.66.11,1.36.08,2.74.17,4.13.24.56.03,1.14.06,1.7.09.88.05,1.76.09,2.65.14.71.03,1.43.07,2.15.1.76.03,1.52.07,2.28.1.76.03,1.53.06,2.3.09.73.03,1.47.06,2.21.09.8.03,1.6.06,2.4.08.72.02,1.44.05,2.16.07.82.03,1.65.05,2.48.07.72.02,1.44.04,2.16.06.85.02,1.69.04,2.54.06.7.02,1.4.03,2.1.04,2.35.05,4.71.09,7.09.12,1.76.02,3.54.04,5.32.05h.05c1.8.01,3.6.02,5.41.02,28.01,0,54.39-1.27,74.29-3.59,9.96-1.16,17.88-2.53,23.53-4.09,3.71-1.02,13.58-3.73,13.58-11.11,0-.15-.01-.29-.02-.43,0-.14.02-.28.02-.43,0-7.37-9.86-10.09-13.58-11.11-5.65-1.55-13.56-2.93-23.53-4.09-19.9-2.31-46.28-3.59-74.29-3.59s-54.39,1.28-74.29,3.59c-9.96,1.16-17.88,2.53-23.53,4.09-3.71,1.02-13.57,3.73-13.57,11.11,0,.15.01.29.02.43,0,.14-.02.28-.02.43,0,7.37,9.86,10.09,13.57,11.11Z"/>
        <path class="cls-17" d="M453.57,43.6c-5.65,1.55-13.56,2.93-23.53,4.09-19.9,2.31-46.28,3.59-74.29,3.59-1.81,0-3.62,0-5.41-.02h-.05c-1.78-.01-3.56-.03-5.32-.05v63.8c3.56.04,7.16.06,10.78.06,28.01,0,54.39-1.27,74.29-3.59,3.94-.46,7.55-.95,10.83-1.47,5.03-.8,9.28-1.67,12.7-2.61,1.32-.36,3.41-.94,5.56-1.86.66-.28,1.32-.6,1.96-.95,3.21-1.73,6.05-4.34,6.05-8.3v-63.8c0,7.37-9.86,10.09-13.58,11.11Z"/>
        <path class="cls-17" d="M257.93,107.4c3.42.94,7.67,1.81,12.7,2.61v-63.8s0,0-.01,0c-.6-.1-1.2-.19-1.78-.29-.04,0-.08-.01-.11-.02-.58-.1-1.14-.2-1.69-.3-.01,0-.03,0-.04,0-1.15-.21-2.25-.42-3.3-.63-.03,0-.06-.01-.1-.02-.45-.09-.9-.19-1.33-.28-.12-.03-.25-.05-.37-.08-.34-.08-.68-.15-1.01-.23-.14-.03-.28-.07-.42-.1-.32-.08-.63-.15-.93-.23-.13-.03-.26-.06-.38-.1-.42-.11-.83-.21-1.22-.32-3.71-1.02-13.57-3.73-13.57-11.11v63.8c0,4.67,3.95,7.47,7.79,9.15,0,0,0,0,0,0,2.22.97,4.41,1.58,5.77,1.95Z"/>
        <path class="cls-4" d="M337.88,51.1c-.7-.01-1.4-.03-2.1-.04-.85-.02-1.7-.04-2.54-.06-.72-.02-1.45-.04-2.16-.06-.83-.02-1.65-.05-2.48-.07-.72-.02-1.45-.05-2.16-.07-.8-.03-1.6-.06-2.4-.08-.74-.03-1.48-.06-2.21-.09-.77-.03-1.54-.06-2.3-.09-.77-.03-1.52-.07-2.28-.1-.72-.03-1.44-.07-2.15-.1-.89-.04-1.77-.09-2.65-.14-.57-.03-1.14-.06-1.7-.09-1.39-.08-2.77-.16-4.13-.24-.56-.03-1.1-.07-1.66-.11-.86-.06-1.71-.11-2.55-.17-.59-.04-1.17-.08-1.75-.13-.8-.06-1.59-.12-2.38-.18-.57-.04-1.14-.09-1.71-.13-.78-.06-1.56-.13-2.33-.19-.55-.05-1.09-.09-1.63-.14-.79-.07-1.56-.14-2.33-.21-.5-.05-1.01-.09-1.5-.14-.84-.08-1.66-.16-2.48-.25-.41-.04-.82-.08-1.23-.13-1.21-.13-2.41-.26-3.58-.4-.89-.1-1.77-.21-2.63-.32-.15-.02-.31-.04-.46-.06-.87-.11-1.72-.22-2.55-.33-.02,0-.05,0-.07-.01-.88-.12-1.73-.24-2.57-.36-.01,0-.02,0-.04,0-.86-.13-1.69-.25-2.51-.38,0,0,0,0,0,0v63.8c3.28.52,6.89,1.02,10.83,1.47,17.32,2.01,39.56,3.24,63.51,3.52v-63.8c-2.38-.03-4.74-.07-7.09-.12Z"/>
      </g>
      <path class="cls-8" d="M1304.06,220.46c-.4,0-.8.01-1.2.03.51-.03,1.03-.03,1.54-.02-.11,0-.23,0-.34,0Z"/>
      <path class="cls-8" d="M1287.12,227.25c.77-.73,1.58-1.41,2.43-2.04-.85.62-1.66,1.3-2.43,2.04Z"/>
      <path class="cls-8" d="M1448.78,706.19c-14.59-22.32-22.07-48.54-22.07-75.2V228.59c0-44.9-29.67-84.4-72.8-96.91h0c-34.75-10.08-70.39-16.64-106.38-19.61h0s-15.14-1.6-14.23-15.03c-.65.35-1.31.67-1.96.95-2.15.92-4.25,1.5-5.56,1.86-3.42.94-7.67,1.81-12.7,2.61-3.28.52-6.89,1.02-10.83,1.47-19.9,2.31-46.28,3.59-74.29,3.59-3.62,0-7.22-.02-10.78-.06-23.95-.28-46.19-1.51-63.51-3.52-3.94-.46-7.55-.95-10.83-1.47-5.03-.8-9.28-1.67-12.7-2.61-1.36-.37-3.55-.98-5.77-1.95,0,0,0,0,0,0,1.97,24.31-15.58,39.17-15.58,39.17h0c-10.92,4.38-21.59,9.25-31.98,14.59,25.88-.47,51.76-.96,77.64-1.49,19.32-.39,38.64-.79,57.96-1.18,9.09-.19,18.18-.39,27.28-.56,8.93-.16,18.31-.72,26.87,2.32,29.52,10.47,30.77,49.76,27.69,75.3-4.07,33.83-10.91,67.23-14.35,101.19-3.26,32.15-4.91,64.5-4.2,96.81,1.44,65.02,12.55,129.91,38.96,189.62,26.88,60.78,75.35,106.6,112.04,160.99,18.64,27.64,32.33,57.4,40.86,89.65,8.82,33.34,12.63,67.53,14.7,101.88,2.13,35.28,4.5,71.07,2.32,106.38-2.01,32.58-8.66,65.41-27.05,92.93-18.09,27.08-44.84,40.28-76.46,45.09-14.2,2.16-250.04,1.04-394.17.14-61.21-.38-110.79-49.8-111.38-111l-3.32-343.25v491.81c0,50.25,40.74,90.98,90.98,90.98h172.34c28.28,0,54.95-13.15,72.17-35.58l.46-.59c6.14-6.86,14.92-10.79,24.13-10.79,9.78,0,19.03,4.42,25.18,12.03.91,1.13,1.88,2.33,2.89,3.63,14.83,19,37.52,30.2,61.62,30.2h162.18c50.25,0,90.98-40.73,90.98-90.98v-452.52c0-31.75-9.34-62.43-26.36-88.46ZM1377.49,595.53v102.23l-59.8-82.92c-22.78-31.59-40.43-66.39-52.46-103.44-12.13-37.38-18.28-76.26-18.28-115.57v-151.46c0-16.1,6.42-30.91,18.09-41.68,10.65-9.83,24.51-15.25,39.03-15.25,17.22,0,33.33,7.81,44.2,21.44,18.85,23.63,29.23,53.29,29.23,83.51v303.13Z"/>
      <path class="cls-11" d="M1384.16,1338.16h-162.18c-24.1,0-46.79-11.2-61.62-30.2-1.02-1.3-1.98-2.5-2.89-3.63-6.15-7.61-15.4-12.03-25.18-12.03-9.21,0-17.98,3.92-24.13,10.79l-.46.59c-17.22,22.43-43.89,35.58-72.17,35.58h-172.34c-50.25,0-90.98-40.73-90.98-90.98v66.04c0,50.25,40.74,90.98,90.98,90.98h172.34c28.28,0,54.95-13.15,72.17-35.58l.46-.59c6.14-6.86,14.92-10.79,24.13-10.79,9.78,0,19.03,4.42,25.18,12.03.91,1.13,1.88,2.33,2.89,3.63,14.83,19,37.52,30.2,61.62,30.2h162.18c50.25,0,90.98-40.73,90.98-90.98v-66.04c0,50.25-40.73,90.98-90.98,90.98Z"/>
      <path class="cls-11" d="M1304.06,187.45c-14.52,0-28.38,5.42-39.03,15.25-11.66,10.77-18.09,25.57-18.09,41.68v151.46c0,39.31,6.15,78.19,18.28,115.57,12.03,37.05,29.67,71.85,52.46,103.44l59.8,82.92v-405.36c0-30.22-10.38-59.88-29.23-83.51-10.86-13.62-26.97-21.44-44.2-21.44ZM1344.47,595.53c-3.89-5.4-7.63-10.91-11.19-16.51-4.75-7.48-9.21-15.13-13.36-22.93-10.38-19.52-18.84-40.02-25.27-61.21-1.29-4.24-2.49-8.5-3.61-12.79s-2.16-8.61-3.11-12.95c-5.25-23.87-7.96-48.43-7.96-73.29v-151.46c0-.63.03-1.24.07-1.85.01-.14.02-.28.03-.42.05-.59.12-1.18.21-1.76.01-.06.02-.12.03-.18.09-.53.2-1.05.32-1.56.03-.12.06-.25.09-.37.14-.55.29-1.08.47-1.61.03-.09.06-.17.09-.26.16-.47.34-.92.52-1.37.04-.1.08-.2.13-.3.22-.5.45-.98.7-1.46.05-.1.1-.19.15-.28.23-.42.47-.84.72-1.24.04-.07.09-.14.13-.21.29-.45.59-.88.91-1.31.07-.09.14-.18.21-.27.3-.39.61-.78.94-1.15.03-.03.06-.07.09-.11.35-.4.72-.78,1.09-1.15.08-.08.17-.16.25-.24.77-.73,1.58-1.41,2.43-2.04.09-.07.19-.14.28-.2.43-.3.86-.59,1.3-.87.04-.03.09-.05.13-.08.41-.25.83-.49,1.26-.71.1-.05.2-.1.29-.15.46-.24.93-.46,1.4-.67.08-.03.16-.06.23-.1.43-.18.86-.35,1.29-.5.09-.03.19-.07.28-.1.49-.17.98-.32,1.47-.46.1-.03.2-.05.3-.08.45-.12.89-.22,1.35-.32.08-.02.16-.04.24-.05.51-.1,1.01-.18,1.52-.25.12-.02.23-.03.35-.04.48-.06.96-.1,1.44-.13.05,0,.1,0,.15-.01.4-.02.8-.03,1.2-.03.11,0,.23,0,.34,0,.14,0,.29,0,.43.01.44.01.87.04,1.31.08.1,0,.2.01.3.02.52.05,1.04.12,1.56.21.13.02.25.05.38.07.41.08.83.17,1.24.27.14.03.27.07.41.1.51.14,1.02.28,1.53.46.07.02.14.05.22.08.44.15.88.33,1.31.51.14.06.28.12.42.18.44.2.87.4,1.3.63.06.03.13.06.2.1.48.26.96.54,1.43.84.13.08.25.16.38.25.37.25.74.51,1.11.78.11.08.22.16.33.25.45.35.89.72,1.33,1.11.09.08.17.16.26.24.36.33.71.67,1.05,1.03.12.12.23.24.35.36.41.45.82.91,1.21,1.4,13.95,17.5,22.02,39.54,22.02,62.93v303.13Z"/>
      <path class="cls-10" d="M886.92,1210.73c144.13.9,379.97,2.02,394.17-.14,31.62-4.81,58.36-18,76.46-45.09,18.39-27.52,25.03-60.35,27.05-92.93,2.18-35.31-.19-71.1-2.32-106.38-2.07-34.34-5.88-68.54-14.7-101.88-8.53-32.25-22.21-62.01-40.86-89.65-36.69-54.39-85.16-100.21-112.04-160.99-26.41-59.71-37.52-124.6-38.96-189.62-.72-32.32.94-64.66,4.2-96.81,3.44-33.96,10.28-67.35,14.35-101.19,3.07-25.54,1.83-64.83-27.69-75.3-8.56-3.04-17.95-2.48-26.87-2.32-9.09.17-18.18.37-27.28.56-19.32.39-38.64.79-57.96,1.18-25.88.53-51.76,1.02-77.64,1.49-121.49,62.43-204.6,189-204.6,334.99v269.82l3.32,343.25c.59,61.21,50.17,110.62,111.38,111ZM813.24,496.89c0-97.73,18.4-178.51,91.92-250.31,39.67-38.74,86.5-65.11,138.53-66.29,1.79-.04,3.57-.08,5.36-.12,16.14-.37,32.29-.74,48.43-1.11.86-.02,1.71-.04,2.57-.06,8.32,1.72,16.54,4.11,24.38,7.6,9.52,4.23,19.12,10.68,24.47,20.84,7.43,14.11,4.46,31.76-5.63,42.98-9.9,11.03-23.36,16.01-36.32,20.64-6.82,2.44-15.47.91-22.63,3.5-54.18,3.74-105.29,20.54-144.18,63.95-62.27,69.5-80.92,134.69-80.92,255.79v253.98l2.71,315.48c-27.24-18.22-45.59-51.55-45.92-89.77l-2.78-323.1v-253.98Z"/>
      <path class="cls-9" d="M861.93,1163.74l-2.71-315.48v-253.98c0-121.09,18.65-186.29,80.92-255.79,38.9-43.41,90.01-60.21,144.18-63.95,7.16-2.58,15.81-1.06,22.63-3.5,12.96-4.63,26.42-9.61,36.32-20.64,10.08-11.23,13.06-28.87,5.63-42.98-5.35-10.16-14.95-16.61-24.47-20.84-7.84-3.49-16.07-5.87-24.38-7.6-.86.02-1.71.04-2.57.06-16.14.37-32.29.74-48.43,1.11-1.79.04-3.57.08-5.36.12-52.04,1.18-98.87,27.55-138.53,66.29-73.52,71.8-91.92,152.58-91.92,250.31v253.98l2.78,323.1c.33,38.22,18.68,71.55,45.92,89.77Z"/>
      <path class="cls-3" d="M1239.36,24.95v-.86c0,.15-.01.29-.02.43,0,.14.02.28.02.43Z"/>
      <path class="cls-3" d="M1016.57,24.09v.86c0-.15.01-.29.02-.43,0-.14-.02-.28-.02-.43Z"/>
      <path class="cls-13" d="M1030.15,36.06c.4.11.81.22,1.22.32.12.03.25.06.38.1.31.08.61.15.93.23.14.03.28.07.42.1.33.08.67.15,1.01.23.12.03.24.05.37.08.44.1.88.19,1.33.28.03,0,.06.01.1.02,1.05.22,2.15.43,3.3.63.01,0,.03,0,.04,0,.55.1,1.12.2,1.69.3.04,0,.08.01.11.02.58.1,1.17.2,1.78.29,0,0,.01,0,.02,0,.82.13,1.65.26,2.51.38.01,0,.03,0,.04,0,.84.12,1.7.24,2.57.36.02,0,.05,0,.07.01.83.11,1.68.22,2.55.33.15.02.31.04.46.06.86.11,1.73.21,2.63.32,1.17.14,2.36.27,3.58.4.4.04.82.08,1.23.13.82.08,1.64.17,2.48.25.5.05,1,.09,1.5.14.77.07,1.55.14,2.33.21.54.05,1.09.09,1.63.14.77.06,1.55.13,2.33.19.57.05,1.14.09,1.71.13.79.06,1.58.12,2.38.18.58.04,1.16.08,1.75.13.84.06,1.7.11,2.55.17.55.04,1.1.07,1.66.11,1.36.08,2.74.17,4.13.24.56.03,1.14.06,1.7.09.88.05,1.76.09,2.65.14.71.03,1.43.07,2.15.1.76.03,1.52.07,2.28.1.76.03,1.53.06,2.3.09.73.03,1.47.06,2.21.09.8.03,1.6.06,2.4.08.72.02,1.44.05,2.16.07.82.03,1.65.05,2.48.07.72.02,1.44.04,2.16.06.85.02,1.69.04,2.54.06.7.02,1.4.03,2.1.04,2.35.05,4.71.09,7.09.12,1.76.02,3.54.04,5.32.05h.05c1.8.01,3.6.02,5.41.02,28.01,0,54.39-1.27,74.29-3.59,9.96-1.16,17.88-2.53,23.53-4.09,3.71-1.02,13.58-3.73,13.58-11.11,0-.15-.01-.29-.02-.43,0-.14.02-.28.02-.43,0-7.37-9.86-10.09-13.58-11.11-5.65-1.55-13.56-2.93-23.53-4.09-19.9-2.31-46.28-3.59-74.29-3.59s-54.39,1.28-74.29,3.59c-9.96,1.16-17.88,2.53-23.53,4.09-3.71,1.02-13.57,3.73-13.57,11.11,0,.15.01.29.02.43,0,.14-.02.28-.02.43,0,7.37,9.86,10.09,13.57,11.11Z"/>
      <path class="cls-5" d="M1225.78,36.06c-5.65,1.55-13.56,2.93-23.53,4.09-19.9,2.31-46.28,3.59-74.29,3.59-1.81,0-3.62,0-5.41-.02h-.05c-1.78-.01-3.56-.03-5.32-.05v63.8c3.56.04,7.16.06,10.78.06,28.01,0,54.39-1.27,74.29-3.59,3.94-.46,7.55-.95,10.83-1.47,5.03-.8,9.28-1.67,12.7-2.61,1.32-.36,3.41-.94,5.56-1.86.66-.28,1.32-.6,1.96-.95,3.21-1.73,6.05-4.34,6.05-8.3V24.95c0,7.37-9.86,10.09-13.58,11.11Z"/>
      <path class="cls-5" d="M1030.15,99.86c3.42.94,7.67,1.81,12.7,2.61v-63.8s0,0-.01,0c-.6-.1-1.2-.19-1.78-.29-.04,0-.08-.01-.11-.02-.58-.1-1.14-.2-1.69-.3-.01,0-.03,0-.04,0-1.15-.21-2.25-.42-3.3-.63-.03,0-.06-.01-.1-.02-.45-.09-.9-.19-1.33-.28-.12-.03-.25-.05-.37-.08-.34-.08-.68-.15-1.01-.23-.14-.03-.28-.07-.42-.1-.32-.08-.63-.15-.93-.23-.13-.03-.26-.06-.38-.1-.42-.11-.83-.21-1.22-.32-3.71-1.02-13.57-3.73-13.57-11.11v63.8c0,4.67,3.95,7.47,7.79,9.15,0,0,0,0,0,0,2.22.97,4.41,1.58,5.77,1.95Z"/>
      <path class="cls-15" d="M1110.1,43.55c-.7-.01-1.41-.03-2.1-.04-.85-.02-1.7-.04-2.54-.06-.72-.02-1.45-.04-2.16-.06-.83-.02-1.65-.05-2.48-.07-.72-.02-1.45-.05-2.16-.07-.8-.03-1.6-.06-2.4-.08-.74-.03-1.48-.06-2.21-.09-.77-.03-1.54-.06-2.3-.09-.77-.03-1.52-.07-2.28-.1-.72-.03-1.44-.07-2.15-.1-.89-.04-1.77-.09-2.65-.14-.57-.03-1.14-.06-1.7-.09-1.39-.08-2.77-.16-4.13-.24-.56-.03-1.1-.07-1.66-.11-.86-.06-1.71-.11-2.55-.17-.59-.04-1.17-.08-1.75-.13-.8-.06-1.59-.12-2.38-.18-.57-.04-1.14-.09-1.71-.13-.78-.06-1.56-.13-2.33-.19-.55-.05-1.09-.09-1.63-.14-.79-.07-1.56-.14-2.33-.21-.5-.05-1.01-.09-1.5-.14-.84-.08-1.66-.16-2.48-.25-.41-.04-.82-.08-1.23-.13-1.21-.13-2.41-.26-3.58-.4-.89-.1-1.77-.21-2.63-.32-.15-.02-.31-.04-.46-.06-.87-.11-1.72-.22-2.55-.33-.02,0-.05,0-.07-.01-.88-.12-1.73-.24-2.57-.36-.01,0-.02,0-.04,0-.86-.13-1.69-.25-2.51-.38,0,0,0,0,0,0v63.8c3.28.52,6.89,1.02,10.83,1.47,17.32,2.01,39.57,3.24,63.51,3.52v-63.8c-2.38-.03-4.74-.07-7.09-.12Z"/>
    </g>
    <g>
      <path class="cls-8" d="M2076.27,215.16c-.4,0-.8.01-1.2.03.51-.03,1.03-.03,1.54-.02-.11,0-.23,0-.34,0Z"/>
      <path class="cls-8" d="M2059.34,221.95c.77-.73,1.58-1.41,2.43-2.04-.85.62-1.66,1.3-2.43,2.04Z"/>
      <path class="cls-8" d="M2220.99,700.89c-14.59-22.32-22.07-48.54-22.07-75.2V223.29c0-44.9-29.67-84.4-72.8-96.91h0c-34.75-10.08-70.39-16.64-106.38-19.61h0s-15.14-1.6-14.23-15.03c-.65.35-1.31.67-1.96.95-2.15.92-4.25,1.5-5.56,1.86-3.42.94-7.67,1.81-12.7,2.61-3.28.52-6.89,1.02-10.83,1.47-19.9,2.31-46.28,3.59-74.29,3.59-3.62,0-7.22-.02-10.78-.06-23.95-.28-46.19-1.51-63.51-3.52-3.94-.46-7.55-.95-10.83-1.47-5.03-.8-9.28-1.67-12.7-2.61-1.36-.37-3.55-.98-5.77-1.95,0,0,0,0,0,0,1.97,24.31-15.58,39.17-15.58,39.17h0c-10.92,4.38-21.59,9.25-31.98,14.59,25.88-.47,51.76-.96,77.64-1.49,19.32-.39,38.64-.79,57.96-1.18,9.09-.19,18.18-.39,27.28-.56,8.93-.16,18.31-.72,26.87,2.32,29.52,10.47,30.77,49.76,27.69,75.3-4.07,33.83-10.91,67.23-14.35,101.19-3.26,32.15-4.91,64.5-4.2,96.81,1.44,65.02,12.55,129.91,38.96,189.62,26.88,60.78,75.35,106.6,112.04,160.99,18.64,27.64,32.33,57.4,40.86,89.65,8.82,33.34,12.63,67.53,14.7,101.88,2.13,35.28,4.5,71.07,2.32,106.38-2.01,32.58-8.66,65.41-27.05,92.93-18.09,27.08-44.84,40.28-76.45,45.09-14.2,2.16-250.04,1.04-394.17.14-61.21-.38-110.79-49.8-111.38-111l-3.32-343.25v491.81c0,50.25,40.74,90.98,90.98,90.98h172.34c28.28,0,54.95-13.15,72.17-35.58l.46-.59c6.14-6.86,14.92-10.79,24.13-10.79,9.78,0,19.03,4.42,25.18,12.03.91,1.13,1.88,2.33,2.89,3.63,14.83,19,37.52,30.2,61.62,30.2h162.18c50.25,0,90.98-40.73,90.98-90.98v-452.52c0-31.75-9.34-62.43-26.36-88.46ZM2149.7,590.22v102.23l-59.8-82.92c-22.78-31.59-40.43-66.39-52.46-103.44-12.13-37.38-18.28-76.26-18.28-115.57v-151.46c0-16.1,6.42-30.91,18.09-41.68,10.65-9.83,24.51-15.25,39.03-15.25,17.22,0,33.33,7.81,44.2,21.44,18.85,23.63,29.23,53.29,29.23,83.51v303.13Z"/>
      <path class="cls-11" d="M2156.37,1332.86h-162.18c-24.1,0-46.79-11.2-61.62-30.2-1.02-1.3-1.98-2.5-2.89-3.63-6.15-7.61-15.4-12.03-25.18-12.03-9.21,0-17.98,3.92-24.13,10.79l-.46.59c-17.22,22.43-43.89,35.58-72.17,35.58h-172.34c-50.25,0-90.98-40.73-90.98-90.98v66.04c0,50.25,40.74,90.98,90.98,90.98h172.34c28.28,0,54.95-13.15,72.17-35.58l.46-.59c6.14-6.86,14.92-10.79,24.13-10.79,9.78,0,19.03,4.42,25.18,12.03.91,1.13,1.88,2.33,2.89,3.63,14.83,19,37.52,30.2,61.62,30.2h162.18c50.25,0,90.98-40.73,90.98-90.98v-66.04c0,50.25-40.73,90.98-90.98,90.98Z"/>
      <path class="cls-11" d="M2076.27,182.14c-14.52,0-28.38,5.42-39.03,15.25-11.66,10.77-18.09,25.57-18.09,41.68v151.46c0,39.31,6.15,78.19,18.28,115.57,12.03,37.05,29.67,71.85,52.46,103.44l59.8,82.92v-405.36c0-30.22-10.38-59.88-29.23-83.51-10.86-13.62-26.98-21.44-44.2-21.44ZM2116.68,590.22c-3.89-5.4-7.63-10.91-11.19-16.51-4.75-7.48-9.21-15.13-13.36-22.93-10.38-19.52-18.84-40.02-25.27-61.21-1.29-4.24-2.49-8.5-3.61-12.79s-2.16-8.61-3.11-12.95c-5.25-23.87-7.96-48.43-7.96-73.29v-151.46c0-.63.03-1.24.07-1.85.01-.14.02-.28.03-.42.05-.59.12-1.18.21-1.76.01-.06.02-.12.03-.18.09-.53.2-1.05.32-1.56.03-.12.06-.25.09-.37.14-.55.29-1.08.47-1.61.03-.09.06-.17.09-.26.16-.47.34-.92.52-1.37.04-.1.08-.2.13-.3.22-.5.45-.98.7-1.46.05-.1.1-.19.15-.28.23-.42.47-.84.72-1.24.04-.07.09-.14.13-.21.29-.45.59-.88.91-1.31.07-.09.14-.18.21-.27.3-.39.61-.78.94-1.15.03-.03.06-.07.09-.11.35-.4.72-.78,1.09-1.15.08-.08.17-.16.25-.24.77-.73,1.58-1.41,2.43-2.04.09-.07.19-.14.28-.2.43-.3.86-.59,1.3-.87.04-.03.09-.05.13-.08.41-.25.83-.49,1.26-.71.1-.05.2-.1.29-.15.46-.24.93-.46,1.4-.67.08-.03.16-.06.23-.1.43-.18.86-.35,1.29-.5.09-.03.19-.07.28-.1.49-.17.98-.32,1.47-.46.1-.03.2-.05.3-.08.45-.12.89-.22,1.35-.32.08-.02.16-.04.24-.05.51-.1,1.01-.18,1.52-.25.12-.02.23-.03.35-.04.48-.06.96-.1,1.44-.13.05,0,.1,0,.15-.01.4-.02.8-.03,1.2-.03.11,0,.23,0,.34,0,.14,0,.29,0,.43.01.44.01.87.04,1.31.08.1,0,.2.01.3.02.52.05,1.04.12,1.56.21.13.02.25.05.38.07.41.08.83.17,1.24.27.14.03.27.07.41.1.51.14,1.02.28,1.53.46.07.02.14.05.22.08.44.15.88.33,1.31.51.14.06.28.12.42.18.44.2.87.4,1.3.63.06.03.13.06.2.1.48.26.96.54,1.43.84.13.08.25.16.38.25.37.25.74.51,1.11.78.11.08.22.16.33.25.45.35.89.72,1.33,1.11.09.08.17.16.26.24.36.33.71.67,1.05,1.03.12.12.23.24.35.36.41.45.82.91,1.21,1.4,13.95,17.5,22.02,39.54,22.02,62.93v303.13Z"/>
      <path class="cls-10" d="M1659.13,1205.42c144.13.9,379.97,2.02,394.17-.14,31.62-4.81,58.36-18,76.45-45.09,18.39-27.52,25.03-60.35,27.05-92.93,2.18-35.31-.19-71.1-2.32-106.38-2.07-34.34-5.88-68.54-14.7-101.88-8.53-32.25-22.21-62.01-40.86-89.65-36.69-54.39-85.16-100.21-112.04-160.99-26.41-59.71-37.52-124.6-38.96-189.62-.72-32.32.94-64.66,4.2-96.81,3.44-33.96,10.28-67.35,14.35-101.19,3.07-25.54,1.83-64.83-27.69-75.3-8.56-3.04-17.95-2.48-26.87-2.32-9.09.17-18.18.37-27.28.56-19.32.39-38.64.79-57.96,1.18-25.88.53-51.76,1.02-77.64,1.49-121.49,62.43-204.6,189-204.6,334.99v269.82l3.32,343.25c.59,61.21,50.17,110.62,111.38,111ZM1585.45,491.59c0-97.73,18.4-178.51,91.92-250.31,39.67-38.74,86.5-65.11,138.53-66.29,1.79-.04,3.57-.08,5.36-.12,16.14-.37,32.29-.74,48.43-1.11.86-.02,1.71-.04,2.57-.06,8.32,1.72,16.54,4.11,24.38,7.6,9.52,4.23,19.12,10.68,24.47,20.84,7.43,14.11,4.46,31.76-5.63,42.98-9.9,11.03-23.36,16.01-36.32,20.64-6.82,2.44-15.47.91-22.63,3.5-54.18,3.74-105.29,20.54-144.18,63.95-62.27,69.5-80.92,134.69-80.92,255.79v253.98l2.71,315.48c-27.24-18.22-45.59-51.55-45.92-89.77l-2.78-323.1v-253.98Z"/>
      <path class="cls-9" d="M1634.14,1158.44l-2.71-315.48v-253.98c0-121.09,18.65-186.29,80.92-255.79,38.9-43.41,90.01-60.21,144.18-63.95,7.16-2.58,15.81-1.06,22.63-3.5,12.96-4.63,26.42-9.61,36.32-20.64,10.08-11.23,13.06-28.87,5.63-42.98-5.35-10.16-14.95-16.61-24.47-20.84-7.84-3.49-16.07-5.87-24.38-7.6-.86.02-1.71.04-2.57.06-16.14.37-32.29.74-48.43,1.11-1.79.04-3.57.08-5.36.12-52.04,1.18-98.87,27.55-138.53,66.29-73.52,71.8-91.92,152.58-91.92,250.31v253.98l2.78,323.1c.33,38.22,18.68,71.55,45.92,89.77Z"/>
      <path class="cls-3" d="M2011.57,19.65v-.86c0,.15-.01.29-.02.43,0,.14.02.28.02.43Z"/>
      <path class="cls-3" d="M1788.78,18.78v.86c0-.15.01-.29.02-.43,0-.14-.02-.28-.02-.43Z"/>
      <path class="cls-1" d="M1802.36,30.75c.4.11.81.22,1.22.32.12.03.25.06.38.1.31.08.61.15.93.23.14.03.28.07.42.1.33.08.67.15,1.01.23.12.03.24.05.37.08.44.1.88.19,1.33.28.03,0,.06.01.1.02,1.05.22,2.15.43,3.3.63.01,0,.03,0,.04,0,.55.1,1.12.2,1.69.3.04,0,.08.01.11.02.58.1,1.17.2,1.78.29,0,0,.01,0,.02,0,.82.13,1.65.26,2.51.38.01,0,.03,0,.04,0,.84.12,1.7.24,2.57.36.02,0,.05,0,.07.01.83.11,1.68.22,2.55.33.15.02.31.04.46.06.86.11,1.73.21,2.63.32,1.17.14,2.36.27,3.58.4.4.04.82.08,1.23.13.82.08,1.64.17,2.48.25.5.05,1,.09,1.5.14.77.07,1.55.14,2.33.21.54.05,1.09.09,1.63.14.77.06,1.55.13,2.33.19.57.05,1.14.09,1.71.13.79.06,1.58.12,2.38.18.58.04,1.16.08,1.75.13.84.06,1.7.11,2.55.17.55.04,1.1.07,1.66.11,1.36.08,2.74.17,4.13.24.56.03,1.14.06,1.7.09.88.05,1.76.09,2.65.14.71.03,1.43.07,2.15.1.76.03,1.52.07,2.28.1.76.03,1.53.06,2.3.09.73.03,1.47.06,2.21.09.8.03,1.6.06,2.4.08.72.02,1.44.05,2.16.07.82.03,1.65.05,2.48.07.72.02,1.44.04,2.16.06.85.02,1.69.04,2.54.06.7.02,1.4.03,2.1.04,2.35.05,4.71.09,7.09.12,1.76.02,3.54.04,5.32.05h.05c1.8.01,3.6.02,5.41.02,28.01,0,54.39-1.27,74.29-3.59,9.96-1.16,17.88-2.53,23.53-4.09,3.71-1.02,13.58-3.73,13.58-11.11,0-.15-.01-.29-.02-.43,0-.14.02-.28.02-.43,0-7.37-9.86-10.09-13.58-11.11-5.65-1.55-13.56-2.93-23.53-4.09-19.9-2.31-46.28-3.59-74.29-3.59s-54.39,1.28-74.29,3.59c-9.96,1.16-17.88,2.53-23.53,4.09-3.71,1.02-13.57,3.73-13.57,11.11,0,.15.01.29.02.43,0,.14-.02.28-.02.43,0,7.37,9.86,10.09,13.57,11.11Z"/>
      <path class="cls-14" d="M1998,30.75c-5.65,1.55-13.56,2.93-23.53,4.09-19.9,2.31-46.28,3.59-74.29,3.59-1.81,0-3.62,0-5.41-.02h-.05c-1.78-.01-3.56-.03-5.32-.05v63.8c3.56.04,7.16.06,10.78.06,28.01,0,54.39-1.27,74.29-3.59,3.94-.46,7.55-.95,10.83-1.47,5.03-.8,9.28-1.67,12.7-2.61,1.32-.36,3.41-.94,5.56-1.86.66-.28,1.32-.6,1.96-.95,3.21-1.73,6.05-4.34,6.05-8.3V19.65c0,7.37-9.86,10.09-13.58,11.11Z"/>
      <path class="cls-14" d="M1802.36,94.55c3.42.94,7.67,1.81,12.7,2.61v-63.8s0,0-.01,0c-.6-.1-1.2-.19-1.78-.29-.04,0-.08-.01-.11-.02-.58-.1-1.14-.2-1.69-.3-.01,0-.03,0-.04,0-1.15-.21-2.25-.42-3.3-.63-.03,0-.06-.01-.1-.02-.45-.09-.9-.19-1.33-.28-.12-.03-.25-.05-.37-.08-.34-.08-.68-.15-1.01-.23-.14-.03-.28-.07-.42-.1-.32-.08-.63-.15-.93-.23-.13-.03-.26-.06-.38-.1-.42-.11-.83-.21-1.22-.32-3.71-1.02-13.57-3.73-13.57-11.11v63.8c0,4.67,3.95,7.47,7.79,9.15,0,0,0,0,0,0,2.22.97,4.41,1.58,5.77,1.95Z"/>
      <path class="cls-7" d="M1882.31,38.25c-.7-.01-1.41-.03-2.1-.04-.85-.02-1.7-.04-2.54-.06-.72-.02-1.45-.04-2.16-.06-.83-.02-1.65-.05-2.48-.07-.72-.02-1.45-.05-2.16-.07-.8-.03-1.6-.06-2.4-.08-.74-.03-1.48-.06-2.21-.09-.77-.03-1.54-.06-2.3-.09-.77-.03-1.52-.07-2.28-.1-.72-.03-1.44-.07-2.15-.1-.89-.04-1.77-.09-2.65-.14-.57-.03-1.14-.06-1.7-.09-1.39-.08-2.77-.16-4.13-.24-.56-.03-1.1-.07-1.66-.11-.86-.06-1.71-.11-2.55-.17-.59-.04-1.17-.08-1.75-.13-.8-.06-1.59-.12-2.38-.18-.57-.04-1.14-.09-1.71-.13-.78-.06-1.56-.13-2.33-.19-.55-.05-1.09-.09-1.63-.14-.79-.07-1.56-.14-2.33-.21-.5-.05-1.01-.09-1.5-.14-.84-.08-1.66-.16-2.48-.25-.41-.04-.82-.08-1.23-.13-1.21-.13-2.41-.26-3.58-.4-.89-.1-1.77-.21-2.63-.32-.15-.02-.31-.04-.46-.06-.87-.11-1.72-.22-2.55-.33-.02,0-.05,0-.07-.01-.88-.12-1.73-.24-2.57-.36-.01,0-.02,0-.04,0-.86-.13-1.69-.25-2.51-.38,0,0,0,0,0,0v63.8c3.28.52,6.89,1.02,10.83,1.47,17.32,2.01,39.57,3.24,63.51,3.52v-63.8c-2.38-.03-4.74-.07-7.09-.12Z"/>
    </g>
  </g>
</svg>