<?xml version="1.0" standalone="no"?>
<!DOCTYPE svg PUBLIC "-//W3C//DTD SVG 1.1//EN" "http://www.w3.org/Graphics/SVG/1.1/DTD/svg11.dtd" >
<svg xmlns="http://www.w3.org/2000/svg" xmlns:xlink="http://www.w3.org/1999/xlink" version="1.1">
<metadata>
Created by FontForge 20201107 at Mon Dec 26 08:58:13 2022
 By Unknown
Copyright (c) 2018-2021 by TypeType. All rights reserved.
</metadata>
<defs>
<font id="TTCommonsPro-Db" horiz-adv-x="0" >
  <font-face 
    font-family="TT Commons Pro DemiBold"
    font-weight="600"
    font-stretch="normal"
    units-per-em="1000"
    panose-1="2 11 1 3 3 1 2 2 2 4"
    ascent="800"
    descent="-200"
    x-height="506"
    cap-height="700"
    bbox="-489 -382 1438 1089"
    underline-thickness="63"
    underline-position="-249"
    unicode-range="U+0020-FB06"
  />
<missing-glyph horiz-adv-x="900" 
d="M100 284h45v-139h33v139h50v31h-128v126l19 -61h23l34 106l33 -106h23l54 170h-32l-34 -110l-35 110h-19l-35 -110l-31 103v157h700v-150h-110v-170h110v-91q-6 13 -19.5 20t-30.5 7q-27 0 -43.5 -14.5t-16.5 -34.5q0 -22 14.5 -32.5t39.5 -17.5q17 -5 25.5 -9.5
t8.5 -13.5q0 -21 -28 -21q-14 0 -21 7t-7 18h-33q0 -24 17 -39.5t44 -15.5q17 0 30.5 6.5t19.5 13.5v-163h-700v284zM344 380v62h24l35 -62h37l-40 67q36 17 36 50q0 22 -16 37.5t-41 15.5h-68v-170h33zM469 380h33v170h-33v-170zM580 380h32v139h50v31h-132v-31h50v-139z
M379 519q10 0 17 -6.5t7 -16.5q0 -12 -7.5 -17.5t-16.5 -5.5h-35v46h35zM722 483v36h78v-36h-78zM722 411v41h78v-41h-78zM387.5 167.5q22.5 24.5 22.5 61.5t-23 62t-59 25t-59 -25t-23 -62t22.5 -61.5t59.5 -24.5t59.5 24.5zM549 315h-32v-106q0 -28 19.5 -47t48.5 -19
t48 19t19 47v106h-32v-106q0 -15 -9.5 -25t-25.5 -10q-17 0 -26.5 10.5t-9.5 24.5v106zM800 224q-15 14 -46 22q-16 5 -23 9t-7 12q0 9 7.5 14.5t18.5 5.5q10 0 18 -7t8 -18h24v-38zM291.5 190q-14.5 16 -14.5 39q0 25 14 40.5t37 15.5q24 0 37.5 -15.5t13.5 -40.5
q0 -23 -14.5 -39t-36.5 -16t-36.5 16z" />
    <glyph glyph-name="f_f_i.liga" unicode="ffi" horiz-adv-x="837" 
d="M487 506h291v-506h-110v411h-177v-411h-110v411h-178v-411h-109v411h-69v95h69v11q0 81 44.5 128t114.5 47q34 0 60 -10v-93q-15 6 -37 6q-36 0 -56 -20.5t-20 -61.5v-7h181v3q0 97 60.5 152t171.5 55q62 0 110 -20v-93q-44 16 -103 16q-64 0 -98.5 -29t-34.5 -82v-2z
" />
    <glyph glyph-name="f_f_j.liga" unicode="ffj" horiz-adv-x="837" 
d="M487 506h291v-515q0 -82 -44 -129t-115 -47q-32 0 -60 10v100q15 -7 35 -7q35 0 54.5 20.5t19.5 60.5v412h-177v-411h-110v411h-178v-411h-109v411h-69v95h69v11q0 81 44.5 128t114.5 47q34 0 60 -10v-93q-15 6 -37 6q-36 0 -56 -20.5t-20 -61.5v-7h181v3q0 97 60.5 152
t171.5 55q62 0 110 -20v-93q-44 16 -103 16q-64 0 -98.5 -29t-34.5 -82v-2z" />
    <glyph glyph-name="f_f_l.liga" unicode="ffl" horiz-adv-x="847" 
d="M778 688v-688h-110v614q-32 5 -56 5q-59 0 -92 -29.5t-33 -81.5v-2h110v-95h-106v-411h-110v411h-178v-411h-109v411h-69v95h69v11q0 81 44.5 128t114.5 47q34 0 60 -10v-93q-15 6 -37 6q-36 0 -56 -20.5t-20 -61.5v-7h181v4q0 97 60 151.5t168 54.5q96 0 169 -28z" />
    <glyph glyph-name="f_f.liga" unicode="ff" horiz-adv-x="613" 
d="M507 594.5q-20 -20.5 -20 -61.5v-27h113v-95h-109v-411h-110v411h-178v-411h-109v411h-69v95h69v11q0 81 44.5 128t114.5 47q34 0 60 -10v-93q-15 6 -37 6q-36 0 -56 -20.5t-20 -61.5v-7h181v31q0 81 44.5 128t114.5 47q34 0 60 -10v-93q-15 6 -37 6q-36 0 -56 -20.5z
" />
    <glyph glyph-name="fi.liga" unicode="fi" horiz-adv-x="549" 
d="M200 506h291v-506h-110v411h-178v-411h-109v411h-69v95h69v3q0 97 60.5 152t171.5 55q61 0 110 -20v-93q-44 16 -104 16q-63 0 -97.5 -29t-34.5 -82v-2z" />
    <glyph glyph-name="f_j.liga" unicode="fj" horiz-adv-x="549" 
d="M200 506h291v-515q0 -82 -44 -129t-115 -47q-31 0 -61 10v100q17 -7 36 -7q35 0 54.5 20.5t19.5 60.5v412h-178v-411h-109v411h-69v95h69v3q0 97 60.5 152t171.5 55q61 0 110 -20v-93q-44 16 -104 16q-63 0 -97.5 -29t-34.5 -82v-2z" />
    <glyph glyph-name="fl.liga" unicode="fl" horiz-adv-x="559" 
d="M491 688v-688h-110v614q-32 5 -56 5q-59 0 -92 -29.5t-33 -81.5v-2h110v-95h-107v-411h-109v411h-69v95h69v4q0 97 60 151.5t168 54.5q96 0 169 -28z" />
    <glyph glyph-name=".notdef" horiz-adv-x="900" 
d="M100 284h45v-139h33v139h50v31h-128v126l19 -61h23l34 106l33 -106h23l54 170h-32l-34 -110l-35 110h-19l-35 -110l-31 103v157h700v-150h-110v-170h110v-91q-6 13 -19.5 20t-30.5 7q-27 0 -43.5 -14.5t-16.5 -34.5q0 -22 14.5 -32.5t39.5 -17.5q17 -5 25.5 -9.5
t8.5 -13.5q0 -21 -28 -21q-14 0 -21 7t-7 18h-33q0 -24 17 -39.5t44 -15.5q17 0 30.5 6.5t19.5 13.5v-163h-700v284zM344 380v62h24l35 -62h37l-40 67q36 17 36 50q0 22 -16 37.5t-41 15.5h-68v-170h33zM469 380h33v170h-33v-170zM580 380h32v139h50v31h-132v-31h50v-139z
M379 519q10 0 17 -6.5t7 -16.5q0 -12 -7.5 -17.5t-16.5 -5.5h-35v46h35zM722 483v36h78v-36h-78zM722 411v41h78v-41h-78zM387.5 167.5q22.5 24.5 22.5 61.5t-23 62t-59 25t-59 -25t-23 -62t22.5 -61.5t59.5 -24.5t59.5 24.5zM549 315h-32v-106q0 -28 19.5 -47t48.5 -19
t48 19t19 47v106h-32v-106q0 -15 -9.5 -25t-25.5 -10q-17 0 -26.5 10.5t-9.5 24.5v106zM800 224q-15 14 -46 22q-16 5 -23 9t-7 12q0 9 7.5 14.5t18.5 5.5q10 0 18 -7t8 -18h24v-38zM291.5 190q-14.5 16 -14.5 39q0 25 14 40.5t37 15.5q24 0 37.5 -15.5t13.5 -40.5
q0 -23 -14.5 -39t-36.5 -16t-36.5 16z" />
    <glyph glyph-name=".null" 
 />
    <glyph glyph-name="nonmarkingreturn" 
 />
    <glyph glyph-name="space" unicode=" " horiz-adv-x="247" 
 />
    <glyph glyph-name="uni00A0" unicode="&#xa0;" horiz-adv-x="247" 
 />
    <glyph glyph-name="periodcentered" unicode="&#xb7;" horiz-adv-x="247" 
d="M73 218.5q-20 20.5 -20 49.5t20 49t50 20t50 -20t20 -49t-20 -49.5t-50 -20.5t-50 20.5z" />
    <glyph glyph-name="period" unicode="." horiz-adv-x="212" 
d="M56 8.5q-20 20.5 -20 49.5t20 49t50 20t50 -20t20 -49t-20 -49.5t-50 -20.5t-50 20.5z" />
    <glyph glyph-name="ellipsis" unicode="&#x2026;" horiz-adv-x="694" 
d="M56 8.5q-20 20.5 -20 49.5t20 49t50 20t50 -20t20 -49t-20 -49.5t-50 -20.5t-50 20.5zM297 8.5q-20 20.5 -20 49.5t20 49t50 20t50 -20t20 -49t-20 -49.5t-50 -20.5t-50 20.5zM538 8.5q-20 20.5 -20 49.5t20 49t50 20t50 -20t20 -49t-20 -49.5t-50 -20.5t-50 20.5z" />
    <glyph glyph-name="comma" unicode="," horiz-adv-x="212" 
d="M156 105.5q20 -21.5 20 -56.5q0 -62 -32.5 -112.5t-69.5 -80.5l-22 28q17 22 30 46.5t18 57.5q-28 2 -46 22t-18 48q0 29 20 49t49 20q31 0 51 -21.5z" />
    <glyph glyph-name="colon" unicode=":" horiz-adv-x="212" 
d="M56 387.5q-20 20.5 -20 49.5t20 49t50 20t50 -20t20 -49t-20 -49.5t-50 -20.5t-50 20.5zM56 8.5q-20 20.5 -20 49.5t20 49t50 20t50 -20t20 -49t-20 -49.5t-50 -20.5t-50 20.5z" />
    <glyph glyph-name="semicolon" unicode=";" horiz-adv-x="212" 
d="M56 387.5q-20 20.5 -20 49.5t20 49t50 20t50 -20t20 -49t-20 -49.5t-50 -20.5t-50 20.5zM156 105.5q20 -21.5 20 -56.5q0 -62 -32.5 -112.5t-69.5 -80.5l-22 28q17 22 30 46.5t18 57.5q-28 2 -46 22t-18 48q0 29 20 49t49 20q31 0 51 -21.5z" />
    <glyph glyph-name="exclam" unicode="!" horiz-adv-x="293" 
d="M193 193h-93l-17 507h127zM97 8.5q-20 20.5 -20 49.5t20 49t50 20q29 0 49 -20t20 -49t-20 -49.5t-49 -20.5q-30 0 -50 20.5z" />
    <glyph glyph-name="exclamdown" unicode="&#xa1;" horiz-adv-x="293" 
d="M97 387.5q-20 20.5 -20 49.5t20 49t50 20q29 0 49 -20t20 -49t-20 -49.5t-49 -20.5q-30 0 -50 20.5zM210 -180h-127l17 481h93z" />
    <glyph glyph-name="question" unicode="?" horiz-adv-x="498" 
d="M186 203q0 51 13.5 87t32 59t48.5 51q33 32 48 54.5t15 55.5q0 44 -25.5 69.5t-69.5 25.5q-47 0 -76 -33t-29 -83v-9h-114v9q0 61 28 112t77.5 81t113.5 30q63 0 111 -25t74 -69t26 -100q0 -57 -21.5 -91.5t-63.5 -73.5q-39 -37 -59 -69t-20 -81v-10h-109v10zM191 8.5
q-20 20.5 -20 49.5t20 49t50 20t49.5 -20t19.5 -49t-20 -49.5t-49 -20.5q-30 0 -50 20.5z" />
    <glyph glyph-name="uni203D" unicode="&#x203d;" horiz-adv-x="498" 
d="M359 687q48 -25 74 -69t26 -100q0 -57 -21.5 -91.5t-63.5 -73.5q-39 -37 -59 -69t-20 -81v-10h-95l-13 402q-25 -15 -38.5 -42.5t-13.5 -63.5v-9h-106v9q0 61 28 112t77.5 81t113.5 30q63 0 111 -25zM268 377l17 17q32 31 48 56t16 63q0 37 -19 62.5t-54 32.5zM294 107
q20 -20 20 -49t-20 -49.5t-50 -20.5q-29 0 -49 20.5t-20 49.5t20 49t49 20q30 0 50 -20z" />
    <glyph glyph-name="questiondown" unicode="&#xbf;" horiz-adv-x="498" 
d="M208 387.5q-20 20.5 -20 49.5t20 49t50 20q29 0 49 -20t20 -49t-20 -49.5t-49 -20.5q-30 0 -50 20.5zM139 -160.5q-48 24.5 -74 67t-26 94.5q0 55 22.5 89t65.5 72q39 35 57.5 61.5t18.5 67.5v10h110v-10q0 -43 -13 -74.5t-31 -52.5t-48 -48q-34 -31 -50 -53.5t-16 -53.5
q0 -38 26.5 -62.5t68.5 -24.5q46 0 75.5 32.5t29.5 79.5v9h114v-9q0 -59 -28 -109.5t-78 -80t-113 -29.5t-111 24.5z" />
    <glyph glyph-name="uni2E18" unicode="&#x2e18;" horiz-adv-x="498" 
d="M204 387.5q-20 20.5 -20 49.5t20 49t50 20t49.5 -20t19.5 -49q0 -30 -19.5 -50t-49.5 -20t-50 20.5zM364 43h105v-9q0 -59 -28 -109.5t-78 -80t-113 -29.5t-111 24.5t-74 66.5t-26 93q0 39 12 68t29.5 48.5t46.5 46.5q39 35 57.5 61.5t18.5 67.5v10h96l12 -370
q25 15 39 42t14 62v8zM167.5 -50q19.5 -24 54.5 -31l8 214l-17 -16q-32 -29 -48.5 -53t-16.5 -57t19.5 -57z" />
    <glyph glyph-name="asterisk" unicode="*" horiz-adv-x="380" 
d="M330 619l24 -73l-114 -29l80 -96l-62 -44l-68 104l-68 -104l-62 44l80 96l-114 29l24 73l108 -43l-6 124h76l-6 -124z" />
    <glyph glyph-name="quotesingle" unicode="'" horiz-adv-x="191" 
d="M144 471h-96v229h96v-229z" />
    <glyph glyph-name="quotedbl" unicode="&#x22;" horiz-adv-x="361" 
d="M144 471h-96v229h96v-229zM314 471h-96v229h96v-229z" />
    <glyph glyph-name="quotesinglbase" unicode="&#x201a;" horiz-adv-x="212" 
d="M156 105.5q20 -21.5 20 -56.5q0 -62 -32.5 -112.5t-69.5 -80.5l-22 28q17 22 30 46.5t18 57.5q-28 2 -46 22t-18 48q0 29 20 49t49 20q31 0 51 -21.5z" />
    <glyph glyph-name="quotedblbase" unicode="&#x201e;" horiz-adv-x="390" 
d="M156 105.5q20 -21.5 20 -56.5q0 -62 -32.5 -112.5t-69.5 -80.5l-22 28q17 22 30 46.5t18 57.5q-28 2 -46 22t-18 48q0 29 20 49t49 20q31 0 51 -21.5zM334 105.5q20 -21.5 20 -56.5q0 -62 -32.5 -112.5t-69.5 -80.5l-22 28q17 22 30 46.5t18 57.5q-28 2 -46 22t-18 48
q0 29 20 49t49 20q31 0 51 -21.5z" />
    <glyph glyph-name="quoteleft" unicode="&#x2018;" horiz-adv-x="212" 
d="M158 557.5q18 -19.5 18 -47.5q0 -29 -20 -49.5t-49 -20.5q-31 0 -51 21.5t-20 56.5q0 63 33 113.5t70 80.5l21 -29q-41 -49 -48 -104q28 -2 46 -21.5z" />
    <glyph glyph-name="quoteright" unicode="&#x2019;" horiz-adv-x="212" 
d="M156 690.5q20 -21.5 20 -56.5q0 -63 -32.5 -113.5t-69.5 -80.5l-22 29q40 48 48 104q-28 2 -46 21.5t-18 47.5q0 29 20 49.5t49 20.5q31 0 51 -21.5z" />
    <glyph glyph-name="quotedblleft" unicode="&#x201c;" horiz-adv-x="390" 
d="M158 557.5q18 -19.5 18 -47.5q0 -29 -20 -49.5t-49 -20.5q-31 0 -51 21.5t-20 56.5q0 63 33 113.5t70 80.5l21 -29q-41 -49 -48 -104q28 -2 46 -21.5zM336 556.5q18 -19.5 18 -47.5q0 -29 -20 -49.5t-49 -20.5q-31 0 -51 21.5t-20 56.5q0 63 33 113.5t70 80.5l21 -29
q-41 -49 -48 -104q28 -2 46 -21.5z" />
    <glyph glyph-name="quotedblright" unicode="&#x201d;" horiz-adv-x="390" 
d="M156 690.5q20 -21.5 20 -56.5q0 -63 -32.5 -113.5t-69.5 -80.5l-22 29q40 48 48 104q-28 2 -46 21.5t-18 47.5q0 29 20 49.5t49 20.5q31 0 51 -21.5zM334 690.5q20 -21.5 20 -56.5q0 -63 -32.5 -113.5t-69.5 -80.5l-22 29q40 48 48 104q-28 2 -46 21.5t-18 47.5
q0 29 20 49.5t49 20.5q31 0 51 -21.5z" />
    <glyph glyph-name="guilsinglleft" unicode="&#x2039;" horiz-adv-x="303" 
d="M267 80h-109l-121 185l121 185h109l-124 -185z" />
    <glyph glyph-name="guilsinglright" unicode="&#x203a;" horiz-adv-x="303" 
d="M145 80h-108l123 185l-123 185h108l122 -185z" />
    <glyph glyph-name="guillemotleft" unicode="&#xab;" horiz-adv-x="501" 
d="M267 80h-109l-121 185l121 185h109l-124 -185zM464 80h-108l-121 185l121 185h108l-123 -185z" />
    <glyph glyph-name="guillemotright" unicode="&#xbb;" horiz-adv-x="501" 
d="M145 80h-108l123 185l-123 185h108l122 -185zM343 80h-108l123 185l-123 185h108l121 -185z" />
    <glyph glyph-name="bullet" unicode="&#x2022;" horiz-adv-x="406" 
d="M129 194q-30 30 -30 74t30 74t74 30t74 -30t30 -74t-30 -74t-74 -30t-74 30z" />
    <glyph glyph-name="hyphen" unicode="-" horiz-adv-x="409" 
d="M368 219h-327v99h327v-99z" />
    <glyph glyph-name="uni00AD" unicode="&#xad;" horiz-adv-x="409" 
d="M368 219h-327v99h327v-99z" />
    <glyph glyph-name="endash" unicode="&#x2013;" horiz-adv-x="539" 
d="M498 221h-457v95h457v-95z" />
    <glyph glyph-name="emdash" unicode="&#x2014;" horiz-adv-x="799" 
d="M758 221h-717v95h717v-95z" />
    <glyph glyph-name="underscore" unicode="_" horiz-adv-x="314" 
d="M334 -193h-354v96h354v-96z" />
    <glyph glyph-name="parenleft" unicode="(" horiz-adv-x="330" 
d="M223 -225q-53 68 -107 191t-54 284t54 284t107 191l81 -55q-42 -61 -86 -173t-44 -247t44 -247t86 -173z" />
    <glyph glyph-name="parenright" unicode=")" horiz-adv-x="330" 
d="M26 -170q42 61 86 173t44 247t-44 247t-86 173l82 55q53 -68 106.5 -191t53.5 -284t-53.5 -284t-106.5 -191z" />
    <glyph glyph-name="bracketleft" unicode="[" horiz-adv-x="329" 
d="M307 -200h-230v900h230v-101h-124v-698h124v-101z" />
    <glyph glyph-name="bracketright" unicode="]" horiz-adv-x="329" 
d="M252 -200h-230v101h124v698h-124v101h230v-900z" />
    <glyph glyph-name="braceleft" unicode="{" horiz-adv-x="358" 
d="M219 351q0 -42 -20 -66.5t-50 -34.5q30 -10 50 -34.5t20 -66.5v-180q0 -33 17.5 -50.5t48.5 -17.5h50v-101h-57q-165 0 -165 158v183q0 33 -17.5 48.5t-56.5 15.5v90q39 0 56.5 15.5t17.5 48.5v183q0 158 165 158h58v-101h-51q-31 0 -48.5 -17.5t-17.5 -50.5v-180z" />
    <glyph glyph-name="braceright" unicode="}" horiz-adv-x="358" 
d="M245 359q0 -33 17.5 -48.5t56.5 -15.5v-90q-39 0 -56.5 -15.5t-17.5 -48.5v-183q0 -158 -165 -158h-58v101h50q32 0 49.5 17.5t17.5 50.5v180q0 42 20 66.5t49 34.5q-29 10 -49 34.5t-20 66.5v180q0 33 -17.5 50.5t-49.5 17.5h-50v101h58q165 0 165 -158v-183z" />
    <glyph glyph-name="bar" unicode="|" horiz-adv-x="361" 
d="M235 -180h-109v880h109v-880z" />
    <glyph glyph-name="brokenbar" unicode="&#xa6;" horiz-adv-x="361" 
d="M235 355h-109v345h109v-345zM235 -180h-109v345h109v-345z" />
    <glyph glyph-name="dagger" unicode="&#x2020;" horiz-adv-x="394" 
d="M245 179h-95v300h-115v89h115v132h95v-132h114v-89h-114v-300z" />
    <glyph glyph-name="daggerdbl" unicode="&#x2021;" horiz-adv-x="394" 
d="M245 179h-95v121h-115v86h115v106h-115v87h115v121h95v-121h114v-87h-114v-106h114v-86h-114v-121z" />
    <glyph glyph-name="slash" unicode="/" horiz-adv-x="394" 
d="M106 -200h-106l288 900h106z" />
    <glyph glyph-name="backslash" unicode="\" horiz-adv-x="394" 
d="M394 -200h-106l-288 900h106z" />
    <glyph glyph-name="numbersign" unicode="#" horiz-adv-x="693" 
d="M674 514l-22 -88h-120l-30 -152h126l-21 -88h-123l-38 -186h-94l37 186h-152l-38 -186h-94l38 186h-124l21 88h121l30 152h-127l22 88h123l38 186h94l-38 -186h153l37 186h95l-38 -186h124zM255 274h152l31 152h-153z" />
    <glyph glyph-name="uni2116" unicode="&#x2116;" horiz-adv-x="1050" 
d="M184 700l335 -499v499h113v-700h-107l-335 499v-499h-113v700h107zM777.5 193q-36.5 21 -57.5 57t-21 79t21 79t57.5 57t79.5 21t79 -21t57 -57t21 -79t-21 -79t-57 -57t-79 -21t-79.5 21zM806.5 383q-20.5 -21 -20.5 -54t20.5 -54.5t50.5 -21.5q29 0 49.5 21.5
t20.5 54.5q0 32 -20.5 53.5t-49.5 21.5q-30 0 -50.5 -21zM1004 0h-295v91h295v-91z" />
    <glyph glyph-name="uni2116.sc" horiz-adv-x="950" 
d="M175 610l291 -424v424h113v-610h-105l-291 423v-423h-113v610h105zM679.5 175.5q-40.5 39.5 -40.5 100.5q0 60 40.5 100t101.5 40t101 -40t40 -100q0 -61 -40 -100.5t-101 -39.5t-101.5 39.5zM736 323q-17 -18 -17 -47t17 -47.5t45 -18.5q27 0 44.5 18.5t17.5 47.5
q0 28 -17.5 46.5t-44.5 18.5q-28 0 -45 -18zM912 0h-262v82h262v-82z" />
    <glyph glyph-name="ampersand" unicode="&#x26;" horiz-adv-x="603" 
d="M635 0h-132l-74 81q-43 -43 -90 -68t-107 -25q-57 0 -101 22t-68.5 60t-24.5 85q0 61 32.5 109t88.5 95l10 8l-7 8q-42 47 -62 86t-20 82q0 47 22 85.5t62 61t91 22.5q49 0 89 -22.5t62.5 -61t22.5 -84.5q0 -86 -92 -164l-27 -24l116 -128l72 103h116l-121 -175z
M203.5 593.5q-20.5 -20.5 -20.5 -52.5q0 -25 14.5 -51t51.5 -67l18 16q58 51 58 102q0 31 -20 52t-50 21q-31 0 -51.5 -20.5zM302 105q30 16 62 48l-134 147l-10 -9q-35 -28 -55 -58t-20 -67q0 -36 24.5 -56.5t65.5 -20.5q37 0 67 16z" />
    <glyph glyph-name="ampersand.sc" horiz-adv-x="550" 
d="M582 0h-128l-64 67q-86 -79 -183 -79q-50 0 -89.5 19.5t-62 53.5t-22.5 76q0 53 28.5 95t74.5 79l10 8l-4 4q-38 40 -55.5 73.5t-17.5 73.5q0 42 21 77t57.5 55t79.5 20q42 0 78 -20.5t57 -55.5t21 -76q0 -40 -20 -75t-67 -74l-15 -13l104 -106l64 88h108l-108 -153z
M184 513.5q-17 -18.5 -17 -46.5q0 -23 13 -45.5t43 -53.5l10 9q30 27 41 47t11 43q0 28 -17 46.5t-42 18.5t-42 -18.5zM271 94.5q27 13.5 55 38.5l-121 125l-9 -8q-31 -27 -46 -49.5t-15 -52.5q0 -31 21 -49t56 -18q32 0 59 13.5z" />
    <glyph glyph-name="section" unicode="&#xa7;" horiz-adv-x="505" 
d="M426 16q0 -43 -22 -77.5t-62.5 -55t-93.5 -20.5q-77 0 -127.5 46t-55.5 118h99q3 -31 25 -52.5t59 -21.5q35 0 56.5 18t21.5 46q0 24 -15.5 42.5t-38 31t-64.5 32.5q-52 23 -84.5 43t-55.5 52t-23 78q0 48 25.5 84t65.5 59q-57 47 -57 120q0 43 22 77.5t62.5 55
t93.5 20.5q77 0 127.5 -46t55.5 -118h-98q-4 31 -26 53t-59 22q-35 0 -56 -18.5t-21 -46.5q0 -34 28.5 -56t88.5 -49q53 -25 85 -44.5t55 -51.5t23 -78q0 -48 -25.5 -84t-65.5 -59q57 -47 57 -120zM161.5 258.5q15.5 -18.5 38.5 -32t64 -31.5l25 -11q70 31 70 88
q0 36 -29 58.5t-87 48.5l-26 12q-71 -31 -71 -88q0 -26 15.5 -44.5z" />
    <glyph glyph-name="paragraph" unicode="&#xb6;" horiz-adv-x="575" 
d="M498 700v-800h-96v708h-100v-708h-97v449q-77 4 -125.5 53t-48.5 122q0 50 24.5 90.5t67.5 63t98 22.5h277z" />
    <glyph glyph-name="copyright" unicode="&#xa9;" horiz-adv-x="785" 
d="M215 35.5q-81 47.5 -128 130.5t-47 184t47 184t128 130.5t178 47.5t178 -47.5t128 -130.5t47 -184t-47 -184t-128 -130.5t-178 -47.5t-178 47.5zM531.5 100q62.5 37 98.5 102.5t36 147.5t-36 147.5t-98.5 102.5t-138.5 37t-138.5 -37t-98.5 -102.5t-36 -147.5t36 -147.5
t98.5 -102.5t138.5 -37t138.5 37zM306.5 187.5q-40.5 24.5 -64.5 67t-24 95.5t24 95.5t64.5 67t86.5 24.5q67 0 112 -40.5t56 -94.5h-77q-9 26 -31 45t-60 19q-40 0 -69 -32t-29 -84t29 -84t69 -32q38 0 60 19t31 45h77q-11 -54 -56 -94.5t-112 -40.5q-46 0 -86.5 24.5z" />
    <glyph glyph-name="registered" unicode="&#xae;" horiz-adv-x="421" 
d="M299.5 689q41.5 -23 66 -63t24.5 -90q0 -49 -24.5 -89t-66 -63t-89.5 -23q-47 0 -88.5 23t-66 63t-24.5 89q0 50 24.5 90t66 63t88.5 23q48 0 89.5 -23zM293.5 451.5q33.5 32.5 33.5 84.5t-33.5 85t-83.5 33t-83 -33t-33 -85t33 -84.5t83 -32.5t83.5 32.5zM277.5 534.5
q-8.5 -13.5 -24.5 -20.5l38 -58h-59l-31 51h-6v-51h-54v166h80q29 0 47 -16.5t18 -40.5q0 -17 -8.5 -30.5zM195 579v-30h17q20 0 20 15t-20 15h-17z" />
    <glyph glyph-name="registered.salt" horiz-adv-x="785" 
d="M571 664.5q81 -47.5 128 -130.5t47 -184t-47 -184t-128 -130.5t-178 -47.5t-178 47.5t-128 130.5t-47 184t47 184t128 130.5t178 47.5t178 -47.5zM531.5 100q62.5 37 98.5 102.5t36 147.5t-36 147.5t-98.5 102.5t-138.5 37t-138.5 -37t-98.5 -102.5t-36 -147.5t36 -147.5
t98.5 -102.5t138.5 -37t138.5 37zM515 343.5q-20 -29.5 -55 -43.5l87 -131h-85l-75 120h-43v-120h-73v362h134q56 0 93 -35t37 -86q0 -37 -20 -66.5zM344 463v-106h59q28 0 43.5 14t15.5 39t-15.5 39t-43.5 14h-59z" />
    <glyph glyph-name="trademark" unicode="&#x2122;" horiz-adv-x="647" 
d="M95 631h-85v69h244v-69h-85v-239h-74v239zM451 559l87 141h65v-308h-71v188l-66 -106h-36l-66 107v-189h-70v308h69z" />
    <glyph glyph-name="at" unicode="@" horiz-adv-x="827" 
d="M224.5 -74.5q-86.5 48.5 -136.5 134t-50 190.5t50 190t136.5 134t190.5 49q105 0 192 -48t137 -131t50 -183q0 -65 -20.5 -110.5t-56 -69t-78.5 -23.5q-47 0 -76.5 22t-41.5 45h-5q-16 -24 -47.5 -45.5t-78.5 -21.5q-46 0 -84.5 23.5t-61.5 66.5t-23 101t22.5 101
t60.5 66.5t83 23.5q41 0 70 -19.5t39 -38.5h5l16 49h61v-207q0 -89 61 -89q30 0 51.5 31.5t21.5 94.5q0 79 -39 144.5t-107 103t-151 37.5q-82 0 -149.5 -38t-106.5 -106t-39 -152t39 -152t106.5 -106t149.5 -38q56 0 100.5 15.5t63.5 29.5l38 -65q-23 -17 -77.5 -37
t-124.5 -20q-104 0 -190.5 48.5zM468.5 168.5q27.5 30.5 27.5 80.5t-27.5 80.5t-67.5 30.5q-41 0 -68 -30t-27 -81t27 -81t68 -30q40 0 67.5 30.5z" />
    <glyph glyph-name="A" unicode="A" horiz-adv-x="633" 
d="M635 0h-122l-57 157h-283l-57 -157h-118l263 700h112zM418 264l-103 287l-104 -287h207z" />
    <glyph glyph-name="B" unicode="B" horiz-adv-x="630" 
d="M556 314.5q38 -43.5 38 -113.5q0 -56 -28.5 -102t-80 -72.5t-117.5 -26.5h-291v700h279q61 0 109 -24.5t74.5 -67t26.5 -93.5q0 -56 -28 -92t-66 -50q46 -15 84 -58.5zM193 599v-184h153q46 0 75 26t29 67q0 40 -29 65.5t-75 25.5h-153zM358 101q53 0 86.5 30.5
t33.5 78.5q0 47 -33.5 77.5t-86.5 30.5h-165v-217h165z" />
    <glyph glyph-name="C" unicode="C" horiz-adv-x="718" 
d="M206.5 36q-77.5 48 -123.5 131t-46 183t46 183t123.5 131t167.5 48q78 0 142.5 -35.5t106.5 -93.5t58 -126h-119q-18 60 -67 102t-121 42q-59 0 -109.5 -32.5t-81 -89.5t-30.5 -129t30.5 -129t81 -89.5t109.5 -32.5q72 0 122 41.5t71 102.5h119q-16 -68 -58.5 -126
t-107.5 -93.5t-146 -35.5q-90 0 -167.5 48z" />
    <glyph glyph-name="D" unicode="D" horiz-adv-x="671" 
d="M77 0v700h212q95 0 174 -46.5t125 -126.5t46 -177t-46.5 -177.5t-125.5 -126.5t-173 -46h-212zM289 111q61 0 113.5 31.5t84 86t31.5 121.5t-31.5 121.5t-84 86t-113.5 31.5h-96v-478h96z" />
    <glyph glyph-name="E" unicode="E" horiz-adv-x="589" 
d="M193 305v-195h356v-110h-472v700h462v-110h-346v-178h308v-107h-308z" />
    <glyph glyph-name="F" unicode="F" horiz-adv-x="565" 
d="M532 700v-111h-339v-199h293v-107h-293v-283h-116v700h455z" />
    <glyph glyph-name="G" unicode="G" horiz-adv-x="758" 
d="M387 359h305v-359h-71l-22 100q-34 -47 -93 -79.5t-132 -32.5q-90 0 -167.5 48t-123.5 131t-46 183t46 183t123.5 131t167.5 48q78 0 143.5 -33t108 -87t55.5 -115h-119q-20 51 -68.5 87.5t-119.5 36.5q-59 0 -109.5 -32.5t-81 -89.5t-30.5 -129t30.5 -129t81 -89.5
t109.5 -32.5q56 0 99 23.5t68 60.5t31 76h-185v100z" />
    <glyph glyph-name="H" unicode="H" horiz-adv-x="700" 
d="M507 413v287h116v-700h-116v302h-314v-302h-116v700h116v-287h314z" />
    <glyph glyph-name="I" unicode="I" horiz-adv-x="270" 
d="M193 0h-116v700h116v-700z" />
    <glyph glyph-name="J" unicode="J" horiz-adv-x="538" 
d="M118 16.5q-52 28.5 -80 78t-28 110.5h115q2 -44 33 -75t80 -31q51 0 81.5 31.5t30.5 81.5v488h116v-488q0 -65 -28 -116t-79.5 -79.5t-120.5 -28.5q-68 0 -120 28.5z" />
    <glyph glyph-name="K" unicode="K" horiz-adv-x="587" 
d="M311 360l287 -360h-146l-259 331v-331h-116v700h116v-321l249 321h137z" />
    <glyph glyph-name="L" unicode="L" horiz-adv-x="535" 
d="M525 0h-448v700h116v-589h332v-111z" />
    <glyph glyph-name="M" unicode="M" horiz-adv-x="850" 
d="M428 169l241 531h104v-700h-113v450l-205 -450h-62l-203 445v-445h-113v700h110z" />
    <glyph glyph-name="N" unicode="N" horiz-adv-x="709" 
d="M519 201v499h113v-700h-107l-335 499v-499h-113v700h107z" />
    <glyph glyph-name="O" unicode="O" horiz-adv-x="748" 
d="M206.5 36q-77.5 48 -123.5 131t-46 183t46 183t123.5 131t167.5 48t167.5 -48t123.5 -131t46 -183t-46 -183t-123.5 -131t-167.5 -48t-167.5 48zM483.5 131.5q50.5 32.5 81 89.5t30.5 129t-30.5 129t-81 89.5t-109.5 32.5t-109.5 -32.5t-81 -89.5t-30.5 -129t30.5 -129
t81 -89.5t109.5 -32.5t109.5 32.5z" />
    <glyph glyph-name="P" unicode="P" horiz-adv-x="602" 
d="M327 700q66 0 120 -30.5t85.5 -82.5t31.5 -116t-31 -116.5t-85.5 -83t-120.5 -30.5h-134v-241h-116v700h250zM325 352q52 0 87.5 34t35.5 85t-35.5 84.5t-87.5 33.5h-132v-237h132z" />
    <glyph glyph-name="Q" unicode="Q" horiz-adv-x="748" 
d="M691 226q-20 -59 -57 -106l67 -65l-70 -73l-69 68q-87 -62 -188 -62q-90 0 -167.5 48t-123.5 131t-46 183t46 183t123.5 131t167.5 48t167.5 -48t123.5 -131t46 -183q0 -65 -20 -124zM483 127l-94 92l70 73l96 -94q43 65 43 152q0 73 -30.5 131t-82 90.5t-111.5 32.5
t-111.5 -32.5t-82 -90.5t-30.5 -131t30.5 -131t82 -90.5t111.5 -32.5q58 0 109 31z" />
    <glyph glyph-name="R" unicode="R" horiz-adv-x="625" 
d="M459 0l-150 268h-116v-268h-116v700h269q66 0 118.5 -28.5t82 -78t29.5 -111.5q0 -68 -41 -121.5t-110 -76.5l168 -284h-134zM193 590v-216h151q51 0 83.5 30.5t32.5 76.5q0 47 -32.5 78t-83.5 31h-151z" />
    <glyph glyph-name="S" unicode="S" horiz-adv-x="575" 
d="M159 17q-57 29 -88.5 80.5t-34.5 117.5h116q5 -56 41.5 -89t99.5 -33q60 0 92.5 26t32.5 66q0 32 -19.5 53.5t-49.5 34.5t-82 31q-68 23 -111 44.5t-73.5 62t-30.5 105.5q0 56 28 100.5t80.5 70t123.5 25.5q70 0 123.5 -29t83.5 -79.5t33 -112.5h-116q-3 52 -36 84
t-88 32t-85.5 -26t-30.5 -67q0 -31 19.5 -51.5t49 -33.5t80.5 -29q70 -23 112.5 -43.5t73.5 -61.5t31 -107q0 -58 -28.5 -103t-83 -71t-130.5 -26t-133 29z" />
    <glyph glyph-name="T" unicode="T" horiz-adv-x="562" 
d="M339 0h-116v589h-208v111h532v-111h-208v-589z" />
    <glyph glyph-name="U" unicode="U" horiz-adv-x="684" 
d="M200.5 23.5q-61.5 35.5 -95 98t-33.5 140.5v438h116v-438q0 -73 41.5 -118t112.5 -45t112.5 45t41.5 118v438h116v-438q0 -78 -33.5 -140.5t-95 -98t-141.5 -35.5t-141.5 35.5z" />
    <glyph glyph-name="V" unicode="V" horiz-adv-x="636" 
d="M321 157l190 543h118l-252 -700h-119l-250 700h123z" />
    <glyph glyph-name="W" unicode="W" horiz-adv-x="906" 
d="M639 209l144 491h116l-217 -700h-92l-137 473l-137 -473h-93l-215 700h119l144 -491l140 491h86z" />
    <glyph glyph-name="X" unicode="X" horiz-adv-x="609" 
d="M372 355l228 -355h-134l-163 265l-165 -265h-129l227 355l-216 345h133l153 -255l153 255h130z" />
    <glyph glyph-name="Y" unicode="Y" horiz-adv-x="569" 
d="M287 387l160 313h124l-229 -434v-266h-116v266l-228 434h128z" />
    <glyph glyph-name="Z" unicode="Z" horiz-adv-x="565" 
d="M517 612l-338 -503h351v-109h-495v88l338 503h-327v109h471v-88z" />
    <glyph glyph-name="a" unicode="a" horiz-adv-x="515" 
d="M401 461.5q55 -56.5 55 -149.5v-312h-82l-20 57h-5q-21 -27 -57.5 -48t-90.5 -21q-48 0 -87 20.5t-61 55t-22 75.5q0 50 29.5 87.5t83 57.5t122.5 20h81v17q0 45 -25.5 71.5t-68.5 26.5q-38 0 -61 -19.5t-28 -47.5h-110q5 44 29.5 82t68.5 61t102 23q92 0 147 -56.5z
M313 114q34 33 34 79v32h-80q-63 0 -94.5 -20.5t-31.5 -56.5q0 -30 21.5 -48.5t61.5 -18.5q55 0 89 33z" />
    <glyph glyph-name="b" unicode="b" horiz-adv-x="595" 
d="M232.5 11.5q-40.5 23.5 -56.5 45.5h-5l-20 -57h-82v700h110v-247h5q7 11 27 26.5t50.5 27t65.5 11.5q62 0 115.5 -34.5t85.5 -95t32 -135.5t-32 -135.5t-85.5 -95t-115.5 -34.5q-54 0 -94.5 23.5zM383 110.5q31 20.5 49.5 58t18.5 84.5t-18.5 84.5t-49.5 58t-68 20.5
t-68 -20.5t-49.5 -58t-18.5 -84.5t18.5 -84.5t49.5 -58t68 -20.5t68 20.5z" />
    <glyph glyph-name="c" unicode="c" horiz-adv-x="549" 
d="M160.5 23.5q-57.5 35.5 -91.5 96.5t-34 133q0 73 34 133.5t91.5 96t125.5 35.5q60 0 110 -28t82 -73.5t42 -96.5h-110q-11 37 -43 66.5t-81 29.5q-39 0 -71.5 -21t-51.5 -58t-19 -84t19 -84t51.5 -58t71.5 -21q49 0 81 29.5t43 66.5h110q-10 -51 -42 -96.5t-82 -73.5
t-110 -28q-68 0 -125.5 35.5z" />
    <glyph glyph-name="d" unicode="d" horiz-adv-x="595" 
d="M152.5 22.5q-53.5 34.5 -85.5 95t-32 135.5t32 135.5t85.5 95t115.5 34.5q35 0 65.5 -11.5t50.5 -27t27 -26.5h5v247h110v-700h-82l-20 57h-5q-16 -22 -57 -45.5t-94 -23.5q-62 0 -115.5 34.5zM348 110.5q31 20.5 49.5 58t18.5 84.5t-18.5 84.5t-49.5 58t-68 20.5
t-68 -20.5t-49.5 -58t-18.5 -84.5t18.5 -84.5t49.5 -58t68 -20.5t68 20.5z" />
    <glyph glyph-name="e" unicode="e" horiz-adv-x="560" 
d="M520 210h-375q10 -57 48 -90t92 -33q39 0 66 15t43 38h114q-15 -38 -46.5 -73t-77 -57t-98.5 -22q-69 0 -126.5 35t-91 95.5t-33.5 134.5q0 73 34 133.5t91.5 96t124.5 35.5t122 -33.5t87 -91.5t32 -129q0 -32 -6 -54zM194 384.5q-39 -34.5 -49 -91.5h274q-9 56 -46 91
t-88 35q-52 0 -91 -34.5z" />
    <glyph glyph-name="f" unicode="f" horiz-adv-x="326" 
d="M220 588.5q-20 -20.5 -20 -61.5v-21h113v-99h-110v-407h-109v407h-69v99h69v31q0 81 44.5 128t114.5 47q34 0 60 -10v-99q-15 6 -37 6q-36 0 -56 -20.5z" />
    <glyph glyph-name="g" unicode="g" horiz-adv-x="580" 
d="M166 -164.5q-49 25.5 -75.5 62t-34.5 71.5h112q11 -26 40.5 -43t73.5 -17q57 0 91 32t34 88v55h-5q-15 -21 -52 -43.5t-86 -22.5q-61 0 -114 33t-84 90.5t-31 126.5t31 126.5t84 90.5t114 33q52 0 90.5 -23t54.5 -45h5l21 56h82v-476q0 -101 -63 -160.5t-170 -59.5
q-69 0 -118 25.5zM341 136.5q30 19.5 48 54.5t18 77q0 43 -18 77.5t-48 54t-65 19.5q-36 0 -66 -19.5t-48 -54t-18 -77.5t18 -77.5t48 -54t66 -19.5q35 0 65 19.5z" />
    <glyph glyph-name="h" unicode="h" horiz-adv-x="580" 
d="M69 0v700h110v-250h5q16 23 54 45.5t87 22.5q56 0 100.5 -27.5t70 -77.5t25.5 -116v-297h-109v289q0 56 -32.5 91.5t-83.5 35.5q-52 0 -84.5 -35.5t-32.5 -91.5v-289h-110z" />
    <glyph glyph-name="i" unicode="i" horiz-adv-x="237" 
d="M174 0h-110v506h110v-506zM73 595.5q-19 18.5 -19 45.5q0 28 19 46.5t46 18.5t45.5 -18.5t18.5 -46.5q0 -27 -18.5 -45.5t-45.5 -18.5t-46 18.5z" />
    <glyph glyph-name="j" unicode="j" horiz-adv-x="237" 
d="M-46 -175v100q17 -7 36 -7q35 0 54.5 20.5t19.5 60.5v507h110v-515q0 -82 -44 -129t-115 -47q-31 0 -61 10zM73 595.5q-19 18.5 -19 45.5q0 28 19 46.5t46 18.5t45.5 -18.5t18.5 -46.5q0 -27 -18.5 -45.5t-45.5 -18.5t-46 18.5z" />
    <glyph glyph-name="k" unicode="k" horiz-adv-x="495" 
d="M288 266l217 -266h-137l-189 239v-239h-110v700h110v-418l177 224h127z" />
    <glyph glyph-name="l" unicode="l" horiz-adv-x="247" 
d="M179 0h-110v700h110v-700z" />
    <glyph glyph-name="m" unicode="m" horiz-adv-x="820" 
d="M713 461.5q49 -56.5 49 -155.5v-306h-110v303q0 53 -25.5 83t-65.5 30t-66.5 -31t-26.5 -82v-303h-110v303q0 52 -25.5 82.5t-65.5 30.5t-66.5 -31t-26.5 -82v-303h-110v506h82l20 -56h5q15 23 47 45.5t76 22.5q53 0 88.5 -24.5t53.5 -56.5q22 32 60 56.5t89 24.5
q79 0 128 -56.5z" />
    <glyph glyph-name="n" unicode="n" horiz-adv-x="575" 
d="M64 0v506h82l20 -56h5q17 23 54.5 45.5t87.5 22.5q59 0 105 -27.5t72 -77.5t26 -116v-297h-109v289q0 56 -32.5 91.5t-83.5 35.5q-52 0 -84.5 -35.5t-32.5 -91.5v-289h-110z" />
    <glyph glyph-name="o" unicode="o" horiz-adv-x="572" 
d="M160.5 23.5q-57.5 35.5 -91.5 96.5t-34 133q0 73 34 133.5t91.5 96t125.5 35.5t125.5 -35.5t91.5 -96t34 -133.5q0 -72 -34 -133t-91.5 -96.5t-125.5 -35.5t-125.5 35.5zM357.5 111q32.5 21 51.5 58t19 84t-19 84t-51.5 58t-71.5 21t-71.5 -21t-51.5 -58t-19 -84t19 -84
t51.5 -58t71.5 -21t71.5 21z" />
    <glyph glyph-name="p" unicode="p" horiz-adv-x="590" 
d="M64 -180v686h82l20 -56h5q17 22 57.5 45t93.5 23q62 0 115.5 -34.5t85.5 -95t32 -135.5t-32 -135.5t-85.5 -95t-115.5 -34.5q-35 0 -65.5 11.5t-50.5 27t-27 26.5h-5v-233h-110zM378 110.5q31 20.5 49.5 58t18.5 84.5t-18.5 84.5t-49.5 58t-68 20.5t-68 -20.5t-49.5 -58
t-18.5 -84.5t18.5 -84.5t49.5 -58t68 -20.5t68 20.5z" />
    <glyph glyph-name="q" unicode="q" horiz-adv-x="590" 
d="M416 -180v233h-5q-7 -11 -27 -26.5t-50.5 -27t-65.5 -11.5q-62 0 -115.5 34.5t-85.5 95t-32 135.5t32 135.5t85.5 95t115.5 34.5q53 0 93.5 -23t57.5 -45h5l20 56h82v-686h-110zM348 110.5q31 20.5 49.5 58t18.5 84.5t-18.5 84.5t-49.5 58t-68 20.5t-68 -20.5t-49.5 -58
t-18.5 -84.5t18.5 -84.5t49.5 -58t68 -20.5t68 20.5z" />
    <glyph glyph-name="r" unicode="r" horiz-adv-x="349" 
d="M64 0v506h82l20 -56h5q16 23 49 45.5t76 22.5q25 0 42 -4v-110q-19 4 -45 4q-53 0 -86 -34t-33 -94v-280h-110z" />
    <glyph glyph-name="s" unicode="s" horiz-adv-x="458" 
d="M129.5 10.5q-44.5 22.5 -70 60.5t-28.5 83h108q3 -34 28 -54.5t65 -20.5q39 0 60.5 17t21.5 43q0 30 -26 45.5t-82 32.5q-51 16 -83.5 32t-55.5 45t-23 75q0 42 22 76t63.5 53.5t97.5 19.5q54 0 96.5 -21.5t66.5 -58t27 -81.5h-108q-4 33 -24.5 51.5t-57.5 18.5
q-35 0 -54 -15.5t-19 -38.5q0 -28 25 -42.5t79 -30.5q52 -16 85 -32t57 -46t24 -78q0 -68 -51 -112t-141 -44q-58 0 -102.5 22.5z" />
    <glyph glyph-name="t" unicode="t" horiz-adv-x="352" 
d="M142 35q-44 47 -44 129v243h-83v93h36q30 0 45.5 15.5t15.5 44.5v76h95v-130h110v-99h-110v-234q0 -41 20 -61.5t55 -20.5q21 0 35 7v-100q-26 -10 -60 -10q-71 0 -115 47z" />
    <glyph glyph-name="u" unicode="u" horiz-adv-x="575" 
d="M157 15.5q-46 27.5 -72 77.5t-26 116v297h110v-289q0 -56 32.5 -91.5t82.5 -35.5q52 0 85 35.5t33 91.5v289h109v-506h-82l-20 57h-5q-17 -24 -55 -46.5t-87 -22.5q-59 0 -105 27.5z" />
    <glyph glyph-name="v" unicode="v" horiz-adv-x="503" 
d="M254 133l135 373h112l-196 -506h-106l-196 506h116z" />
    <glyph glyph-name="w" unicode="w" horiz-adv-x="725" 
d="M508 162l106 344h109l-167 -506h-91l-103 321l-101 -321h-91l-167 506h113l105 -342l109 342h69z" />
    <glyph glyph-name="x" unicode="x" horiz-adv-x="488" 
d="M312 258l172 -258h-126l-116 182l-116 -182h-122l172 258l-161 248h125l106 -170l106 170h120z" />
    <glyph glyph-name="y" unicode="y" horiz-adv-x="502" 
d="M386 506h113l-210 -534q-35 -87 -72.5 -122t-87.5 -35q-30 0 -54 10v100q14 -7 34 -7q29 0 48.5 14.5t32.5 48.5l12 32l-199 493h118l135 -359z" />
    <glyph glyph-name="z" unicode="z" horiz-adv-x="441" 
d="M403 416l-244 -317h252v-99h-381v90l244 317h-239v99h368v-90z" />
    <glyph glyph-name="Aacute" unicode="&#xc1;" horiz-adv-x="633" 
d="M635 0h-122l-57 157h-283l-57 -157h-118l263 700h112zM418 264l-103 287l-104 -287h207zM347 755h-87l78 147h118z" />
    <glyph glyph-name="Abreve" unicode="&#x102;" horiz-adv-x="633" 
d="M635 0h-122l-57 157h-283l-57 -157h-118l263 700h112zM418 264l-103 287l-104 -287h207zM210 799q-42 39 -47 98h83q3 -27 21 -45.5t50 -18.5t49.5 18t21.5 46h83q-5 -59 -47.5 -98t-106.5 -39q-65 0 -107 39z" />
    <glyph glyph-name="Acircumflex" unicode="&#xc2;" horiz-adv-x="633" 
d="M635 0h-122l-57 157h-283l-57 -157h-118l263 700h112zM418 264l-103 287l-104 -287h207zM365 902l116 -147h-99l-65 84l-65 -84h-97l116 147h94z" />
    <glyph glyph-name="Adieresis" unicode="&#xc4;" horiz-adv-x="633" 
d="M635 0h-122l-57 157h-283l-57 -157h-118l263 700h112zM418 264l-103 287l-104 -287h207zM179 785q-18 18 -18 43t18 42.5t43 17.5q24 0 42 -17.5t18 -42.5t-18 -43t-42 -18q-25 0 -43 18zM370.5 785q-18.5 18 -18.5 43t18.5 42.5t42.5 17.5q25 0 43 -17.5t18 -42.5
t-18 -43t-43 -18q-24 0 -42.5 18z" />
    <glyph glyph-name="Agrave" unicode="&#xc0;" horiz-adv-x="633" 
d="M635 0h-122l-57 157h-283l-57 -157h-118l263 700h112zM418 264l-103 287l-104 -287h207zM375 755h-87l-109 147h118z" />
    <glyph glyph-name="Amacron" unicode="&#x100;" horiz-adv-x="633" 
d="M635 0h-122l-57 157h-283l-57 -157h-118l263 700h112zM418 264l-103 287l-104 -287h207zM462 786h-290v84h290v-84z" />
    <glyph glyph-name="Aogonek" unicode="&#x104;" horiz-adv-x="633" 
d="M563 -138.5q14 -12.5 38 -12.5q19 0 34 6v-64q-23 -7 -50 -7q-51 0 -81.5 27t-30.5 72q0 34 20 64.5t55 52.5h-35l-57 157h-283l-57 -157h-118l263 700h112l262 -700q-86 -48 -86 -103q0 -23 14 -35.5zM418 264l-103 287l-104 -287h207z" />
    <glyph glyph-name="Aring" unicode="&#xc5;" horiz-adv-x="633" 
d="M635 0h-122l-57 157h-283l-57 -157h-118l263 700h112zM418 264l-103 287l-104 -287h207zM242 786q-30 29 -30 71t30 71t75 29t75 -29t30 -71t-30 -71t-75 -29t-75 29zM347 827.5q12 11.5 12 29.5t-12 29.5t-30 11.5q-17 0 -29 -11.5t-12 -29.5t11.5 -29.5t29.5 -11.5
t30 11.5z" />
    <glyph glyph-name="Aringacute" unicode="&#x1fa;" horiz-adv-x="633" 
d="M635 0h-122l-57 157h-283l-57 -157h-118l263 700h112zM418 264l-103 287l-104 -287h207zM359 960h-83l67 129h110zM242 776q-30 29 -30 71t30 71t75 29t75 -29t30 -71t-30 -71t-75 -29t-75 29zM347 817.5q12 11.5 12 29.5t-12 29.5t-30 11.5q-17 0 -29 -11.5t-12 -29.5
t11.5 -29.5t29.5 -11.5t30 11.5z" />
    <glyph glyph-name="Atilde" unicode="&#xc3;" horiz-adv-x="633" 
d="M635 0h-122l-57 157h-283l-57 -157h-118l263 700h112zM418 264l-103 287l-104 -287h207zM340 770.5q-18 9.5 -37 26.5q-14 12 -22.5 17t-19.5 5q-16 0 -27 -14.5t-11 -38.5h-72q0 62 28 95.5t71 33.5q28 0 46 -9.5t36 -26.5q12 -11 21 -16.5t20 -5.5q16 0 27.5 14.5
t11.5 38.5h72q0 -63 -28 -96t-71 -33q-27 0 -45 9.5z" />
    <glyph glyph-name="AE" unicode="&#xc6;" horiz-adv-x="902" 
d="M537 305v-195h325v-110h-438v157h-245l-85 -157h-128l389 700h497v-110h-315v-178h277v-107h-277zM414 591l-177 -327h187v327h-10z" />
    <glyph glyph-name="AEacute" unicode="&#x1fc;" horiz-adv-x="902" 
d="M537 305v-195h325v-110h-438v157h-245l-85 -157h-128l389 700h497v-110h-315v-178h277v-107h-277zM414 591l-177 -327h187v327h-10zM510 755h-87l78 147h118z" />
    <glyph glyph-name="Cacute" unicode="&#x106;" horiz-adv-x="718" 
d="M206.5 36q-77.5 48 -123.5 131t-46 183t46 183t123.5 131t167.5 48q78 0 142.5 -35.5t106.5 -93.5t58 -126h-119q-18 60 -67 102t-121 42q-59 0 -109.5 -32.5t-81 -89.5t-30.5 -129t30.5 -129t81 -89.5t109.5 -32.5q72 0 122 41.5t71 102.5h119q-16 -68 -58.5 -126
t-107.5 -93.5t-146 -35.5q-90 0 -167.5 48zM402 755h-87l78 147h118z" />
    <glyph glyph-name="Ccaron" unicode="&#x10c;" horiz-adv-x="718" 
d="M206.5 36q-77.5 48 -123.5 131t-46 183t46 183t123.5 131t167.5 48q78 0 142.5 -35.5t106.5 -93.5t58 -126h-119q-18 60 -67 102t-121 42q-59 0 -109.5 -32.5t-81 -89.5t-30.5 -129t30.5 -129t81 -89.5t109.5 -32.5q72 0 122 41.5t71 102.5h119q-16 -68 -58.5 -126
t-107.5 -93.5t-146 -35.5q-90 0 -167.5 48zM372 818l65 84h98l-116 -147h-94l-116 147h99z" />
    <glyph glyph-name="Ccedilla" unicode="&#xc7;" horiz-adv-x="718" 
d="M686 243q-15 -65 -55.5 -122t-102 -93t-137.5 -40l-13 -29q44 -3 69.5 -26t25.5 -58q0 -42 -30 -66.5t-92 -24.5q-39 0 -68 11v58q25 -7 54 -7q61 0 61 32q0 15 -14 23.5t-45 8.5q-21 0 -39 -5l34 86q-82 10 -150 60t-107.5 128.5t-39.5 170.5q0 100 46 183t123.5 131
t167.5 48q78 0 142.5 -35.5t106.5 -93.5t58 -126h-119q-18 60 -67 102t-121 42q-59 0 -109.5 -32.5t-81 -89.5t-30.5 -129t30.5 -129t81 -89.5t109.5 -32.5q72 0 122 41.5t71 102.5h119z" />
    <glyph glyph-name="Ccircumflex" unicode="&#x108;" horiz-adv-x="718" 
d="M206.5 36q-77.5 48 -123.5 131t-46 183t46 183t123.5 131t167.5 48q78 0 142.5 -35.5t106.5 -93.5t58 -126h-119q-18 60 -67 102t-121 42q-59 0 -109.5 -32.5t-81 -89.5t-30.5 -129t30.5 -129t81 -89.5t109.5 -32.5q72 0 122 41.5t71 102.5h119q-16 -68 -58.5 -126
t-107.5 -93.5t-146 -35.5q-90 0 -167.5 48zM420 902l116 -147h-99l-65 84l-65 -84h-97l116 147h94z" />
    <glyph glyph-name="Cdotaccent" unicode="&#x10a;" horiz-adv-x="718" 
d="M206.5 36q-77.5 48 -123.5 131t-46 183t46 183t123.5 131t167.5 48q78 0 142.5 -35.5t106.5 -93.5t58 -126h-119q-18 60 -67 102t-121 42q-59 0 -109.5 -32.5t-81 -89.5t-30.5 -129t30.5 -129t81 -89.5t109.5 -32.5q72 0 122 41.5t71 102.5h119q-16 -68 -58.5 -126
t-107.5 -93.5t-146 -35.5q-90 0 -167.5 48zM327 781.5q-19 18.5 -19 46.5q0 27 19 45.5t46 18.5t45.5 -18t18.5 -46t-18.5 -46.5t-45.5 -18.5t-46 18.5z" />
    <glyph glyph-name="Eth" unicode="&#xd0;" horiz-adv-x="701" 
d="M319 700q95 0 174 -46.5t125 -126.5t46 -177t-46.5 -177.5t-125.5 -126.5t-173 -46h-212v301h-91v99h91v300h212zM319 111q62 0 114.5 31.5t83.5 86t31 121.5t-31 121.5t-83.5 86t-114.5 31.5h-96v-189h135v-99h-135v-190h96z" />
    <glyph glyph-name="Dcaron" unicode="&#x10e;" horiz-adv-x="671" 
d="M77 0v700h212q95 0 174 -46.5t125 -126.5t46 -177t-46.5 -177.5t-125.5 -126.5t-173 -46h-212zM289 111q61 0 113.5 31.5t84 86t31.5 121.5t-31.5 121.5t-84 86t-113.5 31.5h-96v-478h96zM332 818l65 84h98l-116 -147h-94l-116 147h99z" />
    <glyph glyph-name="Dcroat" unicode="&#x110;" horiz-adv-x="701" 
d="M319 700q95 0 174 -46.5t125 -126.5t46 -177t-46.5 -177.5t-125.5 -126.5t-173 -46h-212v301h-91v99h91v300h212zM319 111q62 0 114.5 31.5t83.5 86t31 121.5t-31 121.5t-83.5 86t-114.5 31.5h-96v-189h135v-99h-135v-190h96z" />
    <glyph glyph-name="Eacute" unicode="&#xc9;" horiz-adv-x="589" 
d="M193 305v-195h356v-110h-472v700h462v-110h-346v-178h308v-107h-308zM338 755h-87l78 147h118z" />
    <glyph glyph-name="Ebreve" unicode="&#x114;" horiz-adv-x="589" 
d="M193 305v-195h356v-110h-472v700h462v-110h-346v-178h308v-107h-308zM202 799q-42 39 -47 98h83q3 -27 21 -45.5t50 -18.5t49.5 18t21.5 46h83q-5 -59 -47.5 -98t-106.5 -39q-65 0 -107 39z" />
    <glyph glyph-name="Ecaron" unicode="&#x11a;" horiz-adv-x="589" 
d="M193 305v-195h356v-110h-472v700h462v-110h-346v-178h308v-107h-308zM308 818l65 84h98l-116 -147h-94l-116 147h99z" />
    <glyph glyph-name="Ecircumflex" unicode="&#xca;" horiz-adv-x="589" 
d="M193 305v-195h356v-110h-472v700h462v-110h-346v-178h308v-107h-308zM356 902l116 -147h-99l-65 84l-65 -84h-97l116 147h94z" />
    <glyph glyph-name="Edieresis" unicode="&#xcb;" horiz-adv-x="589" 
d="M193 305v-195h356v-110h-472v700h462v-110h-346v-178h308v-107h-308zM170 785q-18 18 -18 43t18 42.5t43 17.5q24 0 42 -17.5t18 -42.5t-18 -43t-42 -18q-25 0 -43 18zM361.5 785q-18.5 18 -18.5 43t18.5 42.5t42.5 17.5q25 0 43 -17.5t18 -42.5t-18 -43t-43 -18
q-24 0 -42.5 18z" />
    <glyph glyph-name="Edotaccent" unicode="&#x116;" horiz-adv-x="589" 
d="M193 305v-195h356v-110h-472v700h462v-110h-346v-178h308v-107h-308zM263 781.5q-19 18.5 -19 46.5q0 27 19 45.5t46 18.5t45.5 -18t18.5 -46t-18.5 -46.5t-45.5 -18.5t-46 18.5z" />
    <glyph glyph-name="Egrave" unicode="&#xc8;" horiz-adv-x="589" 
d="M193 305v-195h356v-110h-472v700h462v-110h-346v-178h308v-107h-308zM366 755h-87l-109 147h118z" />
    <glyph glyph-name="Emacron" unicode="&#x112;" horiz-adv-x="589" 
d="M193 305v-195h356v-110h-472v700h462v-110h-346v-178h308v-107h-308zM453 786h-290v84h290v-84z" />
    <glyph glyph-name="Eogonek" unicode="&#x118;" horiz-adv-x="589" 
d="M549 0q-86 -48 -86 -103q0 -23 14 -35.5t38 -12.5q19 0 34 6v-64q-23 -7 -50 -7q-51 0 -81.5 27t-30.5 72q0 34 20 64.5t55 52.5h-385v700h462v-110h-346v-178h308v-107h-308v-195h356v-110z" />
    <glyph glyph-name="uni018F" unicode="&#x18f;" horiz-adv-x="741" 
d="M534.5 664q77.5 -48 123.5 -131t46 -183t-46 -183t-123.5 -131t-167.5 -48t-165.5 47t-120 129t-44.5 184q0 19 3 41h545q-8 61 -39 109.5t-78 75.5t-101 27q-65 0 -113 -32t-73 -84h-120q19 62 62.5 114t106.5 82.5t137 30.5q90 0 167.5 -48zM463.5 123.5
q45.5 24.5 77 69t42.5 100.5h-425q4 -53 33 -97.5t75.5 -70.5t100.5 -26q51 0 96.5 24.5z" />
    <glyph glyph-name="uni01F4" unicode="&#x1f4;" horiz-adv-x="758" 
d="M387 359h305v-359h-71l-22 100q-34 -47 -93 -79.5t-132 -32.5q-90 0 -167.5 48t-123.5 131t-46 183t46 183t123.5 131t167.5 48q78 0 143.5 -33t108 -87t55.5 -115h-119q-20 51 -68.5 87.5t-119.5 36.5q-59 0 -109.5 -32.5t-81 -89.5t-30.5 -129t30.5 -129t81 -89.5
t109.5 -32.5q56 0 99 23.5t68 60.5t31 76h-185v100zM402 755h-87l78 147h118z" />
    <glyph glyph-name="Gbreve" unicode="&#x11e;" horiz-adv-x="758" 
d="M387 359h305v-359h-71l-22 100q-34 -47 -93 -79.5t-132 -32.5q-90 0 -167.5 48t-123.5 131t-46 183t46 183t123.5 131t167.5 48q78 0 143.5 -33t108 -87t55.5 -115h-119q-20 51 -68.5 87.5t-119.5 36.5q-59 0 -109.5 -32.5t-81 -89.5t-30.5 -129t30.5 -129t81 -89.5
t109.5 -32.5q56 0 99 23.5t68 60.5t31 76h-185v100zM266 799q-42 39 -47 98h83q3 -27 21 -45.5t50 -18.5t49.5 18t21.5 46h83q-5 -59 -47.5 -98t-106.5 -39q-65 0 -107 39z" />
    <glyph glyph-name="Gcircumflex" unicode="&#x11c;" horiz-adv-x="758" 
d="M387 359h305v-359h-71l-22 100q-34 -47 -93 -79.5t-132 -32.5q-90 0 -167.5 48t-123.5 131t-46 183t46 183t123.5 131t167.5 48q78 0 143.5 -33t108 -87t55.5 -115h-119q-20 51 -68.5 87.5t-119.5 36.5q-59 0 -109.5 -32.5t-81 -89.5t-30.5 -129t30.5 -129t81 -89.5
t109.5 -32.5q56 0 99 23.5t68 60.5t31 76h-185v100zM420 902l116 -147h-99l-65 84l-65 -84h-97l116 147h94z" />
    <glyph glyph-name="uni0122" unicode="&#x122;" horiz-adv-x="758" 
d="M387 359h305v-359h-71l-22 100q-34 -47 -93 -79.5t-132 -32.5q-90 0 -167.5 48t-123.5 131t-46 183t46 183t123.5 131t167.5 48q78 0 143.5 -33t108 -87t55.5 -115h-119q-20 51 -68.5 87.5t-119.5 36.5q-59 0 -109.5 -32.5t-81 -89.5t-30.5 -129t30.5 -129t81 -89.5
t109.5 -32.5q56 0 99 23.5t68 60.5t31 76h-185v100zM422 -90.5q19 -19.5 19 -53.5q0 -85 -91 -155l-20 26q12 10 24.5 30t16.5 44q-26 1 -44 19.5t-18 44.5q0 27 19 45.5t46 18.5q29 0 48 -19.5z" />
    <glyph glyph-name="Gdotaccent" unicode="&#x120;" horiz-adv-x="758" 
d="M387 359h305v-359h-71l-22 100q-34 -47 -93 -79.5t-132 -32.5q-90 0 -167.5 48t-123.5 131t-46 183t46 183t123.5 131t167.5 48q78 0 143.5 -33t108 -87t55.5 -115h-119q-20 51 -68.5 87.5t-119.5 36.5q-59 0 -109.5 -32.5t-81 -89.5t-30.5 -129t30.5 -129t81 -89.5
t109.5 -32.5q56 0 99 23.5t68 60.5t31 76h-185v100zM327 781.5q-19 18.5 -19 46.5q0 27 19 45.5t46 18.5t45.5 -18t18.5 -46t-18.5 -46.5t-45.5 -18.5t-46 18.5z" />
    <glyph glyph-name="Hbar" unicode="&#x126;" horiz-adv-x="761" 
d="M654 607h91v-99h-91v-508h-116v302h-315v-302h-116v508h-91v99h91v93h116v-95h315v95h116v-93zM223 511v-98h315v98h-315z" />
    <glyph glyph-name="Hcircumflex" unicode="&#x124;" horiz-adv-x="700" 
d="M507 413v287h116v-700h-116v302h-314v-302h-116v700h116v-287h314zM398 902l116 -147h-99l-65 84l-65 -84h-97l116 147h94z" />
    <glyph glyph-name="Iacute" unicode="&#xcd;" horiz-adv-x="270" 
d="M193 0h-116v700h116v-700zM165 755h-87l78 147h118z" />
    <glyph glyph-name="Ibreve" unicode="&#x12c;" horiz-adv-x="270" 
d="M193 0h-116v700h116v-700zM29 799q-42 39 -47 98h83q3 -27 21 -45.5t50 -18.5t49.5 18t21.5 46h83q-5 -59 -47.5 -98t-106.5 -39q-65 0 -107 39z" />
    <glyph glyph-name="Icircumflex" unicode="&#xce;" horiz-adv-x="270" 
d="M193 0h-116v700h116v-700zM183 902l116 -147h-99l-65 84l-65 -84h-97l116 147h94z" />
    <glyph glyph-name="Idieresis" unicode="&#xcf;" horiz-adv-x="270" 
d="M193 0h-116v700h116v-700zM11 785q-18 18 -18 43t18 42.5t43 17.5q24 0 42 -17.5t18 -42.5t-18 -43t-42 -18q-25 0 -43 18zM174 785q-18 18 -18 43t18 42.5t43 17.5q24 0 42 -17.5t18 -42.5t-18 -43t-42 -18q-25 0 -43 18z" />
    <glyph glyph-name="Idotaccent" unicode="&#x130;" horiz-adv-x="270" 
d="M193 0h-116v700h116v-700zM90 781.5q-19 18.5 -19 46.5q0 27 19 45.5t46 18.5t45.5 -18t18.5 -46t-18.5 -46.5t-45.5 -18.5t-46 18.5z" />
    <glyph glyph-name="Igrave" unicode="&#xcc;" horiz-adv-x="270" 
d="M193 0h-116v700h116v-700zM193 755h-87l-109 147h118z" />
    <glyph glyph-name="Imacron" unicode="&#x12a;" horiz-adv-x="270" 
d="M193 0h-116v700h116v-700zM280 786h-290v84h290v-84z" />
    <glyph glyph-name="Iogonek" unicode="&#x12e;" horiz-adv-x="270" 
d="M193 0q-77 -48 -77 -102q0 -23 13 -36t33 -13q18 0 31 6v-64q-28 -7 -48 -7q-47 0 -76 26.5t-29 71.5q0 37 20 67.5t53 50.5h-36v700h116v-700z" />
    <glyph glyph-name="IJ" unicode="&#x132;" horiz-adv-x="808" 
d="M193 0h-116v700h116v-700zM388 16.5q-52 28.5 -80 78t-28 110.5h115q2 -44 33 -75t80 -31q51 0 81.5 31.5t30.5 81.5v488h116v-488q0 -65 -28 -116t-79.5 -79.5t-120.5 -28.5q-68 0 -120 28.5z" />
    <glyph glyph-name="Iacute_J.loclNLD" horiz-adv-x="808" 
d="M193 0h-116v700h116v-700zM165 755h-87l78 147h118zM388 16.5q-52 28.5 -80 78t-28 110.5h115q2 -44 33 -75t80 -31q51 0 81.5 31.5t30.5 81.5v488h116v-488q0 -65 -28 -116t-79.5 -79.5t-120.5 -28.5q-68 0 -120 28.5zM707 755h-87l78 147h118z" />
    <glyph glyph-name="Jcircumflex" unicode="&#x134;" horiz-adv-x="538" 
d="M118 16.5q-52 28.5 -80 78t-28 110.5h115q2 -44 33 -75t80 -31q51 0 81.5 31.5t30.5 81.5v488h116v-488q0 -65 -28 -116t-79.5 -79.5t-120.5 -28.5q-68 0 -120 28.5zM455 902l116 -147h-99l-65 84l-65 -84h-97l116 147h94z" />
    <glyph glyph-name="uni0136" unicode="&#x136;" horiz-adv-x="587" 
d="M311 360l287 -360h-146l-259 331v-331h-116v700h116v-321l249 321h137zM366 -90.5q19 -19.5 19 -53.5q0 -85 -91 -155l-20 26q12 10 24.5 30t16.5 44q-26 1 -44 19.5t-18 44.5q0 27 19 45.5t46 18.5q29 0 48 -19.5z" />
    <glyph glyph-name="Lacute" unicode="&#x139;" horiz-adv-x="535" 
d="M525 0h-448v700h116v-589h332v-111zM165 755h-87l78 147h118z" />
    <glyph glyph-name="Lcaron" unicode="&#x13d;" horiz-adv-x="535" 
d="M525 0h-448v700h116v-589h332v-111zM306 551h-70l32 149h104z" />
    <glyph glyph-name="uni013B" unicode="&#x13b;" horiz-adv-x="535" 
d="M525 0h-448v700h116v-589h332v-111zM348 -90.5q19 -19.5 19 -53.5q0 -85 -91 -155l-20 26q12 10 24.5 30t16.5 44q-26 1 -44 19.5t-18 44.5q0 27 19 45.5t46 18.5q29 0 48 -19.5z" />
    <glyph glyph-name="Ldot" unicode="&#x13f;" horiz-adv-x="535" 
d="M525 0h-448v700h116v-589h332v-111zM353 341.5q-20 20.5 -20 49.5t20 49t50 20t50 -20t20 -49t-20 -49.5t-50 -20.5t-50 20.5z" />
    <glyph glyph-name="Lslash" unicode="&#x141;" horiz-adv-x="565" 
d="M223 315v-204h332v-111h-448v243l-91 -57v112l91 57v345h116v-273l160 100v-113z" />
    <glyph glyph-name="Nacute" unicode="&#x143;" horiz-adv-x="709" 
d="M519 201v499h113v-700h-107l-335 499v-499h-113v700h107zM390 755h-87l78 147h118z" />
    <glyph glyph-name="Ncaron" unicode="&#x147;" horiz-adv-x="709" 
d="M519 201v499h113v-700h-107l-335 499v-499h-113v700h107zM361 818l65 84h98l-116 -147h-94l-116 147h99z" />
    <glyph glyph-name="uni0145" unicode="&#x145;" horiz-adv-x="709" 
d="M519 201v499h113v-700h-107l-335 499v-499h-113v700h107zM407 -90.5q19 -19.5 19 -53.5q0 -85 -91 -155l-20 26q12 10 24.5 30t16.5 44q-26 1 -44 19.5t-18 44.5q0 27 19 45.5t46 18.5q29 0 48 -19.5z" />
    <glyph glyph-name="Eng" unicode="&#x14a;" horiz-adv-x="709" 
d="M519 700h113v-716q0 -94 -47.5 -143t-133.5 -49q-40 0 -65 11v103q22 -9 45 -9q45 0 66.5 21.5t21.5 68.5v22l-329 490v-499h-113v700h107l335 -499v499z" />
    <glyph glyph-name="Ntilde" unicode="&#xd1;" horiz-adv-x="709" 
d="M519 201v499h113v-700h-107l-335 499v-499h-113v700h107zM383 770.5q-18 9.5 -37 26.5q-14 12 -22.5 17t-19.5 5q-16 0 -27 -14.5t-11 -38.5h-72q0 62 28 95.5t71 33.5q28 0 46 -9.5t36 -26.5q12 -11 21 -16.5t20 -5.5q16 0 27.5 14.5t11.5 38.5h72q0 -63 -28 -96
t-71 -33q-27 0 -45 9.5z" />
    <glyph glyph-name="Oacute" unicode="&#xd3;" horiz-adv-x="748" 
d="M206.5 36q-77.5 48 -123.5 131t-46 183t46 183t123.5 131t167.5 48t167.5 -48t123.5 -131t46 -183t-46 -183t-123.5 -131t-167.5 -48t-167.5 48zM483.5 131.5q50.5 32.5 81 89.5t30.5 129t-30.5 129t-81 89.5t-109.5 32.5t-109.5 -32.5t-81 -89.5t-30.5 -129t30.5 -129
t81 -89.5t109.5 -32.5t109.5 32.5zM403 755h-87l78 147h118z" />
    <glyph glyph-name="Obreve" unicode="&#x14e;" horiz-adv-x="748" 
d="M206.5 36q-77.5 48 -123.5 131t-46 183t46 183t123.5 131t167.5 48t167.5 -48t123.5 -131t46 -183t-46 -183t-123.5 -131t-167.5 -48t-167.5 48zM483.5 131.5q50.5 32.5 81 89.5t30.5 129t-30.5 129t-81 89.5t-109.5 32.5t-109.5 -32.5t-81 -89.5t-30.5 -129t30.5 -129
t81 -89.5t109.5 -32.5t109.5 32.5zM267 799q-42 39 -47 98h83q3 -27 21 -45.5t50 -18.5t49.5 18t21.5 46h83q-5 -59 -47.5 -98t-106.5 -39q-65 0 -107 39z" />
    <glyph glyph-name="Ocircumflex" unicode="&#xd4;" horiz-adv-x="748" 
d="M206.5 36q-77.5 48 -123.5 131t-46 183t46 183t123.5 131t167.5 48t167.5 -48t123.5 -131t46 -183t-46 -183t-123.5 -131t-167.5 -48t-167.5 48zM483.5 131.5q50.5 32.5 81 89.5t30.5 129t-30.5 129t-81 89.5t-109.5 32.5t-109.5 -32.5t-81 -89.5t-30.5 -129t30.5 -129
t81 -89.5t109.5 -32.5t109.5 32.5zM421 902l116 -147h-99l-65 84l-65 -84h-97l116 147h94z" />
    <glyph glyph-name="Odieresis" unicode="&#xd6;" horiz-adv-x="748" 
d="M206.5 36q-77.5 48 -123.5 131t-46 183t46 183t123.5 131t167.5 48t167.5 -48t123.5 -131t46 -183t-46 -183t-123.5 -131t-167.5 -48t-167.5 48zM483.5 131.5q50.5 32.5 81 89.5t30.5 129t-30.5 129t-81 89.5t-109.5 32.5t-109.5 -32.5t-81 -89.5t-30.5 -129t30.5 -129
t81 -89.5t109.5 -32.5t109.5 32.5zM235 785q-18 18 -18 43t18 42.5t43 17.5q24 0 42 -17.5t18 -42.5t-18 -43t-42 -18q-25 0 -43 18zM426.5 785q-18.5 18 -18.5 43t18.5 42.5t42.5 17.5q25 0 43 -17.5t18 -42.5t-18 -43t-43 -18q-24 0 -42.5 18z" />
    <glyph glyph-name="Ograve" unicode="&#xd2;" horiz-adv-x="748" 
d="M206.5 36q-77.5 48 -123.5 131t-46 183t46 183t123.5 131t167.5 48t167.5 -48t123.5 -131t46 -183t-46 -183t-123.5 -131t-167.5 -48t-167.5 48zM483.5 131.5q50.5 32.5 81 89.5t30.5 129t-30.5 129t-81 89.5t-109.5 32.5t-109.5 -32.5t-81 -89.5t-30.5 -129t30.5 -129
t81 -89.5t109.5 -32.5t109.5 32.5zM431 755h-87l-109 147h118z" />
    <glyph glyph-name="Ohungarumlaut" unicode="&#x150;" horiz-adv-x="748" 
d="M206.5 36q-77.5 48 -123.5 131t-46 183t46 183t123.5 131t167.5 48t167.5 -48t123.5 -131t46 -183t-46 -183t-123.5 -131t-167.5 -48t-167.5 48zM483.5 131.5q50.5 32.5 81 89.5t30.5 129t-30.5 129t-81 89.5t-109.5 32.5t-109.5 -32.5t-81 -89.5t-30.5 -129t30.5 -129
t81 -89.5t109.5 -32.5t109.5 32.5zM336 755h-79l86 147h110zM493 755h-80l86 147h111z" />
    <glyph glyph-name="Omacron" unicode="&#x14c;" horiz-adv-x="748" 
d="M206.5 36q-77.5 48 -123.5 131t-46 183t46 183t123.5 131t167.5 48t167.5 -48t123.5 -131t46 -183t-46 -183t-123.5 -131t-167.5 -48t-167.5 48zM483.5 131.5q50.5 32.5 81 89.5t30.5 129t-30.5 129t-81 89.5t-109.5 32.5t-109.5 -32.5t-81 -89.5t-30.5 -129t30.5 -129
t81 -89.5t109.5 -32.5t109.5 32.5zM518 786h-290v84h290v-84z" />
    <glyph glyph-name="Oslash" unicode="&#xd8;" horiz-adv-x="748" 
d="M711 638l-68 -71q33 -46 50.5 -101t17.5 -116q0 -100 -46 -183t-123.5 -131t-167.5 -48q-56 0 -108 19t-95 54l-65 -69l-69 70l67 71q-32 46 -49.5 101.5t-17.5 115.5q0 100 46 183t123.5 131t167.5 48q55 0 107 -19t95 -54l65 69zM262.5 571.5q-51.5 -32.5 -82 -90.5
t-30.5 -131q0 -75 34 -137l321 344q-58 47 -131 47q-60 0 -111.5 -32.5zM485.5 128.5q51.5 32.5 82 90.5t30.5 131q0 75 -34 137l-321 -344q58 -47 131 -47q60 0 111.5 32.5z" />
    <glyph glyph-name="Oslashacute" unicode="&#x1fe;" horiz-adv-x="748" 
d="M711 638l-68 -71q33 -46 50.5 -101t17.5 -116q0 -100 -46 -183t-123.5 -131t-167.5 -48q-56 0 -108 19t-95 54l-65 -69l-69 70l67 71q-32 46 -49.5 101.5t-17.5 115.5q0 100 46 183t123.5 131t167.5 48q55 0 107 -19t95 -54l65 69zM262.5 571.5q-51.5 -32.5 -82 -90.5
t-30.5 -131q0 -75 34 -137l321 344q-58 47 -131 47q-60 0 -111.5 -32.5zM485.5 128.5q51.5 32.5 82 90.5t30.5 131q0 75 -34 137l-321 -344q58 -47 131 -47q60 0 111.5 32.5zM403 755h-87l78 147h118z" />
    <glyph glyph-name="Otilde" unicode="&#xd5;" horiz-adv-x="748" 
d="M206.5 36q-77.5 48 -123.5 131t-46 183t46 183t123.5 131t167.5 48t167.5 -48t123.5 -131t46 -183t-46 -183t-123.5 -131t-167.5 -48t-167.5 48zM483.5 131.5q50.5 32.5 81 89.5t30.5 129t-30.5 129t-81 89.5t-109.5 32.5t-109.5 -32.5t-81 -89.5t-30.5 -129t30.5 -129
t81 -89.5t109.5 -32.5t109.5 32.5zM396 770.5q-18 9.5 -37 26.5q-14 12 -22.5 17t-19.5 5q-16 0 -27 -14.5t-11 -38.5h-72q0 62 28 95.5t71 33.5q28 0 46 -9.5t36 -26.5q12 -11 21 -16.5t20 -5.5q16 0 27.5 14.5t11.5 38.5h72q0 -63 -28 -96t-71 -33q-27 0 -45 9.5z" />
    <glyph glyph-name="OE" unicode="&#x152;" horiz-adv-x="933" 
d="M568 110h325v-110h-511q-94 0 -173 46t-125.5 126.5t-46.5 177.5t46.5 177.5t125.5 126.5t173 46h501v-110h-315v-178h277v-107h-277v-195zM455 110v480h-73q-62 0 -114.5 -31t-83.5 -86t-31 -123t31 -123t83.5 -86t114.5 -31h73z" />
    <glyph glyph-name="Thorn" unicode="&#xde;" horiz-adv-x="646" 
d="M378 590q65 0 119.5 -30t85.5 -81.5t31 -113.5t-31 -113.5t-85.5 -81.5t-119.5 -30h-185v-140h-116v700h116v-110h185zM376 251q53 0 87.5 33t34.5 81t-34.5 81t-87.5 33h-183v-228h183z" />
    <glyph glyph-name="Racute" unicode="&#x154;" horiz-adv-x="625" 
d="M459 0l-150 268h-116v-268h-116v700h269q66 0 118.5 -28.5t82 -78t29.5 -111.5q0 -68 -41 -121.5t-110 -76.5l168 -284h-134zM193 590v-216h151q51 0 83.5 30.5t32.5 76.5q0 47 -32.5 78t-83.5 31h-151zM345 755h-87l78 147h118z" />
    <glyph glyph-name="Rcaron" unicode="&#x158;" horiz-adv-x="625" 
d="M459 0l-150 268h-116v-268h-116v700h269q66 0 118.5 -28.5t82 -78t29.5 -111.5q0 -68 -41 -121.5t-110 -76.5l168 -284h-134zM193 590v-216h151q51 0 83.5 30.5t32.5 76.5q0 47 -32.5 78t-83.5 31h-151zM316 818l65 84h98l-116 -147h-94l-116 147h99z" />
    <glyph glyph-name="uni0156" unicode="&#x156;" horiz-adv-x="625" 
d="M459 0l-150 268h-116v-268h-116v700h269q66 0 118.5 -28.5t82 -78t29.5 -111.5q0 -68 -41 -121.5t-110 -76.5l168 -284h-134zM193 590v-216h151q51 0 83.5 30.5t32.5 76.5q0 47 -32.5 78t-83.5 31h-151zM369 -90.5q19 -19.5 19 -53.5q0 -85 -91 -155l-20 26
q12 10 24.5 30t16.5 44q-26 1 -44 19.5t-18 44.5q0 27 19 45.5t46 18.5q29 0 48 -19.5z" />
    <glyph glyph-name="Sacute" unicode="&#x15a;" horiz-adv-x="575" 
d="M159 17q-57 29 -88.5 80.5t-34.5 117.5h116q5 -56 41.5 -89t99.5 -33q60 0 92.5 26t32.5 66q0 32 -19.5 53.5t-49.5 34.5t-82 31q-68 23 -111 44.5t-73.5 62t-30.5 105.5q0 56 28 100.5t80.5 70t123.5 25.5q70 0 123.5 -29t83.5 -79.5t33 -112.5h-116q-3 52 -36 84
t-88 32t-85.5 -26t-30.5 -67q0 -31 19.5 -51.5t49 -33.5t80.5 -29q70 -23 112.5 -43.5t73.5 -61.5t31 -107q0 -58 -28.5 -103t-83 -71t-130.5 -26t-133 29zM316 755h-87l78 147h118z" />
    <glyph glyph-name="Scaron" unicode="&#x160;" horiz-adv-x="575" 
d="M159 17q-57 29 -88.5 80.5t-34.5 117.5h116q5 -56 41.5 -89t99.5 -33q60 0 92.5 26t32.5 66q0 32 -19.5 53.5t-49.5 34.5t-82 31q-68 23 -111 44.5t-73.5 62t-30.5 105.5q0 56 28 100.5t80.5 70t123.5 25.5q70 0 123.5 -29t83.5 -79.5t33 -112.5h-116q-3 52 -36 84
t-88 32t-85.5 -26t-30.5 -67q0 -31 19.5 -51.5t49 -33.5t80.5 -29q70 -23 112.5 -43.5t73.5 -61.5t31 -107q0 -58 -28.5 -103t-83 -71t-130.5 -26t-133 29zM287 818l65 84h98l-116 -147h-94l-116 147h99z" />
    <glyph glyph-name="Scedilla" unicode="&#x15e;" horiz-adv-x="575" 
d="M507.5 87.5q-26.5 -44.5 -78 -71t-123.5 -28.5l-13 -29q44 -3 69.5 -26t25.5 -58q0 -42 -30 -66.5t-92 -24.5q-39 0 -68 11v58q25 -7 54 -7q61 0 61 32q0 15 -14 23.5t-45 8.5q-21 0 -39 -5l34 86q-95 12 -152 73t-61 151h116q5 -56 41.5 -89t99.5 -33q60 0 92.5 26
t32.5 66q0 32 -19.5 53.5t-49.5 34.5t-82 31q-68 23 -111 44.5t-73.5 62t-30.5 105.5q0 56 28 100.5t80.5 70t123.5 25.5q70 0 123.5 -29t83.5 -79.5t33 -112.5h-116q-3 52 -36 84t-88 32t-85.5 -26t-30.5 -67q0 -31 19.5 -51.5t49 -33.5t80.5 -29q70 -23 112.5 -43.5
t73.5 -61.5t31 -107q0 -56 -26.5 -100.5z" />
    <glyph glyph-name="Scircumflex" unicode="&#x15c;" horiz-adv-x="575" 
d="M159 17q-57 29 -88.5 80.5t-34.5 117.5h116q5 -56 41.5 -89t99.5 -33q60 0 92.5 26t32.5 66q0 32 -19.5 53.5t-49.5 34.5t-82 31q-68 23 -111 44.5t-73.5 62t-30.5 105.5q0 56 28 100.5t80.5 70t123.5 25.5q70 0 123.5 -29t83.5 -79.5t33 -112.5h-116q-3 52 -36 84
t-88 32t-85.5 -26t-30.5 -67q0 -31 19.5 -51.5t49 -33.5t80.5 -29q70 -23 112.5 -43.5t73.5 -61.5t31 -107q0 -58 -28.5 -103t-83 -71t-130.5 -26t-133 29zM334 902l116 -147h-99l-65 84l-65 -84h-97l116 147h94z" />
    <glyph glyph-name="uni0218" unicode="&#x218;" horiz-adv-x="575" 
d="M159 17q-57 29 -88.5 80.5t-34.5 117.5h116q5 -56 41.5 -89t99.5 -33q60 0 92.5 26t32.5 66q0 32 -19.5 53.5t-49.5 34.5t-82 31q-68 23 -111 44.5t-73.5 62t-30.5 105.5q0 56 28 100.5t80.5 70t123.5 25.5q70 0 123.5 -29t83.5 -79.5t33 -112.5h-116q-3 52 -36 84
t-88 32t-85.5 -26t-30.5 -67q0 -31 19.5 -51.5t49 -33.5t80.5 -29q70 -23 112.5 -43.5t73.5 -61.5t31 -107q0 -58 -28.5 -103t-83 -71t-130.5 -26t-133 29zM341 -90.5q19 -19.5 19 -53.5q0 -85 -91 -155l-20 26q12 10 24.5 30t16.5 44q-26 1 -44 19.5t-18 44.5q0 27 19 45.5
t46 18.5q29 0 48 -19.5z" />
    <glyph glyph-name="uni1E9E" unicode="&#x1e9e;" horiz-adv-x="674" 
d="M440 403q51 0 96.5 -24.5t73.5 -70t28 -103.5q0 -59 -27.5 -106t-77 -73t-112.5 -26h-112v111h109q45 0 74.5 27.5t29.5 71.5t-29.5 72t-74.5 28h-102v93l144 190h-166q-45 0 -75.5 -31t-30.5 -78v-484h-116v483q0 64 28 113t78.5 76.5t115.5 27.5h293v-95l-157 -202h10z
" />
    <glyph glyph-name="Tbar" unicode="&#x166;" horiz-adv-x="562" 
d="M547 700v-111h-208v-216h112v-99h-112v-274h-116v274h-112v99h112v216h-208v111h532z" />
    <glyph glyph-name="Tcaron" unicode="&#x164;" horiz-adv-x="562" 
d="M339 0h-116v589h-208v111h532v-111h-208v-589zM281 818l65 84h98l-116 -147h-94l-116 147h99z" />
    <glyph glyph-name="uni0162" unicode="&#x162;" horiz-adv-x="562" 
d="M339 0h-41l-18 -41q44 -3 69.5 -26t25.5 -58q0 -42 -30 -66.5t-92 -24.5q-39 0 -68 11v58q25 -7 54 -7q61 0 61 32q0 15 -14 23.5t-45 8.5q-21 0 -39 -5l38 95h-17v589h-208v111h532v-111h-208v-589z" />
    <glyph glyph-name="uni021A" unicode="&#x21a;" horiz-adv-x="562" 
d="M339 0h-116v589h-208v111h532v-111h-208v-589zM329 -90.5q19 -19.5 19 -53.5q0 -85 -91 -155l-20 26q12 10 24.5 30t16.5 44q-26 1 -44 19.5t-18 44.5q0 27 19 45.5t46 18.5q29 0 48 -19.5z" />
    <glyph glyph-name="Uacute" unicode="&#xda;" horiz-adv-x="684" 
d="M200.5 23.5q-61.5 35.5 -95 98t-33.5 140.5v438h116v-438q0 -73 41.5 -118t112.5 -45t112.5 45t41.5 118v438h116v-438q0 -78 -33.5 -140.5t-95 -98t-141.5 -35.5t-141.5 35.5zM372 755h-87l78 147h118z" />
    <glyph glyph-name="uni0244" unicode="&#x244;" horiz-adv-x="745" 
d="M735 474v-99h-92v-113q0 -78 -34 -140.5t-95.5 -98t-140.5 -35.5q-80 0 -141.5 35.5t-95.5 98t-34 140.5v113h-91v99h91v226h116v-226h309v226h116v-226h92zM527 375h-309v-113q0 -73 42 -118t113 -45q70 0 112 45t42 118v113z" />
    <glyph glyph-name="Ubreve" unicode="&#x16c;" horiz-adv-x="684" 
d="M200.5 23.5q-61.5 35.5 -95 98t-33.5 140.5v438h116v-438q0 -73 41.5 -118t112.5 -45t112.5 45t41.5 118v438h116v-438q0 -78 -33.5 -140.5t-95 -98t-141.5 -35.5t-141.5 35.5zM235 799q-42 39 -47 98h83q3 -27 21 -45.5t50 -18.5t49.5 18t21.5 46h83q-5 -59 -47.5 -98
t-106.5 -39q-65 0 -107 39z" />
    <glyph glyph-name="Ucircumflex" unicode="&#xdb;" horiz-adv-x="684" 
d="M200.5 23.5q-61.5 35.5 -95 98t-33.5 140.5v438h116v-438q0 -73 41.5 -118t112.5 -45t112.5 45t41.5 118v438h116v-438q0 -78 -33.5 -140.5t-95 -98t-141.5 -35.5t-141.5 35.5zM390 902l116 -147h-99l-65 84l-65 -84h-97l116 147h94z" />
    <glyph glyph-name="Udieresis" unicode="&#xdc;" horiz-adv-x="684" 
d="M200.5 23.5q-61.5 35.5 -95 98t-33.5 140.5v438h116v-438q0 -73 41.5 -118t112.5 -45t112.5 45t41.5 118v438h116v-438q0 -78 -33.5 -140.5t-95 -98t-141.5 -35.5t-141.5 35.5zM204 785q-18 18 -18 43t18 42.5t43 17.5q24 0 42 -17.5t18 -42.5t-18 -43t-42 -18
q-25 0 -43 18zM395.5 785q-18.5 18 -18.5 43t18.5 42.5t42.5 17.5q25 0 43 -17.5t18 -42.5t-18 -43t-43 -18q-24 0 -42.5 18z" />
    <glyph glyph-name="Ugrave" unicode="&#xd9;" horiz-adv-x="684" 
d="M200.5 23.5q-61.5 35.5 -95 98t-33.5 140.5v438h116v-438q0 -73 41.5 -118t112.5 -45t112.5 45t41.5 118v438h116v-438q0 -78 -33.5 -140.5t-95 -98t-141.5 -35.5t-141.5 35.5zM399 755h-87l-109 147h118z" />
    <glyph glyph-name="Uhungarumlaut" unicode="&#x170;" horiz-adv-x="684" 
d="M200.5 23.5q-61.5 35.5 -95 98t-33.5 140.5v438h116v-438q0 -73 41.5 -118t112.5 -45t112.5 45t41.5 118v438h116v-438q0 -78 -33.5 -140.5t-95 -98t-141.5 -35.5t-141.5 35.5zM304 755h-79l86 147h110zM461 755h-80l86 147h111z" />
    <glyph glyph-name="Umacron" unicode="&#x16a;" horiz-adv-x="684" 
d="M200.5 23.5q-61.5 35.5 -95 98t-33.5 140.5v438h116v-438q0 -73 41.5 -118t112.5 -45t112.5 45t41.5 118v438h116v-438q0 -78 -33.5 -140.5t-95 -98t-141.5 -35.5t-141.5 35.5zM487 786h-290v84h290v-84z" />
    <glyph glyph-name="Uogonek" unicode="&#x172;" horiz-adv-x="684" 
d="M496 700h116v-438q0 -70 -28 -127.5t-80 -98.5q-53 -41 -80 -75t-27 -64q0 -23 14.5 -35.5t38.5 -12.5q19 0 34 6v-63q-22 -8 -51 -8q-51 0 -81 26.5t-30 72.5q0 32 16.5 59.5t45.5 48.5q-21 -3 -42 -3q-80 0 -141.5 35.5t-95 98t-33.5 140.5v438h116v-438
q0 -73 41.5 -118t112.5 -45t112.5 45t41.5 118v438z" />
    <glyph glyph-name="Uring" unicode="&#x16e;" horiz-adv-x="684" 
d="M200.5 23.5q-61.5 35.5 -95 98t-33.5 140.5v438h116v-438q0 -73 41.5 -118t112.5 -45t112.5 45t41.5 118v438h116v-438q0 -78 -33.5 -140.5t-95 -98t-141.5 -35.5t-141.5 35.5zM267 786q-30 29 -30 71t30 71t75 29t75 -29t30 -71t-30 -71t-75 -29t-75 29zM372 827.5
q12 11.5 12 29.5t-12 29.5t-30 11.5q-17 0 -29 -11.5t-12 -29.5t11.5 -29.5t29.5 -11.5t30 11.5z" />
    <glyph glyph-name="Wacute" unicode="&#x1e82;" horiz-adv-x="906" 
d="M639 209l144 491h116l-217 -700h-92l-137 473l-137 -473h-93l-215 700h119l144 -491l140 491h86zM484 755h-87l78 147h118z" />
    <glyph glyph-name="Wcircumflex" unicode="&#x174;" horiz-adv-x="906" 
d="M639 209l144 491h116l-217 -700h-92l-137 473l-137 -473h-93l-215 700h119l144 -491l140 491h86zM502 902l116 -147h-99l-65 84l-65 -84h-97l116 147h94z" />
    <glyph glyph-name="Wdieresis" unicode="&#x1e84;" horiz-adv-x="906" 
d="M639 209l144 491h116l-217 -700h-92l-137 473l-137 -473h-93l-215 700h119l144 -491l140 491h86zM316 785q-18 18 -18 43t18 42.5t43 17.5q24 0 42 -17.5t18 -42.5t-18 -43t-42 -18q-25 0 -43 18zM507.5 785q-18.5 18 -18.5 43t18.5 42.5t42.5 17.5q25 0 43 -17.5
t18 -42.5t-18 -43t-43 -18q-24 0 -42.5 18z" />
    <glyph glyph-name="Wgrave" unicode="&#x1e80;" horiz-adv-x="906" 
d="M639 209l144 491h116l-217 -700h-92l-137 473l-137 -473h-93l-215 700h119l144 -491l140 491h86zM512 755h-87l-109 147h118z" />
    <glyph glyph-name="Yacute" unicode="&#xdd;" horiz-adv-x="569" 
d="M287 387l160 313h124l-229 -434v-266h-116v266l-228 434h128zM316 755h-87l78 147h118z" />
    <glyph glyph-name="Ycircumflex" unicode="&#x176;" horiz-adv-x="569" 
d="M287 387l160 313h124l-229 -434v-266h-116v266l-228 434h128zM334 902l116 -147h-99l-65 84l-65 -84h-97l116 147h94z" />
    <glyph glyph-name="Ydieresis" unicode="&#x178;" horiz-adv-x="569" 
d="M287 387l160 313h124l-229 -434v-266h-116v266l-228 434h128zM148 785q-18 18 -18 43t18 42.5t43 17.5q24 0 42 -17.5t18 -42.5t-18 -43t-42 -18q-25 0 -43 18zM339.5 785q-18.5 18 -18.5 43t18.5 42.5t42.5 17.5q25 0 43 -17.5t18 -42.5t-18 -43t-43 -18q-24 0 -42.5 18
z" />
    <glyph glyph-name="Ygrave" unicode="&#x1ef2;" horiz-adv-x="569" 
d="M287 387l160 313h124l-229 -434v-266h-116v266l-228 434h128zM344 755h-87l-109 147h118z" />
    <glyph glyph-name="uni0232" unicode="&#x232;" horiz-adv-x="569" 
d="M287 387l160 313h124l-229 -434v-266h-116v266l-228 434h128zM431 786h-290v84h290v-84z" />
    <glyph glyph-name="Zacute" unicode="&#x179;" horiz-adv-x="565" 
d="M517 612l-338 -503h351v-109h-495v88l338 503h-327v109h471v-88zM311 755h-87l78 147h118z" />
    <glyph glyph-name="Zcaron" unicode="&#x17d;" horiz-adv-x="565" 
d="M517 612l-338 -503h351v-109h-495v88l338 503h-327v109h471v-88zM282 818l65 84h98l-116 -147h-94l-116 147h99z" />
    <glyph glyph-name="Zdotaccent" unicode="&#x17b;" horiz-adv-x="565" 
d="M517 612l-338 -503h351v-109h-495v88l338 503h-327v109h471v-88zM236 781.5q-19 18.5 -19 46.5q0 27 19 45.5t46 18.5t45.5 -18t18.5 -46t-18.5 -46.5t-45.5 -18.5t-46 18.5z" />
    <glyph glyph-name="aacute" unicode="&#xe1;" horiz-adv-x="515" 
d="M401 461.5q55 -56.5 55 -149.5v-312h-82l-20 57h-5q-21 -27 -57.5 -48t-90.5 -21q-48 0 -87 20.5t-61 55t-22 75.5q0 50 29.5 87.5t83 57.5t122.5 20h81v17q0 45 -25.5 71.5t-68.5 26.5q-38 0 -61 -19.5t-28 -47.5h-110q5 44 29.5 82t68.5 61t102 23q92 0 147 -56.5z
M313 114q34 33 34 79v32h-80q-63 0 -94.5 -20.5t-31.5 -56.5q0 -30 21.5 -48.5t61.5 -18.5q55 0 89 33zM287 566h-84l72 152h114z" />
    <glyph glyph-name="abreve" unicode="&#x103;" horiz-adv-x="515" 
d="M401 461.5q55 -56.5 55 -149.5v-312h-82l-20 57h-5q-21 -27 -57.5 -48t-90.5 -21q-48 0 -87 20.5t-61 55t-22 75.5q0 50 29.5 87.5t83 57.5t122.5 20h81v17q0 45 -25.5 71.5t-68.5 26.5q-38 0 -61 -19.5t-28 -47.5h-110q5 44 29.5 82t68.5 61t102 23q92 0 147 -56.5z
M313 114q34 33 34 79v32h-80q-63 0 -94.5 -20.5t-31.5 -56.5q0 -30 21.5 -48.5t61.5 -18.5q55 0 89 33zM152 612.5q-41 39.5 -46 98.5h80q4 -29 21.5 -47.5t49.5 -18.5t49.5 18.5t21.5 47.5h80q-5 -59 -46 -98.5t-105 -39.5t-105 39.5z" />
    <glyph glyph-name="acircumflex" unicode="&#xe2;" horiz-adv-x="515" 
d="M401 461.5q55 -56.5 55 -149.5v-312h-82l-20 57h-5q-21 -27 -57.5 -48t-90.5 -21q-48 0 -87 20.5t-61 55t-22 75.5q0 50 29.5 87.5t83 57.5t122.5 20h81v17q0 45 -25.5 71.5t-68.5 26.5q-38 0 -61 -19.5t-28 -47.5h-110q5 44 29.5 82t68.5 61t102 23q92 0 147 -56.5z
M313 114q34 33 34 79v32h-80q-63 0 -94.5 -20.5t-31.5 -56.5q0 -30 21.5 -48.5t61.5 -18.5q55 0 89 33zM304 718l110 -152h-97l-61 89l-61 -89h-94l110 152h93z" />
    <glyph glyph-name="adieresis" unicode="&#xe4;" horiz-adv-x="515" 
d="M401 461.5q55 -56.5 55 -149.5v-312h-82l-20 57h-5q-21 -27 -57.5 -48t-90.5 -21q-48 0 -87 20.5t-61 55t-22 75.5q0 50 29.5 87.5t83 57.5t122.5 20h81v17q0 45 -25.5 71.5t-68.5 26.5q-38 0 -61 -19.5t-28 -47.5h-110q5 44 29.5 82t68.5 61t102 23q92 0 147 -56.5z
M313 114q34 33 34 79v32h-80q-63 0 -94.5 -20.5t-31.5 -56.5q0 -30 21.5 -48.5t61.5 -18.5q55 0 89 33zM127 598.5q-18 17.5 -18 42.5q0 26 17.5 43t42.5 17t42.5 -17t17.5 -43q0 -25 -17.5 -42.5t-42.5 -17.5q-24 0 -42 17.5zM303 598.5q-18 17.5 -18 42.5q0 26 17.5 43
t42.5 17t42.5 -17t17.5 -43q0 -25 -17.5 -42.5t-42.5 -17.5q-24 0 -42 17.5z" />
    <glyph glyph-name="agrave" unicode="&#xe0;" horiz-adv-x="515" 
d="M401 461.5q55 -56.5 55 -149.5v-312h-82l-20 57h-5q-21 -27 -57.5 -48t-90.5 -21q-48 0 -87 20.5t-61 55t-22 75.5q0 50 29.5 87.5t83 57.5t122.5 20h81v17q0 45 -25.5 71.5t-68.5 26.5q-38 0 -61 -19.5t-28 -47.5h-110q5 44 29.5 82t68.5 61t102 23q92 0 147 -56.5z
M313 114q34 33 34 79v32h-80q-63 0 -94.5 -20.5t-31.5 -56.5q0 -30 21.5 -48.5t61.5 -18.5q55 0 89 33zM311 566h-84l-103 152h115z" />
    <glyph glyph-name="amacron" unicode="&#x101;" horiz-adv-x="515" 
d="M401 461.5q55 -56.5 55 -149.5v-312h-82l-20 57h-5q-21 -27 -57.5 -48t-90.5 -21q-48 0 -87 20.5t-61 55t-22 75.5q0 50 29.5 87.5t83 57.5t122.5 20h81v17q0 45 -25.5 71.5t-68.5 26.5q-38 0 -61 -19.5t-28 -47.5h-110q5 44 29.5 82t68.5 61t102 23q92 0 147 -56.5z
M313 114q34 33 34 79v32h-80q-63 0 -94.5 -20.5t-31.5 -56.5q0 -30 21.5 -48.5t61.5 -18.5q55 0 89 33zM398 602h-281v80h281v-80z" />
    <glyph glyph-name="aogonek" unicode="&#x105;" horiz-adv-x="515" 
d="M456 0q-86 -48 -86 -103q0 -23 14 -35.5t38 -12.5q19 0 34 6v-64q-23 -7 -50 -7q-51 0 -81.5 27t-30.5 72q0 36 21 66.5t58 52.5l-19 55h-5q-21 -27 -57.5 -48t-90.5 -21q-48 0 -87 20.5t-61 55t-22 75.5q0 50 29.5 87.5t83 57.5t122.5 20h81v17q0 45 -25.5 71.5
t-68.5 26.5q-38 0 -61 -19.5t-28 -47.5h-110q5 44 29.5 82t68.5 61t102 23q92 0 147 -56.5t55 -149.5v-312zM313 114q34 33 34 79v32h-80q-63 0 -94.5 -20.5t-31.5 -56.5q0 -30 21.5 -48.5t61.5 -18.5q55 0 89 33z" />
    <glyph glyph-name="aring" unicode="&#xe5;" horiz-adv-x="515" 
d="M401 461.5q55 -56.5 55 -149.5v-312h-82l-20 57h-5q-21 -27 -57.5 -48t-90.5 -21q-48 0 -87 20.5t-61 55t-22 75.5q0 50 29.5 87.5t83 57.5t122.5 20h81v17q0 45 -25.5 71.5t-68.5 26.5q-38 0 -61 -19.5t-28 -47.5h-110q5 44 29.5 82t68.5 61t102 23q92 0 147 -56.5z
M313 114q34 33 34 79v32h-80q-63 0 -94.5 -20.5t-31.5 -56.5q0 -30 21.5 -48.5t61.5 -18.5q55 0 89 33zM183.5 582q-29.5 29 -29.5 71t29.5 70.5t73.5 28.5q45 0 74.5 -28.5t29.5 -70.5t-29.5 -71t-74.5 -29q-44 0 -73.5 29zM287 622.5q12 11.5 12 30.5t-12 30.5t-30 11.5
t-30 -11.5t-12 -30.5t12 -30.5t30 -11.5t30 11.5z" />
    <glyph glyph-name="aringacute" unicode="&#x1fb;" horiz-adv-x="515" 
d="M401 461.5q55 -56.5 55 -149.5v-312h-82l-20 57h-5q-21 -27 -57.5 -48t-90.5 -21q-48 0 -87 20.5t-61 55t-22 75.5q0 50 29.5 87.5t83 57.5t122.5 20h81v17q0 45 -25.5 71.5t-68.5 26.5q-38 0 -61 -19.5t-28 -47.5h-110q5 44 29.5 82t68.5 61t102 23q92 0 147 -56.5z
M313 114q34 33 34 79v32h-80q-63 0 -94.5 -20.5t-31.5 -56.5q0 -30 21.5 -48.5t61.5 -18.5q55 0 89 33zM297 766h-79l65 134h109zM184.5 583.5q-29.5 28.5 -29.5 69.5t29.5 69.5t72.5 28.5t72.5 -28.5t29.5 -69.5t-29.5 -69.5t-72.5 -28.5t-72.5 28.5zM287 623q12 12 12 30
t-12 30t-30 12q-19 0 -30.5 -12t-11.5 -30t11.5 -30t30.5 -12q18 0 30 12z" />
    <glyph glyph-name="atilde" unicode="&#xe3;" horiz-adv-x="515" 
d="M401 461.5q55 -56.5 55 -149.5v-312h-82l-20 57h-5q-21 -27 -57.5 -48t-90.5 -21q-48 0 -87 20.5t-61 55t-22 75.5q0 50 29.5 87.5t83 57.5t122.5 20h81v17q0 45 -25.5 71.5t-68.5 26.5q-38 0 -61 -19.5t-28 -47.5h-110q5 44 29.5 82t68.5 61t102 23q92 0 147 -56.5z
M313 114q34 33 34 79v32h-80q-63 0 -94.5 -20.5t-31.5 -56.5q0 -30 21.5 -48.5t61.5 -18.5q55 0 89 33zM282 583.5q-16 9.5 -37 28.5q-12 12 -21.5 18.5t-19.5 6.5q-16 0 -27 -15.5t-11 -42.5h-71q0 65 27 99.5t70 34.5q24 0 40 -9.5t37 -28.5q12 -12 21.5 -18.5t19.5 -6.5
q16 0 27 15.5t11 42.5h71q0 -65 -27 -99.5t-70 -34.5q-24 0 -40 9.5z" />
    <glyph glyph-name="ae" unicode="&#xe6;" horiz-adv-x="832" 
d="M792 217h-347q8 -61 42 -95.5t84 -34.5q65 0 96 53h114q-22 -64 -76.5 -108t-129.5 -44q-60 0 -106 27.5t-68 69.5q-24 -44 -71.5 -70.5t-120.5 -26.5q-55 0 -95.5 20.5t-61.5 54.5t-21 74q0 74 62.5 117.5t174.5 43.5h79v24q0 45 -25.5 71t-67.5 26q-39 0 -61.5 -19.5
t-28.5 -47.5h-110q5 44 30 82t69 61t104 23q53 0 93.5 -26t59.5 -60q23 37 65 61.5t99 24.5q63 0 114 -32t80.5 -89.5t29.5 -132.5q0 -26 -6 -47zM491 386.5q-34 -32.5 -44 -89.5h245q-8 55 -40 88.5t-81 33.5q-46 0 -80 -32.5zM314 113.5q33 32.5 33 84.5v21h-78
q-63 0 -95.5 -19.5t-32.5 -55.5q0 -28 21.5 -45.5t61.5 -17.5q57 0 90 32.5z" />
    <glyph glyph-name="aeacute" unicode="&#x1fd;" horiz-adv-x="832" 
d="M792 217h-347q8 -61 42 -95.5t84 -34.5q65 0 96 53h114q-22 -64 -76.5 -108t-129.5 -44q-60 0 -106 27.5t-68 69.5q-24 -44 -71.5 -70.5t-120.5 -26.5q-55 0 -95.5 20.5t-61.5 54.5t-21 74q0 74 62.5 117.5t174.5 43.5h79v24q0 45 -25.5 71t-67.5 26q-39 0 -61.5 -19.5
t-28.5 -47.5h-110q5 44 30 82t69 61t104 23q53 0 93.5 -26t59.5 -60q23 37 65 61.5t99 24.5q63 0 114 -32t80.5 -89.5t29.5 -132.5q0 -26 -6 -47zM491 386.5q-34 -32.5 -44 -89.5h245q-8 55 -40 88.5t-81 33.5q-46 0 -80 -32.5zM314 113.5q33 32.5 33 84.5v21h-78
q-63 0 -95.5 -19.5t-32.5 -55.5q0 -28 21.5 -45.5t61.5 -17.5q57 0 90 32.5zM446 566h-84l72 152h114z" />
    <glyph glyph-name="cacute" unicode="&#x107;" horiz-adv-x="549" 
d="M160.5 23.5q-57.5 35.5 -91.5 96.5t-34 133q0 73 34 133.5t91.5 96t125.5 35.5q60 0 110 -28t82 -73.5t42 -96.5h-110q-11 37 -43 66.5t-81 29.5q-39 0 -71.5 -21t-51.5 -58t-19 -84t19 -84t51.5 -58t71.5 -21q49 0 81 29.5t43 66.5h110q-10 -51 -42 -96.5t-82 -73.5
t-110 -28q-68 0 -125.5 35.5zM314 566h-84l72 152h114z" />
    <glyph glyph-name="ccaron" unicode="&#x10d;" horiz-adv-x="549" 
d="M160.5 23.5q-57.5 35.5 -91.5 96.5t-34 133q0 73 34 133.5t91.5 96t125.5 35.5q60 0 110 -28t82 -73.5t42 -96.5h-110q-11 37 -43 66.5t-81 29.5q-39 0 -71.5 -21t-51.5 -58t-19 -84t19 -84t51.5 -58t71.5 -21q49 0 81 29.5t43 66.5h110q-10 -51 -42 -96.5t-82 -73.5
t-110 -28q-68 0 -125.5 35.5zM285 629l60 89h96l-110 -152h-93l-110 152h96z" />
    <glyph glyph-name="ccedilla" unicode="&#xe7;" horiz-adv-x="549" 
d="M367 119.5q32 29.5 43 66.5h110q-10 -48 -40 -92t-76 -73t-103 -33l-13 -29q44 -3 69.5 -26t25.5 -58q0 -42 -30 -66.5t-92 -24.5q-39 0 -68 11v58q25 -7 54 -7q61 0 61 32q0 15 -14 23.5t-45 8.5q-21 0 -39 -5l35 87q-59 10 -107 47t-75.5 93t-27.5 121q0 73 34 133.5
t91.5 96t125.5 35.5q60 0 110 -28t82 -73.5t42 -96.5h-110q-11 37 -43 66.5t-81 29.5q-39 0 -71.5 -21t-51.5 -58t-19 -84t19 -84t51.5 -58t71.5 -21q49 0 81 29.5z" />
    <glyph glyph-name="ccircumflex" unicode="&#x109;" horiz-adv-x="549" 
d="M160.5 23.5q-57.5 35.5 -91.5 96.5t-34 133q0 73 34 133.5t91.5 96t125.5 35.5q60 0 110 -28t82 -73.5t42 -96.5h-110q-11 37 -43 66.5t-81 29.5q-39 0 -71.5 -21t-51.5 -58t-19 -84t19 -84t51.5 -58t71.5 -21q49 0 81 29.5t43 66.5h110q-10 -51 -42 -96.5t-82 -73.5
t-110 -28q-68 0 -125.5 35.5zM332 718l110 -152h-97l-61 89l-61 -89h-94l110 152h93z" />
    <glyph glyph-name="cdotaccent" unicode="&#x10b;" horiz-adv-x="549" 
d="M160.5 23.5q-57.5 35.5 -91.5 96.5t-34 133q0 73 34 133.5t91.5 96t125.5 35.5q60 0 110 -28t82 -73.5t42 -96.5h-110q-11 37 -43 66.5t-81 29.5q-39 0 -71.5 -21t-51.5 -58t-19 -84t19 -84t51.5 -58t71.5 -21q49 0 81 29.5t43 66.5h110q-10 -51 -42 -96.5t-82 -73.5
t-110 -28q-68 0 -125.5 35.5zM239 595.5q-19 18.5 -19 45.5q0 28 19 46.5t46 18.5t45.5 -18.5t18.5 -46.5q0 -27 -18.5 -45.5t-45.5 -18.5t-46 18.5z" />
    <glyph glyph-name="eth" unicode="&#xf0;" horiz-adv-x="579" 
d="M393 623q67 -62 104 -149t37 -186q0 -95 -32.5 -162.5t-89.5 -102.5t-129 -35q-69 0 -126 32t-89.5 88.5t-32.5 125.5t32 125.5t86 89t117 32.5q54 0 91.5 -20.5t53.5 -42.5h5q-25 88 -101 153l-87 -61l-46 61l64 45q-49 25 -110 39l30 82q85 -16 161 -65l92 65l46 -60z
M352.5 105.5q31.5 18.5 50 52t18.5 76.5t-18.5 76.5t-50 52.5t-69.5 19t-70 -18.5t-50.5 -52.5t-18.5 -77t18.5 -76.5t50.5 -52t70 -18.5t69.5 18.5z" />
    <glyph glyph-name="dcaron" unicode="&#x10f;" horiz-adv-x="595" 
d="M152.5 22.5q-53.5 34.5 -85.5 95t-32 135.5t32 135.5t85.5 95t115.5 34.5q35 0 65.5 -11.5t50.5 -27t27 -26.5h5v247h110v-700h-82l-20 57h-5q-16 -22 -57 -45.5t-94 -23.5q-62 0 -115.5 34.5zM348 110.5q31 20.5 49.5 58t18.5 84.5t-18.5 84.5t-49.5 58t-68 20.5
t-68 -20.5t-49.5 -58t-18.5 -84.5t18.5 -84.5t49.5 -58t68 -20.5t68 20.5zM639 551h-70l32 149h104z" />
    <glyph glyph-name="dcroat" unicode="&#x111;" horiz-adv-x="609" 
d="M603 632v-85h-77v-547h-82l-20 57h-5q-17 -23 -56 -46t-95 -23q-64 0 -117.5 33t-84.5 91t-31 129q0 70 31 127t84.5 90t117.5 33q54 0 92 -22.5t51 -42.5h5v121h-168v85h168v68h110v-68h77zM377.5 132.5q38.5 42.5 38.5 108.5t-38.5 108.5t-97.5 42.5t-97.5 -42.5
t-38.5 -108.5t38.5 -108.5t97.5 -42.5t97.5 42.5z" />
    <glyph glyph-name="eacute" unicode="&#xe9;" horiz-adv-x="560" 
d="M520 210h-375q10 -57 48 -90t92 -33q39 0 66 15t43 38h114q-15 -38 -46.5 -73t-77 -57t-98.5 -22q-69 0 -126.5 35t-91 95.5t-33.5 134.5q0 73 34 133.5t91.5 96t124.5 35.5t122 -33.5t87 -91.5t32 -129q0 -32 -6 -54zM194 384.5q-39 -34.5 -49 -91.5h274q-9 56 -46 91
t-88 35q-52 0 -91 -34.5zM313 566h-84l72 152h114z" />
    <glyph glyph-name="ebreve" unicode="&#x115;" horiz-adv-x="560" 
d="M520 210h-375q10 -57 48 -90t92 -33q39 0 66 15t43 38h114q-15 -38 -46.5 -73t-77 -57t-98.5 -22q-69 0 -126.5 35t-91 95.5t-33.5 134.5q0 73 34 133.5t91.5 96t124.5 35.5t122 -33.5t87 -91.5t32 -129q0 -32 -6 -54zM194 384.5q-39 -34.5 -49 -91.5h274q-9 56 -46 91
t-88 35q-52 0 -91 -34.5zM178 612.5q-41 39.5 -46 98.5h80q4 -29 21.5 -47.5t49.5 -18.5t49.5 18.5t21.5 47.5h80q-5 -59 -46 -98.5t-105 -39.5t-105 39.5z" />
    <glyph glyph-name="ecaron" unicode="&#x11b;" horiz-adv-x="560" 
d="M520 210h-375q10 -57 48 -90t92 -33q39 0 66 15t43 38h114q-15 -38 -46.5 -73t-77 -57t-98.5 -22q-69 0 -126.5 35t-91 95.5t-33.5 134.5q0 73 34 133.5t91.5 96t124.5 35.5t122 -33.5t87 -91.5t32 -129q0 -32 -6 -54zM194 384.5q-39 -34.5 -49 -91.5h274q-9 56 -46 91
t-88 35q-52 0 -91 -34.5zM284 629l60 89h96l-110 -152h-93l-110 152h96z" />
    <glyph glyph-name="ecircumflex" unicode="&#xea;" horiz-adv-x="560" 
d="M520 210h-375q10 -57 48 -90t92 -33q39 0 66 15t43 38h114q-15 -38 -46.5 -73t-77 -57t-98.5 -22q-69 0 -126.5 35t-91 95.5t-33.5 134.5q0 73 34 133.5t91.5 96t124.5 35.5t122 -33.5t87 -91.5t32 -129q0 -32 -6 -54zM194 384.5q-39 -34.5 -49 -91.5h274q-9 56 -46 91
t-88 35q-52 0 -91 -34.5zM330 718l110 -152h-97l-61 89l-61 -89h-94l110 152h93z" />
    <glyph glyph-name="edieresis" unicode="&#xeb;" horiz-adv-x="560" 
d="M520 210h-375q10 -57 48 -90t92 -33q39 0 66 15t43 38h114q-15 -38 -46.5 -73t-77 -57t-98.5 -22q-69 0 -126.5 35t-91 95.5t-33.5 134.5q0 73 34 133.5t91.5 96t124.5 35.5t122 -33.5t87 -91.5t32 -129q0 -32 -6 -54zM194 384.5q-39 -34.5 -49 -91.5h274q-9 56 -46 91
t-88 35q-52 0 -91 -34.5zM153 598.5q-18 17.5 -18 42.5q0 26 17.5 43t42.5 17t42.5 -17t17.5 -43q0 -25 -17.5 -42.5t-42.5 -17.5q-24 0 -42 17.5zM329 598.5q-18 17.5 -18 42.5q0 26 17.5 43t42.5 17t42.5 -17t17.5 -43q0 -25 -17.5 -42.5t-42.5 -17.5q-24 0 -42 17.5z" />
    <glyph glyph-name="edotaccent" unicode="&#x117;" horiz-adv-x="560" 
d="M520 210h-375q10 -57 48 -90t92 -33q39 0 66 15t43 38h114q-15 -38 -46.5 -73t-77 -57t-98.5 -22q-69 0 -126.5 35t-91 95.5t-33.5 134.5q0 73 34 133.5t91.5 96t124.5 35.5t122 -33.5t87 -91.5t32 -129q0 -32 -6 -54zM194 384.5q-39 -34.5 -49 -91.5h274q-9 56 -46 91
t-88 35q-52 0 -91 -34.5zM238 595.5q-19 18.5 -19 45.5q0 28 19 46.5t46 18.5t45.5 -18.5t18.5 -46.5q0 -27 -18.5 -45.5t-45.5 -18.5t-46 18.5z" />
    <glyph glyph-name="egrave" unicode="&#xe8;" horiz-adv-x="560" 
d="M520 210h-375q10 -57 48 -90t92 -33q39 0 66 15t43 38h114q-15 -38 -46.5 -73t-77 -57t-98.5 -22q-69 0 -126.5 35t-91 95.5t-33.5 134.5q0 73 34 133.5t91.5 96t124.5 35.5t122 -33.5t87 -91.5t32 -129q0 -32 -6 -54zM194 384.5q-39 -34.5 -49 -91.5h274q-9 56 -46 91
t-88 35q-52 0 -91 -34.5zM337 566h-84l-103 152h115z" />
    <glyph glyph-name="emacron" unicode="&#x113;" horiz-adv-x="560" 
d="M520 210h-375q10 -57 48 -90t92 -33q39 0 66 15t43 38h114q-15 -38 -46.5 -73t-77 -57t-98.5 -22q-69 0 -126.5 35t-91 95.5t-33.5 134.5q0 73 34 133.5t91.5 96t124.5 35.5t122 -33.5t87 -91.5t32 -129q0 -32 -6 -54zM194 384.5q-39 -34.5 -49 -91.5h274q-9 56 -46 91
t-88 35q-52 0 -91 -34.5zM424 602h-281v80h281v-80z" />
    <glyph glyph-name="eogonek" unicode="&#x119;" horiz-adv-x="560" 
d="M520 210h-375q10 -57 48 -90t92 -33q39 0 66 15t43 38h114q-17 -49 -75 -103q-85 -79 -85 -140q0 -23 14 -35.5t38 -12.5q19 0 34 6v-63q-22 -8 -50 -8q-51 0 -81.5 27t-30.5 72q0 62 57 109q-19 -4 -43 -4q-69 0 -126.5 35t-91 95.5t-33.5 134.5q0 73 34 133.5t91.5 96
t124.5 35.5t122 -33.5t87 -91.5t32 -129q0 -32 -6 -54zM194 384.5q-39 -34.5 -49 -91.5h274q-9 56 -46 91t-88 35q-52 0 -91 -34.5z" />
    <glyph glyph-name="uni0259" unicode="&#x259;" horiz-adv-x="560" 
d="M401 483q58 -35 91.5 -95.5t33.5 -134.5q0 -72 -34 -133t-91.5 -96.5t-124.5 -35.5t-122 33.5t-87 92t-32 129.5q0 35 5 53h375q-10 57 -48 90t-92 33q-39 0 -66 -15t-43 -38h-114q15 38 46.5 73t77 57t98.5 22q69 0 127 -35zM366.5 121.5q38.5 34.5 48.5 91.5h-274
q9 -56 46 -91t89 -35t90.5 34.5z" />
    <glyph glyph-name="uni01F5" unicode="&#x1f5;" horiz-adv-x="580" 
d="M166 -164.5q-49 25.5 -75.5 62t-34.5 71.5h112q11 -26 40.5 -43t73.5 -17q57 0 91 32t34 88v55h-5q-15 -21 -52 -43.5t-86 -22.5q-61 0 -114 33t-84 90.5t-31 126.5t31 126.5t84 90.5t114 33q52 0 90.5 -23t54.5 -45h5l21 56h82v-476q0 -101 -63 -160.5t-170 -59.5
q-69 0 -118 25.5zM341 136.5q30 19.5 48 54.5t18 77q0 43 -18 77.5t-48 54t-65 19.5q-36 0 -66 -19.5t-48 -54t-18 -77.5t18 -77.5t48 -54t66 -19.5q35 0 65 19.5zM320 566h-84l72 152h114z" />
    <glyph glyph-name="gbreve" unicode="&#x11f;" horiz-adv-x="580" 
d="M166 -164.5q-49 25.5 -75.5 62t-34.5 71.5h112q11 -26 40.5 -43t73.5 -17q57 0 91 32t34 88v55h-5q-15 -21 -52 -43.5t-86 -22.5q-61 0 -114 33t-84 90.5t-31 126.5t31 126.5t84 90.5t114 33q52 0 90.5 -23t54.5 -45h5l21 56h82v-476q0 -101 -63 -160.5t-170 -59.5
q-69 0 -118 25.5zM341 136.5q30 19.5 48 54.5t18 77q0 43 -18 77.5t-48 54t-65 19.5q-36 0 -66 -19.5t-48 -54t-18 -77.5t18 -77.5t48 -54t66 -19.5q35 0 65 19.5zM185 612.5q-41 39.5 -46 98.5h80q4 -29 21.5 -47.5t49.5 -18.5t49.5 18.5t21.5 47.5h80q-5 -59 -46 -98.5
t-105 -39.5t-105 39.5z" />
    <glyph glyph-name="gcircumflex" unicode="&#x11d;" horiz-adv-x="580" 
d="M166 -164.5q-49 25.5 -75.5 62t-34.5 71.5h112q11 -26 40.5 -43t73.5 -17q57 0 91 32t34 88v55h-5q-15 -21 -52 -43.5t-86 -22.5q-61 0 -114 33t-84 90.5t-31 126.5t31 126.5t84 90.5t114 33q52 0 90.5 -23t54.5 -45h5l21 56h82v-476q0 -101 -63 -160.5t-170 -59.5
q-69 0 -118 25.5zM341 136.5q30 19.5 48 54.5t18 77q0 43 -18 77.5t-48 54t-65 19.5q-36 0 -66 -19.5t-48 -54t-18 -77.5t18 -77.5t48 -54t66 -19.5q35 0 65 19.5zM338 718l110 -152h-97l-61 89l-61 -89h-94l110 152h93z" />
    <glyph glyph-name="uni0123" unicode="&#x123;" horiz-adv-x="580" 
d="M166 -164.5q-49 25.5 -75.5 62t-34.5 71.5h112q11 -26 40.5 -43t73.5 -17q57 0 91 32t34 88v55h-5q-15 -21 -52 -43.5t-86 -22.5q-61 0 -114 33t-84 90.5t-31 126.5t31 126.5t84 90.5t114 33q52 0 90.5 -23t54.5 -45h5l21 56h82v-476q0 -101 -63 -160.5t-170 -59.5
q-69 0 -118 25.5zM341 136.5q30 19.5 48 54.5t18 77q0 43 -18 77.5t-48 54t-65 19.5q-36 0 -66 -19.5t-48 -54t-18 -77.5t18 -77.5t48 -54t66 -19.5q35 0 65 19.5zM338.5 675q18.5 -18 18.5 -45t-19 -45.5t-46 -18.5q-29 0 -48 20t-19 54q0 52 29.5 90t63.5 64l19 -26
q-13 -11 -25.5 -30.5t-16.5 -43.5q25 -1 43.5 -19z" />
    <glyph glyph-name="gdotaccent" unicode="&#x121;" horiz-adv-x="580" 
d="M166 -164.5q-49 25.5 -75.5 62t-34.5 71.5h112q11 -26 40.5 -43t73.5 -17q57 0 91 32t34 88v55h-5q-15 -21 -52 -43.5t-86 -22.5q-61 0 -114 33t-84 90.5t-31 126.5t31 126.5t84 90.5t114 33q52 0 90.5 -23t54.5 -45h5l21 56h82v-476q0 -101 -63 -160.5t-170 -59.5
q-69 0 -118 25.5zM341 136.5q30 19.5 48 54.5t18 77q0 43 -18 77.5t-48 54t-65 19.5q-36 0 -66 -19.5t-48 -54t-18 -77.5t18 -77.5t48 -54t66 -19.5q35 0 65 19.5zM245 595.5q-19 18.5 -19 45.5q0 28 19 46.5t46 18.5t45.5 -18.5t18.5 -46.5q0 -27 -18.5 -45.5t-45.5 -18.5
t-46 18.5z" />
    <glyph glyph-name="hbar" unicode="&#x127;" horiz-adv-x="594" 
d="M440 463.5q45 -27.5 70.5 -78t25.5 -116.5v-269h-110v262q0 56 -32.5 91.5t-83.5 35.5q-52 0 -84.5 -35.5t-32.5 -91.5v-262h-110v547h-77v85h77v68h110v-68h169v-85h-169v-125h5q15 23 53.5 46t87.5 23q56 0 101 -27.5z" />
    <glyph glyph-name="hcircumflex" unicode="&#x125;" horiz-adv-x="580" 
d="M69 0v700h110v-250h5q16 23 54 45.5t87 22.5q56 0 100.5 -27.5t70 -77.5t25.5 -116v-297h-109v289q0 56 -32.5 91.5t-83.5 35.5q-52 0 -84.5 -35.5t-32.5 -91.5v-289h-110zM343 902l116 -147h-99l-65 84l-65 -84h-97l116 147h94z" />
    <glyph glyph-name="dotlessi" unicode="&#x131;" horiz-adv-x="237" 
d="M174 0h-110v506h110v-506z" />
    <glyph glyph-name="iacute" unicode="&#xed;" horiz-adv-x="237" 
d="M174 0h-110v506h110v-506zM149 566h-84l72 152h114z" />
    <glyph glyph-name="ibreve" unicode="&#x12d;" horiz-adv-x="237" 
d="M174 0h-110v506h110v-506zM14 612.5q-41 39.5 -46 98.5h80q4 -29 21.5 -47.5t49.5 -18.5t49.5 18.5t21.5 47.5h80q-5 -59 -46 -98.5t-105 -39.5t-105 39.5z" />
    <glyph glyph-name="icircumflex" unicode="&#xee;" horiz-adv-x="237" 
d="M174 0h-110v506h110v-506zM166 718l110 -152h-97l-61 89l-61 -89h-94l110 152h93z" />
    <glyph glyph-name="idieresis" unicode="&#xef;" horiz-adv-x="237" 
d="M174 0h-110v506h110v-506zM2 598.5q-18 17.5 -18 42.5q0 26 17.5 43t42.5 17t42.5 -17t17.5 -43q0 -25 -17.5 -42.5t-42.5 -17.5q-24 0 -42 17.5zM151 598.5q-18 17.5 -18 42.5q0 26 17.5 43t42.5 17t42.5 -17t17.5 -43q0 -25 -17.5 -42.5t-42.5 -17.5q-24 0 -42 17.5z
" />
    <glyph glyph-name="i.loclTRK" horiz-adv-x="237" 
d="M174 0h-110v506h110v-506zM73 595.5q-19 18.5 -19 45.5q0 28 19 46.5t46 18.5t45.5 -18.5t18.5 -46.5q0 -27 -18.5 -45.5t-45.5 -18.5t-46 18.5z" />
    <glyph glyph-name="igrave" unicode="&#xec;" horiz-adv-x="237" 
d="M174 0h-110v506h110v-506zM173 566h-84l-103 152h115z" />
    <glyph glyph-name="imacron" unicode="&#x12b;" horiz-adv-x="237" 
d="M174 0h-110v506h110v-506zM259 602h-281v80h281v-80z" />
    <glyph glyph-name="iogonek" unicode="&#x12f;" horiz-adv-x="237" 
d="M73 595.5q-19 18.5 -19 45.5q0 28 19 46.5t46 18.5t45.5 -18.5t18.5 -46.5q0 -27 -18.5 -45.5t-45.5 -18.5t-46 18.5zM64 0v506h110v-506h-14q-77 -48 -77 -102q0 -23 13 -36t33 -13q18 0 31 6v-64q-28 -7 -48 -7q-47 0 -76 26.5t-29 71.5q0 37 20 67.5t53 50.5h-16z" />
    <glyph glyph-name="ij" unicode="&#x133;" horiz-adv-x="475" 
d="M174 0h-110v506h110v-506zM73 595.5q-19 18.5 -19 45.5q0 28 19 46.5t46 18.5t45.5 -18.5t18.5 -46.5q0 -27 -18.5 -45.5t-45.5 -18.5t-46 18.5zM191 -175v100q17 -7 36 -7q35 0 54.5 20.5t19.5 60.5v507h110v-515q0 -82 -44 -129t-115 -47q-31 0 -61 10zM311 595.5
q-19 18.5 -19 45.5q0 28 19 46.5t46 18.5t45.5 -18.5t18.5 -46.5q0 -27 -18.5 -45.5t-45.5 -18.5t-46 18.5z" />
    <glyph glyph-name="iacute_j.loclNLD" horiz-adv-x="475" 
d="M174 0h-110v506h110v-506zM149 566h-84l72 152h114zM191 -175v100q17 -7 36 -7q35 0 54.5 20.5t19.5 60.5v507h110v-515q0 -82 -44 -129t-115 -47q-31 0 -61 10zM386 566h-84l72 152h114z" />
    <glyph glyph-name="uni0237" unicode="&#x237;" horiz-adv-x="237" 
d="M-46 -175v100q17 -7 36 -7q35 0 54.5 20.5t19.5 60.5v507h110v-515q0 -82 -44 -129t-115 -47q-31 0 -61 10z" />
    <glyph glyph-name="jcircumflex" unicode="&#x135;" horiz-adv-x="237" 
d="M-46 -175v100q17 -7 36 -7q35 0 54.5 20.5t19.5 60.5v507h110v-515q0 -82 -44 -129t-115 -47q-31 0 -61 10zM166 718l110 -152h-97l-61 89l-61 -89h-94l110 152h93z" />
    <glyph glyph-name="uni0137" unicode="&#x137;" horiz-adv-x="495" 
d="M288 266l217 -266h-137l-189 239v-239h-110v700h110v-418l177 224h127zM320 -90.5q19 -19.5 19 -53.5q0 -85 -91 -155l-20 26q12 10 24.5 30t16.5 44q-26 1 -44 19.5t-18 44.5q0 27 19 45.5t46 18.5q29 0 48 -19.5z" />
    <glyph glyph-name="lacute" unicode="&#x13a;" horiz-adv-x="247" 
d="M179 0h-110v700h110v-700zM153 755h-87l78 147h118z" />
    <glyph glyph-name="lcaron" unicode="&#x13e;" horiz-adv-x="247" 
d="M179 0h-110v700h110v-700zM292 551h-70l32 149h104z" />
    <glyph glyph-name="uni013C" unicode="&#x13c;" horiz-adv-x="247" 
d="M179 0h-110v700h110v-700zM170 -90.5q19 -19.5 19 -53.5q0 -85 -91 -155l-20 26q12 10 24.5 30t16.5 44q-26 1 -44 19.5t-18 44.5q0 27 19 45.5t46 18.5q29 0 48 -19.5z" />
    <glyph glyph-name="ldot" unicode="&#x140;" horiz-adv-x="384" 
d="M179 0h-110v700h110v-700zM265 302.5q-20 20.5 -20 49.5t20 49t50 20t50 -20t20 -49t-20 -49.5t-50 -20.5t-50 20.5z" />
    <glyph glyph-name="lslash" unicode="&#x142;" horiz-adv-x="287" 
d="M198 435l82 55v-98l-82 -54v-338h-110v264l-82 -54v97l82 55v338h110v-265z" />
    <glyph glyph-name="nacute" unicode="&#x144;" horiz-adv-x="575" 
d="M64 0v506h82l20 -56h5q17 23 54.5 45.5t87.5 22.5q59 0 105 -27.5t72 -77.5t26 -116v-297h-109v289q0 56 -32.5 91.5t-83.5 35.5q-52 0 -84.5 -35.5t-32.5 -91.5v-289h-110zM326 566h-84l72 152h114z" />
    <glyph glyph-name="ncaron" unicode="&#x148;" horiz-adv-x="575" 
d="M64 0v506h82l20 -56h5q17 23 54.5 45.5t87.5 22.5q59 0 105 -27.5t72 -77.5t26 -116v-297h-109v289q0 56 -32.5 91.5t-83.5 35.5q-52 0 -84.5 -35.5t-32.5 -91.5v-289h-110zM297 629l60 89h96l-110 -152h-93l-110 152h96z" />
    <glyph glyph-name="uni0146" unicode="&#x146;" horiz-adv-x="575" 
d="M64 0v506h82l20 -56h5q17 23 54.5 45.5t87.5 22.5q59 0 105 -27.5t72 -77.5t26 -116v-297h-109v289q0 56 -32.5 91.5t-83.5 35.5q-52 0 -84.5 -35.5t-32.5 -91.5v-289h-110zM339 -90.5q19 -19.5 19 -53.5q0 -85 -91 -155l-20 26q12 10 24.5 30t16.5 44q-26 1 -44 19.5
t-18 44.5q0 27 19 45.5t46 18.5q29 0 48 -19.5z" />
    <glyph glyph-name="eng" unicode="&#x14b;" horiz-adv-x="575" 
d="M324 -181.5q-17 3.5 -26 7.5v93q17 -5 34 -5q35 0 55 19.5t20 55.5v300q0 56 -32.5 91.5t-83.5 35.5q-52 0 -84.5 -35.5t-32.5 -91.5v-289h-110v506h82l20 -56h5q17 23 54.5 45.5t87.5 22.5q59 0 105 -27.5t72 -77.5t26 -116v-310q0 -79 -43.5 -125.5t-112.5 -46.5
q-19 0 -36 3.5z" />
    <glyph glyph-name="ntilde" unicode="&#xf1;" horiz-adv-x="575" 
d="M64 0v506h82l20 -56h5q17 23 54.5 45.5t87.5 22.5q59 0 105 -27.5t72 -77.5t26 -116v-297h-109v289q0 56 -32.5 91.5t-83.5 35.5q-52 0 -84.5 -35.5t-32.5 -91.5v-289h-110zM321 583.5q-16 9.5 -37 28.5q-12 12 -21.5 18.5t-19.5 6.5q-16 0 -27 -15.5t-11 -42.5h-71
q0 65 27 99.5t70 34.5q24 0 40 -9.5t37 -28.5q12 -12 21.5 -18.5t19.5 -6.5q16 0 27 15.5t11 42.5h71q0 -65 -27 -99.5t-70 -34.5q-24 0 -40 9.5z" />
    <glyph glyph-name="napostrophe" unicode="&#x149;" horiz-adv-x="616" 
d="M105 0v506h82l20 -56h5q17 23 54.5 45.5t87.5 22.5q59 0 105 -27.5t72 -77.5t26 -116v-297h-109v289q0 56 -32.5 91.5t-83.5 35.5q-52 0 -84.5 -35.5t-32.5 -91.5v-289h-110zM85 692q19 -20 19 -53q0 -55 -29 -97t-64 -70l-20 25q36 41 43 87q-26 2 -44 20t-18 44
q0 27 19 45.5t46 18.5q29 0 48 -20z" />
    <glyph glyph-name="oacute" unicode="&#xf3;" horiz-adv-x="572" 
d="M160.5 23.5q-57.5 35.5 -91.5 96.5t-34 133q0 73 34 133.5t91.5 96t125.5 35.5t125.5 -35.5t91.5 -96t34 -133.5q0 -72 -34 -133t-91.5 -96.5t-125.5 -35.5t-125.5 35.5zM357.5 111q32.5 21 51.5 58t19 84t-19 84t-51.5 58t-71.5 21t-71.5 -21t-51.5 -58t-19 -84t19 -84
t51.5 -58t71.5 -21t71.5 21zM316 566h-84l72 152h114z" />
    <glyph glyph-name="obreve" unicode="&#x14f;" horiz-adv-x="572" 
d="M160.5 23.5q-57.5 35.5 -91.5 96.5t-34 133q0 73 34 133.5t91.5 96t125.5 35.5t125.5 -35.5t91.5 -96t34 -133.5q0 -72 -34 -133t-91.5 -96.5t-125.5 -35.5t-125.5 35.5zM357.5 111q32.5 21 51.5 58t19 84t-19 84t-51.5 58t-71.5 21t-71.5 -21t-51.5 -58t-19 -84t19 -84
t51.5 -58t71.5 -21t71.5 21zM181 612.5q-41 39.5 -46 98.5h80q4 -29 21.5 -47.5t49.5 -18.5t49.5 18.5t21.5 47.5h80q-5 -59 -46 -98.5t-105 -39.5t-105 39.5z" />
    <glyph glyph-name="ocircumflex" unicode="&#xf4;" horiz-adv-x="572" 
d="M160.5 23.5q-57.5 35.5 -91.5 96.5t-34 133q0 73 34 133.5t91.5 96t125.5 35.5t125.5 -35.5t91.5 -96t34 -133.5q0 -72 -34 -133t-91.5 -96.5t-125.5 -35.5t-125.5 35.5zM357.5 111q32.5 21 51.5 58t19 84t-19 84t-51.5 58t-71.5 21t-71.5 -21t-51.5 -58t-19 -84t19 -84
t51.5 -58t71.5 -21t71.5 21zM333 718l110 -152h-97l-61 89l-61 -89h-94l110 152h93z" />
    <glyph glyph-name="odieresis" unicode="&#xf6;" horiz-adv-x="572" 
d="M160.5 23.5q-57.5 35.5 -91.5 96.5t-34 133q0 73 34 133.5t91.5 96t125.5 35.5t125.5 -35.5t91.5 -96t34 -133.5q0 -72 -34 -133t-91.5 -96.5t-125.5 -35.5t-125.5 35.5zM357.5 111q32.5 21 51.5 58t19 84t-19 84t-51.5 58t-71.5 21t-71.5 -21t-51.5 -58t-19 -84t19 -84
t51.5 -58t71.5 -21t71.5 21zM156 598.5q-18 17.5 -18 42.5q0 26 17.5 43t42.5 17t42.5 -17t17.5 -43q0 -25 -17.5 -42.5t-42.5 -17.5q-24 0 -42 17.5zM332 598.5q-18 17.5 -18 42.5q0 26 17.5 43t42.5 17t42.5 -17t17.5 -43q0 -25 -17.5 -42.5t-42.5 -17.5q-24 0 -42 17.5z
" />
    <glyph glyph-name="ograve" unicode="&#xf2;" horiz-adv-x="572" 
d="M160.5 23.5q-57.5 35.5 -91.5 96.5t-34 133q0 73 34 133.5t91.5 96t125.5 35.5t125.5 -35.5t91.5 -96t34 -133.5q0 -72 -34 -133t-91.5 -96.5t-125.5 -35.5t-125.5 35.5zM357.5 111q32.5 21 51.5 58t19 84t-19 84t-51.5 58t-71.5 21t-71.5 -21t-51.5 -58t-19 -84t19 -84
t51.5 -58t71.5 -21t71.5 21zM340 566h-84l-103 152h115z" />
    <glyph glyph-name="ohungarumlaut" unicode="&#x151;" horiz-adv-x="572" 
d="M160.5 23.5q-57.5 35.5 -91.5 96.5t-34 133q0 73 34 133.5t91.5 96t125.5 35.5t125.5 -35.5t91.5 -96t34 -133.5q0 -72 -34 -133t-91.5 -96.5t-125.5 -35.5t-125.5 35.5zM357.5 111q32.5 21 51.5 58t19 84t-19 84t-51.5 58t-71.5 21t-71.5 -21t-51.5 -58t-19 -84t19 -84
t51.5 -58t71.5 -21t71.5 21zM247 566h-77l80 152h108zM404 566h-79l80 152h109z" />
    <glyph glyph-name="omacron" unicode="&#x14d;" horiz-adv-x="572" 
d="M160.5 23.5q-57.5 35.5 -91.5 96.5t-34 133q0 73 34 133.5t91.5 96t125.5 35.5t125.5 -35.5t91.5 -96t34 -133.5q0 -72 -34 -133t-91.5 -96.5t-125.5 -35.5t-125.5 35.5zM357.5 111q32.5 21 51.5 58t19 84t-19 84t-51.5 58t-71.5 21t-71.5 -21t-51.5 -58t-19 -84t19 -84
t51.5 -58t71.5 -21t71.5 21zM427 602h-281v80h281v-80z" />
    <glyph glyph-name="oslash" unicode="&#xf8;" horiz-adv-x="572" 
d="M538 457l-48 -50q47 -67 47 -154q0 -72 -34 -133t-91.5 -96.5t-125.5 -35.5q-83 0 -149 52l-46 -47l-56 56l48 49q-48 70 -48 155q0 73 34 133.5t91.5 96t125.5 35.5q84 0 150 -52l45 47zM211.5 400q-33.5 -21 -52.5 -59.5t-19 -87.5q0 -47 17 -84l215 223q-37 29 -86 29
q-41 0 -74.5 -21zM360.5 107q33.5 21 52.5 59t19 87q0 47 -17 84l-214 -223q37 -28 85 -28q41 0 74.5 21z" />
    <glyph glyph-name="oslashacute" unicode="&#x1ff;" horiz-adv-x="572" 
d="M538 457l-48 -50q47 -67 47 -154q0 -72 -34 -133t-91.5 -96.5t-125.5 -35.5q-83 0 -149 52l-46 -47l-56 56l48 49q-48 70 -48 155q0 73 34 133.5t91.5 96t125.5 35.5q84 0 150 -52l45 47zM211.5 400q-33.5 -21 -52.5 -59.5t-19 -87.5q0 -47 17 -84l215 223q-37 29 -86 29
q-41 0 -74.5 -21zM360.5 107q33.5 21 52.5 59t19 87q0 47 -17 84l-214 -223q37 -28 85 -28q41 0 74.5 21zM316 566h-84l72 152h114z" />
    <glyph glyph-name="otilde" unicode="&#xf5;" horiz-adv-x="572" 
d="M160.5 23.5q-57.5 35.5 -91.5 96.5t-34 133q0 73 34 133.5t91.5 96t125.5 35.5t125.5 -35.5t91.5 -96t34 -133.5q0 -72 -34 -133t-91.5 -96.5t-125.5 -35.5t-125.5 35.5zM357.5 111q32.5 21 51.5 58t19 84t-19 84t-51.5 58t-71.5 21t-71.5 -21t-51.5 -58t-19 -84t19 -84
t51.5 -58t71.5 -21t71.5 21zM311 583.5q-16 9.5 -37 28.5q-12 12 -21.5 18.5t-19.5 6.5q-16 0 -27 -15.5t-11 -42.5h-71q0 65 27 99.5t70 34.5q24 0 40 -9.5t37 -28.5q12 -12 21.5 -18.5t19.5 -6.5q16 0 27 15.5t11 42.5h71q0 -65 -27 -99.5t-70 -34.5q-24 0 -40 9.5z" />
    <glyph glyph-name="oe" unicode="&#x153;" horiz-adv-x="902" 
d="M862 215h-354q9 -61 44 -94.5t85 -33.5q34 0 60 15.5t39 37.5h115q-24 -62 -80.5 -107t-130.5 -45q-59 0 -107.5 30.5t-73.5 70.5q-28 -42 -75.5 -71.5t-110.5 -29.5q-64 0 -118.5 34t-87 94.5t-32.5 136.5t32.5 136.5t87 94.5t118.5 34t111 -29.5t75 -71.5
q26 40 74.5 70.5t104.5 30.5q64 0 116.5 -33t83 -92.5t30.5 -134.5q0 -10 -6 -43zM338.5 107q29.5 20 47 57.5t17.5 88.5t-17.5 88.5t-47 57.5t-64.5 20t-64.5 -20t-47.5 -57.5t-18 -88.5t18 -88.5t47.5 -57.5t64.5 -20t64.5 20zM554.5 385.5q-35.5 -33.5 -46.5 -91.5h254
q-8 55 -42 90t-84 35q-46 0 -81.5 -33.5z" />
    <glyph glyph-name="thorn" unicode="&#xfe;" horiz-adv-x="595" 
d="M69 -180v880h110v-246h5q14 20 53.5 42t89.5 22q62 0 115.5 -34.5t85.5 -95t32 -135.5t-32 -135.5t-85.5 -95t-115.5 -34.5q-35 0 -65.5 11.5t-50.5 27t-27 26.5h-5v-233h-110zM383 110.5q31 20.5 49.5 58t18.5 84.5t-18.5 84.5t-49.5 58t-68 20.5t-68 -20.5t-49.5 -58
t-18.5 -84.5t18.5 -84.5t49.5 -58t68 -20.5t68 20.5z" />
    <glyph glyph-name="racute" unicode="&#x155;" horiz-adv-x="349" 
d="M64 0v506h82l20 -56h5q16 23 49 45.5t76 22.5q25 0 42 -4v-110q-19 4 -45 4q-53 0 -86 -34t-33 -94v-280h-110zM229 566h-84l72 152h114z" />
    <glyph glyph-name="rcaron" unicode="&#x159;" horiz-adv-x="349" 
d="M64 0v506h82l20 -56h5q16 23 49 45.5t76 22.5q25 0 42 -4v-110q-19 4 -45 4q-53 0 -86 -34t-33 -94v-280h-110zM200 629l60 89h96l-110 -152h-93l-110 152h96z" />
    <glyph glyph-name="uni0157" unicode="&#x157;" horiz-adv-x="349" 
d="M64 0v506h82l20 -56h5q16 23 49 45.5t76 22.5q25 0 42 -4v-110q-19 4 -45 4q-53 0 -86 -34t-33 -94v-280h-110zM167 -90.5q19 -19.5 19 -53.5q0 -85 -91 -155l-20 26q12 10 24.5 30t16.5 44q-26 1 -44 19.5t-18 44.5q0 27 19 45.5t46 18.5q29 0 48 -19.5z" />
    <glyph glyph-name="sacute" unicode="&#x15b;" horiz-adv-x="458" 
d="M129.5 10.5q-44.5 22.5 -70 60.5t-28.5 83h108q3 -34 28 -54.5t65 -20.5q39 0 60.5 17t21.5 43q0 30 -26 45.5t-82 32.5q-51 16 -83.5 32t-55.5 45t-23 75q0 42 22 76t63.5 53.5t97.5 19.5q54 0 96.5 -21.5t66.5 -58t27 -81.5h-108q-4 33 -24.5 51.5t-57.5 18.5
q-35 0 -54 -15.5t-19 -38.5q0 -28 25 -42.5t79 -30.5q52 -16 85 -32t57 -46t24 -78q0 -68 -51 -112t-141 -44q-58 0 -102.5 22.5zM256 566h-84l72 152h114z" />
    <glyph glyph-name="scaron" unicode="&#x161;" horiz-adv-x="458" 
d="M129.5 10.5q-44.5 22.5 -70 60.5t-28.5 83h108q3 -34 28 -54.5t65 -20.5q39 0 60.5 17t21.5 43q0 30 -26 45.5t-82 32.5q-51 16 -83.5 32t-55.5 45t-23 75q0 42 22 76t63.5 53.5t97.5 19.5q54 0 96.5 -21.5t66.5 -58t27 -81.5h-108q-4 33 -24.5 51.5t-57.5 18.5
q-35 0 -54 -15.5t-19 -38.5q0 -28 25 -42.5t79 -30.5q52 -16 85 -32t57 -46t24 -78q0 -68 -51 -112t-141 -44q-58 0 -102.5 22.5zM227 629l60 89h96l-110 -152h-93l-110 152h96z" />
    <glyph glyph-name="scedilla" unicode="&#x15f;" horiz-adv-x="458" 
d="M378 35.5q-46 -43.5 -129 -47.5l-13 -29q44 -3 69.5 -26t25.5 -58q0 -42 -30 -66.5t-92 -24.5q-39 0 -68 11v58q24 -7 54 -7q61 0 61 32q0 15 -14 23.5t-45 8.5q-21 0 -39 -5l34 86q-71 11 -114.5 56.5t-46.5 106.5h108q3 -34 28 -54.5t65 -20.5q39 0 60.5 17t21.5 43
q0 30 -26 45.5t-82 32.5q-51 16 -83.5 32t-55.5 45t-23 75q0 42 22 76t63.5 53.5t97.5 19.5q54 0 96.5 -21.5t66.5 -58t27 -81.5h-108q-4 33 -24.5 51.5t-57.5 18.5q-35 0 -54 -15.5t-19 -38.5q0 -28 25 -42.5t79 -30.5q52 -16 85 -32t57 -46t24 -78q0 -65 -46 -108.5z" />
    <glyph glyph-name="scircumflex" unicode="&#x15d;" horiz-adv-x="458" 
d="M129.5 10.5q-44.5 22.5 -70 60.5t-28.5 83h108q3 -34 28 -54.5t65 -20.5q39 0 60.5 17t21.5 43q0 30 -26 45.5t-82 32.5q-51 16 -83.5 32t-55.5 45t-23 75q0 42 22 76t63.5 53.5t97.5 19.5q54 0 96.5 -21.5t66.5 -58t27 -81.5h-108q-4 33 -24.5 51.5t-57.5 18.5
q-35 0 -54 -15.5t-19 -38.5q0 -28 25 -42.5t79 -30.5q52 -16 85 -32t57 -46t24 -78q0 -68 -51 -112t-141 -44q-58 0 -102.5 22.5zM274 718l110 -152h-97l-61 89l-61 -89h-94l110 152h93z" />
    <glyph glyph-name="uni0219" unicode="&#x219;" horiz-adv-x="458" 
d="M129.5 10.5q-44.5 22.5 -70 60.5t-28.5 83h108q3 -34 28 -54.5t65 -20.5q39 0 60.5 17t21.5 43q0 30 -26 45.5t-82 32.5q-51 16 -83.5 32t-55.5 45t-23 75q0 42 22 76t63.5 53.5t97.5 19.5q54 0 96.5 -21.5t66.5 -58t27 -81.5h-108q-4 33 -24.5 51.5t-57.5 18.5
q-35 0 -54 -15.5t-19 -38.5q0 -28 25 -42.5t79 -30.5q52 -16 85 -32t57 -46t24 -78q0 -68 -51 -112t-141 -44q-58 0 -102.5 22.5zM284 -90.5q19 -19.5 19 -53.5q0 -85 -91 -155l-20 26q12 10 24.5 30t16.5 44q-26 1 -44 19.5t-18 44.5q0 27 19 45.5t46 18.5q29 0 48 -19.5z
" />
    <glyph glyph-name="germandbls" unicode="&#xdf;" horiz-adv-x="585" 
d="M514.5 312q35.5 -44 35.5 -116q0 -56 -26.5 -100.5t-74.5 -70t-110 -25.5h-67v102h64q48 0 76.5 27t28.5 73q0 47 -29 75t-76 28h-59v98h23q37 0 64 29t27 74q0 47 -29 75.5t-76 28.5q-49 0 -78 -31.5t-29 -87.5v-491h-110v490q0 65 28 115.5t77.5 78.5t110.5 28
q63 0 112 -26t76 -70.5t27 -99.5q0 -49 -21.5 -86t-50.5 -55q51 -19 86.5 -63z" />
    <glyph glyph-name="tbar" unicode="&#x167;" horiz-adv-x="352" 
d="M317 407h-110v-114h106v-71h-106v-49q0 -41 20 -61.5t55 -20.5q21 0 35 7v-100q-26 -10 -60 -10q-71 0 -115 47t-44 129v58h-80v71h80v114h-83v93h36q30 0 45.5 15.5t15.5 44.5v76h95v-130h110v-99z" />
    <glyph glyph-name="tcaron" unicode="&#x165;" horiz-adv-x="352" 
d="M142 35q-44 47 -44 129v243h-83v93h36q30 0 45.5 15.5t15.5 44.5v76h95v-130h110v-99h-110v-234q0 -41 20 -61.5t55 -20.5q21 0 35 7v-100q-26 -10 -60 -10q-71 0 -115 47zM321 551h-70l32 149h104z" />
    <glyph glyph-name="uni0163" unicode="&#x163;" horiz-adv-x="352" 
d="M317 407h-110v-234q0 -41 20 -61.5t55 -20.5q21 0 35 7v-100q-26 -10 -60 -10q-8 0 -24 2l-14 -31q44 -3 69.5 -26t25.5 -58q0 -42 -30 -66.5t-92 -24.5q-39 0 -68 11v58q24 -7 54 -7q61 0 61 32q0 15 -14 23.5t-45 8.5q-21 0 -39 -5l40 101q-39 20 -61 60.5t-22 97.5
v243h-83v93h36q30 0 45.5 15.5t15.5 44.5v76h95v-130h110v-99z" />
    <glyph glyph-name="uni021B" unicode="&#x21b;" horiz-adv-x="352" 
d="M142 35q-44 47 -44 129v243h-83v93h36q30 0 45.5 15.5t15.5 44.5v76h95v-130h110v-99h-110v-234q0 -41 20 -61.5t55 -20.5q21 0 35 7v-100q-26 -10 -60 -10q-71 0 -115 47zM267 -90.5q19 -19.5 19 -53.5q0 -85 -91 -155l-20 26q12 10 24.5 30t16.5 44q-26 1 -44 19.5
t-18 44.5q0 27 19 45.5t46 18.5q29 0 48 -19.5z" />
    <glyph glyph-name="uacute" unicode="&#xfa;" horiz-adv-x="575" 
d="M157 15.5q-46 27.5 -72 77.5t-26 116v297h110v-289q0 -56 32.5 -91.5t82.5 -35.5q52 0 85 35.5t33 91.5v289h109v-506h-82l-20 57h-5q-17 -24 -55 -46.5t-87 -22.5q-59 0 -105 27.5zM315 566h-84l72 152h114z" />
    <glyph glyph-name="uni0289" unicode="&#x289;" horiz-adv-x="614" 
d="M607 358v-83h-76v-275h-82l-21 57h-5q-16 -23 -54 -46t-88 -23q-59 0 -105 27.5t-72 77.5t-26 116v66h-77v83h77v148h110v-148h233v148h110v-148h76zM421 275h-233v-58q0 -56 32.5 -91.5t82.5 -35.5q52 0 85 35.5t33 91.5v58z" />
    <glyph glyph-name="ubreve" unicode="&#x16d;" horiz-adv-x="575" 
d="M157 15.5q-46 27.5 -72 77.5t-26 116v297h110v-289q0 -56 32.5 -91.5t82.5 -35.5q52 0 85 35.5t33 91.5v289h109v-506h-82l-20 57h-5q-17 -24 -55 -46.5t-87 -22.5q-59 0 -105 27.5zM180 612.5q-41 39.5 -46 98.5h80q4 -29 21.5 -47.5t49.5 -18.5t49.5 18.5t21.5 47.5h80
q-5 -59 -46 -98.5t-105 -39.5t-105 39.5z" />
    <glyph glyph-name="ucircumflex" unicode="&#xfb;" horiz-adv-x="575" 
d="M157 15.5q-46 27.5 -72 77.5t-26 116v297h110v-289q0 -56 32.5 -91.5t82.5 -35.5q52 0 85 35.5t33 91.5v289h109v-506h-82l-20 57h-5q-17 -24 -55 -46.5t-87 -22.5q-59 0 -105 27.5zM332 718l110 -152h-97l-61 89l-61 -89h-94l110 152h93z" />
    <glyph glyph-name="udieresis" unicode="&#xfc;" horiz-adv-x="575" 
d="M157 15.5q-46 27.5 -72 77.5t-26 116v297h110v-289q0 -56 32.5 -91.5t82.5 -35.5q52 0 85 35.5t33 91.5v289h109v-506h-82l-20 57h-5q-17 -24 -55 -46.5t-87 -22.5q-59 0 -105 27.5zM155 598.5q-18 17.5 -18 42.5q0 26 17.5 43t42.5 17t42.5 -17t17.5 -43
q0 -25 -17.5 -42.5t-42.5 -17.5q-24 0 -42 17.5zM331 598.5q-18 17.5 -18 42.5q0 26 17.5 43t42.5 17t42.5 -17t17.5 -43q0 -25 -17.5 -42.5t-42.5 -17.5q-24 0 -42 17.5z" />
    <glyph glyph-name="ugrave" unicode="&#xf9;" horiz-adv-x="575" 
d="M157 15.5q-46 27.5 -72 77.5t-26 116v297h110v-289q0 -56 32.5 -91.5t82.5 -35.5q52 0 85 35.5t33 91.5v289h109v-506h-82l-20 57h-5q-17 -24 -55 -46.5t-87 -22.5q-59 0 -105 27.5zM339 566h-84l-103 152h115z" />
    <glyph glyph-name="uhungarumlaut" unicode="&#x171;" horiz-adv-x="575" 
d="M157 15.5q-46 27.5 -72 77.5t-26 116v297h110v-289q0 -56 32.5 -91.5t82.5 -35.5q52 0 85 35.5t33 91.5v289h109v-506h-82l-20 57h-5q-17 -24 -55 -46.5t-87 -22.5q-59 0 -105 27.5zM246 566h-77l80 152h108zM403 566h-79l80 152h109z" />
    <glyph glyph-name="umacron" unicode="&#x16b;" horiz-adv-x="575" 
d="M157 15.5q-46 27.5 -72 77.5t-26 116v297h110v-289q0 -56 32.5 -91.5t82.5 -35.5q52 0 85 35.5t33 91.5v289h109v-506h-82l-20 57h-5q-17 -24 -55 -46.5t-87 -22.5q-59 0 -105 27.5zM426 602h-281v80h281v-80z" />
    <glyph glyph-name="uogonek" unicode="&#x173;" horiz-adv-x="575" 
d="M511 0q-86 -48 -86 -103q0 -23 14 -35.5t38 -12.5q19 0 34 6v-64q-23 -7 -50 -7q-51 0 -81.5 27t-30.5 72q0 36 21 66.5t58 52.5l-19 55h-5q-17 -24 -55 -46.5t-87 -22.5q-59 0 -105 27.5t-72 77.5t-26 116v297h110v-289q0 -56 32.5 -91.5t82.5 -35.5q52 0 85 35.5
t33 91.5v289h109v-506z" />
    <glyph glyph-name="uring" unicode="&#x16f;" horiz-adv-x="575" 
d="M157 15.5q-46 27.5 -72 77.5t-26 116v297h110v-289q0 -56 32.5 -91.5t82.5 -35.5q52 0 85 35.5t33 91.5v289h109v-506h-82l-20 57h-5q-17 -24 -55 -46.5t-87 -22.5q-59 0 -105 27.5zM211.5 582q-29.5 29 -29.5 71t29.5 70.5t73.5 28.5q45 0 74.5 -28.5t29.5 -70.5
t-29.5 -71t-74.5 -29q-44 0 -73.5 29zM315 622.5q12 11.5 12 30.5t-12 30.5t-30 11.5t-30 -11.5t-12 -30.5t12 -30.5t30 -11.5t30 11.5z" />
    <glyph glyph-name="wacute" unicode="&#x1e83;" horiz-adv-x="725" 
d="M508 162l106 344h109l-167 -506h-91l-103 321l-101 -321h-91l-167 506h113l105 -342l109 342h69zM394 566h-84l72 152h114z" />
    <glyph glyph-name="wcircumflex" unicode="&#x175;" horiz-adv-x="725" 
d="M508 162l106 344h109l-167 -506h-91l-103 321l-101 -321h-91l-167 506h113l105 -342l109 342h69zM412 718l110 -152h-97l-61 89l-61 -89h-94l110 152h93z" />
    <glyph glyph-name="wdieresis" unicode="&#x1e85;" horiz-adv-x="725" 
d="M508 162l106 344h109l-167 -506h-91l-103 321l-101 -321h-91l-167 506h113l105 -342l109 342h69zM234 598.5q-18 17.5 -18 42.5q0 26 17.5 43t42.5 17t42.5 -17t17.5 -43q0 -25 -17.5 -42.5t-42.5 -17.5q-24 0 -42 17.5zM410 598.5q-18 17.5 -18 42.5q0 26 17.5 43
t42.5 17t42.5 -17t17.5 -43q0 -25 -17.5 -42.5t-42.5 -17.5q-24 0 -42 17.5z" />
    <glyph glyph-name="wgrave" unicode="&#x1e81;" horiz-adv-x="725" 
d="M508 162l106 344h109l-167 -506h-91l-103 321l-101 -321h-91l-167 506h113l105 -342l109 342h69zM418 566h-84l-103 152h115z" />
    <glyph glyph-name="yacute" unicode="&#xfd;" horiz-adv-x="502" 
d="M386 506h113l-210 -534q-35 -87 -72.5 -122t-87.5 -35q-30 0 -54 10v100q14 -7 34 -7q29 0 48.5 14.5t32.5 48.5l12 32l-199 493h118l135 -359zM283 566h-84l72 152h114z" />
    <glyph glyph-name="ycircumflex" unicode="&#x177;" horiz-adv-x="502" 
d="M386 506h113l-210 -534q-35 -87 -72.5 -122t-87.5 -35q-30 0 -54 10v100q14 -7 34 -7q29 0 48.5 14.5t32.5 48.5l12 32l-199 493h118l135 -359zM301 718l110 -152h-97l-61 89l-61 -89h-94l110 152h93z" />
    <glyph glyph-name="ydieresis" unicode="&#xff;" horiz-adv-x="502" 
d="M386 506h113l-210 -534q-35 -87 -72.5 -122t-87.5 -35q-30 0 -54 10v100q14 -7 34 -7q29 0 48.5 14.5t32.5 48.5l12 32l-199 493h118l135 -359zM124 598.5q-18 17.5 -18 42.5q0 26 17.5 43t42.5 17t42.5 -17t17.5 -43q0 -25 -17.5 -42.5t-42.5 -17.5q-24 0 -42 17.5z
M300 598.5q-18 17.5 -18 42.5q0 26 17.5 43t42.5 17t42.5 -17t17.5 -43q0 -25 -17.5 -42.5t-42.5 -17.5q-24 0 -42 17.5z" />
    <glyph glyph-name="ygrave" unicode="&#x1ef3;" horiz-adv-x="502" 
d="M386 506h113l-210 -534q-35 -87 -72.5 -122t-87.5 -35q-30 0 -54 10v100q14 -7 34 -7q29 0 48.5 14.5t32.5 48.5l12 32l-199 493h118l135 -359zM308 566h-84l-103 152h115z" />
    <glyph glyph-name="uni0233" unicode="&#x233;" horiz-adv-x="502" 
d="M386 506h113l-210 -534q-35 -87 -72.5 -122t-87.5 -35q-30 0 -54 10v100q14 -7 34 -7q29 0 48.5 14.5t32.5 48.5l12 32l-199 493h118l135 -359zM394 602h-281v80h281v-80z" />
    <glyph glyph-name="zacute" unicode="&#x17a;" horiz-adv-x="441" 
d="M403 416l-244 -317h252v-99h-381v90l244 317h-239v99h368v-90zM249 566h-84l72 152h114z" />
    <glyph glyph-name="zcaron" unicode="&#x17e;" horiz-adv-x="441" 
d="M403 416l-244 -317h252v-99h-381v90l244 317h-239v99h368v-90zM220 629l60 89h96l-110 -152h-93l-110 152h96z" />
    <glyph glyph-name="zdotaccent" unicode="&#x17c;" horiz-adv-x="441" 
d="M403 416l-244 -317h252v-99h-381v90l244 317h-239v99h368v-90zM174 595.5q-19 18.5 -19 45.5q0 28 19 46.5t46 18.5t45.5 -18.5t18.5 -46.5q0 -27 -18.5 -45.5t-45.5 -18.5t-46 18.5z" />
    <glyph glyph-name="a.sc" horiz-adv-x="580" 
d="M583 0h-121l-47 131h-253l-47 -131h-119l233 610h122zM378 235l-90 253l-89 -253h179z" />
    <glyph glyph-name="b.sc" horiz-adv-x="579" 
d="M512 273q35 -36 35 -101q0 -48 -24.5 -87.5t-70 -62t-104.5 -22.5h-278v610h263q56 0 98 -21t65 -56.5t23 -78.5q0 -52 -26 -84t-61 -47q45 -14 80 -50zM186 510v-146h137q34 0 57 20t23 54q0 33 -22.5 52.5t-57.5 19.5h-137zM337 100q41 0 67.5 23t26.5 62
q0 38 -26.5 61.5t-67.5 23.5h-151v-170h151z" />
    <glyph glyph-name="c.sc" horiz-adv-x="660" 
d="M187.5 30.5q-70.5 42.5 -111.5 115t-41 159.5t41 159.5t111.5 115t153.5 42.5q77 0 137 -32t98 -84.5t51 -113.5h-119q-17 51 -59.5 86t-107.5 35q-53 0 -96.5 -27t-68.5 -74.5t-25 -106.5t25 -106.5t68.5 -74.5t96.5 -27q68 0 111 35t60 86h119q-13 -61 -51 -113.5
t-99 -84.5t-140 -32q-83 0 -153.5 42.5z" />
    <glyph glyph-name="d.sc" horiz-adv-x="620" 
d="M70 0v610h196q92 0 164.5 -39.5t113.5 -109t41 -156.5t-41 -156.5t-113.5 -109t-164.5 -39.5h-196zM266 108q58 0 104.5 25.5t72.5 70.5t26 101t-26 101t-72.5 70.5t-104.5 25.5h-80v-394h80z" />
    <glyph glyph-name="e.sc" horiz-adv-x="534" 
d="M186 262v-155h312v-107h-428v610h418v-107h-302v-138h279v-103h-279z" />
    <glyph glyph-name="f.sc" horiz-adv-x="512" 
d="M485 610v-107h-299v-164h265v-103h-265v-236h-116v610h415z" />
    <glyph glyph-name="g.sc" horiz-adv-x="691" 
d="M355 317h276v-317h-67l-17 85q-26 -38 -79 -67.5t-131 -29.5q-81 0 -150.5 42.5t-110.5 115.5t-41 159q0 87 41 159.5t111.5 115t153.5 42.5q75 0 134 -30.5t95.5 -78.5t49.5 -102h-115q-16 43 -57.5 74t-106.5 31q-54 0 -97.5 -27t-69 -75.5t-25.5 -108.5
q0 -61 25.5 -109t69.5 -75t99 -27q47 0 84 18t60 47t28 63h-160v95z" />
    <glyph glyph-name="h.sc" horiz-adv-x="640" 
d="M454 367v243h116v-610h-116v259h-268v-259h-116v610h116v-243h268z" />
    <glyph glyph-name="i.sc" horiz-adv-x="256" 
d="M186 0h-116v610h116v-610z" />
    <glyph glyph-name="j.sc" horiz-adv-x="501" 
d="M109.5 15q-49.5 27 -76.5 72t-27 95h115q2 -37 28.5 -61t70.5 -24q47 0 73.5 30t26.5 85v398h116v-397q0 -65 -27 -116t-76 -80t-112 -29q-62 0 -111.5 27z" />
    <glyph glyph-name="k.sc" horiz-adv-x="546" 
d="M306 314l251 -314h-145l-226 293v-293h-116v610h116v-283l216 283h136z" />
    <glyph glyph-name="l.sc" horiz-adv-x="489" 
d="M481 0h-411v610h116v-505h295v-105z" />
    <glyph glyph-name="m.sc" horiz-adv-x="786" 
d="M395 152l217 458h104v-610h-113v374l-180 -374h-60l-180 374v-374h-113v610h108z" />
    <glyph glyph-name="n.sc" horiz-adv-x="649" 
d="M466 186v424h113v-610h-105l-291 423v-423h-113v610h105z" />
    <glyph glyph-name="o.sc" horiz-adv-x="682" 
d="M187.5 30.5q-70.5 42.5 -111.5 115t-41 159.5t41 159.5t111.5 115t153.5 42.5t153.5 -42.5t111.5 -115t41 -159.5t-41 -159.5t-111.5 -115t-153.5 -42.5t-153.5 42.5zM437.5 124q43.5 27 68.5 74.5t25 106.5t-25 106.5t-68.5 74.5t-96.5 27t-96.5 -27t-68.5 -74.5
t-25 -106.5t25 -106.5t68.5 -74.5t96.5 -27t96.5 27z" />
    <glyph glyph-name="p.sc" horiz-adv-x="552" 
d="M305 610q62 0 112 -27t78.5 -73.5t28.5 -103.5t-28.5 -104t-78.5 -74t-112 -27h-119v-201h-116v610h235zM303 308q46 0 75.5 27.5t29.5 70.5q0 42 -29.5 69.5t-75.5 27.5h-117v-195h117z" />
    <glyph glyph-name="q.sc" horiz-adv-x="682" 
d="M629.5 200q-17.5 -51 -48.5 -92l63 -62l-64 -64l-64 63q-37 -27 -82 -42t-93 -15q-83 0 -153.5 42.5t-111.5 115t-41 159.5t41 159.5t111.5 115t153.5 42.5t153.5 -42.5t111.5 -115t41 -159.5q0 -54 -17.5 -105zM440 121l-77 76l64 65l77 -76q31 51 31 119
q0 60 -25.5 108.5t-70 76t-98.5 27.5t-98.5 -27.5t-70 -76t-25.5 -108.5t25.5 -108.5t70 -76t98.5 -27.5t99 28z" />
    <glyph glyph-name="r.sc" horiz-adv-x="574" 
d="M421 0l-127 216h-108v-216h-116v610h251q64 0 113 -25.5t76 -70t27 -101.5q0 -64 -34.5 -111.5t-93.5 -69.5l144 -232h-132zM186 504v-185h133q47 0 74.5 25t27.5 68t-27.5 67.5t-74.5 24.5h-133z" />
    <glyph glyph-name="s.sc" horiz-adv-x="521" 
d="M143.5 14q-52.5 26 -81 70t-31.5 98h116q2 -39 34.5 -65.5t83.5 -26.5q50 0 77 21.5t27 54.5q0 26 -17 43.5t-42.5 29t-70.5 27.5q-61 20 -99 39t-65.5 55t-27.5 92q0 47 25 85.5t73 61.5t112 23q61 0 109.5 -24.5t77 -67.5t31.5 -97h-115q-4 40 -32 63.5t-71 23.5
q-44 0 -69 -20.5t-25 -49.5q0 -24 16 -40.5t40.5 -27t68.5 -24.5q62 -20 101.5 -39t67.5 -56t28 -95q0 -51 -26 -92t-75.5 -64.5t-117.5 -23.5q-70 0 -122.5 26z" />
    <glyph glyph-name="t.sc" horiz-adv-x="506" 
d="M311 0h-116v502h-182v108h480v-108h-182v-502z" />
    <glyph glyph-name="u.sc" horiz-adv-x="638" 
d="M187 21q-58 33 -90 92t-32 134v363h116v-363q0 -69 37.5 -109.5t100.5 -40.5t100.5 40.5t37.5 109.5v363h116v-363q0 -75 -32 -134t-90 -92t-132 -33t-132 33z" />
    <glyph glyph-name="v.sc" horiz-adv-x="575" 
d="M289 134l163 476h118l-220 -610h-126l-219 610h121z" />
    <glyph glyph-name="w.sc" horiz-adv-x="817" 
d="M579 181l119 429h114l-185 -610h-90l-128 419l-129 -419h-90l-185 610h118l118 -430l129 430h80z" />
    <glyph glyph-name="x.sc" horiz-adv-x="556" 
d="M353 311l198 -311h-132l-142 233l-143 -233h-129l199 311l-188 299h132l132 -220l131 220h129z" />
    <glyph glyph-name="y.sc" horiz-adv-x="533" 
d="M269 339l142 271h123l-210 -382v-228h-116v228l-210 382h128z" />
    <glyph glyph-name="z.sc" horiz-adv-x="523" 
d="M480 519l-307 -411h320v-108h-463v91l306 411h-295v108h439v-91z" />
    <glyph glyph-name="aacute.sc" horiz-adv-x="580" 
d="M583 0h-121l-47 131h-253l-47 -131h-119l233 610h122zM378 235l-90 253l-89 -253h179zM319 665h-87l78 147h118z" />
    <glyph glyph-name="abreve.sc" horiz-adv-x="580" 
d="M583 0h-121l-47 131h-253l-47 -131h-119l233 610h122zM378 235l-90 253l-89 -253h179zM183 709q-42 39 -47 98h83q3 -27 21 -45.5t50 -18.5t49.5 18t21.5 46h83q-5 -59 -47.5 -98t-106.5 -39q-65 0 -107 39z" />
    <glyph glyph-name="acircumflex.sc" horiz-adv-x="580" 
d="M583 0h-121l-47 131h-253l-47 -131h-119l233 610h122zM378 235l-90 253l-89 -253h179zM337 812l116 -147h-99l-65 84l-65 -84h-97l116 147h94z" />
    <glyph glyph-name="adieresis.sc" horiz-adv-x="580" 
d="M583 0h-121l-47 131h-253l-47 -131h-119l233 610h122zM378 235l-90 253l-89 -253h179zM151 695q-18 18 -18 43t18 42.5t43 17.5q24 0 42 -17.5t18 -42.5t-18 -43t-42 -18q-25 0 -43 18zM342.5 695q-18.5 18 -18.5 43t18.5 42.5t42.5 17.5q25 0 43 -17.5t18 -42.5t-18 -43
t-43 -18q-24 0 -42.5 18z" />
    <glyph glyph-name="agrave.sc" horiz-adv-x="580" 
d="M583 0h-121l-47 131h-253l-47 -131h-119l233 610h122zM378 235l-90 253l-89 -253h179zM347 665h-87l-109 147h118z" />
    <glyph glyph-name="amacron.sc" horiz-adv-x="580" 
d="M583 0h-121l-47 131h-253l-47 -131h-119l233 610h122zM378 235l-90 253l-89 -253h179zM434 696h-290v84h290v-84z" />
    <glyph glyph-name="aogonek.sc" horiz-adv-x="580" 
d="M511 -138.5q14 -12.5 38 -12.5q19 0 34 6v-64q-23 -7 -50 -7q-51 0 -81.5 27t-30.5 72q0 34 20 64.5t55 52.5h-34l-47 131h-253l-47 -131h-119l233 610h122l232 -610q-86 -48 -86 -103q0 -23 14 -35.5zM378 235l-90 253l-89 -253h179z" />
    <glyph glyph-name="aring.sc" horiz-adv-x="580" 
d="M583 0h-121l-47 131h-253l-47 -131h-119l233 610h122zM378 235l-90 253l-89 -253h179zM214 696q-30 29 -30 71t30 71t75 29t75 -29t30 -71t-30 -71t-75 -29t-75 29zM319 737.5q12 11.5 12 29.5t-12 29.5t-30 11.5q-17 0 -29 -11.5t-12 -29.5t11.5 -29.5t29.5 -11.5
t30 11.5z" />
    <glyph glyph-name="aringacute.sc" horiz-adv-x="580" 
d="M583 0h-121l-47 131h-253l-47 -131h-119l233 610h122zM378 235l-90 253l-89 -253h179zM331 870h-83l67 129h110zM214 686q-30 29 -30 71t30 71t75 29t75 -29t30 -71t-30 -71t-75 -29t-75 29zM319 727.5q12 11.5 12 29.5t-12 29.5t-30 11.5q-17 0 -29 -11.5t-12 -29.5
t11.5 -29.5t29.5 -11.5t30 11.5z" />
    <glyph glyph-name="atilde.sc" horiz-adv-x="580" 
d="M583 0h-121l-47 131h-253l-47 -131h-119l233 610h122zM378 235l-90 253l-89 -253h179zM312 680.5q-18 9.5 -37 26.5q-14 12 -22.5 17t-19.5 5q-16 0 -27 -14.5t-11 -38.5h-72q0 62 28 95.5t71 33.5q28 0 46 -9.5t36 -26.5q12 -11 21 -16.5t20 -5.5q16 0 27.5 14.5
t11.5 38.5h72q0 -63 -28 -96t-71 -33q-27 0 -45 9.5z" />
    <glyph glyph-name="ae.sc" horiz-adv-x="804" 
d="M484 262v-155h284v-107h-397v131h-211l-71 -131h-125l340 610h454v-107h-274v-138h251v-103h-251zM361 503l-145 -268h155v268h-10z" />
    <glyph glyph-name="aeacute.sc" horiz-adv-x="804" 
d="M484 262v-155h284v-107h-397v131h-211l-71 -131h-125l340 610h454v-107h-274v-138h251v-103h-251zM361 503l-145 -268h155v268h-10zM457 665h-87l78 147h118z" />
    <glyph glyph-name="cacute.sc" horiz-adv-x="660" 
d="M187.5 30.5q-70.5 42.5 -111.5 115t-41 159.5t41 159.5t111.5 115t153.5 42.5q77 0 137 -32t98 -84.5t51 -113.5h-119q-17 51 -59.5 86t-107.5 35q-53 0 -96.5 -27t-68.5 -74.5t-25 -106.5t25 -106.5t68.5 -74.5t96.5 -27q68 0 111 35t60 86h119q-13 -61 -51 -113.5
t-99 -84.5t-140 -32q-83 0 -153.5 42.5zM371 665h-87l78 147h118z" />
    <glyph glyph-name="ccaron.sc" horiz-adv-x="660" 
d="M187.5 30.5q-70.5 42.5 -111.5 115t-41 159.5t41 159.5t111.5 115t153.5 42.5q77 0 137 -32t98 -84.5t51 -113.5h-119q-17 51 -59.5 86t-107.5 35q-53 0 -96.5 -27t-68.5 -74.5t-25 -106.5t25 -106.5t68.5 -74.5t96.5 -27q68 0 111 35t60 86h119q-13 -61 -51 -113.5
t-99 -84.5t-140 -32q-83 0 -153.5 42.5zM342 728l65 84h98l-116 -147h-94l-116 147h99z" />
    <glyph glyph-name="ccedilla.sc" horiz-adv-x="660" 
d="M631 218q-12 -59 -48 -110t-93.5 -83.5t-131.5 -36.5l-13 -29q44 -3 69.5 -26t25.5 -58q0 -42 -30 -66.5t-92 -24.5q-39 0 -68 11v58q25 -7 54 -7q61 0 61 32q0 15 -14 23.5t-45 8.5q-21 0 -39 -5l34 86q-74 10 -135 54t-96 112t-35 148q0 87 41 159.5t111.5 115
t153.5 42.5q77 0 137 -32t98 -84.5t51 -113.5h-119q-17 51 -59.5 86t-107.5 35q-53 0 -96.5 -27t-68.5 -74.5t-25 -106.5t25 -106.5t68.5 -74.5t96.5 -27q68 0 111 35t60 86h119z" />
    <glyph glyph-name="ccircumflex.sc" horiz-adv-x="660" 
d="M187.5 30.5q-70.5 42.5 -111.5 115t-41 159.5t41 159.5t111.5 115t153.5 42.5q77 0 137 -32t98 -84.5t51 -113.5h-119q-17 51 -59.5 86t-107.5 35q-53 0 -96.5 -27t-68.5 -74.5t-25 -106.5t25 -106.5t68.5 -74.5t96.5 -27q68 0 111 35t60 86h119q-13 -61 -51 -113.5
t-99 -84.5t-140 -32q-83 0 -153.5 42.5zM389 812l116 -147h-99l-65 84l-65 -84h-97l116 147h94z" />
    <glyph glyph-name="cdotaccent.sc" horiz-adv-x="660" 
d="M187.5 30.5q-70.5 42.5 -111.5 115t-41 159.5t41 159.5t111.5 115t153.5 42.5q77 0 137 -32t98 -84.5t51 -113.5h-119q-17 51 -59.5 86t-107.5 35q-53 0 -96.5 -27t-68.5 -74.5t-25 -106.5t25 -106.5t68.5 -74.5t96.5 -27q68 0 111 35t60 86h119q-13 -61 -51 -113.5
t-99 -84.5t-140 -32q-83 0 -153.5 42.5zM296 691.5q-19 18.5 -19 46.5q0 27 19 45.5t46 18.5t45.5 -18t18.5 -46t-18.5 -46.5t-45.5 -18.5t-46 18.5z" />
    <glyph glyph-name="eth.sc" horiz-adv-x="642" 
d="M288 610q92 0 164.5 -39.5t113.5 -109t41 -156.5t-41 -156.5t-113.5 -109t-164.5 -39.5h-196v258h-81v95h81v257h196zM288 108q59 0 105 25.5t72 70.5t26 101t-26 101t-72 70.5t-105 25.5h-80v-149h123v-95h-123v-150h80z" />
    <glyph glyph-name="dcaron.sc" horiz-adv-x="620" 
d="M70 0v610h196q92 0 164.5 -39.5t113.5 -109t41 -156.5t-41 -156.5t-113.5 -109t-164.5 -39.5h-196zM266 108q58 0 104.5 25.5t72.5 70.5t26 101t-26 101t-72.5 70.5t-104.5 25.5h-80v-394h80zM301 728l65 84h98l-116 -147h-94l-116 147h99z" />
    <glyph glyph-name="dcroat.sc" horiz-adv-x="642" 
d="M288 610q92 0 164.5 -39.5t113.5 -109t41 -156.5t-41 -156.5t-113.5 -109t-164.5 -39.5h-196v258h-81v95h81v257h196zM288 108q59 0 105 25.5t72 70.5t26 101t-26 101t-72 70.5t-105 25.5h-80v-149h123v-95h-123v-150h80z" />
    <glyph glyph-name="eacute.sc" horiz-adv-x="534" 
d="M186 262v-155h312v-107h-428v610h418v-107h-302v-138h279v-103h-279zM309 665h-87l78 147h118z" />
    <glyph glyph-name="ebreve.sc" horiz-adv-x="534" 
d="M186 262v-155h312v-107h-428v610h418v-107h-302v-138h279v-103h-279zM172 709q-42 39 -47 98h83q3 -27 21 -45.5t50 -18.5t49.5 18t21.5 46h83q-5 -59 -47.5 -98t-106.5 -39q-65 0 -107 39z" />
    <glyph glyph-name="ecaron.sc" horiz-adv-x="534" 
d="M186 262v-155h312v-107h-428v610h418v-107h-302v-138h279v-103h-279zM279 728l65 84h98l-116 -147h-94l-116 147h99z" />
    <glyph glyph-name="ecircumflex.sc" horiz-adv-x="534" 
d="M186 262v-155h312v-107h-428v610h418v-107h-302v-138h279v-103h-279zM327 812l116 -147h-99l-65 84l-65 -84h-97l116 147h94z" />
    <glyph glyph-name="edieresis.sc" horiz-adv-x="534" 
d="M186 262v-155h312v-107h-428v610h418v-107h-302v-138h279v-103h-279zM141 695q-18 18 -18 43t18 42.5t43 17.5q24 0 42 -17.5t18 -42.5t-18 -43t-42 -18q-25 0 -43 18zM332.5 695q-18.5 18 -18.5 43t18.5 42.5t42.5 17.5q25 0 43 -17.5t18 -42.5t-18 -43t-43 -18
q-24 0 -42.5 18z" />
    <glyph glyph-name="edotaccent.sc" horiz-adv-x="534" 
d="M186 262v-155h312v-107h-428v610h418v-107h-302v-138h279v-103h-279zM234 691.5q-19 18.5 -19 46.5q0 27 19 45.5t46 18.5t45.5 -18t18.5 -46t-18.5 -46.5t-45.5 -18.5t-46 18.5z" />
    <glyph glyph-name="egrave.sc" horiz-adv-x="534" 
d="M186 262v-155h312v-107h-428v610h418v-107h-302v-138h279v-103h-279zM336 665h-87l-109 147h118z" />
    <glyph glyph-name="emacron.sc" horiz-adv-x="534" 
d="M186 262v-155h312v-107h-428v610h418v-107h-302v-138h279v-103h-279zM424 696h-290v84h290v-84z" />
    <glyph glyph-name="eogonek.sc" horiz-adv-x="534" 
d="M498 0q-86 -48 -86 -103q0 -23 14 -35.5t38 -12.5q19 0 34 6v-64q-23 -7 -50 -7q-51 0 -81.5 27t-30.5 72q0 34 20 64.5t55 52.5h-341v610h418v-107h-302v-138h279v-103h-279v-155h312v-107z" />
    <glyph glyph-name="uni0259.sc" horiz-adv-x="674" 
d="M486 579.5q71 -42.5 112.5 -115.5t41.5 -159t-41.5 -159t-112.5 -115.5t-154 -42.5q-82 0 -150 41.5t-107.5 113.5t-39.5 161q0 15 2 37h487q-11 79 -64.5 127t-127.5 48q-60 0 -101 -27.5t-60 -69.5h-117q18 55 56 101t95 74t127 28q83 0 154 -42.5zM452 136
q51 42 68 112h-366q5 -43 28.5 -78t62.5 -55.5t87 -20.5q69 0 120 42z" />
    <glyph glyph-name="uni01F5.sc" horiz-adv-x="691" 
d="M355 317h276v-317h-67l-17 85q-26 -38 -79 -67.5t-131 -29.5q-81 0 -150.5 42.5t-110.5 115.5t-41 159q0 87 41 159.5t111.5 115t153.5 42.5q75 0 134 -30.5t95.5 -78.5t49.5 -102h-115q-16 43 -57.5 74t-106.5 31q-54 0 -97.5 -27t-69 -75.5t-25.5 -108.5
q0 -61 25.5 -109t69.5 -75t99 -27q47 0 84 18t60 47t28 63h-160v95zM369 665h-87l78 147h118z" />
    <glyph glyph-name="gbreve.sc" horiz-adv-x="691" 
d="M355 317h276v-317h-67l-17 85q-26 -38 -79 -67.5t-131 -29.5q-81 0 -150.5 42.5t-110.5 115.5t-41 159q0 87 41 159.5t111.5 115t153.5 42.5q75 0 134 -30.5t95.5 -78.5t49.5 -102h-115q-16 43 -57.5 74t-106.5 31q-54 0 -97.5 -27t-69 -75.5t-25.5 -108.5
q0 -61 25.5 -109t69.5 -75t99 -27q47 0 84 18t60 47t28 63h-160v95zM233 709q-42 39 -47 98h83q3 -27 21 -45.5t50 -18.5t49.5 18t21.5 46h83q-5 -59 -47.5 -98t-106.5 -39q-65 0 -107 39z" />
    <glyph glyph-name="gcircumflex.sc" horiz-adv-x="691" 
d="M355 317h276v-317h-67l-17 85q-26 -38 -79 -67.5t-131 -29.5q-81 0 -150.5 42.5t-110.5 115.5t-41 159q0 87 41 159.5t111.5 115t153.5 42.5q75 0 134 -30.5t95.5 -78.5t49.5 -102h-115q-16 43 -57.5 74t-106.5 31q-54 0 -97.5 -27t-69 -75.5t-25.5 -108.5
q0 -61 25.5 -109t69.5 -75t99 -27q47 0 84 18t60 47t28 63h-160v95zM387 812l116 -147h-99l-65 84l-65 -84h-97l116 147h94z" />
    <glyph glyph-name="uni0123.sc" horiz-adv-x="691" 
d="M355 317h276v-317h-67l-17 85q-26 -38 -79 -67.5t-131 -29.5q-81 0 -150.5 42.5t-110.5 115.5t-41 159q0 87 41 159.5t111.5 115t153.5 42.5q75 0 134 -30.5t95.5 -78.5t49.5 -102h-115q-16 43 -57.5 74t-106.5 31q-54 0 -97.5 -27t-69 -75.5t-25.5 -108.5
q0 -61 25.5 -109t69.5 -75t99 -27q47 0 84 18t60 47t28 63h-160v95zM385 -90.5q19 -19.5 19 -53.5q0 -85 -91 -155l-20 26q12 10 24.5 30t16.5 44q-26 1 -44 19.5t-18 44.5q0 27 19 45.5t46 18.5q29 0 48 -19.5z" />
    <glyph glyph-name="gdotaccent.sc" horiz-adv-x="691" 
d="M355 317h276v-317h-67l-17 85q-26 -38 -79 -67.5t-131 -29.5q-81 0 -150.5 42.5t-110.5 115.5t-41 159q0 87 41 159.5t111.5 115t153.5 42.5q75 0 134 -30.5t95.5 -78.5t49.5 -102h-115q-16 43 -57.5 74t-106.5 31q-54 0 -97.5 -27t-69 -75.5t-25.5 -108.5
q0 -61 25.5 -109t69.5 -75t99 -27q47 0 84 18t60 47t28 63h-160v95zM294 691.5q-19 18.5 -19 46.5q0 27 19 45.5t46 18.5t45.5 -18t18.5 -46t-18.5 -46.5t-45.5 -18.5t-46 18.5z" />
    <glyph glyph-name="hbar.sc" horiz-adv-x="684" 
d="M592 539h82v-95h-82v-444h-116v259h-268v-259h-116v444h-81v95h81v71h116v-74h268v74h116v-71zM208 447v-80h268v80h-268z" />
    <glyph glyph-name="hcircumflex.sc" horiz-adv-x="640" 
d="M454 367v243h116v-610h-116v259h-268v-259h-116v610h116v-243h268zM368 812l116 -147h-99l-65 84l-65 -84h-97l116 147h94z" />
    <glyph glyph-name="iacute.sc" horiz-adv-x="256" 
d="M186 0h-116v610h116v-610zM158 665h-87l78 147h118z" />
    <glyph glyph-name="ibreve.sc" horiz-adv-x="256" 
d="M186 0h-116v610h116v-610zM22 709q-42 39 -47 98h83q3 -27 21 -45.5t50 -18.5t49.5 18t21.5 46h83q-5 -59 -47.5 -98t-106.5 -39q-65 0 -107 39z" />
    <glyph glyph-name="icircumflex.sc" horiz-adv-x="256" 
d="M186 0h-116v610h116v-610zM176 812l116 -147h-99l-65 84l-65 -84h-97l116 147h94z" />
    <glyph glyph-name="idieresis.sc" horiz-adv-x="256" 
d="M186 0h-116v610h116v-610zM4 695q-18 18 -18 43t18 42.5t43 17.5q24 0 42 -17.5t18 -42.5t-18 -43t-42 -18q-25 0 -43 18zM167 695q-18 18 -18 43t18 42.5t43 17.5q24 0 42 -17.5t18 -42.5t-18 -43t-42 -18q-25 0 -43 18z" />
    <glyph glyph-name="i.sc.loclTRK" horiz-adv-x="256" 
d="M186 0h-116v610h116v-610zM83 691.5q-19 18.5 -19 46.5q0 27 19 45.5t46 18.5t45.5 -18t18.5 -46t-18.5 -46.5t-45.5 -18.5t-46 18.5z" />
    <glyph glyph-name="igrave.sc" horiz-adv-x="256" 
d="M186 0h-116v610h116v-610zM186 665h-87l-109 147h118z" />
    <glyph glyph-name="imacron.sc" horiz-adv-x="256" 
d="M186 0h-116v610h116v-610zM273 696h-290v84h290v-84z" />
    <glyph glyph-name="iogonek.sc" horiz-adv-x="256" 
d="M186 0q-77 -48 -77 -102q0 -23 13 -36t33 -13q18 0 31 6v-64q-28 -7 -48 -7q-47 0 -76 26.5t-29 71.5q0 37 20 67.5t53 50.5h-36v610h116v-610z" />
    <glyph glyph-name="ij.sc" horiz-adv-x="757" 
d="M186 0h-116v610h116v-610zM365.5 15q-49.5 27 -76.5 72t-27 95h115q2 -37 28.5 -61t70.5 -24q47 0 73.5 30t26.5 85v398h116v-397q0 -65 -27 -116t-76 -80t-112 -29q-62 0 -111.5 27z" />
    <glyph glyph-name="iacute_j.loclNLD.sc" horiz-adv-x="757" 
d="M186 0h-116v610h116v-610zM158 665h-87l78 147h118zM365.5 15q-49.5 27 -76.5 72t-27 95h115q2 -37 28.5 -61t70.5 -24q47 0 73.5 30t26.5 85v398h116v-397q0 -65 -27 -116t-76 -80t-112 -29q-62 0 -111.5 27zM664 665h-87l78 147h118z" />
    <glyph glyph-name="jcircumflex.sc" horiz-adv-x="501" 
d="M109.5 15q-49.5 27 -76.5 72t-27 95h115q2 -37 28.5 -61t70.5 -24q47 0 73.5 30t26.5 85v398h116v-397q0 -65 -27 -116t-76 -80t-112 -29q-62 0 -111.5 27zM426 812l116 -147h-99l-65 84l-65 -84h-97l116 147h94z" />
    <glyph glyph-name="uni0137.sc" horiz-adv-x="546" 
d="M306 314l251 -314h-145l-226 293v-293h-116v610h116v-283l216 283h136zM346 -90.5q19 -19.5 19 -53.5q0 -85 -91 -155l-20 26q12 10 24.5 30t16.5 44q-26 1 -44 19.5t-18 44.5q0 27 19 45.5t46 18.5q29 0 48 -19.5z" />
    <glyph glyph-name="lacute.sc" horiz-adv-x="489" 
d="M481 0h-411v610h116v-505h295v-105zM158 665h-87l78 147h118z" />
    <glyph glyph-name="lcaron.sc" horiz-adv-x="489" 
d="M481 0h-411v610h116v-505h295v-105zM299 461h-70l32 149h104z" />
    <glyph glyph-name="uni013C.sc" horiz-adv-x="489" 
d="M481 0h-411v610h116v-505h295v-105zM322 -90.5q19 -19.5 19 -53.5q0 -85 -91 -155l-20 26q12 10 24.5 30t16.5 44q-26 1 -44 19.5t-18 44.5q0 27 19 45.5t46 18.5q29 0 48 -19.5z" />
    <glyph glyph-name="ldot.sc" horiz-adv-x="489" 
d="M481 0h-411v610h116v-505h295v-105zM323 299.5q-20 20.5 -20 49.5t20 49t50 20t50 -20t20 -49t-20 -49.5t-50 -20.5t-50 20.5z" />
    <glyph glyph-name="lslash.sc" horiz-adv-x="511" 
d="M208 271v-166h295v-105h-411v200l-81 -49v104l81 49v306h116v-236l139 84v-103z" />
    <glyph glyph-name="nacute.sc" horiz-adv-x="649" 
d="M466 186v424h113v-610h-105l-291 423v-423h-113v610h105zM359 665h-87l78 147h118z" />
    <glyph glyph-name="ncaron.sc" horiz-adv-x="649" 
d="M466 186v424h113v-610h-105l-291 423v-423h-113v610h105zM330 728l65 84h98l-116 -147h-94l-116 147h99z" />
    <glyph glyph-name="uni0146.sc" horiz-adv-x="649" 
d="M466 186v424h113v-610h-105l-291 423v-423h-113v610h105zM376 -90.5q19 -19.5 19 -53.5q0 -85 -91 -155l-20 26q12 10 24.5 30t16.5 44q-26 1 -44 19.5t-18 44.5q0 27 19 45.5t46 18.5q29 0 48 -19.5z" />
    <glyph glyph-name="eng.sc" horiz-adv-x="649" 
d="M466 610h113v-625q0 -96 -43.5 -144.5t-121.5 -48.5q-34 0 -69 11v99q23 -7 45 -7q76 0 76 91v26l-283 411v-423h-113v610h105l291 -424v424z" />
    <glyph glyph-name="ntilde.sc" horiz-adv-x="649" 
d="M466 186v424h113v-610h-105l-291 423v-423h-113v610h105zM352 680.5q-18 9.5 -37 26.5q-14 12 -22.5 17t-19.5 5q-16 0 -27 -14.5t-11 -38.5h-72q0 62 28 95.5t71 33.5q28 0 46 -9.5t36 -26.5q12 -11 21 -16.5t20 -5.5q16 0 27.5 14.5t11.5 38.5h72q0 -63 -28 -96
t-71 -33q-27 0 -45 9.5z" />
    <glyph glyph-name="oacute.sc" horiz-adv-x="682" 
d="M187.5 30.5q-70.5 42.5 -111.5 115t-41 159.5t41 159.5t111.5 115t153.5 42.5t153.5 -42.5t111.5 -115t41 -159.5t-41 -159.5t-111.5 -115t-153.5 -42.5t-153.5 42.5zM437.5 124q43.5 27 68.5 74.5t25 106.5t-25 106.5t-68.5 74.5t-96.5 27t-96.5 -27t-68.5 -74.5
t-25 -106.5t25 -106.5t68.5 -74.5t96.5 -27t96.5 27zM371 665h-87l78 147h118z" />
    <glyph glyph-name="obreve.sc" horiz-adv-x="682" 
d="M187.5 30.5q-70.5 42.5 -111.5 115t-41 159.5t41 159.5t111.5 115t153.5 42.5t153.5 -42.5t111.5 -115t41 -159.5t-41 -159.5t-111.5 -115t-153.5 -42.5t-153.5 42.5zM437.5 124q43.5 27 68.5 74.5t25 106.5t-25 106.5t-68.5 74.5t-96.5 27t-96.5 -27t-68.5 -74.5
t-25 -106.5t25 -106.5t68.5 -74.5t96.5 -27t96.5 27zM234 709q-42 39 -47 98h83q3 -27 21 -45.5t50 -18.5t49.5 18t21.5 46h83q-5 -59 -47.5 -98t-106.5 -39q-65 0 -107 39z" />
    <glyph glyph-name="ocircumflex.sc" horiz-adv-x="682" 
d="M187.5 30.5q-70.5 42.5 -111.5 115t-41 159.5t41 159.5t111.5 115t153.5 42.5t153.5 -42.5t111.5 -115t41 -159.5t-41 -159.5t-111.5 -115t-153.5 -42.5t-153.5 42.5zM437.5 124q43.5 27 68.5 74.5t25 106.5t-25 106.5t-68.5 74.5t-96.5 27t-96.5 -27t-68.5 -74.5
t-25 -106.5t25 -106.5t68.5 -74.5t96.5 -27t96.5 27zM389 812l116 -147h-99l-65 84l-65 -84h-97l116 147h94z" />
    <glyph glyph-name="odieresis.sc" horiz-adv-x="682" 
d="M187.5 30.5q-70.5 42.5 -111.5 115t-41 159.5t41 159.5t111.5 115t153.5 42.5t153.5 -42.5t111.5 -115t41 -159.5t-41 -159.5t-111.5 -115t-153.5 -42.5t-153.5 42.5zM437.5 124q43.5 27 68.5 74.5t25 106.5t-25 106.5t-68.5 74.5t-96.5 27t-96.5 -27t-68.5 -74.5
t-25 -106.5t25 -106.5t68.5 -74.5t96.5 -27t96.5 27zM203 695q-18 18 -18 43t18 42.5t43 17.5q24 0 42 -17.5t18 -42.5t-18 -43t-42 -18q-25 0 -43 18zM394.5 695q-18.5 18 -18.5 43t18.5 42.5t42.5 17.5q25 0 43 -17.5t18 -42.5t-18 -43t-43 -18q-24 0 -42.5 18z" />
    <glyph glyph-name="ograve.sc" horiz-adv-x="682" 
d="M187.5 30.5q-70.5 42.5 -111.5 115t-41 159.5t41 159.5t111.5 115t153.5 42.5t153.5 -42.5t111.5 -115t41 -159.5t-41 -159.5t-111.5 -115t-153.5 -42.5t-153.5 42.5zM437.5 124q43.5 27 68.5 74.5t25 106.5t-25 106.5t-68.5 74.5t-96.5 27t-96.5 -27t-68.5 -74.5
t-25 -106.5t25 -106.5t68.5 -74.5t96.5 -27t96.5 27zM398 665h-87l-109 147h118z" />
    <glyph glyph-name="ohungarumlaut.sc" horiz-adv-x="682" 
d="M187.5 30.5q-70.5 42.5 -111.5 115t-41 159.5t41 159.5t111.5 115t153.5 42.5t153.5 -42.5t111.5 -115t41 -159.5t-41 -159.5t-111.5 -115t-153.5 -42.5t-153.5 42.5zM437.5 124q43.5 27 68.5 74.5t25 106.5t-25 106.5t-68.5 74.5t-96.5 27t-96.5 -27t-68.5 -74.5
t-25 -106.5t25 -106.5t68.5 -74.5t96.5 -27t96.5 27zM303 665h-79l86 147h110zM460 665h-80l86 147h111z" />
    <glyph glyph-name="omacron.sc" horiz-adv-x="682" 
d="M187.5 30.5q-70.5 42.5 -111.5 115t-41 159.5t41 159.5t111.5 115t153.5 42.5t153.5 -42.5t111.5 -115t41 -159.5t-41 -159.5t-111.5 -115t-153.5 -42.5t-153.5 42.5zM437.5 124q43.5 27 68.5 74.5t25 106.5t-25 106.5t-68.5 74.5t-96.5 27t-96.5 -27t-68.5 -74.5
t-25 -106.5t25 -106.5t68.5 -74.5t96.5 -27t96.5 27zM486 696h-290v84h290v-84z" />
    <glyph glyph-name="oslash.sc" horiz-adv-x="682" 
d="M648 550l-58 -60q57 -82 57 -185q0 -87 -41 -159.5t-111.5 -115t-153.5 -42.5q-50 0 -96.5 16t-85.5 46l-57 -57l-67 67l58 59q-58 84 -58 186q0 87 41 159.5t111.5 115t153.5 42.5q103 0 183 -63l57 58zM242.5 489.5q-44.5 -27.5 -70 -76t-25.5 -108.5q0 -61 27 -112
l280 286q-49 38 -113 38q-54 0 -98.5 -27.5zM439.5 120.5q44.5 27.5 70 76t25.5 108.5t-27 111l-280 -286q49 -37 113 -37q54 0 98.5 27.5z" />
    <glyph glyph-name="oslashacute.sc" horiz-adv-x="682" 
d="M648 550l-58 -60q57 -82 57 -185q0 -87 -41 -159.5t-111.5 -115t-153.5 -42.5q-50 0 -96.5 16t-85.5 46l-57 -57l-67 67l58 59q-58 84 -58 186q0 87 41 159.5t111.5 115t153.5 42.5q103 0 183 -63l57 58zM242.5 489.5q-44.5 -27.5 -70 -76t-25.5 -108.5q0 -61 27 -112
l280 286q-49 38 -113 38q-54 0 -98.5 -27.5zM439.5 120.5q44.5 27.5 70 76t25.5 108.5t-27 111l-280 -286q49 -37 113 -37q54 0 98.5 27.5zM371 665h-87l78 147h118z" />
    <glyph glyph-name="otilde.sc" horiz-adv-x="682" 
d="M187.5 30.5q-70.5 42.5 -111.5 115t-41 159.5t41 159.5t111.5 115t153.5 42.5t153.5 -42.5t111.5 -115t41 -159.5t-41 -159.5t-111.5 -115t-153.5 -42.5t-153.5 42.5zM437.5 124q43.5 27 68.5 74.5t25 106.5t-25 106.5t-68.5 74.5t-96.5 27t-96.5 -27t-68.5 -74.5
t-25 -106.5t25 -106.5t68.5 -74.5t96.5 -27t96.5 27zM364 680.5q-18 9.5 -37 26.5q-14 12 -22.5 17t-19.5 5q-16 0 -27 -14.5t-11 -38.5h-72q0 62 28 95.5t71 33.5q28 0 46 -9.5t36 -26.5q12 -11 21 -16.5t20 -5.5q16 0 27.5 14.5t11.5 38.5h72q0 -63 -28 -96t-71 -33
q-27 0 -45 9.5z" />
    <glyph glyph-name="oe.sc" horiz-adv-x="835" 
d="M515 107h284v-107h-445q-92 0 -164.5 39.5t-113.5 109t-41 156.5t41 156.5t113.5 109t164.5 39.5h435v-107h-274v-138h251v-103h-251v-155zM403 107v396h-49q-59 0 -105.5 -25.5t-72.5 -70.5t-26 -102t26 -102t72.5 -70.5t105.5 -25.5h49z" />
    <glyph glyph-name="thorn.sc" horiz-adv-x="595" 
d="M355 519q62 0 112 -26.5t78.5 -72t28.5 -100.5t-28.5 -100.5t-78.5 -72t-112 -26.5h-169v-121h-116v610h116v-91h169zM352 228q49 0 77.5 25.5t28.5 66.5t-28.5 66.5t-77.5 25.5h-166v-184h166z" />
    <glyph glyph-name="racute.sc" horiz-adv-x="574" 
d="M421 0l-127 216h-108v-216h-116v610h251q64 0 113 -25.5t76 -70t27 -101.5q0 -64 -34.5 -111.5t-93.5 -69.5l144 -232h-132zM186 504v-185h133q47 0 74.5 25t27.5 68t-27.5 67.5t-74.5 24.5h-133zM319 665h-87l78 147h118z" />
    <glyph glyph-name="rcaron.sc" horiz-adv-x="574" 
d="M421 0l-127 216h-108v-216h-116v610h251q64 0 113 -25.5t76 -70t27 -101.5q0 -64 -34.5 -111.5t-93.5 -69.5l144 -232h-132zM186 504v-185h133q47 0 74.5 25t27.5 68t-27.5 67.5t-74.5 24.5h-133zM290 728l65 84h98l-116 -147h-94l-116 147h99z" />
    <glyph glyph-name="uni0157.sc" horiz-adv-x="574" 
d="M421 0l-127 216h-108v-216h-116v610h251q64 0 113 -25.5t76 -70t27 -101.5q0 -64 -34.5 -111.5t-93.5 -69.5l144 -232h-132zM186 504v-185h133q47 0 74.5 25t27.5 68t-27.5 67.5t-74.5 24.5h-133zM353 -90.5q19 -19.5 19 -53.5q0 -85 -91 -155l-20 26q12 10 24.5 30
t16.5 44q-26 1 -44 19.5t-18 44.5q0 27 19 45.5t46 18.5q29 0 48 -19.5z" />
    <glyph glyph-name="sacute.sc" horiz-adv-x="521" 
d="M143.5 14q-52.5 26 -81 70t-31.5 98h116q2 -39 34.5 -65.5t83.5 -26.5q50 0 77 21.5t27 54.5q0 26 -17 43.5t-42.5 29t-70.5 27.5q-61 20 -99 39t-65.5 55t-27.5 92q0 47 25 85.5t73 61.5t112 23q61 0 109.5 -24.5t77 -67.5t31.5 -97h-115q-4 40 -32 63.5t-71 23.5
q-44 0 -69 -20.5t-25 -49.5q0 -24 16 -40.5t40.5 -27t68.5 -24.5q62 -20 101.5 -39t67.5 -56t28 -95q0 -51 -26 -92t-75.5 -64.5t-117.5 -23.5q-70 0 -122.5 26zM290 665h-87l78 147h118z" />
    <glyph glyph-name="scaron.sc" horiz-adv-x="521" 
d="M143.5 14q-52.5 26 -81 70t-31.5 98h116q2 -39 34.5 -65.5t83.5 -26.5q50 0 77 21.5t27 54.5q0 26 -17 43.5t-42.5 29t-70.5 27.5q-61 20 -99 39t-65.5 55t-27.5 92q0 47 25 85.5t73 61.5t112 23q61 0 109.5 -24.5t77 -67.5t31.5 -97h-115q-4 40 -32 63.5t-71 23.5
q-44 0 -69 -20.5t-25 -49.5q0 -24 16 -40.5t40.5 -27t68.5 -24.5q62 -20 101.5 -39t67.5 -56t28 -95q0 -51 -26 -92t-75.5 -64.5t-117.5 -23.5q-70 0 -122.5 26zM261 728l65 84h98l-116 -147h-94l-116 147h99z" />
    <glyph glyph-name="scedilla.sc" horiz-adv-x="521" 
d="M460.5 79q-24.5 -40 -71.5 -64.5t-111 -26.5l-13 -29q44 -3 69.5 -26t25.5 -58q0 -42 -30 -66.5t-92 -24.5q-39 0 -68 11v58q25 -7 54 -7q61 0 61 32q0 15 -14 23.5t-45 8.5q-21 0 -39 -5l34 86q-86 12 -136.5 65t-53.5 126h116q2 -39 34.5 -65.5t83.5 -26.5
q50 0 77 21.5t27 54.5q0 26 -17 43.5t-42.5 29t-70.5 27.5q-61 20 -99 39t-65.5 55t-27.5 92q0 47 25 85.5t73 61.5t112 23q61 0 109.5 -24.5t77 -67.5t31.5 -97h-115q-4 40 -32 63.5t-71 23.5q-44 0 -69 -20.5t-25 -49.5q0 -24 16 -40.5t40.5 -27t68.5 -24.5
q62 -20 101.5 -39t67.5 -56t28 -95q0 -49 -24.5 -89z" />
    <glyph glyph-name="scircumflex.sc" horiz-adv-x="521" 
d="M143.5 14q-52.5 26 -81 70t-31.5 98h116q2 -39 34.5 -65.5t83.5 -26.5q50 0 77 21.5t27 54.5q0 26 -17 43.5t-42.5 29t-70.5 27.5q-61 20 -99 39t-65.5 55t-27.5 92q0 47 25 85.5t73 61.5t112 23q61 0 109.5 -24.5t77 -67.5t31.5 -97h-115q-4 40 -32 63.5t-71 23.5
q-44 0 -69 -20.5t-25 -49.5q0 -24 16 -40.5t40.5 -27t68.5 -24.5q62 -20 101.5 -39t67.5 -56t28 -95q0 -51 -26 -92t-75.5 -64.5t-117.5 -23.5q-70 0 -122.5 26zM308 812l116 -147h-99l-65 84l-65 -84h-97l116 147h94z" />
    <glyph glyph-name="uni0219.sc" horiz-adv-x="521" 
d="M143.5 14q-52.5 26 -81 70t-31.5 98h116q2 -39 34.5 -65.5t83.5 -26.5q50 0 77 21.5t27 54.5q0 26 -17 43.5t-42.5 29t-70.5 27.5q-61 20 -99 39t-65.5 55t-27.5 92q0 47 25 85.5t73 61.5t112 23q61 0 109.5 -24.5t77 -67.5t31.5 -97h-115q-4 40 -32 63.5t-71 23.5
q-44 0 -69 -20.5t-25 -49.5q0 -24 16 -40.5t40.5 -27t68.5 -24.5q62 -20 101.5 -39t67.5 -56t28 -95q0 -51 -26 -92t-75.5 -64.5t-117.5 -23.5q-70 0 -122.5 26zM313 -90.5q19 -19.5 19 -53.5q0 -85 -91 -155l-20 26q12 10 24.5 30t16.5 44q-26 1 -44 19.5t-18 44.5
q0 27 19 45.5t46 18.5q29 0 48 -19.5z" />
    <glyph glyph-name="germandbls.sc" horiz-adv-x="608" 
d="M406 356q45 -1 84 -24t62 -62.5t23 -87.5q0 -52 -25 -93.5t-70 -65t-103 -23.5h-91v107h83q42 0 66 21.5t24 59.5q0 36 -24 57t-66 21h-76v89l124 152h-145q-44 0 -67.5 -24.5t-23.5 -72.5v-410h-116v410q0 57 26.5 103t73.5 71.5t107 25.5h266v-92z" />
    <glyph glyph-name="tbar.sc" horiz-adv-x="506" 
d="M493 610v-108h-182v-176h97v-95h-97v-231h-116v231h-97v95h97v176h-182v108h480z" />
    <glyph glyph-name="tcaron.sc" horiz-adv-x="506" 
d="M311 0h-116v502h-182v108h480v-108h-182v-502zM253 728l65 84h98l-116 -147h-94l-116 147h99z" />
    <glyph glyph-name="uni0163.sc" horiz-adv-x="506" 
d="M311 0h-41l-18 -41q44 -3 69.5 -26t25.5 -58q0 -42 -30 -66.5t-92 -24.5q-39 0 -68 11v58q25 -7 54 -7q61 0 61 32q0 15 -14 23.5t-45 8.5q-21 0 -39 -5l38 95h-17v502h-182v108h480v-108h-182v-502z" />
    <glyph glyph-name="uni021B.sc" horiz-adv-x="506" 
d="M311 0h-116v502h-182v108h480v-108h-182v-502zM300 -90.5q19 -19.5 19 -53.5q0 -85 -91 -155l-20 26q12 10 24.5 30t16.5 44q-26 1 -44 19.5t-18 44.5q0 27 19 45.5t46 18.5q29 0 48 -19.5z" />
    <glyph glyph-name="uacute.sc" horiz-adv-x="638" 
d="M187 21q-58 33 -90 92t-32 134v363h116v-363q0 -69 37.5 -109.5t100.5 -40.5t100.5 40.5t37.5 109.5v363h116v-363q0 -75 -32 -134t-90 -92t-132 -33t-132 33zM349 665h-87l78 147h118z" />
    <glyph glyph-name="uni0289.sc" horiz-adv-x="683" 
d="M677 413v-95h-82v-71q0 -75 -32 -134t-90 -92t-132 -33t-132 33t-90 92t-32 134v71h-81v95h81v197h116v-197h276v197h116v-197h82zM479 318h-276v-71q0 -69 37.5 -109.5t100.5 -40.5t100.5 40.5t37.5 109.5v71z" />
    <glyph glyph-name="ubreve.sc" horiz-adv-x="638" 
d="M187 21q-58 33 -90 92t-32 134v363h116v-363q0 -69 37.5 -109.5t100.5 -40.5t100.5 40.5t37.5 109.5v363h116v-363q0 -75 -32 -134t-90 -92t-132 -33t-132 33zM212 709q-42 39 -47 98h83q3 -27 21 -45.5t50 -18.5t49.5 18t21.5 46h83q-5 -59 -47.5 -98t-106.5 -39
q-65 0 -107 39z" />
    <glyph glyph-name="ucircumflex.sc" horiz-adv-x="638" 
d="M187 21q-58 33 -90 92t-32 134v363h116v-363q0 -69 37.5 -109.5t100.5 -40.5t100.5 40.5t37.5 109.5v363h116v-363q0 -75 -32 -134t-90 -92t-132 -33t-132 33zM367 812l116 -147h-99l-65 84l-65 -84h-97l116 147h94z" />
    <glyph glyph-name="udieresis.sc" horiz-adv-x="638" 
d="M187 21q-58 33 -90 92t-32 134v363h116v-363q0 -69 37.5 -109.5t100.5 -40.5t100.5 40.5t37.5 109.5v363h116v-363q0 -75 -32 -134t-90 -92t-132 -33t-132 33zM181 695q-18 18 -18 43t18 42.5t43 17.5q24 0 42 -17.5t18 -42.5t-18 -43t-42 -18q-25 0 -43 18zM372.5 695
q-18.5 18 -18.5 43t18.5 42.5t42.5 17.5q25 0 43 -17.5t18 -42.5t-18 -43t-43 -18q-24 0 -42.5 18z" />
    <glyph glyph-name="ugrave.sc" horiz-adv-x="638" 
d="M187 21q-58 33 -90 92t-32 134v363h116v-363q0 -69 37.5 -109.5t100.5 -40.5t100.5 40.5t37.5 109.5v363h116v-363q0 -75 -32 -134t-90 -92t-132 -33t-132 33zM376 665h-87l-109 147h118z" />
    <glyph glyph-name="uhungarumlaut.sc" horiz-adv-x="638" 
d="M187 21q-58 33 -90 92t-32 134v363h116v-363q0 -69 37.5 -109.5t100.5 -40.5t100.5 40.5t37.5 109.5v363h116v-363q0 -75 -32 -134t-90 -92t-132 -33t-132 33zM281 665h-79l86 147h110zM438 665h-80l86 147h111z" />
    <glyph glyph-name="umacron.sc" horiz-adv-x="638" 
d="M187 21q-58 33 -90 92t-32 134v363h116v-363q0 -69 37.5 -109.5t100.5 -40.5t100.5 40.5t37.5 109.5v363h116v-363q0 -75 -32 -134t-90 -92t-132 -33t-132 33zM464 696h-290v84h290v-84z" />
    <glyph glyph-name="uogonek.sc" horiz-adv-x="638" 
d="M457 610h116v-363q0 -64 -24 -117t-69 -90q-54 -44 -80 -77t-26 -66q0 -23 14 -35.5t38 -12.5q19 0 34 6v-63q-21 -8 -50 -8q-51 0 -81.5 27t-30.5 72q0 31 16 58.5t44 49.5q-19 -3 -39 -3q-74 0 -132 33t-90 92t-32 134v363h116v-363q0 -69 37.5 -109.5t100.5 -40.5
t100.5 40.5t37.5 109.5v363z" />
    <glyph glyph-name="uring.sc" horiz-adv-x="638" 
d="M187 21q-58 33 -90 92t-32 134v363h116v-363q0 -69 37.5 -109.5t100.5 -40.5t100.5 40.5t37.5 109.5v363h116v-363q0 -75 -32 -134t-90 -92t-132 -33t-132 33zM244 696q-30 29 -30 71t30 71t75 29t75 -29t30 -71t-30 -71t-75 -29t-75 29zM349 737.5q12 11.5 12 29.5
t-12 29.5t-30 11.5q-17 0 -29 -11.5t-12 -29.5t11.5 -29.5t29.5 -11.5t30 11.5z" />
    <glyph glyph-name="wacute.sc" horiz-adv-x="817" 
d="M579 181l119 429h114l-185 -610h-90l-128 419l-129 -419h-90l-185 610h118l118 -430l129 430h80zM440 665h-87l78 147h118z" />
    <glyph glyph-name="wcircumflex.sc" horiz-adv-x="817" 
d="M579 181l119 429h114l-185 -610h-90l-128 419l-129 -419h-90l-185 610h118l118 -430l129 430h80zM458 812l116 -147h-99l-65 84l-65 -84h-97l116 147h94z" />
    <glyph glyph-name="wdieresis.sc" horiz-adv-x="817" 
d="M579 181l119 429h114l-185 -610h-90l-128 419l-129 -419h-90l-185 610h118l118 -430l129 430h80zM272 695q-18 18 -18 43t18 42.5t43 17.5q24 0 42 -17.5t18 -42.5t-18 -43t-42 -18q-25 0 -43 18zM463.5 695q-18.5 18 -18.5 43t18.5 42.5t42.5 17.5q25 0 43 -17.5
t18 -42.5t-18 -43t-43 -18q-24 0 -42.5 18z" />
    <glyph glyph-name="wgrave.sc" horiz-adv-x="817" 
d="M579 181l119 429h114l-185 -610h-90l-128 419l-129 -419h-90l-185 610h118l118 -430l129 430h80zM468 665h-87l-109 147h118z" />
    <glyph glyph-name="yacute.sc" horiz-adv-x="533" 
d="M269 339l142 271h123l-210 -382v-228h-116v228l-210 382h128zM298 665h-87l78 147h118z" />
    <glyph glyph-name="ycircumflex.sc" horiz-adv-x="533" 
d="M269 339l142 271h123l-210 -382v-228h-116v228l-210 382h128zM316 812l116 -147h-99l-65 84l-65 -84h-97l116 147h94z" />
    <glyph glyph-name="ydieresis.sc" horiz-adv-x="533" 
d="M269 339l142 271h123l-210 -382v-228h-116v228l-210 382h128zM130 695q-18 18 -18 43t18 42.5t43 17.5q24 0 42 -17.5t18 -42.5t-18 -43t-42 -18q-25 0 -43 18zM321.5 695q-18.5 18 -18.5 43t18.5 42.5t42.5 17.5q25 0 43 -17.5t18 -42.5t-18 -43t-43 -18q-24 0 -42.5 18
z" />
    <glyph glyph-name="ygrave.sc" horiz-adv-x="533" 
d="M269 339l142 271h123l-210 -382v-228h-116v228l-210 382h128zM326 665h-87l-109 147h118z" />
    <glyph glyph-name="uni0233.sc" horiz-adv-x="533" 
d="M269 339l142 271h123l-210 -382v-228h-116v228l-210 382h128zM413 696h-290v84h290v-84z" />
    <glyph glyph-name="zacute.sc" horiz-adv-x="523" 
d="M480 519l-307 -411h320v-108h-463v91l306 411h-295v108h439v-91zM290 665h-87l78 147h118z" />
    <glyph glyph-name="zcaron.sc" horiz-adv-x="523" 
d="M480 519l-307 -411h320v-108h-463v91l306 411h-295v108h439v-91zM260 728l65 84h98l-116 -147h-94l-116 147h99z" />
    <glyph glyph-name="zdotaccent.sc" horiz-adv-x="523" 
d="M480 519l-307 -411h320v-108h-463v91l306 411h-295v108h439v-91zM215 691.5q-19 18.5 -19 46.5q0 27 19 45.5t46 18.5t45.5 -18t18.5 -46t-18.5 -46.5t-45.5 -18.5t-46 18.5z" />
    <glyph glyph-name="Idieresis_Idieresis.dlig" horiz-adv-x="540" 
d="M11 785q-18 18 -18 43t18 42.5t43 17.5t42.5 -17.5t17.5 -42.5t-17.5 -43t-42.5 -18t-43 18zM227.5 785q-18.5 18 -18.5 43t18.5 42.5t42.5 17.5q25 0 43 -17.5t18 -42.5t-18 -43t-43 -18q-24 0 -42.5 18zM444 785q-18 18 -18 43t18 42.5t42 17.5q25 0 43 -17.5t18 -42.5
t-18 -43t-43 -18q-24 0 -42 18zM193 0h-116v700h116v-700zM463 0h-116v700h116v-700z" />
    <glyph glyph-name="f_f_b.dlig" horiz-adv-x="1194" 
d="M1041.5 483.5q53.5 -34.5 85.5 -95t32 -135.5t-32 -135.5t-85.5 -95t-115.5 -34.5q-53 0 -93 23t-58 46h-5l-20 -57h-82v614q-32 5 -56 5q-59 0 -92 -29.5t-33 -81.5v-2h110v-95h-106v-411h-110v411h-178v-411h-109v411h-69v95h69v11q0 81 44.5 128t114.5 47q34 0 60 -10
v-93q-15 6 -37 6q-36 0 -56 -20.5t-20 -61.5v-7h181v4q0 97 60 151.5t168 54.5q96 0 169 -28v-235h5q8 11 28 26.5t50 27t65 11.5q62 0 115.5 -34.5zM982 110.5q31 20.5 49.5 58t18.5 84.5t-18.5 84.5t-49.5 58t-68 20.5t-68 -20.5t-49.5 -58t-18.5 -84.5t18.5 -84.5
t49.5 -58t68 -20.5t68 20.5z" />
    <glyph glyph-name="f_f_h.dlig" horiz-adv-x="1179" 
d="M1025 490.5q45 -27.5 70.5 -77.5t25.5 -116v-297h-110v289q0 56 -32.5 91.5t-83.5 35.5q-52 0 -84.5 -35.5t-32.5 -91.5v-289h-110v614q-32 5 -56 5q-59 0 -92 -29.5t-33 -81.5v-2h110v-95h-106v-411h-110v411h-178v-411h-109v411h-69v95h69v11q0 81 44.5 128t114.5 47
q34 0 60 -10v-93q-15 6 -37 6q-36 0 -56 -20.5t-20 -61.5v-7h181v4q0 97 60 151.5t168 54.5q96 0 169 -28v-238h5q16 23 54 45.5t87 22.5q56 0 101 -27.5z" />
    <glyph glyph-name="f_f_k.dlig" horiz-adv-x="1091" 
d="M1101 0h-137l-186 239v-239h-110v614q-32 5 -56 5q-59 0 -92 -29.5t-33 -81.5v-2h110v-95h-106v-411h-110v411h-178v-411h-109v411h-69v95h69v11q0 81 44.5 128t114.5 47q34 0 60 -10v-93q-15 6 -37 6q-36 0 -56 -20.5t-20 -61.5v-7h181v4q0 97 60 151.5t168 54.5
q96 0 169 -28v-405l174 223h127l-192 -240z" />
    <glyph glyph-name="c_t.dlig" horiz-adv-x="887" 
d="M852 411h-109v-238q0 -41 20 -61.5t55 -20.5q20 0 34 7v-100q-26 -10 -59 -10q-71 0 -115.5 47t-44.5 129v247h-83v89h37q61 0 61 60q0 43 -32 73.5t-87 30.5q-50 0 -81 -31t-31 -78q0 -39 12 -65t37 -59q22 -30 34.5 -53.5t19.5 -57.5h-110q-11 37 -43 66.5t-81 29.5
q-39 0 -71.5 -21t-51.5 -58t-19 -84t19 -84t51.5 -58t71.5 -21q49 0 81 29.5t43 66.5h110q-10 -51 -42 -96.5t-82 -73.5t-110 -28q-68 0 -125.5 35.5t-91.5 96.5t-34 133q0 73 34 133.5t91.5 96t125.5 35.5q25 0 44 -4q-7 25 -7 53q0 52 26 95t72 68.5t105 25.5
q65 0 114.5 -26t76 -71.5t26.5 -103.5v-49h109v-95z" />
    <glyph glyph-name="f_b.dlig" horiz-adv-x="907" 
d="M754.5 483.5q53.5 -34.5 85.5 -95t32 -135.5t-32 -135.5t-85.5 -95t-115.5 -34.5q-54 0 -94.5 23.5t-56.5 45.5h-5l-20 -57h-82v614q-32 5 -56 5q-59 0 -92 -29.5t-33 -81.5v-2h110v-95h-107v-411h-109v411h-69v95h69v4q0 97 60 151.5t168 54.5q96 0 169 -28v-235h5
q7 11 27 26.5t50.5 27t65.5 11.5q62 0 115.5 -34.5zM695 110.5q31 20.5 49.5 58t18.5 84.5t-18.5 84.5t-49.5 58t-68 20.5t-68 -20.5t-49.5 -58t-18.5 -84.5t18.5 -84.5t49.5 -58t68 -20.5t68 20.5z" />
    <glyph glyph-name="f_h.dlig" horiz-adv-x="892" 
d="M737.5 490.5q44.5 -27.5 70 -77.5t25.5 -116v-297h-109v289q0 56 -32.5 91.5t-83.5 35.5q-52 0 -84.5 -35.5t-32.5 -91.5v-289h-110v614q-32 5 -56 5q-59 0 -92 -29.5t-33 -81.5v-2h110v-95h-107v-411h-109v411h-69v95h69v4q0 97 60 151.5t168 54.5q96 0 169 -28v-238h5
q16 23 54 45.5t87 22.5q56 0 100.5 -27.5z" />
    <glyph glyph-name="f_k.dlig" horiz-adv-x="807" 
d="M817 0h-137l-189 239v-239h-110v614q-32 5 -56 5q-59 0 -92 -29.5t-33 -81.5v-2h110v-95h-107v-411h-109v411h-69v95h69v4q0 97 60 151.5t168 54.5q96 0 169 -28v-406l177 224h127l-195 -240z" />
    <glyph glyph-name="f_t.dlig" horiz-adv-x="635" 
d="M600 411h-109v-238q0 -41 19.5 -61.5t54.5 -20.5q21 0 35 7v-100q-26 -10 -60 -10q-71 0 -115 47t-44 129v247h-178v-411h-109v411h-69v95h69v31q0 81 44.5 128t114.5 47q34 0 60 -10v-93q-15 6 -37 6q-36 0 -56 -20.5t-20 -61.5v-27h135q29 0 45 15.5t16 44.5v70h95
v-130h109v-95z" />
    <glyph glyph-name="idieresis_idieresis.dlig" horiz-adv-x="475" 
d="M2 598.5q-18 17.5 -18 42.5q0 26 17.5 43t42.5 17t42.5 -17t17.5 -43q0 -25 -17.5 -42.5t-42.5 -17.5q-24 0 -42 17.5zM195.5 598.5q-17.5 17.5 -17.5 42.5q0 26 17.5 43t42.5 17t42.5 -17t17.5 -43q0 -25 -17.5 -42.5t-42.5 -17.5t-42.5 17.5zM389 598.5
q-18 17.5 -18 42.5q0 26 17.5 43t42.5 17t42.5 -17t17.5 -43q0 -25 -17.5 -42.5t-42.5 -17.5q-24 0 -42 17.5zM174 0h-110v506h110v-506zM411 0h-110v506h110v-506z" />
    <glyph glyph-name="r_f.dlig" horiz-adv-x="583" 
d="M477.5 594.5q-19.5 -20.5 -19.5 -61.5v-27h112v-95h-109v-411h-110v411h-57q-54 0 -87 -35.5t-33 -98.5v-277h-110v506h82l20 -56h5q15 20 48.5 39.5t81.5 19.5h50v28q0 81 44.5 128t114.5 47q34 0 60 -10v-93q-15 6 -36 6q-37 0 -56.5 -20.5z" />
    <glyph glyph-name="r_t.dlig" horiz-adv-x="605" 
d="M395.5 35.5q-44.5 47.5 -44.5 128.5v247h-58q-54 0 -86.5 -36t-32.5 -99v-276h-110v506h82l20 -56h5q14 20 47 39.5t78 19.5h11q28 0 43.5 16t15.5 44v67h95v-130h109v-95h-109v-238q0 -41 19.5 -61.5t54.5 -20.5q21 0 35 7v-100q-26 -10 -60 -10q-70 0 -114.5 47.5z" />
    <glyph glyph-name="s_t.dlig" unicode="&#xfb06;" horiz-adv-x="808" 
d="M773 411h-109v-238q0 -41 19.5 -61.5t54.5 -20.5q21 0 35 7v-100q-26 -10 -60 -10q-71 0 -115 47t-44 129v247h-83v89h37q29 0 45 15.5t16 44.5q0 43 -32 73.5t-87 30.5q-50 0 -81 -31t-31 -78q0 -33 10 -55t30 -49q19 -25 28.5 -45t10.5 -49h-108q-4 33 -24.5 51.5
t-57.5 18.5q-35 0 -54 -15.5t-19 -38.5q0 -28 25 -42.5t79 -30.5q52 -16 85 -32t57 -46t24 -78q0 -68 -51 -112t-141 -44q-58 0 -102.5 22.5t-70 60.5t-28.5 83h108q3 -34 28 -54.5t65 -20.5q39 0 60.5 17t21.5 43q0 30 -26 45.5t-82 32.5q-51 16 -83.5 32t-55.5 45t-23 75
q0 42 22 76t63.5 53.5t97.5 19.5q10 0 25 -3q-8 22 -8 52q0 52 26 95t72 68.5t105 25.5q65 0 114.5 -26t76 -71.5t26.5 -103.5v-49h109v-95z" />
    <glyph glyph-name="idieresis_idieresis.dlig.sc" horiz-adv-x="513" 
d="M4.5 695q-18.5 18 -18.5 43t18.5 42.5t42.5 17.5q25 0 43 -17.5t18 -42.5t-18 -43t-43 -18q-24 0 -42.5 18zM214 695q-18 18 -18 43t18 42.5t42 17.5q25 0 43 -17.5t18 -42.5t-18 -43t-43 -18q-24 0 -42 18zM423 695q-18 18 -18 43t18 42.5t43 17.5t42.5 -17.5
t17.5 -42.5t-17.5 -43t-42.5 -18t-43 18zM186 0h-116v610h116v-610zM443 0h-116v610h116v-610z" />
    <glyph glyph-name="f_f_l.liga.ss01" horiz-adv-x="897" 
d="M887 98v-100q-28 -10 -60 -10q-70 0 -114.5 47.5t-44.5 128.5v450q-32 5 -56 5q-59 0 -92 -29.5t-33 -81.5v-2h110v-95h-106v-411h-110v411h-178v-411h-109v411h-69v95h69v11q0 81 44.5 128t114.5 47q34 0 60 -10v-93q-15 6 -37 6q-36 0 -56 -20.5t-20 -61.5v-7h181v4
q0 97 60 151.5t168 54.5q96 0 169 -28v-515q0 -41 19.5 -61.5t54.5 -20.5q20 0 35 7z" />
    <glyph glyph-name="fl.liga.ss01" horiz-adv-x="610" 
d="M600 98v-100q-28 -10 -60 -10q-71 0 -115 47t-44 129v450q-32 5 -56 5q-59 0 -92 -29.5t-33 -81.5v-2h110v-95h-107v-411h-109v411h-69v95h69v4q0 97 60 151.5t168 54.5q96 0 169 -28v-515q0 -41 19.5 -61.5t54.5 -20.5q20 0 35 7z" />
    <glyph glyph-name="I.ss01" horiz-adv-x="402" 
d="M367 0h-332v106h110v488h-110v106h332v-106h-110v-488h110v-106z" />
    <glyph glyph-name="Iacute.ss01" horiz-adv-x="402" 
d="M367 0h-332v106h110v488h-110v106h332v-106h-110v-488h110v-106zM230 755h-87l78 147h118z" />
    <glyph glyph-name="Ibreve.ss01" horiz-adv-x="402" 
d="M367 0h-332v106h110v488h-110v106h332v-106h-110v-488h110v-106zM94 799q-42 39 -47 98h83q3 -27 21 -45.5t50 -18.5t49.5 18t21.5 46h83q-5 -59 -47.5 -98t-106.5 -39q-65 0 -107 39z" />
    <glyph glyph-name="Icircumflex.ss01" horiz-adv-x="402" 
d="M367 0h-332v106h110v488h-110v106h332v-106h-110v-488h110v-106zM249 902l116 -147h-99l-65 84l-65 -84h-97l116 147h94z" />
    <glyph glyph-name="Idieresis.ss01" horiz-adv-x="402" 
d="M367 0h-332v106h110v488h-110v106h332v-106h-110v-488h110v-106zM63 785q-18 18 -18 43t18 42.5t43 17.5q24 0 42 -17.5t18 -42.5t-18 -43t-42 -18q-25 0 -43 18zM254.5 785q-18.5 18 -18.5 43t18.5 42.5t42.5 17.5q25 0 43 -17.5t18 -42.5t-18 -43t-43 -18
q-24 0 -42.5 18z" />
    <glyph glyph-name="Idotaccent.ss01" horiz-adv-x="402" 
d="M367 0h-332v106h110v488h-110v106h332v-106h-110v-488h110v-106zM155 781.5q-19 18.5 -19 46.5q0 27 19 45.5t46 18.5t45.5 -18t18.5 -46t-18.5 -46.5t-45.5 -18.5t-46 18.5z" />
    <glyph glyph-name="Igrave.ss01" horiz-adv-x="402" 
d="M367 0h-332v106h110v488h-110v106h332v-106h-110v-488h110v-106zM258 755h-87l-109 147h118z" />
    <glyph glyph-name="Imacron.ss01" horiz-adv-x="402" 
d="M367 0h-332v106h110v488h-110v106h332v-106h-110v-488h110v-106zM346 786h-290v84h290v-84z" />
    <glyph glyph-name="Iogonek.ss01" horiz-adv-x="402" 
d="M367 594h-110v-488h110v-106h-125q-77 -48 -77 -102q0 -23 13 -36t33 -13q17 0 31 6v-64q-28 -7 -48 -7q-47 0 -76 26.5t-29 71.5q0 37 20 67.5t53 50.5h-127v106h110v488h-110v106h332v-106z" />
    <glyph glyph-name="IJ.ss01" horiz-adv-x="920" 
d="M367 0h-332v106h110v488h-110v106h332v-106h-110v-488h110v-106zM500 16.5q-52 28.5 -80 78t-28 110.5h115q2 -44 33 -75t80 -31q51 0 81.5 31.5t30.5 81.5v488h116v-488q0 -65 -28 -116t-79.5 -79.5t-120.5 -28.5q-68 0 -120 28.5z" />
    <glyph glyph-name="Iacute_J.loclNLD.ss01" horiz-adv-x="920" 
d="M367 0h-332v106h110v488h-110v106h332v-106h-110v-488h110v-106zM230 755h-87l78 147h118zM500 16.5q-52 28.5 -80 78t-28 110.5h115q2 -44 33 -75t80 -31q51 0 81.5 31.5t30.5 81.5v488h116v-488q0 -65 -28 -116t-79.5 -79.5t-120.5 -28.5q-68 0 -120 28.5zM819 755h-87
l78 147h118z" />
    <glyph glyph-name="a.ss01" horiz-adv-x="590" 
d="M152.5 22.5q-53.5 34.5 -85.5 95t-32 135.5t32 135.5t85.5 95t115.5 34.5q53 0 93.5 -23t57.5 -45h5l20 56h82v-506h-82l-20 57h-5q-16 -22 -57 -45.5t-94 -23.5q-62 0 -115.5 34.5zM348 110.5q31 20.5 49.5 58t18.5 84.5t-18.5 84.5t-49.5 58t-68 20.5t-68 -20.5
t-49.5 -58t-18.5 -84.5t18.5 -84.5t49.5 -58t68 -20.5t68 20.5z" />
    <glyph glyph-name="aacute.ss01" horiz-adv-x="590" 
d="M152.5 22.5q-53.5 34.5 -85.5 95t-32 135.5t32 135.5t85.5 95t115.5 34.5q53 0 93.5 -23t57.5 -45h5l20 56h82v-506h-82l-20 57h-5q-16 -22 -57 -45.5t-94 -23.5q-62 0 -115.5 34.5zM348 110.5q31 20.5 49.5 58t18.5 84.5t-18.5 84.5t-49.5 58t-68 20.5t-68 -20.5
t-49.5 -58t-18.5 -84.5t18.5 -84.5t49.5 -58t68 -20.5t68 20.5zM323 566h-84l72 152h114z" />
    <glyph glyph-name="abreve.ss01" horiz-adv-x="590" 
d="M152.5 22.5q-53.5 34.5 -85.5 95t-32 135.5t32 135.5t85.5 95t115.5 34.5q53 0 93.5 -23t57.5 -45h5l20 56h82v-506h-82l-20 57h-5q-16 -22 -57 -45.5t-94 -23.5q-62 0 -115.5 34.5zM348 110.5q31 20.5 49.5 58t18.5 84.5t-18.5 84.5t-49.5 58t-68 20.5t-68 -20.5
t-49.5 -58t-18.5 -84.5t18.5 -84.5t49.5 -58t68 -20.5t68 20.5zM188 612.5q-41 39.5 -46 98.5h80q4 -29 21.5 -47.5t49.5 -18.5t49.5 18.5t21.5 47.5h80q-5 -59 -46 -98.5t-105 -39.5t-105 39.5z" />
    <glyph glyph-name="acircumflex.ss01" horiz-adv-x="590" 
d="M152.5 22.5q-53.5 34.5 -85.5 95t-32 135.5t32 135.5t85.5 95t115.5 34.5q53 0 93.5 -23t57.5 -45h5l20 56h82v-506h-82l-20 57h-5q-16 -22 -57 -45.5t-94 -23.5q-62 0 -115.5 34.5zM348 110.5q31 20.5 49.5 58t18.5 84.5t-18.5 84.5t-49.5 58t-68 20.5t-68 -20.5
t-49.5 -58t-18.5 -84.5t18.5 -84.5t49.5 -58t68 -20.5t68 20.5zM340 718l110 -152h-97l-61 89l-61 -89h-94l110 152h93z" />
    <glyph glyph-name="adieresis.ss01" horiz-adv-x="590" 
d="M152.5 22.5q-53.5 34.5 -85.5 95t-32 135.5t32 135.5t85.5 95t115.5 34.5q53 0 93.5 -23t57.5 -45h5l20 56h82v-506h-82l-20 57h-5q-16 -22 -57 -45.5t-94 -23.5q-62 0 -115.5 34.5zM348 110.5q31 20.5 49.5 58t18.5 84.5t-18.5 84.5t-49.5 58t-68 20.5t-68 -20.5
t-49.5 -58t-18.5 -84.5t18.5 -84.5t49.5 -58t68 -20.5t68 20.5zM163 598.5q-18 17.5 -18 42.5q0 26 17.5 43t42.5 17t42.5 -17t17.5 -43q0 -25 -17.5 -42.5t-42.5 -17.5q-24 0 -42 17.5zM339 598.5q-18 17.5 -18 42.5q0 26 17.5 43t42.5 17t42.5 -17t17.5 -43
q0 -25 -17.5 -42.5t-42.5 -17.5q-24 0 -42 17.5z" />
    <glyph glyph-name="agrave.ss01" horiz-adv-x="590" 
d="M152.5 22.5q-53.5 34.5 -85.5 95t-32 135.5t32 135.5t85.5 95t115.5 34.5q53 0 93.5 -23t57.5 -45h5l20 56h82v-506h-82l-20 57h-5q-16 -22 -57 -45.5t-94 -23.5q-62 0 -115.5 34.5zM348 110.5q31 20.5 49.5 58t18.5 84.5t-18.5 84.5t-49.5 58t-68 20.5t-68 -20.5
t-49.5 -58t-18.5 -84.5t18.5 -84.5t49.5 -58t68 -20.5t68 20.5zM347 566h-84l-103 152h115z" />
    <glyph glyph-name="amacron.ss01" horiz-adv-x="590" 
d="M152.5 22.5q-53.5 34.5 -85.5 95t-32 135.5t32 135.5t85.5 95t115.5 34.5q53 0 93.5 -23t57.5 -45h5l20 56h82v-506h-82l-20 57h-5q-16 -22 -57 -45.5t-94 -23.5q-62 0 -115.5 34.5zM348 110.5q31 20.5 49.5 58t18.5 84.5t-18.5 84.5t-49.5 58t-68 20.5t-68 -20.5
t-49.5 -58t-18.5 -84.5t18.5 -84.5t49.5 -58t68 -20.5t68 20.5zM434 602h-281v80h281v-80z" />
    <glyph glyph-name="aogonek.ss01" horiz-adv-x="590" 
d="M526 0q-86 -48 -86 -103q0 -23 14 -35.5t38 -12.5q19 0 34 6v-64q-23 -7 -50 -7q-51 0 -81.5 27t-30.5 72q0 36 21 66.5t58 52.5l-19 55h-5q-16 -22 -57 -45.5t-94 -23.5q-62 0 -115.5 34.5t-85.5 95t-32 135.5t32 135.5t85.5 95t115.5 34.5q53 0 93.5 -23t57.5 -45h5
l20 56h82v-506zM348 110.5q31 20.5 49.5 58t18.5 84.5t-18.5 84.5t-49.5 58t-68 20.5t-68 -20.5t-49.5 -58t-18.5 -84.5t18.5 -84.5t49.5 -58t68 -20.5t68 20.5z" />
    <glyph glyph-name="aring.ss01" horiz-adv-x="590" 
d="M152.5 22.5q-53.5 34.5 -85.5 95t-32 135.5t32 135.5t85.5 95t115.5 34.5q53 0 93.5 -23t57.5 -45h5l20 56h82v-506h-82l-20 57h-5q-16 -22 -57 -45.5t-94 -23.5q-62 0 -115.5 34.5zM348 110.5q31 20.5 49.5 58t18.5 84.5t-18.5 84.5t-49.5 58t-68 20.5t-68 -20.5
t-49.5 -58t-18.5 -84.5t18.5 -84.5t49.5 -58t68 -20.5t68 20.5zM219.5 582q-29.5 29 -29.5 71t29.5 70.5t73.5 28.5q45 0 74.5 -28.5t29.5 -70.5t-29.5 -71t-74.5 -29q-44 0 -73.5 29zM323 622.5q12 11.5 12 30.5t-12 30.5t-30 11.5t-30 -11.5t-12 -30.5t12 -30.5t30 -11.5
t30 11.5z" />
    <glyph glyph-name="aringacute.ss01" horiz-adv-x="590" 
d="M152.5 22.5q-53.5 34.5 -85.5 95t-32 135.5t32 135.5t85.5 95t115.5 34.5q53 0 93.5 -23t57.5 -45h5l20 56h82v-506h-82l-20 57h-5q-16 -22 -57 -45.5t-94 -23.5q-62 0 -115.5 34.5zM348 110.5q31 20.5 49.5 58t18.5 84.5t-18.5 84.5t-49.5 58t-68 20.5t-68 -20.5
t-49.5 -58t-18.5 -84.5t18.5 -84.5t49.5 -58t68 -20.5t68 20.5zM333 766h-79l65 134h109zM220.5 583.5q-29.5 28.5 -29.5 69.5t29.5 69.5t72.5 28.5t72.5 -28.5t29.5 -69.5t-29.5 -69.5t-72.5 -28.5t-72.5 28.5zM323 623q12 12 12 30t-12 30t-30 12q-19 0 -30.5 -12
t-11.5 -30t11.5 -30t30.5 -12q18 0 30 12z" />
    <glyph glyph-name="atilde.ss01" horiz-adv-x="590" 
d="M152.5 22.5q-53.5 34.5 -85.5 95t-32 135.5t32 135.5t85.5 95t115.5 34.5q53 0 93.5 -23t57.5 -45h5l20 56h82v-506h-82l-20 57h-5q-16 -22 -57 -45.5t-94 -23.5q-62 0 -115.5 34.5zM348 110.5q31 20.5 49.5 58t18.5 84.5t-18.5 84.5t-49.5 58t-68 20.5t-68 -20.5
t-49.5 -58t-18.5 -84.5t18.5 -84.5t49.5 -58t68 -20.5t68 20.5zM318 583.5q-16 9.5 -37 28.5q-12 12 -21.5 18.5t-19.5 6.5q-16 0 -27 -15.5t-11 -42.5h-71q0 65 27 99.5t70 34.5q24 0 40 -9.5t37 -28.5q12 -12 21.5 -18.5t19.5 -6.5q16 0 27 15.5t11 42.5h71
q0 -65 -27 -99.5t-70 -34.5q-24 0 -40 9.5z" />
    <glyph glyph-name="l.ss01" horiz-adv-x="298" 
d="M113 35q-44 47 -44 129v536h110v-527q0 -41 19.5 -61.5t54.5 -20.5q20 0 35 7v-100q-28 -10 -60 -10q-71 0 -115 47z" />
    <glyph glyph-name="lacute.ss01" horiz-adv-x="298" 
d="M113 35q-44 47 -44 129v536h110v-527q0 -41 19.5 -61.5t54.5 -20.5q20 0 35 7v-100q-28 -10 -60 -10q-71 0 -115 47zM153 755h-87l78 147h118z" />
    <glyph glyph-name="lcaron.ss01" horiz-adv-x="298" 
d="M113 35q-44 47 -44 129v536h110v-527q0 -41 19.5 -61.5t54.5 -20.5q20 0 35 7v-100q-28 -10 -60 -10q-71 0 -115 47zM292 551h-70l32 149h104z" />
    <glyph glyph-name="uni013C.ss01" horiz-adv-x="298" 
d="M113 35q-44 47 -44 129v536h110v-527q0 -41 19.5 -61.5t54.5 -20.5q20 0 35 7v-100q-28 -10 -60 -10q-71 0 -115 47zM237 -90.5q19 -19.5 19 -53.5q0 -85 -91 -155l-20 26q12 10 24.5 30t16.5 44q-26 1 -44 19.5t-18 44.5q0 27 19 45.5t46 18.5q29 0 48 -19.5z" />
    <glyph glyph-name="ldot.ss01" horiz-adv-x="384" 
d="M113 35q-44 47 -44 129v536h110v-527q0 -41 19.5 -61.5t54.5 -20.5q20 0 35 7v-100q-28 -10 -60 -10q-71 0 -115 47zM265 326.5q-20 20.5 -20 49.5t20 49t50 20t50 -20t20 -49t-20 -49.5t-50 -20.5t-50 20.5z" />
    <glyph glyph-name="lslash.ss01" horiz-adv-x="318" 
d="M308 98v-100q-28 -10 -60 -10q-71 0 -115 47t-44 129v102l-83 -55v97l83 55v337h110v-263l93 62v-97l-93 -62v-167q0 -41 19.5 -61.5t54.5 -20.5q20 0 35 7z" />
    <glyph glyph-name="y.ss01" horiz-adv-x="575" 
d="M168 -164.5q-48 25.5 -74.5 62t-34.5 71.5h113q12 -27 42 -43.5t70 -16.5q53 0 85.5 32t32.5 87v52h-5q-18 -23 -54 -43.5t-87 -20.5q-56 0 -101 27.5t-70.5 78t-25.5 117.5v267h110v-259q0 -57 32.5 -93t82.5 -36q52 0 85 36t33 93v259h109v-476q0 -101 -61.5 -160.5
t-166.5 -59.5q-67 0 -115 25.5z" />
    <glyph glyph-name="yacute.ss01" horiz-adv-x="575" 
d="M168 -164.5q-48 25.5 -74.5 62t-34.5 71.5h113q12 -27 42 -43.5t70 -16.5q53 0 85.5 32t32.5 87v52h-5q-18 -23 -54 -43.5t-87 -20.5q-56 0 -101 27.5t-70.5 78t-25.5 117.5v267h110v-259q0 -57 32.5 -93t82.5 -36q52 0 85 36t33 93v259h109v-476q0 -101 -61.5 -160.5
t-166.5 -59.5q-67 0 -115 25.5zM315 566h-84l72 152h114z" />
    <glyph glyph-name="ycircumflex.ss01" horiz-adv-x="575" 
d="M168 -164.5q-48 25.5 -74.5 62t-34.5 71.5h113q12 -27 42 -43.5t70 -16.5q53 0 85.5 32t32.5 87v52h-5q-18 -23 -54 -43.5t-87 -20.5q-56 0 -101 27.5t-70.5 78t-25.5 117.5v267h110v-259q0 -57 32.5 -93t82.5 -36q52 0 85 36t33 93v259h109v-476q0 -101 -61.5 -160.5
t-166.5 -59.5q-67 0 -115 25.5zM332 718l110 -152h-97l-61 89l-61 -89h-94l110 152h93z" />
    <glyph glyph-name="ydieresis.ss01" horiz-adv-x="575" 
d="M168 -164.5q-48 25.5 -74.5 62t-34.5 71.5h113q12 -27 42 -43.5t70 -16.5q53 0 85.5 32t32.5 87v52h-5q-18 -23 -54 -43.5t-87 -20.5q-56 0 -101 27.5t-70.5 78t-25.5 117.5v267h110v-259q0 -57 32.5 -93t82.5 -36q52 0 85 36t33 93v259h109v-476q0 -101 -61.5 -160.5
t-166.5 -59.5q-67 0 -115 25.5zM155 598.5q-18 17.5 -18 42.5q0 26 17.5 43t42.5 17t42.5 -17t17.5 -43q0 -25 -17.5 -42.5t-42.5 -17.5q-24 0 -42 17.5zM331 598.5q-18 17.5 -18 42.5q0 26 17.5 43t42.5 17t42.5 -17t17.5 -43q0 -25 -17.5 -42.5t-42.5 -17.5
q-24 0 -42 17.5z" />
    <glyph glyph-name="ygrave.ss01" horiz-adv-x="575" 
d="M168 -164.5q-48 25.5 -74.5 62t-34.5 71.5h113q12 -27 42 -43.5t70 -16.5q53 0 85.5 32t32.5 87v52h-5q-18 -23 -54 -43.5t-87 -20.5q-56 0 -101 27.5t-70.5 78t-25.5 117.5v267h110v-259q0 -57 32.5 -93t82.5 -36q52 0 85 36t33 93v259h109v-476q0 -101 -61.5 -160.5
t-166.5 -59.5q-67 0 -115 25.5zM339 566h-84l-103 152h115z" />
    <glyph glyph-name="uni0233.ss01" horiz-adv-x="575" 
d="M168 -164.5q-48 25.5 -74.5 62t-34.5 71.5h113q12 -27 42 -43.5t70 -16.5q53 0 85.5 32t32.5 87v52h-5q-18 -23 -54 -43.5t-87 -20.5q-56 0 -101 27.5t-70.5 78t-25.5 117.5v267h110v-259q0 -57 32.5 -93t82.5 -36q52 0 85 36t33 93v259h109v-476q0 -101 -61.5 -160.5
t-166.5 -59.5q-67 0 -115 25.5zM426 602h-281v80h281v-80z" />
    <glyph glyph-name="i.sc.ss01" horiz-adv-x="381" 
d="M349 0h-317v104h103v402h-103v104h317v-104h-103v-402h103v-104z" />
    <glyph glyph-name="iacute.sc.ss01" horiz-adv-x="381" 
d="M349 0h-317v104h103v402h-103v104h317v-104h-103v-402h103v-104zM220 665h-87l78 147h118z" />
    <glyph glyph-name="ibreve.sc.ss01" horiz-adv-x="381" 
d="M349 0h-317v104h103v402h-103v104h317v-104h-103v-402h103v-104zM84 709q-42 39 -47 98h83q3 -27 21 -45.5t50 -18.5t49.5 18t21.5 46h83q-5 -59 -47.5 -98t-106.5 -39q-65 0 -107 39z" />
    <glyph glyph-name="icircumflex.sc.ss01" horiz-adv-x="381" 
d="M349 0h-317v104h103v402h-103v104h317v-104h-103v-402h103v-104zM238 812l116 -147h-99l-65 84l-65 -84h-97l116 147h94z" />
    <glyph glyph-name="idieresis.sc.ss01" horiz-adv-x="381" 
d="M349 0h-317v104h103v402h-103v104h317v-104h-103v-402h103v-104zM52 695q-18 18 -18 43t18 42.5t43 17.5q24 0 42 -17.5t18 -42.5t-18 -43t-42 -18q-25 0 -43 18zM243.5 695q-18.5 18 -18.5 43t18.5 42.5t42.5 17.5q25 0 43 -17.5t18 -42.5t-18 -43t-43 -18
q-24 0 -42.5 18z" />
    <glyph glyph-name="i.sc.loclTRK.ss01" horiz-adv-x="381" 
d="M349 0h-317v104h103v402h-103v104h317v-104h-103v-402h103v-104zM145 691.5q-19 18.5 -19 46.5q0 27 19 45.5t46 18.5t45.5 -18t18.5 -46t-18.5 -46.5t-45.5 -18.5t-46 18.5z" />
    <glyph glyph-name="igrave.sc.ss01" horiz-adv-x="381" 
d="M349 0h-317v104h103v402h-103v104h317v-104h-103v-402h103v-104zM248 665h-87l-109 147h118z" />
    <glyph glyph-name="imacron.sc.ss01" horiz-adv-x="381" 
d="M349 0h-317v104h103v402h-103v104h317v-104h-103v-402h103v-104zM335 696h-290v84h290v-84z" />
    <glyph glyph-name="iogonek.sc.ss01" horiz-adv-x="381" 
d="M349 506h-103v-402h103v-104h-119q-77 -48 -77 -102q0 -23 13 -36t33 -13q18 0 31 6v-64q-28 -7 -48 -7q-47 0 -76 26.5t-29 71.5q0 37 20 67.5t53 50.5h-118v104h103v402h-103v104h317v-104z" />
    <glyph glyph-name="ij.sc.ss01" horiz-adv-x="862" 
d="M349 0h-317v104h103v402h-103v104h317v-104h-103v-402h103v-104zM470.5 15q-49.5 27 -76.5 72t-27 95h115q2 -37 28.5 -61t70.5 -24q47 0 73.5 30t26.5 85v398h116v-397q0 -65 -27 -116t-76 -80t-112 -29q-62 0 -111.5 27z" />
    <glyph glyph-name="iacute_j.loclNLD.sc.ss01" horiz-adv-x="862" 
d="M349 0h-317v104h103v402h-103v104h317v-104h-103v-402h103v-104zM220 665h-87l78 147h118zM470.5 15q-49.5 27 -76.5 72t-27 95h115q2 -37 28.5 -61t70.5 -24q47 0 73.5 30t26.5 85v398h116v-397q0 -65 -27 -116t-76 -80t-112 -29q-62 0 -111.5 27zM768 665h-87l78 147
h118z" />
    <glyph glyph-name="uni1EAE" unicode="&#x1eae;" horiz-adv-x="633" 
d="M635 0h-122l-57 157h-283l-57 -157h-118l263 700h112zM418 264l-103 287l-104 -287h207zM356 889h-81l66 129h107zM210 786q-42 39 -47 98h83q3 -27 21 -45.5t50 -18.5t49.5 18t21.5 46h83q-5 -59 -47.5 -98t-106.5 -39q-65 0 -107 39z" />
    <glyph glyph-name="uni1EB6" unicode="&#x1eb6;" horiz-adv-x="633" 
d="M635 0h-122l-57 157h-283l-57 -157h-118l263 700h112zM418 264l-103 287l-104 -287h207zM272 -181.5q-19 18.5 -19 46.5q0 27 19 45.5t46 18.5t45.5 -18t18.5 -46t-18.5 -46.5t-45.5 -18.5t-46 18.5zM210 799q-42 39 -47 98h83q3 -27 21 -45.5t50 -18.5t49.5 18t21.5 46
h83q-5 -59 -47.5 -98t-106.5 -39q-65 0 -107 39z" />
    <glyph glyph-name="uni1EB0" unicode="&#x1eb0;" horiz-adv-x="633" 
d="M635 0h-122l-57 157h-283l-57 -157h-118l263 700h112zM418 264l-103 287l-104 -287h207zM358 889h-80l-92 129h107zM210 786q-42 39 -47 98h83q3 -27 21 -45.5t50 -18.5t49.5 18t21.5 46h83q-5 -59 -47.5 -98t-106.5 -39q-65 0 -107 39z" />
    <glyph glyph-name="uni1EB2" unicode="&#x1eb2;" horiz-adv-x="633" 
d="M635 0h-122l-57 157h-283l-57 -157h-118l263 700h112zM418 264l-103 287l-104 -287h207zM283 889q21 27 21 51q0 18 -11.5 29t-31.5 11q-18 0 -30 -4v65q22 8 55 8q46 0 72 -22.5t26 -59.5q0 -22 -9 -42.5t-24 -35.5h-68zM210 786q-42 39 -47 98h83q3 -27 21 -45.5
t50 -18.5t49.5 18t21.5 46h83q-5 -59 -47.5 -98t-106.5 -39q-65 0 -107 39z" />
    <glyph glyph-name="uni1EB4" unicode="&#x1eb4;" horiz-adv-x="633" 
d="M635 0h-122l-57 157h-283l-57 -157h-118l263 700h112zM418 264l-103 287l-104 -287h207zM337 916.5q-16 8.5 -34 24.5q-12 10 -19 14.5t-16 4.5q-15 0 -25.5 -13t-10.5 -34h-71q0 57 27 88.5t67 31.5q25 0 41 -8.5t34 -24.5q12 -10 19 -14.5t16 -4.5q15 0 25.5 12.5
t10.5 34.5h71q0 -57 -27 -88.5t-67 -31.5q-25 0 -41 8.5zM210 786q-42 39 -47 98h83q3 -27 21 -45.5t50 -18.5t49.5 18t21.5 46h83q-5 -59 -47.5 -98t-106.5 -39q-65 0 -107 39z" />
    <glyph glyph-name="uni1EA4" unicode="&#x1ea4;" horiz-adv-x="633" 
d="M635 0h-122l-57 157h-283l-57 -157h-118l263 700h112zM418 264l-103 287l-104 -287h207zM442 830l65 129h107l-92 -129h-80zM155 747l116 147h94l116 -147h-99l-65 84l-65 -84h-97z" />
    <glyph glyph-name="uni1EAC" unicode="&#x1eac;" horiz-adv-x="633" 
d="M635 0h-122l-57 157h-283l-57 -157h-118l263 700h112zM418 264l-103 287l-104 -287h207zM272 -181.5q-19 18.5 -19 46.5q0 27 19 45.5t46 18.5t45.5 -18t18.5 -46t-18.5 -46.5t-45.5 -18.5t-46 18.5zM365 902l116 -147h-99l-65 84l-65 -84h-97l116 147h94z" />
    <glyph glyph-name="uni1EA6" unicode="&#x1ea6;" horiz-adv-x="633" 
d="M635 0h-122l-57 157h-283l-57 -157h-118l263 700h112zM418 264l-103 287l-104 -287h207zM486 959l65 -129h-80l-92 129h107zM155 747l116 147h94l116 -147h-99l-65 84l-65 -84h-97z" />
    <glyph glyph-name="uni1EA8" unicode="&#x1ea8;" horiz-adv-x="633" 
d="M635 0h-122l-57 157h-283l-57 -157h-118l263 700h112zM418 264l-103 287l-104 -287h207zM524 967q26 -23 26 -59q0 -22 -9 -42.5t-24 -35.5h-68q21 25 21 51q0 18 -11 29t-32 11q-10 0 -30 -4v65q28 8 55 8q46 0 72 -23zM155 747l116 147h94l116 -147h-99l-65 84l-65 -84
h-97z" />
    <glyph glyph-name="uni1EAA" unicode="&#x1eaa;" horiz-adv-x="633" 
d="M635 0h-122l-57 157h-283l-57 -157h-118l263 700h112zM418 264l-103 287l-104 -287h207zM242.5 948.5q-10.5 -12.5 -10.5 -34.5h-71q0 57 27 88.5t67 31.5q25 0 41 -8.5t34 -24.5q12 -10 19 -14.5t16 -4.5q15 0 25 12.5t10 34.5h72q0 -57 -27 -88.5t-67 -31.5
q-25 0 -41 8.5t-34 24.5q-12 10 -19 14.5t-16 4.5q-15 0 -25.5 -12.5zM364 894l116 -147h-99l-65 84l-65 -84h-97l116 147h94z" />
    <glyph glyph-name="uni1EA0" unicode="&#x1ea0;" horiz-adv-x="633" 
d="M635 0h-122l-57 157h-283l-57 -157h-118l263 700h112zM418 264l-103 287l-104 -287h207zM272 -181.5q-19 18.5 -19 46.5q0 27 19 45.5t46 18.5t45.5 -18t18.5 -46t-18.5 -46.5t-45.5 -18.5t-46 18.5z" />
    <glyph glyph-name="uni1EA2" unicode="&#x1ea2;" horiz-adv-x="633" 
d="M635 0h-122l-57 157h-283l-57 -157h-118l263 700h112zM418 264l-103 287l-104 -287h207zM292 751q20 30 20 58q0 22 -14.5 35.5t-38.5 13.5q-10 0 -30 -4v67q25 9 54 9q49 0 79 -26.5t30 -68.5q0 -23 -9.5 -45.5t-23.5 -38.5h-67z" />
    <glyph glyph-name="uni1EBE" unicode="&#x1ebe;" horiz-adv-x="589" 
d="M193 305v-195h356v-110h-472v700h462v-110h-346v-178h308v-107h-308zM433 830l65 129h107l-92 -129h-80zM146 747l116 147h94l116 -147h-99l-65 84l-65 -84h-97z" />
    <glyph glyph-name="uni1EC6" unicode="&#x1ec6;" horiz-adv-x="589" 
d="M193 305v-195h356v-110h-472v700h462v-110h-346v-178h308v-107h-308zM268 -181.5q-19 18.5 -19 46.5q0 27 19 45.5t46 18.5t45.5 -18t18.5 -46t-18.5 -46.5t-45.5 -18.5t-46 18.5zM356 902l116 -147h-99l-65 84l-65 -84h-97l116 147h94z" />
    <glyph glyph-name="uni1EC0" unicode="&#x1ec0;" horiz-adv-x="589" 
d="M193 305v-195h356v-110h-472v700h462v-110h-346v-178h308v-107h-308zM477 959l65 -129h-80l-92 129h107zM146 747l116 147h94l116 -147h-99l-65 84l-65 -84h-97z" />
    <glyph glyph-name="uni1EC2" unicode="&#x1ec2;" horiz-adv-x="589" 
d="M193 305v-195h356v-110h-472v700h462v-110h-346v-178h308v-107h-308zM515 967q26 -23 26 -59q0 -22 -9 -42.5t-24 -35.5h-68q21 25 21 51q0 18 -11 29t-32 11q-10 0 -30 -4v65q28 8 55 8q46 0 72 -23zM146 747l116 147h94l116 -147h-99l-65 84l-65 -84h-97z" />
    <glyph glyph-name="uni1EC4" unicode="&#x1ec4;" horiz-adv-x="589" 
d="M193 305v-195h356v-110h-472v700h462v-110h-346v-178h308v-107h-308zM234.5 948.5q-10.5 -12.5 -10.5 -34.5h-71q0 57 27 88.5t67 31.5q25 0 41 -8.5t34 -24.5q12 -10 19 -14.5t16 -4.5q15 0 25 12.5t10 34.5h72q0 -57 -27 -88.5t-67 -31.5q-25 0 -41 8.5t-34 24.5
q-12 10 -19 14.5t-16 4.5q-15 0 -25.5 -12.5zM356 894l116 -147h-99l-65 84l-65 -84h-97l116 147h94z" />
    <glyph glyph-name="uni1EB8" unicode="&#x1eb8;" horiz-adv-x="589" 
d="M193 305v-195h356v-110h-472v700h462v-110h-346v-178h308v-107h-308zM268 -181.5q-19 18.5 -19 46.5q0 27 19 45.5t46 18.5t45.5 -18t18.5 -46t-18.5 -46.5t-45.5 -18.5t-46 18.5z" />
    <glyph glyph-name="uni1EBA" unicode="&#x1eba;" horiz-adv-x="589" 
d="M193 305v-195h356v-110h-472v700h462v-110h-346v-178h308v-107h-308zM283 751q20 30 20 58q0 22 -14.5 35.5t-38.5 13.5q-10 0 -30 -4v67q25 9 54 9q49 0 79 -26.5t30 -68.5q0 -23 -9.5 -45.5t-23.5 -38.5h-67z" />
    <glyph glyph-name="uni1EBC" unicode="&#x1ebc;" horiz-adv-x="589" 
d="M193 305v-195h356v-110h-472v700h462v-110h-346v-178h308v-107h-308zM331 770.5q-18 9.5 -37 26.5q-14 12 -22.5 17t-19.5 5q-16 0 -27 -14.5t-11 -38.5h-72q0 62 28 95.5t71 33.5q28 0 46 -9.5t36 -26.5q12 -11 21 -16.5t20 -5.5q16 0 27.5 14.5t11.5 38.5h72
q0 -63 -28 -96t-71 -33q-27 0 -45 9.5z" />
    <glyph glyph-name="uni1ECA" unicode="&#x1eca;" horiz-adv-x="270" 
d="M193 0h-116v700h116v-700zM90 -181.5q-19 18.5 -19 46.5q0 27 19 45.5t46 18.5t45.5 -18t18.5 -46t-18.5 -46.5t-45.5 -18.5t-46 18.5z" />
    <glyph glyph-name="uni1EC8" unicode="&#x1ec8;" horiz-adv-x="270" 
d="M193 0h-116v700h116v-700zM110 751q20 30 20 58q0 22 -14.5 35.5t-38.5 13.5q-10 0 -30 -4v67q25 9 54 9q49 0 79 -26.5t30 -68.5q0 -23 -9.5 -45.5t-23.5 -38.5h-67z" />
    <glyph glyph-name="Itilde" unicode="&#x128;" horiz-adv-x="270" 
d="M193 0h-116v700h116v-700zM158 770.5q-18 9.5 -37 26.5q-14 12 -22.5 17t-19.5 5q-16 0 -27 -14.5t-11 -38.5h-72q0 62 28 95.5t71 33.5q28 0 46 -9.5t36 -26.5q12 -11 21 -16.5t20 -5.5q16 0 27.5 14.5t11.5 38.5h72q0 -63 -28 -96t-71 -33q-27 0 -45 9.5z" />
    <glyph glyph-name="uni1ED0" unicode="&#x1ed0;" horiz-adv-x="748" 
d="M206.5 36q-77.5 48 -123.5 131t-46 183t46 183t123.5 131t167.5 48t167.5 -48t123.5 -131t46 -183t-46 -183t-123.5 -131t-167.5 -48t-167.5 48zM483.5 131.5q50.5 32.5 81 89.5t30.5 129t-30.5 129t-81 89.5t-109.5 32.5t-109.5 -32.5t-81 -89.5t-30.5 -129t30.5 -129
t81 -89.5t109.5 -32.5t109.5 32.5zM498 830l65 129h107l-92 -129h-80zM211 747l116 147h94l116 -147h-99l-65 84l-65 -84h-97z" />
    <glyph glyph-name="uni1ED8" unicode="&#x1ed8;" horiz-adv-x="748" 
d="M206.5 36q-77.5 48 -123.5 131t-46 183t46 183t123.5 131t167.5 48t167.5 -48t123.5 -131t46 -183t-46 -183t-123.5 -131t-167.5 -48t-167.5 48zM483.5 131.5q50.5 32.5 81 89.5t30.5 129t-30.5 129t-81 89.5t-109.5 32.5t-109.5 -32.5t-81 -89.5t-30.5 -129t30.5 -129
t81 -89.5t109.5 -32.5t109.5 32.5zM328 -181.5q-19 18.5 -19 46.5q0 27 19 45.5t46 18.5t45.5 -18t18.5 -46t-18.5 -46.5t-45.5 -18.5t-46 18.5zM421 902l116 -147h-99l-65 84l-65 -84h-97l116 147h94z" />
    <glyph glyph-name="uni1ED2" unicode="&#x1ed2;" horiz-adv-x="748" 
d="M206.5 36q-77.5 48 -123.5 131t-46 183t46 183t123.5 131t167.5 48t167.5 -48t123.5 -131t46 -183t-46 -183t-123.5 -131t-167.5 -48t-167.5 48zM483.5 131.5q50.5 32.5 81 89.5t30.5 129t-30.5 129t-81 89.5t-109.5 32.5t-109.5 -32.5t-81 -89.5t-30.5 -129t30.5 -129
t81 -89.5t109.5 -32.5t109.5 32.5zM542 959l65 -129h-80l-92 129h107zM211 747l116 147h94l116 -147h-99l-65 84l-65 -84h-97z" />
    <glyph glyph-name="uni1ED4" unicode="&#x1ed4;" horiz-adv-x="748" 
d="M206.5 36q-77.5 48 -123.5 131t-46 183t46 183t123.5 131t167.5 48t167.5 -48t123.5 -131t46 -183t-46 -183t-123.5 -131t-167.5 -48t-167.5 48zM483.5 131.5q50.5 32.5 81 89.5t30.5 129t-30.5 129t-81 89.5t-109.5 32.5t-109.5 -32.5t-81 -89.5t-30.5 -129t30.5 -129
t81 -89.5t109.5 -32.5t109.5 32.5zM580 967q26 -23 26 -59q0 -22 -9 -42.5t-24 -35.5h-68q21 25 21 51q0 18 -11 29t-32 11q-10 0 -30 -4v65q28 8 55 8q46 0 72 -23zM211 747l116 147h94l116 -147h-99l-65 84l-65 -84h-97z" />
    <glyph glyph-name="uni1ED6" unicode="&#x1ed6;" horiz-adv-x="748" 
d="M206.5 36q-77.5 48 -123.5 131t-46 183t46 183t123.5 131t167.5 48t167.5 -48t123.5 -131t46 -183t-46 -183t-123.5 -131t-167.5 -48t-167.5 48zM483.5 131.5q50.5 32.5 81 89.5t30.5 129t-30.5 129t-81 89.5t-109.5 32.5t-109.5 -32.5t-81 -89.5t-30.5 -129t30.5 -129
t81 -89.5t109.5 -32.5t109.5 32.5zM299.5 948.5q-10.5 -12.5 -10.5 -34.5h-71q0 57 27 88.5t67 31.5q25 0 41 -8.5t34 -24.5q12 -10 19 -14.5t16 -4.5q15 0 25 12.5t10 34.5h72q0 -57 -27 -88.5t-67 -31.5q-25 0 -41 8.5t-34 24.5q-12 10 -19 14.5t-16 4.5
q-15 0 -25.5 -12.5zM421 894l116 -147h-99l-65 84l-65 -84h-97l116 147h94z" />
    <glyph glyph-name="uni1ECC" unicode="&#x1ecc;" horiz-adv-x="748" 
d="M206.5 36q-77.5 48 -123.5 131t-46 183t46 183t123.5 131t167.5 48t167.5 -48t123.5 -131t46 -183t-46 -183t-123.5 -131t-167.5 -48t-167.5 48zM483.5 131.5q50.5 32.5 81 89.5t30.5 129t-30.5 129t-81 89.5t-109.5 32.5t-109.5 -32.5t-81 -89.5t-30.5 -129t30.5 -129
t81 -89.5t109.5 -32.5t109.5 32.5zM328 -181.5q-19 18.5 -19 46.5q0 27 19 45.5t46 18.5t45.5 -18t18.5 -46t-18.5 -46.5t-45.5 -18.5t-46 18.5z" />
    <glyph glyph-name="uni1ECE" unicode="&#x1ece;" horiz-adv-x="748" 
d="M206.5 36q-77.5 48 -123.5 131t-46 183t46 183t123.5 131t167.5 48t167.5 -48t123.5 -131t46 -183t-46 -183t-123.5 -131t-167.5 -48t-167.5 48zM483.5 131.5q50.5 32.5 81 89.5t30.5 129t-30.5 129t-81 89.5t-109.5 32.5t-109.5 -32.5t-81 -89.5t-30.5 -129t30.5 -129
t81 -89.5t109.5 -32.5t109.5 32.5zM348 751q20 30 20 58q0 22 -14.5 35.5t-38.5 13.5q-10 0 -30 -4v67q25 9 54 9q49 0 79 -26.5t30 -68.5q0 -23 -9.5 -45.5t-23.5 -38.5h-67z" />
    <glyph glyph-name="Ohorn" unicode="&#x1a0;" horiz-adv-x="748" 
d="M680.5 500q30.5 -70 30.5 -150q0 -100 -46 -183t-123.5 -131t-167.5 -48t-167.5 48t-123.5 131t-46 183t46 183t123.5 131t167.5 48q58 0 115 -22h64q46 0 46 46q0 25 -14 56h77q18 -34 18 -68q0 -38 -22 -66t-61 -37q53 -51 83.5 -121zM483.5 131.5q50.5 32.5 81 89.5
t30.5 129t-30.5 129t-81 89.5t-109.5 32.5t-109.5 -32.5t-81 -89.5t-30.5 -129t30.5 -129t81 -89.5t109.5 -32.5t109.5 32.5z" />
    <glyph glyph-name="uni1EDA" unicode="&#x1eda;" horiz-adv-x="748" 
d="M680.5 500q30.5 -70 30.5 -150q0 -100 -46 -183t-123.5 -131t-167.5 -48t-167.5 48t-123.5 131t-46 183t46 183t123.5 131t167.5 48q58 0 115 -22h64q46 0 46 46q0 25 -14 56h77q18 -34 18 -68q0 -38 -22 -66t-61 -37q53 -51 83.5 -121zM483.5 131.5q50.5 32.5 81 89.5
t30.5 129t-30.5 129t-81 89.5t-109.5 32.5t-109.5 -32.5t-81 -89.5t-30.5 -129t30.5 -129t81 -89.5t109.5 -32.5t109.5 32.5zM403 755h-87l78 147h118z" />
    <glyph glyph-name="uni1EE2" unicode="&#x1ee2;" horiz-adv-x="748" 
d="M680.5 500q30.5 -70 30.5 -150q0 -100 -46 -183t-123.5 -131t-167.5 -48t-167.5 48t-123.5 131t-46 183t46 183t123.5 131t167.5 48q58 0 115 -22h64q46 0 46 46q0 25 -14 56h77q18 -34 18 -68q0 -38 -22 -66t-61 -37q53 -51 83.5 -121zM483.5 131.5q50.5 32.5 81 89.5
t30.5 129t-30.5 129t-81 89.5t-109.5 32.5t-109.5 -32.5t-81 -89.5t-30.5 -129t30.5 -129t81 -89.5t109.5 -32.5t109.5 32.5zM328 -181.5q-19 18.5 -19 46.5q0 27 19 45.5t46 18.5t45.5 -18t18.5 -46t-18.5 -46.5t-45.5 -18.5t-46 18.5z" />
    <glyph glyph-name="uni1EDC" unicode="&#x1edc;" horiz-adv-x="748" 
d="M680.5 500q30.5 -70 30.5 -150q0 -100 -46 -183t-123.5 -131t-167.5 -48t-167.5 48t-123.5 131t-46 183t46 183t123.5 131t167.5 48q58 0 115 -22h64q46 0 46 46q0 25 -14 56h77q18 -34 18 -68q0 -38 -22 -66t-61 -37q53 -51 83.5 -121zM483.5 131.5q50.5 32.5 81 89.5
t30.5 129t-30.5 129t-81 89.5t-109.5 32.5t-109.5 -32.5t-81 -89.5t-30.5 -129t30.5 -129t81 -89.5t109.5 -32.5t109.5 32.5zM431 755h-87l-109 147h118z" />
    <glyph glyph-name="uni1EDE" unicode="&#x1ede;" horiz-adv-x="748" 
d="M680.5 500q30.5 -70 30.5 -150q0 -100 -46 -183t-123.5 -131t-167.5 -48t-167.5 48t-123.5 131t-46 183t46 183t123.5 131t167.5 48q58 0 115 -22h64q46 0 46 46q0 25 -14 56h77q18 -34 18 -68q0 -38 -22 -66t-61 -37q53 -51 83.5 -121zM483.5 131.5q50.5 32.5 81 89.5
t30.5 129t-30.5 129t-81 89.5t-109.5 32.5t-109.5 -32.5t-81 -89.5t-30.5 -129t30.5 -129t81 -89.5t109.5 -32.5t109.5 32.5zM348 751q20 30 20 58q0 22 -14.5 35.5t-38.5 13.5q-10 0 -30 -4v67q25 9 54 9q49 0 79 -26.5t30 -68.5q0 -23 -9.5 -45.5t-23.5 -38.5h-67z" />
    <glyph glyph-name="uni1EE0" unicode="&#x1ee0;" horiz-adv-x="748" 
d="M680.5 500q30.5 -70 30.5 -150q0 -100 -46 -183t-123.5 -131t-167.5 -48t-167.5 48t-123.5 131t-46 183t46 183t123.5 131t167.5 48q58 0 115 -22h64q46 0 46 46q0 25 -14 56h77q18 -34 18 -68q0 -38 -22 -66t-61 -37q53 -51 83.5 -121zM483.5 131.5q50.5 32.5 81 89.5
t30.5 129t-30.5 129t-81 89.5t-109.5 32.5t-109.5 -32.5t-81 -89.5t-30.5 -129t30.5 -129t81 -89.5t109.5 -32.5t109.5 32.5zM396 770.5q-18 9.5 -37 26.5q-14 12 -22.5 17t-19.5 5q-16 0 -27 -14.5t-11 -38.5h-72q0 62 28 95.5t71 33.5q28 0 46 -9.5t36 -26.5
q12 -11 21 -16.5t20 -5.5q16 0 27.5 14.5t11.5 38.5h72q0 -63 -28 -96t-71 -33q-27 0 -45 9.5z" />
    <glyph glyph-name="uni1EE4" unicode="&#x1ee4;" horiz-adv-x="684" 
d="M200.5 23.5q-61.5 35.5 -95 98t-33.5 140.5v438h116v-438q0 -73 41.5 -118t112.5 -45t112.5 45t41.5 118v438h116v-438q0 -78 -33.5 -140.5t-95 -98t-141.5 -35.5t-141.5 35.5zM297 -181.5q-19 18.5 -19 46.5q0 27 19 45.5t46 18.5t45.5 -18t18.5 -46t-18.5 -46.5
t-45.5 -18.5t-46 18.5z" />
    <glyph glyph-name="uni1EE6" unicode="&#x1ee6;" horiz-adv-x="684" 
d="M200.5 23.5q-61.5 35.5 -95 98t-33.5 140.5v438h116v-438q0 -73 41.5 -118t112.5 -45t112.5 45t41.5 118v438h116v-438q0 -78 -33.5 -140.5t-95 -98t-141.5 -35.5t-141.5 35.5zM317 751q20 30 20 58q0 22 -14.5 35.5t-38.5 13.5q-10 0 -30 -4v67q25 9 54 9q49 0 79 -26.5
t30 -68.5q0 -23 -9.5 -45.5t-23.5 -38.5h-67z" />
    <glyph glyph-name="Uhorn" unicode="&#x1af;" horiz-adv-x="711" 
d="M714 802q18 -34 18 -68q0 -46 -32 -76.5t-85 -30.5h-3v-365q0 -78 -33.5 -140.5t-95 -98t-141.5 -35.5t-141.5 35.5t-95 98t-33.5 140.5v438h116v-438q0 -73 41.5 -118t112.5 -45t112.5 45t41.5 118v438h109q46 0 46 46q0 25 -14 56h77z" />
    <glyph glyph-name="uni1EE8" unicode="&#x1ee8;" horiz-adv-x="711" 
d="M714 802q18 -34 18 -68q0 -46 -32 -76.5t-85 -30.5h-3v-365q0 -78 -33.5 -140.5t-95 -98t-141.5 -35.5t-141.5 35.5t-95 98t-33.5 140.5v438h116v-438q0 -73 41.5 -118t112.5 -45t112.5 45t41.5 118v438h109q46 0 46 46q0 25 -14 56h77zM372 755h-87l78 147h118z" />
    <glyph glyph-name="uni1EF0" unicode="&#x1ef0;" horiz-adv-x="711" 
d="M714 802q18 -34 18 -68q0 -46 -32 -76.5t-85 -30.5h-3v-365q0 -78 -33.5 -140.5t-95 -98t-141.5 -35.5t-141.5 35.5t-95 98t-33.5 140.5v438h116v-438q0 -73 41.5 -118t112.5 -45t112.5 45t41.5 118v438h109q46 0 46 46q0 25 -14 56h77zM297 -181.5q-19 18.5 -19 46.5
q0 27 19 45.5t46 18.5t45.5 -18t18.5 -46t-18.5 -46.5t-45.5 -18.5t-46 18.5z" />
    <glyph glyph-name="uni1EEA" unicode="&#x1eea;" horiz-adv-x="711" 
d="M714 802q18 -34 18 -68q0 -46 -32 -76.5t-85 -30.5h-3v-365q0 -78 -33.5 -140.5t-95 -98t-141.5 -35.5t-141.5 35.5t-95 98t-33.5 140.5v438h116v-438q0 -73 41.5 -118t112.5 -45t112.5 45t41.5 118v438h109q46 0 46 46q0 25 -14 56h77zM399 755h-87l-109 147h118z" />
    <glyph glyph-name="uni1EEC" unicode="&#x1eec;" horiz-adv-x="711" 
d="M714 802q18 -34 18 -68q0 -46 -32 -76.5t-85 -30.5h-3v-365q0 -78 -33.5 -140.5t-95 -98t-141.5 -35.5t-141.5 35.5t-95 98t-33.5 140.5v438h116v-438q0 -73 41.5 -118t112.5 -45t112.5 45t41.5 118v438h109q46 0 46 46q0 25 -14 56h77zM317 751q20 30 20 58
q0 22 -14.5 35.5t-38.5 13.5q-10 0 -30 -4v67q25 9 54 9q49 0 79 -26.5t30 -68.5q0 -23 -9.5 -45.5t-23.5 -38.5h-67z" />
    <glyph glyph-name="uni1EEE" unicode="&#x1eee;" horiz-adv-x="711" 
d="M714 802q18 -34 18 -68q0 -46 -32 -76.5t-85 -30.5h-3v-365q0 -78 -33.5 -140.5t-95 -98t-141.5 -35.5t-141.5 35.5t-95 98t-33.5 140.5v438h116v-438q0 -73 41.5 -118t112.5 -45t112.5 45t41.5 118v438h109q46 0 46 46q0 25 -14 56h77zM365 770.5q-18 9.5 -37 26.5
q-14 12 -22.5 17t-19.5 5q-16 0 -27 -14.5t-11 -38.5h-72q0 62 28 95.5t71 33.5q28 0 46 -9.5t36 -26.5q12 -11 21 -16.5t20 -5.5q16 0 27.5 14.5t11.5 38.5h72q0 -63 -28 -96t-71 -33q-27 0 -45 9.5z" />
    <glyph glyph-name="Utilde" unicode="&#x168;" horiz-adv-x="684" 
d="M200.5 23.5q-61.5 35.5 -95 98t-33.5 140.5v438h116v-438q0 -73 41.5 -118t112.5 -45t112.5 45t41.5 118v438h116v-438q0 -78 -33.5 -140.5t-95 -98t-141.5 -35.5t-141.5 35.5zM365 770.5q-18 9.5 -37 26.5q-14 12 -22.5 17t-19.5 5q-16 0 -27 -14.5t-11 -38.5h-72
q0 62 28 95.5t71 33.5q28 0 46 -9.5t36 -26.5q12 -11 21 -16.5t20 -5.5q16 0 27.5 14.5t11.5 38.5h72q0 -63 -28 -96t-71 -33q-27 0 -45 9.5z" />
    <glyph glyph-name="uni1EF4" unicode="&#x1ef4;" horiz-adv-x="569" 
d="M287 387l160 313h124l-229 -434v-266h-116v266l-228 434h128zM239 -181.5q-19 18.5 -19 46.5q0 27 19 45.5t46 18.5t45.5 -18t18.5 -46t-18.5 -46.5t-45.5 -18.5t-46 18.5z" />
    <glyph glyph-name="uni1EF6" unicode="&#x1ef6;" horiz-adv-x="569" 
d="M287 387l160 313h124l-229 -434v-266h-116v266l-228 434h128zM261 751q20 30 20 58q0 22 -14.5 35.5t-38.5 13.5q-10 0 -30 -4v67q25 9 54 9q49 0 79 -26.5t30 -68.5q0 -23 -9.5 -45.5t-23.5 -38.5h-67z" />
    <glyph glyph-name="uni1EF8" unicode="&#x1ef8;" horiz-adv-x="569" 
d="M287 387l160 313h124l-229 -434v-266h-116v266l-228 434h128zM309 770.5q-18 9.5 -37 26.5q-14 12 -22.5 17t-19.5 5q-16 0 -27 -14.5t-11 -38.5h-72q0 62 28 95.5t71 33.5q28 0 46 -9.5t36 -26.5q12 -11 21 -16.5t20 -5.5q16 0 27.5 14.5t11.5 38.5h72q0 -63 -28 -96
t-71 -33q-27 0 -45 9.5z" />
    <glyph glyph-name="uni1EAF" unicode="&#x1eaf;" horiz-adv-x="515" 
d="M401 461.5q55 -56.5 55 -149.5v-312h-82l-20 57h-5q-21 -27 -57.5 -48t-90.5 -21q-48 0 -87 20.5t-61 55t-22 75.5q0 50 29.5 87.5t83 57.5t122.5 20h81v17q0 45 -25.5 71.5t-68.5 26.5q-38 0 -61 -19.5t-28 -47.5h-110q5 44 29.5 82t68.5 61t102 23q92 0 147 -56.5z
M313 114q34 33 34 79v32h-80q-63 0 -94.5 -20.5t-31.5 -56.5q0 -30 21.5 -48.5t61.5 -18.5q55 0 89 33zM295 700h-79l66 139h107zM153 596q-41 39 -46 99h80q4 -29 21.5 -48t49.5 -19t49.5 19t21.5 48h80q-5 -60 -46 -99t-105 -39t-105 39z" />
    <glyph glyph-name="uni1EB7" unicode="&#x1eb7;" horiz-adv-x="515" 
d="M401 461.5q55 -56.5 55 -149.5v-312h-82l-20 57h-5q-21 -27 -57.5 -48t-90.5 -21q-48 0 -87 20.5t-61 55t-22 75.5q0 50 29.5 87.5t83 57.5t122.5 20h81v17q0 45 -25.5 71.5t-68.5 26.5q-38 0 -61 -19.5t-28 -47.5h-110q5 44 29.5 82t68.5 61t102 23q92 0 147 -56.5z
M313 114q34 33 34 79v32h-80q-63 0 -94.5 -20.5t-31.5 -56.5q0 -30 21.5 -48.5t61.5 -18.5q55 0 89 33zM215 -181.5q-19 18.5 -19 46.5q0 27 19 45.5t46 18.5t45.5 -18t18.5 -46t-18.5 -46.5t-45.5 -18.5t-46 18.5zM152 612.5q-41 39.5 -46 98.5h80q4 -29 21.5 -47.5
t49.5 -18.5t49.5 18.5t21.5 47.5h80q-5 -59 -46 -98.5t-105 -39.5t-105 39.5z" />
    <glyph glyph-name="uni1EB1" unicode="&#x1eb1;" horiz-adv-x="515" 
d="M401 461.5q55 -56.5 55 -149.5v-312h-82l-20 57h-5q-21 -27 -57.5 -48t-90.5 -21q-48 0 -87 20.5t-61 55t-22 75.5q0 50 29.5 87.5t83 57.5t122.5 20h81v17q0 45 -25.5 71.5t-68.5 26.5q-38 0 -61 -19.5t-28 -47.5h-110q5 44 29.5 82t68.5 61t102 23q92 0 147 -56.5z
M313 114q34 33 34 79v32h-80q-63 0 -94.5 -20.5t-31.5 -56.5q0 -30 21.5 -48.5t61.5 -18.5q55 0 89 33zM300 700h-79l-94 139h108zM153 596q-41 39 -46 99h80q4 -29 21.5 -48t49.5 -19t49.5 19t21.5 48h80q-5 -60 -46 -99t-105 -39t-105 39z" />
    <glyph glyph-name="uni1EB3" unicode="&#x1eb3;" horiz-adv-x="515" 
d="M401 461.5q55 -56.5 55 -149.5v-312h-82l-20 57h-5q-21 -27 -57.5 -48t-90.5 -21q-48 0 -87 20.5t-61 55t-22 75.5q0 50 29.5 87.5t83 57.5t122.5 20h81v17q0 45 -25.5 71.5t-68.5 26.5q-38 0 -61 -19.5t-28 -47.5h-110q5 44 29.5 82t68.5 61t102 23q92 0 147 -56.5z
M313 114q34 33 34 79v32h-80q-63 0 -94.5 -20.5t-31.5 -56.5q0 -30 21.5 -48.5t61.5 -18.5q55 0 89 33zM225 700q17 25 17 52q0 21 -12.5 34t-31.5 13q-9 0 -29 -4v63q21 8 51 8q45 0 72.5 -25t27.5 -64q0 -20 -8.5 -40.5t-20.5 -36.5h-66zM153 596q-41 39 -46 99h80
q4 -29 21.5 -48t49.5 -19q33 0 50.5 19t20.5 48h80q-5 -60 -46 -99t-105 -39t-105 39z" />
    <glyph glyph-name="uni1EB5" unicode="&#x1eb5;" horiz-adv-x="515" 
d="M401 461.5q55 -56.5 55 -149.5v-312h-82l-20 57h-5q-21 -27 -57.5 -48t-90.5 -21q-48 0 -87 20.5t-61 55t-22 75.5q0 50 29.5 87.5t83 57.5t122.5 20h81v17q0 45 -25.5 71.5t-68.5 26.5q-38 0 -61 -19.5t-28 -47.5h-110q5 44 29.5 82t68.5 61t102 23q92 0 147 -56.5z
M313 114q34 33 34 79v32h-80q-63 0 -94.5 -20.5t-31.5 -56.5q0 -30 21.5 -48.5t61.5 -18.5q55 0 89 33zM280 728.5q-16 8.5 -33 23.5q-11 10 -19 15t-18 5q-14 0 -24.5 -12.5t-10.5 -34.5h-71q0 55 27.5 87.5t66.5 32.5q25 0 41 -8.5t33 -23.5q11 -10 19 -15t18 -5
q14 0 24.5 12.5t10.5 34.5h71q0 -56 -27.5 -88t-66.5 -32q-25 0 -41 8.5zM151.5 596q-41.5 39 -46.5 99h81q3 -29 20.5 -48t49.5 -19q33 0 50.5 19t21.5 48h80q-5 -60 -46.5 -99t-105.5 -39q-63 0 -104.5 39z" />
    <glyph glyph-name="uni1EA5" unicode="&#x1ea5;" horiz-adv-x="515" 
d="M401 461.5q55 -56.5 55 -149.5v-312h-82l-20 57h-5q-21 -27 -57.5 -48t-90.5 -21q-48 0 -87 20.5t-61 55t-22 75.5q0 50 29.5 87.5t83 57.5t122.5 20h81v17q0 45 -25.5 71.5t-68.5 26.5q-38 0 -61 -19.5t-28 -47.5h-110q5 44 29.5 82t68.5 61t102 23q92 0 147 -56.5z
M313 114q34 33 34 79v32h-80q-63 0 -94.5 -20.5t-31.5 -56.5q0 -30 21.5 -48.5t61.5 -18.5q55 0 89 33zM380 635l65 139h108l-94 -139h-79zM101 553l110 152h93l110 -152h-97l-61 89l-61 -89h-94z" />
    <glyph glyph-name="uni1EAD" unicode="&#x1ead;" horiz-adv-x="515" 
d="M401 461.5q55 -56.5 55 -149.5v-312h-82l-20 57h-5q-21 -27 -57.5 -48t-90.5 -21q-48 0 -87 20.5t-61 55t-22 75.5q0 50 29.5 87.5t83 57.5t122.5 20h81v17q0 45 -25.5 71.5t-68.5 26.5q-38 0 -61 -19.5t-28 -47.5h-110q5 44 29.5 82t68.5 61t102 23q92 0 147 -56.5z
M313 114q34 33 34 79v32h-80q-63 0 -94.5 -20.5t-31.5 -56.5q0 -30 21.5 -48.5t61.5 -18.5q55 0 89 33zM215 -181.5q-19 18.5 -19 46.5q0 27 19 45.5t46 18.5t45.5 -18t18.5 -46t-18.5 -46.5t-45.5 -18.5t-46 18.5zM304 718l110 -152h-97l-61 89l-61 -89h-94l110 152h93z
" />
    <glyph glyph-name="uni1EA7" unicode="&#x1ea7;" horiz-adv-x="515" 
d="M401 461.5q55 -56.5 55 -149.5v-312h-82l-20 57h-5q-21 -27 -57.5 -48t-90.5 -21q-48 0 -87 20.5t-61 55t-22 75.5q0 50 29.5 87.5t83 57.5t122.5 20h81v17q0 45 -25.5 71.5t-68.5 26.5q-38 0 -61 -19.5t-28 -47.5h-110q5 44 29.5 82t68.5 61t102 23q92 0 147 -56.5z
M313 114q34 33 34 79v32h-80q-63 0 -94.5 -20.5t-31.5 -56.5q0 -30 21.5 -48.5t61.5 -18.5q55 0 89 33zM418 774l66 -139h-79l-95 139h108zM101 553l110 152h93l110 -152h-97l-61 89l-61 -89h-94z" />
    <glyph glyph-name="uni1EA9" unicode="&#x1ea9;" horiz-adv-x="515" 
d="M401 461.5q55 -56.5 55 -149.5v-312h-82l-20 57h-5q-21 -27 -57.5 -48t-90.5 -21q-48 0 -87 20.5t-61 55t-22 75.5q0 50 29.5 87.5t83 57.5t122.5 20h81v17q0 45 -25.5 71.5t-68.5 26.5q-38 0 -61 -19.5t-28 -47.5h-110q5 44 29.5 82t68.5 61t102 23q92 0 147 -56.5z
M313 114q34 33 34 79v32h-80q-63 0 -94.5 -20.5t-31.5 -56.5q0 -30 21.5 -48.5t61.5 -18.5q55 0 89 33zM450 779.5q27 -24.5 27 -62.5q0 -21 -8 -41.5t-20 -36.5h-67q18 26 18 52q0 20 -12.5 32.5t-31.5 12.5q-9 0 -29 -4v64q24 8 51 8q45 0 72 -24.5zM101 553l110 152h93
l110 -152h-97l-61 89l-61 -89h-94z" />
    <glyph glyph-name="uni1EAB" unicode="&#x1eab;" horiz-adv-x="515" 
d="M401 461.5q55 -56.5 55 -149.5v-312h-82l-20 57h-5q-21 -27 -57.5 -48t-90.5 -21q-48 0 -87 20.5t-61 55t-22 75.5q0 50 29.5 87.5t83 57.5t122.5 20h81v17q0 45 -25.5 71.5t-68.5 26.5q-38 0 -61 -19.5t-28 -47.5h-110q5 44 29.5 82t68.5 61t102 23q92 0 147 -56.5z
M313 114q34 33 34 79v32h-80q-63 0 -94.5 -20.5t-31.5 -56.5q0 -30 21.5 -48.5t61.5 -18.5q55 0 89 33zM179.5 761.5q-10.5 -12.5 -10.5 -34.5h-71q0 55 27.5 87.5t66.5 32.5q25 0 41 -8.5t33 -23.5q11 -10 19 -15t18 -5q14 0 24.5 12.5t10.5 34.5h71q0 -56 -27.5 -88
t-66.5 -32q-25 0 -41 8.5t-33 23.5q-11 10 -19 15t-18 5q-14 0 -24.5 -12.5zM303 705l110 -152h-97l-60 89l-61 -89h-95l110 152h93z" />
    <glyph glyph-name="uni1EA1" unicode="&#x1ea1;" horiz-adv-x="515" 
d="M401 461.5q55 -56.5 55 -149.5v-312h-82l-20 57h-5q-21 -27 -57.5 -48t-90.5 -21q-48 0 -87 20.5t-61 55t-22 75.5q0 50 29.5 87.5t83 57.5t122.5 20h81v17q0 45 -25.5 71.5t-68.5 26.5q-38 0 -61 -19.5t-28 -47.5h-110q5 44 29.5 82t68.5 61t102 23q92 0 147 -56.5z
M313 114q34 33 34 79v32h-80q-63 0 -94.5 -20.5t-31.5 -56.5q0 -30 21.5 -48.5t61.5 -18.5q55 0 89 33zM215 -181.5q-19 18.5 -19 46.5q0 27 19 45.5t46 18.5t45.5 -18t18.5 -46t-18.5 -46.5t-45.5 -18.5t-46 18.5z" />
    <glyph glyph-name="uni1EA3" unicode="&#x1ea3;" horiz-adv-x="515" 
d="M401 461.5q55 -56.5 55 -149.5v-312h-82l-20 57h-5q-21 -27 -57.5 -48t-90.5 -21q-48 0 -87 20.5t-61 55t-22 75.5q0 50 29.5 87.5t83 57.5t122.5 20h81v17q0 45 -25.5 71.5t-68.5 26.5q-38 0 -61 -19.5t-28 -47.5h-110q5 44 29.5 82t68.5 61t102 23q92 0 147 -56.5z
M313 114q34 33 34 79v32h-80q-63 0 -94.5 -20.5t-31.5 -56.5q0 -30 21.5 -48.5t61.5 -18.5q55 0 89 33zM225 563q21 29 21 60q0 26 -14 40t-39 14q-9 0 -29 -4v65q26 8 52 8q50 0 78.5 -26.5t28.5 -69.5q0 -48 -31 -87h-67z" />
    <glyph glyph-name="uni1EBF" unicode="&#x1ebf;" horiz-adv-x="560" 
d="M520 210h-375q10 -57 48 -90t92 -33q39 0 66 15t43 38h114q-15 -38 -46.5 -73t-77 -57t-98.5 -22q-69 0 -126.5 35t-91 95.5t-33.5 134.5q0 73 34 133.5t91.5 96t124.5 35.5t122 -33.5t87 -91.5t32 -129q0 -32 -6 -54zM194 384.5q-39 -34.5 -49 -91.5h274q-9 56 -46 91
t-88 35q-52 0 -91 -34.5zM406 635l65 139h108l-94 -139h-79zM127 553l110 152h93l110 -152h-97l-61 89l-61 -89h-94z" />
    <glyph glyph-name="uni1EC7" unicode="&#x1ec7;" horiz-adv-x="560" 
d="M520 210h-375q10 -57 48 -90t92 -33q39 0 66 15t43 38h114q-15 -38 -46.5 -73t-77 -57t-98.5 -22q-69 0 -126.5 35t-91 95.5t-33.5 134.5q0 73 34 133.5t91.5 96t124.5 35.5t122 -33.5t87 -91.5t32 -129q0 -32 -6 -54zM194 384.5q-39 -34.5 -49 -91.5h274q-9 56 -46 91
t-88 35q-52 0 -91 -34.5zM239 -181.5q-19 18.5 -19 46.5q0 27 19 45.5t46 18.5t45.5 -18t18.5 -46t-18.5 -46.5t-45.5 -18.5t-46 18.5zM330 718l110 -152h-97l-61 89l-61 -89h-94l110 152h93z" />
    <glyph glyph-name="uni1EC1" unicode="&#x1ec1;" horiz-adv-x="560" 
d="M520 210h-375q10 -57 48 -90t92 -33q39 0 66 15t43 38h114q-15 -38 -46.5 -73t-77 -57t-98.5 -22q-69 0 -126.5 35t-91 95.5t-33.5 134.5q0 73 34 133.5t91.5 96t124.5 35.5t122 -33.5t87 -91.5t32 -129q0 -32 -6 -54zM194 384.5q-39 -34.5 -49 -91.5h274q-9 56 -46 91
t-88 35q-52 0 -91 -34.5zM444 774l66 -139h-79l-95 139h108zM127 553l110 152h93l110 -152h-97l-61 89l-61 -89h-94z" />
    <glyph glyph-name="uni1EC3" unicode="&#x1ec3;" horiz-adv-x="560" 
d="M520 210h-375q10 -57 48 -90t92 -33q39 0 66 15t43 38h114q-15 -38 -46.5 -73t-77 -57t-98.5 -22q-69 0 -126.5 35t-91 95.5t-33.5 134.5q0 73 34 133.5t91.5 96t124.5 35.5t122 -33.5t87 -91.5t32 -129q0 -32 -6 -54zM194 384.5q-39 -34.5 -49 -91.5h274q-9 56 -46 91
t-88 35q-52 0 -91 -34.5zM476 779.5q27 -24.5 27 -62.5q0 -21 -8 -41.5t-20 -36.5h-67q18 26 18 52q0 20 -12.5 32.5t-31.5 12.5q-9 0 -29 -4v64q24 8 51 8q45 0 72 -24.5zM127 553l110 152h93l110 -152h-97l-61 89l-61 -89h-94z" />
    <glyph glyph-name="uni1EC5" unicode="&#x1ec5;" horiz-adv-x="560" 
d="M520 210h-375q10 -57 48 -90t92 -33q39 0 66 15t43 38h114q-15 -38 -46.5 -73t-77 -57t-98.5 -22q-69 0 -126.5 35t-91 95.5t-33.5 134.5q0 73 34 133.5t91.5 96t124.5 35.5t122 -33.5t87 -91.5t32 -129q0 -32 -6 -54zM194 384.5q-39 -34.5 -49 -91.5h274q-9 56 -46 91
t-88 35q-52 0 -91 -34.5zM206.5 761.5q-10.5 -12.5 -10.5 -34.5h-71q0 55 27.5 87.5t66.5 32.5q25 0 41 -8.5t33 -23.5q11 -10 19 -15t18 -5q14 0 24.5 12.5t10.5 34.5h71q0 -56 -27.5 -88t-66.5 -32q-25 0 -41 8.5t-33 23.5q-11 10 -19 15t-18 5q-14 0 -24.5 -12.5z
M330 705l110 -152h-97l-60 89l-61 -89h-95l110 152h93z" />
    <glyph glyph-name="uni1EB9" unicode="&#x1eb9;" horiz-adv-x="560" 
d="M520 210h-375q10 -57 48 -90t92 -33q39 0 66 15t43 38h114q-15 -38 -46.5 -73t-77 -57t-98.5 -22q-69 0 -126.5 35t-91 95.5t-33.5 134.5q0 73 34 133.5t91.5 96t124.5 35.5t122 -33.5t87 -91.5t32 -129q0 -32 -6 -54zM194 384.5q-39 -34.5 -49 -91.5h274q-9 56 -46 91
t-88 35q-52 0 -91 -34.5zM239 -181.5q-19 18.5 -19 46.5q0 27 19 45.5t46 18.5t45.5 -18t18.5 -46t-18.5 -46.5t-45.5 -18.5t-46 18.5z" />
    <glyph glyph-name="uni1EBB" unicode="&#x1ebb;" horiz-adv-x="560" 
d="M520 210h-375q10 -57 48 -90t92 -33q39 0 66 15t43 38h114q-15 -38 -46.5 -73t-77 -57t-98.5 -22q-69 0 -126.5 35t-91 95.5t-33.5 134.5q0 73 34 133.5t91.5 96t124.5 35.5t122 -33.5t87 -91.5t32 -129q0 -32 -6 -54zM194 384.5q-39 -34.5 -49 -91.5h274q-9 56 -46 91
t-88 35q-52 0 -91 -34.5zM251 563q21 29 21 60q0 26 -14 40t-39 14q-9 0 -29 -4v65q26 8 52 8q50 0 78.5 -26.5t28.5 -69.5q0 -48 -31 -87h-67z" />
    <glyph glyph-name="uni1EBD" unicode="&#x1ebd;" horiz-adv-x="560" 
d="M520 210h-375q10 -57 48 -90t92 -33q39 0 66 15t43 38h114q-15 -38 -46.5 -73t-77 -57t-98.5 -22q-69 0 -126.5 35t-91 95.5t-33.5 134.5q0 73 34 133.5t91.5 96t124.5 35.5t122 -33.5t87 -91.5t32 -129q0 -32 -6 -54zM194 384.5q-39 -34.5 -49 -91.5h274q-9 56 -46 91
t-88 35q-52 0 -91 -34.5zM308 583.5q-16 9.5 -37 28.5q-12 12 -21.5 18.5t-19.5 6.5q-16 0 -27 -15.5t-11 -42.5h-71q0 65 27 99.5t70 34.5q24 0 40 -9.5t37 -28.5q12 -12 21.5 -18.5t19.5 -6.5q16 0 27 15.5t11 42.5h71q0 -65 -27 -99.5t-70 -34.5q-24 0 -40 9.5z" />
    <glyph glyph-name="uni1ECB" unicode="&#x1ecb;" horiz-adv-x="237" 
d="M174 0h-110v506h110v-506zM73 595.5q-19 18.5 -19 45.5q0 28 19 46.5t46 18.5t45.5 -18.5t18.5 -46.5q0 -27 -18.5 -45.5t-45.5 -18.5t-46 18.5zM73 -181.5q-19 18.5 -19 46.5q0 27 19 45.5t46 18.5t45.5 -18t18.5 -46t-18.5 -46.5t-45.5 -18.5t-46 18.5z" />
    <glyph glyph-name="uni1EC9" unicode="&#x1ec9;" horiz-adv-x="237" 
d="M174 0h-110v506h110v-506zM86 563q21 29 21 60q0 26 -14 40t-39 14q-9 0 -29 -4v65q26 8 52 8q50 0 78.5 -26.5t28.5 -69.5q0 -48 -31 -87h-67z" />
    <glyph glyph-name="itilde" unicode="&#x129;" horiz-adv-x="237" 
d="M174 0h-110v506h110v-506zM144 583.5q-16 9.5 -37 28.5q-12 12 -21.5 18.5t-19.5 6.5q-16 0 -27 -15.5t-11 -42.5h-71q0 65 27 99.5t70 34.5q24 0 40 -9.5t37 -28.5q12 -12 21.5 -18.5t19.5 -6.5q16 0 27 15.5t11 42.5h71q0 -65 -27 -99.5t-70 -34.5q-24 0 -40 9.5z" />
    <glyph glyph-name="uni1ED1" unicode="&#x1ed1;" horiz-adv-x="572" 
d="M160.5 23.5q-57.5 35.5 -91.5 96.5t-34 133q0 73 34 133.5t91.5 96t125.5 35.5t125.5 -35.5t91.5 -96t34 -133.5q0 -72 -34 -133t-91.5 -96.5t-125.5 -35.5t-125.5 35.5zM357.5 111q32.5 21 51.5 58t19 84t-19 84t-51.5 58t-71.5 21t-71.5 -21t-51.5 -58t-19 -84t19 -84
t51.5 -58t71.5 -21t71.5 21zM409 635l65 139h108l-94 -139h-79zM130 553l110 152h93l110 -152h-97l-61 89l-61 -89h-94z" />
    <glyph glyph-name="uni1ED9" unicode="&#x1ed9;" horiz-adv-x="572" 
d="M160.5 23.5q-57.5 35.5 -91.5 96.5t-34 133q0 73 34 133.5t91.5 96t125.5 35.5t125.5 -35.5t91.5 -96t34 -133.5q0 -72 -34 -133t-91.5 -96.5t-125.5 -35.5t-125.5 35.5zM357.5 111q32.5 21 51.5 58t19 84t-19 84t-51.5 58t-71.5 21t-71.5 -21t-51.5 -58t-19 -84t19 -84
t51.5 -58t71.5 -21t71.5 21zM240 -181.5q-19 18.5 -19 46.5q0 27 19 45.5t46 18.5t45.5 -18t18.5 -46t-18.5 -46.5t-45.5 -18.5t-46 18.5zM333 718l110 -152h-97l-61 89l-61 -89h-94l110 152h93z" />
    <glyph glyph-name="uni1ED3" unicode="&#x1ed3;" horiz-adv-x="572" 
d="M160.5 23.5q-57.5 35.5 -91.5 96.5t-34 133q0 73 34 133.5t91.5 96t125.5 35.5t125.5 -35.5t91.5 -96t34 -133.5q0 -72 -34 -133t-91.5 -96.5t-125.5 -35.5t-125.5 35.5zM357.5 111q32.5 21 51.5 58t19 84t-19 84t-51.5 58t-71.5 21t-71.5 -21t-51.5 -58t-19 -84t19 -84
t51.5 -58t71.5 -21t71.5 21zM447 774l66 -139h-79l-95 139h108zM130 553l110 152h93l110 -152h-97l-61 89l-61 -89h-94z" />
    <glyph glyph-name="uni1ED5" unicode="&#x1ed5;" horiz-adv-x="572" 
d="M160.5 23.5q-57.5 35.5 -91.5 96.5t-34 133q0 73 34 133.5t91.5 96t125.5 35.5t125.5 -35.5t91.5 -96t34 -133.5q0 -72 -34 -133t-91.5 -96.5t-125.5 -35.5t-125.5 35.5zM357.5 111q32.5 21 51.5 58t19 84t-19 84t-51.5 58t-71.5 21t-71.5 -21t-51.5 -58t-19 -84t19 -84
t51.5 -58t71.5 -21t71.5 21zM479 779.5q27 -24.5 27 -62.5q0 -21 -8 -41.5t-20 -36.5h-67q18 26 18 52q0 20 -12.5 32.5t-31.5 12.5q-9 0 -29 -4v64q24 8 51 8q45 0 72 -24.5zM130 553l110 152h93l110 -152h-97l-61 89l-61 -89h-94z" />
    <glyph glyph-name="uni1ED7" unicode="&#x1ed7;" horiz-adv-x="572" 
d="M160.5 23.5q-57.5 35.5 -91.5 96.5t-34 133q0 73 34 133.5t91.5 96t125.5 35.5t125.5 -35.5t91.5 -96t34 -133.5q0 -72 -34 -133t-91.5 -96.5t-125.5 -35.5t-125.5 35.5zM357.5 111q32.5 21 51.5 58t19 84t-19 84t-51.5 58t-71.5 21t-71.5 -21t-51.5 -58t-19 -84t19 -84
t51.5 -58t71.5 -21t71.5 21zM208.5 761.5q-10.5 -12.5 -10.5 -34.5h-71q0 55 27.5 87.5t66.5 32.5q25 0 41 -8.5t33 -23.5q11 -10 19 -15t18 -5q14 0 24.5 12.5t10.5 34.5h71q0 -56 -27.5 -88t-66.5 -32q-25 0 -41 8.5t-33 23.5q-11 10 -19 15t-18 5q-14 0 -24.5 -12.5z
M332 705l110 -152h-97l-60 89l-61 -89h-95l110 152h93z" />
    <glyph glyph-name="uni1ECD" unicode="&#x1ecd;" horiz-adv-x="572" 
d="M160.5 23.5q-57.5 35.5 -91.5 96.5t-34 133q0 73 34 133.5t91.5 96t125.5 35.5t125.5 -35.5t91.5 -96t34 -133.5q0 -72 -34 -133t-91.5 -96.5t-125.5 -35.5t-125.5 35.5zM357.5 111q32.5 21 51.5 58t19 84t-19 84t-51.5 58t-71.5 21t-71.5 -21t-51.5 -58t-19 -84t19 -84
t51.5 -58t71.5 -21t71.5 21zM240 -181.5q-19 18.5 -19 46.5q0 27 19 45.5t46 18.5t45.5 -18t18.5 -46t-18.5 -46.5t-45.5 -18.5t-46 18.5z" />
    <glyph glyph-name="uni1ECF" unicode="&#x1ecf;" horiz-adv-x="572" 
d="M160.5 23.5q-57.5 35.5 -91.5 96.5t-34 133q0 73 34 133.5t91.5 96t125.5 35.5t125.5 -35.5t91.5 -96t34 -133.5q0 -72 -34 -133t-91.5 -96.5t-125.5 -35.5t-125.5 35.5zM357.5 111q32.5 21 51.5 58t19 84t-19 84t-51.5 58t-71.5 21t-71.5 -21t-51.5 -58t-19 -84t19 -84
t51.5 -58t71.5 -21t71.5 21zM254 563q21 29 21 60q0 26 -14 40t-39 14q-9 0 -29 -4v65q26 8 52 8q50 0 78.5 -26.5t28.5 -69.5q0 -48 -31 -87h-67z" />
    <glyph glyph-name="ohorn" unicode="&#x1a1;" horiz-adv-x="572" 
d="M518.5 353q18.5 -47 18.5 -100q0 -72 -34 -133t-91.5 -96.5t-125.5 -35.5t-125.5 35.5t-91.5 96.5t-34 133q0 73 34 133.5t91.5 96t125.5 35.5q56 0 106 -25h8q46 0 46 43q0 25 -14 59h72q20 -34 20 -68q0 -30 -15 -53.5t-42 -36.5q33 -37 51.5 -84zM357.5 111
q32.5 21 51.5 58t19 84t-19 84t-51.5 58t-71.5 21t-71.5 -21t-51.5 -58t-19 -84t19 -84t51.5 -58t71.5 -21t71.5 21z" />
    <glyph glyph-name="uni1EDB" unicode="&#x1edb;" horiz-adv-x="572" 
d="M518.5 353q18.5 -47 18.5 -100q0 -72 -34 -133t-91.5 -96.5t-125.5 -35.5t-125.5 35.5t-91.5 96.5t-34 133q0 73 34 133.5t91.5 96t125.5 35.5q56 0 106 -25h8q46 0 46 43q0 25 -14 59h72q20 -34 20 -68q0 -30 -15 -53.5t-42 -36.5q33 -37 51.5 -84zM357.5 111
q32.5 21 51.5 58t19 84t-19 84t-51.5 58t-71.5 21t-71.5 -21t-51.5 -58t-19 -84t19 -84t51.5 -58t71.5 -21t71.5 21zM316 566h-84l72 152h114z" />
    <glyph glyph-name="uni1EE3" unicode="&#x1ee3;" horiz-adv-x="572" 
d="M518.5 353q18.5 -47 18.5 -100q0 -72 -34 -133t-91.5 -96.5t-125.5 -35.5t-125.5 35.5t-91.5 96.5t-34 133q0 73 34 133.5t91.5 96t125.5 35.5q56 0 106 -25h8q46 0 46 43q0 25 -14 59h72q20 -34 20 -68q0 -30 -15 -53.5t-42 -36.5q33 -37 51.5 -84zM357.5 111
q32.5 21 51.5 58t19 84t-19 84t-51.5 58t-71.5 21t-71.5 -21t-51.5 -58t-19 -84t19 -84t51.5 -58t71.5 -21t71.5 21zM240 -181.5q-19 18.5 -19 46.5q0 27 19 45.5t46 18.5t45.5 -18t18.5 -46t-18.5 -46.5t-45.5 -18.5t-46 18.5z" />
    <glyph glyph-name="uni1EDD" unicode="&#x1edd;" horiz-adv-x="572" 
d="M518.5 353q18.5 -47 18.5 -100q0 -72 -34 -133t-91.5 -96.5t-125.5 -35.5t-125.5 35.5t-91.5 96.5t-34 133q0 73 34 133.5t91.5 96t125.5 35.5q56 0 106 -25h8q46 0 46 43q0 25 -14 59h72q20 -34 20 -68q0 -30 -15 -53.5t-42 -36.5q33 -37 51.5 -84zM357.5 111
q32.5 21 51.5 58t19 84t-19 84t-51.5 58t-71.5 21t-71.5 -21t-51.5 -58t-19 -84t19 -84t51.5 -58t71.5 -21t71.5 21zM340 566h-84l-103 152h115z" />
    <glyph glyph-name="uni1EDF" unicode="&#x1edf;" horiz-adv-x="572" 
d="M518.5 353q18.5 -47 18.5 -100q0 -72 -34 -133t-91.5 -96.5t-125.5 -35.5t-125.5 35.5t-91.5 96.5t-34 133q0 73 34 133.5t91.5 96t125.5 35.5q56 0 106 -25h8q46 0 46 43q0 25 -14 59h72q20 -34 20 -68q0 -30 -15 -53.5t-42 -36.5q33 -37 51.5 -84zM357.5 111
q32.5 21 51.5 58t19 84t-19 84t-51.5 58t-71.5 21t-71.5 -21t-51.5 -58t-19 -84t19 -84t51.5 -58t71.5 -21t71.5 21zM254 563q21 29 21 60q0 26 -14 40t-39 14q-9 0 -29 -4v65q26 8 52 8q50 0 78.5 -26.5t28.5 -69.5q0 -48 -31 -87h-67z" />
    <glyph glyph-name="uni1EE1" unicode="&#x1ee1;" horiz-adv-x="572" 
d="M518.5 353q18.5 -47 18.5 -100q0 -72 -34 -133t-91.5 -96.5t-125.5 -35.5t-125.5 35.5t-91.5 96.5t-34 133q0 73 34 133.5t91.5 96t125.5 35.5q56 0 106 -25h8q46 0 46 43q0 25 -14 59h72q20 -34 20 -68q0 -30 -15 -53.5t-42 -36.5q33 -37 51.5 -84zM357.5 111
q32.5 21 51.5 58t19 84t-19 84t-51.5 58t-71.5 21t-71.5 -21t-51.5 -58t-19 -84t19 -84t51.5 -58t71.5 -21t71.5 21zM301.5 583.5q-15.5 9.5 -35.5 28.5q-11 12 -20 18.5t-19 6.5q-15 0 -26 -15.5t-11 -42.5h-71q0 65 27 99.5t69 34.5q24 0 39.5 -9.5t35.5 -28.5
q11 -12 20 -18.5t19 -6.5q15 0 26 15.5t11 42.5h71q0 -65 -27 -99.5t-69 -34.5q-24 0 -39.5 9.5z" />
    <glyph glyph-name="uni1EE5" unicode="&#x1ee5;" horiz-adv-x="575" 
d="M157 15.5q-46 27.5 -72 77.5t-26 116v297h110v-289q0 -56 32.5 -91.5t82.5 -35.5q52 0 85 35.5t33 91.5v289h109v-506h-82l-20 57h-5q-17 -24 -55 -46.5t-87 -22.5q-59 0 -105 27.5zM244 -181.5q-19 18.5 -19 46.5q0 27 19 45.5t46 18.5t45.5 -18t18.5 -46t-18.5 -46.5
t-45.5 -18.5t-46 18.5z" />
    <glyph glyph-name="uni1EE7" unicode="&#x1ee7;" horiz-adv-x="575" 
d="M157 15.5q-46 27.5 -72 77.5t-26 116v297h110v-289q0 -56 32.5 -91.5t82.5 -35.5q52 0 85 35.5t33 91.5v289h109v-506h-82l-20 57h-5q-17 -24 -55 -46.5t-87 -22.5q-59 0 -105 27.5zM253 563q21 29 21 60q0 26 -14 40t-39 14q-9 0 -29 -4v65q26 8 52 8q50 0 78.5 -26.5
t28.5 -69.5q0 -48 -31 -87h-67z" />
    <glyph glyph-name="uhorn" unicode="&#x1b0;" horiz-adv-x="601" 
d="M610 608q19 -36 19 -68q0 -44 -31 -73t-82 -29h-5v-438h-82l-20 57h-5q-17 -24 -55 -46.5t-87 -22.5q-59 0 -105 27.5t-72 77.5t-26 116v297h110v-289q0 -56 32.5 -91.5t82.5 -35.5q52 0 85 35.5t33 91.5v289h103q46 0 46 43q0 25 -14 59h73z" />
    <glyph glyph-name="uni1EE9" unicode="&#x1ee9;" horiz-adv-x="601" 
d="M610 608q19 -36 19 -68q0 -44 -31 -73t-82 -29h-5v-438h-82l-20 57h-5q-17 -24 -55 -46.5t-87 -22.5q-59 0 -105 27.5t-72 77.5t-26 116v297h110v-289q0 -56 32.5 -91.5t82.5 -35.5q52 0 85 35.5t33 91.5v289h103q46 0 46 43q0 25 -14 59h73zM315 566h-84l72 152h114z
" />
    <glyph glyph-name="uni1EF1" unicode="&#x1ef1;" horiz-adv-x="601" 
d="M610 608q19 -36 19 -68q0 -44 -31 -73t-82 -29h-5v-438h-82l-20 57h-5q-17 -24 -55 -46.5t-87 -22.5q-59 0 -105 27.5t-72 77.5t-26 116v297h110v-289q0 -56 32.5 -91.5t82.5 -35.5q52 0 85 35.5t33 91.5v289h103q46 0 46 43q0 25 -14 59h73zM244 -181.5
q-19 18.5 -19 46.5q0 27 19 45.5t46 18.5t45.5 -18t18.5 -46t-18.5 -46.5t-45.5 -18.5t-46 18.5z" />
    <glyph glyph-name="uni1EEB" unicode="&#x1eeb;" horiz-adv-x="601" 
d="M610 608q19 -36 19 -68q0 -44 -31 -73t-82 -29h-5v-438h-82l-20 57h-5q-17 -24 -55 -46.5t-87 -22.5q-59 0 -105 27.5t-72 77.5t-26 116v297h110v-289q0 -56 32.5 -91.5t82.5 -35.5q52 0 85 35.5t33 91.5v289h103q46 0 46 43q0 25 -14 59h73zM339 566h-84l-103 152h115z
" />
    <glyph glyph-name="uni1EED" unicode="&#x1eed;" horiz-adv-x="601" 
d="M610 608q19 -36 19 -68q0 -44 -31 -73t-82 -29h-5v-438h-82l-20 57h-5q-17 -24 -55 -46.5t-87 -22.5q-59 0 -105 27.5t-72 77.5t-26 116v297h110v-289q0 -56 32.5 -91.5t82.5 -35.5q52 0 85 35.5t33 91.5v289h103q46 0 46 43q0 25 -14 59h73zM253 563q21 29 21 60
q0 26 -14 40t-39 14q-9 0 -29 -4v65q26 8 52 8q50 0 78.5 -26.5t28.5 -69.5q0 -48 -31 -87h-67z" />
    <glyph glyph-name="uni1EEF" unicode="&#x1eef;" horiz-adv-x="601" 
d="M610 608q19 -36 19 -68q0 -44 -31 -73t-82 -29h-5v-438h-82l-20 57h-5q-17 -24 -55 -46.5t-87 -22.5q-59 0 -105 27.5t-72 77.5t-26 116v297h110v-289q0 -56 32.5 -91.5t82.5 -35.5q52 0 85 35.5t33 91.5v289h103q46 0 46 43q0 25 -14 59h73zM310 583.5q-16 9.5 -37 28.5
q-12 12 -21.5 18.5t-19.5 6.5q-16 0 -27 -15.5t-11 -42.5h-71q0 65 27 99.5t70 34.5q24 0 40 -9.5t37 -28.5q12 -12 21.5 -18.5t19.5 -6.5q16 0 27 15.5t11 42.5h71q0 -65 -27 -99.5t-70 -34.5q-24 0 -40 9.5z" />
    <glyph glyph-name="utilde" unicode="&#x169;" horiz-adv-x="575" 
d="M157 15.5q-46 27.5 -72 77.5t-26 116v297h110v-289q0 -56 32.5 -91.5t82.5 -35.5q52 0 85 35.5t33 91.5v289h109v-506h-82l-20 57h-5q-17 -24 -55 -46.5t-87 -22.5q-59 0 -105 27.5zM310 583.5q-16 9.5 -37 28.5q-12 12 -21.5 18.5t-19.5 6.5q-16 0 -27 -15.5t-11 -42.5
h-71q0 65 27 99.5t70 34.5q24 0 40 -9.5t37 -28.5q12 -12 21.5 -18.5t19.5 -6.5q16 0 27 15.5t11 42.5h71q0 -65 -27 -99.5t-70 -34.5q-24 0 -40 9.5z" />
    <glyph glyph-name="uni1EF5" unicode="&#x1ef5;" horiz-adv-x="502" 
d="M386 506h113l-210 -534q-35 -87 -72.5 -122t-87.5 -35q-30 0 -54 10v100q14 -7 34 -7q29 0 48.5 14.5t32.5 48.5l12 32l-199 493h118l135 -359zM321 -175.5q-19 18.5 -19 46.5q0 27 19 45.5t46 18.5t45.5 -18t18.5 -46t-18.5 -46.5t-45.5 -18.5t-46 18.5z" />
    <glyph glyph-name="uni1EF7" unicode="&#x1ef7;" horiz-adv-x="502" 
d="M386 506h113l-210 -534q-35 -87 -72.5 -122t-87.5 -35q-30 0 -54 10v100q14 -7 34 -7q29 0 48.5 14.5t32.5 48.5l12 32l-199 493h118l135 -359zM221 563q21 29 21 60q0 26 -14 40t-39 14q-9 0 -29 -4v65q26 8 52 8q50 0 78.5 -26.5t28.5 -69.5q0 -48 -31 -87h-67z" />
    </font>
</defs>
</svg>
