<?xml version="1.0" standalone="no"?>
<!DOCTYPE svg PUBLIC "-//W3C//DTD SVG 1.1//EN" "http://www.w3.org/Graphics/SVG/1.1/DTD/svg11.dtd" >
<svg xmlns="http://www.w3.org/2000/svg" xmlns:xlink="http://www.w3.org/1999/xlink" version="1.1">
<metadata>
Created by FontForge 20201107 at Mon Dec 26 08:58:14 2022
 By Unknown
Copyright (c) 2018-2021 by TypeType. All rights reserved.
</metadata>
<defs>
<font id="TTCommonsPro-Md" horiz-adv-x="0" >
  <font-face 
    font-family="TT Commons Pro Medium"
    font-weight="500"
    font-stretch="normal"
    units-per-em="1000"
    panose-1="2 11 1 3 3 1 2 2 2 4"
    ascent="800"
    descent="-200"
    x-height="503"
    cap-height="700"
    bbox="-439 -368 1438 1072"
    underline-thickness="56"
    underline-position="-239"
    unicode-range="U+0020-FB06"
  />
<missing-glyph horiz-adv-x="900" 
d="M100 284h45v-139h33v139h50v31h-128v126l19 -61h23l34 106l33 -106h23l54 170h-32l-34 -110l-35 110h-19l-35 -110l-31 103v157h700v-150h-110v-170h110v-91q-6 13 -19.5 20t-30.5 7q-27 0 -43.5 -14.5t-16.5 -34.5q0 -22 14.5 -32.5t39.5 -17.5q17 -5 25.5 -9.5
t8.5 -13.5q0 -21 -28 -21q-14 0 -21 7t-7 18h-33q0 -24 17 -39.5t44 -15.5q17 0 30.5 6.5t19.5 13.5v-163h-700v284zM344 380v62h24l35 -62h37l-40 67q36 17 36 50q0 22 -16 37.5t-41 15.5h-68v-170h33zM469 380h33v170h-33v-170zM580 380h32v139h50v31h-132v-31h50v-139z
M379 519q10 0 17 -6.5t7 -16.5q0 -12 -7.5 -17.5t-16.5 -5.5h-35v46h35zM722 483v36h78v-36h-78zM722 411v41h78v-41h-78zM387.5 167.5q22.5 24.5 22.5 61.5t-23 62t-59 25t-59 -25t-23 -62t22.5 -61.5t59.5 -24.5t59.5 24.5zM549 315h-32v-106q0 -28 19.5 -47t48.5 -19
t48 19t19 47v106h-32v-106q0 -15 -9.5 -25t-25.5 -10q-17 0 -26.5 10.5t-9.5 24.5v106zM800 224q-15 14 -46 22q-16 5 -23 9t-7 12q0 9 7.5 14.5t18.5 5.5q10 0 18 -7t8 -18h24v-38zM291.5 190q-14.5 16 -14.5 39q0 25 14 40.5t37 15.5q24 0 37.5 -15.5t13.5 -40.5
q0 -23 -14.5 -39t-36.5 -16t-36.5 16z" />
    <glyph glyph-name="f_f_i.liga" unicode="ffi" horiz-adv-x="787" 
d="M452 503h272v-503h-86v425h-184v-425h-87v425h-184v-425h-86v425h-70v78h70v21q0 78 41.5 122.5t106.5 44.5q25 0 52 -9v-75q-16 6 -35 6q-38 0 -59 -22.5t-21 -68.5v-19h185v9q0 94 57.5 147.5t157.5 53.5q55 0 99 -19v-75q-45 16 -96 16q-62 0 -97.5 -32t-35.5 -92v-8z
" />
    <glyph glyph-name="f_f_j.liga" unicode="ffj" horiz-adv-x="787" 
d="M452 503h272v-521q0 -78 -41 -122.5t-107 -44.5q-23 0 -52 9v78q18 -6 35 -6q38 0 58.5 22.5t20.5 67.5v439h-184v-425h-87v425h-184v-425h-86v425h-70v78h70v21q0 78 41.5 122.5t106.5 44.5q25 0 52 -9v-75q-16 6 -35 6q-38 0 -59 -22.5t-21 -68.5v-19h185v9
q0 94 57.5 147.5t157.5 53.5q55 0 99 -19v-75q-45 16 -96 16q-62 0 -97.5 -32t-35.5 -92v-8z" />
    <glyph glyph-name="f_f_l.liga" unicode="ffl" horiz-adv-x="797" 
d="M724 687v-687h-86v628q-27 7 -59 7q-58 0 -92.5 -32t-34.5 -92v-8h114v-78h-112v-425h-87v425h-184v-425h-86v425h-70v78h70v21q0 78 41.5 122.5t106.5 44.5q25 0 52 -9v-75q-16 6 -35 6q-38 0 -59 -22.5t-21 -68.5v-19h185v9q0 94 57 147.5t154 53.5q84 0 146 -26z" />
    <glyph glyph-name="f_f.liga" unicode="ff" horiz-adv-x="580" 
d="M473 610.5q-21 -22.5 -21 -67.5v-40h115v-78h-113v-425h-87v425h-184v-425h-86v425h-70v78h70v21q0 78 41.5 122.5t106.5 44.5q25 0 52 -9v-75q-16 6 -35 6q-38 0 -59 -22.5t-21 -68.5v-19h185v41q0 78 41.5 122.5t107.5 44.5q24 0 51 -9v-75q-16 6 -35 6
q-38 0 -59 -22.5z" />
    <glyph glyph-name="fi.liga" unicode="fi" horiz-adv-x="517" 
d="M182 503h272v-503h-87v425h-184v-425h-86v425h-70v78h70v9q0 94 57.5 147.5t157.5 53.5q56 0 98 -19v-75q-21 8 -47 12t-48 4q-63 0 -98 -32t-35 -92v-8z" />
    <glyph glyph-name="f_j.liga" unicode="fj" horiz-adv-x="517" 
d="M182 503h272v-521q0 -78 -41.5 -122.5t-106.5 -44.5q-25 0 -52 9v78q17 -6 35 -6q37 0 57.5 22.5t20.5 67.5v439h-184v-425h-86v425h-70v78h70v9q0 94 57.5 147.5t157.5 53.5q56 0 98 -19v-75q-21 8 -47 12t-48 4q-63 0 -98 -32t-35 -92v-8z" />
    <glyph glyph-name="fl.liga" unicode="fl" horiz-adv-x="527" 
d="M454 687v-687h-87v629q-28 6 -58 6q-59 0 -93 -32t-34 -92v-8h113v-78h-112v-425h-86v425h-70v78h70v9q0 94 56.5 147.5t153.5 53.5q85 0 147 -26z" />
    <glyph glyph-name=".notdef" horiz-adv-x="900" 
d="M100 284h45v-139h33v139h50v31h-128v126l19 -61h23l34 106l33 -106h23l54 170h-32l-34 -110l-35 110h-19l-35 -110l-31 103v157h700v-150h-110v-170h110v-91q-6 13 -19.5 20t-30.5 7q-27 0 -43.5 -14.5t-16.5 -34.5q0 -22 14.5 -32.5t39.5 -17.5q17 -5 25.5 -9.5
t8.5 -13.5q0 -21 -28 -21q-14 0 -21 7t-7 18h-33q0 -24 17 -39.5t44 -15.5q17 0 30.5 6.5t19.5 13.5v-163h-700v284zM344 380v62h24l35 -62h37l-40 67q36 17 36 50q0 22 -16 37.5t-41 15.5h-68v-170h33zM469 380h33v170h-33v-170zM580 380h32v139h50v31h-132v-31h50v-139z
M379 519q10 0 17 -6.5t7 -16.5q0 -12 -7.5 -17.5t-16.5 -5.5h-35v46h35zM722 483v36h78v-36h-78zM722 411v41h78v-41h-78zM387.5 167.5q22.5 24.5 22.5 61.5t-23 62t-59 25t-59 -25t-23 -62t22.5 -61.5t59.5 -24.5t59.5 24.5zM549 315h-32v-106q0 -28 19.5 -47t48.5 -19
t48 19t19 47v106h-32v-106q0 -15 -9.5 -25t-25.5 -10q-17 0 -26.5 10.5t-9.5 24.5v106zM800 224q-15 14 -46 22q-16 5 -23 9t-7 12q0 9 7.5 14.5t18.5 5.5q10 0 18 -7t8 -18h24v-38zM291.5 190q-14.5 16 -14.5 39q0 25 14 40.5t37 15.5q24 0 37.5 -15.5t13.5 -40.5
q0 -23 -14.5 -39t-36.5 -16t-36.5 16z" />
    <glyph glyph-name=".null" 
 />
    <glyph glyph-name="nonmarkingreturn" 
 />
    <glyph glyph-name="space" unicode=" " horiz-adv-x="242" 
 />
    <glyph glyph-name="uni00A0" unicode="&#xa0;" horiz-adv-x="242" 
 />
    <glyph glyph-name="periodcentered" unicode="&#xb7;" horiz-adv-x="242" 
d="M78.5 223.5q-17.5 17.5 -17.5 43.5q0 25 17.5 42.5t42.5 17.5t43 -17.5t18 -42.5t-17.5 -43t-43.5 -18q-25 0 -42.5 17.5z" />
    <glyph glyph-name="period" unicode="." horiz-adv-x="196" 
d="M55.5 6.5q-17.5 17.5 -17.5 43.5q0 25 17.5 42.5t42.5 17.5t43 -17.5t18 -42.5t-17.5 -43t-43.5 -18q-25 0 -42.5 17.5z" />
    <glyph glyph-name="ellipsis" unicode="&#x2026;" horiz-adv-x="643" 
d="M55.5 6.5q-17.5 17.5 -17.5 43.5q0 25 17.5 42.5t42.5 17.5t43 -17.5t18 -42.5t-17.5 -43t-43.5 -18q-25 0 -42.5 17.5zM279.5 6.5q-17.5 17.5 -17.5 43.5q0 25 17.5 42.5t42.5 17.5t43 -17.5t18 -42.5t-17.5 -43t-43.5 -18q-25 0 -42.5 17.5zM502.5 6.5
q-17.5 17.5 -17.5 43.5q0 25 17.5 42.5t42.5 17.5t43 -17.5t18 -42.5t-17.5 -43t-43.5 -18q-25 0 -42.5 17.5z" />
    <glyph glyph-name="comma" unicode="," horiz-adv-x="196" 
d="M141.5 91q17.5 -19 17.5 -50q0 -56 -29.5 -103.5t-62.5 -77.5l-19 26q39 51 45 103q-24 2 -39.5 19.5t-15.5 41.5q0 25 17.5 42.5t42.5 17.5q26 0 43.5 -19z" />
    <glyph glyph-name="colon" unicode=":" horiz-adv-x="196" 
d="M55.5 399.5q-17.5 17.5 -17.5 43.5q0 25 17.5 42.5t42.5 17.5t43 -17.5t18 -42.5t-17.5 -43t-43.5 -18q-25 0 -42.5 17.5zM55.5 6.5q-17.5 17.5 -17.5 43.5q0 25 17.5 42.5t42.5 17.5t43 -17.5t18 -42.5t-17.5 -43t-43.5 -18q-25 0 -42.5 17.5z" />
    <glyph glyph-name="semicolon" unicode=";" horiz-adv-x="196" 
d="M55.5 399.5q-17.5 17.5 -17.5 43.5q0 25 17.5 42.5t42.5 17.5t43 -17.5t18 -42.5t-17.5 -43t-43.5 -18q-25 0 -42.5 17.5zM141.5 91q17.5 -19 17.5 -50q0 -56 -29.5 -103.5t-62.5 -77.5l-19 26q39 51 45 103q-24 2 -39.5 19.5t-15.5 41.5q0 25 17.5 42.5t42.5 17.5
q26 0 43.5 -19z" />
    <glyph glyph-name="exclam" unicode="!" horiz-adv-x="287" 
d="M180 184h-72l-17 516h105zM101 7q-18 18 -18 43t18 42.5t43 17.5t42.5 -17.5t17.5 -42.5q0 -26 -17.5 -43.5t-42.5 -17.5t-43 18z" />
    <glyph glyph-name="exclamdown" unicode="&#xa1;" horiz-adv-x="287" 
d="M101 400q-18 18 -18 43t18 42.5t43 17.5t42.5 -17.5t17.5 -42.5q0 -26 -17.5 -43.5t-42.5 -17.5t-43 18zM196 -180h-105l17 488h72z" />
    <glyph glyph-name="question" unicode="?" horiz-adv-x="485" 
d="M189 196q0 50 13 86t31.5 59.5t48.5 51.5q35 33 52 59t17 65q0 49 -30 79t-79 30q-53 0 -86 -37.5t-33 -96.5v-11h-91v11q0 61 27 111t75 79t108 29q58 0 104 -25t71.5 -68t25.5 -97q0 -41 -11.5 -70.5t-28 -49.5t-44.5 -47q-27 -26 -43 -45t-27 -47t-11 -66v-12h-89v12z
M191.5 6.5q-17.5 17.5 -17.5 43.5q0 25 17.5 42.5t42.5 17.5q26 0 43 -17.5t17 -42.5q0 -26 -17.5 -43.5t-42.5 -17.5t-42.5 17.5z" />
    <glyph glyph-name="uni203D" unicode="&#x203d;" horiz-adv-x="485" 
d="M346 686q46 -25 71.5 -68t25.5 -97q0 -41 -11.5 -70.5t-28 -49.5t-44.5 -47q-27 -26 -43 -45t-27 -47t-11 -66v-12h-82l-14 431q-30 -17 -46.5 -48.5t-16.5 -74.5v-11h-87v11q0 61 27 111t75 79t108 29q58 0 104 -25zM258 363l26 26q35 34 52.5 61t17.5 69t-23.5 71.5
t-64.5 36.5zM279 92.5q17 -17.5 17 -42.5q0 -26 -17.5 -43.5t-42.5 -17.5t-43 18t-18 43t18 42.5t43 17.5q26 0 43 -17.5z" />
    <glyph glyph-name="questiondown" unicode="&#xbf;" horiz-adv-x="485" 
d="M208.5 399.5q-17.5 17.5 -17.5 43.5q0 25 17.5 42.5t42.5 17.5t42.5 -17.5t17.5 -42.5q0 -26 -17.5 -43.5t-42.5 -17.5t-42.5 17.5zM139 -160.5q-46 24.5 -71.5 66t-25.5 90.5q0 38 12 66.5t28.5 47.5t45.5 46q40 36 59.5 65t19.5 75v12h89v-12q0 -44 -13 -76.5t-31 -54
t-48 -48.5q-36 -32 -53 -56.5t-17 -60.5q0 -43 30 -71.5t79 -28.5q53 0 86 37t33 95v11h91v-11q0 -60 -27 -109.5t-75 -78.5t-108 -29q-58 0 -104 24.5z" />
    <glyph glyph-name="uni2E18" unicode="&#x2e18;" horiz-adv-x="485" 
d="M206.5 399.5q-17.5 17.5 -17.5 43.5q0 25 17.5 42.5t42.5 17.5t43 -17.5t18 -42.5t-17.5 -43t-43.5 -18q-25 0 -42.5 17.5zM366 43h87v-11q0 -60 -27 -109.5t-75 -78.5t-108 -29q-58 0 -104 24.5t-71.5 65.5t-25.5 90q0 38 12 66.5t28.5 48t45.5 46.5q40 36 59.5 65
t19.5 75v12h82l13 -397q30 16 47 47.5t17 73.5v11zM154.5 -66q23.5 -28 63.5 -35l8 243l-26 -25q-35 -32 -52 -56.5t-17 -61.5t23.5 -65z" />
    <glyph glyph-name="asterisk" unicode="*" horiz-adv-x="369" 
d="M319 616l22 -64l-115 -29l80 -100l-54 -39l-67 109l-68 -109l-54 39l80 100l-115 29l22 64l108 -44l-7 128h67l-7 -128z" />
    <glyph glyph-name="quotesingle" unicode="'" horiz-adv-x="177" 
d="M127 475h-77v225h77v-225z" />
    <glyph glyph-name="quotedbl" unicode="&#x22;" horiz-adv-x="333" 
d="M127 475h-77v225h77v-225zM283 475h-77v225h77v-225z" />
    <glyph glyph-name="quotesinglbase" unicode="&#x201a;" horiz-adv-x="196" 
d="M141.5 91q17.5 -19 17.5 -50q0 -56 -29.5 -103.5t-62.5 -77.5l-19 26q39 51 45 103q-24 2 -39.5 19.5t-15.5 41.5q0 25 17.5 42.5t42.5 17.5q26 0 43.5 -19z" />
    <glyph glyph-name="quotedblbase" unicode="&#x201e;" horiz-adv-x="357" 
d="M141.5 91q17.5 -19 17.5 -50q0 -56 -29.5 -103.5t-62.5 -77.5l-19 26q39 51 45 103q-24 2 -39.5 19.5t-15.5 41.5q0 25 17.5 42.5t42.5 17.5q26 0 43.5 -19zM302.5 91q17.5 -19 17.5 -50q0 -56 -29.5 -103.5t-62.5 -77.5l-19 26q39 51 45 103q-24 2 -39.5 19.5
t-15.5 41.5q0 25 17.5 42.5t42.5 17.5q26 0 43.5 -19z" />
    <glyph glyph-name="quoteleft" unicode="&#x2018;" horiz-adv-x="196" 
d="M143 563q16 -17 16 -41q0 -25 -17.5 -43t-42.5 -18q-27 0 -44 18.5t-17 50.5q0 56 29 103t62 78l20 -25q-39 -50 -45 -104q23 -2 39 -19z" />
    <glyph glyph-name="quoteright" unicode="&#x2019;" horiz-adv-x="196" 
d="M141.5 692q17.5 -19 17.5 -50q0 -56 -29.5 -103.5t-62.5 -77.5l-19 26q39 51 45 103q-24 2 -39.5 19.5t-15.5 40.5q0 26 17.5 43.5t42.5 17.5q26 0 43.5 -19z" />
    <glyph glyph-name="quotedblleft" unicode="&#x201c;" horiz-adv-x="357" 
d="M143 563q16 -17 16 -41q0 -25 -17.5 -43t-42.5 -18q-27 0 -44 18.5t-17 50.5q0 56 29 103t62 78l20 -25q-39 -50 -45 -104q23 -2 39 -19zM304 563q16 -17 16 -41q0 -25 -17.5 -43t-42.5 -18q-27 0 -44 18.5t-17 50.5q0 56 29 103t62 78l20 -25q-39 -50 -45 -104
q23 -2 39 -19z" />
    <glyph glyph-name="quotedblright" unicode="&#x201d;" horiz-adv-x="357" 
d="M141.5 692q17.5 -19 17.5 -50q0 -56 -29.5 -103.5t-62.5 -77.5l-19 26q39 51 45 103q-24 2 -39.5 19.5t-15.5 40.5q0 26 17.5 43.5t42.5 17.5q26 0 43.5 -19zM302.5 692q17.5 -19 17.5 -50q0 -56 -29.5 -103.5t-62.5 -77.5l-19 26q39 51 45 103q-24 2 -39.5 19.5
t-15.5 40.5q0 26 17.5 43.5t42.5 17.5q26 0 43.5 -19z" />
    <glyph glyph-name="guilsinglleft" unicode="&#x2039;" horiz-adv-x="283" 
d="M245 84h-86l-121 181l121 181h86l-121 -181z" />
    <glyph glyph-name="guilsinglright" unicode="&#x203a;" horiz-adv-x="283" 
d="M125 84h-87l122 181l-122 181h87l120 -181z" />
    <glyph glyph-name="guillemotleft" unicode="&#xab;" horiz-adv-x="468" 
d="M245 84h-86l-121 181l121 181h86l-121 -181zM429 84h-86l-120 181l120 181h86l-121 -181z" />
    <glyph glyph-name="guillemotright" unicode="&#xbb;" horiz-adv-x="468" 
d="M125 84h-87l122 181l-122 181h87l120 -181zM309 84h-86l121 181l-121 181h86l120 -181z" />
    <glyph glyph-name="bullet" unicode="&#x2022;" horiz-adv-x="401" 
d="M132.5 198.5q-27.5 27.5 -27.5 68.5q0 40 27.5 67.5t67.5 27.5q41 0 68.5 -27.5t27.5 -67.5q0 -41 -27.5 -68.5t-68.5 -27.5q-40 0 -67.5 27.5z" />
    <glyph glyph-name="hyphen" unicode="-" horiz-adv-x="399" 
d="M359 227h-319v80h319v-80z" />
    <glyph glyph-name="uni00AD" unicode="&#xad;" horiz-adv-x="399" 
d="M359 227h-319v80h319v-80z" />
    <glyph glyph-name="endash" unicode="&#x2013;" horiz-adv-x="530" 
d="M490 228h-450v78h450v-78z" />
    <glyph glyph-name="emdash" unicode="&#x2014;" horiz-adv-x="790" 
d="M750 228h-710v78h710v-78z" />
    <glyph glyph-name="underscore" unicode="_" horiz-adv-x="305" 
d="M325 -186h-345v78h345v-78z" />
    <glyph glyph-name="parenleft" unicode="(" horiz-adv-x="312" 
d="M220 -219q-51 66 -104 189t-53 280t53 280t104 189l64 -43q-42 -62 -86.5 -176t-44.5 -250q0 -96 24.5 -184t54.5 -149t52 -93z" />
    <glyph glyph-name="parenright" unicode=")" horiz-adv-x="312" 
d="M28 -176q22 32 52 93t54.5 149t24.5 184q0 136 -44.5 250t-86.5 176l64 43q28 -36 63 -100.5t64 -161.5t29 -207t-29 -207t-64 -161.5t-63 -100.5z" />
    <glyph glyph-name="bracketleft" unicode="[" horiz-adv-x="317" 
d="M294 -200h-211v900h211v-80h-126v-740h126v-80z" />
    <glyph glyph-name="bracketright" unicode="]" horiz-adv-x="317" 
d="M234 -200h-211v80h126v740h-126v80h211v-900z" />
    <glyph glyph-name="braceleft" unicode="{" horiz-adv-x="345" 
d="M202 351q0 -44 -19 -68t-47 -33q28 -9 47 -33t19 -68v-194q0 -36 19.5 -55.5t53.5 -19.5h46v-80h-50q-74 0 -114 39t-40 111v195q0 36 -17.5 52t-57.5 16v74q40 0 57.5 16t17.5 52v195q0 72 40 111t114 39h50v-80h-46q-34 0 -53.5 -19.5t-19.5 -55.5v-194z" />
    <glyph glyph-name="braceright" unicode="}" horiz-adv-x="345" 
d="M227 355q0 -36 18 -52t58 -16v-74q-40 0 -58 -16t-18 -52v-195q0 -72 -40 -111t-113 -39h-51v80h47q34 0 53.5 19.5t19.5 55.5v194q0 44 19 68t47 33q-28 9 -47 33t-19 68v194q0 36 -19.5 55.5t-53.5 19.5h-46v80h50q73 0 113 -39t40 -111v-195z" />
    <glyph glyph-name="bar" unicode="|" horiz-adv-x="343" 
d="M213 -180h-83v880h83v-880z" />
    <glyph glyph-name="brokenbar" unicode="&#xa6;" horiz-adv-x="343" 
d="M213 355h-83v345h83v-345zM213 -180h-83v345h83v-345z" />
    <glyph glyph-name="dagger" unicode="&#x2020;" horiz-adv-x="381" 
d="M229 182h-77v310h-115v72h115v136h77v-136h114v-72h-114v-310z" />
    <glyph glyph-name="daggerdbl" unicode="&#x2021;" horiz-adv-x="381" 
d="M229 182h-77v129h-115v71h115v118h-115v71h115v129h77v-129h114v-71h-114v-118h114v-71h-114v-129z" />
    <glyph glyph-name="slash" unicode="/" horiz-adv-x="371" 
d="M83 -200h-83l288 900h83z" />
    <glyph glyph-name="backslash" unicode="\" horiz-adv-x="371" 
d="M371 -200h-83l-288 900h83z" />
    <glyph glyph-name="numbersign" unicode="#" horiz-adv-x="682" 
d="M660 505l-18 -75h-125l-32 -160h130l-19 -75h-127l-40 -195h-80l40 195h-159l-40 -195h-80l40 195h-128l19 75h125l32 160h-130l18 75h128l40 195h80l-40 -195h159l40 195h80l-40 -195h127zM246 270h159l32 160h-159z" />
    <glyph glyph-name="uni2116" unicode="&#x2116;" horiz-adv-x="1030" 
d="M169 700l356 -537v537h91v-700h-86l-356 537v-537h-91v700h86zM763 184q-35 20 -55.5 55t-20.5 77q0 43 20.5 78t55.5 55t77 20t77 -20t55.5 -55t20.5 -78q0 -42 -20.5 -77t-55.5 -55t-77 -20t-77 20zM785 376.5q-23 -23.5 -23 -60.5q0 -36 23 -59.5t55 -23.5t55 23.5
t23 59.5q0 37 -23 60.5t-55 23.5t-55 -23.5zM983 0h-286v74h286v-74z" />
    <glyph glyph-name="uni2116.sc" horiz-adv-x="934" 
d="M159 610l313 -458v458h90v-610h-84l-313 458v-458h-90v610h84zM667 164q-39 39 -39 98q0 60 39 98.5t98 38.5q60 0 99 -38.5t39 -98.5q0 -59 -39.5 -98t-98.5 -39t-98 39zM716.5 314q-18.5 -20 -18.5 -52q0 -31 18.5 -51t48.5 -20q31 0 49 20t18 51q0 32 -18 52t-49 20
q-30 0 -48.5 -20zM892 0h-254v70h254v-70z" />
    <glyph glyph-name="ampersand" unicode="&#x26;" horiz-adv-x="589" 
d="M618 0h-111l-80 89q-88 -100 -197 -100q-55 0 -97.5 21.5t-66.5 59t-24 84.5q0 59 30.5 107.5t86.5 94.5l17 13l-10 12q-44 49 -63 87.5t-19 79.5q0 46 21 83t58.5 58.5t84.5 21.5q46 0 83.5 -22t59.5 -59.5t22 -81.5q0 -81 -88 -160l-31 -28l131 -146l77 111h95
l-117 -171zM191.5 607q-21.5 -23 -21.5 -60q0 -28 16 -56.5t56 -73.5l23 21q62 55 62 109q0 37 -22 60t-57 23t-56.5 -23zM305 91q34 20 68 58l-145 162l-15 -12q-42 -33 -63 -64.5t-21 -72.5q0 -42 28 -66.5t74 -24.5q40 0 74 20z" />
    <glyph glyph-name="ampersand.sc" horiz-adv-x="539" 
d="M568 0h-110l-68 72q-88 -83 -185 -83q-48 0 -86 19t-60 52.5t-22 74.5q0 52 27 93.5t75 79.5l15 12l-8 9q-39 40 -55.5 73.5t-16.5 71.5q0 41 20 74.5t54.5 53t74.5 19.5q39 0 73 -20t54 -53.5t20 -73.5q0 -75 -80 -144l-22 -18l118 -123l68 96h91l-106 -151zM175.5 524
q-18.5 -20 -18.5 -52q0 -25 13 -48.5t48 -59.5l16 14q29 25 41 47t12 47q0 32 -18.5 52t-46.5 20t-46.5 -20zM336 128l-131 139l-13 -11q-36 -29 -53 -54.5t-17 -58.5q0 -36 23 -55.5t62 -19.5q67 0 129 60z" />
    <glyph glyph-name="section" unicode="&#xa7;" horiz-adv-x="499" 
d="M399.5 82.5q15.5 -28.5 15.5 -68.5q0 -41 -21 -75t-59 -54t-88 -20q-77 0 -125 45.5t-52 113.5h81q5 -37 29.5 -60.5t67.5 -23.5q38 0 61.5 20.5t23.5 53.5q0 38 -30.5 61.5t-92.5 50.5q-53 24 -85 43.5t-54.5 51t-22.5 77.5q0 49 27.5 84.5t69.5 59.5q-29 23 -45 51.5
t-16 68.5q0 41 21 75t59.5 54t88.5 20q76 0 124 -45.5t53 -113.5h-81q-5 37 -30 60.5t-67 23.5q-39 0 -62.5 -20.5t-23.5 -53.5q0 -38 30.5 -61.5t92.5 -50.5q53 -24 85 -43t55 -51t23 -78q0 -49 -27.5 -84.5t-69.5 -59.5q29 -23 44.5 -51.5zM146 254.5q16 -19.5 39.5 -32.5
t67.5 -33l31 -14q37 15 61.5 39.5t24.5 60.5q0 27 -16 46.5t-39.5 32.5t-66.5 33q-6 2 -32 14q-37 -15 -61.5 -39.5t-24.5 -59.5q0 -28 16 -47.5z" />
    <glyph glyph-name="paragraph" unicode="&#xb6;" horiz-adv-x="558" 
d="M475 700v-800h-78v728h-113v-728h-78v460q-76 4 -123.5 51.5t-47.5 118.5q0 49 23.5 87.5t65 60.5t94.5 22h257z" />
    <glyph glyph-name="copyright" unicode="&#xa9;" horiz-adv-x="787" 
d="M216.5 36.5q-80.5 47.5 -127.5 130t-47 183.5t47 183.5t127.5 130t176.5 47.5q97 0 177.5 -47.5t127.5 -130t47 -183.5t-47 -183.5t-127.5 -130t-177.5 -47.5q-96 0 -176.5 47.5zM536.5 92q64.5 38 101.5 105.5t37 152.5t-37 152.5t-101.5 105.5t-143.5 38
q-78 0 -142.5 -38t-101.5 -105.5t-37 -152.5t37 -152.5t101.5 -105.5t142.5 -38q79 0 143.5 38zM309.5 189q-39.5 24 -63 66.5t-23.5 94.5t23.5 94.5t63 66.5t83.5 24q64 0 109 -38.5t55 -92.5h-66q-10 31 -34 50.5t-64 19.5q-27 0 -51 -15.5t-38.5 -44t-14.5 -64.5
t14.5 -64.5t38.5 -44t51 -15.5q40 0 64 19.5t34 50.5h66q-10 -54 -55 -92.5t-109 -38.5q-44 0 -83.5 24z" />
    <glyph glyph-name="registered" unicode="&#xae;" horiz-adv-x="411" 
d="M291.5 688.5q39.5 -22.5 63.5 -62t24 -87.5t-24 -87t-63.5 -61.5t-85.5 -22.5t-86 22.5t-64 61.5t-24 87t24 87.5t64 62t86 22.5t85.5 -22.5zM289 454q34 33 34 85q0 53 -34 86t-83 33q-50 0 -84 -33t-34 -86q0 -52 34 -85t84 -33q49 0 83 33zM271 537.5
q-9 -13.5 -25 -20.5l39 -59h-55l-34 53h-8v-53h-49v168h78q28 0 45.5 -16.5t17.5 -40.5q0 -18 -9 -31.5zM188 585v-33h21q22 0 22 17q0 16 -22 16h-21z" />
    <glyph glyph-name="registered.salt" horiz-adv-x="787" 
d="M570.5 663.5q80.5 -47.5 127.5 -130t47 -183.5t-47 -183.5t-127.5 -130t-177.5 -47.5q-96 0 -176.5 47.5t-127.5 130t-47 183.5t47 183.5t127.5 130t176.5 47.5q97 0 177.5 -47.5zM536.5 92q64.5 38 101.5 105.5t37 152.5t-37 152.5t-101.5 105.5t-143.5 38
q-78 0 -142.5 -38t-101.5 -105.5t-37 -152.5t37 -152.5t101.5 -105.5t142.5 -38q79 0 143.5 38zM509.5 347q-21.5 -29 -56.5 -43l89 -134h-76l-79 126h-46v-126h-64v360h127q54 0 90.5 -34t36.5 -83q0 -37 -21.5 -66zM341 470v-114h63q29 0 45.5 15.5t16.5 41.5t-16.5 41.5
t-45.5 15.5h-63z" />
    <glyph glyph-name="trademark" unicode="&#x2122;" horiz-adv-x="634" 
d="M98 640h-88v60h240v-60h-88v-247h-64v247zM442 551l92 149h55v-307h-61v198l-69 -113h-37l-69 113v-198h-61v307h58z" />
    <glyph glyph-name="at" unicode="@" horiz-adv-x="824" 
d="M226 -73.5q-86 48.5 -135.5 133.5t-49.5 190q0 104 49.5 189t135 134t188.5 49q104 0 190 -48.5t136 -131t50 -181.5q0 -64 -20.5 -109.5t-55.5 -69t-77 -23.5q-46 0 -74.5 24t-38.5 46h-5q-14 -23 -46.5 -46.5t-82.5 -23.5q-44 0 -82 23.5t-61 67t-23 99.5t23 99.5
t61 67t81 23.5q44 0 73 -21.5t41 -41.5h5l17 56h49v-215q0 -91 63 -91q35 0 58.5 33.5t23.5 101.5q0 81 -41 148.5t-111 107t-153 39.5t-152 -40t-109.5 -110t-40.5 -156q0 -87 40.5 -157t109.5 -109.5t153 -39.5q56 0 99 14.5t64 30.5l33 -55q-26 -19 -78 -37.5t-118 -18.5
q-103 0 -189 48.5zM473.5 160.5q29.5 33.5 29.5 88.5t-29.5 88.5t-73.5 33.5q-45 0 -74.5 -33.5t-29.5 -88.5t29.5 -88.5t74.5 -33.5q44 0 73.5 33.5z" />
    <glyph glyph-name="A" unicode="A" horiz-adv-x="620" 
d="M618 0h-98l-61 168h-302l-61 -168h-94l264 700h88zM427 253l-119 323l-119 -323h238z" />
    <glyph glyph-name="B" unicode="B" horiz-adv-x="622" 
d="M541.5 315.5q39.5 -43.5 39.5 -114.5q0 -57 -28 -102.5t-79 -72t-116 -26.5h-275v700h264q60 0 107 -24.5t73 -66t26 -92.5q0 -57 -29 -92.5t-68 -50.5q46 -15 85.5 -58.5zM175 618v-210h167q54 0 86.5 29.5t32.5 76.5q0 46 -32.5 75t-86.5 29h-167zM353 82q60 0 98 35
t38 89q0 53 -38 88t-98 35h-178v-247h178z" />
    <glyph glyph-name="C" unicode="C" horiz-adv-x="711" 
d="M207 36.5q-76 47.5 -121 130t-45 183.5t45 183.5t121 130t164 47.5q74 0 136.5 -33.5t104.5 -90.5t58 -126h-94q-22 70 -75 116.5t-130 46.5q-63 0 -117.5 -35t-87.5 -97.5t-33 -141.5t33 -141.5t87.5 -97.5t117.5 -35q79 0 133 46t77 116h94q-17 -68 -59.5 -125
t-105.5 -90.5t-139 -33.5q-88 0 -164 47.5z" />
    <glyph glyph-name="D" unicode="D" horiz-adv-x="662" 
d="M83 0v700h195q95 0 173.5 -46t124 -126t45.5 -178q0 -99 -46 -179t-124.5 -125.5t-172.5 -45.5h-195zM278 87q68 0 125.5 34t91.5 94.5t34 134.5t-34 134.5t-91.5 94.5t-125.5 34h-103v-526h103z" />
    <glyph glyph-name="E" unicode="E" horiz-adv-x="583" 
d="M175 317v-231h365v-86h-457v700h447v-86h-355v-212h317v-85h-317z" />
    <glyph glyph-name="F" unicode="F" horiz-adv-x="559" 
d="M523 700v-87h-348v-227h302v-85h-302v-301h-92v700h440z" />
    <glyph glyph-name="G" unicode="G" horiz-adv-x="750" 
d="M389 350h292v-350h-60l-18 106q-35 -49 -96 -83t-136 -34q-88 0 -164 47.5t-121 130t-45 183.5t45 183.5t121 130t164 47.5q74 0 137 -31.5t105.5 -84t56.5 -114.5h-94q-22 61 -75 102t-130 41q-63 0 -117.5 -35t-87.5 -97.5t-33 -141.5t33 -141.5t87.5 -97.5t117.5 -35
q60 0 107.5 26.5t75.5 70.5t32 96h-197v81z" />
    <glyph glyph-name="H" unicode="H" horiz-adv-x="690" 
d="M514 401v299h92v-700h-92v314h-339v-314h-92v700h92v-299h339z" />
    <glyph glyph-name="I" unicode="I" horiz-adv-x="259" 
d="M175 0h-92v700h92v-700z" />
    <glyph glyph-name="J" unicode="J" horiz-adv-x="531" 
d="M119 17q-50 28 -77.5 75.5t-27.5 104.5h91q1 -31 17 -59t45.5 -45t66.5 -17q58 0 92.5 36t34.5 94v494h92v-494q0 -63 -27 -112.5t-77 -77t-115 -27.5t-115 28z" />
    <glyph glyph-name="K" unicode="K" horiz-adv-x="568" 
d="M276 359l301 -359h-117l-285 344v-344h-92v700h92v-334l275 334h110z" />
    <glyph glyph-name="L" unicode="L" horiz-adv-x="524" 
d="M514 0h-431v700h92v-613h339v-87z" />
    <glyph glyph-name="M" unicode="M" horiz-adv-x="839" 
d="M421 137l252 563h83v-700h-90v490l-220 -490h-54l-218 486v-486h-91v700h87z" />
    <glyph glyph-name="N" unicode="N" horiz-adv-x="699" 
d="M525 163v537h91v-700h-86l-356 537v-537h-91v700h86z" />
    <glyph glyph-name="O" unicode="O" horiz-adv-x="742" 
d="M207 36.5q-76 47.5 -121 130t-45 183.5t45 183.5t121 130t164 47.5t164 -47.5t121 -130t45 -183.5t-45 -183.5t-121 -130t-164 -47.5t-164 47.5zM489 111q55 35 87.5 97.5t32.5 141.5t-32.5 141.5t-87.5 97.5t-118 35t-117.5 -35t-87.5 -97.5t-33 -141.5t33 -141.5
t87.5 -97.5t117.5 -35t118 35z" />
    <glyph glyph-name="P" unicode="P" horiz-adv-x="591" 
d="M319 700q63 0 116 -29.5t83.5 -80.5t30.5 -112q0 -62 -30.5 -113t-83 -80.5t-116.5 -29.5h-144v-255h-92v700h236zM318 342q60 0 99.5 38.5t39.5 97.5q0 58 -40 96.5t-99 38.5h-143v-271h143z" />
    <glyph glyph-name="Q" unicode="Q" horiz-adv-x="742" 
d="M678.5 219q-22.5 -62 -62.5 -111l67 -66l-56 -59l-70 69q-40 -30 -88 -46.5t-98 -16.5q-88 0 -164 47.5t-121 130t-45 183.5t45 183.5t121 130t164 47.5t164 -47.5t121 -130t45 -183.5q0 -69 -22.5 -131zM495 113l-100 99l56 58l103 -101q57 77 57 181q0 79 -33 142
t-88 98t-119 35t-119 -35t-88 -98t-33 -142t33 -142t88 -98t119 -35q65 0 124 38z" />
    <glyph glyph-name="R" unicode="R" horiz-adv-x="616" 
d="M470 0l-158 282h-137v-282h-92v700h256q63 0 114.5 -28t80.5 -76t29 -107q0 -70 -43 -123t-114 -73l171 -293h-107zM175 614v-247h163q58 0 95.5 34.5t37.5 86.5q0 55 -37.5 90.5t-95.5 35.5h-163z" />
    <glyph glyph-name="S" unicode="S" horiz-adv-x="564" 
d="M158.5 17q-54.5 28 -84.5 78t-34 114h92q5 -63 45 -99.5t109 -36.5q68 0 104.5 30.5t36.5 78.5q0 37 -21.5 61.5t-53 39.5t-87.5 34q-67 22 -108.5 42.5t-70.5 59.5t-29 101q0 55 26.5 98.5t76.5 68t118 24.5t119 -28t79.5 -77t31.5 -110h-92q-3 59 -40.5 95t-97.5 36
q-61 0 -95 -30t-34 -77q0 -36 20.5 -59t52 -37t84.5 -31q69 -23 111 -43.5t72 -60.5t30 -105q0 -87 -61.5 -141t-172.5 -54q-72 0 -126.5 28z" />
    <glyph glyph-name="T" unicode="T" horiz-adv-x="548" 
d="M320 0h-92v613h-212v87h516v-87h-212v-613z" />
    <glyph glyph-name="U" unicode="U" horiz-adv-x="676" 
d="M202 23.5q-59 34.5 -91.5 95t-32.5 137.5v444h92v-444q0 -82 46 -131t122 -49t122 49t46 131v444h92v-444q0 -77 -32.5 -137.5t-91.5 -95t-136 -34.5t-136 34.5z" />
    <glyph glyph-name="V" unicode="V" horiz-adv-x="623" 
d="M314 119l205 581h94l-254 -700h-96l-253 700h98z" />
    <glyph glyph-name="W" unicode="W" horiz-adv-x="884" 
d="M628 174l154 526h92l-213 -700h-70l-149 513l-148 -513h-71l-213 700h95l154 -526l150 526h67z" />
    <glyph glyph-name="X" unicode="X" horiz-adv-x="589" 
d="M348 355l229 -355h-107l-177 283l-179 -283h-102l229 355l-218 345h105l168 -273l167 273h103z" />
    <glyph glyph-name="Y" unicode="Y" horiz-adv-x="551" 
d="M277 364l176 336h98l-230 -430v-270h-92v270l-229 430h101z" />
    <glyph glyph-name="Z" unicode="Z" horiz-adv-x="554" 
d="M504 636l-352 -550h365v-86h-480v64l351 550h-340v86h456v-64z" />
    <glyph glyph-name="a" unicode="a" horiz-adv-x="506" 
d="M350 489.5q44 -24.5 68.5 -69t24.5 -101.5v-319h-65l-18 63h-5q-20 -28 -58 -51t-93 -23q-50 0 -88 20t-59 54.5t-21 76.5q0 47 28.5 83.5t80 56.5t117.5 20h94v23q0 51 -29.5 81.5t-77.5 30.5q-45 0 -71 -23t-33 -59h-87q5 43 29.5 80t66.5 59t95 22q57 0 101 -24.5z
M318 101.5q38 36.5 38 91.5v38h-88q-70 0 -108 -23t-38 -64q0 -36 25 -57.5t71 -21.5q62 0 100 36.5z" />
    <glyph glyph-name="b" unicode="b" horiz-adv-x="585" 
d="M220.5 14q-41.5 25 -59.5 49h-5l-19 -63h-64v700h86v-258h5q16 23 58 47.5t94 24.5q63 0 116 -33.5t84.5 -93.5t31.5 -135t-31.5 -135t-84.5 -94t-116 -34q-54 0 -95.5 25zM386.5 93q34.5 23 55 64.5t20.5 94.5t-20.5 94t-55 64t-75.5 23t-76 -23t-55.5 -64t-20.5 -94
t20.5 -94.5t55.5 -64.5t76 -23t75.5 23z" />
    <glyph glyph-name="c" unicode="c" horiz-adv-x="537" 
d="M158.5 23.5q-55.5 34.5 -88.5 95t-33 133.5t33 133t88.5 94.5t121.5 34.5q58 0 105.5 -27t78.5 -71t41 -95h-86q-14 49 -49.5 80.5t-89.5 31.5q-42 0 -78 -23t-57.5 -64t-21.5 -94t21.5 -94.5t57 -64.5t78.5 -23q54 0 89.5 31.5t49.5 80.5h86q-10 -51 -41 -95t-78.5 -71
t-105.5 -27q-66 0 -121.5 34.5z" />
    <glyph glyph-name="d" unicode="d" horiz-adv-x="585" 
d="M153 23q-53 34 -84.5 94t-31.5 135t31.5 135t84.5 93.5t116 33.5q52 0 94 -24.5t58 -47.5h5v258h86v-700h-64l-19 63h-5q-18 -24 -59.5 -49t-95.5 -25q-63 0 -116 34zM350 93q35 23 55.5 64.5t20.5 94.5t-20.5 94t-55.5 64t-76 23t-75.5 -23t-55 -64t-20.5 -94
t20.5 -94.5t55 -64.5t75.5 -23t76 23z" />
    <glyph glyph-name="e" unicode="e" horiz-adv-x="548" 
d="M507 214h-382q10 -68 52 -107t104 -39q82 0 124 67h89q-24 -61 -82 -103.5t-132 -42.5q-67 0 -123 34t-88 94t-32 135q0 73 33 133t88.5 94.5t120.5 34.5t118 -33t83.5 -90t30.5 -127q0 -34 -4 -50zM177.5 393.5q-43.5 -41.5 -53.5 -108.5h303q-8 66 -48.5 108t-99.5 42
q-58 0 -101.5 -41.5z" />
    <glyph glyph-name="f" unicode="f" horiz-adv-x="309" 
d="M203 607.5q-21 -22.5 -21 -67.5v-37h115v-79h-114v-424h-86v424h-70v79h70v41q0 78 41.5 122.5t106.5 44.5q25 0 52 -9v-78q-16 6 -35 6q-38 0 -59 -22.5z" />
    <glyph glyph-name="g" unicode="g" horiz-adv-x="569" 
d="M171 -168q-46 22 -74 57.5t-38 75.5h87q12 -35 46.5 -55.5t84.5 -20.5q63 0 100.5 36t37.5 98v67h-5q-15 -23 -55 -47.5t-91 -24.5q-61 0 -113.5 32.5t-83 89t-30.5 125.5q0 70 30.5 127t82.5 89.5t113 32.5q53 0 94 -25t56 -49h5l19 63h64v-480q0 -97 -60.5 -155
t-162.5 -58q-61 0 -107 22zM341.5 119q33.5 22 53.5 60.5t20 85.5q0 48 -20 87t-53.5 61t-72.5 22t-72.5 -22t-53.5 -61t-20 -87q0 -47 20 -85.5t53.5 -60.5t72.5 -22t72.5 22z" />
    <glyph glyph-name="h" unicode="h" horiz-adv-x="570" 
d="M73 0v700h86v-260h5q18 27 56.5 50.5t88.5 23.5q56 0 101 -27.5t71 -77.5t26 -116v-293h-87v290q0 65 -36 104t-92 39q-59 0 -96 -39t-37 -104v-290h-86z" />
    <glyph glyph-name="i" unicode="i" horiz-adv-x="223" 
d="M154 0h-86v503h86v-503zM72.5 594q-15.5 16 -15.5 39q0 24 15.5 39t38.5 15q24 0 39.5 -15t15.5 -39q0 -23 -16 -39t-39 -16t-38.5 16z" />
    <glyph glyph-name="j" unicode="j" horiz-adv-x="223" 
d="M-45 -176v78q17 -6 34 -6q38 0 58.5 22.5t20.5 67.5v517h86v-521q0 -78 -41 -122.5t-106 -44.5q-25 0 -52 9zM72.5 594q-15.5 16 -15.5 39q0 24 15.5 39t38.5 15q24 0 39.5 -15t15.5 -39q0 -23 -16 -39t-39 -16t-38.5 16z" />
    <glyph glyph-name="k" unicode="k" horiz-adv-x="474" 
d="M254 262l229 -262h-110l-214 250v-250h-86v700h86v-434l199 237h103z" />
    <glyph glyph-name="l" unicode="l" horiz-adv-x="233" 
d="M159 0h-86v700h86v-700z" />
    <glyph glyph-name="m" unicode="m" horiz-adv-x="806" 
d="M659 489q39 -25 61 -72.5t22 -110.5v-306h-86v304q0 61 -28.5 95t-73.5 34t-75.5 -35.5t-30.5 -93.5v-304h-86v304q0 61 -28.5 95t-73.5 34t-75.5 -35t-30.5 -94v-304h-86v503h64l19 -63h5q16 27 47.5 50.5t75.5 23.5q55 0 91 -28t52 -62q20 35 58 62.5t92 27.5
q48 0 87 -25z" />
    <glyph glyph-name="n" unicode="n" horiz-adv-x="565" 
d="M68 0v503h64l19 -63h5q18 28 56 51t88 23q58 0 104 -27.5t72 -77.5t26 -116v-293h-87v290q0 65 -36 104t-92 39q-59 0 -96 -39t-37 -104v-290h-86z" />
    <glyph glyph-name="o" unicode="o" horiz-adv-x="559" 
d="M158.5 23.5q-55.5 34.5 -88.5 95t-33 133.5t33 133t88.5 94.5t121.5 34.5q65 0 121 -34.5t89 -94.5t33 -133t-33 -133.5t-89 -95t-121 -34.5q-66 0 -121.5 34.5zM358 93q36 23 57 64.5t21 94.5t-21 94t-57 64t-78 23t-78 -23t-57.5 -64t-21.5 -94t21.5 -94.5t57 -64.5
t78.5 -23q42 0 78 23z" />
    <glyph glyph-name="p" unicode="p" horiz-adv-x="580" 
d="M68 -180v683h64l19 -63h5q18 24 59.5 49t95.5 25q63 0 116 -33.5t84.5 -93.5t31.5 -135t-31.5 -135t-84.5 -94t-116 -34q-52 0 -94 24.5t-58 47.5h-5v-241h-86zM381.5 93q34.5 23 55 64.5t20.5 94.5t-20.5 94t-55 64t-75.5 23t-76 -23t-55.5 -64t-20.5 -94t20.5 -94.5
t55.5 -64.5t76 -23t75.5 23z" />
    <glyph glyph-name="q" unicode="q" horiz-adv-x="580" 
d="M426 -180v241h-5q-16 -23 -58 -47.5t-94 -24.5q-63 0 -116 34t-84.5 94t-31.5 135t31.5 135t84.5 93.5t116 33.5q54 0 95.5 -25t59.5 -49h5l19 63h64v-683h-86zM350 93q35 23 55.5 64.5t20.5 94.5t-20.5 94t-55.5 64t-76 23t-75.5 -23t-55 -64t-20.5 -94t20.5 -94.5
t55 -64.5t75.5 -23t76 23z" />
    <glyph glyph-name="r" unicode="r" horiz-adv-x="334" 
d="M68 0v503h64l19 -63h5q18 27 53 50.5t77 23.5q24 0 39 -4v-87q-16 5 -39 5q-59 0 -95.5 -39t-36.5 -106v-283h-86z" />
    <glyph glyph-name="s" unicode="s" horiz-adv-x="446" 
d="M130.5 11q-42.5 22 -67.5 59t-28 80h86q4 -38 32 -61.5t75 -23.5q45 0 69.5 19.5t24.5 50.5q0 33 -27.5 50t-86.5 36q-52 17 -83.5 32t-54 43.5t-22.5 73.5q0 40 21 72.5t60.5 52t91.5 19.5q51 0 91 -21t63 -56.5t26 -78.5h-85q-5 38 -28.5 59t-66.5 21q-41 0 -64 -18.5
t-23 -46.5q0 -32 27 -48.5t84 -34.5q52 -16 84.5 -31.5t55.5 -45t23 -75.5q0 -65 -48 -107t-132 -42q-55 0 -97.5 22z" />
    <glyph glyph-name="t" unicode="t" horiz-adv-x="335" 
d="M142.5 34q-41.5 45 -41.5 123v267h-86v76h38q29 0 45 15.5t16 44.5v75h73v-132h114v-79h-114v-264q0 -45 21 -67.5t58 -22.5q20 0 35 7v-79q-27 -9 -52 -9q-65 0 -106.5 45z" />
    <glyph glyph-name="u" unicode="u" horiz-adv-x="565" 
d="M160.5 16.5q-45.5 27.5 -71.5 77.5t-26 116v293h86v-290q0 -65 36.5 -104t92.5 -39q59 0 95.5 39t36.5 104v290h87v-503h-65l-18 63h-5q-18 -27 -56.5 -50.5t-88.5 -23.5q-58 0 -103.5 27.5z" />
    <glyph glyph-name="v" unicode="v" horiz-adv-x="490" 
d="M247 110l149 393h89l-199 -503h-81l-200 503h92z" />
    <glyph glyph-name="w" unicode="w" horiz-adv-x="701" 
d="M494 138l115 365h87l-167 -503h-68l-111 354l-110 -354h-68l-167 503h91l114 -363l113 363h57z" />
    <glyph glyph-name="x" unicode="x" horiz-adv-x="470" 
d="M289 257l174 -257h-101l-129 196l-129 -196h-96l173 257l-162 246h98l120 -187l119 187h95z" />
    <glyph glyph-name="y" unicode="y" horiz-adv-x="487" 
d="M393 503h89l-216 -542q-33 -83 -67 -114.5t-79 -31.5q-20 0 -47 9v78q17 -6 33 -6q27 0 45.5 15t32.5 50l20 51l-199 491h93l149 -384z" />
    <glyph glyph-name="z" unicode="z" horiz-adv-x="428" 
d="M389 431l-256 -352h264v-79h-366v72l257 352h-252v79h353v-72z" />
    <glyph glyph-name="Aacute" unicode="&#xc1;" horiz-adv-x="620" 
d="M618 0h-98l-61 168h-302l-61 -168h-94l264 700h88zM427 253l-119 323l-119 -323h238zM333 755h-70l74 137h97z" />
    <glyph glyph-name="Abreve" unicode="&#x102;" horiz-adv-x="620" 
d="M618 0h-98l-61 168h-302l-61 -168h-94l264 700h88zM427 253l-119 323l-119 -323h238zM209.5 797q-38.5 37 -42.5 91h68q4 -31 22.5 -49.5t52.5 -18.5t52.5 18.5t22.5 49.5h68q-4 -54 -42.5 -91t-100.5 -37t-100.5 37z" />
    <glyph glyph-name="Acircumflex" unicode="&#xc2;" horiz-adv-x="620" 
d="M618 0h-98l-61 168h-302l-61 -168h-94l264 700h88zM427 253l-119 323l-119 -323h238zM350 892l110 -137h-83l-67 85l-67 -85h-81l110 137h78z" />
    <glyph glyph-name="Adieresis" unicode="&#xc4;" horiz-adv-x="620" 
d="M618 0h-98l-61 168h-302l-61 -168h-94l264 700h88zM427 253l-119 323l-119 -323h238zM184 787q-15 15 -15 36q0 22 15 37t36 15q22 0 37 -15t15 -37t-15 -36.5t-37 -14.5q-21 0 -36 15zM364.5 787q-15.5 15 -15.5 36q0 22 15.5 37t36.5 15q20 0 35.5 -15t15.5 -37
q0 -21 -15 -36t-36 -15t-36.5 15z" />
    <glyph glyph-name="Agrave" unicode="&#xc0;" horiz-adv-x="620" 
d="M618 0h-98l-61 168h-302l-61 -168h-94l264 700h88zM427 253l-119 323l-119 -323h238zM358 755h-70l-102 137h97z" />
    <glyph glyph-name="Amacron" unicode="&#x100;" horiz-adv-x="620" 
d="M618 0h-98l-61 168h-302l-61 -168h-94l264 700h88zM427 253l-119 323l-119 -323h238zM446 789h-271v69h271v-69z" />
    <glyph glyph-name="Aogonek" unicode="&#x104;" horiz-adv-x="620" 
d="M546.5 -140.5q14.5 -13.5 38.5 -13.5q18 0 33 5v-53q-22 -6 -45 -6q-46 0 -74 25t-28 67q0 35 20.5 65.5t53.5 50.5h-25l-61 168h-302l-61 -168h-94l264 700h88l264 -700q-86 -50 -86 -105q0 -22 14.5 -35.5zM427 253l-119 323l-119 -323h238z" />
    <glyph glyph-name="Aring" unicode="&#xc5;" horiz-adv-x="620" 
d="M618 0h-98l-61 168h-302l-61 -168h-94l264 700h88zM427 253l-119 323l-119 -323h238zM239.5 783.5q-28.5 27.5 -28.5 67.5t28.5 68t70.5 28t70.5 -28t28.5 -68t-28.5 -67.5t-70.5 -27.5t-70.5 27.5zM342 819q13 12 13 32t-13 32.5t-32 12.5t-32 -12.5t-13 -32.5t13 -32
t32 -12t32 12z" />
    <glyph glyph-name="Aringacute" unicode="&#x1fa;" horiz-adv-x="620" 
d="M618 0h-98l-61 168h-302l-61 -168h-94l264 700h88zM427 253l-119 323l-119 -323h238zM345 951h-68l62 121h93zM239.5 773.5q-28.5 27.5 -28.5 67.5t28.5 68t70.5 28t70.5 -28t28.5 -68t-28.5 -67.5t-70.5 -27.5t-70.5 27.5zM342 809q13 12 13 32t-13 32.5t-32 12.5
t-32 -12.5t-13 -32.5t13 -32t32 -12t32 12z" />
    <glyph glyph-name="Atilde" unicode="&#xc3;" horiz-adv-x="620" 
d="M618 0h-98l-61 168h-302l-61 -168h-94l264 700h88zM427 253l-119 323l-119 -323h238zM331.5 770.5q-16.5 9.5 -35.5 27.5q-13 12 -22 18t-20 6q-16 0 -27 -15t-11 -40h-61q0 58 26.5 88.5t66.5 30.5q25 0 42 -10t35 -27q14 -12 22.5 -17.5t18.5 -5.5q17 0 28 14.5
t11 39.5h60q0 -57 -26.5 -88t-65.5 -31q-25 0 -41.5 9.5z" />
    <glyph glyph-name="AE" unicode="&#xc6;" horiz-adv-x="891" 
d="M513 317v-231h335v-86h-425v168h-259l-94 -168h-101l397 700h472v-86h-325v-212h287v-85h-287zM413 614l-202 -361h212v361h-10z" />
    <glyph glyph-name="AEacute" unicode="&#x1fc;" horiz-adv-x="891" 
d="M513 317v-231h335v-86h-425v168h-259l-94 -168h-101l397 700h472v-86h-325v-212h287v-85h-287zM413 614l-202 -361h212v361h-10zM491 755h-70l74 137h97z" />
    <glyph glyph-name="Cacute" unicode="&#x106;" horiz-adv-x="711" 
d="M207 36.5q-76 47.5 -121 130t-45 183.5t45 183.5t121 130t164 47.5q74 0 136.5 -33.5t104.5 -90.5t58 -126h-94q-22 70 -75 116.5t-130 46.5q-63 0 -117.5 -35t-87.5 -97.5t-33 -141.5t33 -141.5t87.5 -97.5t117.5 -35q79 0 133 46t77 116h94q-17 -68 -59.5 -125
t-105.5 -90.5t-139 -33.5q-88 0 -164 47.5zM392 755h-70l74 137h97z" />
    <glyph glyph-name="Ccaron" unicode="&#x10c;" horiz-adv-x="711" 
d="M207 36.5q-76 47.5 -121 130t-45 183.5t45 183.5t121 130t164 47.5q74 0 136.5 -33.5t104.5 -90.5t58 -126h-94q-22 70 -75 116.5t-130 46.5q-63 0 -117.5 -35t-87.5 -97.5t-33 -141.5t33 -141.5t87.5 -97.5t117.5 -35q79 0 133 46t77 116h94q-17 -68 -59.5 -125
t-105.5 -90.5t-139 -33.5q-88 0 -164 47.5zM369 807l66 85h83l-110 -137h-78l-110 137h82z" />
    <glyph glyph-name="Ccedilla" unicode="&#xc7;" horiz-adv-x="711" 
d="M675 238q-16 -66 -56 -121t-99.5 -89.5t-131.5 -38.5l-15 -30q43 -3 67.5 -25.5t24.5 -55.5q0 -40 -28.5 -63t-87.5 -23q-32 0 -60 10v49q23 -7 49 -7q67 0 67 36q0 16 -15 25.5t-47 9.5q-21 0 -38 -5l33 81q-81 9 -149 58t-108 128t-40 173q0 101 45 183.5t121 130
t164 47.5q74 0 136.5 -33.5t104.5 -90.5t58 -126h-94q-22 70 -75 116.5t-130 46.5q-63 0 -117.5 -35t-87.5 -97.5t-33 -141.5t33 -141.5t87.5 -97.5t117.5 -35q79 0 133 46t77 116h94z" />
    <glyph glyph-name="Ccircumflex" unicode="&#x108;" horiz-adv-x="711" 
d="M207 36.5q-76 47.5 -121 130t-45 183.5t45 183.5t121 130t164 47.5q74 0 136.5 -33.5t104.5 -90.5t58 -126h-94q-22 70 -75 116.5t-130 46.5q-63 0 -117.5 -35t-87.5 -97.5t-33 -141.5t33 -141.5t87.5 -97.5t117.5 -35q79 0 133 46t77 116h94q-17 -68 -59.5 -125
t-105.5 -90.5t-139 -33.5q-88 0 -164 47.5zM408 892l110 -137h-83l-67 85l-67 -85h-81l110 137h78z" />
    <glyph glyph-name="Cdotaccent" unicode="&#x10a;" horiz-adv-x="711" 
d="M207 36.5q-76 47.5 -121 130t-45 183.5t45 183.5t121 130t164 47.5q74 0 136.5 -33.5t104.5 -90.5t58 -126h-94q-22 70 -75 116.5t-130 46.5q-63 0 -117.5 -35t-87.5 -97.5t-33 -141.5t33 -141.5t87.5 -97.5t117.5 -35q79 0 133 46t77 116h94q-17 -68 -59.5 -125
t-105.5 -90.5t-139 -33.5q-88 0 -164 47.5zM330.5 784.5q-15.5 15.5 -15.5 38.5q0 24 15.5 39.5t38.5 15.5t39 -15.5t16 -39.5q0 -23 -16 -38.5t-39 -15.5t-38.5 15.5z" />
    <glyph glyph-name="Eth" unicode="&#xd0;" horiz-adv-x="690" 
d="M306 700q95 0 173.5 -46t124.5 -126t46 -178q0 -99 -46 -179t-125 -125.5t-173 -45.5h-195v310h-93v80h93v310h195zM306 87q68 0 125.5 34t92 94.5t34.5 134.5t-34.5 134.5t-92 94.5t-125.5 34h-103v-223h145v-80h-145v-223h103z" />
    <glyph glyph-name="Dcaron" unicode="&#x10e;" horiz-adv-x="662" 
d="M83 0v700h195q95 0 173.5 -46t124 -126t45.5 -178q0 -99 -46 -179t-124.5 -125.5t-172.5 -45.5h-195zM278 87q68 0 125.5 34t91.5 94.5t34 134.5t-34 134.5t-91.5 94.5t-125.5 34h-103v-526h103zM328 807l66 85h83l-110 -137h-78l-110 137h82z" />
    <glyph glyph-name="Dcroat" unicode="&#x110;" horiz-adv-x="690" 
d="M306 700q95 0 173.5 -46t124.5 -126t46 -178q0 -99 -46 -179t-125 -125.5t-173 -45.5h-195v310h-93v80h93v310h195zM306 87q68 0 125.5 34t92 94.5t34.5 134.5t-34.5 134.5t-92 94.5t-125.5 34h-103v-223h145v-80h-145v-223h103z" />
    <glyph glyph-name="Eacute" unicode="&#xc9;" horiz-adv-x="583" 
d="M175 317v-231h365v-86h-457v700h447v-86h-355v-212h317v-85h-317zM330 755h-70l74 137h97z" />
    <glyph glyph-name="Ebreve" unicode="&#x114;" horiz-adv-x="583" 
d="M175 317v-231h365v-86h-457v700h447v-86h-355v-212h317v-85h-317zM206.5 797q-38.5 37 -42.5 91h68q4 -31 22.5 -49.5t52.5 -18.5t52.5 18.5t22.5 49.5h68q-4 -54 -42.5 -91t-100.5 -37t-100.5 37z" />
    <glyph glyph-name="Ecaron" unicode="&#x11a;" horiz-adv-x="583" 
d="M175 317v-231h365v-86h-457v700h447v-86h-355v-212h317v-85h-317zM307 807l66 85h83l-110 -137h-78l-110 137h82z" />
    <glyph glyph-name="Ecircumflex" unicode="&#xca;" horiz-adv-x="583" 
d="M175 317v-231h365v-86h-457v700h447v-86h-355v-212h317v-85h-317zM347 892l110 -137h-83l-67 85l-67 -85h-81l110 137h78z" />
    <glyph glyph-name="Edieresis" unicode="&#xcb;" horiz-adv-x="583" 
d="M175 317v-231h365v-86h-457v700h447v-86h-355v-212h317v-85h-317zM181 787q-15 15 -15 36q0 22 15 37t36 15q22 0 37 -15t15 -37t-15 -36.5t-37 -14.5q-21 0 -36 15zM361.5 787q-15.5 15 -15.5 36q0 22 15.5 37t36.5 15q20 0 35.5 -15t15.5 -37q0 -21 -15 -36t-36 -15
t-36.5 15z" />
    <glyph glyph-name="Edotaccent" unicode="&#x116;" horiz-adv-x="583" 
d="M175 317v-231h365v-86h-457v700h447v-86h-355v-212h317v-85h-317zM268.5 784.5q-15.5 15.5 -15.5 38.5q0 24 15.5 39.5t38.5 15.5t39 -15.5t16 -39.5q0 -23 -16 -38.5t-39 -15.5t-38.5 15.5z" />
    <glyph glyph-name="Egrave" unicode="&#xc8;" horiz-adv-x="583" 
d="M175 317v-231h365v-86h-457v700h447v-86h-355v-212h317v-85h-317zM355 755h-70l-102 137h97z" />
    <glyph glyph-name="Emacron" unicode="&#x112;" horiz-adv-x="583" 
d="M175 317v-231h365v-86h-457v700h447v-86h-355v-212h317v-85h-317zM442 789h-271v69h271v-69z" />
    <glyph glyph-name="Eogonek" unicode="&#x118;" horiz-adv-x="583" 
d="M540 0q-86 -50 -86 -105q0 -22 14.5 -35.5t38.5 -13.5q18 0 33 5v-53q-22 -6 -45 -6q-46 0 -74 25t-28 67q0 35 20.5 65.5t53.5 50.5h-384v700h447v-86h-355v-212h317v-85h-317v-231h365v-86z" />
    <glyph glyph-name="uni018F" unicode="&#x18f;" horiz-adv-x="737" 
d="M529 663.5q76 -47.5 121.5 -130t45.5 -183.5t-45.5 -183.5t-121.5 -130t-164 -47.5q-86 0 -160.5 47t-119 129t-44.5 182q0 20 2 34h560q-7 71 -40.5 126t-85.5 86t-112 31q-69 0 -123 -36t-84 -98h-93q20 64 64.5 114.5t106 78.5t129.5 28q88 0 164 -47.5zM472.5 104.5
q50.5 28.5 84.5 80t44 117.5h-464q5 -62 37 -114t82.5 -82t108.5 -30q57 0 107.5 28.5z" />
    <glyph glyph-name="uni01F4" unicode="&#x1f4;" horiz-adv-x="750" 
d="M389 350h292v-350h-60l-18 106q-35 -49 -96 -83t-136 -34q-88 0 -164 47.5t-121 130t-45 183.5t45 183.5t121 130t164 47.5q74 0 137 -31.5t105.5 -84t56.5 -114.5h-94q-22 61 -75 102t-130 41q-63 0 -117.5 -35t-87.5 -97.5t-33 -141.5t33 -141.5t87.5 -97.5t117.5 -35
q60 0 107.5 26.5t75.5 70.5t32 96h-197v81zM392 755h-70l74 137h97z" />
    <glyph glyph-name="Gbreve" unicode="&#x11e;" horiz-adv-x="750" 
d="M389 350h292v-350h-60l-18 106q-35 -49 -96 -83t-136 -34q-88 0 -164 47.5t-121 130t-45 183.5t45 183.5t121 130t164 47.5q74 0 137 -31.5t105.5 -84t56.5 -114.5h-94q-22 61 -75 102t-130 41q-63 0 -117.5 -35t-87.5 -97.5t-33 -141.5t33 -141.5t87.5 -97.5t117.5 -35
q60 0 107.5 26.5t75.5 70.5t32 96h-197v81zM269.5 797q-38.5 37 -42.5 91h68q4 -31 22.5 -49.5t52.5 -18.5t52.5 18.5t22.5 49.5h68q-4 -54 -42.5 -91t-100.5 -37t-100.5 37z" />
    <glyph glyph-name="Gcircumflex" unicode="&#x11c;" horiz-adv-x="750" 
d="M389 350h292v-350h-60l-18 106q-35 -49 -96 -83t-136 -34q-88 0 -164 47.5t-121 130t-45 183.5t45 183.5t121 130t164 47.5q74 0 137 -31.5t105.5 -84t56.5 -114.5h-94q-22 61 -75 102t-130 41q-63 0 -117.5 -35t-87.5 -97.5t-33 -141.5t33 -141.5t87.5 -97.5t117.5 -35
q60 0 107.5 26.5t75.5 70.5t32 96h-197v81zM409 892l110 -137h-83l-67 85l-67 -85h-81l110 137h78z" />
    <glyph glyph-name="uni0122" unicode="&#x122;" horiz-adv-x="750" 
d="M389 350h292v-350h-60l-18 106q-35 -49 -96 -83t-136 -34q-88 0 -164 47.5t-121 130t-45 183.5t45 183.5t121 130t164 47.5q74 0 137 -31.5t105.5 -84t56.5 -114.5h-94q-22 61 -75 102t-130 41q-63 0 -117.5 -35t-87.5 -97.5t-33 -141.5t33 -141.5t87.5 -97.5t117.5 -35
q60 0 107.5 26.5t75.5 70.5t32 96h-197v81zM412.5 -93q16.5 -18 16.5 -49q0 -46 -25 -82.5t-54 -59.5l-17 22q12 12 23 31.5t14 44.5q-22 1 -38.5 16.5t-16.5 38.5q0 24 16.5 40t38.5 16q26 0 42.5 -18z" />
    <glyph glyph-name="Gdotaccent" unicode="&#x120;" horiz-adv-x="750" 
d="M389 350h292v-350h-60l-18 106q-35 -49 -96 -83t-136 -34q-88 0 -164 47.5t-121 130t-45 183.5t45 183.5t121 130t164 47.5q74 0 137 -31.5t105.5 -84t56.5 -114.5h-94q-22 61 -75 102t-130 41q-63 0 -117.5 -35t-87.5 -97.5t-33 -141.5t33 -141.5t87.5 -97.5t117.5 -35
q60 0 107.5 26.5t75.5 70.5t32 96h-197v81zM330.5 784.5q-15.5 15.5 -15.5 38.5q0 24 15.5 39.5t38.5 15.5t39 -15.5t16 -39.5q0 -23 -16 -38.5t-39 -15.5t-38.5 15.5z" />
    <glyph glyph-name="Hbar" unicode="&#x126;" horiz-adv-x="746" 
d="M634 593h94v-80h-94v-513h-92v314h-339v-314h-92v513h-93v80h93v107h92v-108h339v108h92v-107zM203 514v-113h339v113h-339z" />
    <glyph glyph-name="Hcircumflex" unicode="&#x124;" horiz-adv-x="690" 
d="M514 401v299h92v-700h-92v314h-339v-314h-92v700h92v-299h339zM384 892l110 -137h-83l-67 85l-67 -85h-81l110 137h78z" />
    <glyph glyph-name="Iacute" unicode="&#xcd;" horiz-adv-x="259" 
d="M175 0h-92v700h92v-700zM152 755h-70l74 137h97z" />
    <glyph glyph-name="Ibreve" unicode="&#x12c;" horiz-adv-x="259" 
d="M175 0h-92v700h92v-700zM28.5 797q-38.5 37 -42.5 91h68q4 -31 22.5 -49.5t52.5 -18.5t52.5 18.5t22.5 49.5h68q-4 -54 -42.5 -91t-100.5 -37t-100.5 37z" />
    <glyph glyph-name="Icircumflex" unicode="&#xce;" horiz-adv-x="259" 
d="M175 0h-92v700h92v-700zM169 892l110 -137h-83l-67 85l-67 -85h-81l110 137h78z" />
    <glyph glyph-name="Idieresis" unicode="&#xcf;" horiz-adv-x="259" 
d="M175 0h-92v700h92v-700zM19 787q-15 15 -15 36q0 22 15 37t36 15q22 0 37 -15t15 -37t-15 -36.5t-37 -14.5q-21 0 -36 15zM167 787q-15 15 -15 36q0 22 15 37t36 15q22 0 37 -15t15 -37t-15 -36.5t-37 -14.5q-21 0 -36 15z" />
    <glyph glyph-name="Idotaccent" unicode="&#x130;" horiz-adv-x="259" 
d="M175 0h-92v700h92v-700zM90.5 784.5q-15.5 15.5 -15.5 38.5q0 24 15.5 39.5t38.5 15.5t39 -15.5t16 -39.5q0 -23 -16 -38.5t-39 -15.5t-38.5 15.5z" />
    <glyph glyph-name="Igrave" unicode="&#xcc;" horiz-adv-x="259" 
d="M175 0h-92v700h92v-700zM177 755h-70l-102 137h97z" />
    <glyph glyph-name="Imacron" unicode="&#x12a;" horiz-adv-x="259" 
d="M175 0h-92v700h92v-700zM265 789h-271v69h271v-69z" />
    <glyph glyph-name="Iogonek" unicode="&#x12e;" horiz-adv-x="259" 
d="M175 0q-74 -47 -74 -105q0 -23 12.5 -36t33.5 -13q17 0 28 5v-53q-22 -6 -40 -6q-41 0 -68 25t-27 67q0 37 20 67.5t49 48.5h-26v700h92v-700z" />
    <glyph glyph-name="IJ" unicode="&#x132;" horiz-adv-x="790" 
d="M175 0h-92v700h92v-700zM378 17q-50 28 -77.5 75.5t-27.5 104.5h91q1 -31 17 -59t45.5 -45t66.5 -17q58 0 92.5 36t34.5 94v494h92v-494q0 -63 -27 -112.5t-77 -77t-115 -27.5t-115 28z" />
    <glyph glyph-name="Iacute_J.loclNLD" horiz-adv-x="790" 
d="M175 0h-92v700h92v-700zM152 755h-70l74 137h97zM378 17q-50 28 -77.5 75.5t-27.5 104.5h91q1 -31 17 -59t45.5 -45t66.5 -17q58 0 92.5 36t34.5 94v494h92v-494q0 -63 -27 -112.5t-77 -77t-115 -27.5t-115 28zM688 755h-70l74 137h97z" />
    <glyph glyph-name="Jcircumflex" unicode="&#x134;" horiz-adv-x="531" 
d="M119 17q-50 28 -77.5 75.5t-27.5 104.5h91q1 -31 17 -59t45.5 -45t66.5 -17q58 0 92.5 36t34.5 94v494h92v-494q0 -63 -27 -112.5t-77 -77t-115 -27.5t-115 28zM446 892l110 -137h-83l-67 85l-67 -85h-81l110 137h78z" />
    <glyph glyph-name="uni0136" unicode="&#x136;" horiz-adv-x="568" 
d="M276 359l301 -359h-117l-285 344v-344h-92v700h92v-334l275 334h110zM354.5 -93q16.5 -18 16.5 -49q0 -46 -25 -82.5t-54 -59.5l-17 22q12 12 23 31.5t14 44.5q-22 1 -38.5 16.5t-16.5 38.5q0 24 16.5 40t38.5 16q26 0 42.5 -18z" />
    <glyph glyph-name="Lacute" unicode="&#x139;" horiz-adv-x="524" 
d="M514 0h-431v700h92v-613h339v-87zM152 755h-70l74 137h97z" />
    <glyph glyph-name="Lcaron" unicode="&#x13d;" horiz-adv-x="524" 
d="M514 0h-431v700h92v-613h339v-87zM271 555h-54l32 145h86z" />
    <glyph glyph-name="uni013B" unicode="&#x13b;" horiz-adv-x="524" 
d="M514 0h-431v700h92v-613h339v-87zM338.5 -93q16.5 -18 16.5 -49q0 -46 -25 -82.5t-54 -59.5l-17 22q12 12 23 31.5t14 44.5q-22 1 -38.5 16.5t-16.5 38.5q0 24 16.5 40t38.5 16q26 0 42.5 -18z" />
    <glyph glyph-name="Ldot" unicode="&#x13f;" horiz-adv-x="524" 
d="M514 0h-431v700h92v-613h339v-87zM348.5 333.5q-17.5 17.5 -17.5 43.5q0 25 17.5 42.5t42.5 17.5t43 -17.5t18 -42.5t-17.5 -43t-43.5 -18q-25 0 -42.5 17.5z" />
    <glyph glyph-name="Lslash" unicode="&#x141;" horiz-adv-x="552" 
d="M203 314v-227h339v-87h-431v257l-93 -57v92l93 57v351h92v-294l163 100v-91z" />
    <glyph glyph-name="Nacute" unicode="&#x143;" horiz-adv-x="699" 
d="M525 163v537h91v-700h-86l-356 537v-537h-91v700h86zM378 755h-70l74 137h97z" />
    <glyph glyph-name="Ncaron" unicode="&#x147;" horiz-adv-x="699" 
d="M525 163v537h91v-700h-86l-356 537v-537h-91v700h86zM355 807l66 85h83l-110 -137h-78l-110 137h82z" />
    <glyph glyph-name="uni0145" unicode="&#x145;" horiz-adv-x="699" 
d="M525 163v537h91v-700h-86l-356 537v-537h-91v700h86zM394.5 -93q16.5 -18 16.5 -49q0 -46 -25 -82.5t-54 -59.5l-17 22q12 12 23 31.5t14 44.5q-22 1 -38.5 16.5t-16.5 38.5q0 24 16.5 40t38.5 16q26 0 42.5 -18z" />
    <glyph glyph-name="Eng" unicode="&#x14a;" horiz-adv-x="699" 
d="M525 700h91v-723q0 -85 -44 -131.5t-121 -46.5q-36 0 -59 9v82q22 -7 43 -7q45 0 67.5 23t22.5 72v30l-351 529v-537h-91v700h86l356 -537v537z" />
    <glyph glyph-name="Ntilde" unicode="&#xd1;" horiz-adv-x="699" 
d="M525 163v537h91v-700h-86l-356 537v-537h-91v700h86zM376.5 770.5q-16.5 9.5 -35.5 27.5q-13 12 -22 18t-20 6q-16 0 -27 -15t-11 -40h-61q0 58 26.5 88.5t66.5 30.5q25 0 42 -10t35 -27q14 -12 22.5 -17.5t18.5 -5.5q17 0 28 14.5t11 39.5h60q0 -57 -26.5 -88t-65.5 -31
q-25 0 -41.5 9.5z" />
    <glyph glyph-name="Oacute" unicode="&#xd3;" horiz-adv-x="742" 
d="M207 36.5q-76 47.5 -121 130t-45 183.5t45 183.5t121 130t164 47.5t164 -47.5t121 -130t45 -183.5t-45 -183.5t-121 -130t-164 -47.5t-164 47.5zM489 111q55 35 87.5 97.5t32.5 141.5t-32.5 141.5t-87.5 97.5t-118 35t-117.5 -35t-87.5 -97.5t-33 -141.5t33 -141.5
t87.5 -97.5t117.5 -35t118 35zM393 755h-70l74 137h97z" />
    <glyph glyph-name="Obreve" unicode="&#x14e;" horiz-adv-x="742" 
d="M207 36.5q-76 47.5 -121 130t-45 183.5t45 183.5t121 130t164 47.5t164 -47.5t121 -130t45 -183.5t-45 -183.5t-121 -130t-164 -47.5t-164 47.5zM489 111q55 35 87.5 97.5t32.5 141.5t-32.5 141.5t-87.5 97.5t-118 35t-117.5 -35t-87.5 -97.5t-33 -141.5t33 -141.5
t87.5 -97.5t117.5 -35t118 35zM270.5 797q-38.5 37 -42.5 91h68q4 -31 22.5 -49.5t52.5 -18.5t52.5 18.5t22.5 49.5h68q-4 -54 -42.5 -91t-100.5 -37t-100.5 37z" />
    <glyph glyph-name="Ocircumflex" unicode="&#xd4;" horiz-adv-x="742" 
d="M207 36.5q-76 47.5 -121 130t-45 183.5t45 183.5t121 130t164 47.5t164 -47.5t121 -130t45 -183.5t-45 -183.5t-121 -130t-164 -47.5t-164 47.5zM489 111q55 35 87.5 97.5t32.5 141.5t-32.5 141.5t-87.5 97.5t-118 35t-117.5 -35t-87.5 -97.5t-33 -141.5t33 -141.5
t87.5 -97.5t117.5 -35t118 35zM410 892l110 -137h-83l-67 85l-67 -85h-81l110 137h78z" />
    <glyph glyph-name="Odieresis" unicode="&#xd6;" horiz-adv-x="742" 
d="M207 36.5q-76 47.5 -121 130t-45 183.5t45 183.5t121 130t164 47.5t164 -47.5t121 -130t45 -183.5t-45 -183.5t-121 -130t-164 -47.5t-164 47.5zM489 111q55 35 87.5 97.5t32.5 141.5t-32.5 141.5t-87.5 97.5t-118 35t-117.5 -35t-87.5 -97.5t-33 -141.5t33 -141.5
t87.5 -97.5t117.5 -35t118 35zM244 787q-15 15 -15 36q0 22 15 37t36 15q22 0 37 -15t15 -37t-15 -36.5t-37 -14.5q-21 0 -36 15zM424.5 787q-15.5 15 -15.5 36q0 22 15.5 37t36.5 15q20 0 35.5 -15t15.5 -37q0 -21 -15 -36t-36 -15t-36.5 15z" />
    <glyph glyph-name="Ograve" unicode="&#xd2;" horiz-adv-x="742" 
d="M207 36.5q-76 47.5 -121 130t-45 183.5t45 183.5t121 130t164 47.5t164 -47.5t121 -130t45 -183.5t-45 -183.5t-121 -130t-164 -47.5t-164 47.5zM489 111q55 35 87.5 97.5t32.5 141.5t-32.5 141.5t-87.5 97.5t-118 35t-117.5 -35t-87.5 -97.5t-33 -141.5t33 -141.5
t87.5 -97.5t117.5 -35t118 35zM418 755h-70l-102 137h97z" />
    <glyph glyph-name="Ohungarumlaut" unicode="&#x150;" horiz-adv-x="742" 
d="M207 36.5q-76 47.5 -121 130t-45 183.5t45 183.5t121 130t164 47.5t164 -47.5t121 -130t45 -183.5t-45 -183.5t-121 -130t-164 -47.5t-164 47.5zM489 111q55 35 87.5 97.5t32.5 141.5t-32.5 141.5t-87.5 97.5t-118 35t-117.5 -35t-87.5 -97.5t-33 -141.5t33 -141.5
t87.5 -97.5t117.5 -35t118 35zM332 755h-66l83 137h93zM476 755h-66l83 137h94z" />
    <glyph glyph-name="Omacron" unicode="&#x14c;" horiz-adv-x="742" 
d="M207 36.5q-76 47.5 -121 130t-45 183.5t45 183.5t121 130t164 47.5t164 -47.5t121 -130t45 -183.5t-45 -183.5t-121 -130t-164 -47.5t-164 47.5zM489 111q55 35 87.5 97.5t32.5 141.5t-32.5 141.5t-87.5 97.5t-118 35t-117.5 -35t-87.5 -97.5t-33 -141.5t33 -141.5
t87.5 -97.5t117.5 -35t118 35zM506 789h-271v69h271v-69z" />
    <glyph glyph-name="Oslash" unicode="&#xd8;" horiz-adv-x="742" 
d="M702 651l-72 -77q34 -47 52.5 -104t18.5 -120q0 -101 -45 -183.5t-121 -130t-164 -47.5q-57 0 -110 20.5t-96 58.5l-69 -74l-55 55l71 77q-34 46 -52.5 103.5t-18.5 120.5q0 101 45 183.5t121 130t164 47.5q57 0 110 -20.5t97 -58.5l69 74zM252 590q-55 -35 -88 -98
t-33 -142q0 -90 43 -160l346 377q-32 28 -70 43t-79 15q-64 0 -119 -35zM490 110q55 35 88 98t33 142q0 91 -43 159l-346 -376q32 -28 70 -43t79 -15q64 0 119 35z" />
    <glyph glyph-name="Oslashacute" unicode="&#x1fe;" horiz-adv-x="742" 
d="M702 651l-72 -77q34 -47 52.5 -104t18.5 -120q0 -101 -45 -183.5t-121 -130t-164 -47.5q-57 0 -110 20.5t-96 58.5l-69 -74l-55 55l71 77q-34 46 -52.5 103.5t-18.5 120.5q0 101 45 183.5t121 130t164 47.5q57 0 110 -20.5t97 -58.5l69 74zM252 590q-55 -35 -88 -98
t-33 -142q0 -90 43 -160l346 377q-32 28 -70 43t-79 15q-64 0 -119 -35zM490 110q55 35 88 98t33 142q0 91 -43 159l-346 -376q32 -28 70 -43t79 -15q64 0 119 35zM393 755h-70l74 137h97z" />
    <glyph glyph-name="Otilde" unicode="&#xd5;" horiz-adv-x="742" 
d="M207 36.5q-76 47.5 -121 130t-45 183.5t45 183.5t121 130t164 47.5t164 -47.5t121 -130t45 -183.5t-45 -183.5t-121 -130t-164 -47.5t-164 47.5zM489 111q55 35 87.5 97.5t32.5 141.5t-32.5 141.5t-87.5 97.5t-118 35t-117.5 -35t-87.5 -97.5t-33 -141.5t33 -141.5
t87.5 -97.5t117.5 -35t118 35zM391.5 770.5q-16.5 9.5 -35.5 27.5q-13 12 -22 18t-20 6q-16 0 -27 -15t-11 -40h-61q0 58 26.5 88.5t66.5 30.5q25 0 42 -10t35 -27q14 -12 22.5 -17.5t18.5 -5.5q17 0 28 14.5t11 39.5h60q0 -57 -26.5 -88t-65.5 -31q-25 0 -41.5 9.5z" />
    <glyph glyph-name="OE" unicode="&#x152;" horiz-adv-x="927" 
d="M550 86h335v-86h-500q-95 0 -173.5 45.5t-124.5 125.5t-46 179t46 179t124.5 125.5t173.5 45.5h490v-86h-325v-212h287v-85h-287v-231zM460 86v528h-75q-68 0 -126 -34.5t-92 -95t-34 -134.5t34 -134.5t92 -95t126 -34.5h75z" />
    <glyph glyph-name="Thorn" unicode="&#xde;" horiz-adv-x="633" 
d="M368 583q64 0 117 -29.5t83.5 -79.5t30.5 -109q0 -60 -30.5 -110t-83.5 -79t-117 -29h-193v-147h-92v700h92v-117h193zM368 234q60 0 99.5 37.5t39.5 93.5t-39.5 93.5t-99.5 37.5h-193v-262h193z" />
    <glyph glyph-name="Racute" unicode="&#x154;" horiz-adv-x="616" 
d="M470 0l-158 282h-137v-282h-92v700h256q63 0 114.5 -28t80.5 -76t29 -107q0 -70 -43 -123t-114 -73l171 -293h-107zM175 614v-247h163q58 0 95.5 34.5t37.5 86.5q0 55 -37.5 90.5t-95.5 35.5h-163zM335 755h-70l74 137h97z" />
    <glyph glyph-name="Rcaron" unicode="&#x158;" horiz-adv-x="616" 
d="M470 0l-158 282h-137v-282h-92v700h256q63 0 114.5 -28t80.5 -76t29 -107q0 -70 -43 -123t-114 -73l171 -293h-107zM175 614v-247h163q58 0 95.5 34.5t37.5 86.5q0 55 -37.5 90.5t-95.5 35.5h-163zM313 807l66 85h83l-110 -137h-78l-110 137h82z" />
    <glyph glyph-name="uni0156" unicode="&#x156;" horiz-adv-x="616" 
d="M470 0l-158 282h-137v-282h-92v700h256q63 0 114.5 -28t80.5 -76t29 -107q0 -70 -43 -123t-114 -73l171 -293h-107zM175 614v-247h163q58 0 95.5 34.5t37.5 86.5q0 55 -37.5 90.5t-95.5 35.5h-163zM359.5 -93q16.5 -18 16.5 -49q0 -46 -25 -82.5t-54 -59.5l-17 22
q12 12 23 31.5t14 44.5q-22 1 -38.5 16.5t-16.5 38.5q0 24 16.5 40t38.5 16q26 0 42.5 -18z" />
    <glyph glyph-name="Sacute" unicode="&#x15a;" horiz-adv-x="564" 
d="M158.5 17q-54.5 28 -84.5 78t-34 114h92q5 -63 45 -99.5t109 -36.5q68 0 104.5 30.5t36.5 78.5q0 37 -21.5 61.5t-53 39.5t-87.5 34q-67 22 -108.5 42.5t-70.5 59.5t-29 101q0 55 26.5 98.5t76.5 68t118 24.5t119 -28t79.5 -77t31.5 -110h-92q-3 59 -40.5 95t-97.5 36
q-61 0 -95 -30t-34 -77q0 -36 20.5 -59t52 -37t84.5 -31q69 -23 111 -43.5t72 -60.5t30 -105q0 -87 -61.5 -141t-172.5 -54q-72 0 -126.5 28zM304 755h-70l74 137h97z" />
    <glyph glyph-name="Scaron" unicode="&#x160;" horiz-adv-x="564" 
d="M158.5 17q-54.5 28 -84.5 78t-34 114h92q5 -63 45 -99.5t109 -36.5q68 0 104.5 30.5t36.5 78.5q0 37 -21.5 61.5t-53 39.5t-87.5 34q-67 22 -108.5 42.5t-70.5 59.5t-29 101q0 55 26.5 98.5t76.5 68t118 24.5t119 -28t79.5 -77t31.5 -110h-92q-3 59 -40.5 95t-97.5 36
q-61 0 -95 -30t-34 -77q0 -36 20.5 -59t52 -37t84.5 -31q69 -23 111 -43.5t72 -60.5t30 -105q0 -87 -61.5 -141t-172.5 -54q-72 0 -126.5 28zM281 807l66 85h83l-110 -137h-78l-110 137h82z" />
    <glyph glyph-name="Scedilla" unicode="&#x15e;" horiz-adv-x="564" 
d="M461.5 46.5q-57.5 -53.5 -162.5 -57.5l-14 -30q43 -3 67.5 -25.5t24.5 -55.5q0 -40 -28.5 -63t-87.5 -23q-32 0 -60 10v49q23 -7 49 -7q67 0 67 36q0 16 -15 25.5t-47 9.5q-21 0 -38 -5l33 81q-94 10 -149.5 69t-60.5 149h92q5 -63 45 -99.5t109 -36.5q68 0 104.5 30.5
t36.5 78.5q0 37 -21.5 61.5t-53 39.5t-87.5 34q-67 22 -108.5 42.5t-70.5 59.5t-29 101q0 55 26.5 98.5t76.5 68t118 24.5t119 -28t79.5 -77t31.5 -110h-92q-3 59 -40.5 95t-97.5 36q-61 0 -95 -30t-34 -77q0 -36 20.5 -59t52 -37t84.5 -31q69 -23 111 -43.5t72 -60.5
t30 -105q0 -84 -57.5 -137.5z" />
    <glyph glyph-name="Scircumflex" unicode="&#x15c;" horiz-adv-x="564" 
d="M158.5 17q-54.5 28 -84.5 78t-34 114h92q5 -63 45 -99.5t109 -36.5q68 0 104.5 30.5t36.5 78.5q0 37 -21.5 61.5t-53 39.5t-87.5 34q-67 22 -108.5 42.5t-70.5 59.5t-29 101q0 55 26.5 98.5t76.5 68t118 24.5t119 -28t79.5 -77t31.5 -110h-92q-3 59 -40.5 95t-97.5 36
q-61 0 -95 -30t-34 -77q0 -36 20.5 -59t52 -37t84.5 -31q69 -23 111 -43.5t72 -60.5t30 -105q0 -87 -61.5 -141t-172.5 -54q-72 0 -126.5 28zM320 892l110 -137h-83l-67 85l-67 -85h-81l110 137h78z" />
    <glyph glyph-name="uni0218" unicode="&#x218;" horiz-adv-x="564" 
d="M158.5 17q-54.5 28 -84.5 78t-34 114h92q5 -63 45 -99.5t109 -36.5q68 0 104.5 30.5t36.5 78.5q0 37 -21.5 61.5t-53 39.5t-87.5 34q-67 22 -108.5 42.5t-70.5 59.5t-29 101q0 55 26.5 98.5t76.5 68t118 24.5t119 -28t79.5 -77t31.5 -110h-92q-3 59 -40.5 95t-97.5 36
q-61 0 -95 -30t-34 -77q0 -36 20.5 -59t52 -37t84.5 -31q69 -23 111 -43.5t72 -60.5t30 -105q0 -87 -61.5 -141t-172.5 -54q-72 0 -126.5 28zM327.5 -93q16.5 -18 16.5 -49q0 -46 -25 -82.5t-54 -59.5l-17 22q12 12 23 31.5t14 44.5q-22 1 -38.5 16.5t-16.5 38.5
q0 24 16.5 40t38.5 16q26 0 42.5 -18z" />
    <glyph glyph-name="uni1E9E" unicode="&#x1e9e;" horiz-adv-x="661" 
d="M420 400q54 0 100 -25.5t73.5 -71t27.5 -101.5q0 -57 -27 -103.5t-75 -72.5t-109 -26h-112v87h111q53 0 86.5 32.5t33.5 84.5q0 51 -34.5 84.5t-85.5 33.5h-103v79l159 214h-177q-49 0 -83.5 -35t-34.5 -88v-492h-92v492q0 60 27 107.5t75 74t108 26.5h283v-74l-170 -226
h19z" />
    <glyph glyph-name="Tbar" unicode="&#x166;" horiz-adv-x="548" 
d="M532 700v-87h-212v-238h114v-80h-114v-295h-92v295h-113v80h113v238h-212v87h516z" />
    <glyph glyph-name="Tcaron" unicode="&#x164;" horiz-adv-x="548" 
d="M320 0h-92v613h-212v87h516v-87h-212v-613zM274 807l66 85h83l-110 -137h-78l-110 137h82z" />
    <glyph glyph-name="uni0162" unicode="&#x162;" horiz-adv-x="548" 
d="M320 0h-29l-19 -41q43 -3 67.5 -25.5t24.5 -55.5q0 -40 -28.5 -63t-87.5 -23q-32 0 -60 10v49q23 -7 49 -7q67 0 67 36q0 16 -15 25.5t-47 9.5q-21 0 -38 -5l37 90h-13v613h-212v87h516v-87h-212v-613z" />
    <glyph glyph-name="uni021A" unicode="&#x21a;" horiz-adv-x="548" 
d="M320 0h-92v613h-212v87h516v-87h-212v-613zM315.5 -93q16.5 -18 16.5 -49q0 -46 -25 -82.5t-54 -59.5l-17 22q12 12 23 31.5t14 44.5q-22 1 -38.5 16.5t-16.5 38.5q0 24 16.5 40t38.5 16q26 0 42.5 -18z" />
    <glyph glyph-name="Uacute" unicode="&#xda;" horiz-adv-x="676" 
d="M202 23.5q-59 34.5 -91.5 95t-32.5 137.5v444h92v-444q0 -82 46 -131t122 -49t122 49t46 131v444h92v-444q0 -77 -32.5 -137.5t-91.5 -95t-136 -34.5t-136 34.5zM361 755h-70l74 137h97z" />
    <glyph glyph-name="uni0244" unicode="&#x244;" horiz-adv-x="732" 
d="M719 457v-80h-93v-121q0 -77 -32.5 -137.5t-91.5 -95t-136 -34.5t-136 34.5t-91.5 95t-32.5 137.5v121h-93v80h93v243h92v-243h336v243h92v-243h93zM534 377h-336v-121q0 -82 46 -131t122 -49t122 49t46 131v121z" />
    <glyph glyph-name="Ubreve" unicode="&#x16c;" horiz-adv-x="676" 
d="M202 23.5q-59 34.5 -91.5 95t-32.5 137.5v444h92v-444q0 -82 46 -131t122 -49t122 49t46 131v444h92v-444q0 -77 -32.5 -137.5t-91.5 -95t-136 -34.5t-136 34.5zM237.5 797q-38.5 37 -42.5 91h68q4 -31 22.5 -49.5t52.5 -18.5t52.5 18.5t22.5 49.5h68q-4 -54 -42.5 -91
t-100.5 -37t-100.5 37z" />
    <glyph glyph-name="Ucircumflex" unicode="&#xdb;" horiz-adv-x="676" 
d="M202 23.5q-59 34.5 -91.5 95t-32.5 137.5v444h92v-444q0 -82 46 -131t122 -49t122 49t46 131v444h92v-444q0 -77 -32.5 -137.5t-91.5 -95t-136 -34.5t-136 34.5zM377 892l110 -137h-83l-67 85l-67 -85h-81l110 137h78z" />
    <glyph glyph-name="Udieresis" unicode="&#xdc;" horiz-adv-x="676" 
d="M202 23.5q-59 34.5 -91.5 95t-32.5 137.5v444h92v-444q0 -82 46 -131t122 -49t122 49t46 131v444h92v-444q0 -77 -32.5 -137.5t-91.5 -95t-136 -34.5t-136 34.5zM211 787q-15 15 -15 36q0 22 15 37t36 15q22 0 37 -15t15 -37t-15 -36.5t-37 -14.5q-21 0 -36 15z
M391.5 787q-15.5 15 -15.5 36q0 22 15.5 37t36.5 15q20 0 35.5 -15t15.5 -37q0 -21 -15 -36t-36 -15t-36.5 15z" />
    <glyph glyph-name="Ugrave" unicode="&#xd9;" horiz-adv-x="676" 
d="M202 23.5q-59 34.5 -91.5 95t-32.5 137.5v444h92v-444q0 -82 46 -131t122 -49t122 49t46 131v444h92v-444q0 -77 -32.5 -137.5t-91.5 -95t-136 -34.5t-136 34.5zM386 755h-70l-102 137h97z" />
    <glyph glyph-name="Uhungarumlaut" unicode="&#x170;" horiz-adv-x="676" 
d="M202 23.5q-59 34.5 -91.5 95t-32.5 137.5v444h92v-444q0 -82 46 -131t122 -49t122 49t46 131v444h92v-444q0 -77 -32.5 -137.5t-91.5 -95t-136 -34.5t-136 34.5zM299 755h-66l83 137h93zM443 755h-66l83 137h94z" />
    <glyph glyph-name="Umacron" unicode="&#x16a;" horiz-adv-x="676" 
d="M202 23.5q-59 34.5 -91.5 95t-32.5 137.5v444h92v-444q0 -82 46 -131t122 -49t122 49t46 131v444h92v-444q0 -77 -32.5 -137.5t-91.5 -95t-136 -34.5t-136 34.5zM473 789h-271v69h271v-69z" />
    <glyph glyph-name="Uogonek" unicode="&#x172;" horiz-adv-x="676" 
d="M506 700h92v-444q0 -72 -28 -128t-80 -95q-54 -40 -83.5 -73t-29.5 -65q0 -22 14.5 -35.5t38.5 -13.5q18 0 33 5v-52q-19 -7 -44 -7q-46 0 -74.5 25t-28.5 67q0 31 17 59t45 49q-19 -3 -40 -3q-77 0 -136 34.5t-91.5 95t-32.5 137.5v444h92v-444q0 -82 46 -131t122 -49
t122 49t46 131v444z" />
    <glyph glyph-name="Uring" unicode="&#x16e;" horiz-adv-x="676" 
d="M202 23.5q-59 34.5 -91.5 95t-32.5 137.5v444h92v-444q0 -82 46 -131t122 -49t122 49t46 131v444h92v-444q0 -77 -32.5 -137.5t-91.5 -95t-136 -34.5t-136 34.5zM266.5 783.5q-28.5 27.5 -28.5 67.5t28.5 68t70.5 28t70.5 -28t28.5 -68t-28.5 -67.5t-70.5 -27.5
t-70.5 27.5zM369 819q13 12 13 32t-13 32.5t-32 12.5t-32 -12.5t-13 -32.5t13 -32t32 -12t32 12z" />
    <glyph glyph-name="Wacute" unicode="&#x1e82;" horiz-adv-x="884" 
d="M628 174l154 526h92l-213 -700h-70l-149 513l-148 -513h-71l-213 700h95l154 -526l150 526h67zM466 755h-70l74 137h97z" />
    <glyph glyph-name="Wcircumflex" unicode="&#x174;" horiz-adv-x="884" 
d="M628 174l154 526h92l-213 -700h-70l-149 513l-148 -513h-71l-213 700h95l154 -526l150 526h67zM482 892l110 -137h-83l-67 85l-67 -85h-81l110 137h78z" />
    <glyph glyph-name="Wdieresis" unicode="&#x1e84;" horiz-adv-x="884" 
d="M628 174l154 526h92l-213 -700h-70l-149 513l-148 -513h-71l-213 700h95l154 -526l150 526h67zM316 787q-15 15 -15 36q0 22 15 37t36 15q22 0 37 -15t15 -37t-15 -36.5t-37 -14.5q-21 0 -36 15zM496.5 787q-15.5 15 -15.5 36q0 22 15.5 37t36.5 15q20 0 35.5 -15
t15.5 -37q0 -21 -15 -36t-36 -15t-36.5 15z" />
    <glyph glyph-name="Wgrave" unicode="&#x1e80;" horiz-adv-x="884" 
d="M628 174l154 526h92l-213 -700h-70l-149 513l-148 -513h-71l-213 700h95l154 -526l150 526h67zM491 755h-70l-102 137h97z" />
    <glyph glyph-name="Yacute" unicode="&#xdd;" horiz-adv-x="551" 
d="M277 364l176 336h98l-230 -430v-270h-92v270l-229 430h101zM300 755h-70l74 137h97z" />
    <glyph glyph-name="Ycircumflex" unicode="&#x176;" horiz-adv-x="551" 
d="M277 364l176 336h98l-230 -430v-270h-92v270l-229 430h101zM317 892l110 -137h-83l-67 85l-67 -85h-81l110 137h78z" />
    <glyph glyph-name="Ydieresis" unicode="&#x178;" horiz-adv-x="551" 
d="M277 364l176 336h98l-230 -430v-270h-92v270l-229 430h101zM151 787q-15 15 -15 36q0 22 15 37t36 15q22 0 37 -15t15 -37t-15 -36.5t-37 -14.5q-21 0 -36 15zM331.5 787q-15.5 15 -15.5 36q0 22 15.5 37t36.5 15q20 0 35.5 -15t15.5 -37q0 -21 -15 -36t-36 -15t-36.5 15
z" />
    <glyph glyph-name="Ygrave" unicode="&#x1ef2;" horiz-adv-x="551" 
d="M277 364l176 336h98l-230 -430v-270h-92v270l-229 430h101zM325 755h-70l-102 137h97z" />
    <glyph glyph-name="uni0232" unicode="&#x232;" horiz-adv-x="551" 
d="M277 364l176 336h98l-230 -430v-270h-92v270l-229 430h101zM413 789h-271v69h271v-69z" />
    <glyph glyph-name="Zacute" unicode="&#x179;" horiz-adv-x="554" 
d="M504 636l-352 -550h365v-86h-480v64l351 550h-340v86h456v-64zM299 755h-70l74 137h97z" />
    <glyph glyph-name="Zcaron" unicode="&#x17d;" horiz-adv-x="554" 
d="M504 636l-352 -550h365v-86h-480v64l351 550h-340v86h456v-64zM276 807l66 85h83l-110 -137h-78l-110 137h82z" />
    <glyph glyph-name="Zdotaccent" unicode="&#x17b;" horiz-adv-x="554" 
d="M504 636l-352 -550h365v-86h-480v64l351 550h-340v86h456v-64zM237.5 784.5q-15.5 15.5 -15.5 38.5q0 24 15.5 39.5t38.5 15.5t39 -15.5t16 -39.5q0 -23 -16 -38.5t-39 -15.5t-38.5 15.5z" />
    <glyph glyph-name="aacute" unicode="&#xe1;" horiz-adv-x="506" 
d="M350 489.5q44 -24.5 68.5 -69t24.5 -101.5v-319h-65l-18 63h-5q-20 -28 -58 -51t-93 -23q-50 0 -88 20t-59 54.5t-21 76.5q0 47 28.5 83.5t80 56.5t117.5 20h94v23q0 51 -29.5 81.5t-77.5 30.5q-45 0 -71 -23t-33 -59h-87q5 43 29.5 80t66.5 59t95 22q57 0 101 -24.5z
M318 101.5q38 36.5 38 91.5v38h-88q-70 0 -108 -23t-38 -64q0 -36 25 -57.5t71 -21.5q62 0 100 36.5zM274 563h-67l69 142h94z" />
    <glyph glyph-name="abreve" unicode="&#x103;" horiz-adv-x="506" 
d="M350 489.5q44 -24.5 68.5 -69t24.5 -101.5v-319h-65l-18 63h-5q-20 -28 -58 -51t-93 -23q-50 0 -88 20t-59 54.5t-21 76.5q0 47 28.5 83.5t80 56.5t117.5 20h94v23q0 51 -29.5 81.5t-77.5 30.5q-45 0 -71 -23t-33 -59h-87q5 43 29.5 80t66.5 59t95 22q57 0 101 -24.5z
M318 101.5q38 36.5 38 91.5v38h-88q-70 0 -108 -23t-38 -64q0 -36 25 -57.5t71 -21.5q62 0 100 36.5zM153 606.5q-38 37.5 -42 92.5h67q3 -32 21.5 -51t52.5 -19q33 0 51.5 19t22.5 51h66q-3 -55 -41.5 -92.5t-98.5 -37.5q-61 0 -99 37.5z" />
    <glyph glyph-name="acircumflex" unicode="&#xe2;" horiz-adv-x="506" 
d="M350 489.5q44 -24.5 68.5 -69t24.5 -101.5v-319h-65l-18 63h-5q-20 -28 -58 -51t-93 -23q-50 0 -88 20t-59 54.5t-21 76.5q0 47 28.5 83.5t80 56.5t117.5 20h94v23q0 51 -29.5 81.5t-77.5 30.5q-45 0 -71 -23t-33 -59h-87q5 43 29.5 80t66.5 59t95 22q57 0 101 -24.5z
M318 101.5q38 36.5 38 91.5v38h-88q-70 0 -108 -23t-38 -64q0 -36 25 -57.5t71 -21.5q62 0 100 36.5zM290 705l105 -142h-81l-63 91l-63 -91h-80l106 142h76z" />
    <glyph glyph-name="adieresis" unicode="&#xe4;" horiz-adv-x="506" 
d="M350 489.5q44 -24.5 68.5 -69t24.5 -101.5v-319h-65l-18 63h-5q-20 -28 -58 -51t-93 -23q-50 0 -88 20t-59 54.5t-21 76.5q0 47 28.5 83.5t80 56.5t117.5 20h94v23q0 51 -29.5 81.5t-77.5 30.5q-45 0 -71 -23t-33 -59h-87q5 43 29.5 80t66.5 59t95 22q57 0 101 -24.5z
M318 101.5q38 36.5 38 91.5v38h-88q-70 0 -108 -23t-38 -64q0 -36 25 -57.5t71 -21.5q62 0 100 36.5zM132 597q-15 15 -15 36t15 36t36 15t36 -14.5t15 -36.5t-15 -36.5t-36 -14.5t-36 15zM300 596.5q-15 14.5 -15 36.5t15 36.5t36 14.5t36 -15t15 -36t-15 -36t-36 -15
t-36 14.5z" />
    <glyph glyph-name="agrave" unicode="&#xe0;" horiz-adv-x="506" 
d="M350 489.5q44 -24.5 68.5 -69t24.5 -101.5v-319h-65l-18 63h-5q-20 -28 -58 -51t-93 -23q-50 0 -88 20t-59 54.5t-21 76.5q0 47 28.5 83.5t80 56.5t117.5 20h94v23q0 51 -29.5 81.5t-77.5 30.5q-45 0 -71 -23t-33 -59h-87q5 43 29.5 80t66.5 59t95 22q57 0 101 -24.5z
M318 101.5q38 36.5 38 91.5v38h-88q-70 0 -108 -23t-38 -64q0 -36 25 -57.5t71 -21.5q62 0 100 36.5zM296 563h-66l-97 142h94z" />
    <glyph glyph-name="amacron" unicode="&#x101;" horiz-adv-x="506" 
d="M350 489.5q44 -24.5 68.5 -69t24.5 -101.5v-319h-65l-18 63h-5q-20 -28 -58 -51t-93 -23q-50 0 -88 20t-59 54.5t-21 76.5q0 47 28.5 83.5t80 56.5t117.5 20h94v23q0 51 -29.5 81.5t-77.5 30.5q-45 0 -71 -23t-33 -59h-87q5 43 29.5 80t66.5 59t95 22q57 0 101 -24.5z
M318 101.5q38 36.5 38 91.5v38h-88q-70 0 -108 -23t-38 -64q0 -36 25 -57.5t71 -21.5q62 0 100 36.5zM384 601h-264v66h264v-66z" />
    <glyph glyph-name="aogonek" unicode="&#x105;" horiz-adv-x="506" 
d="M443 0q-86 -50 -86 -105q0 -22 14.5 -35.5t38.5 -13.5q18 0 33 5v-53q-22 -6 -45 -6q-46 0 -74 25t-28 67q0 37 22.5 68.5t58.5 51.5l-17 59h-5q-20 -28 -58 -51t-93 -23q-50 0 -88 20t-59 54.5t-21 76.5q0 47 28.5 83.5t80 56.5t117.5 20h94v23q0 51 -29.5 81.5
t-77.5 30.5q-45 0 -71 -23t-33 -59h-87q5 43 29.5 80t66.5 59t95 22q57 0 101 -24.5t68.5 -69t24.5 -101.5v-319zM318 101.5q38 36.5 38 91.5v38h-88q-70 0 -108 -23t-38 -64q0 -36 25 -57.5t71 -21.5q62 0 100 36.5z" />
    <glyph glyph-name="aring" unicode="&#xe5;" horiz-adv-x="506" 
d="M350 489.5q44 -24.5 68.5 -69t24.5 -101.5v-319h-65l-18 63h-5q-20 -28 -58 -51t-93 -23q-50 0 -88 20t-59 54.5t-21 76.5q0 47 28.5 83.5t80 56.5t117.5 20h94v23q0 51 -29.5 81.5t-77.5 30.5q-45 0 -71 -23t-33 -59h-87q5 43 29.5 80t66.5 59t95 22q57 0 101 -24.5z
M318 101.5q38 36.5 38 91.5v38h-88q-70 0 -108 -23t-38 -64q0 -36 25 -57.5t71 -21.5q62 0 100 36.5zM182 579q-28 27 -28 67t28 67.5t69 27.5q42 0 70 -27.5t28 -67.5t-28 -67t-70 -27q-41 0 -69 27zM284 613q13 13 13 33t-13 33t-33 13t-32.5 -13t-12.5 -33t12.5 -33
t32.5 -13t33 13z" />
    <glyph glyph-name="aringacute" unicode="&#x1fb;" horiz-adv-x="506" 
d="M350 489.5q44 -24.5 68.5 -69t24.5 -101.5v-319h-65l-18 63h-5q-20 -28 -58 -51t-93 -23q-50 0 -88 20t-59 54.5t-21 76.5q0 47 28.5 83.5t80 56.5t117.5 20h94v23q0 51 -29.5 81.5t-77.5 30.5q-45 0 -71 -23t-33 -59h-87q5 43 29.5 80t66.5 59t95 22q57 0 101 -24.5z
M318 101.5q38 36.5 38 91.5v38h-88q-70 0 -108 -23t-38 -64q0 -36 25 -57.5t71 -21.5q62 0 100 36.5zM284 755h-64l63 129h91zM183 579.5q-28 27.5 -28 66.5q0 40 28 67t69 27t69 -27t28 -67q0 -39 -28 -66.5t-69 -27.5t-69 27.5zM285 613.5q13 12.5 13 32.5t-13 33t-33 13
t-33 -13t-13 -33t13 -32.5t33 -12.5t33 12.5z" />
    <glyph glyph-name="atilde" unicode="&#xe3;" horiz-adv-x="506" 
d="M350 489.5q44 -24.5 68.5 -69t24.5 -101.5v-319h-65l-18 63h-5q-20 -28 -58 -51t-93 -23q-50 0 -88 20t-59 54.5t-21 76.5q0 47 28.5 83.5t80 56.5t117.5 20h94v23q0 51 -29.5 81.5t-77.5 30.5q-45 0 -71 -23t-33 -59h-87q5 43 29.5 80t66.5 59t95 22q57 0 101 -24.5z
M318 101.5q38 36.5 38 91.5v38h-88q-70 0 -108 -23t-38 -64q0 -36 25 -57.5t71 -21.5q62 0 100 36.5zM273 580.5q-16 10.5 -35 29.5q-13 13 -22 19.5t-18 6.5q-16 0 -27 -15.5t-11 -45.5h-60q0 62 26 93.5t65 31.5q23 0 39.5 -10.5t34.5 -29.5q14 -14 22.5 -20t18.5 -6
q15 0 26 16t11 44h60q0 -61 -25.5 -92.5t-64.5 -31.5q-24 0 -40 10.5z" />
    <glyph glyph-name="ae" unicode="&#xe6;" horiz-adv-x="833" 
d="M791 221h-353q7 -71 46 -112t96 -41q76 0 110 67h89q-23 -64 -74.5 -105t-122.5 -41q-62 0 -109.5 29.5t-72.5 76.5q-22 -48 -69.5 -77t-122.5 -29q-53 0 -92 20t-59.5 53t-20.5 73q0 71 61 113.5t167 42.5h94v34q0 50 -29.5 80t-77.5 30q-47 0 -73 -22.5t-33 -59.5h-87
q5 43 30 80t67 59t97 22q57 0 98 -28t59 -67q24 41 68 68t104 27q62 0 111 -31t76.5 -87.5t27.5 -129.5q0 -32 -5 -45zM487 395.5q-39 -39.5 -48 -105.5h273q-5 62 -40 103.5t-93 41.5q-53 0 -92 -39.5zM320 102q38 37 38 94v26h-89q-147 0 -147 -84q0 -32 25 -52.5
t71 -20.5q64 0 102 37z" />
    <glyph glyph-name="aeacute" unicode="&#x1fd;" horiz-adv-x="833" 
d="M791 221h-353q7 -71 46 -112t96 -41q76 0 110 67h89q-23 -64 -74.5 -105t-122.5 -41q-62 0 -109.5 29.5t-72.5 76.5q-22 -48 -69.5 -77t-122.5 -29q-53 0 -92 20t-59.5 53t-20.5 73q0 71 61 113.5t167 42.5h94v34q0 50 -29.5 80t-77.5 30q-47 0 -73 -22.5t-33 -59.5h-87
q5 43 30 80t67 59t97 22q57 0 98 -28t59 -67q24 41 68 68t104 27q62 0 111 -31t76.5 -87.5t27.5 -129.5q0 -32 -5 -45zM487 395.5q-39 -39.5 -48 -105.5h273q-5 62 -40 103.5t-93 41.5q-53 0 -92 -39.5zM320 102q38 37 38 94v26h-89q-147 0 -147 -84q0 -32 25 -52.5
t71 -20.5q64 0 102 37zM440 563h-67l69 142h94z" />
    <glyph glyph-name="cacute" unicode="&#x107;" horiz-adv-x="537" 
d="M158.5 23.5q-55.5 34.5 -88.5 95t-33 133.5t33 133t88.5 94.5t121.5 34.5q58 0 105.5 -27t78.5 -71t41 -95h-86q-14 49 -49.5 80.5t-89.5 31.5q-42 0 -78 -23t-57.5 -64t-21.5 -94t21.5 -94.5t57 -64.5t78.5 -23q54 0 89.5 31.5t49.5 80.5h86q-10 -51 -41 -95t-78.5 -71
t-105.5 -27q-66 0 -121.5 34.5zM301 563h-67l69 142h94z" />
    <glyph glyph-name="ccaron" unicode="&#x10d;" horiz-adv-x="537" 
d="M158.5 23.5q-55.5 34.5 -88.5 95t-33 133.5t33 133t88.5 94.5t121.5 34.5q58 0 105.5 -27t78.5 -71t41 -95h-86q-14 49 -49.5 80.5t-89.5 31.5q-42 0 -78 -23t-57.5 -64t-21.5 -94t21.5 -94.5t57 -64.5t78.5 -23q54 0 89.5 31.5t49.5 80.5h86q-10 -51 -41 -95t-78.5 -71
t-105.5 -27q-66 0 -121.5 34.5zM278 616l63 89h81l-105 -142h-76l-106 142h80z" />
    <glyph glyph-name="ccedilla" unicode="&#xe7;" horiz-adv-x="537" 
d="M369.5 101.5q35.5 31.5 49.5 80.5h86q-9 -48 -38 -91t-73.5 -70.5t-98.5 -31.5l-15 -30q43 -3 67.5 -25.5t24.5 -55.5q0 -40 -28.5 -63t-87.5 -23q-32 0 -60 10v49q23 -7 49 -7q67 0 67 36q0 16 -15 25.5t-47 9.5q-21 0 -38 -5l33 82q-58 8 -105.5 44t-75 92.5
t-27.5 123.5q0 73 33 133t88.5 94.5t121.5 34.5q58 0 105.5 -27t78.5 -71t41 -95h-86q-14 49 -49.5 80.5t-89.5 31.5q-42 0 -78 -23t-57.5 -64t-21.5 -94t21.5 -94.5t57 -64.5t78.5 -23q54 0 89.5 31.5z" />
    <glyph glyph-name="ccircumflex" unicode="&#x109;" horiz-adv-x="537" 
d="M158.5 23.5q-55.5 34.5 -88.5 95t-33 133.5t33 133t88.5 94.5t121.5 34.5q58 0 105.5 -27t78.5 -71t41 -95h-86q-14 49 -49.5 80.5t-89.5 31.5q-42 0 -78 -23t-57.5 -64t-21.5 -94t21.5 -94.5t57 -64.5t78.5 -23q54 0 89.5 31.5t49.5 80.5h86q-10 -51 -41 -95t-78.5 -71
t-105.5 -27q-66 0 -121.5 34.5zM318 705l105 -142h-81l-63 91l-63 -91h-80l106 142h76z" />
    <glyph glyph-name="cdotaccent" unicode="&#x10b;" horiz-adv-x="537" 
d="M158.5 23.5q-55.5 34.5 -88.5 95t-33 133.5t33 133t88.5 94.5t121.5 34.5q58 0 105.5 -27t78.5 -71t41 -95h-86q-14 49 -49.5 80.5t-89.5 31.5q-42 0 -78 -23t-57.5 -64t-21.5 -94t21.5 -94.5t57 -64.5t78.5 -23q54 0 89.5 31.5t49.5 80.5h86q-10 -51 -41 -95t-78.5 -71
t-105.5 -27q-66 0 -121.5 34.5zM240.5 594q-15.5 16 -15.5 39q0 24 15.5 39t38.5 15q24 0 39.5 -15t15.5 -39q0 -23 -16 -39t-39 -16t-38.5 16z" />
    <glyph glyph-name="eth" unicode="&#xf0;" horiz-adv-x="569" 
d="M376 624q70 -63 108 -152t38 -194q0 -90 -32 -155.5t-87 -99.5t-124 -34q-67 0 -122.5 32t-87.5 88t-32 126q0 69 32 126t85 89.5t115 32.5q57 0 95.5 -23t55.5 -47h5q-30 100 -110 168l-89 -63l-40 53l71 50q-49 29 -115 46l25 69q83 -20 155 -69l97 69l40 -53z
M356.5 89q35.5 21 56.5 59.5t21 87.5q0 48 -21 86.5t-57 60t-77 21.5q-42 0 -78 -21.5t-57 -59.5t-21 -87t21 -87.5t57 -59.5t78 -21t77.5 21z" />
    <glyph glyph-name="dcaron" unicode="&#x10f;" horiz-adv-x="585" 
d="M153 23q-53 34 -84.5 94t-31.5 135t31.5 135t84.5 93.5t116 33.5q52 0 94 -24.5t58 -47.5h5v258h86v-700h-64l-19 63h-5q-18 -24 -59.5 -49t-95.5 -25q-63 0 -116 34zM350 93q35 23 55.5 64.5t20.5 94.5t-20.5 94t-55.5 64t-76 23t-75.5 -23t-55 -64t-20.5 -94
t20.5 -94.5t55 -64.5t75.5 -23t76 23zM607 555h-54l32 145h86z" />
    <glyph glyph-name="dcroat" unicode="&#x111;" horiz-adv-x="599" 
d="M590 624v-71h-78v-553h-64l-19 63h-5q-19 -25 -58.5 -49.5t-96.5 -24.5q-65 0 -118 33t-83.5 90.5t-30.5 128.5t30.5 128.5t83.5 90.5t118 33q56 0 95.5 -24t56.5 -48h5v132h-172v71h172v76h86v-76h78zM351.5 92q34.5 22 54.5 61t20 88q0 50 -20 89.5t-54.5 61.5
t-77.5 22t-77.5 -22t-54 -61.5t-19.5 -89.5q0 -49 19.5 -88t54 -61t77.5 -22t77.5 22z" />
    <glyph glyph-name="eacute" unicode="&#xe9;" horiz-adv-x="548" 
d="M507 214h-382q10 -68 52 -107t104 -39q82 0 124 67h89q-24 -61 -82 -103.5t-132 -42.5q-67 0 -123 34t-88 94t-32 135q0 73 33 133t88.5 94.5t120.5 34.5t118 -33t83.5 -90t30.5 -127q0 -34 -4 -50zM177.5 393.5q-43.5 -41.5 -53.5 -108.5h303q-8 66 -48.5 108t-99.5 42
q-58 0 -101.5 -41.5zM300 563h-67l69 142h94z" />
    <glyph glyph-name="ebreve" unicode="&#x115;" horiz-adv-x="548" 
d="M507 214h-382q10 -68 52 -107t104 -39q82 0 124 67h89q-24 -61 -82 -103.5t-132 -42.5q-67 0 -123 34t-88 94t-32 135q0 73 33 133t88.5 94.5t120.5 34.5t118 -33t83.5 -90t30.5 -127q0 -34 -4 -50zM177.5 393.5q-43.5 -41.5 -53.5 -108.5h303q-8 66 -48.5 108t-99.5 42
q-58 0 -101.5 -41.5zM179 606.5q-38 37.5 -42 92.5h67q3 -32 21.5 -51t52.5 -19q33 0 51.5 19t22.5 51h66q-3 -55 -41.5 -92.5t-98.5 -37.5q-61 0 -99 37.5z" />
    <glyph glyph-name="ecaron" unicode="&#x11b;" horiz-adv-x="548" 
d="M507 214h-382q10 -68 52 -107t104 -39q82 0 124 67h89q-24 -61 -82 -103.5t-132 -42.5q-67 0 -123 34t-88 94t-32 135q0 73 33 133t88.5 94.5t120.5 34.5t118 -33t83.5 -90t30.5 -127q0 -34 -4 -50zM177.5 393.5q-43.5 -41.5 -53.5 -108.5h303q-8 66 -48.5 108t-99.5 42
q-58 0 -101.5 -41.5zM277 616l63 89h81l-105 -142h-76l-106 142h80z" />
    <glyph glyph-name="ecircumflex" unicode="&#xea;" horiz-adv-x="548" 
d="M507 214h-382q10 -68 52 -107t104 -39q82 0 124 67h89q-24 -61 -82 -103.5t-132 -42.5q-67 0 -123 34t-88 94t-32 135q0 73 33 133t88.5 94.5t120.5 34.5t118 -33t83.5 -90t30.5 -127q0 -34 -4 -50zM177.5 393.5q-43.5 -41.5 -53.5 -108.5h303q-8 66 -48.5 108t-99.5 42
q-58 0 -101.5 -41.5zM316 705l105 -142h-81l-63 91l-63 -91h-80l106 142h76z" />
    <glyph glyph-name="edieresis" unicode="&#xeb;" horiz-adv-x="548" 
d="M507 214h-382q10 -68 52 -107t104 -39q82 0 124 67h89q-24 -61 -82 -103.5t-132 -42.5q-67 0 -123 34t-88 94t-32 135q0 73 33 133t88.5 94.5t120.5 34.5t118 -33t83.5 -90t30.5 -127q0 -34 -4 -50zM177.5 393.5q-43.5 -41.5 -53.5 -108.5h303q-8 66 -48.5 108t-99.5 42
q-58 0 -101.5 -41.5zM157 597q-15 15 -15 36t15 36t36 15t36 -14.5t15 -36.5t-15 -36.5t-36 -14.5t-36 15zM325 596.5q-15 14.5 -15 36.5t15 36.5t36 14.5t36 -15t15 -36t-15 -36t-36 -15t-36 14.5z" />
    <glyph glyph-name="edotaccent" unicode="&#x117;" horiz-adv-x="548" 
d="M507 214h-382q10 -68 52 -107t104 -39q82 0 124 67h89q-24 -61 -82 -103.5t-132 -42.5q-67 0 -123 34t-88 94t-32 135q0 73 33 133t88.5 94.5t120.5 34.5t118 -33t83.5 -90t30.5 -127q0 -34 -4 -50zM177.5 393.5q-43.5 -41.5 -53.5 -108.5h303q-8 66 -48.5 108t-99.5 42
q-58 0 -101.5 -41.5zM238.5 594q-15.5 16 -15.5 39q0 24 15.5 39t38.5 15q24 0 39.5 -15t15.5 -39q0 -23 -16 -39t-39 -16t-38.5 16z" />
    <glyph glyph-name="egrave" unicode="&#xe8;" horiz-adv-x="548" 
d="M507 214h-382q10 -68 52 -107t104 -39q82 0 124 67h89q-24 -61 -82 -103.5t-132 -42.5q-67 0 -123 34t-88 94t-32 135q0 73 33 133t88.5 94.5t120.5 34.5t118 -33t83.5 -90t30.5 -127q0 -34 -4 -50zM177.5 393.5q-43.5 -41.5 -53.5 -108.5h303q-8 66 -48.5 108t-99.5 42
q-58 0 -101.5 -41.5zM321 563h-66l-97 142h94z" />
    <glyph glyph-name="emacron" unicode="&#x113;" horiz-adv-x="548" 
d="M507 214h-382q10 -68 52 -107t104 -39q82 0 124 67h89q-24 -61 -82 -103.5t-132 -42.5q-67 0 -123 34t-88 94t-32 135q0 73 33 133t88.5 94.5t120.5 34.5t118 -33t83.5 -90t30.5 -127q0 -34 -4 -50zM177.5 393.5q-43.5 -41.5 -53.5 -108.5h303q-8 66 -48.5 108t-99.5 42
q-58 0 -101.5 -41.5zM410 601h-264v66h264v-66z" />
    <glyph glyph-name="eogonek" unicode="&#x119;" horiz-adv-x="548" 
d="M507 214h-382q10 -68 52 -107t104 -39q82 0 124 67h89q-20 -50 -74 -101q-88 -80 -88 -139q0 -23 14 -36t39 -13q16 0 33 5v-52q-19 -7 -45 -7q-46 0 -74 25t-28 67q0 60 51 109q-19 -4 -42 -4q-67 0 -123 34t-88 94t-32 135q0 73 33 133t88.5 94.5t120.5 34.5t118 -33
t83.5 -90t30.5 -127q0 -34 -4 -50zM177.5 393.5q-43.5 -41.5 -53.5 -108.5h303q-8 66 -48.5 108t-99.5 42q-58 0 -101.5 -41.5z" />
    <glyph glyph-name="uni0259" unicode="&#x259;" horiz-adv-x="548" 
d="M391 480q56 -34 88 -93.5t32 -134.5q0 -73 -33 -133.5t-88.5 -95t-120.5 -34.5t-118 33t-83.5 90t-30.5 127q0 34 4 50h382q-10 68 -51.5 107t-103.5 39q-83 0 -125 -67h-88q23 61 81 103.5t132 42.5q67 0 123 -34zM370.5 109.5q43.5 41.5 53.5 108.5h-303
q8 -66 48.5 -108t99.5 -42q58 0 101.5 41.5z" />
    <glyph glyph-name="uni01F5" unicode="&#x1f5;" horiz-adv-x="569" 
d="M171 -168q-46 22 -74 57.5t-38 75.5h87q12 -35 46.5 -55.5t84.5 -20.5q63 0 100.5 36t37.5 98v67h-5q-15 -23 -55 -47.5t-91 -24.5q-61 0 -113.5 32.5t-83 89t-30.5 125.5q0 70 30.5 127t82.5 89.5t113 32.5q53 0 94 -25t56 -49h5l19 63h64v-480q0 -97 -60.5 -155
t-162.5 -58q-61 0 -107 22zM341.5 119q33.5 22 53.5 60.5t20 85.5q0 48 -20 87t-53.5 61t-72.5 22t-72.5 -22t-53.5 -61t-20 -87q0 -47 20 -85.5t53.5 -60.5t72.5 -22t72.5 22zM306 563h-67l69 142h94z" />
    <glyph glyph-name="gbreve" unicode="&#x11f;" horiz-adv-x="569" 
d="M171 -168q-46 22 -74 57.5t-38 75.5h87q12 -35 46.5 -55.5t84.5 -20.5q63 0 100.5 36t37.5 98v67h-5q-15 -23 -55 -47.5t-91 -24.5q-61 0 -113.5 32.5t-83 89t-30.5 125.5q0 70 30.5 127t82.5 89.5t113 32.5q53 0 94 -25t56 -49h5l19 63h64v-480q0 -97 -60.5 -155
t-162.5 -58q-61 0 -107 22zM341.5 119q33.5 22 53.5 60.5t20 85.5q0 48 -20 87t-53.5 61t-72.5 22t-72.5 -22t-53.5 -61t-20 -87q0 -47 20 -85.5t53.5 -60.5t72.5 -22t72.5 22zM185 606.5q-38 37.5 -42 92.5h67q3 -32 21.5 -51t52.5 -19q33 0 51.5 19t22.5 51h66
q-3 -55 -41.5 -92.5t-98.5 -37.5q-61 0 -99 37.5z" />
    <glyph glyph-name="gcircumflex" unicode="&#x11d;" horiz-adv-x="569" 
d="M171 -168q-46 22 -74 57.5t-38 75.5h87q12 -35 46.5 -55.5t84.5 -20.5q63 0 100.5 36t37.5 98v67h-5q-15 -23 -55 -47.5t-91 -24.5q-61 0 -113.5 32.5t-83 89t-30.5 125.5q0 70 30.5 127t82.5 89.5t113 32.5q53 0 94 -25t56 -49h5l19 63h64v-480q0 -97 -60.5 -155
t-162.5 -58q-61 0 -107 22zM341.5 119q33.5 22 53.5 60.5t20 85.5q0 48 -20 87t-53.5 61t-72.5 22t-72.5 -22t-53.5 -61t-20 -87q0 -47 20 -85.5t53.5 -60.5t72.5 -22t72.5 22zM323 705l105 -142h-81l-63 91l-63 -91h-80l106 142h76z" />
    <glyph glyph-name="uni0123" unicode="&#x123;" horiz-adv-x="569" 
d="M171 -168q-46 22 -74 57.5t-38 75.5h87q12 -35 46.5 -55.5t84.5 -20.5q63 0 100.5 36t37.5 98v67h-5q-15 -23 -55 -47.5t-91 -24.5q-61 0 -113.5 32.5t-83 89t-30.5 125.5q0 70 30.5 127t82.5 89.5t113 32.5q53 0 94 -25t56 -49h5l19 63h64v-480q0 -97 -60.5 -155
t-162.5 -58q-61 0 -107 22zM341.5 119q33.5 22 53.5 60.5t20 85.5q0 48 -20 87t-53.5 61t-72.5 22t-72.5 -22t-53.5 -61t-20 -87q0 -47 20 -85.5t53.5 -60.5t72.5 -22t72.5 22zM325 656.5q16 -15.5 16 -38.5t-16.5 -39t-38.5 -16q-26 0 -42.5 17.5t-16.5 48.5q0 47 26.5 83
t56.5 57l16 -21q-13 -11 -24.5 -30.5t-14.5 -44.5q22 -1 38 -16.5z" />
    <glyph glyph-name="gdotaccent" unicode="&#x121;" horiz-adv-x="569" 
d="M171 -168q-46 22 -74 57.5t-38 75.5h87q12 -35 46.5 -55.5t84.5 -20.5q63 0 100.5 36t37.5 98v67h-5q-15 -23 -55 -47.5t-91 -24.5q-61 0 -113.5 32.5t-83 89t-30.5 125.5q0 70 30.5 127t82.5 89.5t113 32.5q53 0 94 -25t56 -49h5l19 63h64v-480q0 -97 -60.5 -155
t-162.5 -58q-61 0 -107 22zM341.5 119q33.5 22 53.5 60.5t20 85.5q0 48 -20 87t-53.5 61t-72.5 22t-72.5 -22t-53.5 -61t-20 -87q0 -47 20 -85.5t53.5 -60.5t72.5 -22t72.5 22zM245.5 594q-15.5 16 -15.5 39q0 24 15.5 39t38.5 15q24 0 39.5 -15t15.5 -39q0 -23 -16 -39
t-39 -16t-38.5 16z" />
    <glyph glyph-name="hbar" unicode="&#x127;" horiz-adv-x="583" 
d="M423.5 465.5q45.5 -27.5 71 -77.5t25.5 -116v-272h-86v269q0 65 -36 104t-92 39q-59 0 -96 -39t-37 -104v-269h-86v553h-79v71h79v76h86v-76h172v-71h-172v-134h5q18 28 56 51t88 23q56 0 101.5 -27.5z" />
    <glyph glyph-name="hcircumflex" unicode="&#x125;" horiz-adv-x="570" 
d="M73 0v700h86v-260h5q18 27 56.5 50.5t88.5 23.5q56 0 101 -27.5t71 -77.5t26 -116v-293h-87v290q0 65 -36 104t-92 39q-59 0 -96 -39t-37 -104v-290h-86zM330 892l110 -137h-83l-67 85l-67 -85h-81l110 137h78z" />
    <glyph glyph-name="dotlessi" unicode="&#x131;" horiz-adv-x="223" 
d="M154 0h-86v503h86v-503z" />
    <glyph glyph-name="iacute" unicode="&#xed;" horiz-adv-x="223" 
d="M154 0h-86v503h86v-503zM134 563h-67l69 142h94z" />
    <glyph glyph-name="ibreve" unicode="&#x12d;" horiz-adv-x="223" 
d="M154 0h-86v503h86v-503zM13 606.5q-38 37.5 -42 92.5h67q3 -32 21.5 -51t52.5 -19q33 0 51.5 19t22.5 51h66q-3 -55 -41.5 -92.5t-98.5 -37.5q-61 0 -99 37.5z" />
    <glyph glyph-name="icircumflex" unicode="&#xee;" horiz-adv-x="223" 
d="M154 0h-86v503h86v-503zM150 705l105 -142h-81l-63 91l-63 -91h-80l106 142h76z" />
    <glyph glyph-name="idieresis" unicode="&#xef;" horiz-adv-x="223" 
d="M154 0h-86v503h86v-503zM7 597q-15 15 -15 36t15 36t36 15t36 -14.5t15 -36.5t-15 -36.5t-36 -14.5t-36 15zM143 597q-15 15 -15 36t15 36t36 15t36 -14.5t15 -36.5t-15 -36.5t-36 -14.5t-36 15z" />
    <glyph glyph-name="i.loclTRK" horiz-adv-x="223" 
d="M154 0h-86v503h86v-503zM72.5 594q-15.5 16 -15.5 39q0 24 15.5 39t38.5 15q24 0 39.5 -15t15.5 -39q0 -23 -16 -39t-39 -16t-38.5 16z" />
    <glyph glyph-name="igrave" unicode="&#xec;" horiz-adv-x="223" 
d="M154 0h-86v503h86v-503zM156 563h-66l-97 142h94z" />
    <glyph glyph-name="imacron" unicode="&#x12b;" horiz-adv-x="223" 
d="M154 0h-86v503h86v-503zM244 601h-264v66h264v-66z" />
    <glyph glyph-name="iogonek" unicode="&#x12f;" horiz-adv-x="223" 
d="M72.5 594q-15.5 16 -15.5 39q0 24 15.5 39t38.5 15q24 0 39.5 -15t15.5 -39q0 -23 -16 -39t-39 -16t-38.5 16zM68 0v503h86v-503h-9q-74 -47 -74 -105q0 -23 12.5 -36t33.5 -13q17 0 28 5v-53q-22 -6 -40 -6q-41 0 -68 25t-27 67q0 37 20 67.5t49 48.5h-11z" />
    <glyph glyph-name="ij" unicode="&#x133;" horiz-adv-x="445" 
d="M154 0h-86v503h86v-503zM72.5 594q-15.5 16 -15.5 39q0 24 15.5 39t38.5 15q24 0 39.5 -15t15.5 -39q0 -23 -16 -39t-39 -16t-38.5 16zM178 -176v78q17 -6 34 -6q38 0 58.5 22.5t20.5 67.5v517h86v-521q0 -78 -41 -122.5t-106 -44.5q-25 0 -52 9zM295.5 594
q-15.5 16 -15.5 39q0 24 15.5 39t38.5 15q24 0 39.5 -15t15.5 -39q0 -23 -16 -39t-39 -16t-38.5 16z" />
    <glyph glyph-name="iacute_j.loclNLD" horiz-adv-x="445" 
d="M154 0h-86v503h86v-503zM134 563h-67l69 142h94zM178 -176v78q17 -6 34 -6q38 0 58.5 22.5t20.5 67.5v517h86v-521q0 -78 -41 -122.5t-106 -44.5q-25 0 -52 9zM356 563h-67l69 142h94z" />
    <glyph glyph-name="uni0237" unicode="&#x237;" horiz-adv-x="223" 
d="M-45 -176v78q17 -6 34 -6q38 0 58.5 22.5t20.5 67.5v517h86v-521q0 -78 -41 -122.5t-106 -44.5q-25 0 -52 9z" />
    <glyph glyph-name="jcircumflex" unicode="&#x135;" horiz-adv-x="223" 
d="M-45 -176v78q17 -6 34 -6q38 0 58.5 22.5t20.5 67.5v517h86v-521q0 -78 -41 -122.5t-106 -44.5q-25 0 -52 9zM150 705l105 -142h-81l-63 91l-63 -91h-80l106 142h76z" />
    <glyph glyph-name="uni0137" unicode="&#x137;" horiz-adv-x="474" 
d="M254 262l229 -262h-110l-214 250v-250h-86v700h86v-434l199 237h103zM305.5 -93q16.5 -18 16.5 -49q0 -46 -25 -82.5t-54 -59.5l-17 22q12 12 23 31.5t14 44.5q-22 1 -38.5 16.5t-16.5 38.5q0 24 16.5 40t38.5 16q26 0 42.5 -18z" />
    <glyph glyph-name="lacute" unicode="&#x13a;" horiz-adv-x="233" 
d="M159 0h-86v700h86v-700zM139 755h-70l74 137h97z" />
    <glyph glyph-name="lcaron" unicode="&#x13e;" horiz-adv-x="233" 
d="M159 0h-86v700h86v-700zM256 555h-54l32 145h86z" />
    <glyph glyph-name="uni013C" unicode="&#x13c;" horiz-adv-x="233" 
d="M159 0h-86v700h86v-700zM156.5 -93q16.5 -18 16.5 -49q0 -46 -25 -82.5t-54 -59.5l-17 22q12 12 23 31.5t14 44.5q-22 1 -38.5 16.5t-16.5 38.5q0 24 16.5 40t38.5 16q26 0 42.5 -18z" />
    <glyph glyph-name="ldot" unicode="&#x140;" horiz-adv-x="355" 
d="M159 0h-86v700h86v-700zM251.5 307.5q-17.5 17.5 -17.5 43.5q0 25 17.5 42.5t42.5 17.5t43 -17.5t18 -42.5t-17.5 -43t-43.5 -18q-25 0 -42.5 17.5z" />
    <glyph glyph-name="lslash" unicode="&#x142;" horiz-adv-x="271" 
d="M179 420l84 56v-82l-84 -56v-338h-87v280l-84 -56v83l84 56v337h87v-280z" />
    <glyph glyph-name="nacute" unicode="&#x144;" horiz-adv-x="565" 
d="M68 0v503h64l19 -63h5q18 28 56 51t88 23q58 0 104 -27.5t72 -77.5t26 -116v-293h-87v290q0 65 -36 104t-92 39q-59 0 -96 -39t-37 -104v-290h-86zM313 563h-67l69 142h94z" />
    <glyph glyph-name="ncaron" unicode="&#x148;" horiz-adv-x="565" 
d="M68 0v503h64l19 -63h5q18 28 56 51t88 23q58 0 104 -27.5t72 -77.5t26 -116v-293h-87v290q0 65 -36 104t-92 39q-59 0 -96 -39t-37 -104v-290h-86zM290 616l63 89h81l-105 -142h-76l-106 142h80z" />
    <glyph glyph-name="uni0146" unicode="&#x146;" horiz-adv-x="565" 
d="M68 0v503h64l19 -63h5q18 28 56 51t88 23q58 0 104 -27.5t72 -77.5t26 -116v-293h-87v290q0 65 -36 104t-92 39q-59 0 -96 -39t-37 -104v-290h-86zM326.5 -93q16.5 -18 16.5 -49q0 -46 -25 -82.5t-54 -59.5l-17 22q12 12 23 31.5t14 44.5q-22 1 -38.5 16.5t-16.5 38.5
q0 24 16.5 40t38.5 16q26 0 42.5 -18z" />
    <glyph glyph-name="eng" unicode="&#x14b;" horiz-adv-x="565" 
d="M302 -176v75q13 -5 34 -5q37 0 58 22t21 65v309q0 65 -36 104t-92 39q-59 0 -96 -39t-37 -104v-290h-86v503h64l19 -63h5q18 28 56 51t88 23q58 0 104 -27.5t72 -77.5t26 -116v-313q0 -76 -40.5 -120.5t-103.5 -44.5q-32 0 -56 9z" />
    <glyph glyph-name="ntilde" unicode="&#xf1;" horiz-adv-x="565" 
d="M68 0v503h64l19 -63h5q18 28 56 51t88 23q58 0 104 -27.5t72 -77.5t26 -116v-293h-87v290q0 65 -36 104t-92 39q-59 0 -96 -39t-37 -104v-290h-86zM312 580.5q-16 10.5 -35 29.5q-13 13 -22 19.5t-18 6.5q-16 0 -27 -15.5t-11 -45.5h-60q0 62 26 93.5t65 31.5
q23 0 39.5 -10.5t34.5 -29.5q14 -14 22.5 -20t18.5 -6q15 0 26 16t11 44h60q0 -61 -25.5 -92.5t-64.5 -31.5q-24 0 -40 10.5z" />
    <glyph glyph-name="napostrophe" unicode="&#x149;" horiz-adv-x="595" 
d="M98 0v503h64l19 -63h5q18 28 56 51t88 23q58 0 104 -27.5t72 -77.5t26 -116v-293h-87v290q0 65 -36 104t-92 39q-59 0 -96 -39t-37 -104v-290h-86zM76.5 693.5q16.5 -17.5 16.5 -48.5q0 -50 -25.5 -89t-56.5 -67l-17 22q33 41 38 90q-22 2 -37.5 16.5t-15.5 38.5
q0 23 16.5 39t38.5 16q26 0 42.5 -17.5z" />
    <glyph glyph-name="oacute" unicode="&#xf3;" horiz-adv-x="559" 
d="M158.5 23.5q-55.5 34.5 -88.5 95t-33 133.5t33 133t88.5 94.5t121.5 34.5q65 0 121 -34.5t89 -94.5t33 -133t-33 -133.5t-89 -95t-121 -34.5q-66 0 -121.5 34.5zM358 93q36 23 57 64.5t21 94.5t-21 94t-57 64t-78 23t-78 -23t-57.5 -64t-21.5 -94t21.5 -94.5t57 -64.5
t78.5 -23q42 0 78 23zM302 563h-67l69 142h94z" />
    <glyph glyph-name="obreve" unicode="&#x14f;" horiz-adv-x="559" 
d="M158.5 23.5q-55.5 34.5 -88.5 95t-33 133.5t33 133t88.5 94.5t121.5 34.5q65 0 121 -34.5t89 -94.5t33 -133t-33 -133.5t-89 -95t-121 -34.5q-66 0 -121.5 34.5zM358 93q36 23 57 64.5t21 94.5t-21 94t-57 64t-78 23t-78 -23t-57.5 -64t-21.5 -94t21.5 -94.5t57 -64.5
t78.5 -23q42 0 78 23zM181 606.5q-38 37.5 -42 92.5h67q3 -32 21.5 -51t52.5 -19q33 0 51.5 19t22.5 51h66q-3 -55 -41.5 -92.5t-98.5 -37.5q-61 0 -99 37.5z" />
    <glyph glyph-name="ocircumflex" unicode="&#xf4;" horiz-adv-x="559" 
d="M158.5 23.5q-55.5 34.5 -88.5 95t-33 133.5t33 133t88.5 94.5t121.5 34.5q65 0 121 -34.5t89 -94.5t33 -133t-33 -133.5t-89 -95t-121 -34.5q-66 0 -121.5 34.5zM358 93q36 23 57 64.5t21 94.5t-21 94t-57 64t-78 23t-78 -23t-57.5 -64t-21.5 -94t21.5 -94.5t57 -64.5
t78.5 -23q42 0 78 23zM318 705l105 -142h-81l-63 91l-63 -91h-80l106 142h76z" />
    <glyph glyph-name="odieresis" unicode="&#xf6;" horiz-adv-x="559" 
d="M158.5 23.5q-55.5 34.5 -88.5 95t-33 133.5t33 133t88.5 94.5t121.5 34.5q65 0 121 -34.5t89 -94.5t33 -133t-33 -133.5t-89 -95t-121 -34.5q-66 0 -121.5 34.5zM358 93q36 23 57 64.5t21 94.5t-21 94t-57 64t-78 23t-78 -23t-57.5 -64t-21.5 -94t21.5 -94.5t57 -64.5
t78.5 -23q42 0 78 23zM160 597q-15 15 -15 36t15 36t36 15t36 -14.5t15 -36.5t-15 -36.5t-36 -14.5t-36 15zM328 596.5q-15 14.5 -15 36.5t15 36.5t36 14.5t36 -15t15 -36t-15 -36t-36 -15t-36 14.5z" />
    <glyph glyph-name="ograve" unicode="&#xf2;" horiz-adv-x="559" 
d="M158.5 23.5q-55.5 34.5 -88.5 95t-33 133.5t33 133t88.5 94.5t121.5 34.5q65 0 121 -34.5t89 -94.5t33 -133t-33 -133.5t-89 -95t-121 -34.5q-66 0 -121.5 34.5zM358 93q36 23 57 64.5t21 94.5t-21 94t-57 64t-78 23t-78 -23t-57.5 -64t-21.5 -94t21.5 -94.5t57 -64.5
t78.5 -23q42 0 78 23zM324 563h-66l-97 142h94z" />
    <glyph glyph-name="ohungarumlaut" unicode="&#x151;" horiz-adv-x="559" 
d="M158.5 23.5q-55.5 34.5 -88.5 95t-33 133.5t33 133t88.5 94.5t121.5 34.5q65 0 121 -34.5t89 -94.5t33 -133t-33 -133.5t-89 -95t-121 -34.5q-66 0 -121.5 34.5zM358 93q36 23 57 64.5t21 94.5t-21 94t-57 64t-78 23t-78 -23t-57.5 -64t-21.5 -94t21.5 -94.5t57 -64.5
t78.5 -23q42 0 78 23zM241 563h-64l78 142h91zM384 563h-65l78 142h92z" />
    <glyph glyph-name="omacron" unicode="&#x14d;" horiz-adv-x="559" 
d="M158.5 23.5q-55.5 34.5 -88.5 95t-33 133.5t33 133t88.5 94.5t121.5 34.5q65 0 121 -34.5t89 -94.5t33 -133t-33 -133.5t-89 -95t-121 -34.5q-66 0 -121.5 34.5zM358 93q36 23 57 64.5t21 94.5t-21 94t-57 64t-78 23t-78 -23t-57.5 -64t-21.5 -94t21.5 -94.5t57 -64.5
t78.5 -23q42 0 78 23zM412 601h-264v66h264v-66z" />
    <glyph glyph-name="oslash" unicode="&#xf8;" horiz-adv-x="559" 
d="M523 462l-49 -51q49 -70 49 -159q0 -73 -33 -133.5t-89 -95t-121 -34.5q-84 0 -150 55l-46 -50l-47 47l48 52q-48 69 -48 159q0 73 33 133t88.5 94.5t121.5 34.5q41 0 79.5 -14t69.5 -40l47 49zM200 412q-36 -23 -57.5 -64.5t-21.5 -95.5t23 -100l232 248q-43 35 -96 35
q-44 0 -80 -23zM360 91q36 23 57 65t21 96q0 56 -23 99l-232 -247q42 -36 97 -36q44 0 80 23z" />
    <glyph glyph-name="oslashacute" unicode="&#x1ff;" horiz-adv-x="559" 
d="M523 462l-49 -51q49 -70 49 -159q0 -73 -33 -133.5t-89 -95t-121 -34.5q-84 0 -150 55l-46 -50l-47 47l48 52q-48 69 -48 159q0 73 33 133t88.5 94.5t121.5 34.5q41 0 79.5 -14t69.5 -40l47 49zM200 412q-36 -23 -57.5 -64.5t-21.5 -95.5t23 -100l232 248q-43 35 -96 35
q-44 0 -80 -23zM360 91q36 23 57 65t21 96q0 56 -23 99l-232 -247q42 -36 97 -36q44 0 80 23zM302 563h-67l69 142h94z" />
    <glyph glyph-name="otilde" unicode="&#xf5;" horiz-adv-x="559" 
d="M158.5 23.5q-55.5 34.5 -88.5 95t-33 133.5t33 133t88.5 94.5t121.5 34.5q65 0 121 -34.5t89 -94.5t33 -133t-33 -133.5t-89 -95t-121 -34.5q-66 0 -121.5 34.5zM358 93q36 23 57 64.5t21 94.5t-21 94t-57 64t-78 23t-78 -23t-57.5 -64t-21.5 -94t21.5 -94.5t57 -64.5
t78.5 -23q42 0 78 23zM301 580.5q-16 10.5 -35 29.5q-13 13 -22 19.5t-18 6.5q-16 0 -27 -15.5t-11 -45.5h-60q0 62 26 93.5t65 31.5q23 0 39.5 -10.5t34.5 -29.5q14 -14 22.5 -20t18.5 -6q15 0 26 16t11 44h60q0 -61 -25.5 -92.5t-64.5 -31.5q-24 0 -40 10.5z" />
    <glyph glyph-name="oe" unicode="&#x153;" horiz-adv-x="903" 
d="M860 216h-361q9 -69 49 -108.5t99 -39.5q38 0 66.5 17.5t46.5 49.5h89q-24 -63 -77 -104.5t-124 -41.5q-63 0 -114.5 32t-75.5 79q-26 -48 -76 -79.5t-113 -31.5q-62 0 -115.5 33.5t-85 93.5t-31.5 136q0 75 31.5 135t85 93.5t115.5 33.5q63 0 112.5 -31.5t76.5 -78.5
q25 46 75.5 78t110.5 32q64 0 114.5 -32.5t79 -90.5t28.5 -132q0 -19 -6 -43zM341 90.5q33 22.5 53 64t20 97.5q0 55 -20 96.5t-53.5 64t-71.5 22.5q-39 0 -72.5 -22.5t-53.5 -64t-20 -96.5q0 -56 20 -97.5t53.5 -64t72.5 -22.5t72 22.5zM549 394q-41 -41 -50 -109h283
q-5 64 -42 107t-97 43q-53 0 -94 -41z" />
    <glyph glyph-name="thorn" unicode="&#xfe;" horiz-adv-x="585" 
d="M73 -180v880h86v-257h5q16 22 58 46.5t94 24.5q63 0 116 -33.5t84.5 -93.5t31.5 -135t-31.5 -135t-84.5 -94t-116 -34q-52 0 -94 24.5t-58 47.5h-5v-241h-86zM386.5 93q34.5 23 55 64.5t20.5 94.5t-20.5 94t-55 64t-75.5 23t-76 -23t-55.5 -64t-20.5 -94t20.5 -94.5
t55.5 -64.5t76 -23t75.5 23z" />
    <glyph glyph-name="racute" unicode="&#x155;" horiz-adv-x="334" 
d="M68 0v503h64l19 -63h5q18 27 53 50.5t77 23.5q24 0 39 -4v-87q-16 5 -39 5q-59 0 -95.5 -39t-36.5 -106v-283h-86zM217 563h-67l69 142h94z" />
    <glyph glyph-name="rcaron" unicode="&#x159;" horiz-adv-x="334" 
d="M68 0v503h64l19 -63h5q18 27 53 50.5t77 23.5q24 0 39 -4v-87q-16 5 -39 5q-59 0 -95.5 -39t-36.5 -106v-283h-86zM194 616l63 89h81l-105 -142h-76l-106 142h80z" />
    <glyph glyph-name="uni0157" unicode="&#x157;" horiz-adv-x="334" 
d="M68 0v503h64l19 -63h5q18 27 53 50.5t77 23.5q24 0 39 -4v-87q-16 5 -39 5q-59 0 -95.5 -39t-36.5 -106v-283h-86zM151.5 -93q16.5 -18 16.5 -49q0 -46 -25 -82.5t-54 -59.5l-17 22q12 12 23 31.5t14 44.5q-22 1 -38.5 16.5t-16.5 38.5q0 24 16.5 40t38.5 16
q26 0 42.5 -18z" />
    <glyph glyph-name="sacute" unicode="&#x15b;" horiz-adv-x="446" 
d="M130.5 11q-42.5 22 -67.5 59t-28 80h86q4 -38 32 -61.5t75 -23.5q45 0 69.5 19.5t24.5 50.5q0 33 -27.5 50t-86.5 36q-52 17 -83.5 32t-54 43.5t-22.5 73.5q0 40 21 72.5t60.5 52t91.5 19.5q51 0 91 -21t63 -56.5t26 -78.5h-85q-5 38 -28.5 59t-66.5 21q-41 0 -64 -18.5
t-23 -46.5q0 -32 27 -48.5t84 -34.5q52 -16 84.5 -31.5t55.5 -45t23 -75.5q0 -65 -48 -107t-132 -42q-55 0 -97.5 22zM243 563h-67l69 142h94z" />
    <glyph glyph-name="scaron" unicode="&#x161;" horiz-adv-x="446" 
d="M130.5 11q-42.5 22 -67.5 59t-28 80h86q4 -38 32 -61.5t75 -23.5q45 0 69.5 19.5t24.5 50.5q0 33 -27.5 50t-86.5 36q-52 17 -83.5 32t-54 43.5t-22.5 73.5q0 40 21 72.5t60.5 52t91.5 19.5q51 0 91 -21t63 -56.5t26 -78.5h-85q-5 38 -28.5 59t-66.5 21q-41 0 -64 -18.5
t-23 -46.5q0 -32 27 -48.5t84 -34.5q52 -16 84.5 -31.5t55.5 -45t23 -75.5q0 -65 -48 -107t-132 -42q-55 0 -97.5 22zM220 616l63 89h81l-105 -142h-76l-106 142h80z" />
    <glyph glyph-name="scedilla" unicode="&#x15f;" horiz-adv-x="446" 
d="M364.5 34.5q-43.5 -41.5 -120.5 -45.5l-15 -30q43 -3 67.5 -25.5t24.5 -55.5q0 -40 -28.5 -63t-87.5 -23q-32 0 -60 10v49q23 -7 49 -7q67 0 67 36q0 16 -15 25.5t-47 9.5q-21 0 -38 -5l33 81q-69 10 -112 55t-47 104h86q4 -38 32 -61.5t75 -23.5q45 0 69.5 19.5
t24.5 50.5q0 33 -27.5 50t-86.5 36q-52 17 -83.5 32t-54 43.5t-22.5 73.5q0 40 21 72.5t60.5 52t91.5 19.5q51 0 91 -21t63 -56.5t26 -78.5h-85q-5 38 -28.5 59t-66.5 21q-41 0 -64 -18.5t-23 -46.5q0 -32 27 -48.5t84 -34.5q52 -16 84.5 -31.5t55.5 -45t23 -75.5
q0 -62 -43.5 -103.5z" />
    <glyph glyph-name="scircumflex" unicode="&#x15d;" horiz-adv-x="446" 
d="M130.5 11q-42.5 22 -67.5 59t-28 80h86q4 -38 32 -61.5t75 -23.5q45 0 69.5 19.5t24.5 50.5q0 33 -27.5 50t-86.5 36q-52 17 -83.5 32t-54 43.5t-22.5 73.5q0 40 21 72.5t60.5 52t91.5 19.5q51 0 91 -21t63 -56.5t26 -78.5h-85q-5 38 -28.5 59t-66.5 21q-41 0 -64 -18.5
t-23 -46.5q0 -32 27 -48.5t84 -34.5q52 -16 84.5 -31.5t55.5 -45t23 -75.5q0 -65 -48 -107t-132 -42q-55 0 -97.5 22zM260 705l105 -142h-81l-63 91l-63 -91h-80l106 142h76z" />
    <glyph glyph-name="uni0219" unicode="&#x219;" horiz-adv-x="446" 
d="M130.5 11q-42.5 22 -67.5 59t-28 80h86q4 -38 32 -61.5t75 -23.5q45 0 69.5 19.5t24.5 50.5q0 33 -27.5 50t-86.5 36q-52 17 -83.5 32t-54 43.5t-22.5 73.5q0 40 21 72.5t60.5 52t91.5 19.5q51 0 91 -21t63 -56.5t26 -78.5h-85q-5 38 -28.5 59t-66.5 21q-41 0 -64 -18.5
t-23 -46.5q0 -32 27 -48.5t84 -34.5q52 -16 84.5 -31.5t55.5 -45t23 -75.5q0 -65 -48 -107t-132 -42q-55 0 -97.5 22zM272.5 -93q16.5 -18 16.5 -49q0 -46 -25 -82.5t-54 -59.5l-17 22q12 12 23 31.5t14 44.5q-22 1 -38.5 16.5t-16.5 38.5q0 24 16.5 40t38.5 16
q26 0 42.5 -18z" />
    <glyph glyph-name="germandbls" unicode="&#xdf;" horiz-adv-x="571" 
d="M495.5 311q38.5 -45 38.5 -119q0 -54 -25.5 -98t-71 -69t-102.5 -25h-73v81h71q51 0 83 31.5t32 82.5q0 53 -32.5 86t-82.5 33h-66v78h29q41 0 71.5 33.5t30.5 85.5q0 53 -32.5 86t-85.5 33q-54 0 -87.5 -35.5t-33.5 -97.5v-497h-86v496q0 62 27 111t74.5 76.5
t105.5 27.5q59 0 105.5 -25.5t72.5 -70t26 -99.5q0 -50 -23 -88t-52 -57q48 -15 86.5 -60z" />
    <glyph glyph-name="tbar" unicode="&#x167;" horiz-adv-x="335" 
d="M301 424h-114v-136h110v-64h-110v-64q0 -45 21 -67.5t58 -22.5q20 0 35 7v-79q-27 -9 -52 -9q-65 0 -106.5 45t-41.5 123v67h-82v64h82v136h-86v76h38q29 0 45 15.5t16 44.5v75h73v-132h114v-79z" />
    <glyph glyph-name="tcaron" unicode="&#x165;" horiz-adv-x="335" 
d="M142.5 34q-41.5 45 -41.5 123v267h-86v76h38q29 0 45 15.5t16 44.5v75h73v-132h114v-79h-114v-264q0 -45 21 -67.5t58 -22.5q20 0 35 7v-79q-27 -9 -52 -9q-65 0 -106.5 45zM283 555h-54l32 145h86z" />
    <glyph glyph-name="uni0163" unicode="&#x163;" horiz-adv-x="335" 
d="M301 424h-114v-264q0 -45 21 -67.5t58 -22.5q20 0 35 7v-79q-27 -9 -52 -9q-9 0 -25 2l-15 -32q43 -3 67.5 -25.5t24.5 -55.5q0 -40 -28.5 -63t-87.5 -23q-32 0 -60 10v49q23 -7 49 -7q67 0 67 36q0 16 -15 25.5t-47 9.5q-21 0 -38 -5l39 95q-37 19 -58 58t-21 94v267
h-86v76h38q29 0 45 15.5t16 44.5v75h73v-132h114v-79z" />
    <glyph glyph-name="uni021B" unicode="&#x21b;" horiz-adv-x="335" 
d="M142.5 34q-41.5 45 -41.5 123v267h-86v76h38q29 0 45 15.5t16 44.5v75h73v-132h114v-79h-114v-264q0 -45 21 -67.5t58 -22.5q20 0 35 7v-79q-27 -9 -52 -9q-65 0 -106.5 45zM252.5 -93q16.5 -18 16.5 -49q0 -46 -25 -82.5t-54 -59.5l-17 22q12 12 23 31.5t14 44.5
q-22 1 -38.5 16.5t-16.5 38.5q0 24 16.5 40t38.5 16q26 0 42.5 -18z" />
    <glyph glyph-name="uacute" unicode="&#xfa;" horiz-adv-x="565" 
d="M160.5 16.5q-45.5 27.5 -71.5 77.5t-26 116v293h86v-290q0 -65 36.5 -104t92.5 -39q59 0 95.5 39t36.5 104v290h87v-503h-65l-18 63h-5q-18 -27 -56.5 -50.5t-88.5 -23.5q-58 0 -103.5 27.5zM302 563h-67l69 142h94z" />
    <glyph glyph-name="uni0289" unicode="&#x289;" horiz-adv-x="602" 
d="M594 346v-71h-79v-275h-64l-19 63h-5q-18 -28 -56 -51t-88 -23q-58 0 -103.5 27.5t-71.5 77.5t-26 116v65h-79v71h79v157h86v-157h261v157h86v-157h79zM429 275h-261v-62q0 -65 36 -104t92 -39q59 0 96 39t37 104v62z" />
    <glyph glyph-name="ubreve" unicode="&#x16d;" horiz-adv-x="565" 
d="M160.5 16.5q-45.5 27.5 -71.5 77.5t-26 116v293h86v-290q0 -65 36.5 -104t92.5 -39q59 0 95.5 39t36.5 104v290h87v-503h-65l-18 63h-5q-18 -27 -56.5 -50.5t-88.5 -23.5q-58 0 -103.5 27.5zM181 606.5q-38 37.5 -42 92.5h67q3 -32 21.5 -51t52.5 -19q33 0 51.5 19
t22.5 51h66q-3 -55 -41.5 -92.5t-98.5 -37.5q-61 0 -99 37.5z" />
    <glyph glyph-name="ucircumflex" unicode="&#xfb;" horiz-adv-x="565" 
d="M160.5 16.5q-45.5 27.5 -71.5 77.5t-26 116v293h86v-290q0 -65 36.5 -104t92.5 -39q59 0 95.5 39t36.5 104v290h87v-503h-65l-18 63h-5q-18 -27 -56.5 -50.5t-88.5 -23.5q-58 0 -103.5 27.5zM318 705l105 -142h-81l-63 91l-63 -91h-80l106 142h76z" />
    <glyph glyph-name="udieresis" unicode="&#xfc;" horiz-adv-x="565" 
d="M160.5 16.5q-45.5 27.5 -71.5 77.5t-26 116v293h86v-290q0 -65 36.5 -104t92.5 -39q59 0 95.5 39t36.5 104v290h87v-503h-65l-18 63h-5q-18 -27 -56.5 -50.5t-88.5 -23.5q-58 0 -103.5 27.5zM160 597q-15 15 -15 36t15 36t36 15t36 -14.5t15 -36.5t-15 -36.5t-36 -14.5
t-36 15zM328 596.5q-15 14.5 -15 36.5t15 36.5t36 14.5t36 -15t15 -36t-15 -36t-36 -15t-36 14.5z" />
    <glyph glyph-name="ugrave" unicode="&#xf9;" horiz-adv-x="565" 
d="M160.5 16.5q-45.5 27.5 -71.5 77.5t-26 116v293h86v-290q0 -65 36.5 -104t92.5 -39q59 0 95.5 39t36.5 104v290h87v-503h-65l-18 63h-5q-18 -27 -56.5 -50.5t-88.5 -23.5q-58 0 -103.5 27.5zM324 563h-66l-97 142h94z" />
    <glyph glyph-name="uhungarumlaut" unicode="&#x171;" horiz-adv-x="565" 
d="M160.5 16.5q-45.5 27.5 -71.5 77.5t-26 116v293h86v-290q0 -65 36.5 -104t92.5 -39q59 0 95.5 39t36.5 104v290h87v-503h-65l-18 63h-5q-18 -27 -56.5 -50.5t-88.5 -23.5q-58 0 -103.5 27.5zM241 563h-64l78 142h91zM384 563h-65l78 142h92z" />
    <glyph glyph-name="umacron" unicode="&#x16b;" horiz-adv-x="565" 
d="M160.5 16.5q-45.5 27.5 -71.5 77.5t-26 116v293h86v-290q0 -65 36.5 -104t92.5 -39q59 0 95.5 39t36.5 104v290h87v-503h-65l-18 63h-5q-18 -27 -56.5 -50.5t-88.5 -23.5q-58 0 -103.5 27.5zM412 601h-264v66h264v-66z" />
    <glyph glyph-name="uogonek" unicode="&#x173;" horiz-adv-x="565" 
d="M497 0q-86 -50 -86 -105q0 -22 14.5 -35.5t38.5 -13.5q18 0 33 5v-53q-22 -6 -45 -6q-46 0 -74 25t-28 67q0 37 22.5 68.5t58.5 51.5l-17 59h-5q-18 -27 -56.5 -50.5t-88.5 -23.5q-58 0 -103.5 27.5t-71.5 77.5t-26 116v293h86v-290q0 -65 36.5 -104t92.5 -39
q59 0 95.5 39t36.5 104v290h87v-503z" />
    <glyph glyph-name="uring" unicode="&#x16f;" horiz-adv-x="565" 
d="M160.5 16.5q-45.5 27.5 -71.5 77.5t-26 116v293h86v-290q0 -65 36.5 -104t92.5 -39q59 0 95.5 39t36.5 104v290h87v-503h-65l-18 63h-5q-18 -27 -56.5 -50.5t-88.5 -23.5q-58 0 -103.5 27.5zM210 579q-28 27 -28 67t28 67.5t69 27.5q42 0 70 -27.5t28 -67.5t-28 -67
t-70 -27q-41 0 -69 27zM312 613q13 13 13 33t-13 33t-33 13t-32.5 -13t-12.5 -33t12.5 -33t32.5 -13t33 13z" />
    <glyph glyph-name="wacute" unicode="&#x1e83;" horiz-adv-x="701" 
d="M494 138l115 365h87l-167 -503h-68l-111 354l-110 -354h-68l-167 503h91l114 -363l113 363h57zM374 563h-67l69 142h94z" />
    <glyph glyph-name="wcircumflex" unicode="&#x175;" horiz-adv-x="701" 
d="M494 138l115 365h87l-167 -503h-68l-111 354l-110 -354h-68l-167 503h91l114 -363l113 363h57zM390 705l105 -142h-81l-63 91l-63 -91h-80l106 142h76z" />
    <glyph glyph-name="wdieresis" unicode="&#x1e85;" horiz-adv-x="701" 
d="M494 138l115 365h87l-167 -503h-68l-111 354l-110 -354h-68l-167 503h91l114 -363l113 363h57zM232 597q-15 15 -15 36t15 36t36 15t36 -14.5t15 -36.5t-15 -36.5t-36 -14.5t-36 15zM400 596.5q-15 14.5 -15 36.5t15 36.5t36 14.5t36 -15t15 -36t-15 -36t-36 -15
t-36 14.5z" />
    <glyph glyph-name="wgrave" unicode="&#x1e81;" horiz-adv-x="701" 
d="M494 138l115 365h87l-167 -503h-68l-111 354l-110 -354h-68l-167 503h91l114 -363l113 363h57zM396 563h-66l-97 142h94z" />
    <glyph glyph-name="yacute" unicode="&#xfd;" horiz-adv-x="487" 
d="M393 503h89l-216 -542q-33 -83 -67 -114.5t-79 -31.5q-20 0 -47 9v78q17 -6 33 -6q27 0 45.5 15t32.5 50l20 51l-199 491h93l149 -384zM268 563h-67l69 142h94z" />
    <glyph glyph-name="ycircumflex" unicode="&#x177;" horiz-adv-x="487" 
d="M393 503h89l-216 -542q-33 -83 -67 -114.5t-79 -31.5q-20 0 -47 9v78q17 -6 33 -6q27 0 45.5 15t32.5 50l20 51l-199 491h93l149 -384zM284 705l105 -142h-81l-63 91l-63 -91h-80l106 142h76z" />
    <glyph glyph-name="ydieresis" unicode="&#xff;" horiz-adv-x="487" 
d="M393 503h89l-216 -542q-33 -83 -67 -114.5t-79 -31.5q-20 0 -47 9v78q17 -6 33 -6q27 0 45.5 15t32.5 50l20 51l-199 491h93l149 -384zM125 597q-15 15 -15 36t15 36t36 15t36 -14.5t15 -36.5t-15 -36.5t-36 -14.5t-36 15zM293 596.5q-15 14.5 -15 36.5t15 36.5t36 14.5
t36 -15t15 -36t-15 -36t-36 -15t-36 14.5z" />
    <glyph glyph-name="ygrave" unicode="&#x1ef3;" horiz-adv-x="487" 
d="M393 503h89l-216 -542q-33 -83 -67 -114.5t-79 -31.5q-20 0 -47 9v78q17 -6 33 -6q27 0 45.5 15t32.5 50l20 51l-199 491h93l149 -384zM290 563h-66l-97 142h94z" />
    <glyph glyph-name="uni0233" unicode="&#x233;" horiz-adv-x="487" 
d="M393 503h89l-216 -542q-33 -83 -67 -114.5t-79 -31.5q-20 0 -47 9v78q17 -6 33 -6q27 0 45.5 15t32.5 50l20 51l-199 491h93l149 -384zM378 601h-264v66h264v-66z" />
    <glyph glyph-name="zacute" unicode="&#x17a;" horiz-adv-x="428" 
d="M389 431l-256 -352h264v-79h-366v72l257 352h-252v79h353v-72zM235 563h-67l69 142h94z" />
    <glyph glyph-name="zcaron" unicode="&#x17e;" horiz-adv-x="428" 
d="M389 431l-256 -352h264v-79h-366v72l257 352h-252v79h353v-72zM212 616l63 89h81l-105 -142h-76l-106 142h80z" />
    <glyph glyph-name="zdotaccent" unicode="&#x17c;" horiz-adv-x="428" 
d="M389 431l-256 -352h264v-79h-366v72l257 352h-252v79h353v-72zM174.5 594q-15.5 16 -15.5 39q0 24 15.5 39t38.5 15q24 0 39.5 -15t15.5 -39q0 -23 -16 -39t-39 -16t-38.5 16z" />
    <glyph glyph-name="a.sc" horiz-adv-x="567" 
d="M567 0h-96l-52 142h-274l-52 -142h-94l236 610h97zM388 225l-106 288l-106 -288h212z" />
    <glyph glyph-name="b.sc" horiz-adv-x="569" 
d="M496.5 276.5q36.5 -36.5 36.5 -102.5q0 -49 -24.5 -89t-69 -62.5t-102.5 -22.5h-262v610h250q53 0 94 -21t63.5 -56.5t22.5 -78.5q0 -52 -26.5 -83.5t-62.5 -45.5q44 -12 80.5 -48.5zM167 528v-170h153q40 0 66.5 24t26.5 62q0 37 -26 60.5t-67 23.5h-153zM331 82
q50 0 80 27t30 72q0 43 -31 71t-79 28h-164v-198h164z" />
    <glyph glyph-name="c.sc" horiz-adv-x="653" 
d="M187.5 31.5q-69.5 42.5 -110 115t-40.5 158.5t40.5 158.5t110 115t150.5 42.5q73 0 131.5 -30.5t96 -82t50.5 -112.5h-93q-18 59 -66 99t-119 40q-57 0 -105 -30t-76 -82.5t-28 -117.5t28 -117.5t76 -82.5t105 -30q73 0 122 40t68 99h93q-13 -62 -50.5 -113t-97 -81.5
t-135.5 -30.5q-81 0 -150.5 42.5z" />
    <glyph glyph-name="d.sc" horiz-adv-x="607" 
d="M75 0v610h179q90 0 162 -39.5t113 -109.5t41 -156t-41 -156t-113 -109.5t-162 -39.5h-179zM254 86q64 0 115 28t80 78t29 113t-29 113t-80 78t-115 28h-87v-438h87z" />
    <glyph glyph-name="e.sc" horiz-adv-x="527" 
d="M167 273v-188h323v-85h-415v610h405v-85h-313v-169h290v-83h-290z" />
    <glyph glyph-name="f.sc" horiz-adv-x="503" 
d="M475 610v-85h-308v-189h274v-83h-274v-253h-92v610h400z" />
    <glyph glyph-name="g.sc" horiz-adv-x="688" 
d="M357 310h267v-310h-56l-15 93q-28 -40 -82 -72t-135 -32q-80 0 -149 42.5t-109.5 115t-40.5 158.5t40.5 158.5t110 115t150.5 42.5q74 0 132 -29t94 -76t49 -101h-91q-19 52 -66 86.5t-118 34.5q-58 0 -106 -30t-76 -82.5t-28 -118.5t28 -119t76 -82.5t107 -29.5
q54 0 96.5 21.5t67.5 57.5t29 78h-175v79z" />
    <glyph glyph-name="h.sc" horiz-adv-x="627" 
d="M461 356v254h92v-610h-92v270h-294v-270h-92v610h92v-254h294z" />
    <glyph glyph-name="i.sc" horiz-adv-x="242" 
d="M167 0h-92v610h92v-610z" />
    <glyph glyph-name="j.sc" horiz-adv-x="492" 
d="M109.5 15q-47.5 26 -74 68.5t-26.5 90.5h92q1 -41 32.5 -70t82.5 -29q53 0 83.5 34.5t30.5 98.5v402h92v-401q0 -64 -26 -114t-73 -78t-107 -28q-59 0 -106.5 26z" />
    <glyph glyph-name="k.sc" horiz-adv-x="525" 
d="M268 313l266 -313h-116l-251 302v-302h-92v610h92v-292l241 292h109z" />
    <glyph glyph-name="l.sc" horiz-adv-x="479" 
d="M471 0h-396v610h92v-526h304v-84z" />
    <glyph glyph-name="m.sc" horiz-adv-x="776" 
d="M389 122l230 488h82v-610h-91v411l-195 -411h-55l-195 413v-413h-90v610h85z" />
    <glyph glyph-name="n.sc" horiz-adv-x="637" 
d="M472 152v458h90v-610h-84l-313 458v-458h-90v610h84z" />
    <glyph glyph-name="o.sc" horiz-adv-x="677" 
d="M187.5 31.5q-69.5 42.5 -110 115t-40.5 158.5t40.5 158.5t110 115t150.5 42.5q82 0 151 -42.5t110 -115t41 -158.5t-41 -158.5t-110 -115t-151 -42.5q-81 0 -150.5 42.5zM444 105q48 30 76 82.5t28 117.5t-28 117.5t-76 82.5t-106 30q-57 0 -105 -30t-76 -82.5
t-28 -117.5t28 -117.5t76 -82.5t105 -30q58 0 106 30z" />
    <glyph glyph-name="p.sc" horiz-adv-x="542" 
d="M297 610q61 0 110 -26.5t76.5 -71.5t27.5 -100q0 -56 -27.5 -101.5t-76.5 -72t-110 -26.5h-130v-212h-92v610h222zM296 297q55 0 89 32t34 83q0 49 -34 81t-89 32h-129v-228h129z" />
    <glyph glyph-name="q.sc" horiz-adv-x="677" 
d="M621.5 195.5q-18.5 -52.5 -52.5 -94.5l64 -64l-53 -54l-66 66q-37 -29 -82 -44.5t-94 -15.5q-81 0 -150.5 42.5t-110 115t-40.5 158.5t40.5 158.5t110 115t150.5 42.5q82 0 151 -42.5t110 -115t41 -158.5q0 -57 -18.5 -109.5zM454 109l-81 81l53 53l81 -80q42 61 42 142
q0 66 -28 119t-76.5 83t-106.5 30t-106.5 -30t-76.5 -83t-28 -119t28 -119t76.5 -83t106.5 -30q64 0 116 36z" />
    <glyph glyph-name="r.sc" horiz-adv-x="565" 
d="M432 0l-135 227h-130v-227h-92v610h241q62 0 109 -24.5t73 -68t26 -98.5q0 -66 -36.5 -113.5t-98.5 -67.5l148 -238h-105zM167 525v-214h148q55 0 86 29t31 79q0 48 -31.5 77t-85.5 29h-148z" />
    <glyph glyph-name="s.sc" horiz-adv-x="511" 
d="M144 13.5q-50 24.5 -78 67.5t-31 96h92q3 -47 38.5 -76t92.5 -29q58 0 89.5 25t31.5 66q0 31 -18.5 51.5t-46 32.5t-75.5 28q-61 21 -98 39t-63 52.5t-26 89.5q0 45 24.5 82.5t70 60t106.5 22.5q56 0 101.5 -23t73.5 -64.5t32 -95.5h-92q-4 46 -36 73t-79 27
q-52 0 -80.5 -24t-28.5 -59q0 -29 17.5 -48t44.5 -30.5t73 -26.5q62 -21 100 -39.5t65 -54t27 -92.5q0 -50 -25.5 -90t-73.5 -62.5t-113 -22.5t-115 24.5z" />
    <glyph glyph-name="t.sc" horiz-adv-x="492" 
d="M292 0h-92v524h-186v86h464v-86h-186v-524z" />
    <glyph glyph-name="u.sc" horiz-adv-x="630" 
d="M186.5 21q-55.5 32 -86 89.5t-30.5 132.5v367h92v-367q0 -78 41.5 -123t111.5 -45t111.5 45t41.5 123v367h92v-367q0 -75 -31 -132.5t-86.5 -89.5t-127.5 -32q-73 0 -128.5 32z" />
    <glyph glyph-name="v.sc" horiz-adv-x="561" 
d="M282 106l178 504h94l-224 -610h-99l-224 610h97z" />
    <glyph glyph-name="w.sc" horiz-adv-x="794" 
d="M568 154l128 456h91l-181 -610h-70l-138 449l-139 -449h-69l-183 610h94l127 -456l139 456h64z" />
    <glyph glyph-name="x.sc" horiz-adv-x="538" 
d="M327 311l202 -311h-106l-155 248l-157 -248h-102l203 311l-192 299h106l144 -235l146 235h102z" />
    <glyph glyph-name="y.sc" horiz-adv-x="516" 
d="M260 318l158 292h98l-212 -376v-234h-92v234l-212 376h101z" />
    <glyph glyph-name="z.sc" horiz-adv-x="512" 
d="M468 541l-321 -455h334v-86h-450v69l322 455h-311v86h426v-69z" />
    <glyph glyph-name="aacute.sc" horiz-adv-x="567" 
d="M567 0h-96l-52 142h-274l-52 -142h-94l236 610h97zM388 225l-106 288l-106 -288h212zM306 665h-70l74 137h97z" />
    <glyph glyph-name="abreve.sc" horiz-adv-x="567" 
d="M567 0h-96l-52 142h-274l-52 -142h-94l236 610h97zM388 225l-106 288l-106 -288h212zM182.5 707q-38.5 37 -42.5 91h68q4 -31 22.5 -49.5t52.5 -18.5t52.5 18.5t22.5 49.5h68q-4 -54 -42.5 -91t-100.5 -37t-100.5 37z" />
    <glyph glyph-name="acircumflex.sc" horiz-adv-x="567" 
d="M567 0h-96l-52 142h-274l-52 -142h-94l236 610h97zM388 225l-106 288l-106 -288h212zM322 802l110 -137h-83l-67 85l-67 -85h-81l110 137h78z" />
    <glyph glyph-name="adieresis.sc" horiz-adv-x="567" 
d="M567 0h-96l-52 142h-274l-52 -142h-94l236 610h97zM388 225l-106 288l-106 -288h212zM156 697q-15 15 -15 36q0 22 15 37t36 15q22 0 37 -15t15 -37t-15 -36.5t-37 -14.5q-21 0 -36 15zM336.5 697q-15.5 15 -15.5 36q0 22 15.5 37t36.5 15q20 0 35.5 -15t15.5 -37
q0 -21 -15 -36t-36 -15t-36.5 15z" />
    <glyph glyph-name="agrave.sc" horiz-adv-x="567" 
d="M567 0h-96l-52 142h-274l-52 -142h-94l236 610h97zM388 225l-106 288l-106 -288h212zM331 665h-70l-102 137h97z" />
    <glyph glyph-name="amacron.sc" horiz-adv-x="567" 
d="M567 0h-96l-52 142h-274l-52 -142h-94l236 610h97zM388 225l-106 288l-106 -288h212zM418 699h-271v69h271v-69z" />
    <glyph glyph-name="aogonek.sc" horiz-adv-x="567" 
d="M496.5 -140.5q14.5 -13.5 38.5 -13.5q18 0 33 5v-53q-22 -6 -45 -6q-46 0 -74 25t-28 67q0 35 20.5 65.5t53.5 50.5h-24l-52 142h-274l-52 -142h-94l236 610h97l235 -610h1q-86 -50 -86 -105q0 -22 14.5 -35.5zM388 225l-106 288l-106 -288h212z" />
    <glyph glyph-name="aring.sc" horiz-adv-x="567" 
d="M567 0h-96l-52 142h-274l-52 -142h-94l236 610h97zM388 225l-106 288l-106 -288h212zM212.5 693.5q-28.5 27.5 -28.5 67.5t28.5 68t70.5 28t70.5 -28t28.5 -68t-28.5 -67.5t-70.5 -27.5t-70.5 27.5zM315 729q13 12 13 32t-13 32.5t-32 12.5t-32 -12.5t-13 -32.5t13 -32
t32 -12t32 12z" />
    <glyph glyph-name="aringacute.sc" horiz-adv-x="567" 
d="M567 0h-96l-52 142h-274l-52 -142h-94l236 610h97zM388 225l-106 288l-106 -288h212zM318 861h-68l62 121h93zM212.5 683.5q-28.5 27.5 -28.5 67.5t28.5 68t70.5 28t70.5 -28t28.5 -68t-28.5 -67.5t-70.5 -27.5t-70.5 27.5zM315 719q13 12 13 32t-13 32.5t-32 12.5
t-32 -12.5t-13 -32.5t13 -32t32 -12t32 12z" />
    <glyph glyph-name="atilde.sc" horiz-adv-x="567" 
d="M567 0h-96l-52 142h-274l-52 -142h-94l236 610h97zM388 225l-106 288l-106 -288h212zM304.5 680.5q-16.5 9.5 -35.5 27.5q-13 12 -22 18t-20 6q-16 0 -27 -15t-11 -40h-61q0 58 26.5 88.5t66.5 30.5q25 0 42 -10t35 -27q14 -12 22.5 -17.5t18.5 -5.5q17 0 28 14.5
t11 39.5h60q0 -57 -26.5 -88t-65.5 -31q-25 0 -41.5 9.5z" />
    <glyph glyph-name="ae.sc" horiz-adv-x="794" 
d="M460 273v-188h297v-85h-387v142h-225l-80 -142h-99l349 610h432v-85h-287v-169h264v-83h-264zM360 525l-169 -300h179v300h-10z" />
    <glyph glyph-name="aeacute.sc" horiz-adv-x="794" 
d="M460 273v-188h297v-85h-387v142h-225l-80 -142h-99l349 610h432v-85h-287v-169h264v-83h-264zM360 525l-169 -300h179v300h-10zM437 665h-70l74 137h97z" />
    <glyph glyph-name="cacute.sc" horiz-adv-x="653" 
d="M187.5 31.5q-69.5 42.5 -110 115t-40.5 158.5t40.5 158.5t110 115t150.5 42.5q73 0 131.5 -30.5t96 -82t50.5 -112.5h-93q-18 59 -66 99t-119 40q-57 0 -105 -30t-76 -82.5t-28 -117.5t28 -117.5t76 -82.5t105 -30q73 0 122 40t68 99h93q-13 -62 -50.5 -113t-97 -81.5
t-135.5 -30.5q-81 0 -150.5 42.5zM361 665h-70l74 137h97z" />
    <glyph glyph-name="ccaron.sc" horiz-adv-x="653" 
d="M187.5 31.5q-69.5 42.5 -110 115t-40.5 158.5t40.5 158.5t110 115t150.5 42.5q73 0 131.5 -30.5t96 -82t50.5 -112.5h-93q-18 59 -66 99t-119 40q-57 0 -105 -30t-76 -82.5t-28 -117.5t28 -117.5t76 -82.5t105 -30q73 0 122 40t68 99h93q-13 -62 -50.5 -113t-97 -81.5
t-135.5 -30.5q-81 0 -150.5 42.5zM339 717l66 85h83l-110 -137h-78l-110 137h82z" />
    <glyph glyph-name="ccedilla.sc" horiz-adv-x="653" 
d="M621 214q-13 -59 -48 -109t-91 -81t-126 -35l-15 -30q43 -3 67.5 -25.5t24.5 -55.5q0 -40 -28.5 -63t-87.5 -23q-32 0 -60 10v49q23 -7 49 -7q67 0 67 36q0 16 -15 25.5t-47 9.5q-21 0 -38 -5l33 81q-74 8 -135.5 52t-97.5 113t-36 149q0 86 40.5 158.5t110 115
t150.5 42.5q73 0 131.5 -30.5t96 -82t50.5 -112.5h-93q-18 59 -66 99t-119 40q-57 0 -105 -30t-76 -82.5t-28 -117.5t28 -117.5t76 -82.5t105 -30q73 0 122 40t68 99h93z" />
    <glyph glyph-name="ccircumflex.sc" horiz-adv-x="653" 
d="M187.5 31.5q-69.5 42.5 -110 115t-40.5 158.5t40.5 158.5t110 115t150.5 42.5q73 0 131.5 -30.5t96 -82t50.5 -112.5h-93q-18 59 -66 99t-119 40q-57 0 -105 -30t-76 -82.5t-28 -117.5t28 -117.5t76 -82.5t105 -30q73 0 122 40t68 99h93q-13 -62 -50.5 -113t-97 -81.5
t-135.5 -30.5q-81 0 -150.5 42.5zM378 802l110 -137h-83l-67 85l-67 -85h-81l110 137h78z" />
    <glyph glyph-name="cdotaccent.sc" horiz-adv-x="653" 
d="M187.5 31.5q-69.5 42.5 -110 115t-40.5 158.5t40.5 158.5t110 115t150.5 42.5q73 0 131.5 -30.5t96 -82t50.5 -112.5h-93q-18 59 -66 99t-119 40q-57 0 -105 -30t-76 -82.5t-28 -117.5t28 -117.5t76 -82.5t105 -30q73 0 122 40t68 99h93q-13 -62 -50.5 -113t-97 -81.5
t-135.5 -30.5q-81 0 -150.5 42.5zM299.5 694.5q-15.5 15.5 -15.5 38.5q0 24 15.5 39.5t38.5 15.5t39 -15.5t16 -39.5q0 -23 -16 -38.5t-39 -15.5t-38.5 15.5z" />
    <glyph glyph-name="eth.sc" horiz-adv-x="628" 
d="M275 610q91 0 163 -39.5t112.5 -109t40.5 -156.5t-40.5 -156.5t-112.5 -109t-163 -39.5h-179v266h-83v79h83v265h179zM275 86q64 0 115 28t80 78t29 113t-29 113t-80 78t-115 28h-87v-179h135v-79h-135v-180h87z" />
    <glyph glyph-name="dcaron.sc" horiz-adv-x="607" 
d="M75 0v610h179q90 0 162 -39.5t113 -109.5t41 -156t-41 -156t-113 -109.5t-162 -39.5h-179zM254 86q64 0 115 28t80 78t29 113t-29 113t-80 78t-115 28h-87v-438h87zM294 717l66 85h83l-110 -137h-78l-110 137h82z" />
    <glyph glyph-name="dcroat.sc" horiz-adv-x="628" 
d="M275 610q91 0 163 -39.5t112.5 -109t40.5 -156.5t-40.5 -156.5t-112.5 -109t-163 -39.5h-179v266h-83v79h83v265h179zM275 86q64 0 115 28t80 78t29 113t-29 113t-80 78t-115 28h-87v-179h135v-79h-135v-180h87z" />
    <glyph glyph-name="eacute.sc" horiz-adv-x="527" 
d="M167 273v-188h323v-85h-415v610h405v-85h-313v-169h290v-83h-290zM300 665h-70l74 137h97z" />
    <glyph glyph-name="ebreve.sc" horiz-adv-x="527" 
d="M167 273v-188h323v-85h-415v610h405v-85h-313v-169h290v-83h-290zM177.5 707q-38.5 37 -42.5 91h68q4 -31 22.5 -49.5t52.5 -18.5t52.5 18.5t22.5 49.5h68q-4 -54 -42.5 -91t-100.5 -37t-100.5 37z" />
    <glyph glyph-name="ecaron.sc" horiz-adv-x="527" 
d="M167 273v-188h323v-85h-415v610h405v-85h-313v-169h290v-83h-290zM278 717l66 85h83l-110 -137h-78l-110 137h82z" />
    <glyph glyph-name="ecircumflex.sc" horiz-adv-x="527" 
d="M167 273v-188h323v-85h-415v610h405v-85h-313v-169h290v-83h-290zM317 802l110 -137h-83l-67 85l-67 -85h-81l110 137h78z" />
    <glyph glyph-name="edieresis.sc" horiz-adv-x="527" 
d="M167 273v-188h323v-85h-415v610h405v-85h-313v-169h290v-83h-290zM151 697q-15 15 -15 36q0 22 15 37t36 15q22 0 37 -15t15 -37t-15 -36.5t-37 -14.5q-21 0 -36 15zM331.5 697q-15.5 15 -15.5 36q0 22 15.5 37t36.5 15q20 0 35.5 -15t15.5 -37q0 -21 -15 -36t-36 -15
t-36.5 15z" />
    <glyph glyph-name="edotaccent.sc" horiz-adv-x="527" 
d="M167 273v-188h323v-85h-415v610h405v-85h-313v-169h290v-83h-290zM238.5 694.5q-15.5 15.5 -15.5 38.5q0 24 15.5 39.5t38.5 15.5t39 -15.5t16 -39.5q0 -23 -16 -38.5t-39 -15.5t-38.5 15.5z" />
    <glyph glyph-name="egrave.sc" horiz-adv-x="527" 
d="M167 273v-188h323v-85h-415v610h405v-85h-313v-169h290v-83h-290zM325 665h-70l-102 137h97z" />
    <glyph glyph-name="emacron.sc" horiz-adv-x="527" 
d="M167 273v-188h323v-85h-415v610h405v-85h-313v-169h290v-83h-290zM413 699h-271v69h271v-69z" />
    <glyph glyph-name="eogonek.sc" horiz-adv-x="527" 
d="M490 0q-86 -50 -86 -105q0 -22 14.5 -35.5t38.5 -13.5q18 0 33 5v-53q-22 -6 -45 -6q-46 0 -74 25t-28 67q0 35 20.5 65.5t53.5 50.5h-342v610h405v-85h-313v-169h290v-83h-290v-188h323v-85z" />
    <glyph glyph-name="uni0259.sc" horiz-adv-x="671" 
d="M482 578.5q70 -42.5 111 -115t41 -158.5t-41 -158.5t-111 -115t-152 -42.5q-80 0 -147 41t-106.5 112.5t-39.5 160.5q0 13 2 29h503q-6 60 -35 106t-75.5 72t-101.5 26q-66 0 -112 -31.5t-67 -81.5h-93q28 86 99.5 142t172.5 56q82 0 152 -42.5zM465.5 124
q57.5 50 72.5 131h-406q4 -51 31 -92.5t71 -65t96 -23.5q78 0 135.5 50z" />
    <glyph glyph-name="uni01F5.sc" horiz-adv-x="688" 
d="M357 310h267v-310h-56l-15 93q-28 -40 -82 -72t-135 -32q-80 0 -149 42.5t-109.5 115t-40.5 158.5t40.5 158.5t110 115t150.5 42.5q74 0 132 -29t94 -76t49 -101h-91q-19 52 -66 86.5t-118 34.5q-58 0 -106 -30t-76 -82.5t-28 -118.5t28 -119t76 -82.5t107 -29.5
q54 0 96.5 21.5t67.5 57.5t29 78h-175v79zM360 665h-70l74 137h97z" />
    <glyph glyph-name="gbreve.sc" horiz-adv-x="688" 
d="M357 310h267v-310h-56l-15 93q-28 -40 -82 -72t-135 -32q-80 0 -149 42.5t-109.5 115t-40.5 158.5t40.5 158.5t110 115t150.5 42.5q74 0 132 -29t94 -76t49 -101h-91q-19 52 -66 86.5t-118 34.5q-58 0 -106 -30t-76 -82.5t-28 -118.5t28 -119t76 -82.5t107 -29.5
q54 0 96.5 21.5t67.5 57.5t29 78h-175v79zM237.5 707q-38.5 37 -42.5 91h68q4 -31 22.5 -49.5t52.5 -18.5t52.5 18.5t22.5 49.5h68q-4 -54 -42.5 -91t-100.5 -37t-100.5 37z" />
    <glyph glyph-name="gcircumflex.sc" horiz-adv-x="688" 
d="M357 310h267v-310h-56l-15 93q-28 -40 -82 -72t-135 -32q-80 0 -149 42.5t-109.5 115t-40.5 158.5t40.5 158.5t110 115t150.5 42.5q74 0 132 -29t94 -76t49 -101h-91q-19 52 -66 86.5t-118 34.5q-58 0 -106 -30t-76 -82.5t-28 -118.5t28 -119t76 -82.5t107 -29.5
q54 0 96.5 21.5t67.5 57.5t29 78h-175v79zM377 802l110 -137h-83l-67 85l-67 -85h-81l110 137h78z" />
    <glyph glyph-name="uni0123.sc" horiz-adv-x="688" 
d="M357 310h267v-310h-56l-15 93q-28 -40 -82 -72t-135 -32q-80 0 -149 42.5t-109.5 115t-40.5 158.5t40.5 158.5t110 115t150.5 42.5q74 0 132 -29t94 -76t49 -101h-91q-19 52 -66 86.5t-118 34.5q-58 0 -106 -30t-76 -82.5t-28 -118.5t28 -119t76 -82.5t107 -29.5
q54 0 96.5 21.5t67.5 57.5t29 78h-175v79zM377.5 -93q16.5 -18 16.5 -49q0 -46 -25 -82.5t-54 -59.5l-17 22q12 12 23 31.5t14 44.5q-22 1 -38.5 16.5t-16.5 38.5q0 24 16.5 40t38.5 16q26 0 42.5 -18z" />
    <glyph glyph-name="gdotaccent.sc" horiz-adv-x="688" 
d="M357 310h267v-310h-56l-15 93q-28 -40 -82 -72t-135 -32q-80 0 -149 42.5t-109.5 115t-40.5 158.5t40.5 158.5t110 115t150.5 42.5q74 0 132 -29t94 -76t49 -101h-91q-19 52 -66 86.5t-118 34.5q-58 0 -106 -30t-76 -82.5t-28 -118.5t28 -119t76 -82.5t107 -29.5
q54 0 96.5 21.5t67.5 57.5t29 78h-175v79zM298.5 694.5q-15.5 15.5 -15.5 38.5q0 24 15.5 39.5t38.5 15.5t39 -15.5t16 -39.5q0 -23 -16 -38.5t-39 -15.5t-38.5 15.5z" />
    <glyph glyph-name="hbar.sc" horiz-adv-x="671" 
d="M574 524h84v-78h-84v-446h-92v270h-294v-270h-92v446h-83v78h83v86h92v-87h294v87h92v-86zM188 447v-91h294v91h-294z" />
    <glyph glyph-name="hcircumflex.sc" horiz-adv-x="627" 
d="M461 356v254h92v-610h-92v270h-294v-270h-92v610h92v-254h294zM353 802l110 -137h-83l-67 85l-67 -85h-81l110 137h78z" />
    <glyph glyph-name="iacute.sc" horiz-adv-x="242" 
d="M167 0h-92v610h92v-610zM144 665h-70l74 137h97z" />
    <glyph glyph-name="ibreve.sc" horiz-adv-x="242" 
d="M167 0h-92v610h92v-610zM20.5 707q-38.5 37 -42.5 91h68q4 -31 22.5 -49.5t52.5 -18.5t52.5 18.5t22.5 49.5h68q-4 -54 -42.5 -91t-100.5 -37t-100.5 37z" />
    <glyph glyph-name="icircumflex.sc" horiz-adv-x="242" 
d="M167 0h-92v610h92v-610zM160 802l110 -137h-83l-67 85l-67 -85h-81l110 137h78z" />
    <glyph glyph-name="idieresis.sc" horiz-adv-x="242" 
d="M167 0h-92v610h92v-610zM11 697q-15 15 -15 36q0 22 15 37t36 15q22 0 37 -15t15 -37t-15 -36.5t-37 -14.5q-21 0 -36 15zM159 697q-15 15 -15 36q0 22 15 37t36 15q22 0 37 -15t15 -37t-15 -36.5t-37 -14.5q-21 0 -36 15z" />
    <glyph glyph-name="i.sc.loclTRK" horiz-adv-x="242" 
d="M167 0h-92v610h92v-610zM82.5 694.5q-15.5 15.5 -15.5 38.5q0 24 15.5 39.5t38.5 15.5t39 -15.5t16 -39.5q0 -23 -16 -38.5t-39 -15.5t-38.5 15.5z" />
    <glyph glyph-name="igrave.sc" horiz-adv-x="242" 
d="M167 0h-92v610h92v-610zM169 665h-70l-102 137h97z" />
    <glyph glyph-name="imacron.sc" horiz-adv-x="242" 
d="M167 0h-92v610h92v-610zM256 699h-271v69h271v-69z" />
    <glyph glyph-name="iogonek.sc" horiz-adv-x="242" 
d="M167 0q-74 -47 -74 -105q0 -23 12.5 -36t33.5 -13q17 0 28 5v-53q-22 -6 -40 -6q-41 0 -68 25t-27 67q0 37 20 67.5t49 48.5h-26v610h92v-610z" />
    <glyph glyph-name="ij.sc" horiz-adv-x="734" 
d="M167 0h-92v610h92v-610zM351.5 15q-47.5 26 -74 68.5t-26.5 90.5h92q1 -41 32.5 -70t82.5 -29q53 0 83.5 34.5t30.5 98.5v402h92v-401q0 -64 -26 -114t-73 -78t-107 -28q-59 0 -106.5 26z" />
    <glyph glyph-name="iacute_j.loclNLD.sc" horiz-adv-x="734" 
d="M167 0h-92v610h92v-610zM144 665h-70l74 137h97zM351.5 15q-47.5 26 -74 68.5t-26.5 90.5h92q1 -41 32.5 -70t82.5 -29q53 0 83.5 34.5t30.5 98.5v402h92v-401q0 -64 -26 -114t-73 -78t-107 -28q-59 0 -106.5 26zM641 665h-70l74 137h97z" />
    <glyph glyph-name="jcircumflex.sc" horiz-adv-x="492" 
d="M109.5 15q-47.5 26 -74 68.5t-26.5 90.5h92q1 -41 32.5 -70t82.5 -29q53 0 83.5 34.5t30.5 98.5v402h92v-401q0 -64 -26 -114t-73 -78t-107 -28q-59 0 -106.5 26zM416 802l110 -137h-83l-67 85l-67 -85h-81l110 137h78z" />
    <glyph glyph-name="uni0137.sc" horiz-adv-x="525" 
d="M268 313l266 -313h-116l-251 302v-302h-92v610h92v-292l241 292h109zM331.5 -93q16.5 -18 16.5 -49q0 -46 -25 -82.5t-54 -59.5l-17 22q12 12 23 31.5t14 44.5q-22 1 -38.5 16.5t-16.5 38.5q0 24 16.5 40t38.5 16q26 0 42.5 -18z" />
    <glyph glyph-name="lacute.sc" horiz-adv-x="479" 
d="M471 0h-396v610h92v-526h304v-84zM144 665h-70l74 137h97z" />
    <glyph glyph-name="lcaron.sc" horiz-adv-x="479" 
d="M471 0h-396v610h92v-526h304v-84zM262 465h-54l32 145h86z" />
    <glyph glyph-name="uni013C.sc" horiz-adv-x="479" 
d="M471 0h-396v610h92v-526h304v-84zM312.5 -93q16.5 -18 16.5 -49q0 -46 -25 -82.5t-54 -59.5l-17 22q12 12 23 31.5t14 44.5q-22 1 -38.5 16.5t-16.5 38.5q0 24 16.5 40t38.5 16q26 0 42.5 -18z" />
    <glyph glyph-name="ldot.sc" horiz-adv-x="479" 
d="M471 0h-396v610h92v-526h304v-84zM317.5 295.5q-17.5 17.5 -17.5 43.5q0 25 17.5 42.5t42.5 17.5t43 -17.5t18 -42.5t-17.5 -43t-43.5 -18q-25 0 -42.5 17.5z" />
    <glyph glyph-name="lslash.sc" horiz-adv-x="500" 
d="M188 266v-182h304v-84h-396v211l-83 -50v85l83 50v314h92v-259l146 87v-85z" />
    <glyph glyph-name="nacute.sc" horiz-adv-x="637" 
d="M472 152v458h90v-610h-84l-313 458v-458h-90v610h84zM346 665h-70l74 137h97z" />
    <glyph glyph-name="ncaron.sc" horiz-adv-x="637" 
d="M472 152v458h90v-610h-84l-313 458v-458h-90v610h84zM323 717l66 85h83l-110 -137h-78l-110 137h82z" />
    <glyph glyph-name="uni0146.sc" horiz-adv-x="637" 
d="M472 152v458h90v-610h-84l-313 458v-458h-90v610h84zM362.5 -93q16.5 -18 16.5 -49q0 -46 -25 -82.5t-54 -59.5l-17 22q12 12 23 31.5t14 44.5q-22 1 -38.5 16.5t-16.5 38.5q0 24 16.5 40t38.5 16q26 0 42.5 -18z" />
    <glyph glyph-name="eng.sc" horiz-adv-x="637" 
d="M472 610h90v-633q0 -89 -39.5 -133.5t-110.5 -44.5q-31 0 -63 9v81q23 -7 43 -7q80 0 80 96v31l-307 449v-458h-90v610h84l313 -458v458z" />
    <glyph glyph-name="ntilde.sc" horiz-adv-x="637" 
d="M472 152v458h90v-610h-84l-313 458v-458h-90v610h84zM344.5 680.5q-16.5 9.5 -35.5 27.5q-13 12 -22 18t-20 6q-16 0 -27 -15t-11 -40h-61q0 58 26.5 88.5t66.5 30.5q25 0 42 -10t35 -27q14 -12 22.5 -17.5t18.5 -5.5q17 0 28 14.5t11 39.5h60q0 -57 -26.5 -88t-65.5 -31
q-25 0 -41.5 9.5z" />
    <glyph glyph-name="oacute.sc" horiz-adv-x="677" 
d="M187.5 31.5q-69.5 42.5 -110 115t-40.5 158.5t40.5 158.5t110 115t150.5 42.5q82 0 151 -42.5t110 -115t41 -158.5t-41 -158.5t-110 -115t-151 -42.5q-81 0 -150.5 42.5zM444 105q48 30 76 82.5t28 117.5t-28 117.5t-76 82.5t-106 30q-57 0 -105 -30t-76 -82.5
t-28 -117.5t28 -117.5t76 -82.5t105 -30q58 0 106 30zM361 665h-70l74 137h97z" />
    <glyph glyph-name="obreve.sc" horiz-adv-x="677" 
d="M187.5 31.5q-69.5 42.5 -110 115t-40.5 158.5t40.5 158.5t110 115t150.5 42.5q82 0 151 -42.5t110 -115t41 -158.5t-41 -158.5t-110 -115t-151 -42.5q-81 0 -150.5 42.5zM444 105q48 30 76 82.5t28 117.5t-28 117.5t-76 82.5t-106 30q-57 0 -105 -30t-76 -82.5
t-28 -117.5t28 -117.5t76 -82.5t105 -30q58 0 106 30zM237.5 707q-38.5 37 -42.5 91h68q4 -31 22.5 -49.5t52.5 -18.5t52.5 18.5t22.5 49.5h68q-4 -54 -42.5 -91t-100.5 -37t-100.5 37z" />
    <glyph glyph-name="ocircumflex.sc" horiz-adv-x="677" 
d="M187.5 31.5q-69.5 42.5 -110 115t-40.5 158.5t40.5 158.5t110 115t150.5 42.5q82 0 151 -42.5t110 -115t41 -158.5t-41 -158.5t-110 -115t-151 -42.5q-81 0 -150.5 42.5zM444 105q48 30 76 82.5t28 117.5t-28 117.5t-76 82.5t-106 30q-57 0 -105 -30t-76 -82.5
t-28 -117.5t28 -117.5t76 -82.5t105 -30q58 0 106 30zM378 802l110 -137h-83l-67 85l-67 -85h-81l110 137h78z" />
    <glyph glyph-name="odieresis.sc" horiz-adv-x="677" 
d="M187.5 31.5q-69.5 42.5 -110 115t-40.5 158.5t40.5 158.5t110 115t150.5 42.5q82 0 151 -42.5t110 -115t41 -158.5t-41 -158.5t-110 -115t-151 -42.5q-81 0 -150.5 42.5zM444 105q48 30 76 82.5t28 117.5t-28 117.5t-76 82.5t-106 30q-57 0 -105 -30t-76 -82.5
t-28 -117.5t28 -117.5t76 -82.5t105 -30q58 0 106 30zM212 697q-15 15 -15 36q0 22 15 37t36 15q22 0 37 -15t15 -37t-15 -36.5t-37 -14.5q-21 0 -36 15zM392.5 697q-15.5 15 -15.5 36q0 22 15.5 37t36.5 15q20 0 35.5 -15t15.5 -37q0 -21 -15 -36t-36 -15t-36.5 15z" />
    <glyph glyph-name="ograve.sc" horiz-adv-x="677" 
d="M187.5 31.5q-69.5 42.5 -110 115t-40.5 158.5t40.5 158.5t110 115t150.5 42.5q82 0 151 -42.5t110 -115t41 -158.5t-41 -158.5t-110 -115t-151 -42.5q-81 0 -150.5 42.5zM444 105q48 30 76 82.5t28 117.5t-28 117.5t-76 82.5t-106 30q-57 0 -105 -30t-76 -82.5
t-28 -117.5t28 -117.5t76 -82.5t105 -30q58 0 106 30zM386 665h-70l-102 137h97z" />
    <glyph glyph-name="ohungarumlaut.sc" horiz-adv-x="677" 
d="M187.5 31.5q-69.5 42.5 -110 115t-40.5 158.5t40.5 158.5t110 115t150.5 42.5q82 0 151 -42.5t110 -115t41 -158.5t-41 -158.5t-110 -115t-151 -42.5q-81 0 -150.5 42.5zM444 105q48 30 76 82.5t28 117.5t-28 117.5t-76 82.5t-106 30q-57 0 -105 -30t-76 -82.5
t-28 -117.5t28 -117.5t76 -82.5t105 -30q58 0 106 30zM300 665h-66l83 137h93zM444 665h-66l83 137h94z" />
    <glyph glyph-name="omacron.sc" horiz-adv-x="677" 
d="M187.5 31.5q-69.5 42.5 -110 115t-40.5 158.5t40.5 158.5t110 115t150.5 42.5q82 0 151 -42.5t110 -115t41 -158.5t-41 -158.5t-110 -115t-151 -42.5q-81 0 -150.5 42.5zM444 105q48 30 76 82.5t28 117.5t-28 117.5t-76 82.5t-106 30q-57 0 -105 -30t-76 -82.5
t-28 -117.5t28 -117.5t76 -82.5t105 -30q58 0 106 30zM474 699h-271v69h271v-69z" />
    <glyph glyph-name="oslash.sc" horiz-adv-x="677" 
d="M640 563l-63 -65q63 -85 63 -193q0 -86 -41 -158.5t-110 -115t-151 -42.5q-52 0 -99.5 17.5t-86.5 50.5l-62 -63l-53 53l63 65q-30 41 -46.5 90t-16.5 103q0 86 40.5 158.5t110 115t150.5 42.5q52 0 100 -18t88 -51l61 64zM231.5 507q-48.5 -30 -76.5 -83t-28 -119
q0 -74 35 -131l307 316q-56 47 -131 47q-58 0 -106.5 -30zM444.5 103q48.5 30 76.5 83t28 119q0 72 -35 131l-305 -316q55 -47 129 -47q58 0 106.5 30z" />
    <glyph glyph-name="oslashacute.sc" horiz-adv-x="677" 
d="M640 563l-63 -65q63 -85 63 -193q0 -86 -41 -158.5t-110 -115t-151 -42.5q-52 0 -99.5 17.5t-86.5 50.5l-62 -63l-53 53l63 65q-30 41 -46.5 90t-16.5 103q0 86 40.5 158.5t110 115t150.5 42.5q52 0 100 -18t88 -51l61 64zM231.5 507q-48.5 -30 -76.5 -83t-28 -119
q0 -74 35 -131l307 316q-56 47 -131 47q-58 0 -106.5 -30zM444.5 103q48.5 30 76.5 83t28 119q0 72 -35 131l-305 -316q55 -47 129 -47q58 0 106.5 30zM361 665h-70l74 137h97z" />
    <glyph glyph-name="otilde.sc" horiz-adv-x="677" 
d="M187.5 31.5q-69.5 42.5 -110 115t-40.5 158.5t40.5 158.5t110 115t150.5 42.5q82 0 151 -42.5t110 -115t41 -158.5t-41 -158.5t-110 -115t-151 -42.5q-81 0 -150.5 42.5zM444 105q48 30 76 82.5t28 117.5t-28 117.5t-76 82.5t-106 30q-57 0 -105 -30t-76 -82.5
t-28 -117.5t28 -117.5t76 -82.5t105 -30q58 0 106 30zM359.5 680.5q-16.5 9.5 -35.5 27.5q-13 12 -22 18t-20 6q-16 0 -27 -15t-11 -40h-61q0 58 26.5 88.5t66.5 30.5q25 0 42 -10t35 -27q14 -12 22.5 -17.5t18.5 -5.5q17 0 28 14.5t11 39.5h60q0 -57 -26.5 -88t-65.5 -31
q-25 0 -41.5 9.5z" />
    <glyph glyph-name="oe.sc" horiz-adv-x="832" 
d="M498 85h297v-85h-441q-91 0 -163.5 39.5t-113 109t-40.5 156.5t40.5 156.5t113 109t163.5 39.5h431v-85h-287v-169h264v-83h-264v-188zM407 85v440h-53q-65 0 -116 -28.5t-80 -78.5t-29 -113t29 -113t80 -78.5t116 -28.5h53z" />
    <glyph glyph-name="thorn.sc" horiz-adv-x="583" 
d="M347 513q61 0 110 -26t76.5 -70t27.5 -97t-27.5 -97.5t-76.5 -70t-110 -25.5h-180v-127h-92v610h92v-97h180zM345 212q57 0 90.5 30t33.5 78t-33.5 78t-90.5 30h-178v-216h178z" />
    <glyph glyph-name="racute.sc" horiz-adv-x="565" 
d="M432 0l-135 227h-130v-227h-92v610h241q62 0 109 -24.5t73 -68t26 -98.5q0 -66 -36.5 -113.5t-98.5 -67.5l148 -238h-105zM167 525v-214h148q55 0 86 29t31 79q0 48 -31.5 77t-85.5 29h-148zM308 665h-70l74 137h97z" />
    <glyph glyph-name="rcaron.sc" horiz-adv-x="565" 
d="M432 0l-135 227h-130v-227h-92v610h241q62 0 109 -24.5t73 -68t26 -98.5q0 -66 -36.5 -113.5t-98.5 -67.5l148 -238h-105zM167 525v-214h148q55 0 86 29t31 79q0 48 -31.5 77t-85.5 29h-148zM285 717l66 85h83l-110 -137h-78l-110 137h82z" />
    <glyph glyph-name="uni0157.sc" horiz-adv-x="565" 
d="M432 0l-135 227h-130v-227h-92v610h241q62 0 109 -24.5t73 -68t26 -98.5q0 -66 -36.5 -113.5t-98.5 -67.5l148 -238h-105zM167 525v-214h148q55 0 86 29t31 79q0 48 -31.5 77t-85.5 29h-148zM342.5 -93q16.5 -18 16.5 -49q0 -46 -25 -82.5t-54 -59.5l-17 22
q12 12 23 31.5t14 44.5q-22 1 -38.5 16.5t-16.5 38.5q0 24 16.5 40t38.5 16q26 0 42.5 -18z" />
    <glyph glyph-name="sacute.sc" horiz-adv-x="511" 
d="M144 13.5q-50 24.5 -78 67.5t-31 96h92q3 -47 38.5 -76t92.5 -29q58 0 89.5 25t31.5 66q0 31 -18.5 51.5t-46 32.5t-75.5 28q-61 21 -98 39t-63 52.5t-26 89.5q0 45 24.5 82.5t70 60t106.5 22.5q56 0 101.5 -23t73.5 -64.5t32 -95.5h-92q-4 46 -36 73t-79 27
q-52 0 -80.5 -24t-28.5 -59q0 -29 17.5 -48t44.5 -30.5t73 -26.5q62 -21 100 -39.5t65 -54t27 -92.5q0 -50 -25.5 -90t-73.5 -62.5t-113 -22.5t-115 24.5zM278 665h-70l74 137h97z" />
    <glyph glyph-name="scaron.sc" horiz-adv-x="511" 
d="M144 13.5q-50 24.5 -78 67.5t-31 96h92q3 -47 38.5 -76t92.5 -29q58 0 89.5 25t31.5 66q0 31 -18.5 51.5t-46 32.5t-75.5 28q-61 21 -98 39t-63 52.5t-26 89.5q0 45 24.5 82.5t70 60t106.5 22.5q56 0 101.5 -23t73.5 -64.5t32 -95.5h-92q-4 46 -36 73t-79 27
q-52 0 -80.5 -24t-28.5 -59q0 -29 17.5 -48t44.5 -30.5t73 -26.5q62 -21 100 -39.5t65 -54t27 -92.5q0 -50 -25.5 -90t-73.5 -62.5t-113 -22.5t-115 24.5zM255 717l66 85h83l-110 -137h-78l-110 137h82z" />
    <glyph glyph-name="scedilla.sc" horiz-adv-x="511" 
d="M417.5 41.5q-53.5 -48.5 -146.5 -52.5l-14 -30q43 -3 67.5 -25.5t24.5 -55.5q0 -40 -28.5 -63t-87.5 -23q-32 0 -60 10v49q23 -7 49 -7q67 0 67 36q0 16 -15 25.5t-47 9.5q-21 0 -38 -5l33 81q-83 10 -133 61.5t-54 124.5h92q3 -47 38.5 -76t92.5 -29q58 0 89.5 25
t31.5 66q0 31 -18.5 51.5t-46 32.5t-75.5 28q-61 21 -98 39t-63 52.5t-26 89.5q0 45 24.5 82.5t70 60t106.5 22.5q56 0 101.5 -23t73.5 -64.5t32 -95.5h-92q-4 46 -36 73t-79 27q-52 0 -80.5 -24t-28.5 -59q0 -29 17.5 -48t44.5 -30.5t73 -26.5q62 -21 100 -39.5t65 -54
t27 -92.5q0 -74 -53.5 -122.5z" />
    <glyph glyph-name="scircumflex.sc" horiz-adv-x="511" 
d="M144 13.5q-50 24.5 -78 67.5t-31 96h92q3 -47 38.5 -76t92.5 -29q58 0 89.5 25t31.5 66q0 31 -18.5 51.5t-46 32.5t-75.5 28q-61 21 -98 39t-63 52.5t-26 89.5q0 45 24.5 82.5t70 60t106.5 22.5q56 0 101.5 -23t73.5 -64.5t32 -95.5h-92q-4 46 -36 73t-79 27
q-52 0 -80.5 -24t-28.5 -59q0 -29 17.5 -48t44.5 -30.5t73 -26.5q62 -21 100 -39.5t65 -54t27 -92.5q0 -50 -25.5 -90t-73.5 -62.5t-113 -22.5t-115 24.5zM294 802l110 -137h-83l-67 85l-67 -85h-81l110 137h78z" />
    <glyph glyph-name="uni0219.sc" horiz-adv-x="511" 
d="M144 13.5q-50 24.5 -78 67.5t-31 96h92q3 -47 38.5 -76t92.5 -29q58 0 89.5 25t31.5 66q0 31 -18.5 51.5t-46 32.5t-75.5 28q-61 21 -98 39t-63 52.5t-26 89.5q0 45 24.5 82.5t70 60t106.5 22.5q56 0 101.5 -23t73.5 -64.5t32 -95.5h-92q-4 46 -36 73t-79 27
q-52 0 -80.5 -24t-28.5 -59q0 -29 17.5 -48t44.5 -30.5t73 -26.5q62 -21 100 -39.5t65 -54t27 -92.5q0 -50 -25.5 -90t-73.5 -62.5t-113 -22.5t-115 24.5zM300.5 -93q16.5 -18 16.5 -49q0 -46 -25 -82.5t-54 -59.5l-17 22q12 12 23 31.5t14 44.5q-22 1 -38.5 16.5
t-16.5 38.5q0 24 16.5 40t38.5 16q26 0 42.5 -18z" />
    <glyph glyph-name="germandbls.sc" horiz-adv-x="597" 
d="M470.5 331.5q42.5 -22.5 67 -62t24.5 -89.5q0 -52 -24.5 -93t-69 -64t-102.5 -23h-91v85h87q51 0 79.5 26t28.5 72q0 43 -28.5 68.5t-79.5 25.5h-79v76l142 174h-158q-50 0 -77.5 -28.5t-27.5 -82.5v-416h-92v416q0 57 25 101t69.5 68.5t102.5 24.5h258v-74l-149 -182
q52 0 94.5 -22.5z" />
    <glyph glyph-name="tbar.sc" horiz-adv-x="492" 
d="M478 610v-86h-186v-195h99v-79h-99v-250h-92v250h-98v79h98v195h-186v86h464z" />
    <glyph glyph-name="tcaron.sc" horiz-adv-x="492" 
d="M292 0h-92v524h-186v86h464v-86h-186v-524zM246 717l66 85h83l-110 -137h-78l-110 137h82z" />
    <glyph glyph-name="uni0163.sc" horiz-adv-x="492" 
d="M292 0h-30l-19 -41q43 -3 67.5 -25.5t24.5 -55.5q0 -40 -28.5 -63t-87.5 -23q-32 0 -60 10v49q23 -7 49 -7q67 0 67 36q0 16 -15 25.5t-47 9.5q-21 0 -38 -5l37 90h-12v524h-186v86h464v-86h-186v-524z" />
    <glyph glyph-name="uni021B.sc" horiz-adv-x="492" 
d="M292 0h-92v524h-186v86h464v-86h-186v-524zM285.5 -93q16.5 -18 16.5 -49q0 -46 -25 -82.5t-54 -59.5l-17 22q12 12 23 31.5t14 44.5q-22 1 -38.5 16.5t-16.5 38.5q0 24 16.5 40t38.5 16q26 0 42.5 -18z" />
    <glyph glyph-name="uacute.sc" horiz-adv-x="630" 
d="M186.5 21q-55.5 32 -86 89.5t-30.5 132.5v367h92v-367q0 -78 41.5 -123t111.5 -45t111.5 45t41.5 123v367h92v-367q0 -75 -31 -132.5t-86.5 -89.5t-127.5 -32q-73 0 -128.5 32zM338 665h-70l74 137h97z" />
    <glyph glyph-name="uni0289.sc" horiz-adv-x="673" 
d="M665 399v-78h-83v-78q0 -75 -31 -132.5t-86.5 -89.5t-127.5 -32q-73 0 -128.5 32t-86.5 89.5t-31 132.5v78h-83v78h83v211h92v-211h307v211h92v-211h83zM490 321h-307v-78q0 -78 42 -123t112 -45t111.5 45t41.5 123v78z" />
    <glyph glyph-name="ubreve.sc" horiz-adv-x="630" 
d="M186.5 21q-55.5 32 -86 89.5t-30.5 132.5v367h92v-367q0 -78 41.5 -123t111.5 -45t111.5 45t41.5 123v367h92v-367q0 -75 -31 -132.5t-86.5 -89.5t-127.5 -32q-73 0 -128.5 32zM214.5 707q-38.5 37 -42.5 91h68q4 -31 22.5 -49.5t52.5 -18.5t52.5 18.5t22.5 49.5h68
q-4 -54 -42.5 -91t-100.5 -37t-100.5 37z" />
    <glyph glyph-name="ucircumflex.sc" horiz-adv-x="630" 
d="M186.5 21q-55.5 32 -86 89.5t-30.5 132.5v367h92v-367q0 -78 41.5 -123t111.5 -45t111.5 45t41.5 123v367h92v-367q0 -75 -31 -132.5t-86.5 -89.5t-127.5 -32q-73 0 -128.5 32zM354 802l110 -137h-83l-67 85l-67 -85h-81l110 137h78z" />
    <glyph glyph-name="udieresis.sc" horiz-adv-x="630" 
d="M186.5 21q-55.5 32 -86 89.5t-30.5 132.5v367h92v-367q0 -78 41.5 -123t111.5 -45t111.5 45t41.5 123v367h92v-367q0 -75 -31 -132.5t-86.5 -89.5t-127.5 -32q-73 0 -128.5 32zM188 697q-15 15 -15 36q0 22 15 37t36 15q22 0 37 -15t15 -37t-15 -36.5t-37 -14.5
q-21 0 -36 15zM368.5 697q-15.5 15 -15.5 36q0 22 15.5 37t36.5 15q20 0 35.5 -15t15.5 -37q0 -21 -15 -36t-36 -15t-36.5 15z" />
    <glyph glyph-name="ugrave.sc" horiz-adv-x="630" 
d="M186.5 21q-55.5 32 -86 89.5t-30.5 132.5v367h92v-367q0 -78 41.5 -123t111.5 -45t111.5 45t41.5 123v367h92v-367q0 -75 -31 -132.5t-86.5 -89.5t-127.5 -32q-73 0 -128.5 32zM363 665h-70l-102 137h97z" />
    <glyph glyph-name="uhungarumlaut.sc" horiz-adv-x="630" 
d="M186.5 21q-55.5 32 -86 89.5t-30.5 132.5v367h92v-367q0 -78 41.5 -123t111.5 -45t111.5 45t41.5 123v367h92v-367q0 -75 -31 -132.5t-86.5 -89.5t-127.5 -32q-73 0 -128.5 32zM276 665h-66l83 137h93zM420 665h-66l83 137h94z" />
    <glyph glyph-name="umacron.sc" horiz-adv-x="630" 
d="M186.5 21q-55.5 32 -86 89.5t-30.5 132.5v367h92v-367q0 -78 41.5 -123t111.5 -45t111.5 45t41.5 123v367h92v-367q0 -75 -31 -132.5t-86.5 -89.5t-127.5 -32q-73 0 -128.5 32zM450 699h-271v69h271v-69z" />
    <glyph glyph-name="uogonek.sc" horiz-adv-x="630" 
d="M468 610h92v-367q0 -65 -24.5 -119t-73.5 -92q-52 -41 -79 -73t-27 -64q0 -23 14 -36t39 -13q17 0 32 5v-52q-19 -7 -44 -7q-46 0 -74.5 25t-28.5 67q0 32 17 59.5t46 48.5q-21 -3 -42 -3q-73 0 -128.5 32t-86 89.5t-30.5 132.5v367h92v-367q0 -78 41.5 -123t111.5 -45
t111.5 45t41.5 123v367z" />
    <glyph glyph-name="uring.sc" horiz-adv-x="630" 
d="M186.5 21q-55.5 32 -86 89.5t-30.5 132.5v367h92v-367q0 -78 41.5 -123t111.5 -45t111.5 45t41.5 123v367h92v-367q0 -75 -31 -132.5t-86.5 -89.5t-127.5 -32q-73 0 -128.5 32zM243.5 693.5q-28.5 27.5 -28.5 67.5t28.5 68t70.5 28t70.5 -28t28.5 -68t-28.5 -67.5
t-70.5 -27.5t-70.5 27.5zM346 729q13 12 13 32t-13 32.5t-32 12.5t-32 -12.5t-13 -32.5t13 -32t32 -12t32 12z" />
    <glyph glyph-name="wacute.sc" horiz-adv-x="794" 
d="M568 154l128 456h91l-181 -610h-70l-138 449l-139 -449h-69l-183 610h94l127 -456l139 456h64zM422 665h-70l74 137h97z" />
    <glyph glyph-name="wcircumflex.sc" horiz-adv-x="794" 
d="M568 154l128 456h91l-181 -610h-70l-138 449l-139 -449h-69l-183 610h94l127 -456l139 456h64zM439 802l110 -137h-83l-67 85l-67 -85h-81l110 137h78z" />
    <glyph glyph-name="wdieresis.sc" horiz-adv-x="794" 
d="M568 154l128 456h91l-181 -610h-70l-138 449l-139 -449h-69l-183 610h94l127 -456l139 456h64zM273 697q-15 15 -15 36q0 22 15 37t36 15q22 0 37 -15t15 -37t-15 -36.5t-37 -14.5q-21 0 -36 15zM453.5 697q-15.5 15 -15.5 36q0 22 15.5 37t36.5 15q20 0 35.5 -15
t15.5 -37q0 -21 -15 -36t-36 -15t-36.5 15z" />
    <glyph glyph-name="wgrave.sc" horiz-adv-x="794" 
d="M568 154l128 456h91l-181 -610h-70l-138 449l-139 -449h-69l-183 610h94l127 -456l139 456h64zM447 665h-70l-102 137h97z" />
    <glyph glyph-name="yacute.sc" horiz-adv-x="516" 
d="M260 318l158 292h98l-212 -376v-234h-92v234l-212 376h101zM282 665h-70l74 137h97z" />
    <glyph glyph-name="ycircumflex.sc" horiz-adv-x="516" 
d="M260 318l158 292h98l-212 -376v-234h-92v234l-212 376h101zM299 802l110 -137h-83l-67 85l-67 -85h-81l110 137h78z" />
    <glyph glyph-name="ydieresis.sc" horiz-adv-x="516" 
d="M260 318l158 292h98l-212 -376v-234h-92v234l-212 376h101zM133 697q-15 15 -15 36q0 22 15 37t36 15q22 0 37 -15t15 -37t-15 -36.5t-37 -14.5q-21 0 -36 15zM313.5 697q-15.5 15 -15.5 36q0 22 15.5 37t36.5 15q20 0 35.5 -15t15.5 -37q0 -21 -15 -36t-36 -15t-36.5 15
z" />
    <glyph glyph-name="ygrave.sc" horiz-adv-x="516" 
d="M260 318l158 292h98l-212 -376v-234h-92v234l-212 376h101zM308 665h-70l-102 137h97z" />
    <glyph glyph-name="uni0233.sc" horiz-adv-x="516" 
d="M260 318l158 292h98l-212 -376v-234h-92v234l-212 376h101zM395 699h-271v69h271v-69z" />
    <glyph glyph-name="zacute.sc" horiz-adv-x="512" 
d="M468 541l-321 -455h334v-86h-450v69l322 455h-311v86h426v-69zM278 665h-70l74 137h97z" />
    <glyph glyph-name="zcaron.sc" horiz-adv-x="512" 
d="M468 541l-321 -455h334v-86h-450v69l322 455h-311v86h426v-69zM256 717l66 85h83l-110 -137h-78l-110 137h82z" />
    <glyph glyph-name="zdotaccent.sc" horiz-adv-x="512" 
d="M468 541l-321 -455h334v-86h-450v69l322 455h-311v86h426v-69zM216.5 694.5q-15.5 15.5 -15.5 38.5q0 24 15.5 39.5t38.5 15.5t39 -15.5t16 -39.5q0 -23 -16 -38.5t-39 -15.5t-38.5 15.5z" />
    <glyph glyph-name="Idieresis_Idieresis.dlig" horiz-adv-x="517" 
d="M19 787q-15 15 -15 36q0 22 15.5 37t35.5 15q22 0 37 -15t15 -37t-15 -36.5t-37 -14.5q-21 0 -36 15zM222.5 787q-15.5 15 -15.5 36q0 22 15.5 37t36.5 15t36 -15t15 -37t-15 -36.5t-36 -14.5t-36.5 15zM425.5 787q-15.5 15 -15.5 36q0 22 15.5 37t36.5 15t36 -15t15 -37
t-15 -36.5t-36 -14.5t-36.5 15zM175 0h-92v700h92v-700zM434 0h-92v700h92v-700z" />
    <glyph glyph-name="f_f_b.dlig" horiz-adv-x="1150" 
d="M997 480.5q53 -33.5 84.5 -93.5t31.5 -135t-31.5 -135t-84.5 -94t-116 -34q-37 0 -69.5 13t-54.5 30.5t-31 30.5h-5l-19 -63h-64v628q-27 7 -59 7q-58 0 -92.5 -32t-34.5 -92v-8h114v-78h-112v-425h-87v425h-184v-425h-86v425h-70v78h70v21q0 78 41.5 122.5t106.5 44.5
q25 0 52 -9v-75q-16 6 -35 6q-38 0 -59 -22.5t-21 -68.5v-19h185v9q0 94 57 147.5t154 53.5q84 0 146 -26v-245h5q16 23 58 47.5t94 24.5q63 0 116 -33.5zM950.5 93q34.5 23 55 64.5t20.5 94.5t-20.5 94t-55 64t-75.5 23t-75.5 -23t-55 -64t-20.5 -94t20.5 -94.5t55 -64.5
t75.5 -23t75.5 23z" />
    <glyph glyph-name="f_f_h.dlig" horiz-adv-x="1134" 
d="M974.5 486.5q45.5 -27.5 71 -77.5t25.5 -116v-293h-86v290q0 65 -36 104t-92 39q-59 0 -96 -39t-37 -104v-290h-86v628q-27 7 -59 7q-58 0 -92.5 -32t-34.5 -92v-8h114v-78h-112v-425h-87v425h-184v-425h-86v425h-70v78h70v21q0 78 41.5 122.5t106.5 44.5q25 0 52 -9v-75
q-16 6 -35 6q-38 0 -59 -22.5t-21 -68.5v-19h185v9q0 94 57 147.5t154 53.5q84 0 146 -26v-247h5q18 28 56 51t88 23q56 0 101.5 -27.5z" />
    <glyph glyph-name="f_f_k.dlig" horiz-adv-x="1037" 
d="M1046 0h-110l-212 249v-249h-86v628q-27 7 -59 7q-58 0 -92.5 -32t-34.5 -92v-8h114v-78h-112v-425h-87v425h-184v-425h-86v425h-70v78h70v21q0 78 41.5 122.5t106.5 44.5q25 0 52 -9v-75q-16 6 -35 6q-38 0 -59 -22.5t-21 -68.5v-19h185v9q0 94 57 147.5t154 53.5
q84 0 146 -26v-419l197 235h103l-205 -241z" />
    <glyph glyph-name="c_t.dlig" horiz-adv-x="868" 
d="M834 425h-114v-265q0 -45 21.5 -67.5t58.5 -22.5q19 0 34 7v-79q-27 -9 -52 -9q-65 0 -106.5 45t-41.5 123v268h-86v75h38q61 0 61 61q0 49 -35.5 82.5t-92.5 33.5q-53 0 -86.5 -32t-33.5 -84q0 -39 12 -64.5t37 -59.5q23 -30 36.5 -55t20.5 -61h-86q-14 49 -49.5 80.5
t-89.5 31.5q-42 0 -78 -23t-57.5 -64t-21.5 -94t21.5 -94.5t57 -64.5t78.5 -23q54 0 89.5 31.5t49.5 80.5h86q-10 -51 -41 -95t-78.5 -71t-105.5 -27q-66 0 -121.5 34.5t-88.5 95t-33 133.5t33 133t88.5 94.5t121.5 34.5q28 0 52 -6q-10 27 -10 61q0 50 25.5 92.5t70 67
t99.5 24.5q60 0 106 -24.5t71.5 -69t25.5 -102.5v-54h114v-78z" />
    <glyph glyph-name="f_b.dlig" horiz-adv-x="879" 
d="M726 480.5q53 -33.5 84.5 -93.5t31.5 -135t-31.5 -135t-84.5 -94t-115 -34q-54 0 -96 25t-60 49h-5l-18 -63h-65v629q-28 6 -58 6q-59 0 -93 -32t-34 -92v-8h113v-78h-112v-425h-86v425h-70v78h70v9q0 94 56.5 147.5t153.5 53.5q85 0 147 -26v-245h5q8 12 29.5 29
t53.5 30t69 13q62 0 115 -33.5zM680.5 93q34.5 23 55 64.5t20.5 94.5t-20.5 94t-55 64t-75.5 23t-75.5 -23t-55 -64t-20.5 -94t20.5 -94.5t55 -64.5t75.5 -23t75.5 23z" />
    <glyph glyph-name="f_h.dlig" horiz-adv-x="864" 
d="M704.5 486.5q45.5 -27.5 71 -77.5t25.5 -116v-293h-87v290q0 65 -36 104t-92 39q-59 0 -95.5 -39t-36.5 -104v-290h-87v629q-28 6 -58 6q-59 0 -93 -32t-34 -92v-8h113v-78h-112v-425h-86v425h-70v78h70v9q0 94 56.5 147.5t153.5 53.5q85 0 147 -26v-247h5
q17 27 55.5 50.5t88.5 23.5q56 0 101.5 -27.5z" />
    <glyph glyph-name="f_k.dlig" horiz-adv-x="768" 
d="M777 0h-110l-213 249v-249h-87v629q-28 6 -58 6q-59 0 -93 -32t-34 -92v-8h113v-78h-112v-425h-86v425h-70v78h70v9q0 94 56.5 147.5t153.5 53.5q85 0 147 -26v-419l198 235h103l-206 -241z" />
    <glyph glyph-name="f_t.dlig" horiz-adv-x="601" 
d="M567 425h-113v-265q0 -45 21 -67.5t58 -22.5q19 0 34 7v-79q-27 -9 -51 -9q-66 0 -107.5 45t-41.5 123v268h-184v-425h-86v425h-70v78h70v41q0 78 41.5 122.5t106.5 44.5q25 0 52 -9v-75q-16 6 -35 6q-38 0 -59 -22.5t-21 -67.5v-40h137q30 0 45.5 15.5t15.5 44.5v72h74
v-132h113v-78z" />
    <glyph glyph-name="idieresis_idieresis.dlig" horiz-adv-x="447" 
d="M7.5 597q-15.5 15 -15.5 36t15.5 36t36.5 15t36 -14.5t15 -36.5t-15 -36.5t-36 -14.5t-36.5 15zM187 597q-15 15 -15 36t15 36t36 15t36 -14.5t15 -36.5t-15 -36.5t-36 -14.5t-36 15zM367 596.5q-15 14.5 -15 36.5t15 36.5t36 14.5t36 -14.5t15 -36.5t-15 -36.5
t-36 -14.5t-36 14.5zM154 0h-86v503h86v-503zM377 0h-86v503h86v-503z" />
    <glyph glyph-name="r_f.dlig" horiz-adv-x="551" 
d="M444 610.5q-21 -22.5 -21 -67.5v-40h115v-78h-113v-425h-87v425h-51q-59 0 -96 -39t-37 -108v-278h-86v503h64l19 -63h5q15 24 51 44.5t89 20.5h42v39q0 78 41.5 122.5t107.5 44.5q24 0 51 -9v-75q-15 6 -35 6q-38 0 -59 -22.5z" />
    <glyph glyph-name="r_t.dlig" horiz-adv-x="573" 
d="M379.5 34q-41.5 45 -41.5 123v268h-52q-59 0 -95.5 -39t-36.5 -108v-278h-86v503h64l19 -63h5q15 23 49.5 44t81.5 21h7q27 0 42 15t15 45v70h74v-132h113v-78h-113v-265q0 -45 21 -67.5t58 -22.5q20 0 34 7v-79q-27 -9 -51 -9q-66 0 -107.5 45z" />
    <glyph glyph-name="s_t.dlig" unicode="&#xfb06;" horiz-adv-x="784" 
d="M750 425h-113v-265q0 -45 21 -67.5t58 -22.5q19 0 34 7v-79q-27 -9 -51 -9q-66 0 -107.5 45t-41.5 123v268h-86v75h38q61 0 61 61q0 49 -35.5 82.5t-92.5 33.5q-52 0 -86 -32.5t-34 -83.5q0 -34 11 -56.5t32 -48.5q21 -27 31.5 -47.5t11.5 -50.5h-85q-5 38 -28.5 59
t-66.5 21q-41 0 -64 -18.5t-23 -46.5q0 -32 27 -48.5t84 -34.5q52 -16 84.5 -31.5t55.5 -45t23 -75.5q0 -65 -48 -107t-132 -42q-55 0 -97.5 22t-67.5 59t-28 80h86q4 -38 32 -61.5t75 -23.5q45 0 69.5 19.5t24.5 50.5q0 33 -27.5 50t-86.5 36q-52 17 -83.5 32t-54 43.5
t-22.5 73.5q0 40 21 72.5t60.5 52t91.5 19.5q12 0 27 -3q-10 25 -10 58q0 50 25.5 92.5t70 67t99.5 24.5q61 0 107 -24.5t71.5 -69t25.5 -102.5v-54h113v-78z" />
    <glyph glyph-name="idieresis_idieresis.dlig.sc" horiz-adv-x="483" 
d="M11 696.5q-15 14.5 -15 36.5t15 37t36 15t36 -15t15 -37t-15 -36.5t-36 -14.5t-36 14.5zM205.5 697q-15.5 15 -15.5 36q0 22 15.5 37t36.5 15t36 -15t15 -37t-15 -36.5t-36 -14.5t-36.5 15zM400 697q-15 15 -15 36q0 22 15.5 37t35.5 15q21 0 36.5 -15t15.5 -37
q0 -21 -15.5 -36t-36.5 -15t-36 15zM167 0h-92v610h92v-610zM408 0h-92v610h92v-610z" />
    <glyph glyph-name="f_f_l.liga.ss01" horiz-adv-x="847" 
d="M837 77v-79q-27 -9 -52 -9q-65 0 -106 45t-41 123v471q-27 7 -59 7q-58 0 -92.5 -32t-34.5 -92v-8h114v-78h-112v-425h-87v425h-184v-425h-86v425h-70v78h70v21q0 78 41.5 122.5t106.5 44.5q25 0 52 -9v-75q-16 6 -35 6q-38 0 -59 -22.5t-21 -68.5v-19h185v9
q0 94 57 147.5t154 53.5q84 0 146 -26v-527q0 -45 21 -67.5t58 -22.5q19 0 34 7z" />
    <glyph glyph-name="fl.liga.ss01" horiz-adv-x="576" 
d="M566 77v-79q-27 -9 -51 -9q-65 0 -106.5 45t-41.5 123v472q-28 6 -58 6q-59 0 -93 -32t-34 -92v-8h113v-78h-112v-425h-86v425h-70v78h70v9q0 94 56.5 147.5t153.5 53.5q85 0 147 -26v-527q0 -45 20.5 -67.5t57.5 -22.5q20 0 34 7z" />
    <glyph glyph-name="I.ss01" horiz-adv-x="384" 
d="M347 0h-310v84h111v532h-111v84h310v-84h-110v-532h110v-84z" />
    <glyph glyph-name="Iacute.ss01" horiz-adv-x="384" 
d="M347 0h-310v84h111v532h-111v84h310v-84h-110v-532h110v-84zM215 755h-70l74 137h97z" />
    <glyph glyph-name="Ibreve.ss01" horiz-adv-x="384" 
d="M347 0h-310v84h111v532h-111v84h310v-84h-110v-532h110v-84zM91.5 797q-38.5 37 -42.5 91h68q4 -31 22.5 -49.5t52.5 -18.5t52.5 18.5t22.5 49.5h68q-4 -54 -42.5 -91t-100.5 -37t-100.5 37z" />
    <glyph glyph-name="Icircumflex.ss01" horiz-adv-x="384" 
d="M347 0h-310v84h111v532h-111v84h310v-84h-110v-532h110v-84zM231 892l110 -137h-83l-67 85l-67 -85h-81l110 137h78z" />
    <glyph glyph-name="Idieresis.ss01" horiz-adv-x="384" 
d="M347 0h-310v84h111v532h-111v84h310v-84h-110v-532h110v-84zM66 787q-15 15 -15 36q0 22 15 37t36 15q22 0 37 -15t15 -37t-15 -36.5t-37 -14.5q-21 0 -36 15zM246.5 787q-15.5 15 -15.5 36q0 22 15.5 37t36.5 15q20 0 35.5 -15t15.5 -37q0 -21 -15 -36t-36 -15t-36.5 15
z" />
    <glyph glyph-name="Idotaccent.ss01" horiz-adv-x="384" 
d="M347 0h-310v84h111v532h-111v84h310v-84h-110v-532h110v-84zM153.5 784.5q-15.5 15.5 -15.5 38.5q0 24 15.5 39.5t38.5 15.5t39 -15.5t16 -39.5q0 -23 -16 -38.5t-39 -15.5t-38.5 15.5z" />
    <glyph glyph-name="Igrave.ss01" horiz-adv-x="384" 
d="M347 0h-310v84h111v532h-111v84h310v-84h-110v-532h110v-84zM240 755h-70l-102 137h97z" />
    <glyph glyph-name="Imacron.ss01" horiz-adv-x="384" 
d="M347 0h-310v84h111v532h-111v84h310v-84h-110v-532h110v-84zM327 789h-271v69h271v-69z" />
    <glyph glyph-name="Iogonek.ss01" horiz-adv-x="384" 
d="M347 616h-110v-532h110v-84h-121q-74 -47 -74 -105q0 -23 12.5 -36t33.5 -13q17 0 28 5v-53q-22 -6 -40 -6q-41 0 -68 25t-27 67q0 37 20 67.5t49 48.5h-123v84h111v532h-111v84h310v-84z" />
    <glyph glyph-name="IJ.ss01" horiz-adv-x="895" 
d="M347 0h-310v84h111v532h-111v84h310v-84h-110v-532h110v-84zM483 17q-50 28 -77.5 75.5t-27.5 104.5h91q1 -31 17 -59t45.5 -45t66.5 -17q58 0 92.5 36t34.5 94v494h92v-494q0 -63 -27 -112.5t-77 -77t-115 -27.5t-115 28z" />
    <glyph glyph-name="Iacute_J.loclNLD.ss01" horiz-adv-x="895" 
d="M347 0h-310v84h111v532h-111v84h310v-84h-110v-532h110v-84zM215 755h-70l74 137h97zM483 17q-50 28 -77.5 75.5t-27.5 104.5h91q1 -31 17 -59t45.5 -45t66.5 -17q58 0 92.5 36t34.5 94v494h92v-494q0 -63 -27 -112.5t-77 -77t-115 -27.5t-115 28zM794 755h-70l74 137h97
z" />
    <glyph glyph-name="a.ss01" horiz-adv-x="580" 
d="M153 23q-53 34 -84.5 94t-31.5 135t31.5 135t84.5 93.5t116 33.5q54 0 95.5 -25t59.5 -49h5l19 63h64v-503h-64l-19 63h-5q-18 -24 -59.5 -49t-95.5 -25q-63 0 -116 34zM350 93q35 23 55.5 64.5t20.5 94.5t-20.5 94t-55.5 64t-76 23t-75.5 -23t-55 -64t-20.5 -94
t20.5 -94.5t55 -64.5t75.5 -23t76 23z" />
    <glyph glyph-name="aacute.ss01" horiz-adv-x="580" 
d="M153 23q-53 34 -84.5 94t-31.5 135t31.5 135t84.5 93.5t116 33.5q54 0 95.5 -25t59.5 -49h5l19 63h64v-503h-64l-19 63h-5q-18 -24 -59.5 -49t-95.5 -25q-63 0 -116 34zM350 93q35 23 55.5 64.5t20.5 94.5t-20.5 94t-55.5 64t-76 23t-75.5 -23t-55 -64t-20.5 -94
t20.5 -94.5t55 -64.5t75.5 -23t76 23zM309 563h-67l69 142h94z" />
    <glyph glyph-name="abreve.ss01" horiz-adv-x="580" 
d="M153 23q-53 34 -84.5 94t-31.5 135t31.5 135t84.5 93.5t116 33.5q54 0 95.5 -25t59.5 -49h5l19 63h64v-503h-64l-19 63h-5q-18 -24 -59.5 -49t-95.5 -25q-63 0 -116 34zM350 93q35 23 55.5 64.5t20.5 94.5t-20.5 94t-55.5 64t-76 23t-75.5 -23t-55 -64t-20.5 -94
t20.5 -94.5t55 -64.5t75.5 -23t76 23zM188 606.5q-38 37.5 -42 92.5h67q3 -32 21.5 -51t52.5 -19q33 0 51.5 19t22.5 51h66q-3 -55 -41.5 -92.5t-98.5 -37.5q-61 0 -99 37.5z" />
    <glyph glyph-name="acircumflex.ss01" horiz-adv-x="580" 
d="M153 23q-53 34 -84.5 94t-31.5 135t31.5 135t84.5 93.5t116 33.5q54 0 95.5 -25t59.5 -49h5l19 63h64v-503h-64l-19 63h-5q-18 -24 -59.5 -49t-95.5 -25q-63 0 -116 34zM350 93q35 23 55.5 64.5t20.5 94.5t-20.5 94t-55.5 64t-76 23t-75.5 -23t-55 -64t-20.5 -94
t20.5 -94.5t55 -64.5t75.5 -23t76 23zM325 705l105 -142h-81l-63 91l-63 -91h-80l106 142h76z" />
    <glyph glyph-name="adieresis.ss01" horiz-adv-x="580" 
d="M153 23q-53 34 -84.5 94t-31.5 135t31.5 135t84.5 93.5t116 33.5q54 0 95.5 -25t59.5 -49h5l19 63h64v-503h-64l-19 63h-5q-18 -24 -59.5 -49t-95.5 -25q-63 0 -116 34zM350 93q35 23 55.5 64.5t20.5 94.5t-20.5 94t-55.5 64t-76 23t-75.5 -23t-55 -64t-20.5 -94
t20.5 -94.5t55 -64.5t75.5 -23t76 23zM166 597q-15 15 -15 36t15 36t36 15t36 -14.5t15 -36.5t-15 -36.5t-36 -14.5t-36 15zM334 596.5q-15 14.5 -15 36.5t15 36.5t36 14.5t36 -15t15 -36t-15 -36t-36 -15t-36 14.5z" />
    <glyph glyph-name="agrave.ss01" horiz-adv-x="580" 
d="M153 23q-53 34 -84.5 94t-31.5 135t31.5 135t84.5 93.5t116 33.5q54 0 95.5 -25t59.5 -49h5l19 63h64v-503h-64l-19 63h-5q-18 -24 -59.5 -49t-95.5 -25q-63 0 -116 34zM350 93q35 23 55.5 64.5t20.5 94.5t-20.5 94t-55.5 64t-76 23t-75.5 -23t-55 -64t-20.5 -94
t20.5 -94.5t55 -64.5t75.5 -23t76 23zM330 563h-66l-97 142h94z" />
    <glyph glyph-name="amacron.ss01" horiz-adv-x="580" 
d="M153 23q-53 34 -84.5 94t-31.5 135t31.5 135t84.5 93.5t116 33.5q54 0 95.5 -25t59.5 -49h5l19 63h64v-503h-64l-19 63h-5q-18 -24 -59.5 -49t-95.5 -25q-63 0 -116 34zM350 93q35 23 55.5 64.5t20.5 94.5t-20.5 94t-55.5 64t-76 23t-75.5 -23t-55 -64t-20.5 -94
t20.5 -94.5t55 -64.5t75.5 -23t76 23zM418 601h-264v66h264v-66z" />
    <glyph glyph-name="aogonek.ss01" horiz-adv-x="580" 
d="M512 0q-86 -50 -86 -105q0 -22 14.5 -35.5t38.5 -13.5q18 0 33 5v-53q-22 -6 -45 -6q-46 0 -74 25t-28 67q0 37 23 68.5t59 51.5l-18 59h-5q-18 -24 -59.5 -49t-95.5 -25q-63 0 -116 34t-84.5 94t-31.5 135t31.5 135t84.5 93.5t116 33.5q54 0 95.5 -25t59.5 -49h5l19 63
h64v-503zM350 93q35 23 55.5 64.5t20.5 94.5t-20.5 94t-55.5 64t-76 23t-75.5 -23t-55 -64t-20.5 -94t20.5 -94.5t55 -64.5t75.5 -23t76 23z" />
    <glyph glyph-name="aring.ss01" horiz-adv-x="580" 
d="M153 23q-53 34 -84.5 94t-31.5 135t31.5 135t84.5 93.5t116 33.5q54 0 95.5 -25t59.5 -49h5l19 63h64v-503h-64l-19 63h-5q-18 -24 -59.5 -49t-95.5 -25q-63 0 -116 34zM350 93q35 23 55.5 64.5t20.5 94.5t-20.5 94t-55.5 64t-76 23t-75.5 -23t-55 -64t-20.5 -94
t20.5 -94.5t55 -64.5t75.5 -23t76 23zM217 579q-28 27 -28 67t28 67.5t69 27.5q42 0 70 -27.5t28 -67.5t-28 -67t-70 -27q-41 0 -69 27zM319 613q13 13 13 33t-13 33t-33 13t-32.5 -13t-12.5 -33t12.5 -33t32.5 -13t33 13z" />
    <glyph glyph-name="aringacute.ss01" horiz-adv-x="580" 
d="M153 23q-53 34 -84.5 94t-31.5 135t31.5 135t84.5 93.5t116 33.5q54 0 95.5 -25t59.5 -49h5l19 63h64v-503h-64l-19 63h-5q-18 -24 -59.5 -49t-95.5 -25q-63 0 -116 34zM350 93q35 23 55.5 64.5t20.5 94.5t-20.5 94t-55.5 64t-76 23t-75.5 -23t-55 -64t-20.5 -94
t20.5 -94.5t55 -64.5t75.5 -23t76 23zM319 755h-64l63 129h91zM218 579.5q-28 27.5 -28 66.5q0 40 28 67t69 27t69 -27t28 -67q0 -39 -28 -66.5t-69 -27.5t-69 27.5zM320 613.5q13 12.5 13 32.5t-13 33t-33 13t-33 -13t-13 -33t13 -32.5t33 -12.5t33 12.5z" />
    <glyph glyph-name="atilde.ss01" horiz-adv-x="580" 
d="M153 23q-53 34 -84.5 94t-31.5 135t31.5 135t84.5 93.5t116 33.5q54 0 95.5 -25t59.5 -49h5l19 63h64v-503h-64l-19 63h-5q-18 -24 -59.5 -49t-95.5 -25q-63 0 -116 34zM350 93q35 23 55.5 64.5t20.5 94.5t-20.5 94t-55.5 64t-76 23t-75.5 -23t-55 -64t-20.5 -94
t20.5 -94.5t55 -64.5t75.5 -23t76 23zM308 580.5q-16 10.5 -35 29.5q-13 13 -22 19.5t-18 6.5q-16 0 -27 -15.5t-11 -45.5h-60q0 62 26 93.5t65 31.5q23 0 39.5 -10.5t34.5 -29.5q14 -14 22.5 -20t18.5 -6q15 0 26 16t11 44h60q0 -61 -25.5 -92.5t-64.5 -31.5
q-24 0 -40 10.5z" />
    <glyph glyph-name="l.ss01" horiz-adv-x="282" 
d="M114.5 34q-41.5 45 -41.5 123v543h86v-540q0 -45 21 -67.5t58 -22.5q19 0 34 7v-79q-27 -9 -51 -9q-65 0 -106.5 45z" />
    <glyph glyph-name="lacute.ss01" horiz-adv-x="282" 
d="M114.5 34q-41.5 45 -41.5 123v543h86v-540q0 -45 21 -67.5t58 -22.5q19 0 34 7v-79q-27 -9 -51 -9q-65 0 -106.5 45zM139 755h-70l74 137h97z" />
    <glyph glyph-name="lcaron.ss01" horiz-adv-x="282" 
d="M114.5 34q-41.5 45 -41.5 123v543h86v-540q0 -45 21 -67.5t58 -22.5q19 0 34 7v-79q-27 -9 -51 -9q-65 0 -106.5 45zM255 555h-54l32 145h86z" />
    <glyph glyph-name="uni013C.ss01" horiz-adv-x="282" 
d="M114.5 34q-41.5 45 -41.5 123v543h86v-540q0 -45 21 -67.5t58 -22.5q19 0 34 7v-79q-27 -9 -51 -9q-65 0 -106.5 45zM223.5 -93q16.5 -18 16.5 -49q0 -46 -25 -82.5t-54 -59.5l-17 22q12 12 23 31.5t14 44.5q-22 1 -38.5 16.5t-16.5 38.5q0 24 16.5 40t38.5 16
q26 0 42.5 -18z" />
    <glyph glyph-name="ldot.ss01" horiz-adv-x="355" 
d="M114.5 34q-41.5 45 -41.5 123v543h86v-540q0 -45 21 -67.5t58 -22.5q19 0 34 7v-79q-27 -9 -51 -9q-65 0 -106.5 45zM251.5 322.5q-17.5 17.5 -17.5 43.5q0 25 17.5 42.5t42.5 17.5t43 -17.5t18 -42.5t-17.5 -43t-43.5 -18q-25 0 -42.5 17.5z" />
    <glyph glyph-name="lslash.ss01" horiz-adv-x="302" 
d="M292 77v-79q-27 -9 -51 -9q-65 0 -106.5 45t-41.5 123v125l-85 -57v83l85 56v336h86v-278l97 64v-82l-97 -65v-179q0 -45 21 -67.5t58 -22.5q19 0 34 7z" />
    <glyph glyph-name="y.ss01" horiz-adv-x="565" 
d="M174.5 -168q-45.5 22 -74 57.5t-37.5 75.5h88q14 -35 47.5 -55.5t80.5 -20.5q58 0 94.5 36t36.5 97v63h-5q-18 -27 -55.5 -49.5t-89.5 -22.5q-56 0 -101 27.5t-70.5 78t-25.5 116.5v268h86v-264q0 -66 36.5 -105.5t92.5 -39.5q58 0 95 39.5t37 105.5v264h87v-480
q0 -64 -27 -112t-76.5 -74.5t-114.5 -26.5q-59 0 -104.5 22z" />
    <glyph glyph-name="yacute.ss01" horiz-adv-x="565" 
d="M174.5 -168q-45.5 22 -74 57.5t-37.5 75.5h88q14 -35 47.5 -55.5t80.5 -20.5q58 0 94.5 36t36.5 97v63h-5q-18 -27 -55.5 -49.5t-89.5 -22.5q-56 0 -101 27.5t-70.5 78t-25.5 116.5v268h86v-264q0 -66 36.5 -105.5t92.5 -39.5q58 0 95 39.5t37 105.5v264h87v-480
q0 -64 -27 -112t-76.5 -74.5t-114.5 -26.5q-59 0 -104.5 22zM302 563h-67l69 142h94z" />
    <glyph glyph-name="ycircumflex.ss01" horiz-adv-x="565" 
d="M174.5 -168q-45.5 22 -74 57.5t-37.5 75.5h88q14 -35 47.5 -55.5t80.5 -20.5q58 0 94.5 36t36.5 97v63h-5q-18 -27 -55.5 -49.5t-89.5 -22.5q-56 0 -101 27.5t-70.5 78t-25.5 116.5v268h86v-264q0 -66 36.5 -105.5t92.5 -39.5q58 0 95 39.5t37 105.5v264h87v-480
q0 -64 -27 -112t-76.5 -74.5t-114.5 -26.5q-59 0 -104.5 22zM318 705l105 -142h-81l-63 91l-63 -91h-80l106 142h76z" />
    <glyph glyph-name="ydieresis.ss01" horiz-adv-x="565" 
d="M174.5 -168q-45.5 22 -74 57.5t-37.5 75.5h88q14 -35 47.5 -55.5t80.5 -20.5q58 0 94.5 36t36.5 97v63h-5q-18 -27 -55.5 -49.5t-89.5 -22.5q-56 0 -101 27.5t-70.5 78t-25.5 116.5v268h86v-264q0 -66 36.5 -105.5t92.5 -39.5q58 0 95 39.5t37 105.5v264h87v-480
q0 -64 -27 -112t-76.5 -74.5t-114.5 -26.5q-59 0 -104.5 22zM160 597q-15 15 -15 36t15 36t36 15t36 -14.5t15 -36.5t-15 -36.5t-36 -14.5t-36 15zM328 596.5q-15 14.5 -15 36.5t15 36.5t36 14.5t36 -15t15 -36t-15 -36t-36 -15t-36 14.5z" />
    <glyph glyph-name="ygrave.ss01" horiz-adv-x="565" 
d="M174.5 -168q-45.5 22 -74 57.5t-37.5 75.5h88q14 -35 47.5 -55.5t80.5 -20.5q58 0 94.5 36t36.5 97v63h-5q-18 -27 -55.5 -49.5t-89.5 -22.5q-56 0 -101 27.5t-70.5 78t-25.5 116.5v268h86v-264q0 -66 36.5 -105.5t92.5 -39.5q58 0 95 39.5t37 105.5v264h87v-480
q0 -64 -27 -112t-76.5 -74.5t-114.5 -26.5q-59 0 -104.5 22zM324 563h-66l-97 142h94z" />
    <glyph glyph-name="uni0233.ss01" horiz-adv-x="565" 
d="M174.5 -168q-45.5 22 -74 57.5t-37.5 75.5h88q14 -35 47.5 -55.5t80.5 -20.5q58 0 94.5 36t36.5 97v63h-5q-18 -27 -55.5 -49.5t-89.5 -22.5q-56 0 -101 27.5t-70.5 78t-25.5 116.5v268h86v-264q0 -66 36.5 -105.5t92.5 -39.5q58 0 95 39.5t37 105.5v264h87v-480
q0 -64 -27 -112t-76.5 -74.5t-114.5 -26.5q-59 0 -104.5 22zM412 601h-264v66h264v-66z" />
    <glyph glyph-name="i.sc.ss01" horiz-adv-x="363" 
d="M329 0h-296v83h104v444h-104v83h296v-83h-103v-444h103v-83z" />
    <glyph glyph-name="iacute.sc.ss01" horiz-adv-x="363" 
d="M329 0h-296v83h104v444h-104v83h296v-83h-103v-444h103v-83zM204 665h-70l74 137h97z" />
    <glyph glyph-name="ibreve.sc.ss01" horiz-adv-x="363" 
d="M329 0h-296v83h104v444h-104v83h296v-83h-103v-444h103v-83zM80.5 707q-38.5 37 -42.5 91h68q4 -31 22.5 -49.5t52.5 -18.5t52.5 18.5t22.5 49.5h68q-4 -54 -42.5 -91t-100.5 -37t-100.5 37z" />
    <glyph glyph-name="icircumflex.sc.ss01" horiz-adv-x="363" 
d="M329 0h-296v83h104v444h-104v83h296v-83h-103v-444h103v-83zM221 802l110 -137h-83l-67 85l-67 -85h-81l110 137h78z" />
    <glyph glyph-name="idieresis.sc.ss01" horiz-adv-x="363" 
d="M329 0h-296v83h104v444h-104v83h296v-83h-103v-444h103v-83zM55 697q-15 15 -15 36q0 22 15 37t36 15q22 0 37 -15t15 -37t-15 -36.5t-37 -14.5q-21 0 -36 15zM235.5 697q-15.5 15 -15.5 36q0 22 15.5 37t36.5 15q20 0 35.5 -15t15.5 -37q0 -21 -15 -36t-36 -15t-36.5 15
z" />
    <glyph glyph-name="i.sc.loclTRK.ss01" horiz-adv-x="363" 
d="M329 0h-296v83h104v444h-104v83h296v-83h-103v-444h103v-83zM142.5 694.5q-15.5 15.5 -15.5 38.5q0 24 15.5 39.5t38.5 15.5t39 -15.5t16 -39.5q0 -23 -16 -38.5t-39 -15.5t-38.5 15.5z" />
    <glyph glyph-name="igrave.sc.ss01" horiz-adv-x="363" 
d="M329 0h-296v83h104v444h-104v83h296v-83h-103v-444h103v-83zM229 665h-70l-102 137h97z" />
    <glyph glyph-name="imacron.sc.ss01" horiz-adv-x="363" 
d="M329 0h-296v83h104v444h-104v83h296v-83h-103v-444h103v-83zM317 699h-271v69h271v-69z" />
    <glyph glyph-name="iogonek.sc.ss01" horiz-adv-x="363" 
d="M329 527h-103v-444h103v-83h-116q-74 -47 -74 -105q0 -23 12.5 -36t33.5 -13q17 0 28 5v-53q-22 -6 -40 -6q-41 0 -68 25t-27 67q0 37 20 67.5t49 48.5h-114v83h104v444h-104v83h296v-83z" />
    <glyph glyph-name="ij.sc.ss01" horiz-adv-x="835" 
d="M329 0h-296v83h104v444h-104v83h296v-83h-103v-444h103v-83zM452.5 15q-47.5 26 -74 68.5t-26.5 90.5h92q1 -41 32.5 -70t82.5 -29q53 0 83.5 34.5t30.5 98.5v402h92v-401q0 -64 -26 -114t-73 -78t-107 -28q-59 0 -106.5 26z" />
    <glyph glyph-name="iacute_j.loclNLD.sc.ss01" horiz-adv-x="835" 
d="M329 0h-296v83h104v444h-104v83h296v-83h-103v-444h103v-83zM204 665h-70l74 137h97zM452.5 15q-47.5 26 -74 68.5t-26.5 90.5h92q1 -41 32.5 -70t82.5 -29q53 0 83.5 34.5t30.5 98.5v402h92v-401q0 -64 -26 -114t-73 -78t-107 -28q-59 0 -106.5 26zM742 665h-70l74 137
h97z" />
    <glyph glyph-name="uni1EAE" unicode="&#x1eae;" horiz-adv-x="620" 
d="M618 0h-98l-61 168h-302l-61 -168h-94l264 700h88zM427 253l-119 323l-119 -323h238zM340 879h-64l61 120h89zM209.5 785q-38.5 37 -42.5 91h68q4 -30 22.5 -48.5t52.5 -18.5t52.5 18.5t22.5 48.5h68q-4 -54 -42.5 -91t-100.5 -37t-100.5 37z" />
    <glyph glyph-name="uni1EB6" unicode="&#x1eb6;" horiz-adv-x="620" 
d="M618 0h-98l-61 168h-302l-61 -168h-94l264 700h88zM427 253l-119 323l-119 -323h238zM271.5 -168.5q-15.5 15.5 -15.5 38.5q0 24 15.5 39.5t38.5 15.5t39 -15.5t16 -39.5q0 -23 -16 -38.5t-39 -15.5t-38.5 15.5zM209.5 797q-38.5 37 -42.5 91h68q4 -31 22.5 -49.5
t52.5 -18.5t52.5 18.5t22.5 49.5h68q-4 -54 -42.5 -91t-100.5 -37t-100.5 37z" />
    <glyph glyph-name="uni1EB0" unicode="&#x1eb0;" horiz-adv-x="620" 
d="M618 0h-98l-61 168h-302l-61 -168h-94l264 700h88zM427 253l-119 323l-119 -323h238zM344 879h-65l-85 120h89zM209.5 785q-38.5 37 -42.5 91h68q4 -30 22.5 -48.5t52.5 -18.5t52.5 18.5t22.5 48.5h68q-4 -54 -42.5 -91t-100.5 -37t-100.5 37z" />
    <glyph glyph-name="uni1EB2" unicode="&#x1eb2;" horiz-adv-x="620" 
d="M618 0h-98l-61 168h-302l-61 -168h-94l264 700h88zM427 253l-119 323l-119 -323h238zM281 879q22 30 22 52q0 18 -11 29t-32 11q-9 0 -31 -4v57q23 7 51 7q41 0 65.5 -21.5t24.5 -56.5q0 -21 -8.5 -40.5t-22.5 -33.5h-58zM209.5 785q-38.5 37 -42.5 91h68
q4 -30 22.5 -48.5t52.5 -18.5t52.5 18.5t22.5 48.5h68q-4 -54 -42.5 -91t-100.5 -37t-100.5 37z" />
    <glyph glyph-name="uni1EB4" unicode="&#x1eb4;" horiz-adv-x="620" 
d="M618 0h-98l-61 168h-302l-61 -168h-94l264 700h88zM427 253l-119 323l-119 -323h238zM327.5 907.5q-15.5 9.5 -31.5 25.5q-12 11 -19 16t-16 5q-14 0 -25 -14t-11 -36h-60q0 53 26 83t62 30q23 0 39 -9.5t32 -25.5q12 -11 19 -16t16 -5q14 0 24.5 13.5t10.5 36.5h61
q0 -53 -26.5 -83t-62.5 -30q-23 0 -38.5 9.5zM209.5 785q-38.5 37 -42.5 91h68q4 -30 22.5 -48.5t52.5 -18.5t52.5 18.5t22.5 48.5h68q-4 -54 -42.5 -91t-100.5 -37t-100.5 37z" />
    <glyph glyph-name="uni1EA4" unicode="&#x1ea4;" horiz-adv-x="620" 
d="M618 0h-98l-61 168h-302l-61 -168h-94l264 700h88zM427 253l-119 323l-119 -323h238zM421 830l61 121h89l-85 -121h-65zM162 746l110 137h78l110 -137h-83l-67 85l-67 -85h-81z" />
    <glyph glyph-name="uni1EAC" unicode="&#x1eac;" horiz-adv-x="620" 
d="M618 0h-98l-61 168h-302l-61 -168h-94l264 700h88zM427 253l-119 323l-119 -323h238zM271.5 -168.5q-15.5 15.5 -15.5 38.5q0 24 15.5 39.5t38.5 15.5t39 -15.5t16 -39.5q0 -23 -16 -38.5t-39 -15.5t-38.5 15.5zM350 892l110 -137h-83l-67 85l-67 -85h-81l110 137h78z
" />
    <glyph glyph-name="uni1EA6" unicode="&#x1ea6;" horiz-adv-x="620" 
d="M618 0h-98l-61 168h-302l-61 -168h-94l264 700h88zM427 253l-119 323l-119 -323h238zM454 951l60 -121h-64l-85 121h89zM162 746l110 137h78l110 -137h-83l-67 85l-67 -85h-81z" />
    <glyph glyph-name="uni1EA8" unicode="&#x1ea8;" horiz-adv-x="620" 
d="M618 0h-98l-61 168h-302l-61 -168h-94l264 700h88zM427 253l-119 323l-119 -323h238zM491.5 960.5q24.5 -21.5 24.5 -56.5q0 -20 -8.5 -40t-22.5 -34h-59q23 29 23 52q0 18 -11.5 29t-31.5 11q-18 0 -31 -4v57q23 7 51 7q41 0 65.5 -21.5zM162 746l110 137h78l110 -137
h-83l-67 85l-67 -85h-81z" />
    <glyph glyph-name="uni1EAA" unicode="&#x1eaa;" horiz-adv-x="620" 
d="M618 0h-98l-61 168h-302l-61 -168h-94l264 700h88zM427 253l-119 323l-119 -323h238zM235.5 943q-10.5 -14 -10.5 -36h-61q0 53 26 83t62 30q23 0 39 -9.5t32 -25.5q12 -11 19 -16t16 -5q14 0 25 13.5t11 36.5h60q0 -53 -26 -83t-62 -30q-23 0 -39 9.5t-32 25.5
q-12 11 -19 16t-16 5q-14 0 -24.5 -14zM349 883l110 -137h-83l-67 85l-67 -85h-81l110 137h78z" />
    <glyph glyph-name="uni1EA0" unicode="&#x1ea0;" horiz-adv-x="620" 
d="M618 0h-98l-61 168h-302l-61 -168h-94l264 700h88zM427 253l-119 323l-119 -323h238zM271.5 -168.5q-15.5 15.5 -15.5 38.5q0 24 15.5 39.5t38.5 15.5t39 -15.5t16 -39.5q0 -23 -16 -38.5t-39 -15.5t-38.5 15.5z" />
    <glyph glyph-name="uni1EA2" unicode="&#x1ea2;" horiz-adv-x="620" 
d="M618 0h-98l-61 168h-302l-61 -168h-94l264 700h88zM427 253l-119 323l-119 -323h238zM289 752q21 29 21 59q0 22 -13.5 35t-37.5 13q-18 0 -31 -4v58q18 7 50 7q46 0 73 -23.5t27 -63.5q0 -45 -30 -81h-59z" />
    <glyph glyph-name="uni1EBE" unicode="&#x1ebe;" horiz-adv-x="583" 
d="M175 317v-231h365v-86h-457v700h447v-86h-355v-212h317v-85h-317zM418 830l61 121h89l-85 -121h-65zM159 746l110 137h78l110 -137h-83l-67 85l-67 -85h-81z" />
    <glyph glyph-name="uni1EC6" unicode="&#x1ec6;" horiz-adv-x="583" 
d="M175 317v-231h365v-86h-457v700h447v-86h-355v-212h317v-85h-317zM273.5 -168.5q-15.5 15.5 -15.5 38.5q0 24 15.5 39.5t38.5 15.5t39 -15.5t16 -39.5q0 -23 -16 -38.5t-39 -15.5t-38.5 15.5zM347 892l110 -137h-83l-67 85l-67 -85h-81l110 137h78z" />
    <glyph glyph-name="uni1EC0" unicode="&#x1ec0;" horiz-adv-x="583" 
d="M175 317v-231h365v-86h-457v700h447v-86h-355v-212h317v-85h-317zM451 951l60 -121h-64l-85 121h89zM159 746l110 137h78l110 -137h-83l-67 85l-67 -85h-81z" />
    <glyph glyph-name="uni1EC2" unicode="&#x1ec2;" horiz-adv-x="583" 
d="M175 317v-231h365v-86h-457v700h447v-86h-355v-212h317v-85h-317zM488.5 960.5q24.5 -21.5 24.5 -56.5q0 -20 -8.5 -40t-22.5 -34h-59q23 29 23 52q0 18 -11.5 29t-31.5 11q-18 0 -31 -4v57q23 7 51 7q41 0 65.5 -21.5zM159 746l110 137h78l110 -137h-83l-67 85l-67 -85
h-81z" />
    <glyph glyph-name="uni1EC4" unicode="&#x1ec4;" horiz-adv-x="583" 
d="M175 317v-231h365v-86h-457v700h447v-86h-355v-212h317v-85h-317zM232.5 943q-10.5 -14 -10.5 -36h-61q0 53 26 83t62 30q23 0 39 -9.5t32 -25.5q12 -11 19 -16t16 -5q14 0 25 13.5t11 36.5h60q0 -53 -26 -83t-62 -30q-23 0 -39 9.5t-32 25.5q-12 11 -19 16t-16 5
q-14 0 -24.5 -14zM346 883l110 -137h-83l-67 85l-67 -85h-81l110 137h78z" />
    <glyph glyph-name="uni1EB8" unicode="&#x1eb8;" horiz-adv-x="583" 
d="M175 317v-231h365v-86h-457v700h447v-86h-355v-212h317v-85h-317zM273.5 -168.5q-15.5 15.5 -15.5 38.5q0 24 15.5 39.5t38.5 15.5t39 -15.5t16 -39.5q0 -23 -16 -38.5t-39 -15.5t-38.5 15.5z" />
    <glyph glyph-name="uni1EBA" unicode="&#x1eba;" horiz-adv-x="583" 
d="M175 317v-231h365v-86h-457v700h447v-86h-355v-212h317v-85h-317zM286 752q21 29 21 59q0 22 -13.5 35t-37.5 13q-18 0 -31 -4v58q18 7 50 7q46 0 73 -23.5t27 -63.5q0 -45 -30 -81h-59z" />
    <glyph glyph-name="uni1EBC" unicode="&#x1ebc;" horiz-adv-x="583" 
d="M175 317v-231h365v-86h-457v700h447v-86h-355v-212h317v-85h-317zM328.5 770.5q-16.5 9.5 -35.5 27.5q-13 12 -22 18t-20 6q-16 0 -27 -15t-11 -40h-61q0 58 26.5 88.5t66.5 30.5q25 0 42 -10t35 -27q14 -12 22.5 -17.5t18.5 -5.5q17 0 28 14.5t11 39.5h60
q0 -57 -26.5 -88t-65.5 -31q-25 0 -41.5 9.5z" />
    <glyph glyph-name="uni1ECA" unicode="&#x1eca;" horiz-adv-x="259" 
d="M175 0h-92v700h92v-700zM90.5 -168.5q-15.5 15.5 -15.5 38.5q0 24 15.5 39.5t38.5 15.5t39 -15.5t16 -39.5q0 -23 -16 -38.5t-39 -15.5t-38.5 15.5z" />
    <glyph glyph-name="uni1EC8" unicode="&#x1ec8;" horiz-adv-x="259" 
d="M175 0h-92v700h92v-700zM108 752q21 29 21 59q0 22 -13.5 35t-37.5 13q-18 0 -31 -4v58q18 7 50 7q46 0 73 -23.5t27 -63.5q0 -45 -30 -81h-59z" />
    <glyph glyph-name="Itilde" unicode="&#x128;" horiz-adv-x="259" 
d="M175 0h-92v700h92v-700zM150.5 770.5q-16.5 9.5 -35.5 27.5q-13 12 -22 18t-20 6q-16 0 -27 -15t-11 -40h-61q0 58 26.5 88.5t66.5 30.5q25 0 42 -10t35 -27q14 -12 22.5 -17.5t18.5 -5.5q17 0 28 14.5t11 39.5h60q0 -57 -26.5 -88t-65.5 -31q-25 0 -41.5 9.5z" />
    <glyph glyph-name="uni1ED0" unicode="&#x1ed0;" horiz-adv-x="742" 
d="M207 36.5q-76 47.5 -121 130t-45 183.5t45 183.5t121 130t164 47.5t164 -47.5t121 -130t45 -183.5t-45 -183.5t-121 -130t-164 -47.5t-164 47.5zM489 111q55 35 87.5 97.5t32.5 141.5t-32.5 141.5t-87.5 97.5t-118 35t-117.5 -35t-87.5 -97.5t-33 -141.5t33 -141.5
t87.5 -97.5t117.5 -35t118 35zM481 830l61 121h89l-85 -121h-65zM222 746l110 137h78l110 -137h-83l-67 85l-67 -85h-81z" />
    <glyph glyph-name="uni1ED8" unicode="&#x1ed8;" horiz-adv-x="742" 
d="M207 36.5q-76 47.5 -121 130t-45 183.5t45 183.5t121 130t164 47.5t164 -47.5t121 -130t45 -183.5t-45 -183.5t-121 -130t-164 -47.5t-164 47.5zM489 111q55 35 87.5 97.5t32.5 141.5t-32.5 141.5t-87.5 97.5t-118 35t-117.5 -35t-87.5 -97.5t-33 -141.5t33 -141.5
t87.5 -97.5t117.5 -35t118 35zM331.5 -168.5q-15.5 15.5 -15.5 38.5q0 24 15.5 39.5t38.5 15.5t39 -15.5t16 -39.5q0 -23 -16 -38.5t-39 -15.5t-38.5 15.5zM410 892l110 -137h-83l-67 85l-67 -85h-81l110 137h78z" />
    <glyph glyph-name="uni1ED2" unicode="&#x1ed2;" horiz-adv-x="742" 
d="M207 36.5q-76 47.5 -121 130t-45 183.5t45 183.5t121 130t164 47.5t164 -47.5t121 -130t45 -183.5t-45 -183.5t-121 -130t-164 -47.5t-164 47.5zM489 111q55 35 87.5 97.5t32.5 141.5t-32.5 141.5t-87.5 97.5t-118 35t-117.5 -35t-87.5 -97.5t-33 -141.5t33 -141.5
t87.5 -97.5t117.5 -35t118 35zM514 951l60 -121h-64l-85 121h89zM222 746l110 137h78l110 -137h-83l-67 85l-67 -85h-81z" />
    <glyph glyph-name="uni1ED4" unicode="&#x1ed4;" horiz-adv-x="742" 
d="M207 36.5q-76 47.5 -121 130t-45 183.5t45 183.5t121 130t164 47.5t164 -47.5t121 -130t45 -183.5t-45 -183.5t-121 -130t-164 -47.5t-164 47.5zM489 111q55 35 87.5 97.5t32.5 141.5t-32.5 141.5t-87.5 97.5t-118 35t-117.5 -35t-87.5 -97.5t-33 -141.5t33 -141.5
t87.5 -97.5t117.5 -35t118 35zM551.5 960.5q24.5 -21.5 24.5 -56.5q0 -20 -8.5 -40t-22.5 -34h-59q23 29 23 52q0 18 -11.5 29t-31.5 11q-18 0 -31 -4v57q23 7 51 7q41 0 65.5 -21.5zM222 746l110 137h78l110 -137h-83l-67 85l-67 -85h-81z" />
    <glyph glyph-name="uni1ED6" unicode="&#x1ed6;" horiz-adv-x="742" 
d="M207 36.5q-76 47.5 -121 130t-45 183.5t45 183.5t121 130t164 47.5t164 -47.5t121 -130t45 -183.5t-45 -183.5t-121 -130t-164 -47.5t-164 47.5zM489 111q55 35 87.5 97.5t32.5 141.5t-32.5 141.5t-87.5 97.5t-118 35t-117.5 -35t-87.5 -97.5t-33 -141.5t33 -141.5
t87.5 -97.5t117.5 -35t118 35zM295.5 943q-10.5 -14 -10.5 -36h-61q0 53 26 83t62 30q23 0 39 -9.5t32 -25.5q12 -11 19 -16t16 -5q14 0 25 13.5t11 36.5h60q0 -53 -26 -83t-62 -30q-23 0 -39 9.5t-32 25.5q-12 11 -19 16t-16 5q-14 0 -24.5 -14zM409 883l110 -137h-83
l-67 85l-67 -85h-81l110 137h78z" />
    <glyph glyph-name="uni1ECC" unicode="&#x1ecc;" horiz-adv-x="742" 
d="M207 36.5q-76 47.5 -121 130t-45 183.5t45 183.5t121 130t164 47.5t164 -47.5t121 -130t45 -183.5t-45 -183.5t-121 -130t-164 -47.5t-164 47.5zM489 111q55 35 87.5 97.5t32.5 141.5t-32.5 141.5t-87.5 97.5t-118 35t-117.5 -35t-87.5 -97.5t-33 -141.5t33 -141.5
t87.5 -97.5t117.5 -35t118 35zM331.5 -168.5q-15.5 15.5 -15.5 38.5q0 24 15.5 39.5t38.5 15.5t39 -15.5t16 -39.5q0 -23 -16 -38.5t-39 -15.5t-38.5 15.5z" />
    <glyph glyph-name="uni1ECE" unicode="&#x1ece;" horiz-adv-x="742" 
d="M207 36.5q-76 47.5 -121 130t-45 183.5t45 183.5t121 130t164 47.5t164 -47.5t121 -130t45 -183.5t-45 -183.5t-121 -130t-164 -47.5t-164 47.5zM489 111q55 35 87.5 97.5t32.5 141.5t-32.5 141.5t-87.5 97.5t-118 35t-117.5 -35t-87.5 -97.5t-33 -141.5t33 -141.5
t87.5 -97.5t117.5 -35t118 35zM350 752q21 29 21 59q0 22 -13.5 35t-37.5 13q-18 0 -31 -4v58q18 7 50 7q46 0 73 -23.5t27 -63.5q0 -45 -30 -81h-59z" />
    <glyph glyph-name="Ohorn" unicode="&#x1a0;" horiz-adv-x="742" 
d="M668.5 507q32.5 -73 32.5 -157q0 -101 -45 -183.5t-121 -130t-164 -47.5t-164 47.5t-121 130t-45 183.5t45 183.5t121 130t164 47.5q58 0 111 -21h62q50 0 50 47q0 23 -14 54h65q17 -34 17 -65q0 -36 -22 -62.5t-60 -33.5q56 -50 88.5 -123zM489 111q55 35 87.5 97.5
t32.5 141.5t-32.5 141.5t-87.5 97.5t-118 35t-117.5 -35t-87.5 -97.5t-33 -141.5t33 -141.5t87.5 -97.5t117.5 -35t118 35z" />
    <glyph glyph-name="uni1EDA" unicode="&#x1eda;" horiz-adv-x="742" 
d="M668.5 507q32.5 -73 32.5 -157q0 -101 -45 -183.5t-121 -130t-164 -47.5t-164 47.5t-121 130t-45 183.5t45 183.5t121 130t164 47.5q58 0 111 -21h62q50 0 50 47q0 23 -14 54h65q17 -34 17 -65q0 -36 -22 -62.5t-60 -33.5q56 -50 88.5 -123zM489 111q55 35 87.5 97.5
t32.5 141.5t-32.5 141.5t-87.5 97.5t-118 35t-117.5 -35t-87.5 -97.5t-33 -141.5t33 -141.5t87.5 -97.5t117.5 -35t118 35zM393 755h-70l74 137h97z" />
    <glyph glyph-name="uni1EE2" unicode="&#x1ee2;" horiz-adv-x="742" 
d="M668.5 507q32.5 -73 32.5 -157q0 -101 -45 -183.5t-121 -130t-164 -47.5t-164 47.5t-121 130t-45 183.5t45 183.5t121 130t164 47.5q58 0 111 -21h62q50 0 50 47q0 23 -14 54h65q17 -34 17 -65q0 -36 -22 -62.5t-60 -33.5q56 -50 88.5 -123zM489 111q55 35 87.5 97.5
t32.5 141.5t-32.5 141.5t-87.5 97.5t-118 35t-117.5 -35t-87.5 -97.5t-33 -141.5t33 -141.5t87.5 -97.5t117.5 -35t118 35zM331.5 -168.5q-15.5 15.5 -15.5 38.5q0 24 15.5 39.5t38.5 15.5t39 -15.5t16 -39.5q0 -23 -16 -38.5t-39 -15.5t-38.5 15.5z" />
    <glyph glyph-name="uni1EDC" unicode="&#x1edc;" horiz-adv-x="742" 
d="M668.5 507q32.5 -73 32.5 -157q0 -101 -45 -183.5t-121 -130t-164 -47.5t-164 47.5t-121 130t-45 183.5t45 183.5t121 130t164 47.5q58 0 111 -21h62q50 0 50 47q0 23 -14 54h65q17 -34 17 -65q0 -36 -22 -62.5t-60 -33.5q56 -50 88.5 -123zM489 111q55 35 87.5 97.5
t32.5 141.5t-32.5 141.5t-87.5 97.5t-118 35t-117.5 -35t-87.5 -97.5t-33 -141.5t33 -141.5t87.5 -97.5t117.5 -35t118 35zM418 755h-70l-102 137h97z" />
    <glyph glyph-name="uni1EDE" unicode="&#x1ede;" horiz-adv-x="742" 
d="M668.5 507q32.5 -73 32.5 -157q0 -101 -45 -183.5t-121 -130t-164 -47.5t-164 47.5t-121 130t-45 183.5t45 183.5t121 130t164 47.5q58 0 111 -21h62q50 0 50 47q0 23 -14 54h65q17 -34 17 -65q0 -36 -22 -62.5t-60 -33.5q56 -50 88.5 -123zM489 111q55 35 87.5 97.5
t32.5 141.5t-32.5 141.5t-87.5 97.5t-118 35t-117.5 -35t-87.5 -97.5t-33 -141.5t33 -141.5t87.5 -97.5t117.5 -35t118 35zM350 752q21 29 21 59q0 22 -13.5 35t-37.5 13q-18 0 -31 -4v58q18 7 50 7q46 0 73 -23.5t27 -63.5q0 -45 -30 -81h-59z" />
    <glyph glyph-name="uni1EE0" unicode="&#x1ee0;" horiz-adv-x="742" 
d="M668.5 507q32.5 -73 32.5 -157q0 -101 -45 -183.5t-121 -130t-164 -47.5t-164 47.5t-121 130t-45 183.5t45 183.5t121 130t164 47.5q58 0 111 -21h62q50 0 50 47q0 23 -14 54h65q17 -34 17 -65q0 -36 -22 -62.5t-60 -33.5q56 -50 88.5 -123zM489 111q55 35 87.5 97.5
t32.5 141.5t-32.5 141.5t-87.5 97.5t-118 35t-117.5 -35t-87.5 -97.5t-33 -141.5t33 -141.5t87.5 -97.5t117.5 -35t118 35zM391.5 770.5q-16.5 9.5 -35.5 27.5q-13 12 -22 18t-20 6q-16 0 -27 -15t-11 -40h-61q0 58 26.5 88.5t66.5 30.5q25 0 42 -10t35 -27
q14 -12 22.5 -17.5t18.5 -5.5q17 0 28 14.5t11 39.5h60q0 -57 -26.5 -88t-65.5 -31q-25 0 -41.5 9.5z" />
    <glyph glyph-name="uni1EE4" unicode="&#x1ee4;" horiz-adv-x="676" 
d="M202 23.5q-59 34.5 -91.5 95t-32.5 137.5v444h92v-444q0 -82 46 -131t122 -49t122 49t46 131v444h92v-444q0 -77 -32.5 -137.5t-91.5 -95t-136 -34.5t-136 34.5zM299.5 -168.5q-15.5 15.5 -15.5 38.5q0 24 15.5 39.5t38.5 15.5t39 -15.5t16 -39.5q0 -23 -16 -38.5
t-39 -15.5t-38.5 15.5z" />
    <glyph glyph-name="uni1EE6" unicode="&#x1ee6;" horiz-adv-x="676" 
d="M202 23.5q-59 34.5 -91.5 95t-32.5 137.5v444h92v-444q0 -82 46 -131t122 -49t122 49t46 131v444h92v-444q0 -77 -32.5 -137.5t-91.5 -95t-136 -34.5t-136 34.5zM317 752q21 29 21 59q0 22 -13.5 35t-37.5 13q-18 0 -31 -4v58q18 7 50 7q46 0 73 -23.5t27 -63.5
q0 -45 -30 -81h-59z" />
    <glyph glyph-name="Uhorn" unicode="&#x1af;" horiz-adv-x="699" 
d="M697 801q17 -34 17 -65q0 -42 -29 -70t-77 -28h-10v-382q0 -77 -32.5 -137.5t-91.5 -95t-136 -34.5t-136 34.5t-91.5 95t-32.5 137.5v444h92v-444q0 -82 46 -131t122 -49t122 49t46 131v444h91q49 0 49 47q0 23 -14 54h65z" />
    <glyph glyph-name="uni1EE8" unicode="&#x1ee8;" horiz-adv-x="699" 
d="M697 801q17 -34 17 -65q0 -42 -29 -70t-77 -28h-10v-382q0 -77 -32.5 -137.5t-91.5 -95t-136 -34.5t-136 34.5t-91.5 95t-32.5 137.5v444h92v-444q0 -82 46 -131t122 -49t122 49t46 131v444h91q49 0 49 47q0 23 -14 54h65zM361 755h-70l74 137h97z" />
    <glyph glyph-name="uni1EF0" unicode="&#x1ef0;" horiz-adv-x="699" 
d="M697 801q17 -34 17 -65q0 -42 -29 -70t-77 -28h-10v-382q0 -77 -32.5 -137.5t-91.5 -95t-136 -34.5t-136 34.5t-91.5 95t-32.5 137.5v444h92v-444q0 -82 46 -131t122 -49t122 49t46 131v444h91q49 0 49 47q0 23 -14 54h65zM299.5 -168.5q-15.5 15.5 -15.5 38.5
q0 24 15.5 39.5t38.5 15.5t39 -15.5t16 -39.5q0 -23 -16 -38.5t-39 -15.5t-38.5 15.5z" />
    <glyph glyph-name="uni1EEA" unicode="&#x1eea;" horiz-adv-x="699" 
d="M697 801q17 -34 17 -65q0 -42 -29 -70t-77 -28h-10v-382q0 -77 -32.5 -137.5t-91.5 -95t-136 -34.5t-136 34.5t-91.5 95t-32.5 137.5v444h92v-444q0 -82 46 -131t122 -49t122 49t46 131v444h91q49 0 49 47q0 23 -14 54h65zM386 755h-70l-102 137h97z" />
    <glyph glyph-name="uni1EEC" unicode="&#x1eec;" horiz-adv-x="699" 
d="M697 801q17 -34 17 -65q0 -42 -29 -70t-77 -28h-10v-382q0 -77 -32.5 -137.5t-91.5 -95t-136 -34.5t-136 34.5t-91.5 95t-32.5 137.5v444h92v-444q0 -82 46 -131t122 -49t122 49t46 131v444h91q49 0 49 47q0 23 -14 54h65zM317 752q21 29 21 59q0 22 -13.5 35t-37.5 13
q-18 0 -31 -4v58q18 7 50 7q46 0 73 -23.5t27 -63.5q0 -45 -30 -81h-59z" />
    <glyph glyph-name="uni1EEE" unicode="&#x1eee;" horiz-adv-x="699" 
d="M697 801q17 -34 17 -65q0 -42 -29 -70t-77 -28h-10v-382q0 -77 -32.5 -137.5t-91.5 -95t-136 -34.5t-136 34.5t-91.5 95t-32.5 137.5v444h92v-444q0 -82 46 -131t122 -49t122 49t46 131v444h91q49 0 49 47q0 23 -14 54h65zM359.5 770.5q-16.5 9.5 -35.5 27.5
q-13 12 -22 18t-20 6q-16 0 -27 -15t-11 -40h-61q0 58 26.5 88.5t66.5 30.5q25 0 42 -10t35 -27q14 -12 22.5 -17.5t18.5 -5.5q17 0 28 14.5t11 39.5h60q0 -57 -26.5 -88t-65.5 -31q-25 0 -41.5 9.5z" />
    <glyph glyph-name="Utilde" unicode="&#x168;" horiz-adv-x="676" 
d="M202 23.5q-59 34.5 -91.5 95t-32.5 137.5v444h92v-444q0 -82 46 -131t122 -49t122 49t46 131v444h92v-444q0 -77 -32.5 -137.5t-91.5 -95t-136 -34.5t-136 34.5zM359.5 770.5q-16.5 9.5 -35.5 27.5q-13 12 -22 18t-20 6q-16 0 -27 -15t-11 -40h-61q0 58 26.5 88.5
t66.5 30.5q25 0 42 -10t35 -27q14 -12 22.5 -17.5t18.5 -5.5q17 0 28 14.5t11 39.5h60q0 -57 -26.5 -88t-65.5 -31q-25 0 -41.5 9.5z" />
    <glyph glyph-name="uni1EF4" unicode="&#x1ef4;" horiz-adv-x="551" 
d="M277 364l176 336h98l-230 -430v-270h-92v270l-229 430h101zM236.5 -168.5q-15.5 15.5 -15.5 38.5q0 24 15.5 39.5t38.5 15.5t39 -15.5t16 -39.5q0 -23 -16 -38.5t-39 -15.5t-38.5 15.5z" />
    <glyph glyph-name="uni1EF6" unicode="&#x1ef6;" horiz-adv-x="551" 
d="M277 364l176 336h98l-230 -430v-270h-92v270l-229 430h101zM256 752q21 29 21 59q0 22 -13.5 35t-37.5 13q-18 0 -31 -4v58q18 7 50 7q46 0 73 -23.5t27 -63.5q0 -45 -30 -81h-59z" />
    <glyph glyph-name="uni1EF8" unicode="&#x1ef8;" horiz-adv-x="551" 
d="M277 364l176 336h98l-230 -430v-270h-92v270l-229 430h101zM298.5 770.5q-16.5 9.5 -35.5 27.5q-13 12 -22 18t-20 6q-16 0 -27 -15t-11 -40h-61q0 58 26.5 88.5t66.5 30.5q25 0 42 -10t35 -27q14 -12 22.5 -17.5t18.5 -5.5q17 0 28 14.5t11 39.5h60q0 -57 -26.5 -88
t-65.5 -31q-25 0 -41.5 9.5z" />
    <glyph glyph-name="uni1EAF" unicode="&#x1eaf;" horiz-adv-x="506" 
d="M350 489.5q44 -24.5 68.5 -69t24.5 -101.5v-319h-65l-18 63h-5q-20 -28 -58 -51t-93 -23q-50 0 -88 20t-59 54.5t-21 76.5q0 47 28.5 83.5t80 56.5t117.5 20h94v23q0 51 -29.5 81.5t-77.5 30.5q-45 0 -71 -23t-33 -59h-87q5 43 29.5 80t66.5 59t95 22q57 0 101 -24.5z
M318 101.5q38 36.5 38 91.5v38h-88q-70 0 -108 -23t-38 -64q0 -36 25 -57.5t71 -21.5q62 0 100 36.5zM282 689h-64l63 131h91zM154 593.5q-38 37.5 -42 92.5h67q3 -32 21.5 -51t52.5 -19q33 0 51.5 19t22.5 51h66q-3 -55 -41.5 -92.5t-98.5 -37.5q-61 0 -99 37.5z" />
    <glyph glyph-name="uni1EB7" unicode="&#x1eb7;" horiz-adv-x="506" 
d="M350 489.5q44 -24.5 68.5 -69t24.5 -101.5v-319h-65l-18 63h-5q-20 -28 -58 -51t-93 -23q-50 0 -88 20t-59 54.5t-21 76.5q0 47 28.5 83.5t80 56.5t117.5 20h94v23q0 51 -29.5 81.5t-77.5 30.5q-45 0 -71 -23t-33 -59h-87q5 43 29.5 80t66.5 59t95 22q57 0 101 -24.5z
M318 101.5q38 36.5 38 91.5v38h-88q-70 0 -108 -23t-38 -64q0 -36 25 -57.5t71 -21.5q62 0 100 36.5zM216.5 -168.5q-15.5 15.5 -15.5 38.5q0 24 15.5 39.5t38.5 15.5t39 -15.5t16 -39.5q0 -23 -16 -38.5t-39 -15.5t-38.5 15.5zM153 606.5q-38 37.5 -42 92.5h67
q3 -32 21.5 -51t52.5 -19q33 0 51.5 19t22.5 51h66q-3 -55 -41.5 -92.5t-98.5 -37.5q-61 0 -99 37.5z" />
    <glyph glyph-name="uni1EB1" unicode="&#x1eb1;" horiz-adv-x="506" 
d="M350 489.5q44 -24.5 68.5 -69t24.5 -101.5v-319h-65l-18 63h-5q-20 -28 -58 -51t-93 -23q-50 0 -88 20t-59 54.5t-21 76.5q0 47 28.5 83.5t80 56.5t117.5 20h94v23q0 51 -29.5 81.5t-77.5 30.5q-45 0 -71 -23t-33 -59h-87q5 43 29.5 80t66.5 59t95 22q57 0 101 -24.5z
M318 101.5q38 36.5 38 91.5v38h-88q-70 0 -108 -23t-38 -64q0 -36 25 -57.5t71 -21.5q62 0 100 36.5zM287 689h-64l-90 131h91zM154 593.5q-38 37.5 -42 92.5h67q3 -32 21.5 -51t52.5 -19q33 0 51.5 19t22.5 51h66q-3 -55 -41.5 -92.5t-98.5 -37.5q-61 0 -99 37.5z" />
    <glyph glyph-name="uni1EB3" unicode="&#x1eb3;" horiz-adv-x="506" 
d="M350 489.5q44 -24.5 68.5 -69t24.5 -101.5v-319h-65l-18 63h-5q-20 -28 -58 -51t-93 -23q-50 0 -88 20t-59 54.5t-21 76.5q0 47 28.5 83.5t80 56.5t117.5 20h94v23q0 51 -29.5 81.5t-77.5 30.5q-45 0 -71 -23t-33 -59h-87q5 43 29.5 80t66.5 59t95 22q57 0 101 -24.5z
M318 101.5q38 36.5 38 91.5v38h-88q-70 0 -108 -23t-38 -64q0 -36 25 -57.5t71 -21.5q62 0 100 36.5zM224 689q19 27 19 52q0 22 -12.5 34.5t-31.5 12.5q-15 0 -28 -4v56q26 7 46 7q41 0 66 -23.5t25 -60.5q0 -35 -27 -74h-57zM154 593.5q-38 37.5 -42 92.5h67
q3 -32 21.5 -51t52.5 -19q33 0 51.5 19t22.5 51h66q-3 -55 -41.5 -92.5t-98.5 -37.5q-61 0 -99 37.5z" />
    <glyph glyph-name="uni1EB5" unicode="&#x1eb5;" horiz-adv-x="506" 
d="M350 489.5q44 -24.5 68.5 -69t24.5 -101.5v-319h-65l-18 63h-5q-20 -28 -58 -51t-93 -23q-50 0 -88 20t-59 54.5t-21 76.5q0 47 28.5 83.5t80 56.5t117.5 20h94v23q0 51 -29.5 81.5t-77.5 30.5q-45 0 -71 -23t-33 -59h-87q5 43 29.5 80t66.5 59t95 22q57 0 101 -24.5z
M318 101.5q38 36.5 38 91.5v38h-88q-70 0 -108 -23t-38 -64q0 -36 25 -57.5t71 -21.5q62 0 100 36.5zM274.5 715.5q-14.5 8.5 -33.5 25.5q-11 11 -19 16.5t-17 5.5q-14 0 -24.5 -14t-10.5 -37h-60q0 53 26 83.5t62 30.5q23 0 38 -9t32 -26q11 -11 19 -16.5t17 -5.5
q14 0 24.5 14t10.5 37h61q0 -53 -26.5 -83t-62.5 -30q-22 0 -36.5 8.5zM152.5 593.5q-38.5 37.5 -41.5 92.5h66q4 -32 22.5 -51t51.5 -19q34 0 52.5 19t22.5 51h66q-4 -55 -42 -92.5t-99 -37.5q-60 0 -98.5 37.5z" />
    <glyph glyph-name="uni1EA5" unicode="&#x1ea5;" horiz-adv-x="506" 
d="M350 489.5q44 -24.5 68.5 -69t24.5 -101.5v-319h-65l-18 63h-5q-20 -28 -58 -51t-93 -23q-50 0 -88 20t-59 54.5t-21 76.5q0 47 28.5 83.5t80 56.5t117.5 20h94v23q0 51 -29.5 81.5t-77.5 30.5q-45 0 -71 -23t-33 -59h-87q5 43 29.5 80t66.5 59t95 22q57 0 101 -24.5z
M318 101.5q38 36.5 38 91.5v38h-88q-70 0 -108 -23t-38 -64q0 -36 25 -57.5t71 -21.5q62 0 100 36.5zM360 635l64 132h90l-89 -132h-65zM108 552l106 142h76l105 -142h-81l-63 90l-63 -90h-80z" />
    <glyph glyph-name="uni1EAD" unicode="&#x1ead;" horiz-adv-x="506" 
d="M350 489.5q44 -24.5 68.5 -69t24.5 -101.5v-319h-65l-18 63h-5q-20 -28 -58 -51t-93 -23q-50 0 -88 20t-59 54.5t-21 76.5q0 47 28.5 83.5t80 56.5t117.5 20h94v23q0 51 -29.5 81.5t-77.5 30.5q-45 0 -71 -23t-33 -59h-87q5 43 29.5 80t66.5 59t95 22q57 0 101 -24.5z
M318 101.5q38 36.5 38 91.5v38h-88q-70 0 -108 -23t-38 -64q0 -36 25 -57.5t71 -21.5q62 0 100 36.5zM216.5 -168.5q-15.5 15.5 -15.5 38.5q0 24 15.5 39.5t38.5 15.5t39 -15.5t16 -39.5q0 -23 -16 -38.5t-39 -15.5t-38.5 15.5zM290 705l105 -142h-81l-63 91l-63 -91h-80
l106 142h76z" />
    <glyph glyph-name="uni1EA7" unicode="&#x1ea7;" horiz-adv-x="506" 
d="M350 489.5q44 -24.5 68.5 -69t24.5 -101.5v-319h-65l-18 63h-5q-20 -28 -58 -51t-93 -23q-50 0 -88 20t-59 54.5t-21 76.5q0 47 28.5 83.5t80 56.5t117.5 20h94v23q0 51 -29.5 81.5t-77.5 30.5q-45 0 -71 -23t-33 -59h-87q5 43 29.5 80t66.5 59t95 22q57 0 101 -24.5z
M318 101.5q38 36.5 38 91.5v38h-88q-70 0 -108 -23t-38 -64q0 -36 25 -57.5t71 -21.5q62 0 100 36.5zM387 767l63 -132h-64l-90 132h91zM108 552l106 142h76l105 -142h-81l-63 90l-63 -90h-80z" />
    <glyph glyph-name="uni1EA9" unicode="&#x1ea9;" horiz-adv-x="506" 
d="M350 489.5q44 -24.5 68.5 -69t24.5 -101.5v-319h-65l-18 63h-5q-20 -28 -58 -51t-93 -23q-50 0 -88 20t-59 54.5t-21 76.5q0 47 28.5 83.5t80 56.5t117.5 20h94v23q0 51 -29.5 81.5t-77.5 30.5q-45 0 -71 -23t-33 -59h-87q5 43 29.5 80t66.5 59t95 22q57 0 101 -24.5z
M318 101.5q38 36.5 38 91.5v38h-88q-70 0 -108 -23t-38 -64q0 -36 25 -57.5t71 -21.5q62 0 100 36.5zM421 769q25 -23 25 -58t-27 -74h-57q19 29 19 53q0 20 -12.5 31.5t-31.5 11.5q-15 0 -28 -4v56q19 7 46 7q41 0 66 -23zM108 552l106 142h76l105 -142h-81l-63 90l-63 -90
h-80z" />
    <glyph glyph-name="uni1EAB" unicode="&#x1eab;" horiz-adv-x="506" 
d="M350 489.5q44 -24.5 68.5 -69t24.5 -101.5v-319h-65l-18 63h-5q-20 -28 -58 -51t-93 -23q-50 0 -88 20t-59 54.5t-21 76.5q0 47 28.5 83.5t80 56.5t117.5 20h94v23q0 51 -29.5 81.5t-77.5 30.5q-45 0 -71 -23t-33 -59h-87q5 43 29.5 80t66.5 59t95 22q57 0 101 -24.5z
M318 101.5q38 36.5 38 91.5v38h-88q-70 0 -108 -23t-38 -64q0 -36 25 -57.5t71 -21.5q62 0 100 36.5zM174.5 756q-10.5 -14 -10.5 -37h-60q0 53 26 83.5t62 30.5q23 0 38 -9t32 -26q12 -12 19.5 -17t16.5 -5q14 0 24.5 14t10.5 37h61q0 -53 -26.5 -83t-62.5 -30
q-22 0 -36.5 8.5t-33.5 25.5q-12 12 -19.5 17t-16.5 5q-14 0 -24.5 -14zM290 694l105 -142h-81l-63 90l-63 -90h-80l106 142h76z" />
    <glyph glyph-name="uni1EA1" unicode="&#x1ea1;" horiz-adv-x="506" 
d="M350 489.5q44 -24.5 68.5 -69t24.5 -101.5v-319h-65l-18 63h-5q-20 -28 -58 -51t-93 -23q-50 0 -88 20t-59 54.5t-21 76.5q0 47 28.5 83.5t80 56.5t117.5 20h94v23q0 51 -29.5 81.5t-77.5 30.5q-45 0 -71 -23t-33 -59h-87q5 43 29.5 80t66.5 59t95 22q57 0 101 -24.5z
M318 101.5q38 36.5 38 91.5v38h-88q-70 0 -108 -23t-38 -64q0 -36 25 -57.5t71 -21.5q62 0 100 36.5zM216.5 -168.5q-15.5 15.5 -15.5 38.5q0 24 15.5 39.5t38.5 15.5t39 -15.5t16 -39.5q0 -23 -16 -38.5t-39 -15.5t-38.5 15.5z" />
    <glyph glyph-name="uni1EA3" unicode="&#x1ea3;" horiz-adv-x="506" 
d="M350 489.5q44 -24.5 68.5 -69t24.5 -101.5v-319h-65l-18 63h-5q-20 -28 -58 -51t-93 -23q-50 0 -88 20t-59 54.5t-21 76.5q0 47 28.5 83.5t80 56.5t117.5 20h94v23q0 51 -29.5 81.5t-77.5 30.5q-45 0 -71 -23t-33 -59h-87q5 43 29.5 80t66.5 59t95 22q57 0 101 -24.5z
M318 101.5q38 36.5 38 91.5v38h-88q-70 0 -108 -23t-38 -64q0 -36 25 -57.5t71 -21.5q62 0 100 36.5zM226 560q22 30 22 61q0 54 -53 54q-15 0 -28 -4v56q19 7 47 7q46 0 72.5 -24.5t26.5 -66.5t-30 -83h-57z" />
    <glyph glyph-name="uni1EBF" unicode="&#x1ebf;" horiz-adv-x="548" 
d="M507 214h-382q10 -68 52 -107t104 -39q82 0 124 67h89q-24 -61 -82 -103.5t-132 -42.5q-67 0 -123 34t-88 94t-32 135q0 73 33 133t88.5 94.5t120.5 34.5t118 -33t83.5 -90t30.5 -127q0 -34 -4 -50zM177.5 393.5q-43.5 -41.5 -53.5 -108.5h303q-8 66 -48.5 108t-99.5 42
q-58 0 -101.5 -41.5zM386 635l64 132h90l-89 -132h-65zM134 552l106 142h76l105 -142h-81l-63 90l-63 -90h-80z" />
    <glyph glyph-name="uni1EC7" unicode="&#x1ec7;" horiz-adv-x="548" 
d="M507 214h-382q10 -68 52 -107t104 -39q82 0 124 67h89q-24 -61 -82 -103.5t-132 -42.5q-67 0 -123 34t-88 94t-32 135q0 73 33 133t88.5 94.5t120.5 34.5t118 -33t83.5 -90t30.5 -127q0 -34 -4 -50zM177.5 393.5q-43.5 -41.5 -53.5 -108.5h303q-8 66 -48.5 108t-99.5 42
q-58 0 -101.5 -41.5zM239.5 -168.5q-15.5 15.5 -15.5 38.5q0 24 15.5 39.5t38.5 15.5t39 -15.5t16 -39.5q0 -23 -16 -38.5t-39 -15.5t-38.5 15.5zM316 705l105 -142h-81l-63 91l-63 -91h-80l106 142h76z" />
    <glyph glyph-name="uni1EC1" unicode="&#x1ec1;" horiz-adv-x="548" 
d="M507 214h-382q10 -68 52 -107t104 -39q82 0 124 67h89q-24 -61 -82 -103.5t-132 -42.5q-67 0 -123 34t-88 94t-32 135q0 73 33 133t88.5 94.5t120.5 34.5t118 -33t83.5 -90t30.5 -127q0 -34 -4 -50zM177.5 393.5q-43.5 -41.5 -53.5 -108.5h303q-8 66 -48.5 108t-99.5 42
q-58 0 -101.5 -41.5zM413 767l63 -132h-64l-90 132h91zM134 552l106 142h76l105 -142h-81l-63 90l-63 -90h-80z" />
    <glyph glyph-name="uni1EC3" unicode="&#x1ec3;" horiz-adv-x="548" 
d="M507 214h-382q10 -68 52 -107t104 -39q82 0 124 67h89q-24 -61 -82 -103.5t-132 -42.5q-67 0 -123 34t-88 94t-32 135q0 73 33 133t88.5 94.5t120.5 34.5t118 -33t83.5 -90t30.5 -127q0 -34 -4 -50zM177.5 393.5q-43.5 -41.5 -53.5 -108.5h303q-8 66 -48.5 108t-99.5 42
q-58 0 -101.5 -41.5zM447 769q25 -23 25 -58t-27 -74h-57q19 29 19 53q0 20 -12.5 31.5t-31.5 11.5q-15 0 -28 -4v56q19 7 46 7q41 0 66 -23zM134 552l106 142h76l105 -142h-81l-63 90l-63 -90h-80z" />
    <glyph glyph-name="uni1EC5" unicode="&#x1ec5;" horiz-adv-x="548" 
d="M507 214h-382q10 -68 52 -107t104 -39q82 0 124 67h89q-24 -61 -82 -103.5t-132 -42.5q-67 0 -123 34t-88 94t-32 135q0 73 33 133t88.5 94.5t120.5 34.5t118 -33t83.5 -90t30.5 -127q0 -34 -4 -50zM177.5 393.5q-43.5 -41.5 -53.5 -108.5h303q-8 66 -48.5 108t-99.5 42
q-58 0 -101.5 -41.5zM199.5 756q-10.5 -14 -10.5 -37h-60q0 53 26 83.5t62 30.5q23 0 38 -9t32 -26q12 -12 19.5 -17t16.5 -5q14 0 24.5 14t10.5 37h61q0 -53 -26.5 -83t-62.5 -30q-22 0 -36.5 8.5t-33.5 25.5q-12 12 -19.5 17t-16.5 5q-14 0 -24.5 -14zM315 694l105 -142
h-81l-63 90l-63 -90h-80l106 142h76z" />
    <glyph glyph-name="uni1EB9" unicode="&#x1eb9;" horiz-adv-x="548" 
d="M507 214h-382q10 -68 52 -107t104 -39q82 0 124 67h89q-24 -61 -82 -103.5t-132 -42.5q-67 0 -123 34t-88 94t-32 135q0 73 33 133t88.5 94.5t120.5 34.5t118 -33t83.5 -90t30.5 -127q0 -34 -4 -50zM177.5 393.5q-43.5 -41.5 -53.5 -108.5h303q-8 66 -48.5 108t-99.5 42
q-58 0 -101.5 -41.5zM239.5 -168.5q-15.5 15.5 -15.5 38.5q0 24 15.5 39.5t38.5 15.5t39 -15.5t16 -39.5q0 -23 -16 -38.5t-39 -15.5t-38.5 15.5z" />
    <glyph glyph-name="uni1EBB" unicode="&#x1ebb;" horiz-adv-x="548" 
d="M507 214h-382q10 -68 52 -107t104 -39q82 0 124 67h89q-24 -61 -82 -103.5t-132 -42.5q-67 0 -123 34t-88 94t-32 135q0 73 33 133t88.5 94.5t120.5 34.5t118 -33t83.5 -90t30.5 -127q0 -34 -4 -50zM177.5 393.5q-43.5 -41.5 -53.5 -108.5h303q-8 66 -48.5 108t-99.5 42
q-58 0 -101.5 -41.5zM252 560q22 30 22 61q0 54 -53 54q-15 0 -28 -4v56q19 7 47 7q46 0 72.5 -24.5t26.5 -66.5t-30 -83h-57z" />
    <glyph glyph-name="uni1EBD" unicode="&#x1ebd;" horiz-adv-x="548" 
d="M507 214h-382q10 -68 52 -107t104 -39q82 0 124 67h89q-24 -61 -82 -103.5t-132 -42.5q-67 0 -123 34t-88 94t-32 135q0 73 33 133t88.5 94.5t120.5 34.5t118 -33t83.5 -90t30.5 -127q0 -34 -4 -50zM177.5 393.5q-43.5 -41.5 -53.5 -108.5h303q-8 66 -48.5 108t-99.5 42
q-58 0 -101.5 -41.5zM299 580.5q-16 10.5 -35 29.5q-13 13 -22 19.5t-18 6.5q-16 0 -27 -15.5t-11 -45.5h-60q0 62 26 93.5t65 31.5q23 0 39.5 -10.5t34.5 -29.5q14 -14 22.5 -20t18.5 -6q15 0 26 16t11 44h60q0 -61 -25.5 -92.5t-64.5 -31.5q-24 0 -40 10.5z" />
    <glyph glyph-name="uni1ECB" unicode="&#x1ecb;" horiz-adv-x="223" 
d="M154 0h-86v503h86v-503zM72.5 594q-15.5 16 -15.5 39q0 24 15.5 39t38.5 15q24 0 39.5 -15t15.5 -39q0 -23 -16 -39t-39 -16t-38.5 16zM72.5 -168.5q-15.5 15.5 -15.5 38.5q0 24 15.5 39.5t38.5 15.5t39 -15.5t16 -39.5q0 -23 -16 -38.5t-39 -15.5t-38.5 15.5z" />
    <glyph glyph-name="uni1EC9" unicode="&#x1ec9;" horiz-adv-x="223" 
d="M154 0h-86v503h86v-503zM86 560q22 30 22 61q0 54 -53 54q-15 0 -28 -4v56q19 7 47 7q46 0 72.5 -24.5t26.5 -66.5t-30 -83h-57z" />
    <glyph glyph-name="itilde" unicode="&#x129;" horiz-adv-x="223" 
d="M154 0h-86v503h86v-503zM133 580.5q-16 10.5 -35 29.5q-13 13 -22 19.5t-18 6.5q-16 0 -27 -15.5t-11 -45.5h-60q0 62 26 93.5t65 31.5q23 0 39.5 -10.5t34.5 -29.5q14 -14 22.5 -20t18.5 -6q15 0 26 16t11 44h60q0 -61 -25.5 -92.5t-64.5 -31.5q-24 0 -40 10.5z" />
    <glyph glyph-name="uni1ED1" unicode="&#x1ed1;" horiz-adv-x="559" 
d="M158.5 23.5q-55.5 34.5 -88.5 95t-33 133.5t33 133t88.5 94.5t121.5 34.5q65 0 121 -34.5t89 -94.5t33 -133t-33 -133.5t-89 -95t-121 -34.5q-66 0 -121.5 34.5zM358 93q36 23 57 64.5t21 94.5t-21 94t-57 64t-78 23t-78 -23t-57.5 -64t-21.5 -94t21.5 -94.5t57 -64.5
t78.5 -23q42 0 78 23zM388 635l64 132h90l-89 -132h-65zM136 552l106 142h76l105 -142h-81l-63 90l-63 -90h-80z" />
    <glyph glyph-name="uni1ED9" unicode="&#x1ed9;" horiz-adv-x="559" 
d="M158.5 23.5q-55.5 34.5 -88.5 95t-33 133.5t33 133t88.5 94.5t121.5 34.5q65 0 121 -34.5t89 -94.5t33 -133t-33 -133.5t-89 -95t-121 -34.5q-66 0 -121.5 34.5zM358 93q36 23 57 64.5t21 94.5t-21 94t-57 64t-78 23t-78 -23t-57.5 -64t-21.5 -94t21.5 -94.5t57 -64.5
t78.5 -23q42 0 78 23zM240.5 -168.5q-15.5 15.5 -15.5 38.5q0 24 15.5 39.5t38.5 15.5t39 -15.5t16 -39.5q0 -23 -16 -38.5t-39 -15.5t-38.5 15.5zM318 705l105 -142h-81l-63 91l-63 -91h-80l106 142h76z" />
    <glyph glyph-name="uni1ED3" unicode="&#x1ed3;" horiz-adv-x="559" 
d="M158.5 23.5q-55.5 34.5 -88.5 95t-33 133.5t33 133t88.5 94.5t121.5 34.5q65 0 121 -34.5t89 -94.5t33 -133t-33 -133.5t-89 -95t-121 -34.5q-66 0 -121.5 34.5zM358 93q36 23 57 64.5t21 94.5t-21 94t-57 64t-78 23t-78 -23t-57.5 -64t-21.5 -94t21.5 -94.5t57 -64.5
t78.5 -23q42 0 78 23zM415 767l63 -132h-64l-90 132h91zM136 552l106 142h76l105 -142h-81l-63 90l-63 -90h-80z" />
    <glyph glyph-name="uni1ED5" unicode="&#x1ed5;" horiz-adv-x="559" 
d="M158.5 23.5q-55.5 34.5 -88.5 95t-33 133.5t33 133t88.5 94.5t121.5 34.5q65 0 121 -34.5t89 -94.5t33 -133t-33 -133.5t-89 -95t-121 -34.5q-66 0 -121.5 34.5zM358 93q36 23 57 64.5t21 94.5t-21 94t-57 64t-78 23t-78 -23t-57.5 -64t-21.5 -94t21.5 -94.5t57 -64.5
t78.5 -23q42 0 78 23zM449 769q25 -23 25 -58t-27 -74h-57q19 29 19 53q0 20 -12.5 31.5t-31.5 11.5q-15 0 -28 -4v56q19 7 46 7q41 0 66 -23zM136 552l106 142h76l105 -142h-81l-63 90l-63 -90h-80z" />
    <glyph glyph-name="uni1ED7" unicode="&#x1ed7;" horiz-adv-x="559" 
d="M158.5 23.5q-55.5 34.5 -88.5 95t-33 133.5t33 133t88.5 94.5t121.5 34.5q65 0 121 -34.5t89 -94.5t33 -133t-33 -133.5t-89 -95t-121 -34.5q-66 0 -121.5 34.5zM358 93q36 23 57 64.5t21 94.5t-21 94t-57 64t-78 23t-78 -23t-57.5 -64t-21.5 -94t21.5 -94.5t57 -64.5
t78.5 -23q42 0 78 23zM202.5 756q-10.5 -14 -10.5 -37h-60q0 53 26 83.5t62 30.5q23 0 38 -9t32 -26q12 -12 19.5 -17t16.5 -5q14 0 24.5 14t10.5 37h61q0 -53 -26.5 -83t-62.5 -30q-22 0 -36.5 8.5t-33.5 25.5q-12 12 -19.5 17t-16.5 5q-14 0 -24.5 -14zM318 694l105 -142
h-81l-63 90l-63 -90h-80l106 142h76z" />
    <glyph glyph-name="uni1ECD" unicode="&#x1ecd;" horiz-adv-x="559" 
d="M158.5 23.5q-55.5 34.5 -88.5 95t-33 133.5t33 133t88.5 94.5t121.5 34.5q65 0 121 -34.5t89 -94.5t33 -133t-33 -133.5t-89 -95t-121 -34.5q-66 0 -121.5 34.5zM358 93q36 23 57 64.5t21 94.5t-21 94t-57 64t-78 23t-78 -23t-57.5 -64t-21.5 -94t21.5 -94.5t57 -64.5
t78.5 -23q42 0 78 23zM240.5 -168.5q-15.5 15.5 -15.5 38.5q0 24 15.5 39.5t38.5 15.5t39 -15.5t16 -39.5q0 -23 -16 -38.5t-39 -15.5t-38.5 15.5z" />
    <glyph glyph-name="uni1ECF" unicode="&#x1ecf;" horiz-adv-x="559" 
d="M158.5 23.5q-55.5 34.5 -88.5 95t-33 133.5t33 133t88.5 94.5t121.5 34.5q65 0 121 -34.5t89 -94.5t33 -133t-33 -133.5t-89 -95t-121 -34.5q-66 0 -121.5 34.5zM358 93q36 23 57 64.5t21 94.5t-21 94t-57 64t-78 23t-78 -23t-57.5 -64t-21.5 -94t21.5 -94.5t57 -64.5
t78.5 -23q42 0 78 23zM254 560q22 30 22 61q0 54 -53 54q-15 0 -28 -4v56q19 7 47 7q46 0 72.5 -24.5t26.5 -66.5t-30 -83h-57z" />
    <glyph glyph-name="ohorn" unicode="&#x1a1;" horiz-adv-x="559" 
d="M504 355.5q19 -48.5 19 -103.5q0 -73 -33 -133.5t-89 -95t-121 -34.5q-66 0 -121.5 34.5t-88.5 95t-33 133.5t33 133t88.5 94.5t121.5 34.5q52 0 100 -23h16q49 0 49 39q0 25 -13 62h59q19 -34 19 -67q0 -29 -16 -52t-44 -33q35 -36 54 -84.5zM358 93q36 23 57 64.5
t21 94.5t-21 94t-57 64t-78 23t-78 -23t-57.5 -64t-21.5 -94t21.5 -94.5t57 -64.5t78.5 -23q42 0 78 23z" />
    <glyph glyph-name="uni1EDB" unicode="&#x1edb;" horiz-adv-x="559" 
d="M504 355.5q19 -48.5 19 -103.5q0 -73 -33 -133.5t-89 -95t-121 -34.5q-66 0 -121.5 34.5t-88.5 95t-33 133.5t33 133t88.5 94.5t121.5 34.5q52 0 100 -23h16q49 0 49 39q0 25 -13 62h59q19 -34 19 -67q0 -29 -16 -52t-44 -33q35 -36 54 -84.5zM358 93q36 23 57 64.5
t21 94.5t-21 94t-57 64t-78 23t-78 -23t-57.5 -64t-21.5 -94t21.5 -94.5t57 -64.5t78.5 -23q42 0 78 23zM302 563h-67l69 142h94z" />
    <glyph glyph-name="uni1EE3" unicode="&#x1ee3;" horiz-adv-x="559" 
d="M504 355.5q19 -48.5 19 -103.5q0 -73 -33 -133.5t-89 -95t-121 -34.5q-66 0 -121.5 34.5t-88.5 95t-33 133.5t33 133t88.5 94.5t121.5 34.5q52 0 100 -23h16q49 0 49 39q0 25 -13 62h59q19 -34 19 -67q0 -29 -16 -52t-44 -33q35 -36 54 -84.5zM358 93q36 23 57 64.5
t21 94.5t-21 94t-57 64t-78 23t-78 -23t-57.5 -64t-21.5 -94t21.5 -94.5t57 -64.5t78.5 -23q42 0 78 23zM240.5 -168.5q-15.5 15.5 -15.5 38.5q0 24 15.5 39.5t38.5 15.5t39 -15.5t16 -39.5q0 -23 -16 -38.5t-39 -15.5t-38.5 15.5z" />
    <glyph glyph-name="uni1EDD" unicode="&#x1edd;" horiz-adv-x="559" 
d="M504 355.5q19 -48.5 19 -103.5q0 -73 -33 -133.5t-89 -95t-121 -34.5q-66 0 -121.5 34.5t-88.5 95t-33 133.5t33 133t88.5 94.5t121.5 34.5q52 0 100 -23h16q49 0 49 39q0 25 -13 62h59q19 -34 19 -67q0 -29 -16 -52t-44 -33q35 -36 54 -84.5zM358 93q36 23 57 64.5
t21 94.5t-21 94t-57 64t-78 23t-78 -23t-57.5 -64t-21.5 -94t21.5 -94.5t57 -64.5t78.5 -23q42 0 78 23zM324 563h-66l-97 142h94z" />
    <glyph glyph-name="uni1EDF" unicode="&#x1edf;" horiz-adv-x="559" 
d="M504 355.5q19 -48.5 19 -103.5q0 -73 -33 -133.5t-89 -95t-121 -34.5q-66 0 -121.5 34.5t-88.5 95t-33 133.5t33 133t88.5 94.5t121.5 34.5q52 0 100 -23h16q49 0 49 39q0 25 -13 62h59q19 -34 19 -67q0 -29 -16 -52t-44 -33q35 -36 54 -84.5zM358 93q36 23 57 64.5
t21 94.5t-21 94t-57 64t-78 23t-78 -23t-57.5 -64t-21.5 -94t21.5 -94.5t57 -64.5t78.5 -23q42 0 78 23zM254 560q22 30 22 61q0 54 -53 54q-15 0 -28 -4v56q19 7 47 7q46 0 72.5 -24.5t26.5 -66.5t-30 -83h-57z" />
    <glyph glyph-name="uni1EE1" unicode="&#x1ee1;" horiz-adv-x="559" 
d="M504 355.5q19 -48.5 19 -103.5q0 -73 -33 -133.5t-89 -95t-121 -34.5q-66 0 -121.5 34.5t-88.5 95t-33 133.5t33 133t88.5 94.5t121.5 34.5q52 0 100 -23h16q49 0 49 39q0 25 -13 62h59q19 -34 19 -67q0 -29 -16 -52t-44 -33q35 -36 54 -84.5zM358 93q36 23 57 64.5
t21 94.5t-21 94t-57 64t-78 23t-78 -23t-57.5 -64t-21.5 -94t21.5 -94.5t57 -64.5t78.5 -23q42 0 78 23zM297 580.5q-16 10.5 -34 29.5q-14 14 -22 20t-18 6q-15 0 -26 -15.5t-11 -45.5h-60q0 62 25.5 93.5t64.5 31.5q23 0 39 -10.5t35 -29.5q13 -14 21 -20t18 -6
q15 0 26 16t11 44h60q0 -61 -25.5 -92.5t-64.5 -31.5q-23 0 -39 10.5z" />
    <glyph glyph-name="uni1EE5" unicode="&#x1ee5;" horiz-adv-x="565" 
d="M160.5 16.5q-45.5 27.5 -71.5 77.5t-26 116v293h86v-290q0 -65 36.5 -104t92.5 -39q59 0 95.5 39t36.5 104v290h87v-503h-65l-18 63h-5q-18 -27 -56.5 -50.5t-88.5 -23.5q-58 0 -103.5 27.5zM245.5 -168.5q-15.5 15.5 -15.5 38.5q0 24 15.5 39.5t38.5 15.5t39 -15.5
t16 -39.5q0 -23 -16 -38.5t-39 -15.5t-38.5 15.5z" />
    <glyph glyph-name="uni1EE7" unicode="&#x1ee7;" horiz-adv-x="565" 
d="M160.5 16.5q-45.5 27.5 -71.5 77.5t-26 116v293h86v-290q0 -65 36.5 -104t92.5 -39q59 0 95.5 39t36.5 104v290h87v-503h-65l-18 63h-5q-18 -27 -56.5 -50.5t-88.5 -23.5q-58 0 -103.5 27.5zM254 560q22 30 22 61q0 54 -53 54q-15 0 -28 -4v56q19 7 47 7q46 0 72.5 -24.5
t26.5 -66.5t-30 -83h-57z" />
    <glyph glyph-name="uhorn" unicode="&#x1b0;" horiz-adv-x="588" 
d="M592 604q18 -36 18 -67q0 -40 -28 -66t-74 -26h-11v-445h-65l-18 63h-5q-18 -27 -56.5 -50.5t-88.5 -23.5q-58 0 -103.5 27.5t-71.5 77.5t-26 116v293h86v-290q0 -65 36.5 -104t92.5 -39q59 0 95.5 39t36.5 104v290h86q49 0 49 39q0 25 -13 62h60z" />
    <glyph glyph-name="uni1EE9" unicode="&#x1ee9;" horiz-adv-x="588" 
d="M592 604q18 -36 18 -67q0 -40 -28 -66t-74 -26h-11v-445h-65l-18 63h-5q-18 -27 -56.5 -50.5t-88.5 -23.5q-58 0 -103.5 27.5t-71.5 77.5t-26 116v293h86v-290q0 -65 36.5 -104t92.5 -39q59 0 95.5 39t36.5 104v290h86q49 0 49 39q0 25 -13 62h60zM302 563h-67l69 142h94
z" />
    <glyph glyph-name="uni1EF1" unicode="&#x1ef1;" horiz-adv-x="588" 
d="M592 604q18 -36 18 -67q0 -40 -28 -66t-74 -26h-11v-445h-65l-18 63h-5q-18 -27 -56.5 -50.5t-88.5 -23.5q-58 0 -103.5 27.5t-71.5 77.5t-26 116v293h86v-290q0 -65 36.5 -104t92.5 -39q59 0 95.5 39t36.5 104v290h86q49 0 49 39q0 25 -13 62h60zM245.5 -168.5
q-15.5 15.5 -15.5 38.5q0 24 15.5 39.5t38.5 15.5t39 -15.5t16 -39.5q0 -23 -16 -38.5t-39 -15.5t-38.5 15.5z" />
    <glyph glyph-name="uni1EEB" unicode="&#x1eeb;" horiz-adv-x="588" 
d="M592 604q18 -36 18 -67q0 -40 -28 -66t-74 -26h-11v-445h-65l-18 63h-5q-18 -27 -56.5 -50.5t-88.5 -23.5q-58 0 -103.5 27.5t-71.5 77.5t-26 116v293h86v-290q0 -65 36.5 -104t92.5 -39q59 0 95.5 39t36.5 104v290h86q49 0 49 39q0 25 -13 62h60zM324 563h-66l-97 142
h94z" />
    <glyph glyph-name="uni1EED" unicode="&#x1eed;" horiz-adv-x="588" 
d="M592 604q18 -36 18 -67q0 -40 -28 -66t-74 -26h-11v-445h-65l-18 63h-5q-18 -27 -56.5 -50.5t-88.5 -23.5q-58 0 -103.5 27.5t-71.5 77.5t-26 116v293h86v-290q0 -65 36.5 -104t92.5 -39q59 0 95.5 39t36.5 104v290h86q49 0 49 39q0 25 -13 62h60zM254 560q22 30 22 61
q0 54 -53 54q-15 0 -28 -4v56q19 7 47 7q46 0 72.5 -24.5t26.5 -66.5t-30 -83h-57z" />
    <glyph glyph-name="uni1EEF" unicode="&#x1eef;" horiz-adv-x="588" 
d="M592 604q18 -36 18 -67q0 -40 -28 -66t-74 -26h-11v-445h-65l-18 63h-5q-18 -27 -56.5 -50.5t-88.5 -23.5q-58 0 -103.5 27.5t-71.5 77.5t-26 116v293h86v-290q0 -65 36.5 -104t92.5 -39q59 0 95.5 39t36.5 104v290h86q49 0 49 39q0 25 -13 62h60zM301 580.5
q-16 10.5 -35 29.5q-13 13 -22 19.5t-18 6.5q-16 0 -27 -15.5t-11 -45.5h-60q0 62 26 93.5t65 31.5q23 0 39.5 -10.5t34.5 -29.5q14 -14 22.5 -20t18.5 -6q15 0 26 16t11 44h60q0 -61 -25.5 -92.5t-64.5 -31.5q-24 0 -40 10.5z" />
    <glyph glyph-name="utilde" unicode="&#x169;" horiz-adv-x="565" 
d="M160.5 16.5q-45.5 27.5 -71.5 77.5t-26 116v293h86v-290q0 -65 36.5 -104t92.5 -39q59 0 95.5 39t36.5 104v290h87v-503h-65l-18 63h-5q-18 -27 -56.5 -50.5t-88.5 -23.5q-58 0 -103.5 27.5zM301 580.5q-16 10.5 -35 29.5q-13 13 -22 19.5t-18 6.5q-16 0 -27 -15.5
t-11 -45.5h-60q0 62 26 93.5t65 31.5q23 0 39.5 -10.5t34.5 -29.5q14 -14 22.5 -20t18.5 -6q15 0 26 16t11 44h60q0 -61 -25.5 -92.5t-64.5 -31.5q-24 0 -40 10.5z" />
    <glyph glyph-name="uni1EF5" unicode="&#x1ef5;" horiz-adv-x="487" 
d="M393 503h89l-216 -542q-33 -83 -67 -114.5t-79 -31.5q-20 0 -47 9v78q17 -6 33 -6q27 0 45.5 15t32.5 50l20 51l-199 491h93l149 -384zM308.5 -165.5q-15.5 15.5 -15.5 38.5q0 24 15.5 39.5t38.5 15.5t39 -15.5t16 -39.5q0 -23 -16 -38.5t-39 -15.5t-38.5 15.5z" />
    <glyph glyph-name="uni1EF7" unicode="&#x1ef7;" horiz-adv-x="487" 
d="M393 503h89l-216 -542q-33 -83 -67 -114.5t-79 -31.5q-20 0 -47 9v78q17 -6 33 -6q27 0 45.5 15t32.5 50l20 51l-199 491h93l149 -384zM220 560q22 30 22 61q0 54 -53 54q-15 0 -28 -4v56q19 7 47 7q46 0 72.5 -24.5t26.5 -66.5t-30 -83h-57z" />
    <glyph glyph-name="uni1EF9" unicode="&#x1ef9;" horiz-adv-x="487" 
d="M393 503h89l-216 -542q-33 -83 -67 -114.5t-79 -31.5q-20 0 -47 9v78q17 -6 33 -6q27 0 45.5 15t32.5 50l20 51l-199 491h93l149 -384zM267 580.5q-16 10.5 -35 29.5q-13 13 -22 19.5t-18 6.5q-16 0 -27 -15.5t-11 -45.5h-60q0 62 26 93.5t65 31.5q23 0 39.5 -10.5
t34.5 -29.5q14 -14 22.5 -20t18.5 -6q15 0 26 16t11 44h60q0 -61 -25.5 -92.5t-64.5 -31.5q-24 0 -40 10.5z" />
    <glyph glyph-name="uni1EAF.sc" horiz-adv-x="567" 
d="M567 0h-96l-52 142h-274l-52 -142h-94l236 610h97zM388 225l-106 288l-106 -288h212zM313 789h-64l61 120h89zM182.5 695q-38.5 37 -42.5 91h68q4 -30 22.5 -48.5t52.5 -18.5t52.5 18.5t22.5 48.5h68q-4 -54 -42.5 -91t-100.5 -37t-100.5 37z" />
    <glyph glyph-name="uni1EB7.sc" horiz-adv-x="567" 
d="M567 0h-96l-52 142h-274l-52 -142h-94l236 610h97zM388 225l-106 288l-106 -288h212zM244.5 -168.5q-15.5 15.5 -15.5 38.5q0 24 15.5 39.5t38.5 15.5t39 -15.5t16 -39.5q0 -23 -16 -38.5t-39 -15.5t-38.5 15.5zM182.5 707q-38.5 37 -42.5 91h68q4 -31 22.5 -49.5
t52.5 -18.5t52.5 18.5t22.5 49.5h68q-4 -54 -42.5 -91t-100.5 -37t-100.5 37z" />
    </font>
</defs>
</svg>
