<?xml version="1.0" encoding="UTF-8"?><svg xmlns="http://www.w3.org/2000/svg" xmlns:xlink="http://www.w3.org/1999/xlink" viewBox="0 0 1440 158.88"><defs><style>.cls-1 {
        fill: #dcdbdb;
      }

      .cls-2 {
        mask: url(#mask-5);
      }

      .cls-3 {
        fill: #cacaca;
      }

      .cls-4 {
        fill: url(#linear-gradient-2);
      }

      .cls-5 {
        fill: #c3c3c3;
      }

      .cls-6 {
        mask: url(#mask-1);
      }

      .cls-7 {
        fill: #d9d9d8;
      }

      .cls-8 {
        fill: #d7d7d7;
      }

      .cls-9 {
        fill: #e1e1e0;
      }

      .cls-10 {
        fill: #c2c2c2;
      }

      .cls-11 {
        mask: url(#mask-10);
      }

      .cls-12 {
        mask: url(#mask-6);
      }

      .cls-13 {
        mask: url(#mask-7);
      }

      .cls-14 {
        fill: #bababa;
      }

      .cls-15 {
        fill: #fff;
      }

      .cls-16 {
        mask: url(#mask);
      }

      .cls-17 {
        fill: #d6d6d5;
      }

      .cls-18 {
        fill: #cecece;
      }

      .cls-19 {
        fill: #e9e9e9;
      }

      .cls-20 {
        fill: #e2e2e2;
      }

      .cls-21 {
        mask: url(#mask-8);
      }

      .cls-22 {
        fill: #bdbdbc;
      }

      .cls-23 {
        mask: url(#mask-2);
      }

      .cls-24 {
        fill: #da291c;
      }

      .cls-25 {
        fill: #e0e0e0;
      }

      .cls-26 {
        mask: url(#mask-9);
      }

      .cls-27 {
        fill: #f2f2f2;
      }

      .cls-28 {
        fill: #bbb;
      }

      .cls-29 {
        fill: #e3e3e3;
      }

      .cls-30 {
        isolation: isolate;
      }

      .cls-31 {
        fill: #bfbfbf;
      }

      .cls-32 {
        fill: #b0b0b0;
      }

      .cls-33 {
        fill: #c4c4c4;
      }

      .cls-34 {
        fill: #c8c8c8;
      }

      .cls-35 {
        fill: #f1f1f1;
      }

      .cls-36 {
        fill: #c1c1c0;
      }

      .cls-37 {
        fill: #dbdbdb;
      }

      .cls-38 {
        fill: #b2b2b1;
      }

      .cls-39 {
        fill: #d3d3d3;
      }

      .cls-40 {
        fill: #b9b9b8;
      }

      .cls-41 {
        fill: #cbcbcb;
      }

      .cls-42 {
        fill: #222221;
      }

      .cls-43 {
        fill: #ddd;
      }

      .cls-44 {
        fill: #efefef;
      }

      .cls-45 {
        mix-blend-mode: multiply;
      }

      .cls-46 {
        fill: #d0d0d0;
      }

      .cls-47 {
        fill: #d2d2d1;
      }

      .cls-48 {
        fill: #ebebeb;
      }

      .cls-49 {
        fill: #c7c7c7;
      }

      .cls-50 {
        mask: url(#mask-11);
      }

      .cls-51 {
        fill: #dedede;
      }

      .cls-52 {
        fill: #cfcfcf;
      }

      .cls-53 {
        fill: #ccc;
      }

      .cls-54 {
        fill: #f4f4f4;
      }

      .cls-55 {
        fill: #b3b3b3;
      }

      .cls-56 {
        mask: url(#mask-12);
      }

      .cls-57 {
        fill: #f5f5f5;
      }

      .cls-58 {
        fill: #c6c6c6;
      }

      .cls-59 {
        mix-blend-mode: darken;
      }

      .cls-60 {
        mask: url(#mask-4);
      }

      .cls-61 {
        fill: #b6b6b6;
      }

      .cls-62 {
        fill: #e4e4e4;
      }

      .cls-63 {
        fill: #e7e7e7;
      }

      .cls-64 {
        fill: #ededed;
      }

      .cls-65 {
        fill: #d4d4d4;
      }

      .cls-66 {
        fill: #b7b7b7;
      }

      .cls-67 {
        fill: url(#linear-gradient);
      }

      .cls-68 {
        fill: #d9d9d9;
      }

      .cls-69 {
        fill: #f7f7f7;
      }

      .cls-70 {
        fill: #bebebe;
      }

      .cls-71 {
        fill: #b5b5b5;
      }

      .cls-72 {
        fill: #f3f3f3;
      }

      .cls-73 {
        fill: #e8e8e8;
      }

      .cls-74 {
        fill: #e6e6e6;
      }

      .cls-75 {
        mask: url(#mask-3);
      }</style><mask id="mask" x="628.65" y="6.43" width="182.91" height="103.01" maskUnits="userSpaceOnUse"><g id="mask0_375_115220" data-name="mask0 375 115220"><path class="cls-15" d="M811.54,6.43h-182.87v103h182.87V6.43Z"/></g></mask><mask id="mask-1" x="628.65" y="6.43" width="182.91" height="103.01" maskUnits="userSpaceOnUse"><g id="mask1_375_115220" data-name="mask1 375 115220"><path class="cls-15" d="M811.54,6.43h-182.87v103h182.87V6.43Z"/></g></mask><mask id="mask-2" x="631.09" y="92.23" width="2.62" height=".82" maskUnits="userSpaceOnUse"><g id="mask2_375_115220" data-name="mask2 375 115220"><path class="cls-15" d="M631.11,93.04c.9-.27,1.72-.52,2.58-.82l.02.04c-.95.28-1.84.55-2.6.78Z"/></g></mask><mask id="mask-3" x="628.67" y="93.77" width="46.85" height="15.65" maskUnits="userSpaceOnUse"><g id="mask3_375_115220" data-name="mask3 375 115220"><path class="cls-15" d="M675.52,109.42c-36.64-.03-46.34-14.88-46.85-15.65.51.78,10.22,15.62,46.85,15.65Z"/></g></mask><mask id="mask-4" x="688.72" y="99.53" width="50.11" height="9.3" maskUnits="userSpaceOnUse"><g id="mask4_375_115220" data-name="mask4 375 115220"><path class="cls-15" d="M738.83,99.53c-15.99,3.2-21.79,6.76-50.11,9.29,28.33-2.53,34.13-6.1,50.11-9.29Z"/></g></mask><mask id="mask-5" x="761.31" y="97.16" width="50.17" height="9.17" maskUnits="userSpaceOnUse"><g id="mask5_375_115220" data-name="mask5 375 115220"><path class="cls-15" d="M811.48,106.33c-21.11-6.17-35.89-9.16-50.17-9.16,14.28,0,29.06,2.99,50.17,9.16Z"/></g></mask><mask id="mask-6" x="738.89" y="97.16" width="22.4" height="2.35" maskUnits="userSpaceOnUse"><g id="mask6_375_115220" data-name="mask6 375 115220"><path class="cls-15" d="M761.29,97.16c-7.34,0-14.55.8-22.4,2.35,7.86-1.56,15.07-2.35,22.4-2.35Z"/></g></mask><mask id="mask-7" x="628.65" y="92.1" width="182.91" height="17.34" maskUnits="userSpaceOnUse"><g id="mask7_375_115220" data-name="mask7 375 115220"><path class="cls-15" d="M631.11,93.04c1.48-.44,2.29-.71,2.58-.82,0,0,8.65,11.94,41.95,12.16,3.88,0,8.23-.34,12.63-.59,27.72-2.47,33.36-5.98,49.64-9.22,8.46-1.98,15.69-2.45,23.41-2.45,14.94,0,30.19,3.1,45.19,7.49,2.79,3.71,5.04,6.72,5.04,6.72-21.14-6.19-35.93-9.18-50.23-9.18-7.34,0-14.56.79-22.43,2.35-16.02,3.2-21.81,6.77-50.17,9.3-4.7.42-9.05.61-13.09.61-36.73,0-46.45-14.87-46.96-15.65,0,0,.98-.29,2.44-.73"/></g></mask><mask id="mask-8" x="631.1" y="92.22" width="2.61" height=".82" maskUnits="userSpaceOnUse"><g id="mask8_375_115220" data-name="mask8 375 115220"><path class="cls-15" d="M633.68,92.23l.02.04c-.95.28-1.84.55-2.6.78,1.19-.36,1.82-.56,2.58-.82Z"/></g></mask><mask id="mask-9" x="806.5" y="6.45" width="5.04" height="99.9" maskUnits="userSpaceOnUse"><g id="mask9_375_115220" data-name="mask9 375 115220"><path class="cls-15" d="M806.5,11.49c2.79-2.79,5.04-5.04,5.04-5.04v99.9s-2.26-3.01-5.04-6.72V11.49Z"/></g></mask><mask id="mask-10" x="628.65" y="6.43" width="182.91" height="6.23" maskUnits="userSpaceOnUse"><g id="mask10_375_115220" data-name="mask10 375 115220"><path class="cls-15" d="M628.65,6.43l6.24,6.23h170.42l6.24-6.23h-182.91Z"/></g></mask><linearGradient id="linear-gradient" x1="720.11" y1="153.57" x2="720.11" y2="147.41" gradientTransform="translate(0 160) scale(1 -1)" gradientUnits="userSpaceOnUse"><stop offset="0" stop-color="#e4aba7"/><stop offset=".14" stop-color="#e1a39f"/><stop offset=".34" stop-color="#da8f89"/><stop offset=".6" stop-color="#d06d66"/><stop offset=".89" stop-color="#c14036"/><stop offset="1" stop-color="#bb2d22"/></linearGradient><mask id="mask-11" x="628.65" y="6.43" width="6.24" height="87.35" maskUnits="userSpaceOnUse"><g id="mask11_375_115220" data-name="mask11 375 115220"><path class="cls-15" d="M628.66,93.79l6.23-1.78V12.66l-6.24-6.23v87.35Z"/></g></mask><linearGradient id="linear-gradient-2" x1="628.65" y1="109.89" x2="634.89" y2="109.89" xlink:href="#linear-gradient"/><mask id="mask-12" x="645.07" y="21.83" width="150.68" height="60.23" maskUnits="userSpaceOnUse"><g id="mask12_375_115220" data-name="mask12 375 115220"><path class="cls-15" d="M795.73,21.83h-150.67v60.21h150.67V21.83Z"/></g></mask></defs><g class="cls-30"><g id="Layer_2" data-name="Layer 2"><g id="Layer_1-2" data-name="Layer 1"><path class="cls-24" d="M1440,0H0s0,132.1,0,132.1c477.5-235.6,584.68-85.57,907.5,0C1143.63,194.69,1348.61,146.32,1440,0Z"/><path class="cls-15" d="M623.55,90.02V1.38h192.98v111.47c-26.52-8.16-48.94-13.95-77.61-8.26-16.39,3.22-21.09,6.61-50.06,9.2-17.1,1.5-53.07,1-65.31-18.62v-5.15h0Z"/><path class="cls-24" d="M628.67,6.44v87.32s11.85,19.33,60.06,15.05c28.35-2.49,34.13-6.09,50.15-9.28,23.17-4.6,40.66-2.54,72.66,6.82V6.45h-182.87Z"/><g class="cls-45"><g class="cls-16"><g class="cls-6"><g><g class="cls-23"><g><path class="cls-57" d="M631.11,93.04c.9-.27,1.72-.52,2.58-.82l.02.04c-.95.28-1.84.55-2.6.77"/><path class="cls-57" d="M631.11,93.04c.23-.06.46-.15.69-.21l.36-.11c.11-.03.27-.09.38-.12l.39-.12c.22-.07.52-.17.74-.24l.02.04s-.03,0-.05,0c-.94.28-1.81.54-2.55.76"/><path class="cls-54" d="M631.11,93.04c.23-.06.46-.15.69-.21l.36-.11c.11-.03.27-.09.38-.12l.39-.12c.22-.07.52-.17.74-.24,0,0,0,.02.02.03-.12.04-.29.09-.41.13l-.25.07c-.69.21-1.36.4-1.93.57"/><path class="cls-72" d="M631.11,93.04c.23-.06.46-.15.69-.21l.36-.11c.11-.03.27-.09.38-.12l.39-.12c.22-.07.52-.17.74-.24,0,0,0,0,.02.03-.12.04-.29.09-.41.13-.19.06-.38.11-.57.18-.57.17-1.12.33-1.61.48"/><path class="cls-27" d="M631.11,93.04c.23-.06.46-.15.69-.21l.36-.11c.11-.03.27-.09.38-.12l.39-.12c.22-.07.52-.17.74-.24,0,0,0,0,.02.02-.12.04-.28.09-.41.13-.23.07-.47.15-.7.22-.53.15-1.03.31-1.47.44Z"/><path class="cls-35" d="M631.11,93.04c.23-.06.46-.15.69-.21l.36-.11c.11-.03.27-.09.38-.12l.39-.12c.22-.07.52-.17.74-.24l.02.02c-.12.04-.29.09-.41.13-.28.09-.56.18-.84.27-.48.15-.93.27-1.34.4"/><path class="cls-44" d="M631.11,93.04c.23-.06.46-.15.69-.21l.36-.11c.11-.03.27-.09.38-.12l.39-.12c.22-.07.52-.17.74-.24l.02.02c-.13.04-.29.09-.41.13-.33.1-.65.2-.98.31-.42.13-.83.24-1.19.36"/><path class="cls-64" d="M631.11,93.04c.23-.06.46-.15.69-.21l.36-.11c.11-.03.27-.09.38-.12l.39-.12c.22-.07.52-.17.74-.24v.02c-.11.04-.28.09-.4.13-.37.11-.73.23-1.11.36-.38.11-.73.22-1.07.31"/><path class="cls-48" d="M631.11,93.04c.23-.06.46-.15.69-.21l.36-.11c.11-.03.27-.09.38-.12l.39-.12c.22-.07.52-.17.74-.24v.02c-.12.04-.28.09-.41.13-.41.13-.82.27-1.24.4-.33.1-.64.19-.94.27"/><path class="cls-48" d="M631.11,93.04c.23-.06.46-.15.69-.21l.36-.11c.11-.03.27-.09.38-.12l.39-.12c.22-.07.52-.17.74-.24l-.4.14c-.45.15-.9.29-1.36.44-.28.08-.56.17-.82.24"/><path class="cls-19" d="M631.11,93.04c.23-.06.46-.15.69-.21l.36-.11c.11-.03.27-.09.38-.12l.39-.12c.22-.07.52-.17.74-.24l-.41.14c-.48.15-.97.31-1.45.47-.25.07-.49.15-.72.21"/><path class="cls-73" d="M632.8,92.52c.3-.1.59-.19.89-.29-.12.04-.29.1-.41.13-.15.05-.34.11-.48.15"/><path class="cls-73" d="M631.11,93.04c.23-.06.46-.15.69-.21l.36-.11c.11-.03.27-.09.38-.12.06-.02.16-.05.23-.06-.11.04-.27.09-.38.12-.23.07-.45.15-.67.21-.21.06-.42.12-.61.18Z"/><path class="cls-63" d="M632.96,92.47c.22-.07.51-.17.74-.24-.12.04-.28.1-.41.14l-.32.11Z"/><path class="cls-63" d="M631.11,93.04c.23-.06.46-.15.69-.21l.36-.11h0l-.23.07-.32.1c-.18.05-.36.1-.52.15"/><path class="cls-74" d="M633.1,92.42c.18-.06.41-.14.58-.19-.12.04-.28.1-.41.14l-.18.06"/><path class="cls-74" d="M631.11,93.04c.23-.06.46-.15.69-.21,0,0,.02,0,.03,0-.09.02-.22.07-.31.1-.15.04-.29.09-.43.12"/><path class="cls-62" d="M633.24,92.37c.13-.04.31-.1.44-.15l-.41.14h-.03"/><path class="cls-62" d="M631.11,93.04c.17-.05.4-.11.57-.17-.06.02-.17.05-.23.07-.11.03-.23.06-.33.1Z"/><path class="cls-29" d="M633.37,92.33c.09-.02.22-.07.32-.11-.1.03-.22.07-.32.11Z"/><path class="cls-29" d="M631.11,93.04c.12-.03.28-.08.4-.12-.05.02-.12.04-.17.05-.08.02-.16.05-.24.07"/><path class="cls-20" d="M631.11,93.04c.08-.02.17-.05.25-.07-.02,0-.06.02-.1.03-.05,0-.1.02-.15.04"/><path class="cls-9" d="M633.61,92.25s.05-.02.07-.02c-.02,0-.05.02-.07.02Z"/><path class="cls-9" d="M631.11,93.04s.06-.02.1-.02c-.02,0-.03,0-.04,0-.02,0-.04,0-.06.02Z"/></g></g><g class="cls-75"><g><path class="cls-66" d="M675.52,109.42c-3.72,0-7.17-.16-10.35-.44,3.19.27,6.63.44,10.35.44Z"/><path class="cls-61" d="M665.17,108.99c-5.45-.48-10.14-1.32-14.16-2.36,4.03,1.04,8.71,1.87,14.16,2.36Z"/><path class="cls-71" d="M651.01,106.63c-3.37-.87-6.29-1.9-8.78-2.97,2.49,1.07,5.4,2.1,8.78,2.97Z"/><path class="cls-55" d="M642.22,103.66c-2.45-1.06-4.5-2.17-6.21-3.26,1.7,1.08,3.75,2.2,6.21,3.26Z"/><path class="cls-32" d="M631.36,96.83c-1.77-1.66-2.55-2.85-2.69-3.06.14.21.92,1.41,2.69,3.06Z"/></g></g><g class="cls-60"><path class="cls-66" d="M700.97,107.5c-3.58.46-7.61.9-12.25,1.32,4.64-.42,8.68-.86,12.25-1.32Z"/></g><g class="cls-2"><g><path class="cls-71" d="M811.48,106.33c-4.35-1.28-8.43-2.41-12.3-3.41,3.87,1,7.94,2.14,12.3,3.41Z"/><path class="cls-61" d="M799.18,102.91c-10.85-2.82-19.99-4.59-28.54-5.33,8.55.75,17.69,2.51,28.54,5.33Z"/><path class="cls-66" d="M770.64,97.58c-3.17-.27-6.27-.42-9.33-.42,3.07,0,6.16.14,9.33.42Z"/></g></g><g class="cls-12"><path class="cls-66" d="M761.29,97.16c-4.55,0-9.03.31-13.66.9,4.63-.6,9.12-.9,13.66-.9Z"/></g><g class="cls-13"><g><path class="cls-57" d="M631.11,93.04c.65-.19,1.52-.47,2.17-.68.42-.14,9.06,11.81,42.35,12.02,3.88,0,8.23-.34,12.63-.59,27.72-2.47,33.36-5.98,49.64-9.22,8.46-1.98,15.69-2.45,23.41-2.45,14.94,0,30.19,3.1,45.19,7.49,2.79,3.71,5.04,6.73,5.04,6.73-21.14-6.19-35.93-9.18-50.23-9.18-7.34,0-14.56.79-22.43,2.35-16.02,3.2-21.81,6.77-50.17,9.3-4.7.42-9.05.61-13.09.61-36.73,0-46.45-14.87-46.96-15.65,0,0,.98-.29,2.44-.73"/><path class="cls-57" d="M631.11,93.04l1-.31.38-.12.4-.12.4-.13.41-.14.14.19c12.79,13.77,49.57,15.81,91.54,5.1,19.37-4.95,39.39-10.06,81.15,2.12,2.78,3.71,5.03,6.71,5.03,6.71-21.14-6.19-35.93-9.18-50.23-9.18-7.34,0-14.56.79-22.43,2.35-16.02,3.2-21.81,6.77-50.17,9.3-4.7.42-9.05.61-13.09.61-36.73,0-46.45-14.87-46.96-15.65,0,0,.98-.29,2.44-.73"/><path class="cls-54" d="M631.11,93.04l1-.31.38-.12.4-.12.4-.13.41-.14.08.21c9.57,11.74,44.11,17.28,91.62,5.14,18.5-4.72,39.47-10.09,81.23,2.18,2.73,3.64,4.92,6.58,4.92,6.58-21.14-6.19-35.93-9.18-50.23-9.18-7.34,0-14.56.79-22.43,2.35-16.02,3.2-21.81,6.77-50.17,9.3-4.7.42-9.05.61-13.09.61-36.73,0-46.45-14.87-46.96-15.65,0,0,.98-.29,2.44-.73"/><path class="cls-72" d="M631.11,93.04l1-.31.38-.12.4-.12.4-.13.41-.14.02.23c6.65,9.37,37.44,19.07,91.69,5.2,18.51-4.73,39.49-10.09,81.32,2.24,2.68,3.58,4.83,6.45,4.83,6.45-21.14-6.19-35.93-9.18-50.23-9.18-7.34,0-14.56.79-22.43,2.35-16.02,3.2-21.81,6.77-50.17,9.3-4.7.42-9.05.61-13.09.61-36.73,0-46.45-14.87-46.96-15.65,0,0,.98-.29,2.44-.73"/><path class="cls-27" d="M631.11,93.04l1-.31.38-.12.4-.12.4-.13.41-.14-.03.26c4.78,7.78,34.51,19.89,91.76,5.27,19.41-4.96,39.46-10.09,81.4,2.29,2.64,3.52,4.72,6.31,4.72,6.31-21.14-6.19-35.93-9.18-50.23-9.18-7.34,0-14.56.79-22.43,2.35-16.02,3.2-21.81,6.77-50.17,9.3-4.7.42-9.05.61-13.09.61-36.73,0-46.45-14.87-46.96-15.65,0,0,.98-.29,2.44-.73"/><path class="cls-35" d="M631.11,93.04l1-.31.38-.12.4-.12.4-.13.41-.14-.09.28c4.65,8.85,36.36,19.5,91.84,5.32,18.53-4.74,39.52-10.1,81.48,2.34,2.59,3.45,4.63,6.17,4.63,6.17-21.14-6.19-35.93-9.18-50.23-9.18-7.34,0-14.56.79-22.43,2.35-16.02,3.2-21.81,6.77-50.17,9.3-4.7.42-9.05.61-13.09.61-36.73,0-46.45-14.87-46.96-15.65,0,0,.98-.29,2.44-.73"/><path class="cls-44" d="M631.11,93.04l1-.31.38-.12.4-.12.4-.13.41-.14-.15.31c2.94,6.65,31.27,20.88,91.91,5.38,18.54-4.74,39.54-10.11,81.57,2.4,2.54,3.39,4.52,6.04,4.52,6.04-21.14-6.19-35.93-9.18-50.23-9.18-7.34,0-14.56.79-22.43,2.35-16.02,3.2-21.81,6.77-50.17,9.3-4.7.42-9.05.61-13.09.61-36.73,0-46.45-14.87-46.96-15.65,0,0,.98-.29,2.44-.73"/><path class="cls-64" d="M631.11,93.04l1-.31.38-.12.4-.12.4-.13.41-.14-.2.33c2.74,7.54,34.13,20.22,91.99,5.44,18.54-4.75,39.57-10.12,81.64,2.45,2.49,3.33,4.43,5.91,4.43,5.91-21.14-6.19-35.93-9.18-50.23-9.18-7.34,0-14.56.79-22.43,2.35-16.02,3.2-21.81,6.77-50.17,9.3-4.7.42-9.05.61-13.09.61-36.73,0-46.45-14.87-46.96-15.65,0,0,.98-.29,2.44-.73Z"/><path class="cls-48" d="M631.11,93.04l1-.31.38-.12.4-.12.4-.13.41-.14-.23.34c1.52,5.52,29.51,21.49,92.04,5.5,19.43-4.97,39.52-10.1,81.73,2.5,2.45,3.26,4.33,5.77,4.33,5.77-21.14-6.19-35.93-9.18-50.23-9.18-7.34,0-14.56.79-22.43,2.35-16.02,3.2-21.81,6.77-50.17,9.3-4.7.42-9.05.61-13.09.61-36.73,0-46.45-14.87-46.96-15.65,0,0,.98-.29,2.44-.73"/><path class="cls-48" d="M631.11,93.04l1-.31.38-.12.4-.12.4-.13.41-.14-.24.32c1.45,6.65,31.89,20.97,92.07,5.59,18.56-4.74,39.62-10.13,81.8,2.56,2.4,3.2,4.23,5.65,4.23,5.65-21.14-6.19-35.93-9.18-50.23-9.18-7.34,0-14.56.79-22.43,2.35-16.02,3.2-21.81,6.77-50.17,9.3-4.7.42-9.05.61-13.09.61-36.73,0-46.45-14.87-46.96-15.65,0,0,.98-.29,2.44-.73"/><path class="cls-19" d="M631.11,93.04l1-.31.38-.12.4-.12.4-.13.41-.14-.25.31c1.15,6.75,31.05,21.29,92.09,5.68,19.39-4.96,39.44-10.09,81.89,2.61,2.35,3.13,4.13,5.52,4.13,5.52-21.14-6.19-35.93-9.18-50.23-9.18-7.34,0-14.56.79-22.43,2.35-16.02,3.2-21.81,6.77-50.17,9.3-4.7.42-9.05.61-13.09.61-36.73,0-46.45-14.87-46.96-15.65,0,0,.98-.29,2.44-.73"/><path class="cls-73" d="M631.11,93.04l1-.31.38-.12.4-.12.4-.13.41-.14-.26.31c.65,6.67,30.62,21.5,92.11,5.77,23.01-5.89,42.35-9.14,81.95,2.62,2.31,3.09,4.05,5.42,4.05,5.42-21.14-6.19-35.93-9.18-50.23-9.18-7.34,0-14.56.79-22.43,2.35-16.02,3.2-21.81,6.77-50.17,9.3-4.7.42-9.05.61-13.09.61-36.73,0-46.45-14.87-46.96-15.65,0,0,.98-.29,2.44-.73"/><path class="cls-63" d="M631.11,93.04l1-.31.38-.12.4-.12.4-.13.41-.14-.27.3c-.06,5.84,29.4,21.9,92.14,5.85,23.01-5.89,42.36-9.14,81.99,2.65,2.28,3.04,3.99,5.31,3.99,5.31-21.14-6.19-35.93-9.18-50.23-9.18-7.34,0-14.56.79-22.43,2.35-16.02,3.2-21.81,6.77-50.17,9.3-4.7.42-9.05.61-13.09.61-36.73,0-46.45-14.87-46.96-15.65,0,0,.98-.29,2.44-.73"/><path class="cls-74" d="M631.11,93.04l1-.31.38-.12.4-.12.4-.13.41-.14-.27.29c-.04.29-.22.69-.14.98,1.32,4.7,29.57,21,92.3,4.95,23.62-6.04,42.1-9.12,82.06,2.68,2.24,2.99,3.91,5.22,3.91,5.22-21.14-6.19-35.93-9.18-50.23-9.18-7.34,0-14.56.79-22.43,2.35-16.02,3.2-21.81,6.77-50.17,9.3-4.7.42-9.05.61-13.09.61-36.73,0-46.45-14.87-46.96-15.65,0,0,.98-.29,2.44-.73"/><path class="cls-62" d="M631.11,93.04l1-.31.38-.12.4-.12.4-.13.41-.14-.28.28c-.03.42-.25,1-.1,1.39,2.05,5.23,31.51,20.17,92.29,4.63,23.63-6.04,42.1-9.12,82.12,2.71,2.2,2.93,3.83,5.12,3.83,5.12-21.14-6.19-35.93-9.18-50.23-9.18-7.34,0-14.56.79-22.43,2.35-16.02,3.2-21.81,6.77-50.17,9.3-4.7.42-9.05.61-13.09.61-36.73,0-46.45-14.87-46.96-15.65,0,0,.98-.29,2.44-.73"/><path class="cls-29" d="M631.11,93.04l1-.31.38-.12.4-.12.4-.13.41-.14-.29.27c-.07.37-.34.88-.23,1.24,1.34,4.69,29.69,20.89,92.44,4.85,23.55-6.03,42-9.09,82.17,2.74,2.16,2.89,3.76,5.02,3.76,5.02-21.14-6.19-35.93-9.18-50.23-9.18-7.34,0-14.56.79-22.43,2.35-16.02,3.2-21.81,6.77-50.17,9.3-4.7.42-9.05.61-13.09.61-36.73,0-46.45-14.87-46.96-15.65,0,0,.98-.29,2.44-.73"/><path class="cls-20" d="M631.11,93.04l1-.31.38-.12.4-.12.4-.13.41-.14-.3.26c-.1.34-.42.78-.36,1.12.89,4.65,29.02,21.31,92.59,5.05,23.53-6.03,41.96-9.08,82.24,2.76,2.12,2.84,3.69,4.93,3.69,4.93-21.14-6.19-35.93-9.18-50.23-9.18-7.34,0-14.56.79-22.43,2.35-16.02,3.2-21.81,6.77-50.17,9.3-4.7.42-9.05.61-13.09.61-36.73,0-46.45-14.87-46.96-15.65,0,0,.98-.29,2.44-.73"/><path class="cls-9" d="M631.11,93.04l1-.31.38-.12.4-.12.4-.13.41-.14-.3.26c-.13.36-.5.82-.43,1.19.84,4.67,28.81,21.39,92.68,5.06,23.48-6.01,41.89-9.06,82.29,2.79,2.09,2.79,3.62,4.83,3.62,4.83-21.14-6.19-35.94-9.18-50.23-9.18-7.34,0-14.56.79-22.43,2.35-16.02,3.2-21.81,6.77-50.17,9.3-4.7.42-9.05.61-13.09.61-36.73,0-46.45-14.87-46.96-15.65,0,0,.98-.29,2.44-.73"/><path class="cls-25" d="M631.11,93.04l1-.31.38-.12.4-.12.4-.13.41-.14-.31.24c-.19.23-.57.48-.63.78-.67,3.57,25.88,22.69,92.9,5.54,23.41-5.99,41.78-9.03,82.35,2.82,2.05,2.74,3.54,4.73,3.54,4.73-21.14-6.19-35.93-9.18-50.23-9.18-7.34,0-14.56.79-22.43,2.35-16.02,3.2-21.81,6.77-50.17,9.3-4.7.42-9.05.61-13.09.61-36.73,0-46.45-14.87-46.96-15.65,0,0,.98-.29,2.44-.73"/><path class="cls-51" d="M631.11,93.04l1-.31.38-.12.4-.12.4-.13.41-.14-.31.23c-.22.26-.66.51-.73.84-.65,3.57,26,22.72,93.02,5.56,23.38-5.98,41.75-9.01,82.4,2.85,2.01,2.69,3.47,4.64,3.47,4.64-21.14-6.19-35.93-9.18-50.23-9.18-7.34,0-14.56.79-22.43,2.35-16.02,3.2-21.81,6.77-50.17,9.3-4.7.42-9.05.61-13.09.61-36.73,0-46.45-14.87-46.96-15.65,0,0,.98-.29,2.44-.73"/><path class="cls-43" d="M631.11,93.04l1-.31.38-.12.4-.12.4-.13.41-.14.03.05c-.33.19-.94.29-1.1.64-1.4,3.08,24.71,23.52,93.07,6.03,27.23-6.97,44.7-8.11,82.45,2.88,1.98,2.64,3.4,4.54,3.4,4.54-21.14-6.19-35.93-9.18-50.23-9.18-7.34,0-14.56.79-22.43,2.35-16.02,3.2-21.81,6.77-50.17,9.3-4.7.42-9.05.61-13.09.61-36.73,0-46.45-14.87-46.96-15.65,0,0,.98-.29,2.44-.73Z"/><path class="cls-1" d="M631.11,93.04l1-.31.38-.12.4-.12.4-.13.41-.14-.33.23c-.27.16-.8.25-.93.56-1.25,3.04,25.81,23.26,93.27,5.99,27.16-6.95,44.63-8.08,82.51,2.9,1.95,2.59,3.33,4.44,3.33,4.44-21.14-6.19-35.93-9.18-50.23-9.18-7.34,0-14.56.79-22.43,2.35-16.02,3.2-21.81,6.77-50.17,9.3-4.7.42-9.05.61-13.09.61-36.73,0-46.45-14.87-46.96-15.65,0,0,.98-.29,2.44-.73"/><path class="cls-37" d="M631.11,93.04l1-.31.38-.12.4-.12.4-.13.41-.14-.34.21c-.31.19-.9.27-1.03.61-1.11,3.12,25.69,23.34,93.39,6.01,27.07-6.93,44.53-8.05,82.57,2.92,1.91,2.54,3.26,4.35,3.26,4.35-21.14-6.19-35.93-9.18-50.23-9.18-7.34,0-14.56.79-22.43,2.35-16.02,3.2-21.81,6.77-50.17,9.3-4.7.42-9.05.61-13.09.61-36.73,0-46.45-14.87-46.96-15.65,0,0,.98-.29,2.44-.73"/><path class="cls-68" d="M631.11,93.04l1-.31.38-.12.4-.12.4-.13.41-.14-.34.2c-.33.19-.94.28-1.07.63-1.24,3.16,24.8,23.64,93.46,6.07,27.06-6.92,44.52-8.04,82.62,2.96,1.87,2.49,3.19,4.26,3.19,4.26-21.14-6.19-35.93-9.18-50.23-9.18-7.34,0-14.56.79-22.43,2.35-16.02,3.2-21.81,6.77-50.17,9.3-4.7.42-9.05.61-13.09.61-36.73,0-46.45-14.87-46.96-15.65,0,0,.98-.29,2.44-.73"/><path class="cls-7" d="M631.11,93.04l1-.31.38-.12.4-.12.4-.13.41-.14-.35.19c-.32.19-.94.27-1.08.61-1.36,3.09,25.15,23.65,93.48,6.15,26.97-6.9,44.42-8.01,82.68,2.99,1.83,2.44,3.12,4.17,3.12,4.17-21.14-6.19-35.93-9.18-50.23-9.18-7.34,0-14.56.79-22.43,2.35-16.02,3.2-21.81,6.77-50.17,9.3-4.7.42-9.05.61-13.09.61-36.73,0-46.45-14.87-46.96-15.65,0,0,.98-.29,2.44-.73"/><path class="cls-8" d="M631.11,93.04l1-.31.38-.12.4-.12.4-.13.41-.14-.36.19c-.33.18-.94.27-1.1.6-1.49,3.13,24.25,23.98,93.52,6.24,28.21-7.22,44.95-7.85,82.74,3,1.79,2.39,3.05,4.07,3.05,4.07-21.14-6.19-35.93-9.18-50.23-9.18-7.34,0-14.56.79-22.43,2.35-16.02,3.2-21.81,6.77-50.17,9.3-4.7.42-9.05.61-13.09.61-36.73,0-46.45-14.87-46.96-15.65,0,0,.98-.29,2.44-.73"/><path class="cls-17" d="M631.11,93.04l1-.31.38-.12.4-.12.4-.13.41-.14-.36.19c-.33.18-.94.26-1.11.59-1.56,3.05,24.97,23.89,93.55,6.33,27-6.91,44.46-8.02,82.79,3.03,1.76,2.34,2.98,3.97,2.98,3.97-21.14-6.19-35.93-9.18-50.23-9.18-7.34,0-14.56.79-22.43,2.35-16.02,3.2-21.81,6.77-50.17,9.3-4.7.42-9.05.61-13.09.61-36.73,0-46.45-14.87-46.96-15.65,0,0,.98-.29,2.44-.73"/><path class="cls-65" d="M631.11,93.04l1-.31.38-.12.4-.12.4-.13.41-.14-.36.18c-.34.17-.94.24-1.11.57-1.66,3.09,24.22,24.18,93.58,6.42,28.14-7.2,44.89-7.83,82.84,3.05,1.72,2.29,2.91,3.88,2.91,3.88-21.14-6.19-35.93-9.18-50.23-9.18-7.34,0-14.56.79-22.43,2.35-16.02,3.2-21.81,6.77-50.17,9.3-4.7.42-9.05.61-13.09.61-36.73,0-46.45-14.87-46.96-15.65,0,0,.98-.29,2.44-.73"/><path class="cls-39" d="M631.11,93.04l1-.31.38-.12.4-.12.4-.13.41-.14v.02c-.61.29-1.84.42-2.01,1.09-.89,3.46,27.23,23.27,94.13,6.15,28.09-7.2,44.83-7.81,82.9,3.08,1.68,2.25,2.84,3.8,2.84,3.8-21.14-6.19-35.93-9.18-50.23-9.18-7.34,0-14.56.79-22.43,2.35-16.02,3.2-21.81,6.77-50.17,9.3-4.7.42-9.05.61-13.09.61-36.73,0-46.45-14.87-46.96-15.65,0,0,.98-.29,2.44-.73Z"/><path class="cls-47" d="M631.11,93.04l1-.31.38-.12.4-.12.4-.13.41-.14-.37.17c-.56.27-1.59.78-1.53,1.41.38,4.33,27.78,22.71,94.04,5.74,28.1-7.2,44.86-7.81,82.95,3.1,1.65,2.2,2.78,3.71,2.78,3.71-21.14-6.19-35.93-9.18-50.23-9.18-7.34,0-14.56.79-22.43,2.35-16.02,3.2-21.81,6.77-50.17,9.3-4.7.42-9.05.61-13.09.61-36.73,0-46.45-14.87-46.96-15.65,0,0,.98-.29,2.44-.73Z"/><path class="cls-46" d="M631.11,93.04l1-.31.38-.12.4-.12.4-.13.41-.14-.38.17c-.59.28-1.66.9-1.53,1.54.92,4.81,29.57,22.18,94.06,5.67,28.04-7.18,44.79-7.79,83,3.13,1.61,2.15,2.7,3.61,2.7,3.61-21.14-6.19-35.93-9.18-50.23-9.18-7.34,0-14.56.79-22.43,2.35-16.02,3.2-21.81,6.77-50.17,9.3-4.7.42-9.05.61-13.09.61-36.73,0-46.45-14.87-46.96-15.65,0,0,.98-.29,2.44-.73"/><path class="cls-52" d="M631.11,93.04l1-.31.38-.12.4-.12.4-.13.41-.14-.39.16c-.6.27-1.81.42-1.93,1.07-.69,3.7,26.26,23.68,94.48,6.22,28.06-7.19,44.82-7.79,83.05,3.14,1.57,2.1,2.64,3.53,2.64,3.53-21.14-6.19-35.93-9.18-50.23-9.18-7.34,0-14.56.79-22.43,2.35-16.02,3.2-21.81,6.77-50.17,9.3-4.7.42-9.05.61-13.09.61-36.73,0-46.45-14.87-46.96-15.65,0,0,.98-.29,2.44-.73"/><path class="cls-18" d="M631.11,93.04l1-.31.38-.12.4-.12.4-.13.41-.14-.39.15c-.64.28-1.91.43-2.03,1.12-.65,3.7,26.53,23.67,94.6,6.23,28.03-7.18,44.8-7.79,83.1,3.17,1.53,2.05,2.57,3.44,2.57,3.44-21.14-6.19-35.93-9.18-50.23-9.18-7.34,0-14.56.79-22.43,2.35-16.02,3.2-21.81,6.77-50.17,9.3-4.7.42-9.05.61-13.09.61-36.73,0-46.45-14.87-46.96-15.65,0,0,.98-.29,2.44-.73"/><path class="cls-53" d="M631.11,93.04l1-.31.38-.12.4-.12.4-.13.41-.14-.39.15c-.66.29-2.01.45-2.12,1.16-.61,3.69,26.78,23.66,94.7,6.27,30.31-7.77,46.63-7.14,83.16,3.18,1.5,2,2.5,3.35,2.5,3.35-21.14-6.19-35.93-9.18-50.23-9.18-7.34,0-14.56.79-22.43,2.35-16.02,3.2-21.81,6.77-50.17,9.3-4.7.42-9.05.61-13.09.61-36.73,0-46.45-14.87-46.96-15.65,0,0,.98-.29,2.44-.73"/><path class="cls-41" d="M630.4,93.25c.96.19,1.71,1.52,2.41,2.21,3.93,3.98,16.4,10.23,34.64,11.15,24.74,1.24,44.93-3.58,64.47-8.25,28.01-6.7,46.45-3.96,77.2,4.72,1.45,1.95,2.43,3.25,2.43,3.25-21.14-6.19-35.93-9.18-50.23-9.18-7.34,0-14.56.79-22.43,2.35-16.02,3.2-21.81,6.77-50.17,9.3-4.7.42-9.05.61-13.09.61-36.73,0-46.45-14.87-46.96-15.65,0,0,.67-.19,1.73-.52"/><path class="cls-3" d="M630.32,93.28c.96.2,1.72,1.53,2.41,2.23,3.99,4,16.47,10.27,34.48,11.18,25,1.27,45.18-3.57,64.7-8.25,28.02-6.72,46.49-3.97,77.26,4.77,1.41,1.89,2.36,3.14,2.36,3.14-21.14-6.19-35.93-9.18-50.23-9.18-7.34,0-14.56.79-22.43,2.35-16.02,3.2-21.81,6.77-50.17,9.3-4.7.42-9.05.61-13.09.61-36.73,0-46.45-14.87-46.96-15.65,0,0,.64-.19,1.66-.49"/><path class="cls-34" d="M630.24,93.3c.97.2,1.73,1.55,2.44,2.25,4.05,4.01,16.58,10.3,34.53,11.22,24.96,1.28,45.18-3.58,64.73-8.26,28.05-6.73,46.52-3.96,77.32,4.79,1.37,1.83,2.28,3.04,2.28,3.04-21.14-6.19-35.93-9.18-50.23-9.18-7.34,0-14.56.79-22.43,2.35-16.02,3.2-21.81,6.77-50.17,9.3-4.7.42-9.05.61-13.09.61-36.73,0-46.45-14.87-46.96-15.65,0,0,.61-.18,1.57-.47"/><path class="cls-49" d="M630.17,93.32c19.26,16.42,48.76,17.95,101.78,5.27,28.06-6.71,46.55-3.93,77.38,4.82,1.33,1.77,2.2,2.93,2.2,2.93-21.14-6.19-35.93-9.18-50.23-9.18-7.34,0-14.56.79-22.43,2.35-16.02,3.2-21.81,6.77-50.17,9.3-4.7.42-9.05.61-13.09.61-36.73,0-46.45-14.87-46.96-15.65,0,0,.57-.17,1.5-.45"/><path class="cls-58" d="M630.1,93.34c.4.09.73.61,1.02.9,10.75,10.31,28.81,12.3,36.08,12.68,24.92,1.3,45.18-3.55,64.77-8.25,27.91-6.7,46.45-3.93,77.44,4.84,1.28,1.71,2.12,2.83,2.12,2.83-21.14-6.19-35.93-9.18-50.23-9.18-7.34,0-14.56.79-22.43,2.35-16.02,3.2-21.81,6.77-50.17,9.3-4.7.42-9.05.61-13.09.61-36.73,0-46.45-14.87-46.96-15.65,0,0,.55-.16,1.43-.42"/><path class="cls-33" d="M630.03,93.37c.4.09.72.63,1,.92,6.62,6.91,20.81,11.9,36.16,12.71,24.91,1.31,45.19-3.55,64.8-8.25,27.97-6.71,46.51-3.93,77.5,4.86,1.24,1.66,2.05,2.74,2.05,2.74-21.14-6.19-35.93-9.18-50.23-9.18-7.34,0-14.56.79-22.43,2.35-16.02,3.2-21.81,6.77-50.17,9.3-4.7.42-9.05.61-13.09.61-36.73,0-46.45-14.87-46.96-15.65,0,0,.52-.15,1.36-.4"/><path class="cls-5" d="M629.96,93.38c.4.1.69.65.98.94,8.23,8.41,24.12,12.1,36.24,12.74,24.88,1.32,45.19-3.55,64.82-8.26,27.94-6.7,46.5-3.91,77.55,4.89,1.19,1.61,1.98,2.64,1.98,2.64-21.14-6.19-35.93-9.18-50.23-9.18-7.34,0-14.56.79-22.43,2.35-16.02,3.2-21.81,6.77-50.17,9.3-4.7.42-9.05.61-13.09.61-36.73,0-46.45-14.87-46.96-15.65,0,0,.48-.15,1.29-.39"/><path class="cls-10" d="M629.9,93.41c.4.1.68.66.96.96,10.59,10.62,30.47,12.48,36.31,12.78,24.87,1.34,45.2-3.54,64.85-8.25,27.98-6.72,46.55-3.92,77.61,4.9,1.16,1.55,1.91,2.54,1.91,2.54-21.14-6.19-35.93-9.18-50.23-9.18-7.34,0-14.56.79-22.43,2.35-16.02,3.2-21.81,6.77-50.17,9.3-4.7.42-9.05.61-13.09.61-36.73,0-46.45-14.87-46.96-15.65,0,0,.46-.14,1.23-.36"/><path class="cls-36" d="M629.82,93.43c.4.1.67.69.96.97,8.33,8.46,24.26,12.17,36.4,12.83,24.87,1.35,46.12-3.75,64.87-8.25,27.88-6.7,45.73-4.03,77.66,4.92,1.12,1.5,1.83,2.46,1.83,2.46-21.14-6.19-35.93-9.18-50.23-9.18-7.34,0-14.56.79-22.43,2.35-16.02,3.2-21.81,6.77-50.17,9.3-4.7.42-9.05.61-13.09.61-36.73,0-46.45-14.87-46.96-15.65,0,0,.43-.13,1.15-.34"/><path class="cls-31" d="M629.74,93.46c.44.11.75.76,1.07,1.08,10.37,10.56,30.61,12.45,36.57,12.78,24.62,1.35,45.91-3.76,64.68-8.27,27.85-6.68,45.72-4.01,77.72,4.96,1.08,1.44,1.76,2.34,1.76,2.34-21.14-6.19-35.93-9.18-50.23-9.18-7.34,0-14.56.79-22.43,2.35-16.02,3.2-21.81,6.77-50.17,9.3-4.7.42-9.05.61-13.09.61-36.73,0-46.45-14.87-46.96-15.65,0,0,.4-.12,1.07-.31"/><path class="cls-70" d="M629.65,93.48c.4.1.67.69.96.99,7.06,7.23,20.37,11.94,36.52,12.92,25.12,1.53,50.64-4.76,62.91-7.78,28.9-7.12,46.04-5.01,79.84,4.51,1.02,1.36,1.66,2.22,1.66,2.22-21.14-6.19-35.93-9.18-50.23-9.18-7.34,0-14.56.79-22.43,2.35-16.02,3.2-21.81,6.77-50.17,9.3-4.7.42-9.05.61-13.09.61-36.73,0-46.45-14.87-46.96-15.65,0,0,.36-.11.98-.29"/><path class="cls-22" d="M629.57,93.5c.4.1.67.7.96,1,6.8,7.13,20.82,12.1,36.59,12.98,24.59,1.36,45.11-3.54,64.97-8.29,27.93-6.68,45.83-3.98,77.88,5.06.97,1.29,1.57,2.09,1.57,2.09-21.14-6.19-35.93-9.18-50.23-9.18-7.34,0-14.56.79-22.43,2.35-16.02,3.2-21.81,6.77-50.17,9.3-4.7.42-9.05.61-13.09.61-36.73,0-46.45-14.87-46.96-15.65,0,0,.33-.1.9-.27"/><path class="cls-28" d="M629.49,93.52c.41.11.67.72.95,1.03,6.64,7.14,20.69,12.14,36.66,13.04,24.71,1.39,46.12-3.75,65-8.29,27.86-6.69,45.8-3.98,77.95,5.08.91,1.21,1.48,1.96,1.48,1.96-21.14-6.19-35.93-9.18-50.23-9.18-7.34,0-14.56.79-22.43,2.35-16.02,3.2-21.81,6.77-50.17,9.3-4.7.42-9.05.61-13.09.61-36.73,0-46.45-14.87-46.96-15.65,0,0,.31-.09.82-.25"/><path class="cls-14" d="M629.43,93.54c.4.12.66.74.94,1.05,4.87,5.35,17.41,11.99,36.73,13.09,24.7,1.41,46.12-3.74,65.02-8.27,27.93-6.71,45.88-4,78.02,5.08.86,1.15,1.39,1.86,1.39,1.86-21.14-6.19-35.93-9.18-50.23-9.18-7.34,0-14.56.79-22.43,2.35-16.02,3.2-21.81,6.77-50.17,9.3-4.7.42-9.05.61-13.09.61-36.73,0-46.45-14.87-46.96-15.65,0,0,.27-.08.76-.23"/><path class="cls-40" d="M629.36,93.56c.41.12.66.74.94,1.07,1.7,1.91,11.49,11.52,36.8,13.14,25,1.6,50.69-4.73,63.03-7.78,28.93-7.12,46.14-4.98,80.11,4.62.81,1.08,1.3,1.74,1.3,1.74-21.14-6.19-35.93-9.18-50.23-9.18-7.34,0-14.56.79-22.43,2.35-16.02,3.2-21.81,6.77-50.17,9.3-4.7.42-9.05.61-13.09.61-36.73,0-46.45-14.87-46.96-15.65,0,0,.25-.07.69-.2"/><path class="cls-66" d="M629.26,93.59c.3.08.48.53.68.76,7.93,8.83,24.39,12.76,37.15,13.51,24.69,1.44,46.15-3.72,65.08-8.26,27.94-6.71,45.91-3.99,78.15,5.12.76,1.01,1.22,1.62,1.22,1.62-21.14-6.19-35.93-9.18-50.23-9.18-7.35,0-14.56.79-22.43,2.35-16.02,3.2-21.81,6.77-50.17,9.3-4.7.42-9.05.61-13.09.61-36.73,0-46.45-14.87-46.96-15.65,0,0,.22-.06.59-.18"/><path class="cls-61" d="M629.17,93.63c.42.12.67.75.95,1.07,2.41,2.71,12.18,11.65,36.92,13.25,25.02,1.62,50.76-4.72,63.13-7.77,30.48-7.51,47.86-4.34,80.27,4.68.69.92,1.11,1.47,1.11,1.47-21.14-6.19-35.93-9.18-50.23-9.18-7.35,0-14.56.79-22.43,2.35-16.02,3.2-21.81,6.77-50.17,9.3-4.7.42-9.05.61-13.09.61-36.73,0-46.45-14.87-46.96-15.65,0,0,.19-.06.5-.15"/><path class="cls-71" d="M629.08,93.65c.42.12.66.78.95,1.11,4.64,5.42,17.12,12.16,37.01,13.34,24.48,1.46,46.1-3.72,65.18-8.31,28.92-6.94,46.9-3.55,78.35,5.25.61.82.98,1.3.98,1.3-21.14-6.19-35.93-9.18-50.23-9.18-7.34,0-14.56.79-22.43,2.35-16.02,3.2-21.81,6.77-50.17,9.3-4.7.42-9.05.61-13.09.61-36.73,0-46.45-14.87-46.96-15.65,0,0,.15-.04.41-.12"/><path class="cls-55" d="M629.01,93.67c.43.13.66.8.94,1.14,3.63,4.37,15.51,12.12,37.09,13.44,24.54,1.49,47.09-3.93,65.22-8.28,27.75-6.67,45.85-3.92,78.43,5.25.54.72.86,1.14.86,1.14-21.14-6.19-35.93-9.18-50.23-9.18-7.34,0-14.56.79-22.43,2.35-16.02,3.2-21.81,6.77-50.17,9.3-4.7.42-9.05.61-13.09.61-36.73,0-46.45-14.88-46.96-15.66,0,0,.12-.03.34-.1"/><path class="cls-38" d="M628.9,93.7c.42.13.65.78.94,1.12,1.63,1.95,11.08,11.77,37.19,13.54,24.87,1.7,51.75-4.93,63.22-7.77,30.6-7.54,48.04-4.35,80.54,4.76.47.62.73.99.73.99-21.14-6.19-35.93-9.18-50.23-9.18-7.34,0-14.56.79-22.43,2.35-16.02,3.2-21.81,6.77-50.17,9.3-4.7.42-9.05.61-13.09.61-36.73,0-46.45-14.87-46.96-15.65,0,0,.08-.02.23-.07"/><path class="cls-32" d="M628.8,93.73c.43.14.65.82.93,1.19.38.48,9.63,11.93,37.24,13.67,24.18,1.53,47-3.93,65.35-8.33,28.72-6.87,46.03-3.64,78.68,5.36-20.6-5.47-35.39-8.46-49.69-8.46-7.34,0-14.56.79-22.43,2.35-16.02,3.2-21.81,6.77-50.17,9.3-4.7.42-9.05.61-13.09.61-36.73,0-46.45-14.87-46.96-15.65,0,0,.04,0,.13-.04"/><path class="cls-41" d="M631.11,93.04c.34-.1.67-.2,1-.31l.38-.12c.12-.04.27-.09.4-.12l.4-.13c.12-.04.28-.1.41-.14l-.4.15c-1.29.52-1.49.65-1.85.89-.02,0-.05.04-.07.04-.11.02-.27-.06-.37-.07-.15-.03-.36-.02-.51,0,.19-.06.4-.12.62-.19"/><path class="cls-3" d="M631.11,93.04c.34-.1.67-.2,1-.31l.38-.12c.12-.04.27-.09.4-.12l.4-.13c.12-.04.28-.1.41-.14l-.4.15c-1.24.48-1.48.63-1.86.87-.02,0-.04.03-.07.04-.1.03-.26-.05-.36-.07-.14-.02-.33,0-.47,0,.19-.06.39-.12.59-.18"/><path class="cls-34" d="M631.11,93.04c.34-.1.67-.2,1-.31l.38-.12c.12-.04.27-.09.4-.12l.4-.13c.12-.04.28-.1.41-.14l-.4.15c-1.24.48-1.5.62-1.88.85-.02,0-.05.03-.07.04-.1.04-.25-.04-.36-.06-.13-.02-.3,0-.43,0,.18-.05.37-.1.57-.17"/><path class="cls-49" d="M631.11,93.04c.34-.1.67-.2,1-.31l.38-.12c.12-.04.27-.09.4-.12l.4-.13c.12-.04.28-.1.41-.14-1.55.55-2.04.82-2.3.97-.02,0-.05.03-.07.04-.1.03-.24-.03-.35-.06-.11-.02-.27,0-.39.02.17-.05.35-.11.53-.16"/><path class="cls-58" d="M631.11,93.04c.34-.1.67-.2,1-.31l.38-.12c.12-.04.27-.09.4-.12l.4-.13c.12-.04.28-.1.41-.14l-.4.14c-1.19.44-1.49.58-1.91.82-.02,0-.05.02-.07.03-.1.03-.24-.03-.35-.04-.1,0-.24,0-.35.02.16-.05.33-.1.5-.15Z"/><path class="cls-33" d="M631.11,93.04c.34-.1.67-.2,1-.31l.38-.12c.12-.04.27-.09.4-.12l.4-.13.36-.12-.4.15c-1.15.42-1.45.55-1.87.78-.02,0-.05.03-.07.03-.1.03-.23-.02-.34-.03-.09-.02-.22,0-.31.02.15-.04.31-.09.47-.14"/><path class="cls-5" d="M631.11,93.04c.34-.1.67-.2,1-.31l.38-.12c.12-.04.27-.09.4-.12l.4-.13.28-.1-.4.14c-1.11.4-1.38.52-1.82.73-.02,0-.05.03-.07.04-.17.05-.42-.02-.6,0,.15-.05.28-.09.44-.14"/><path class="cls-10" d="M631.11,93.04c.34-.1.67-.2,1-.31l.38-.12c.12-.04.27-.09.4-.12l.4-.13.19-.06-.4.14c-1.07.37-1.32.48-1.74.68-.02,0-.05.02-.07.03-.16.05-.39,0-.55,0,.13-.04.27-.08.4-.12"/><path class="cls-36" d="M631.11,93.04c.34-.1.67-.2,1-.31l.38-.12c.12-.04.27-.09.4-.12l.4-.13.1-.03-.4.14c-.87.31-1.2.44-1.67.64-.02,0-.05.02-.06.03-.15.05-.36,0-.51.02.11-.04.24-.08.37-.11"/><path class="cls-31" d="M631.11,93.04c.34-.1.67-.2,1-.31l.38-.12c.12-.04.27-.09.4-.12l.4-.13h0l-.4.13c-.65.23-1.03.36-1.58.6-.02,0-.05.02-.07.03-.13.04-.32,0-.46.02.11-.03.23-.06.34-.1"/><path class="cls-70" d="M631.11,93.04c.34-.1.67-.2,1-.31l.38-.12c.12-.04.27-.09.4-.12.09-.02.21-.06.31-.1-.11.04-.27.09-.39.13-.53.18-1.04.42-1.57.58-.12.04-.3,0-.42.03.1-.03.2-.06.31-.1"/><path class="cls-22" d="M631.11,93.04c.34-.1.67-.2,1-.31l.38-.12c.12-.04.27-.09.4-.12.06-.02.14-.04.19-.06-.09.03-.19.06-.28.1-.53.18-1.05.4-1.58.57-.11.03-.27,0-.38.03.09-.02.19-.06.27-.08Z"/><path class="cls-28" d="M631.11,93.04c.34-.1.67-.2,1-.31l.38-.12c.12-.04.27-.09.4-.12.02,0,.05-.02.07-.02-.05.02-.11.04-.16.06-.53.18-1.06.39-1.59.55-.1.03-.23.02-.34.04.08-.02.16-.05.25-.07"/><path class="cls-14" d="M631.11,93.04c.34-.1.67-.2,1-.31l.38-.12.34-.11h-.03c-.53.19-1.06.39-1.6.56-.08.02-.21.02-.3.04.06-.02.14-.04.21-.06Z"/><path class="cls-40" d="M631.11,93.04c.34-.1.67-.2,1-.31l.38-.12.19-.06-.39.12c-.79.26-1.24.4-1.36.41.06-.02.12-.03.18-.06"/><path class="cls-66" d="M631.11,93.04c.34-.1.67-.2,1-.31l.38-.12h.02l-.37.11c-.67.22-1.06.34-1.17.36.05-.02.1-.03.15-.05Z"/><path class="cls-61" d="M631.11,93.04c.34-.1.67-.2,1-.31.06-.02.15-.05.23-.07-.11.03-.27.08-.38.12-.32.1-.63.23-.97.29.04,0,.08-.02.11-.04"/><path class="cls-71" d="M631.11,93.04c.34-.1.67-.2,1-.31,0,0,.02,0,.03,0-.06.02-.15.05-.19.06-.31.09-.61.21-.92.27.02,0,.06,0,.08-.02Z"/><path class="cls-55" d="M631.11,93.04c.27-.08.54-.16.82-.24l-.36.11c-.16.05-.33.11-.49.15.02,0,.03,0,.04-.02Z"/><path class="cls-38" d="M631.11,93.04c.17-.05.4-.12.57-.17l-.35.11c-.07.02-.17.05-.24.07h0"/><path class="cls-32" d="M631.42,92.96c-.09.02-.2.06-.28.08.08-.02.19-.06.28-.08Z"/></g></g><g class="cls-21"><g><path class="cls-57" d="M633.68,92.23c-.76.25-1.39.46-2.58.82.76-.23,1.65-.49,2.6-.78l-.02-.04Z"/><path class="cls-57" d="M633.69,92.27h.02l-.02-.04c-.27.09-.53.19-.81.27l-.4.12c-.11.03-.26.09-.38.12l-.36.11-.64.19c.76-.23,1.64-.48,2.58-.77"/><path class="cls-54" d="M633.47,92.34c.07-.02.21,0,.23-.07-.02-.02-.02-.03-.02-.03-.27.09-.53.19-.81.27l-.4.12c-.11.03-.26.09-.38.12l-.36.11-.64.19c.69-.2,1.5-.44,2.37-.7"/><path class="cls-72" d="M633.26,92.4c.14-.04.31-.1.44-.14-.02-.02-.02-.03-.02-.03-.27.09-.53.19-.81.27l-.4.12c-.11.03-.26.09-.38.12l-.36.11-.64.19c.64-.19,1.37-.4,2.16-.64Z"/><path class="cls-27" d="M633.05,92.46c.19-.06.45-.15.65-.21,0-.02-.02-.02-.02-.02-.12.04-.28.09-.41.14-.12.04-.28.1-.4.13l-.4.12c-.11.03-.26.09-.38.12l-.36.11-.64.19c.58-.17,1.24-.36,1.94-.57"/><path class="cls-35" d="M632.84,92.53c.29-.09.57-.19.86-.27,0-.02-.02-.02-.02-.02-.12.04-.28.09-.41.14-.12.04-.28.1-.4.13l-.4.12c-.11.03-.26.09-.38.12l-.36.11-.64.19c.52-.15,1.11-.33,1.73-.52"/><path class="cls-44" d="M632.72,92.57c.33-.11.65-.22.98-.32v-.02c-.28.09-.55.19-.82.27l-.4.12c-.11.03-.26.09-.38.12l-.36.11-.64.19c.48-.15,1.03-.31,1.61-.48"/><path class="cls-64" d="M632.61,92.59l1.08-.36v-.02c-.13.04-.29.09-.42.14-.12.03-.28.1-.4.13l-.4.12c-.11.03-.26.09-.37.12l-.37.11-.64.19c.46-.14.97-.28,1.5-.44"/><path class="cls-48" d="M632.51,92.62c.4-.13.78-.26,1.18-.39,0,0,0-.02,0-.02-.27.09-.53.19-.81.27l-.4.12c-.11.03-.26.09-.38.12l-.36.11-.64.19c.43-.13.9-.27,1.4-.41"/><path class="cls-48" d="M632.41,92.66c.43-.14.86-.27,1.28-.41l-.41.12c-.12.04-.28.1-.4.13l-.4.12c-.11.03-.26.09-.38.12l-.36.11-.64.19c.4-.11.83-.25,1.3-.39"/><path class="cls-19" d="M632.31,92.69c.46-.15.92-.3,1.38-.45-.27.08-.53.18-.81.26l-.4.12c-.11.03-.26.09-.38.12l-.36.11-.64.19c.37-.11.78-.23,1.2-.36"/><path class="cls-73" d="M632.21,92.71c.49-.15.98-.32,1.48-.48-.27.08-.53.18-.81.26l-.4.12c-.11.03-.26.09-.38.12l-.36.11-.64.19c.35-.1.72-.21,1.1-.32"/><path class="cls-63" d="M632.11,92.75c.52-.17,1.05-.34,1.57-.51l-.41.13c-.12.04-.28.1-.4.13l-.4.12c-.11.03-.26.09-.38.12l-.36.11-.64.19c.31-.09.65-.19,1-.3"/><path class="cls-74" d="M632.01,92.78c.56-.18,1.11-.36,1.67-.54l-.41.13c-.12.04-.28.1-.4.13l-.39.12c-.11.03-.26.09-.38.12l-.36.11-.64.19c.28-.08.59-.17.9-.27"/><path class="cls-62" d="M633.69,92.23c-.21.06-.49.16-.7.23l.4-.13.3-.1Z"/><path class="cls-62" d="M631.92,92.8l.72-.23-.38.12-.15.05-.36.11-.64.19c.26-.07.53-.15.82-.24"/><path class="cls-29" d="M633.69,92.23c-.15.05-.33.11-.48.16l.4-.14.07-.02Z"/><path class="cls-29" d="M631.86,92.82c.19-.06.37-.11.57-.18-.2.06-.48.15-.68.21l-.64.19c.24-.07.49-.15.75-.23"/><path class="cls-20" d="M633.68,92.23l-.28.09c.09-.02.24,0,.28-.09Z"/><path class="cls-20" d="M631.8,92.83c.12-.03.27-.09.39-.12-.13.04-.31.1-.44.14l-.64.19c.22-.06.45-.13.69-.2Z"/><path class="cls-9" d="M633.68,92.23l-.11.03s.08,0,.11-.03Z"/><path class="cls-9" d="M631.72,92.86c.06-.02.15-.05.22-.07-.11.03-.25.07-.36.11-.15.05-.33.11-.48.15.19-.06.4-.11.61-.18"/><path class="cls-25" d="M631.66,92.88c.06-.02.14-.05.19-.06-.11.03-.25.08-.36.11-.11.04-.27.08-.4.11.18-.05.36-.11.55-.16"/><path class="cls-51" d="M631.59,92.9s.12-.04.18-.06c-.11.03-.25.07-.36.11l-.31.09c.15-.04.32-.09.48-.15"/><path class="cls-43" d="M631.54,92.92s.1-.03.15-.05c-.11.03-.24.07-.35.11l-.22.06c.14-.04.27-.08.43-.12"/><path class="cls-1" d="M631.46,92.93s.09-.02.12-.04c-.1.03-.24.07-.34.11l-.14.04c.12-.03.23-.07.36-.11Z"/><path class="cls-37" d="M631.4,92.96s.07-.02.11-.03c-.11.03-.24.07-.34.11l-.06.02c.1-.02.19-.06.29-.09Z"/><path class="cls-68" d="M631.34,92.97s.06-.02.08-.02c-.1.02-.22.06-.31.09.08-.02.15-.04.23-.06Z"/><path class="cls-7" d="M631.28,93s.04,0,.06-.02c-.06.02-.16.05-.23.06.06-.02.11-.02.17-.05Z"/><path class="cls-8" d="M631.21,93.01s.02,0,.04,0c-.04,0-.1.02-.15.04.03,0,.07-.02.11-.02"/><path class="cls-17" d="M631.16,93.03s-.04,0-.06.02c.02,0,.03,0,.05-.02"/></g></g><g class="cls-26"><g><path class="cls-69" d="M806.5,99.63V11.49s0,0,.02-.02v88.16s-.02,0-.02-.02"/><path class="cls-57" d="M806.51,99.64V11.48l.19-.19v88.61c-.07-.08-.13-.17-.19-.25Z"/><path class="cls-54" d="M806.71,99.89V11.29c.06-.06.12-.13.19-.19v89.05c-.06-.09-.12-.17-.19-.26Z"/><path class="cls-72" d="M806.89,100.15V11.1l.14-.14v89.36l-.14-.17Z"/><path class="cls-27" d="M807.03,100.32V10.96l.13-.13v89.66c-.04-.06-.08-.11-.13-.17Z"/><path class="cls-35" d="M807.15,100.5V10.83s.09-.08.12-.12v89.95c-.04-.06-.08-.11-.12-.17"/><path class="cls-44" d="M807.28,100.66V10.7s.07-.07.11-.1v90.2s-.07-.1-.11-.15"/><path class="cls-64" d="M807.38,100.81V10.61s.07-.06.1-.1v90.43s-.06-.08-.1-.13"/><path class="cls-48" d="M807.48,100.93V10.5s.06-.06.11-.1v90.66s-.07-.09-.11-.13Z"/><path class="cls-48" d="M807.59,101.07V10.41s.07-.06.1-.1v90.89s-.06-.09-.1-.13Z"/><path class="cls-19" d="M807.68,101.2V10.31s.06-.06.09-.09v91.09s-.06-.08-.09-.11Z"/><path class="cls-73" d="M807.76,101.31V10.22s.06-.06.09-.08v91.3s-.06-.07-.09-.11"/><path class="cls-63" d="M807.85,101.43V10.14s.06-.06.09-.08v91.49s-.06-.07-.09-.11"/><path class="cls-74" d="M807.94,101.54V10.05s.06-.06.09-.08v91.68s-.06-.07-.09-.11Z"/><path class="cls-62" d="M808.02,101.65V9.97s.05-.05.07-.09v91.88s-.05-.07-.07-.11"/><path class="cls-29" d="M808.1,101.76V9.88s.06-.05.08-.07v92.06s-.06-.07-.08-.1"/><path class="cls-20" d="M808.18,101.87V9.81l.07-.07v92.23l-.07-.1Z"/><path class="cls-9" d="M808.25,101.97V9.74l.08-.08v92.42l-.08-.1Z"/><path class="cls-25" d="M808.34,102.07V9.65s.05-.05.07-.07v92.59s-.05-.06-.07-.1Z"/><path class="cls-51" d="M808.41,102.17V9.58s.05-.05.07-.07v92.77s-.05-.06-.07-.11Z"/><path class="cls-43" d="M808.48,102.27V9.5s.05-.05.07-.07v92.94s-.05-.06-.07-.1"/><path class="cls-1" d="M808.56,102.37V9.43l.07-.07v93.11s-.05-.06-.07-.1"/><path class="cls-37" d="M808.64,102.47V9.36l.07-.07v93.27s-.05-.06-.07-.1"/><path class="cls-68" d="M808.7,102.57V9.28s.05-.05.07-.07v93.45s-.05-.06-.07-.1Z"/><path class="cls-7" d="M808.77,102.66V9.21l.07-.07v93.61s-.04-.06-.07-.1"/><path class="cls-8" d="M808.85,102.75V9.15s.05-.05.07-.07v93.78s-.05-.06-.07-.1Z"/><path class="cls-17" d="M808.92,102.85V9.07s.06-.05.07-.07v93.95s-.05-.06-.07-.1"/><path class="cls-65" d="M808.99,102.95V8.99s.05-.05.07-.07v94.12l-.07-.1Z"/><path class="cls-39" d="M809.06,103.04V8.93l.07-.07v94.28s-.04-.06-.07-.09"/><path class="cls-47" d="M809.13,103.14V8.86s.05-.05.07-.07v94.45s-.05-.06-.07-.1Z"/><path class="cls-46" d="M809.21,103.24V8.78s.05-.05.07-.07v94.62s-.05-.06-.07-.1Z"/><path class="cls-52" d="M809.28,103.33V8.71l.07-.07v94.79s-.04-.06-.07-.1"/><path class="cls-18" d="M809.35,103.43V8.64s.05-.05.07-.07v94.95s-.05-.06-.07-.09Z"/><path class="cls-53" d="M809.42,103.52V8.56s.05-.05.07-.07v95.12l-.07-.1"/><path class="cls-41" d="M809.49,103.62V8.49s.05-.05.07-.07v95.29s-.05-.06-.07-.1"/><path class="cls-3" d="M809.56,103.72V8.42s.05-.05.07-.07v95.47s-.05-.06-.07-.1Z"/><path class="cls-34" d="M809.65,103.82V8.35s.05-.05.07-.07v95.63s-.05-.06-.07-.1"/><path class="cls-49" d="M809.72,103.91V8.27s.05-.05.07-.07v95.81s-.05-.06-.07-.1Z"/><path class="cls-58" d="M809.79,104.01V8.2s.06-.05.08-.08v96s-.05-.06-.08-.1Z"/><path class="cls-33" d="M809.86,104.11V8.12s.06-.05.08-.07v96.17s-.06-.06-.08-.1"/><path class="cls-5" d="M809.94,104.21V8.05s.05-.05.07-.07v96.34s-.05-.06-.07-.1"/><path class="cls-10" d="M810.02,104.31V7.97s.05-.05.08-.07v96.52s-.05-.06-.08-.1Z"/><path class="cls-36" d="M810.1,104.42V7.89s.06-.06.08-.08v96.72s-.06-.07-.08-.1"/><path class="cls-31" d="M810.18,104.53V7.81s.05-.05.08-.08v96.91s-.06-.07-.08-.11Z"/><path class="cls-70" d="M810.26,104.64V7.73s.06-.05.08-.08v97.09s-.05-.07-.08-.11Z"/><path class="cls-22" d="M810.34,104.75V7.65s.06-.06.09-.09v97.3s-.06-.07-.09-.12"/><path class="cls-28" d="M810.43,104.86V7.56s.06-.06.09-.09v97.49s-.06-.07-.09-.11"/><path class="cls-14" d="M810.52,104.97V7.47s.06-.06.09-.09v97.7s-.06-.07-.09-.12"/><path class="cls-40" d="M810.61,105.09V7.39s.07-.06.09-.1v97.92s-.06-.08-.09-.12Z"/><path class="cls-66" d="M810.7,105.21V7.3s.06-.06.09-.09v98.13s-.06-.08-.09-.12Z"/><path class="cls-61" d="M810.78,105.34V7.21s.07-.07.11-.1v98.37s-.06-.09-.11-.14Z"/><path class="cls-71" d="M810.89,105.47V7.1s.06-.07.11-.1v98.61s-.07-.09-.11-.14Z"/><path class="cls-55" d="M810.99,105.61V7s.08-.08.12-.11v98.89s-.08-.11-.12-.15"/><path class="cls-38" d="M811.11,105.77V6.88s.09-.09.13-.14v99.2c-.04-.06-.09-.11-.13-.18Z"/><path class="cls-32" d="M811.24,105.95V6.75c.19-.19.3-.3.3-.3v99.9s-.11-.14-.3-.4Z"/></g></g></g></g></g></g><g class="cls-11"><path class="cls-67" d="M811.56,6.43h-182.91v6.23h182.91v-6.23Z"/></g><g class="cls-50"><path class="cls-4" d="M634.89,6.43h-6.24v87.35h6.24V6.43Z"/></g><path class="cls-42" d="M646.01,81.08l.03-33.13c-.05-.64-.2-3.55,1.59-5.53.74-.82,2.13-1.78,4.53-1.78l28.97-.02h.28c.84,0,2.98.16,4.61,1.69.31.28.57.6.82.96.18.27.48.41.78.41.09,0,.19-.02.27-.04.4-.12.66-.48.66-.9v-2.27h3.42c.42,0,.79-.27.9-.68.11-.4-.05-.83-.41-1.06-2-1.24-3.2-3.38-3.2-5.71,0-1.79.69-3.47,1.96-4.73,1.26-1.26,2.93-1.95,4.71-1.95,2.62,0,5.01,1.53,6.1,3.9.15.33.48.55.86.55s.69-.21.86-.54c.34-.74.8-1.39,1.36-1.95,1.27-1.26,2.94-1.95,4.72-1.95,2.73,0,5.16,1.63,6.2,4.15.15.36.49.58.87.58.06,0,.12,0,.19-.02.44-.09.76-.48.76-.92v-7.34l27.86-.02v22.67c0,.44.31.82.73.91.07.02.15.02.22.02.35,0,.68-.19.84-.52,1.58-3.17,4.66-5.23,7.85-5.23h9.55c3.95,0,6.97,1.98,8.29,5.43.14.37.49.61.88.61.06,0,.11,0,.17-.02.44-.08.77-.47.77-.92v-2.51l.36-.28c.28-.22,2.04-1.43,8.78-3.11,2.24-.56,4.32-.83,6.2-.83,2.47,0,3.77.49,3.91.55l.57.23v8.37l-.79.13s-.57.09-3.4.72l-.32.07c-1.13.25-1.87.41-2.39.89-.24.24-.34,10.62-.32,31.13h-12.59v-5.11c0-.44-.31-.83-.75-.92-.06-.02-.13-.02-.19-.02-.37,0-.71.22-.86.57-1.44,3.34-4.73,5.49-8.37,5.49h-9.49c-3.01,0-6.24-2.05-7.86-5-.17-.31-.48-.49-.82-.49-.08,0-.15,0-.23.03-.41.1-.71.48-.71.91v4.51l-27.85.03v-4.81c0-.43-.29-.81-.71-.91-.07-.02-.15-.03-.23-.03-.34,0-.66.19-.83.5-1.59,2.99-4.77,5.25-7.4,5.25h-11.54c-1.91,0-4.11-1.08-5.89-2.9-.64-.64-1.17-1.32-1.6-2.05-.17-.29-.48-.46-.81-.46-.08,0-.16,0-.25.03-.41.11-.69.48-.69.9v4.48l-41.88-.02h-.02ZM716.89,34.99c-.38,0-.73.23-.87.58-.53,1.3-1.49,2.42-2.7,3.16-.36.22-.52.65-.41,1.06.11.4.48.69.9.69h3.07c.52,0,.94-.42.94-.94v-3.6c0-.45-.31-.83-.76-.92-.06-.02-.12-.02-.18-.02h0ZM705.85,40.47c.42,0,.79-.27.9-.68.11-.4-.05-.83-.41-1.06-1.15-.71-2.04-1.72-2.59-2.92-.15-.33-.48-.55-.86-.55s-.7.21-.86.55c-.56,1.21-1.45,2.22-2.58,2.92-.36.22-.52.65-.41,1.06.11.4.48.68.9.68h5.9Z"/><g class="cls-59"><g class="cls-56"><path class="cls-42" d="M794.58,38.67c-.39-.15-3.86-1.45-10.69.24-6.77,1.69-8.71,2.94-9.15,3.29l-.7.57v2.96c-1.42-3.73-4.76-6.03-9.16-6.03h-9.56c-3.67,0-7.02,2.4-8.69,5.75v-23.61l-29.74.02v8.28c-1.15-2.78-3.88-4.73-7.06-4.73-2.03,0-3.96.79-5.39,2.23-.65.65-1.17,1.41-1.54,2.22-1.21-2.62-3.87-4.45-6.94-4.45-2.03,0-3.95.79-5.38,2.23-1.45,1.44-2.24,3.36-2.24,5.4,0,2.75,1.47,5.15,3.65,6.51h-4.36v3.21c-.27-.4-.57-.78-.94-1.11-2.13-2-4.99-1.97-5.54-1.95l-28.86.02h.03c-2.83-.04-4.47,1.12-5.36,2.09-2.04,2.26-1.9,5.44-1.83,6.16l-.03,34.07,43.76.02v-5.42c.46.78,1.04,1.53,1.74,2.24,1.95,1.99,4.41,3.17,6.56,3.17h11.54c3.16,0,6.57-2.6,8.23-5.75v5.75l29.73-.03v-5.45c1.7,3.1,5.16,5.48,8.68,5.48h9.43c4.49.02,7.86-2.74,9.29-6.06v6.05h14.48s-.04-31.32.02-31.38c.36-.33,1.15-.48,2.28-.73,2.7-.61,3.33-.71,3.35-.71l1.57-.26v-9.79l-1.15-.48v-.02ZM702.45,39.53h-2.49c1.28-.79,2.31-1.95,2.95-3.33.63,1.38,1.67,2.54,2.95,3.34h-3.41ZM716.05,39.54h-2.24c1.37-.84,2.45-2.1,3.07-3.6v3.6h-.83Z"/></g></g><path class="cls-15" d="M646.94,80.15l-.04-32.28s-.65-6.36,5.36-6.28h28.92s5.8-.51,5.76,5.7v32.87h-11.79l.02-28.79s-.19-1.45-1.13-1.45c-1.29,0-1.4,1.25-1.4,1.25v28.99h-11.55v-29.19s.02-.78-1.25-1.07c-1.16.1-1.26,1.26-1.26,1.26v28.98l-11.63.02h0Z"/><path class="cls-15" d="M689.48,41.4s0,29.81,0,31.14c-.04,3.51,4.26,7.61,7.64,7.61h11.54c3.28,0,7.34-4.09,7.39-7.61v-31.13h-11.71l.03,28.81s.04,1.16-1.41,1.16c-1.36,0-1.56-1.07-1.56-1.07v-28.91h-11.92Z"/><path class="cls-15" d="M732.91,23.72l11.83.02.02,56.41h-11.82s-.03-56.43-.03-56.43Z"/><path class="cls-15" d="M772.92,61.2v-11.11c0-5.32-3.25-8.52-8.05-8.52h-9.56c-4.15,0-7.96,3.98-7.96,8.52,0,.28-.02,22.46-.02,22.46.02,3.51,3.83,7.61,7.98,7.61.89,0,8.35-.02,9.44,0,4.92.02,8.16-4.09,8.23-7.6v-9.05h-10.96v6.89s.1,1.28-1.45,1.37c-1.55,0-1.66-1.46-1.66-1.46v-9.08l14.01-.02h0Z"/><path class="cls-15" d="M690.11,33.02c0-3.23,2.62-5.86,5.85-5.86s5.85,2.62,5.86,5.86c0,3.23-2.62,5.86-5.85,5.86s-5.85-2.62-5.85-5.86Z"/><path class="cls-15" d="M703.98,33.02c0-3.23,2.62-5.86,5.85-5.86s5.85,2.62,5.85,5.86c0,3.23-2.62,5.86-5.85,5.86s-5.85-2.62-5.86-5.86Z"/><path class="cls-15" d="M775.9,80.15v-36.48s1.53-1.22,8.43-2.93c6.43-1.6,9.54-.32,9.54-.32v7.12s-.5-.03-3.46.57c-2.88.58-3.76,1.49-3.76,1.49v30.58h-10.74Z"/><path class="cls-15" d="M718.76,23.72l.02,56.43h11.71V23.72h-11.73Z"/><path class="cls-42" d="M758.91,51.86v6.79h3.11v-6.7s-.19-1.55-1.45-1.55c-1.46-.19-1.65,1.45-1.65,1.45h0Z"/></g></g></g></svg>